<?xml version="1.0" standalone="no"?>
<!DOCTYPE svg PUBLIC "-//W3C//DTD SVG 20010904//EN"
 "http://www.w3.org/TR/2001/REC-SVG-20010904/DTD/svg10.dtd">
<svg version="1.0" xmlns="http://www.w3.org/2000/svg"
 width="729.000000pt" height="729.000000pt" viewBox="0 0 729.000000 729.000000"
 preserveAspectRatio="xMidYMid meet">
<metadata>
Created by potrace 1.14, written by Peter Selinger 2001-2017
</metadata>
<g transform="translate(0.000000,729.000000) scale(0.100000,-0.100000)"
fill="#000000" stroke="none">
<path d="M3169 7035 c-2 -2 -40 -6 -84 -9 -44 -4 -91 -8 -105 -10 -14 -3 -61
-10 -105 -16 -386 -56 -806 -203 -1168 -409 -338 -192 -690 -491 -937 -796
-36 -44 -67 -82 -70 -85 -25 -24 -177 -250 -222 -329 -115 -200 -171 -313
-238 -481 -55 -138 -127 -365 -146 -460 -3 -14 -7 -33 -10 -42 -12 -39 -37
-176 -50 -267 -3 -25 -7 -57 -9 -70 -20 -127 -27 -581 -12 -721 15 -137 19
-167 33 -245 7 -44 15 -91 18 -105 7 -41 47 -214 53 -230 3 -8 8 -23 10 -33 8
-44 99 -301 140 -397 105 -247 286 -559 429 -740 132 -166 326 -373 469 -499
94 -83 278 -219 300 -222 35 -5 63 11 78 44 35 73 358 863 361 882 5 32 -8 49
-142 180 -238 233 -415 495 -539 800 -36 88 -88 242 -98 292 -2 10 -10 47 -18
83 -8 36 -18 88 -23 115 -4 28 -9 57 -10 65 -10 52 -18 196 -18 325 0 188 11
302 45 465 123 578 442 1071 922 1423 96 71 377 236 402 237 3 0 22 8 42 17
67 29 77 32 148 57 156 55 377 106 520 120 196 20 973 27 1089 10 231 -35 377
-74 590 -160 351 -143 690 -398 926 -698 259 -327 430 -737 477 -1141 16 -136
8 -498 -12 -600 -3 -11 -7 -37 -10 -57 -16 -117 -90 -382 -135 -483 -10 -22
-33 -74 -51 -115 -45 -100 -110 -216 -182 -325 -156 -233 -333 -420 -551 -580
-82 -60 -95 -61 -96 -5 -1 49 -40 209 -71 291 -112 293 -342 542 -674 729 -70
40 -268 137 -335 165 -36 15 -78 33 -95 40 -16 7 -113 45 -215 85 -195 75
-204 79 -315 130 -152 71 -256 155 -290 237 -21 49 -21 158 1 215 50 128 163
209 340 243 179 34 440 -35 887 -234 142 -63 171 -70 200 -48 9 6 64 122 123
257 58 135 115 265 126 290 10 25 23 54 28 65 4 11 17 40 28 65 110 249 118
274 91 307 -40 48 -636 300 -777 328 -9 2 -53 12 -98 24 -44 11 -98 23 -120
26 -21 4 -46 8 -54 10 -8 2 -37 7 -65 10 -27 4 -61 9 -75 11 -46 10 -394 12
-470 3 -156 -17 -184 -21 -190 -24 -3 -2 -22 -6 -42 -9 -21 -3 -57 -11 -80
-16 -24 -6 -50 -12 -59 -14 -351 -85 -690 -316 -874 -596 -120 -182 -193 -390
-222 -630 -13 -102 -7 -341 11 -435 33 -179 91 -323 186 -464 52 -76 181 -220
236 -261 11 -8 40 -31 64 -50 104 -83 308 -200 470 -270 41 -18 89 -38 105
-46 17 -7 140 -54 275 -104 135 -50 259 -97 277 -105 17 -8 35 -15 39 -15 5 0
50 -21 100 -46 183 -91 263 -185 264 -309 1 -214 -131 -375 -343 -419 -83 -17
-219 -14 -357 9 -14 2 -45 7 -70 10 -37 5 -98 18 -270 60 -75 18 -351 124
-422 161 -37 20 -85 18 -105 -5 -14 -17 -210 -479 -330 -775 -46 -116 -42
-129 52 -177 166 -84 407 -166 625 -213 112 -24 153 -30 255 -42 28 -3 61 -7
75 -10 164 -26 659 -23 841 5 35 6 84 13 109 16 49 7 324 62 352 71 9 2 26 7
37 9 11 2 74 18 138 35 65 18 125 33 133 35 8 2 96 30 195 63 287 95 466 169
705 289 185 93 230 118 369 210 173 113 273 195 401 328 75 77 91 94 154 165
15 18 68 85 117 149 49 64 94 121 99 128 6 7 10 17 10 23 0 5 5 10 10 10 6 0
10 6 10 14 0 8 4 16 8 18 16 6 153 243 222 383 180 367 284 725 334 1155 22
182 23 515 2 680 -2 14 -6 54 -11 90 -6 52 -41 249 -60 330 -7 31 -56 206 -62
220 -3 8 -7 20 -8 25 -11 47 -109 286 -160 391 -124 254 -329 563 -496 749
-15 17 -37 41 -49 55 -111 128 -325 327 -478 441 -42 32 -82 62 -87 66 -6 4
-48 33 -95 64 -164 109 -303 184 -542 293 -73 34 -410 150 -459 160 -13 2 -42
8 -64 14 -60 16 -233 50 -290 58 -27 3 -59 9 -70 12 -21 7 -1160 14 -1166 7z"/>
</g>
</svg>
