<?xml version="1.0" encoding="UTF-8"?>
<svg width="107px" height="57px" viewBox="0 0 107 57" version="1.1" xmlns="http://www.w3.org/2000/svg" xmlns:xlink="http://www.w3.org/1999/xlink">
    <!-- Generator: Sketch 52.6 (67491) - http://www.bohemiancoding.com/sketch -->
    <title>Group@1x</title>
    <desc>Created with Sketch.</desc>
    <g id="Page-1" stroke="none" stroke-width="1" fill="none" fill-rule="evenodd">
        <g id="Group" transform="translate(1.000000, 1.000000)" fill="#FFFFFF" stroke="#FFFFFF">
            <path d="M55.3359375,16.953125 L55.3359375,55 L46.546875,55 L46.546875,16.953125 L55.3359375,16.953125 Z M46.21875,5.14305141 C46.21875,3.87507365 46.6808028,2.77904152 47.6049221,1.85492214 C48.5290415,0.93080276 49.6358191,0.46875 50.925288,0.46875 C52.236248,0.46875 53.353771,0.93080276 54.2778904,1.85492214 C55.2020097,2.75755037 55.6640625,3.86432792 55.6640625,5.17528797 C55.6640625,6.48624802 55.2020097,7.60377098 54.2778904,8.52789036 C53.3752621,9.45200974 52.2684846,9.9140625 50.9575245,9.9140625 C49.6465645,9.9140625 48.5290415,9.45200974 47.6049221,8.52789036 C46.6808028,7.60377098 46.21875,6.47550261 46.21875,5.14305141 Z" id="i" stroke-width="2"></path>
            <path d="M32.5223327,8.85787297 L26.0940657,12.6735721 C24.8923025,10.5840121 23.7472434,9.22127607 22.6588542,8.58532303 C21.5251153,7.85851957 20.0626142,7.49512328 18.2713068,7.49512328 C16.0718535,7.49512328 14.2465613,8.11971064 12.7953756,9.3689041 C11.3441899,10.595385 10.618608,12.1398192 10.618608,14.002253 C10.618608,16.5687778 12.5232606,18.6355941 16.3326231,20.2027641 L21.5704703,22.3490949 C25.8333283,24.0752531 28.9510634,26.1818159 30.9237689,28.6688466 C32.8964745,31.1558772 33.8828125,34.2049991 33.8828125,37.8163038 C33.8828125,42.6540894 32.2729275,46.6514485 29.0531092,49.8085011 C25.8106162,52.9882663 21.7859037,54.578125 16.978851,54.578125 C12.4212209,54.578125 8.65726443,53.2267451 5.68686869,50.5239447 C2.7618225,47.8211443 0.936530354,44.0168394 0.2109375,39.110916 L8.23776831,37.3393414 C8.60056473,40.4282562 9.23544896,42.5632093 10.14244,43.744265 C11.7750239,46.0155258 14.1558398,47.1511392 17.284959,47.1511392 C19.7565096,47.1511392 21.8085461,46.3221414 23.4411301,44.664121 C25.073714,43.0061006 25.8899937,40.9052159 25.8899937,38.3614037 C25.8899937,37.3393363 25.7482785,36.4024553 25.4648438,35.5507325 C25.181409,34.6990097 24.7392575,33.9154364 24.1383759,33.1999893 C23.5374944,32.4845421 22.7608949,31.8145302 21.8085543,31.1899335 C20.8562137,30.5653368 19.7224918,29.9691397 18.4073548,29.4013245 L13.3395676,27.2890625 C6.15166335,24.245573 2.55776515,19.7939685 2.55776515,13.9341156 C2.55776515,9.9821217 4.06561518,6.67748676 7.08136048,4.02011158 C10.0971058,1.34002379 13.849725,0 18.3393308,0 C24.3934962,0 29.1211162,2.9525948 32.5223327,8.85787297 Z" id="S" stroke-width="2"></path>
            <polygon id="Path-9" stroke-width="3" fill-rule="nonzero" points="94.9946289 47.0600661 94.9946289 54 69 54 69 49.6911728 69.0000736 43.6193119 69.0739735 29.3818927 69.0739735 18 75.859466 18 75.8593924 29.4102678 75.7854925 43.647687 75.7854925 47.0600661"></polygon>
            <path d="M89,35.960839 L89,36 L69,36 L69,29 L88.0000447,29 L88.0000736,26.6193119 L88.0739735,12.3818927 L88.0739735,1 L94.859466,1 L94.8593924,12.4102678 L94.7854925,26.647687 L94.7854925,29.3979351 L104,29.3979351 L104,35.960839 L89,35.960839 Z" id="Path-9" stroke-width="3" fill-rule="nonzero" transform="translate(86.500000, 18.500000) scale(-1, 1) rotate(180.000000) translate(-86.500000, -18.500000) "></path>
            <polygon id="Path-2" points="68.6484664 55 77.5338308 45.9919804 96.08056 45.9919804 96.08056 55"></polygon>
            <polygon id="Path-2" transform="translate(81.716047, 4.504010) scale(-1, -1) translate(-81.716047, -4.504010) " points="68 9.0080196 76.8853644 0 95.4320936 0 95.4320936 9.0080196"></polygon>
        </g>
    </g>
</svg>