<svg width="508" height="577" viewBox="0 0 508 577" fill="none" xmlns="http://www.w3.org/2000/svg">
<g clip-path="url(#clip0_0_1)">
<g filter="url(#filter0_d_0_1)">
<rect y="534" width="240" height="43" rx="10" fill="#2963FF"/>
</g>
<path d="M50.2969 545.922V555.004C50.2969 556.299 50.5085 557.247 50.9316 557.846C51.5632 558.712 52.4518 559.145 53.5977 559.145C54.75 559.145 55.6419 558.712 56.2734 557.846C56.6966 557.266 56.9082 556.319 56.9082 555.004V545.922H59.1836V555.629C59.1836 557.217 58.6888 558.526 57.6992 559.555C56.5859 560.701 55.2188 561.273 53.5977 561.273C51.9766 561.273 50.6126 560.701 49.5059 559.555C48.5163 558.526 48.0215 557.217 48.0215 555.629V545.922H50.2969ZM67.9141 553.109L66.0977 554.076C65.8112 553.49 65.4564 553.197 65.0332 553.197C64.8314 553.197 64.6589 553.266 64.5156 553.402C64.3724 553.533 64.3008 553.702 64.3008 553.91C64.3008 554.275 64.724 554.636 65.5703 554.994C66.7357 555.495 67.5202 555.958 67.9238 556.381C68.3275 556.804 68.5293 557.374 68.5293 558.09C68.5293 559.008 68.1908 559.776 67.5137 560.395C66.8561 560.98 66.0618 561.273 65.1309 561.273C63.5358 561.273 62.4062 560.495 61.7422 558.939L63.6172 558.07C63.8776 558.526 64.0762 558.816 64.2129 558.939C64.4798 559.187 64.7988 559.311 65.1699 559.311C65.9121 559.311 66.2832 558.972 66.2832 558.295C66.2832 557.904 65.9967 557.54 65.4238 557.201C65.2025 557.09 64.9811 556.983 64.7598 556.879C64.5384 556.775 64.3138 556.667 64.0859 556.557C63.4479 556.244 62.9987 555.932 62.7383 555.619C62.4062 555.222 62.2402 554.711 62.2402 554.086C62.2402 553.259 62.5234 552.576 63.0898 552.035C63.6693 551.495 64.3724 551.225 65.1992 551.225C66.4167 551.225 67.3216 551.853 67.9141 553.109ZM72.709 551.488V556.947C72.709 558.523 73.3307 559.311 74.5742 559.311C75.8177 559.311 76.4395 558.523 76.4395 556.947V551.488H78.6367V556.996C78.6367 557.758 78.5423 558.415 78.3535 558.969C78.1712 559.464 77.8555 559.91 77.4062 560.307C76.6641 560.951 75.7201 561.273 74.5742 561.273C73.4349 561.273 72.4941 560.951 71.752 560.307C71.2962 559.91 70.974 559.464 70.7852 558.969C70.6029 558.526 70.5117 557.868 70.5117 556.996V551.488H72.709ZM88.4219 551.488H90.6289V561H88.4219V560.004C87.5169 560.85 86.5436 561.273 85.502 561.273C84.1868 561.273 83.0996 560.798 82.2402 559.848C81.3874 558.878 80.9609 557.667 80.9609 556.215C80.9609 554.789 81.3874 553.601 82.2402 552.65C83.0931 551.7 84.1608 551.225 85.4434 551.225C86.5501 551.225 87.543 551.68 88.4219 552.592V551.488ZM83.207 556.215C83.207 557.126 83.4512 557.868 83.9395 558.441C84.4408 559.021 85.0723 559.311 85.834 559.311C86.6478 559.311 87.3053 559.031 87.8066 558.471C88.3079 557.891 88.5586 557.156 88.5586 556.264C88.5586 555.372 88.3079 554.636 87.8066 554.057C87.3053 553.49 86.6543 553.207 85.8535 553.207C85.0983 553.207 84.4668 553.493 83.959 554.066C83.4577 554.646 83.207 555.362 83.207 556.215ZM93.4023 551.488H95.5996V552.338C96.0033 551.915 96.3613 551.625 96.6738 551.469C96.9928 551.306 97.3704 551.225 97.8066 551.225C98.3861 551.225 98.9915 551.413 99.623 551.791L98.6172 553.803C98.2005 553.503 97.7936 553.354 97.3965 553.354C96.1986 553.354 95.5996 554.258 95.5996 556.068V561H93.4023V551.488ZM103.393 551.488V561H101.195V551.488H103.393ZM100.863 547.533C100.863 547.149 101.003 546.817 101.283 546.537C101.563 546.257 101.898 546.117 102.289 546.117C102.686 546.117 103.025 546.257 103.305 546.537C103.585 546.811 103.725 547.146 103.725 547.543C103.725 547.94 103.585 548.279 103.305 548.559C103.031 548.839 102.696 548.979 102.299 548.979C101.902 548.979 101.563 548.839 101.283 548.559C101.003 548.279 100.863 547.937 100.863 547.533ZM105.727 556.176C105.727 554.802 106.218 553.633 107.201 552.67C108.184 551.706 109.382 551.225 110.795 551.225C112.214 551.225 113.419 551.71 114.408 552.68C115.385 553.65 115.873 554.841 115.873 556.254C115.873 557.68 115.382 558.874 114.398 559.838C113.409 560.795 112.195 561.273 110.756 561.273C109.33 561.273 108.135 560.785 107.172 559.809C106.208 558.845 105.727 557.634 105.727 556.176ZM107.973 556.215C107.973 557.165 108.227 557.917 108.734 558.471C109.255 559.031 109.942 559.311 110.795 559.311C111.654 559.311 112.341 559.034 112.855 558.48C113.37 557.927 113.627 557.188 113.627 556.264C113.627 555.339 113.37 554.6 112.855 554.047C112.335 553.487 111.648 553.207 110.795 553.207C109.955 553.207 109.275 553.487 108.754 554.047C108.233 554.607 107.973 555.329 107.973 556.215ZM131.781 551.898V554.818C131.28 554.206 130.831 553.786 130.434 553.559C130.043 553.324 129.584 553.207 129.057 553.207C128.23 553.207 127.543 553.497 126.996 554.076C126.449 554.656 126.176 555.382 126.176 556.254C126.176 557.146 126.439 557.878 126.967 558.451C127.501 559.024 128.181 559.311 129.008 559.311C129.535 559.311 130.001 559.197 130.404 558.969C130.795 558.747 131.254 558.318 131.781 557.68V560.58C130.889 561.042 129.997 561.273 129.105 561.273C127.634 561.273 126.404 560.798 125.414 559.848C124.424 558.891 123.93 557.702 123.93 556.283C123.93 554.864 124.431 553.666 125.434 552.689C126.436 551.713 127.667 551.225 129.125 551.225C130.062 551.225 130.948 551.449 131.781 551.898ZM133.461 556.176C133.461 554.802 133.952 553.633 134.936 552.67C135.919 551.706 137.117 551.225 138.529 551.225C139.949 551.225 141.153 551.71 142.143 552.68C143.119 553.65 143.607 554.841 143.607 556.254C143.607 557.68 143.116 558.874 142.133 559.838C141.143 560.795 139.929 561.273 138.49 561.273C137.064 561.273 135.87 560.785 134.906 559.809C133.943 558.845 133.461 557.634 133.461 556.176ZM135.707 556.215C135.707 557.165 135.961 557.917 136.469 558.471C136.99 559.031 137.676 559.311 138.529 559.311C139.389 559.311 140.076 559.034 140.59 558.48C141.104 557.927 141.361 557.188 141.361 556.264C141.361 555.339 141.104 554.6 140.59 554.047C140.069 553.487 139.382 553.207 138.529 553.207C137.689 553.207 137.009 553.487 136.488 554.047C135.967 554.607 135.707 555.329 135.707 556.215ZM145.941 551.488H148.148V552.367C148.917 551.605 149.783 551.225 150.746 551.225C151.853 551.225 152.715 551.573 153.334 552.27C153.868 552.862 154.135 553.829 154.135 555.17V561H151.928V555.688C151.928 554.75 151.798 554.102 151.537 553.744C151.283 553.38 150.821 553.197 150.15 553.197C149.421 553.197 148.904 553.438 148.598 553.92C148.298 554.395 148.148 555.225 148.148 556.41V561H145.941V551.488ZM164.75 548.979H162.553V548.09C162.553 547.608 162.396 547.185 162.084 546.82C161.752 546.449 161.345 546.264 160.863 546.264C160.388 546.264 159.988 546.446 159.662 546.811C159.343 547.169 159.184 547.595 159.184 548.09V551.488H161.703V553.539H159.184V561H156.986V553.539H156.205V551.488H156.986V548.09C156.986 547.022 157.364 546.111 158.119 545.355C158.881 544.594 159.799 544.213 160.873 544.213C161.941 544.213 162.852 544.594 163.607 545.355C164.369 546.111 164.75 547.022 164.75 548.09V548.979ZM164.75 561H162.553V551.488H164.75V561ZM167.543 551.488H169.74V552.338C170.144 551.915 170.502 551.625 170.814 551.469C171.133 551.306 171.511 551.225 171.947 551.225C172.527 551.225 173.132 551.413 173.764 551.791L172.758 553.803C172.341 553.503 171.934 553.354 171.537 553.354C170.339 553.354 169.74 554.258 169.74 556.068V561H167.543V551.488ZM175.336 551.488H177.533V552.367C177.956 551.924 178.318 551.625 178.617 551.469C178.936 551.306 179.337 551.225 179.818 551.225C180.893 551.225 181.742 551.693 182.367 552.631C183.057 551.693 183.992 551.225 185.17 551.225C187.312 551.225 188.383 552.523 188.383 555.121V561H186.176V555.717C186.176 554.805 186.065 554.161 185.844 553.783C185.616 553.399 185.242 553.207 184.721 553.207C184.115 553.207 183.673 553.435 183.393 553.891C183.119 554.346 182.982 555.079 182.982 556.088V561H180.775V555.746C180.775 554.053 180.287 553.207 179.311 553.207C178.692 553.207 178.24 553.438 177.953 553.9C177.673 554.363 177.533 555.092 177.533 556.088V561H175.336V551.488ZM198.168 551.488H200.375V561H198.168V560.004C197.263 560.85 196.29 561.273 195.248 561.273C193.933 561.273 192.846 560.798 191.986 559.848C191.133 558.878 190.707 557.667 190.707 556.215C190.707 554.789 191.133 553.601 191.986 552.65C192.839 551.7 193.907 551.225 195.189 551.225C196.296 551.225 197.289 551.68 198.168 552.592V551.488ZM192.953 556.215C192.953 557.126 193.197 557.868 193.686 558.441C194.187 559.021 194.818 559.311 195.58 559.311C196.394 559.311 197.051 559.031 197.553 558.471C198.054 557.891 198.305 557.156 198.305 556.264C198.305 555.372 198.054 554.636 197.553 554.057C197.051 553.49 196.4 553.207 195.6 553.207C194.844 553.207 194.213 553.493 193.705 554.066C193.204 554.646 192.953 555.362 192.953 556.215ZM210.16 544.506H212.367V561H210.16V560.004C209.294 560.85 208.314 561.273 207.221 561.273C205.919 561.273 204.838 560.798 203.979 559.848C203.126 558.878 202.699 557.667 202.699 556.215C202.699 554.796 203.126 553.611 203.979 552.66C204.825 551.703 205.889 551.225 207.172 551.225C208.285 551.225 209.281 551.68 210.16 552.592V544.506ZM204.945 556.215C204.945 557.126 205.189 557.868 205.678 558.441C206.179 559.021 206.811 559.311 207.572 559.311C208.386 559.311 209.044 559.031 209.545 558.471C210.046 557.891 210.297 557.156 210.297 556.264C210.297 555.372 210.046 554.636 209.545 554.057C209.044 553.49 208.393 553.207 207.592 553.207C206.837 553.207 206.205 553.493 205.697 554.066C205.196 554.646 204.945 555.362 204.945 556.215ZM214.691 556.176C214.691 554.802 215.183 553.633 216.166 552.67C217.149 551.706 218.347 551.225 219.76 551.225C221.179 551.225 222.383 551.71 223.373 552.68C224.35 553.65 224.838 554.841 224.838 556.254C224.838 557.68 224.346 558.874 223.363 559.838C222.374 560.795 221.16 561.273 219.721 561.273C218.295 561.273 217.1 560.785 216.137 559.809C215.173 558.845 214.691 557.634 214.691 556.176ZM216.938 556.215C216.938 557.165 217.191 557.917 217.699 558.471C218.22 559.031 218.907 559.311 219.76 559.311C220.619 559.311 221.306 559.034 221.82 558.48C222.335 557.927 222.592 557.188 222.592 556.264C222.592 555.339 222.335 554.6 221.82 554.047C221.299 553.487 220.613 553.207 219.76 553.207C218.92 553.207 218.24 553.487 217.719 554.047C217.198 554.607 216.938 555.329 216.938 556.215Z" fill="white"/>
<path fill-rule="evenodd" clip-rule="evenodd" d="M13.2489 557.079C12.917 556.739 12.917 556.187 13.2489 555.846L14.451 554.614C14.7829 554.273 15.3212 554.273 15.6531 554.614L19.375 558.43L27.3469 550.255C27.6788 549.915 28.2171 549.915 28.549 550.255L29.7511 551.488C30.083 551.828 30.083 552.38 29.7511 552.721L19.976 562.745C19.6441 563.085 19.1059 563.085 18.774 562.745L13.2489 557.079Z" fill="white"/>
</g>
<g clip-path="url(#clip1_0_1)">
<g filter="url(#filter1_d_0_1)">
<rect x="268" y="534" width="240" height="43" rx="10" fill="#FF3295"/>
</g>
<path d="M323.141 545.922V555.004C323.141 556.299 323.352 557.247 323.775 557.846C324.407 558.712 325.296 559.145 326.441 559.145C327.594 559.145 328.486 558.712 329.117 557.846C329.54 557.266 329.752 556.319 329.752 555.004V545.922H332.027V555.629C332.027 557.217 331.533 558.526 330.543 559.555C329.43 560.701 328.062 561.273 326.441 561.273C324.82 561.273 323.456 560.701 322.35 559.555C321.36 558.526 320.865 557.217 320.865 555.629V545.922H323.141ZM340.758 553.109L338.941 554.076C338.655 553.49 338.3 553.197 337.877 553.197C337.675 553.197 337.503 553.266 337.359 553.402C337.216 553.533 337.145 553.702 337.145 553.91C337.145 554.275 337.568 554.636 338.414 554.994C339.579 555.495 340.364 555.958 340.768 556.381C341.171 556.804 341.373 557.374 341.373 558.09C341.373 559.008 341.035 559.776 340.357 560.395C339.7 560.98 338.906 561.273 337.975 561.273C336.38 561.273 335.25 560.495 334.586 558.939L336.461 558.07C336.721 558.526 336.92 558.816 337.057 558.939C337.324 559.187 337.643 559.311 338.014 559.311C338.756 559.311 339.127 558.972 339.127 558.295C339.127 557.904 338.84 557.54 338.268 557.201C338.046 557.09 337.825 556.983 337.604 556.879C337.382 556.775 337.158 556.667 336.93 556.557C336.292 556.244 335.842 555.932 335.582 555.619C335.25 555.222 335.084 554.711 335.084 554.086C335.084 553.259 335.367 552.576 335.934 552.035C336.513 551.495 337.216 551.225 338.043 551.225C339.26 551.225 340.165 551.853 340.758 553.109ZM345.553 551.488V556.947C345.553 558.523 346.174 559.311 347.418 559.311C348.661 559.311 349.283 558.523 349.283 556.947V551.488H351.48V556.996C351.48 557.758 351.386 558.415 351.197 558.969C351.015 559.464 350.699 559.91 350.25 560.307C349.508 560.951 348.564 561.273 347.418 561.273C346.279 561.273 345.338 560.951 344.596 560.307C344.14 559.91 343.818 559.464 343.629 558.969C343.447 558.526 343.355 557.868 343.355 556.996V551.488H345.553ZM361.266 551.488H363.473V561H361.266V560.004C360.361 560.85 359.387 561.273 358.346 561.273C357.031 561.273 355.943 560.798 355.084 559.848C354.231 558.878 353.805 557.667 353.805 556.215C353.805 554.789 354.231 553.601 355.084 552.65C355.937 551.7 357.005 551.225 358.287 551.225C359.394 551.225 360.387 551.68 361.266 552.592V551.488ZM356.051 556.215C356.051 557.126 356.295 557.868 356.783 558.441C357.285 559.021 357.916 559.311 358.678 559.311C359.492 559.311 360.149 559.031 360.65 558.471C361.152 557.891 361.402 557.156 361.402 556.264C361.402 555.372 361.152 554.636 360.65 554.057C360.149 553.49 359.498 553.207 358.697 553.207C357.942 553.207 357.311 553.493 356.803 554.066C356.301 554.646 356.051 555.362 356.051 556.215ZM366.246 551.488H368.443V552.338C368.847 551.915 369.205 551.625 369.518 551.469C369.837 551.306 370.214 551.225 370.65 551.225C371.23 551.225 371.835 551.413 372.467 551.791L371.461 553.803C371.044 553.503 370.637 553.354 370.24 553.354C369.042 553.354 368.443 554.258 368.443 556.068V561H366.246V551.488ZM376.236 551.488V561H374.039V551.488H376.236ZM373.707 547.533C373.707 547.149 373.847 546.817 374.127 546.537C374.407 546.257 374.742 546.117 375.133 546.117C375.53 546.117 375.868 546.257 376.148 546.537C376.428 546.811 376.568 547.146 376.568 547.543C376.568 547.94 376.428 548.279 376.148 548.559C375.875 548.839 375.54 548.979 375.143 548.979C374.745 548.979 374.407 548.839 374.127 548.559C373.847 548.279 373.707 547.937 373.707 547.533ZM378.57 556.176C378.57 554.802 379.062 553.633 380.045 552.67C381.028 551.706 382.226 551.225 383.639 551.225C385.058 551.225 386.262 551.71 387.252 552.68C388.229 553.65 388.717 554.841 388.717 556.254C388.717 557.68 388.225 558.874 387.242 559.838C386.253 560.795 385.038 561.273 383.6 561.273C382.174 561.273 380.979 560.785 380.016 559.809C379.052 558.845 378.57 557.634 378.57 556.176ZM380.816 556.215C380.816 557.165 381.07 557.917 381.578 558.471C382.099 559.031 382.786 559.311 383.639 559.311C384.498 559.311 385.185 559.034 385.699 558.48C386.214 557.927 386.471 557.188 386.471 556.264C386.471 555.339 386.214 554.6 385.699 554.047C385.178 553.487 384.492 553.207 383.639 553.207C382.799 553.207 382.118 553.487 381.598 554.047C381.077 554.607 380.816 555.329 380.816 556.215ZM404.234 544.506H406.441V561H404.234V560.004C403.368 560.85 402.389 561.273 401.295 561.273C399.993 561.273 398.912 560.798 398.053 559.848C397.2 558.878 396.773 557.667 396.773 556.215C396.773 554.796 397.2 553.611 398.053 552.66C398.899 551.703 399.964 551.225 401.246 551.225C402.359 551.225 403.355 551.68 404.234 552.592V544.506ZM399.02 556.215C399.02 557.126 399.264 557.868 399.752 558.441C400.253 559.021 400.885 559.311 401.646 559.311C402.46 559.311 403.118 559.031 403.619 558.471C404.12 557.891 404.371 557.156 404.371 556.264C404.371 555.372 404.12 554.636 403.619 554.057C403.118 553.49 402.467 553.207 401.666 553.207C400.911 553.207 400.279 553.493 399.771 554.066C399.27 554.646 399.02 555.362 399.02 556.215ZM417.877 556.762H411.061C411.119 557.543 411.373 558.165 411.822 558.627C412.271 559.083 412.848 559.311 413.551 559.311C414.098 559.311 414.55 559.18 414.908 558.92C415.26 558.66 415.66 558.178 416.109 557.475L417.965 558.51C417.678 558.998 417.376 559.418 417.057 559.77C416.738 560.115 416.396 560.401 416.031 560.629C415.667 560.85 415.273 561.013 414.85 561.117C414.426 561.221 413.967 561.273 413.473 561.273C412.053 561.273 410.914 560.818 410.055 559.906C409.195 558.988 408.766 557.771 408.766 556.254C408.766 554.75 409.182 553.533 410.016 552.602C410.855 551.684 411.969 551.225 413.355 551.225C414.755 551.225 415.862 551.671 416.676 552.562C417.483 553.448 417.887 554.675 417.887 556.244L417.877 556.762ZM415.621 554.965C415.315 553.793 414.576 553.207 413.404 553.207C413.137 553.207 412.887 553.249 412.652 553.334C412.418 553.412 412.203 553.529 412.008 553.686C411.819 553.835 411.656 554.018 411.52 554.232C411.383 554.447 411.279 554.691 411.207 554.965H415.621ZM420.289 551.488H422.496V552.367C423.264 551.605 424.13 551.225 425.094 551.225C426.201 551.225 427.063 551.573 427.682 552.27C428.215 552.862 428.482 553.829 428.482 555.17V561H426.275V555.688C426.275 554.75 426.145 554.102 425.885 553.744C425.631 553.38 425.169 553.197 424.498 553.197C423.769 553.197 423.251 553.438 422.945 553.92C422.646 554.395 422.496 555.225 422.496 556.41V561H420.289V551.488ZM439.928 556.762H433.111C433.17 557.543 433.424 558.165 433.873 558.627C434.322 559.083 434.898 559.311 435.602 559.311C436.148 559.311 436.601 559.18 436.959 558.92C437.311 558.66 437.711 558.178 438.16 557.475L440.016 558.51C439.729 558.998 439.426 559.418 439.107 559.77C438.788 560.115 438.447 560.401 438.082 560.629C437.717 560.85 437.324 561.013 436.9 561.117C436.477 561.221 436.018 561.273 435.523 561.273C434.104 561.273 432.965 560.818 432.105 559.906C431.246 558.988 430.816 557.771 430.816 556.254C430.816 554.75 431.233 553.533 432.066 552.602C432.906 551.684 434.02 551.225 435.406 551.225C436.806 551.225 437.913 551.671 438.727 552.562C439.534 553.448 439.938 554.675 439.938 556.244L439.928 556.762ZM437.672 554.965C437.366 553.793 436.627 553.207 435.455 553.207C435.188 553.207 434.938 553.249 434.703 553.334C434.469 553.412 434.254 553.529 434.059 553.686C433.87 553.835 433.707 554.018 433.57 554.232C433.434 554.447 433.329 554.691 433.258 554.965H437.672ZM451.539 560.775C451.539 561.225 451.523 561.618 451.49 561.957C451.464 562.302 451.425 562.605 451.373 562.865C451.217 563.581 450.911 564.197 450.455 564.711C449.596 565.701 448.414 566.195 446.91 566.195C445.641 566.195 444.596 565.854 443.775 565.17C442.929 564.467 442.441 563.493 442.311 562.25H444.518C444.602 562.719 444.742 563.08 444.938 563.334C445.393 563.926 446.057 564.223 446.93 564.223C448.538 564.223 449.342 563.236 449.342 561.264V559.936C448.469 560.827 447.464 561.273 446.324 561.273C445.029 561.273 443.967 560.805 443.141 559.867C442.307 558.917 441.891 557.729 441.891 556.303C441.891 554.916 442.278 553.738 443.053 552.768C443.886 551.739 444.986 551.225 446.354 551.225C447.551 551.225 448.548 551.671 449.342 552.562V551.488H451.539V560.775ZM449.43 556.264C449.43 555.339 449.182 554.6 448.688 554.047C448.186 553.48 447.545 553.197 446.764 553.197C445.93 553.197 445.273 553.507 444.791 554.125C444.355 554.678 444.137 555.395 444.137 556.273C444.137 557.139 444.355 557.849 444.791 558.402C445.266 559.008 445.924 559.311 446.764 559.311C447.604 559.311 448.268 559.005 448.756 558.393C449.205 557.839 449.43 557.13 449.43 556.264ZM461.324 551.488H463.531V561H461.324V560.004C460.419 560.85 459.446 561.273 458.404 561.273C457.089 561.273 456.002 560.798 455.143 559.848C454.29 558.878 453.863 557.667 453.863 556.215C453.863 554.789 454.29 553.601 455.143 552.65C455.995 551.7 457.063 551.225 458.346 551.225C459.452 551.225 460.445 551.68 461.324 552.592V551.488ZM456.109 556.215C456.109 557.126 456.354 557.868 456.842 558.441C457.343 559.021 457.975 559.311 458.736 559.311C459.55 559.311 460.208 559.031 460.709 558.471C461.21 557.891 461.461 557.156 461.461 556.264C461.461 555.372 461.21 554.636 460.709 554.057C460.208 553.49 459.557 553.207 458.756 553.207C458.001 553.207 457.369 553.493 456.861 554.066C456.36 554.646 456.109 555.362 456.109 556.215ZM473.316 544.506H475.523V561H473.316V560.004C472.451 560.85 471.471 561.273 470.377 561.273C469.075 561.273 467.994 560.798 467.135 559.848C466.282 558.878 465.855 557.667 465.855 556.215C465.855 554.796 466.282 553.611 467.135 552.66C467.981 551.703 469.046 551.225 470.328 551.225C471.441 551.225 472.438 551.68 473.316 552.592V544.506ZM468.102 556.215C468.102 557.126 468.346 557.868 468.834 558.441C469.335 559.021 469.967 559.311 470.729 559.311C471.542 559.311 472.2 559.031 472.701 558.471C473.202 557.891 473.453 557.156 473.453 556.264C473.453 555.372 473.202 554.636 472.701 554.057C472.2 553.49 471.549 553.207 470.748 553.207C469.993 553.207 469.361 553.493 468.854 554.066C468.352 554.646 468.102 555.362 468.102 556.215ZM477.848 556.176C477.848 554.802 478.339 553.633 479.322 552.67C480.305 551.706 481.503 551.225 482.916 551.225C484.335 551.225 485.54 551.71 486.529 552.68C487.506 553.65 487.994 554.841 487.994 556.254C487.994 557.68 487.503 558.874 486.52 559.838C485.53 560.795 484.316 561.273 482.877 561.273C481.451 561.273 480.257 560.785 479.293 559.809C478.329 558.845 477.848 557.634 477.848 556.176ZM480.094 556.215C480.094 557.165 480.348 557.917 480.855 558.471C481.376 559.031 482.063 559.311 482.916 559.311C483.775 559.311 484.462 559.034 484.977 558.48C485.491 557.927 485.748 557.188 485.748 556.264C485.748 555.339 485.491 554.6 484.977 554.047C484.456 553.487 483.769 553.207 482.916 553.207C482.076 553.207 481.396 553.487 480.875 554.047C480.354 554.607 480.094 555.329 480.094 556.215Z" fill="white"/>
<path fill-rule="evenodd" clip-rule="evenodd" d="M284.249 560.442C283.917 560.102 283.917 559.55 284.249 559.209L286.052 557.43L294.024 549.255C294.356 548.915 294.894 548.915 295.226 549.255L296.428 550.488C296.76 550.828 296.76 551.38 296.428 551.721L286.653 561.745C286.321 562.085 285.783 562.085 285.451 561.745L284.249 560.442Z" fill="white"/>
<path fill-rule="evenodd" clip-rule="evenodd" d="M296.428 560.442C296.76 560.102 296.76 559.55 296.428 559.209L294.625 557.43L286.653 549.255C286.321 548.915 285.783 548.915 285.451 549.255L284.249 550.488C283.917 550.828 283.917 551.38 284.249 551.721L294.024 561.745C294.356 562.085 294.894 562.085 295.226 561.745L296.428 560.442Z" fill="white"/>
</g>
<g filter="url(#filter2_d_0_1)">
<rect x="120" y="281" width="259" height="184" rx="10" fill="white"/>
</g>
<path d="M223.438 381L226.611 364.789L231.787 376.508L237.148 364.789L240 381H237.666L236.211 371.898L231.748 381.693L227.412 371.889L225.791 381H223.438ZM249.795 371.488H252.002V381H249.795V380.004C248.89 380.85 247.917 381.273 246.875 381.273C245.56 381.273 244.473 380.798 243.613 379.848C242.76 378.878 242.334 377.667 242.334 376.215C242.334 374.789 242.76 373.601 243.613 372.65C244.466 371.7 245.534 371.225 246.816 371.225C247.923 371.225 248.916 371.68 249.795 372.592V371.488ZM244.58 376.215C244.58 377.126 244.824 377.868 245.312 378.441C245.814 379.021 246.445 379.311 247.207 379.311C248.021 379.311 248.678 379.031 249.18 378.471C249.681 377.891 249.932 377.156 249.932 376.264C249.932 375.372 249.681 374.636 249.18 374.057C248.678 373.49 248.027 373.207 247.227 373.207C246.471 373.207 245.84 373.493 245.332 374.066C244.831 374.646 244.58 375.362 244.58 376.215ZM254.775 371.488H256.973V372.338C257.376 371.915 257.734 371.625 258.047 371.469C258.366 371.306 258.743 371.225 259.18 371.225C259.759 371.225 260.365 371.413 260.996 371.791L259.99 373.803C259.574 373.503 259.167 373.354 258.77 373.354C257.572 373.354 256.973 374.258 256.973 376.068V381H254.775V371.488ZM264.453 371.488V381H262.256V371.488H264.453ZM266.797 366.801L263.555 370.023L262.344 369.281L264.814 365.727L266.797 366.801ZM274.248 371.488H276.455V381H274.248V380.004C273.343 380.85 272.37 381.273 271.328 381.273C270.013 381.273 268.926 380.798 268.066 379.848C267.214 378.878 266.787 377.667 266.787 376.215C266.787 374.789 267.214 373.601 268.066 372.65C268.919 371.7 269.987 371.225 271.27 371.225C272.376 371.225 273.369 371.68 274.248 372.592V371.488ZM269.033 376.215C269.033 377.126 269.277 377.868 269.766 378.441C270.267 379.021 270.898 379.311 271.66 379.311C272.474 379.311 273.132 379.031 273.633 378.471C274.134 377.891 274.385 377.156 274.385 376.264C274.385 375.372 274.134 374.636 273.633 374.057C273.132 373.49 272.48 373.207 271.68 373.207C270.924 373.207 270.293 373.493 269.785 374.066C269.284 374.646 269.033 375.362 269.033 376.215Z" fill="#FF3295"/>
<line x1="191" y1="350" x2="309" y2="350" stroke="#FF3295" stroke-width="4" stroke-linecap="round"/>
<line x1="181" y1="336" x2="319" y2="336" stroke="#FF3295" stroke-width="4" stroke-linecap="round"/>
<line x1="209" y1="322" x2="291" y2="322" stroke="#FF3295" stroke-width="4" stroke-linecap="round"/>
<line x1="194" y1="421" x2="306" y2="421" stroke="#FF3295" stroke-width="4" stroke-linecap="round"/>
<line x1="201" y1="407" x2="299" y2="407" stroke="#FF3295" stroke-width="4" stroke-linecap="round"/>
<line x1="181" y1="393" x2="319" y2="393" stroke="#FF3295" stroke-width="4" stroke-linecap="round"/>
<path d="M185.6 24C191.892 24.0014 196.999 29.1083 197 35.4V38.9286C197 41.176 195.176 43 192.929 43H163.071C160.824 43 159 41.176 159 38.9286V35.4C159.001 29.1083 164.108 24.0014 170.4 24H171.817C173.441 24.7491 176.211 25.3571 178 25.3571C179.789 25.3571 182.559 24.7491 184.183 24H185.6Z" fill="#2963FF"/>
<path d="M178 22C171.928 22 167 17.072 167 11C167 4.928 171.928 0 178 0C184.072 0 189 4.928 189 11C189 17.072 184.072 22 178 22Z" fill="#2963FF" fill-opacity="0.5"/>
<path d="M339.6 24C345.892 24.0014 350.999 29.1083 351 35.4V38.9286C351 41.176 349.176 43 346.929 43H317.071C314.824 43 313 41.176 313 38.9286V35.4C313.001 29.1083 318.108 24.0014 324.4 24H325.817C327.441 24.7491 330.211 25.3571 332 25.3571C333.789 25.3571 336.559 24.7491 338.183 24H339.6Z" fill="#FF3295"/>
<path d="M332 22C325.928 22 321 17.072 321 11C321 4.928 325.928 0 332 0C338.072 0 343 4.928 343 11C343 17.072 338.072 22 332 22Z" fill="#FF3295" fill-opacity="0.5"/>
<path d="M105.326 18.9219V28.6777C105.326 29.8431 105.245 30.7122 105.082 31.2852C104.919 31.9362 104.643 32.4863 104.252 32.9355C103.49 33.8275 102.481 34.2734 101.225 34.2734C100.274 34.2734 99.3854 34.026 98.5586 33.5312L99.6719 31.5879C100.225 31.959 100.743 32.1445 101.225 32.1445C101.902 32.1445 102.37 31.8874 102.631 31.373C102.904 30.8587 103.041 29.9603 103.041 28.6777V18.9219H105.326ZM110.717 24.4883V29.9473C110.717 31.5228 111.339 32.3105 112.582 32.3105C113.826 32.3105 114.447 31.5228 114.447 29.9473V24.4883H116.645V29.9961C116.645 30.7578 116.55 31.4154 116.361 31.9688C116.179 32.4635 115.863 32.9095 115.414 33.3066C114.672 33.9512 113.728 34.2734 112.582 34.2734C111.443 34.2734 110.502 33.9512 109.76 33.3066C109.304 32.9095 108.982 32.4635 108.793 31.9688C108.611 31.526 108.52 30.8685 108.52 29.9961V24.4883H110.717ZM126.43 24.4883H128.637V34H126.43V33.0039C125.525 33.8503 124.551 34.2734 123.51 34.2734C122.195 34.2734 121.107 33.7982 120.248 32.8477C119.395 31.8776 118.969 30.6667 118.969 29.2148C118.969 27.7891 119.395 26.6009 120.248 25.6504C121.101 24.6999 122.169 24.2246 123.451 24.2246C124.558 24.2246 125.551 24.6803 126.43 25.5918V24.4883ZM121.215 29.2148C121.215 30.1263 121.459 30.8685 121.947 31.4414C122.449 32.0208 123.08 32.3105 123.842 32.3105C124.656 32.3105 125.313 32.0306 125.814 31.4707C126.316 30.8913 126.566 30.1556 126.566 29.2637C126.566 28.3717 126.316 27.6361 125.814 27.0566C125.313 26.4902 124.662 26.207 123.861 26.207C123.106 26.207 122.475 26.4935 121.967 27.0664C121.465 27.6458 121.215 28.362 121.215 29.2148ZM131.41 24.4883H133.617V25.3672C134.385 24.6055 135.251 24.2246 136.215 24.2246C137.322 24.2246 138.184 24.5729 138.803 25.2695C139.337 25.862 139.604 26.8288 139.604 28.1699V34H137.396V28.6875C137.396 27.75 137.266 27.1022 137.006 26.7441C136.752 26.3796 136.29 26.1973 135.619 26.1973C134.89 26.1973 134.372 26.4382 134.066 26.9199C133.767 27.3952 133.617 28.2253 133.617 29.4102V34H131.41V24.4883Z" fill="#666666"/>
<path d="M366.279 34L369.453 17.7891L374.629 29.5078L379.99 17.7891L382.842 34H380.508L379.053 24.8984L374.59 34.6934L370.254 24.8887L368.633 34H366.279ZM392.637 24.4883H394.844V34H392.637V33.0039C391.732 33.8503 390.758 34.2734 389.717 34.2734C388.402 34.2734 387.314 33.7982 386.455 32.8477C385.602 31.8776 385.176 30.6667 385.176 29.2148C385.176 27.7891 385.602 26.6009 386.455 25.6504C387.308 24.6999 388.376 24.2246 389.658 24.2246C390.765 24.2246 391.758 24.6803 392.637 25.5918V24.4883ZM387.422 29.2148C387.422 30.1263 387.666 30.8685 388.154 31.4414C388.656 32.0208 389.287 32.3105 390.049 32.3105C390.863 32.3105 391.52 32.0306 392.021 31.4707C392.523 30.8913 392.773 30.1556 392.773 29.2637C392.773 28.3717 392.523 27.6361 392.021 27.0566C391.52 26.4902 390.869 26.207 390.068 26.207C389.313 26.207 388.682 26.4935 388.174 27.0664C387.673 27.6458 387.422 28.362 387.422 29.2148ZM397.617 24.4883H399.814V25.3379C400.218 24.9147 400.576 24.625 400.889 24.4688C401.208 24.306 401.585 24.2246 402.021 24.2246C402.601 24.2246 403.206 24.4134 403.838 24.791L402.832 26.8027C402.415 26.5033 402.008 26.3535 401.611 26.3535C400.413 26.3535 399.814 27.2585 399.814 29.0684V34H397.617V24.4883ZM407.295 24.4883V34H405.098V24.4883H407.295ZM409.639 19.8008L406.396 23.0234L405.186 22.2812L407.656 18.7266L409.639 19.8008ZM417.09 24.4883H419.297V34H417.09V33.0039C416.185 33.8503 415.212 34.2734 414.17 34.2734C412.855 34.2734 411.768 33.7982 410.908 32.8477C410.055 31.8776 409.629 30.6667 409.629 29.2148C409.629 27.7891 410.055 26.6009 410.908 25.6504C411.761 24.6999 412.829 24.2246 414.111 24.2246C415.218 24.2246 416.211 24.6803 417.09 25.5918V24.4883ZM411.875 29.2148C411.875 30.1263 412.119 30.8685 412.607 31.4414C413.109 32.0208 413.74 32.3105 414.502 32.3105C415.316 32.3105 415.973 32.0306 416.475 31.4707C416.976 30.8913 417.227 30.1556 417.227 29.2637C417.227 28.3717 416.976 27.6361 416.475 27.0566C415.973 26.4902 415.322 26.207 414.521 26.207C413.766 26.207 413.135 26.4935 412.627 27.0664C412.126 27.6458 411.875 28.362 411.875 29.2148Z" fill="#666666"/>
<path d="M196 94L198.887 89H193.113L196 94ZM119.7 50.1451L120.025 58.7106L121.025 58.6726L120.7 50.1071L119.7 50.1451ZM133.516 71.6984H183V70.6984H133.516V71.6984ZM195.5 84.1984V89.5H196.5V84.1984H195.5ZM183 71.6984C189.904 71.6984 195.5 77.2948 195.5 84.1984H196.5C196.5 76.7426 190.456 70.6984 183 70.6984V71.6984ZM120.025 58.7106C120.301 65.9619 126.259 71.6984 133.516 71.6984V70.6984C126.797 70.6984 121.28 65.3868 121.025 58.6726L120.025 58.7106Z" fill="#979797"/>
<path d="M312.2 94L309.313 89H315.087L312.2 94ZM388.5 50.1451L388.174 58.7106L387.175 58.6726L387.5 50.1071L388.5 50.1451ZM374.684 71.6984H325.2V70.6984H374.684V71.6984ZM312.7 84.1984V89.5H311.7V84.1984H312.7ZM325.2 71.6984C318.296 71.6984 312.7 77.2948 312.7 84.1984H311.7C311.7 76.7426 317.744 70.6984 325.2 70.6984V71.6984ZM388.174 58.7106C387.899 65.9619 381.941 71.6984 374.684 71.6984V70.6984C381.403 70.6984 386.92 65.3868 387.175 58.6726L388.174 58.7106Z" fill="#979797"/>
<path d="M140 526L137.254 520.921L143.025 521.083L140 526ZM196.5 475.011L196.283 484.835L195.283 484.813L195.5 474.989L196.5 475.011ZM182.786 498.037H153.437V497.037H182.786V498.037ZM140.942 510.188L140.626 521.516L139.626 521.488L139.943 510.16L140.942 510.188ZM153.437 498.037C146.67 498.037 141.131 503.423 140.942 510.188L139.943 510.16C140.147 502.854 146.128 497.037 153.437 497.037V498.037ZM196.283 484.835C196.121 492.173 190.126 498.037 182.786 498.037V497.037C189.582 497.037 195.133 491.607 195.283 484.813L196.283 484.835Z" fill="#979797"/>
<path d="M369 526L371.744 520.92L365.973 521.084L369 526ZM312.6 474.996L312.516 484.417L313.516 484.426L313.6 475.004L312.6 474.996ZM326.016 498.037H355.558V497.037H326.016V498.037ZM368.053 510.184L368.373 521.516L369.373 521.488L369.052 510.156L368.053 510.184ZM355.558 498.037C362.324 498.037 367.862 503.421 368.053 510.184L369.052 510.156C368.846 502.851 362.865 497.037 355.558 497.037V498.037ZM312.516 484.417C312.449 491.919 318.513 498.037 326.016 498.037V497.037C319.069 497.037 313.454 491.372 313.516 484.426L312.516 484.417Z" fill="#979797"/>
<path d="M312.5 271L315.387 266H309.613L312.5 271ZM312 243V266.5H313V243H312Z" fill="#979797"/>
<path d="M196.5 271L199.387 266H193.613L196.5 271ZM196 243V266.5H197V243H196Z" fill="#979797"/>
<g filter="url(#filter3_d_0_1)">
<rect x="161" y="104" width="189" height="128" rx="10" fill="white"/>
<g clip-path="url(#clip2_0_1)" filter="url(#filter4_d_0_1)">
<rect x="185.2" y="177.4" width="141" height="34" rx="6.44" fill="#F0F0F0"/>
<path d="M202.12 198.28L205.172 188.798H207.379L203.219 200.4H201.729L202.12 198.28ZM199.299 188.798L202.327 198.28L202.741 200.4H201.243L197.099 188.798H199.299ZM211.937 200.559C211.3 200.559 210.723 200.456 210.208 200.249C209.698 200.036 209.262 199.741 208.901 199.364C208.545 198.987 208.272 198.543 208.08 198.033C207.889 197.523 207.793 196.973 207.793 196.384V196.065C207.793 195.39 207.892 194.779 208.088 194.232C208.285 193.685 208.558 193.218 208.909 192.83C209.26 192.437 209.674 192.136 210.152 191.929C210.63 191.722 211.148 191.618 211.706 191.618C212.322 191.618 212.862 191.722 213.324 191.929C213.786 192.136 214.168 192.429 214.471 192.806C214.779 193.178 215.008 193.621 215.157 194.137C215.311 194.652 215.388 195.22 215.388 195.842V196.663H208.726V195.284H213.491V195.133C213.48 194.787 213.411 194.463 213.284 194.16C213.162 193.858 212.973 193.613 212.718 193.427C212.463 193.241 212.123 193.148 211.698 193.148C211.379 193.148 211.095 193.218 210.845 193.356C210.601 193.488 210.397 193.682 210.232 193.937C210.067 194.192 209.94 194.5 209.849 194.862C209.764 195.218 209.722 195.619 209.722 196.065V196.384C209.722 196.761 209.772 197.112 209.873 197.436C209.979 197.754 210.134 198.033 210.335 198.272C210.537 198.511 210.782 198.7 211.069 198.838C211.355 198.971 211.682 199.037 212.049 199.037C212.511 199.037 212.923 198.944 213.284 198.758C213.645 198.573 213.959 198.31 214.224 197.97L215.236 198.95C215.05 199.221 214.809 199.481 214.511 199.731C214.214 199.975 213.85 200.174 213.419 200.328C212.994 200.482 212.5 200.559 211.937 200.559ZM218.814 193.419V200.4H216.894V191.778H218.727L218.814 193.419ZM221.452 191.722L221.436 193.507C221.319 193.486 221.192 193.47 221.053 193.459C220.921 193.449 220.788 193.443 220.655 193.443C220.326 193.443 220.036 193.491 219.786 193.587C219.537 193.677 219.327 193.81 219.157 193.985C218.992 194.155 218.865 194.362 218.774 194.607C218.684 194.851 218.631 195.125 218.615 195.428L218.177 195.459C218.177 194.918 218.23 194.415 218.336 193.953C218.442 193.491 218.602 193.085 218.814 192.734C219.032 192.383 219.303 192.11 219.627 191.913C219.956 191.717 220.336 191.618 220.767 191.618C220.883 191.618 221.008 191.629 221.141 191.65C221.279 191.672 221.383 191.695 221.452 191.722ZM224.711 191.778V200.4H222.783V191.778H224.711ZM222.655 189.515C222.655 189.223 222.751 188.981 222.942 188.79C223.139 188.593 223.409 188.495 223.755 188.495C224.095 188.495 224.363 188.593 224.56 188.79C224.756 188.981 224.854 189.223 224.854 189.515C224.854 189.802 224.756 190.041 224.56 190.232C224.363 190.423 224.095 190.519 223.755 190.519C223.409 190.519 223.139 190.423 222.942 190.232C222.751 190.041 222.655 189.802 222.655 189.515ZM229.413 200.4H227.492V190.949C227.492 190.306 227.612 189.767 227.851 189.331C228.095 188.89 228.443 188.558 228.895 188.335C229.346 188.107 229.88 187.993 230.496 187.993C230.688 187.993 230.876 188.006 231.062 188.033C231.248 188.054 231.429 188.088 231.604 188.136L231.556 189.618C231.45 189.592 231.333 189.573 231.206 189.563C231.083 189.552 230.951 189.547 230.807 189.547C230.515 189.547 230.263 189.602 230.05 189.714C229.843 189.82 229.684 189.977 229.572 190.184C229.466 190.391 229.413 190.646 229.413 190.949V200.4ZM231.19 191.778V193.18H226.169V191.778H231.19ZM235.086 199.46L237.429 191.778H239.485L236.027 201.715C235.947 201.927 235.843 202.158 235.716 202.408C235.588 202.658 235.421 202.894 235.214 203.117C235.012 203.346 234.76 203.529 234.457 203.667C234.154 203.811 233.787 203.882 233.357 203.882C233.187 203.882 233.022 203.866 232.863 203.835C232.709 203.808 232.563 203.779 232.425 203.747L232.417 202.281C232.47 202.286 232.534 202.291 232.608 202.297C232.688 202.302 232.752 202.305 232.799 202.305C233.118 202.305 233.384 202.265 233.596 202.185C233.809 202.111 233.981 201.988 234.114 201.818C234.252 201.648 234.369 201.42 234.465 201.133L235.086 199.46ZM233.764 191.778L235.812 198.233L236.154 200.257L234.823 200.599L231.692 191.778H233.764ZM246.992 198.488L248.984 191.778H250.211L249.876 193.786L247.868 200.4H246.769L246.992 198.488ZM245.82 191.778L247.374 198.519L247.502 200.4H246.274L243.94 191.778H245.82ZM252.076 198.44L253.582 191.778H255.454L253.128 200.4H251.9L252.076 198.44ZM250.418 191.778L252.387 198.408L252.634 200.4H251.534L249.502 193.778L249.167 191.778H250.418ZM258.817 191.778V200.4H256.889V191.778H258.817ZM256.761 189.515C256.761 189.223 256.857 188.981 257.048 188.79C257.245 188.593 257.516 188.495 257.861 188.495C258.201 188.495 258.469 188.593 258.666 188.79C258.862 188.981 258.961 189.223 258.961 189.515C258.961 189.802 258.862 190.041 258.666 190.232C258.469 190.423 258.201 190.519 257.861 190.519C257.516 190.519 257.245 190.423 257.048 190.232C256.857 190.041 256.761 189.802 256.761 189.515ZM264.874 191.778V193.18H260.013V191.778H264.874ZM261.415 189.666H263.336V198.017C263.336 198.283 263.373 198.488 263.447 198.631C263.527 198.769 263.636 198.862 263.774 198.91C263.912 198.958 264.074 198.982 264.26 198.982C264.393 198.982 264.52 198.974 264.642 198.958C264.765 198.942 264.863 198.926 264.937 198.91L264.945 200.376C264.786 200.424 264.6 200.466 264.387 200.504C264.18 200.541 263.941 200.559 263.67 200.559C263.229 200.559 262.839 200.482 262.499 200.328C262.159 200.169 261.893 199.911 261.702 199.555C261.511 199.199 261.415 198.727 261.415 198.137V189.666ZM268.252 188.16V200.4H266.34V188.16H268.252ZM267.918 195.77L267.296 195.762C267.301 195.167 267.384 194.617 267.543 194.113C267.708 193.608 267.936 193.17 268.228 192.798C268.526 192.421 268.882 192.131 269.296 191.929C269.711 191.722 270.17 191.618 270.675 191.618C271.1 191.618 271.482 191.677 271.822 191.794C272.168 191.911 272.465 192.099 272.715 192.36C272.964 192.615 273.153 192.949 273.281 193.364C273.413 193.773 273.48 194.272 273.48 194.862V200.4H271.551V194.846C271.551 194.431 271.49 194.102 271.368 193.858C271.251 193.613 271.079 193.438 270.85 193.332C270.622 193.22 270.343 193.164 270.013 193.164C269.668 193.164 269.363 193.233 269.097 193.372C268.837 193.51 268.619 193.698 268.444 193.937C268.268 194.176 268.135 194.453 268.045 194.766C267.96 195.08 267.918 195.414 267.918 195.77Z" fill="#464646"/>
<path fill-rule="evenodd" clip-rule="evenodd" d="M296.406 190.83H293.74C293.644 190.83 293.567 190.908 293.567 191.005V192.399C293.567 192.473 293.609 192.54 293.674 192.572L296.309 193.841C296.434 193.902 296.58 193.809 296.58 193.669V191.005C296.58 190.908 296.502 190.83 296.406 190.83V190.83Z" fill="black"/>
<path fill-rule="evenodd" clip-rule="evenodd" d="M312.088 191.004C312.087 190.908 312.01 190.83 311.914 190.83H303.026C302.93 190.83 302.853 190.908 302.853 191.005V193.507C302.853 193.603 302.93 193.681 303.026 193.681H305.963V202.398C305.963 202.494 306.041 202.572 306.136 202.572H308.803C308.899 202.572 308.976 202.494 308.976 202.398V193.744L311.916 193.749C312.016 193.749 312.097 193.667 312.096 193.567L312.087 191.004L312.088 191.004Z" fill="black"/>
<path fill-rule="evenodd" clip-rule="evenodd" d="M304.58 199.986H301.314V191.005C301.314 190.908 301.236 190.83 301.141 190.83H298.457C298.361 190.83 298.284 190.908 298.284 191.005V202.398C298.284 202.494 298.361 202.572 298.457 202.572H304.744C304.747 202.57 304.75 202.567 304.753 202.564V200.161C304.753 200.064 304.675 199.986 304.58 199.986H304.58Z" fill="black"/>
<path fill-rule="evenodd" clip-rule="evenodd" d="M296.472 196.883L293.837 195.613C293.712 195.553 293.567 195.645 293.567 195.786V202.398C293.567 202.494 293.644 202.572 293.74 202.572H296.406C296.502 202.572 296.58 202.494 296.58 202.398V197.055C296.58 196.981 296.538 196.914 296.472 196.883V196.883Z" fill="black"/>
<path fill-rule="evenodd" clip-rule="evenodd" d="M289.182 195.567C288.315 195.227 287.688 194.982 287.688 194.442C287.688 193.902 288.152 193.539 288.843 193.539L288.866 193.54C289.42 193.587 290.045 193.825 291.001 194.271C291.089 194.312 291.194 194.272 291.233 194.182L292.157 192.034C292.194 191.95 292.159 191.851 292.078 191.809C290.754 191.126 289.719 190.83 288.67 190.83C286.18 190.83 284.572 192.248 284.572 194.442C284.572 196.749 286.537 197.474 287.972 198.003C288.85 198.326 289.484 198.56 289.484 199.104C289.484 199.421 289.378 199.688 289.177 199.876C288.948 200.09 288.616 200.187 288.217 200.156C287.419 200.094 286.764 199.918 285.893 199.521C285.804 199.481 285.7 199.523 285.662 199.614L284.843 201.602C284.808 201.687 284.844 201.785 284.925 201.826C285.985 202.351 287.014 202.569 288.406 202.569C291.019 202.569 292.579 201.323 292.579 199.236C292.579 196.898 290.615 196.129 289.182 195.567Z" fill="black"/>
<path fill-rule="evenodd" clip-rule="evenodd" d="M315.846 188.713C314.463 187.18 312.584 186.23 310.554 186.038L288.216 186C283.686 186 280 189.732 280 194.32C280 197.331 281.588 199.974 283.961 201.434C284.028 201.476 284.116 201.446 284.147 201.373L285.051 199.205C285.075 199.148 285.056 199.081 285.005 199.046C285.005 199.046 285.004 199.046 285.004 199.046C283.467 197.971 282.55 196.204 282.55 194.32C282.55 191.156 285.092 188.582 288.216 188.582H309.857C312.882 188.582 315.408 191.016 315.45 194.08C315.471 195.623 314.889 197.103 313.817 198.238C312.819 199.294 311.522 199.914 310.139 200.004C310.043 200.01 309.967 200.089 309.967 200.187V202.408C309.967 202.512 310.053 202.597 310.156 202.591C312.185 202.483 314.094 201.606 315.568 200.093C317.136 198.484 318 196.378 318 194.161C318 192.085 317.235 190.252 315.846 188.713Z" fill="#0088FF"/>
</g>
<path d="M207.4 129.406V141H205.361V129.406H202.255V127.49H210.497V129.406H207.4ZM213.175 132.477V137.369C213.175 138.78 213.732 139.486 214.846 139.486C215.96 139.486 216.517 138.78 216.517 137.369V132.477H218.486V137.412C218.486 138.095 218.402 138.684 218.232 139.18C218.069 139.623 217.786 140.023 217.384 140.379C216.719 140.956 215.873 141.245 214.846 141.245C213.825 141.245 212.982 140.956 212.317 140.379C211.909 140.023 211.62 139.623 211.451 139.18C211.288 138.783 211.206 138.194 211.206 137.412V132.477H213.175ZM234.814 137.719H229.03L227.525 141H225.329L232.014 126.641L238.462 141H236.231L234.814 137.719ZM233.982 135.802L231.979 131.209L229.879 135.802H233.982ZM241.752 145.638H239.784V132.477H241.752V133.405C242.528 132.629 243.409 132.241 244.395 132.241C245.567 132.241 246.533 132.673 247.291 133.536C248.061 134.394 248.446 135.476 248.446 136.782C248.446 138.06 248.064 139.125 247.3 139.976C246.542 140.822 245.585 141.245 244.43 141.245C243.432 141.245 242.54 140.845 241.752 140.046V145.638ZM246.434 136.791C246.434 135.975 246.212 135.31 245.769 134.796C245.32 134.277 244.754 134.017 244.071 134.017C243.348 134.017 242.762 134.268 242.312 134.77C241.863 135.272 241.639 135.931 241.639 136.747C241.639 137.547 241.863 138.206 242.312 138.725C242.756 139.232 243.339 139.486 244.062 139.486C244.745 139.486 245.308 139.23 245.751 138.716C246.206 138.203 246.434 137.561 246.434 136.791ZM252.498 145.638H250.529V132.477H252.498V133.405C253.273 132.629 254.154 132.241 255.14 132.241C256.313 132.241 257.278 132.673 258.036 133.536C258.806 134.394 259.191 135.476 259.191 136.782C259.191 138.06 258.809 139.125 258.045 139.976C257.287 140.822 256.33 141.245 255.175 141.245C254.178 141.245 253.285 140.845 252.498 140.046V145.638ZM257.179 136.791C257.179 135.975 256.957 135.31 256.514 134.796C256.065 134.277 255.499 134.017 254.816 134.017C254.093 134.017 253.507 134.268 253.058 134.77C252.608 135.272 252.384 135.931 252.384 136.747C252.384 137.547 252.608 138.206 253.058 138.725C253.501 139.232 254.084 139.486 254.808 139.486C255.49 139.486 256.053 139.23 256.496 138.716C256.951 138.203 257.179 137.561 257.179 136.791ZM267.626 126.072L269.254 126.79L261.519 144.693L259.909 143.966L267.626 126.072ZM271.608 127.49L275.125 136.52L278.8 126.834L282.318 136.52L286.054 127.49H288.268L282.23 141.858L278.756 132.285L275.134 141.866L269.394 127.49H271.608ZM296.282 137.202H290.175C290.227 137.902 290.455 138.46 290.857 138.874C291.26 139.282 291.776 139.486 292.406 139.486C292.896 139.486 293.302 139.37 293.622 139.136C293.937 138.903 294.296 138.471 294.699 137.841L296.361 138.769C296.105 139.206 295.833 139.582 295.547 139.897C295.262 140.207 294.955 140.463 294.629 140.667C294.302 140.866 293.949 141.012 293.57 141.105C293.191 141.198 292.78 141.245 292.336 141.245C291.065 141.245 290.044 140.837 289.274 140.02C288.504 139.197 288.119 138.107 288.119 136.747C288.119 135.4 288.492 134.309 289.239 133.475C289.991 132.652 290.989 132.241 292.231 132.241C293.485 132.241 294.477 132.641 295.206 133.44C295.93 134.233 296.291 135.333 296.291 136.739L296.282 137.202ZM294.261 135.592C293.987 134.542 293.325 134.017 292.275 134.017C292.036 134.017 291.811 134.055 291.601 134.131C291.391 134.201 291.199 134.306 291.024 134.446C290.855 134.58 290.709 134.744 290.586 134.936C290.464 135.129 290.37 135.347 290.306 135.592H294.261ZM300.412 126.221V133.466C301.2 132.65 302.092 132.241 303.09 132.241C304.239 132.241 305.196 132.67 305.96 133.527C306.724 134.379 307.106 135.441 307.106 136.712C307.106 138.025 306.721 139.11 305.951 139.967C305.187 140.819 304.222 141.245 303.055 141.245C302.069 141.245 301.188 140.866 300.412 140.107V141H298.444V126.221H300.412ZM305.094 136.8C305.094 135.983 304.872 135.318 304.429 134.805C303.98 134.28 303.417 134.017 302.74 134.017C302.017 134.017 301.427 134.271 300.972 134.779C300.523 135.28 300.299 135.934 300.299 136.739C300.299 137.567 300.52 138.229 300.964 138.725C301.407 139.232 301.99 139.486 302.714 139.486C303.396 139.486 303.962 139.232 304.411 138.725C304.866 138.212 305.094 137.57 305.094 136.8Z" fill="#464646"/>
</g>
<defs>
<filter id="filter0_d_0_1" x="-10" y="529" width="260" height="63" filterUnits="userSpaceOnUse" color-interpolation-filters="sRGB">
<feFlood flood-opacity="0" result="BackgroundImageFix"/>
<feColorMatrix in="SourceAlpha" type="matrix" values="0 0 0 0 0 0 0 0 0 0 0 0 0 0 0 0 0 0 127 0" result="hardAlpha"/>
<feMorphology radius="5" operator="erode" in="SourceAlpha" result="effect1_dropShadow_0_1"/>
<feOffset dy="5"/>
<feGaussianBlur stdDeviation="7.5"/>
<feColorMatrix type="matrix" values="0 0 0 0 0 0 0 0 0 0 0 0 0 0 0 0 0 0 0.35 0"/>
<feBlend mode="normal" in2="BackgroundImageFix" result="effect1_dropShadow_0_1"/>
<feBlend mode="normal" in="SourceGraphic" in2="effect1_dropShadow_0_1" result="shape"/>
</filter>
<filter id="filter1_d_0_1" x="258" y="529" width="260" height="63" filterUnits="userSpaceOnUse" color-interpolation-filters="sRGB">
<feFlood flood-opacity="0" result="BackgroundImageFix"/>
<feColorMatrix in="SourceAlpha" type="matrix" values="0 0 0 0 0 0 0 0 0 0 0 0 0 0 0 0 0 0 127 0" result="hardAlpha"/>
<feMorphology radius="5" operator="erode" in="SourceAlpha" result="effect1_dropShadow_0_1"/>
<feOffset dy="5"/>
<feGaussianBlur stdDeviation="7.5"/>
<feColorMatrix type="matrix" values="0 0 0 0 0 0 0 0 0 0 0 0 0 0 0 0 0 0 0.35 0"/>
<feBlend mode="normal" in2="BackgroundImageFix" result="effect1_dropShadow_0_1"/>
<feBlend mode="normal" in="SourceGraphic" in2="effect1_dropShadow_0_1" result="shape"/>
</filter>
<filter id="filter2_d_0_1" x="96" y="262" width="307" height="232" filterUnits="userSpaceOnUse" color-interpolation-filters="sRGB">
<feFlood flood-opacity="0" result="BackgroundImageFix"/>
<feColorMatrix in="SourceAlpha" type="matrix" values="0 0 0 0 0 0 0 0 0 0 0 0 0 0 0 0 0 0 127 0" result="hardAlpha"/>
<feMorphology radius="11" operator="erode" in="SourceAlpha" result="effect1_dropShadow_0_1"/>
<feOffset dy="5"/>
<feGaussianBlur stdDeviation="17.5"/>
<feColorMatrix type="matrix" values="0 0 0 0 0 0 0 0 0 0 0 0 0 0 0 0 0 0 0.35 0"/>
<feBlend mode="normal" in2="BackgroundImageFix" result="effect1_dropShadow_0_1"/>
<feBlend mode="normal" in="SourceGraphic" in2="effect1_dropShadow_0_1" result="shape"/>
</filter>
<filter id="filter3_d_0_1" x="157" y="104" width="197" height="136" filterUnits="userSpaceOnUse" color-interpolation-filters="sRGB">
<feFlood flood-opacity="0" result="BackgroundImageFix"/>
<feColorMatrix in="SourceAlpha" type="matrix" values="0 0 0 0 0 0 0 0 0 0 0 0 0 0 0 0 0 0 127 0" result="hardAlpha"/>
<feOffset dy="4"/>
<feGaussianBlur stdDeviation="2"/>
<feComposite in2="hardAlpha" operator="out"/>
<feColorMatrix type="matrix" values="0 0 0 0 0 0 0 0 0 0 0 0 0 0 0 0 0 0 0.15 0"/>
<feBlend mode="normal" in2="BackgroundImageFix" result="effect1_dropShadow_0_1"/>
<feBlend mode="normal" in="SourceGraphic" in2="effect1_dropShadow_0_1" result="shape"/>
</filter>
<filter id="filter4_d_0_1" x="182.2" y="175.4" width="147" height="40" filterUnits="userSpaceOnUse" color-interpolation-filters="sRGB">
<feFlood flood-opacity="0" result="BackgroundImageFix"/>
<feColorMatrix in="SourceAlpha" type="matrix" values="0 0 0 0 0 0 0 0 0 0 0 0 0 0 0 0 0 0 127 0" result="hardAlpha"/>
<feOffset dy="1"/>
<feGaussianBlur stdDeviation="1.5"/>
<feColorMatrix type="matrix" values="0 0 0 0 0.613948 0 0 0 0 0.613948 0 0 0 0 0.613948 0 0 0 0.5 0"/>
<feBlend mode="normal" in2="BackgroundImageFix" result="effect1_dropShadow_0_1"/>
<feBlend mode="normal" in="SourceGraphic" in2="effect1_dropShadow_0_1" result="shape"/>
</filter>
<clipPath id="clip0_0_1">
<rect width="240" height="43" fill="white" transform="translate(0 534)"/>
</clipPath>
<clipPath id="clip1_0_1">
<rect width="240" height="43" fill="white" transform="translate(268 534)"/>
</clipPath>
<clipPath id="clip2_0_1">
<rect width="141" height="34" fill="white" transform="translate(185.2 177.4)"/>
</clipPath>
</defs>
</svg>
