<svg width="481" height="582" viewBox="0 0 481 582" fill="none" xmlns="http://www.w3.org/2000/svg">
<g clip-path="url(#clip0_0_1)">
<g filter="url(#filter0_d_0_1)">
<rect x="7" y="539" width="202" height="43" rx="10" fill="#2963FF"/>
</g>
<path d="M66.4062 552.732V555.428C65.0911 554.327 63.7305 553.777 62.3242 553.777C60.7747 553.777 59.4694 554.334 58.4082 555.447C57.3405 556.554 56.8066 557.908 56.8066 559.51C56.8066 561.092 57.3405 562.426 58.4082 563.514C59.4759 564.601 60.7845 565.145 62.334 565.145C63.1348 565.145 63.8151 565.014 64.375 564.754C64.6875 564.624 65.0098 564.448 65.3418 564.227C65.6803 564.005 66.0352 563.738 66.4062 563.426V566.17C65.1042 566.906 63.737 567.273 62.3047 567.273C60.1497 567.273 58.3105 566.521 56.7871 565.018C55.2702 563.501 54.5117 561.671 54.5117 559.529C54.5117 557.609 55.1465 555.896 56.416 554.393C57.9785 552.55 60 551.629 62.4805 551.629C63.8346 551.629 65.1432 551.997 66.4062 552.732ZM68.418 562.176C68.418 560.802 68.9095 559.633 69.8926 558.67C70.8757 557.706 72.0736 557.225 73.4863 557.225C74.9056 557.225 76.11 557.71 77.0996 558.68C78.0762 559.65 78.5645 560.841 78.5645 562.254C78.5645 563.68 78.0729 564.874 77.0898 565.838C76.1003 566.795 74.8861 567.273 73.4473 567.273C72.0215 567.273 70.8268 566.785 69.8633 565.809C68.8997 564.845 68.418 563.634 68.418 562.176ZM70.6641 562.215C70.6641 563.165 70.918 563.917 71.4258 564.471C71.9466 565.031 72.6335 565.311 73.4863 565.311C74.3457 565.311 75.0326 565.034 75.5469 564.48C76.0612 563.927 76.3184 563.188 76.3184 562.264C76.3184 561.339 76.0612 560.6 75.5469 560.047C75.026 559.487 74.3392 559.207 73.4863 559.207C72.6465 559.207 71.9661 559.487 71.4453 560.047C70.9245 560.607 70.6641 561.329 70.6641 562.215ZM80.8984 557.488H83.1055V558.367C83.8737 557.605 84.7396 557.225 85.7031 557.225C86.8099 557.225 87.6725 557.573 88.291 558.27C88.8249 558.862 89.0918 559.829 89.0918 561.17V567H86.8848V561.688C86.8848 560.75 86.7546 560.102 86.4941 559.744C86.2402 559.38 85.778 559.197 85.1074 559.197C84.3783 559.197 83.8607 559.438 83.5547 559.92C83.2552 560.395 83.1055 561.225 83.1055 562.41V567H80.8984V557.488ZM99.707 554.979H97.5098V554.09C97.5098 553.608 97.3535 553.185 97.041 552.82C96.709 552.449 96.3021 552.264 95.8203 552.264C95.3451 552.264 94.9447 552.446 94.6191 552.811C94.3001 553.169 94.1406 553.595 94.1406 554.09V557.488H96.6602V559.539H94.1406V567H91.9434V559.539H91.1621V557.488H91.9434V554.09C91.9434 553.022 92.321 552.111 93.0762 551.355C93.8379 550.594 94.7559 550.213 95.8301 550.213C96.8978 550.213 97.8092 550.594 98.5645 551.355C99.3262 552.111 99.707 553.022 99.707 554.09V554.979ZM99.707 567H97.5098V557.488H99.707V567ZM102.5 557.488H104.697V558.338C105.101 557.915 105.459 557.625 105.771 557.469C106.09 557.306 106.468 557.225 106.904 557.225C107.484 557.225 108.089 557.413 108.721 557.791L107.715 559.803C107.298 559.503 106.891 559.354 106.494 559.354C105.296 559.354 104.697 560.258 104.697 562.068V567H102.5V557.488ZM110.293 557.488H112.49V558.367C112.913 557.924 113.275 557.625 113.574 557.469C113.893 557.306 114.294 557.225 114.775 557.225C115.85 557.225 116.699 557.693 117.324 558.631C118.014 557.693 118.949 557.225 120.127 557.225C122.269 557.225 123.34 558.523 123.34 561.121V567H121.133V561.717C121.133 560.805 121.022 560.161 120.801 559.783C120.573 559.399 120.199 559.207 119.678 559.207C119.072 559.207 118.63 559.435 118.35 559.891C118.076 560.346 117.939 561.079 117.939 562.088V567H115.732V561.746C115.732 560.053 115.244 559.207 114.268 559.207C113.649 559.207 113.197 559.438 112.91 559.9C112.63 560.363 112.49 561.092 112.49 562.088V567H110.293V557.488ZM134.775 562.762H127.959C128.018 563.543 128.271 564.165 128.721 564.627C129.17 565.083 129.746 565.311 130.449 565.311C130.996 565.311 131.449 565.18 131.807 564.92C132.158 564.66 132.559 564.178 133.008 563.475L134.863 564.51C134.577 564.998 134.274 565.418 133.955 565.77C133.636 566.115 133.294 566.401 132.93 566.629C132.565 566.85 132.171 567.013 131.748 567.117C131.325 567.221 130.866 567.273 130.371 567.273C128.952 567.273 127.812 566.818 126.953 565.906C126.094 564.988 125.664 563.771 125.664 562.254C125.664 560.75 126.081 559.533 126.914 558.602C127.754 557.684 128.867 557.225 130.254 557.225C131.654 557.225 132.76 557.671 133.574 558.562C134.382 559.448 134.785 560.675 134.785 562.244L134.775 562.762ZM132.52 560.965C132.214 559.793 131.475 559.207 130.303 559.207C130.036 559.207 129.785 559.249 129.551 559.334C129.316 559.412 129.102 559.529 128.906 559.686C128.717 559.835 128.555 560.018 128.418 560.232C128.281 560.447 128.177 560.691 128.105 560.965H132.52ZM144.199 550.506H146.406V567H144.199V566.004C143.333 566.85 142.354 567.273 141.26 567.273C139.958 567.273 138.877 566.798 138.018 565.848C137.165 564.878 136.738 563.667 136.738 562.215C136.738 560.796 137.165 559.611 138.018 558.66C138.864 557.703 139.928 557.225 141.211 557.225C142.324 557.225 143.32 557.68 144.199 558.592V550.506ZM138.984 562.215C138.984 563.126 139.229 563.868 139.717 564.441C140.218 565.021 140.85 565.311 141.611 565.311C142.425 565.311 143.083 565.031 143.584 564.471C144.085 563.891 144.336 563.156 144.336 562.264C144.336 561.372 144.085 560.636 143.584 560.057C143.083 559.49 142.432 559.207 141.631 559.207C140.876 559.207 140.244 559.493 139.736 560.066C139.235 560.646 138.984 561.362 138.984 562.215ZM157.549 557.488V562.947C157.549 564.523 158.171 565.311 159.414 565.311C160.658 565.311 161.279 564.523 161.279 562.947V557.488H163.477V562.996C163.477 563.758 163.382 564.415 163.193 564.969C163.011 565.464 162.695 565.91 162.246 566.307C161.504 566.951 160.56 567.273 159.414 567.273C158.275 567.273 157.334 566.951 156.592 566.307C156.136 565.91 155.814 565.464 155.625 564.969C155.443 564.526 155.352 563.868 155.352 562.996V557.488H157.549ZM171.777 559.109L169.961 560.076C169.674 559.49 169.32 559.197 168.896 559.197C168.695 559.197 168.522 559.266 168.379 559.402C168.236 559.533 168.164 559.702 168.164 559.91C168.164 560.275 168.587 560.636 169.434 560.994C170.599 561.495 171.383 561.958 171.787 562.381C172.191 562.804 172.393 563.374 172.393 564.09C172.393 565.008 172.054 565.776 171.377 566.395C170.719 566.98 169.925 567.273 168.994 567.273C167.399 567.273 166.27 566.495 165.605 564.939L167.48 564.07C167.741 564.526 167.939 564.816 168.076 564.939C168.343 565.187 168.662 565.311 169.033 565.311C169.775 565.311 170.146 564.972 170.146 564.295C170.146 563.904 169.86 563.54 169.287 563.201C169.066 563.09 168.844 562.983 168.623 562.879C168.402 562.775 168.177 562.667 167.949 562.557C167.311 562.244 166.862 561.932 166.602 561.619C166.27 561.222 166.104 560.711 166.104 560.086C166.104 559.259 166.387 558.576 166.953 558.035C167.533 557.495 168.236 557.225 169.062 557.225C170.28 557.225 171.185 557.853 171.777 559.109ZM183.037 562.762H176.221C176.279 563.543 176.533 564.165 176.982 564.627C177.432 565.083 178.008 565.311 178.711 565.311C179.258 565.311 179.71 565.18 180.068 564.92C180.42 564.66 180.82 564.178 181.27 563.475L183.125 564.51C182.839 564.998 182.536 565.418 182.217 565.77C181.898 566.115 181.556 566.401 181.191 566.629C180.827 566.85 180.433 567.013 180.01 567.117C179.587 567.221 179.128 567.273 178.633 567.273C177.214 567.273 176.074 566.818 175.215 565.906C174.355 564.988 173.926 563.771 173.926 562.254C173.926 560.75 174.342 559.533 175.176 558.602C176.016 557.684 177.129 557.225 178.516 557.225C179.915 557.225 181.022 557.671 181.836 558.562C182.643 559.448 183.047 560.675 183.047 562.244L183.037 562.762ZM180.781 560.965C180.475 559.793 179.736 559.207 178.564 559.207C178.298 559.207 178.047 559.249 177.812 559.334C177.578 559.412 177.363 559.529 177.168 559.686C176.979 559.835 176.816 560.018 176.68 560.232C176.543 560.447 176.439 560.691 176.367 560.965H180.781ZM185.449 557.488H187.646V558.338C188.05 557.915 188.408 557.625 188.721 557.469C189.04 557.306 189.417 557.225 189.854 557.225C190.433 557.225 191.038 557.413 191.67 557.791L190.664 559.803C190.247 559.503 189.84 559.354 189.443 559.354C188.245 559.354 187.646 560.258 187.646 562.068V567H185.449V557.488Z" fill="white"/>
<path fill-rule="evenodd" clip-rule="evenodd" d="M20.2343 560.534C19.9219 560.22 19.9219 559.711 20.2343 559.397L21.3656 558.259C21.6781 557.944 22.1846 557.944 22.497 558.259L26 561.782L33.503 554.236C33.8154 553.921 34.3219 553.921 34.6343 554.236L35.7657 555.374C36.0781 555.688 36.0781 556.197 35.7657 556.511L26.5657 565.764C26.2532 566.079 25.7467 566.079 25.4343 565.764L20.2343 560.534Z" fill="white"/>
</g>
<g clip-path="url(#clip1_0_1)">
<g filter="url(#filter1_d_0_1)">
<rect x="250" y="539" width="209" height="43" rx="10" fill="#FF3295"/>
</g>
<path d="M297.266 566V550.922H300.43C301.947 550.922 303.145 551.072 304.023 551.371C304.967 551.664 305.824 552.162 306.592 552.865C308.148 554.285 308.926 556.15 308.926 558.461C308.926 560.779 308.115 562.654 306.494 564.086C305.68 564.802 304.827 565.3 303.936 565.58C303.102 565.86 301.921 566 300.391 566H297.266ZM299.541 563.861H300.566C301.589 563.861 302.438 563.754 303.115 563.539C303.792 563.311 304.404 562.95 304.951 562.455C306.071 561.433 306.631 560.102 306.631 558.461C306.631 556.807 306.077 555.466 304.971 554.438C303.975 553.52 302.507 553.061 300.566 553.061H299.541V563.861ZM320.039 561.762H313.223C313.281 562.543 313.535 563.165 313.984 563.627C314.434 564.083 315.01 564.311 315.713 564.311C316.26 564.311 316.712 564.18 317.07 563.92C317.422 563.66 317.822 563.178 318.271 562.475L320.127 563.51C319.84 563.998 319.538 564.418 319.219 564.77C318.9 565.115 318.558 565.401 318.193 565.629C317.829 565.85 317.435 566.013 317.012 566.117C316.589 566.221 316.13 566.273 315.635 566.273C314.215 566.273 313.076 565.818 312.217 564.906C311.357 563.988 310.928 562.771 310.928 561.254C310.928 559.75 311.344 558.533 312.178 557.602C313.018 556.684 314.131 556.225 315.518 556.225C316.917 556.225 318.024 556.671 318.838 557.562C319.645 558.448 320.049 559.675 320.049 561.244L320.039 561.762ZM317.783 559.965C317.477 558.793 316.738 558.207 315.566 558.207C315.299 558.207 315.049 558.249 314.814 558.334C314.58 558.412 314.365 558.529 314.17 558.686C313.981 558.835 313.818 559.018 313.682 559.232C313.545 559.447 313.441 559.691 313.369 559.965H317.783ZM322.451 556.488H324.658V557.367C325.426 556.605 326.292 556.225 327.256 556.225C328.363 556.225 329.225 556.573 329.844 557.27C330.378 557.862 330.645 558.829 330.645 560.17V566H328.438V560.688C328.438 559.75 328.307 559.102 328.047 558.744C327.793 558.38 327.331 558.197 326.66 558.197C325.931 558.197 325.413 558.438 325.107 558.92C324.808 559.395 324.658 560.225 324.658 561.41V566H322.451V556.488ZM342.09 561.762H335.273C335.332 562.543 335.586 563.165 336.035 563.627C336.484 564.083 337.061 564.311 337.764 564.311C338.311 564.311 338.763 564.18 339.121 563.92C339.473 563.66 339.873 563.178 340.322 562.475L342.178 563.51C341.891 563.998 341.589 564.418 341.27 564.77C340.951 565.115 340.609 565.401 340.244 565.629C339.88 565.85 339.486 566.013 339.062 566.117C338.639 566.221 338.18 566.273 337.686 566.273C336.266 566.273 335.127 565.818 334.268 564.906C333.408 563.988 332.979 562.771 332.979 561.254C332.979 559.75 333.395 558.533 334.229 557.602C335.068 556.684 336.182 556.225 337.568 556.225C338.968 556.225 340.075 556.671 340.889 557.562C341.696 558.448 342.1 559.675 342.1 561.244L342.09 561.762ZM339.834 559.965C339.528 558.793 338.789 558.207 337.617 558.207C337.35 558.207 337.1 558.249 336.865 558.334C336.631 558.412 336.416 558.529 336.221 558.686C336.032 558.835 335.869 559.018 335.732 559.232C335.596 559.447 335.492 559.691 335.42 559.965H339.834ZM353.701 565.775C353.701 566.225 353.685 566.618 353.652 566.957C353.626 567.302 353.587 567.605 353.535 567.865C353.379 568.581 353.073 569.197 352.617 569.711C351.758 570.701 350.576 571.195 349.072 571.195C347.803 571.195 346.758 570.854 345.938 570.17C345.091 569.467 344.603 568.493 344.473 567.25H346.68C346.764 567.719 346.904 568.08 347.1 568.334C347.555 568.926 348.219 569.223 349.092 569.223C350.7 569.223 351.504 568.236 351.504 566.264V564.936C350.632 565.827 349.626 566.273 348.486 566.273C347.191 566.273 346.13 565.805 345.303 564.867C344.469 563.917 344.053 562.729 344.053 561.303C344.053 559.916 344.44 558.738 345.215 557.768C346.048 556.739 347.148 556.225 348.516 556.225C349.714 556.225 350.71 556.671 351.504 557.562V556.488H353.701V565.775ZM351.592 561.264C351.592 560.339 351.344 559.6 350.85 559.047C350.348 558.48 349.707 558.197 348.926 558.197C348.092 558.197 347.435 558.507 346.953 559.125C346.517 559.678 346.299 560.395 346.299 561.273C346.299 562.139 346.517 562.849 346.953 563.402C347.428 564.008 348.086 564.311 348.926 564.311C349.766 564.311 350.43 564.005 350.918 563.393C351.367 562.839 351.592 562.13 351.592 561.264ZM363.486 556.488H365.693V566H363.486V565.004C362.581 565.85 361.608 566.273 360.566 566.273C359.251 566.273 358.164 565.798 357.305 564.848C356.452 563.878 356.025 562.667 356.025 561.215C356.025 559.789 356.452 558.601 357.305 557.65C358.158 556.7 359.225 556.225 360.508 556.225C361.615 556.225 362.607 556.68 363.486 557.592V556.488ZM358.271 561.215C358.271 562.126 358.516 562.868 359.004 563.441C359.505 564.021 360.137 564.311 360.898 564.311C361.712 564.311 362.37 564.031 362.871 563.471C363.372 562.891 363.623 562.156 363.623 561.264C363.623 560.372 363.372 559.636 362.871 559.057C362.37 558.49 361.719 558.207 360.918 558.207C360.163 558.207 359.531 558.493 359.023 559.066C358.522 559.646 358.271 560.362 358.271 561.215ZM370.732 558.539V566H368.535V558.539H367.598V556.488H368.535V553.002H370.732V556.488H372.441V558.539H370.732ZM382.773 561.762H375.957C376.016 562.543 376.27 563.165 376.719 563.627C377.168 564.083 377.744 564.311 378.447 564.311C378.994 564.311 379.447 564.18 379.805 563.92C380.156 563.66 380.557 563.178 381.006 562.475L382.861 563.51C382.575 563.998 382.272 564.418 381.953 564.77C381.634 565.115 381.292 565.401 380.928 565.629C380.563 565.85 380.169 566.013 379.746 566.117C379.323 566.221 378.864 566.273 378.369 566.273C376.95 566.273 375.811 565.818 374.951 564.906C374.092 563.988 373.662 562.771 373.662 561.254C373.662 559.75 374.079 558.533 374.912 557.602C375.752 556.684 376.865 556.225 378.252 556.225C379.652 556.225 380.758 556.671 381.572 557.562C382.38 558.448 382.783 559.675 382.783 561.244L382.773 561.762ZM380.518 559.965C380.212 558.793 379.473 558.207 378.301 558.207C378.034 558.207 377.783 558.249 377.549 558.334C377.314 558.412 377.1 558.529 376.904 558.686C376.715 558.835 376.553 559.018 376.416 559.232C376.279 559.447 376.175 559.691 376.104 559.965H380.518ZM392.197 549.506H394.404V566H392.197V565.004C391.331 565.85 390.352 566.273 389.258 566.273C387.956 566.273 386.875 565.798 386.016 564.848C385.163 563.878 384.736 562.667 384.736 561.215C384.736 559.796 385.163 558.611 386.016 557.66C386.862 556.703 387.926 556.225 389.209 556.225C390.322 556.225 391.318 556.68 392.197 557.592V549.506ZM386.982 561.215C386.982 562.126 387.227 562.868 387.715 563.441C388.216 564.021 388.848 564.311 389.609 564.311C390.423 564.311 391.081 564.031 391.582 563.471C392.083 562.891 392.334 562.156 392.334 561.264C392.334 560.372 392.083 559.636 391.582 559.057C391.081 558.49 390.43 558.207 389.629 558.207C388.874 558.207 388.242 558.493 387.734 559.066C387.233 559.646 386.982 560.362 386.982 561.215ZM405.547 556.488V561.947C405.547 563.523 406.169 564.311 407.412 564.311C408.656 564.311 409.277 563.523 409.277 561.947V556.488H411.475V561.996C411.475 562.758 411.38 563.415 411.191 563.969C411.009 564.464 410.693 564.91 410.244 565.307C409.502 565.951 408.558 566.273 407.412 566.273C406.273 566.273 405.332 565.951 404.59 565.307C404.134 564.91 403.812 564.464 403.623 563.969C403.441 563.526 403.35 562.868 403.35 561.996V556.488H405.547ZM419.775 558.109L417.959 559.076C417.673 558.49 417.318 558.197 416.895 558.197C416.693 558.197 416.52 558.266 416.377 558.402C416.234 558.533 416.162 558.702 416.162 558.91C416.162 559.275 416.585 559.636 417.432 559.994C418.597 560.495 419.382 560.958 419.785 561.381C420.189 561.804 420.391 562.374 420.391 563.09C420.391 564.008 420.052 564.776 419.375 565.395C418.717 565.98 417.923 566.273 416.992 566.273C415.397 566.273 414.268 565.495 413.604 563.939L415.479 563.07C415.739 563.526 415.938 563.816 416.074 563.939C416.341 564.187 416.66 564.311 417.031 564.311C417.773 564.311 418.145 563.972 418.145 563.295C418.145 562.904 417.858 562.54 417.285 562.201C417.064 562.09 416.842 561.983 416.621 561.879C416.4 561.775 416.175 561.667 415.947 561.557C415.309 561.244 414.86 560.932 414.6 560.619C414.268 560.222 414.102 559.711 414.102 559.086C414.102 558.259 414.385 557.576 414.951 557.035C415.531 556.495 416.234 556.225 417.061 556.225C418.278 556.225 419.183 556.853 419.775 558.109ZM431.035 561.762H424.219C424.277 562.543 424.531 563.165 424.98 563.627C425.43 564.083 426.006 564.311 426.709 564.311C427.256 564.311 427.708 564.18 428.066 563.92C428.418 563.66 428.818 563.178 429.268 562.475L431.123 563.51C430.837 563.998 430.534 564.418 430.215 564.77C429.896 565.115 429.554 565.401 429.189 565.629C428.825 565.85 428.431 566.013 428.008 566.117C427.585 566.221 427.126 566.273 426.631 566.273C425.212 566.273 424.072 565.818 423.213 564.906C422.354 563.988 421.924 562.771 421.924 561.254C421.924 559.75 422.34 558.533 423.174 557.602C424.014 556.684 425.127 556.225 426.514 556.225C427.913 556.225 429.02 556.671 429.834 557.562C430.641 558.448 431.045 559.675 431.045 561.244L431.035 561.762ZM428.779 559.965C428.473 558.793 427.734 558.207 426.562 558.207C426.296 558.207 426.045 558.249 425.811 558.334C425.576 558.412 425.361 558.529 425.166 558.686C424.977 558.835 424.814 559.018 424.678 559.232C424.541 559.447 424.437 559.691 424.365 559.965H428.779ZM433.447 556.488H435.645V557.338C436.048 556.915 436.406 556.625 436.719 556.469C437.038 556.306 437.415 556.225 437.852 556.225C438.431 556.225 439.036 556.413 439.668 556.791L438.662 558.803C438.245 558.503 437.839 558.354 437.441 558.354C436.243 558.354 435.645 559.258 435.645 561.068V566H433.447V556.488Z" fill="white"/>
<path fill-rule="evenodd" clip-rule="evenodd" d="M266.249 565.442C265.917 565.102 265.917 564.55 266.249 564.209L268.052 562.43L276.024 554.255C276.356 553.915 276.894 553.915 277.226 554.255L278.428 555.488C278.76 555.828 278.76 556.38 278.428 556.721L268.653 566.745C268.321 567.085 267.783 567.085 267.451 566.745L266.249 565.442Z" fill="white"/>
<path fill-rule="evenodd" clip-rule="evenodd" d="M278.428 565.442C278.76 565.102 278.76 564.55 278.428 564.209L276.625 562.43L268.653 554.255C268.321 553.915 267.783 553.915 267.451 554.255L266.249 555.488C265.917 555.828 265.917 556.38 266.249 556.721L276.024 566.745C276.356 567.085 276.894 567.085 277.226 566.745L278.428 565.442Z" fill="white"/>
</g>
<g filter="url(#filter2_d_0_1)">
<rect x="102" y="286" width="259" height="184" rx="10" fill="white"/>
</g>
<path d="M217.303 370.922V380.678C217.303 381.843 217.221 382.712 217.059 383.285C216.896 383.936 216.619 384.486 216.229 384.936C215.467 385.827 214.458 386.273 213.201 386.273C212.251 386.273 211.362 386.026 210.535 385.531L211.648 383.588C212.202 383.959 212.719 384.145 213.201 384.145C213.878 384.145 214.347 383.887 214.607 383.373C214.881 382.859 215.018 381.96 215.018 380.678V370.922H217.303ZM220.047 381.176C220.047 379.802 220.538 378.633 221.521 377.67C222.505 376.706 223.702 376.225 225.115 376.225C226.535 376.225 227.739 376.71 228.729 377.68C229.705 378.65 230.193 379.841 230.193 381.254C230.193 382.68 229.702 383.874 228.719 384.838C227.729 385.795 226.515 386.273 225.076 386.273C223.65 386.273 222.456 385.785 221.492 384.809C220.529 383.845 220.047 382.634 220.047 381.176ZM222.293 381.215C222.293 382.165 222.547 382.917 223.055 383.471C223.576 384.031 224.262 384.311 225.115 384.311C225.975 384.311 226.661 384.034 227.176 383.48C227.69 382.927 227.947 382.188 227.947 381.264C227.947 380.339 227.69 379.6 227.176 379.047C226.655 378.487 225.968 378.207 225.115 378.207C224.275 378.207 223.595 378.487 223.074 379.047C222.553 379.607 222.293 380.329 222.293 381.215ZM232.527 369.506H234.725V377.279C235.506 376.576 236.368 376.225 237.312 376.225C238.387 376.225 239.246 376.573 239.891 377.27C240.438 377.875 240.711 378.842 240.711 380.17V386H238.514V380.375C238.514 379.613 238.377 379.063 238.104 378.725C237.837 378.38 237.404 378.207 236.805 378.207C236.036 378.207 235.496 378.445 235.184 378.92C234.878 379.402 234.725 380.229 234.725 381.4V386H232.527V369.506ZM243.504 376.488H245.711V377.367C246.479 376.605 247.345 376.225 248.309 376.225C249.415 376.225 250.278 376.573 250.896 377.27C251.43 377.862 251.697 378.829 251.697 380.17V386H249.49V380.687C249.49 379.75 249.36 379.102 249.1 378.744C248.846 378.38 248.383 378.197 247.713 378.197C246.984 378.197 246.466 378.438 246.16 378.92C245.861 379.395 245.711 380.225 245.711 381.41V386H243.504V376.488Z" fill="#2963FF"/>
<line x1="173" y1="355" x2="291" y2="355" stroke="#2963FF" stroke-width="4" stroke-linecap="round"/>
<line x1="163" y1="341" x2="301" y2="341" stroke="#2963FF" stroke-width="4" stroke-linecap="round"/>
<line x1="191" y1="327" x2="273" y2="327" stroke="#2963FF" stroke-width="4" stroke-linecap="round"/>
<line x1="176" y1="426" x2="288" y2="426" stroke="#2963FF" stroke-width="4" stroke-linecap="round"/>
<line x1="183" y1="412" x2="281" y2="412" stroke="#2963FF" stroke-width="4" stroke-linecap="round"/>
<line x1="163" y1="398" x2="301" y2="398" stroke="#2963FF" stroke-width="4" stroke-linecap="round"/>
<path d="M167.6 29C173.892 29.0014 178.999 34.1083 179 40.4V43.9286C179 46.176 177.176 48 174.929 48H145.071C142.824 48 141 46.176 141 43.9286V40.4C141.001 34.1083 146.108 29.0014 152.4 29H153.817C155.441 29.7491 158.211 30.3571 160 30.3571C161.789 30.3571 164.559 29.7491 166.183 29H167.6Z" fill="#2963FF"/>
<path d="M160 27C153.928 27 149 22.072 149 16C149 9.928 153.928 5 160 5C166.072 5 171 9.928 171 16C171 22.072 166.072 27 160 27Z" fill="#2963FF" fill-opacity="0.5"/>
<path d="M321.6 29C327.892 29.0014 332.999 34.1083 333 40.4V43.9286C333 46.176 331.176 48 328.929 48H299.071C296.824 48 295 46.176 295 43.9286V40.4C295.001 34.1083 300.108 29.0014 306.4 29H307.817C309.441 29.7491 312.211 30.3571 314 30.3571C315.789 30.3571 318.559 29.7491 320.183 29H321.6Z" fill="#FF3295"/>
<path d="M314 27C307.928 27 303 22.072 303 16C303 9.928 307.928 5 314 5C320.072 5 325 9.928 325 16C325 22.072 320.072 27 314 27Z" fill="#FF3295" fill-opacity="0.5"/>
<path d="M18.5703 12.877V19H16.2949V3.92188H18.873C20.1361 3.92188 21.0898 4.00977 21.7344 4.18555C22.3854 4.36133 22.9583 4.69336 23.4531 5.18164C24.319 6.02799 24.752 7.0957 24.752 8.38477C24.752 9.76497 24.2897 10.8587 23.3652 11.666C22.4408 12.4733 21.194 12.877 19.625 12.877H18.5703ZM18.5703 10.7676H19.4199C21.5098 10.7676 22.5547 9.96354 22.5547 8.35547C22.5547 6.79948 21.4772 6.02148 19.3223 6.02148H18.5703V10.7676ZM34.8301 14.7617H28.0137C28.0723 15.543 28.3262 16.1647 28.7754 16.627C29.2246 17.0827 29.8008 17.3105 30.5039 17.3105C31.0508 17.3105 31.5033 17.1803 31.8613 16.9199C32.2129 16.6595 32.6133 16.1777 33.0625 15.4746L34.918 16.5098C34.6315 16.998 34.3288 17.418 34.0098 17.7695C33.6908 18.1146 33.349 18.401 32.9844 18.6289C32.6198 18.8503 32.2259 19.013 31.8027 19.1172C31.3796 19.2214 30.9206 19.2734 30.4258 19.2734C29.0065 19.2734 27.8672 18.8177 27.0078 17.9062C26.1484 16.9883 25.7188 15.7708 25.7188 14.2539C25.7188 12.75 26.1354 11.5326 26.9688 10.6016C27.8086 9.68359 28.9219 9.22461 30.3086 9.22461C31.7083 9.22461 32.8151 9.67057 33.6289 10.5625C34.4362 11.4479 34.8398 12.6751 34.8398 14.2441L34.8301 14.7617ZM32.5742 12.9648C32.2682 11.793 31.5293 11.207 30.3574 11.207C30.0905 11.207 29.8398 11.2493 29.6055 11.334C29.3711 11.4121 29.1562 11.5293 28.9609 11.6855C28.7721 11.8353 28.6094 12.0176 28.4727 12.2324C28.3359 12.4473 28.2318 12.6914 28.1602 12.9648H32.5742ZM37.2422 9.48828H39.4395V10.3379C39.8431 9.91471 40.2012 9.625 40.5137 9.46875C40.8327 9.30599 41.2103 9.22461 41.6465 9.22461C42.2259 9.22461 42.8314 9.41341 43.4629 9.79102L42.457 11.8027C42.0404 11.5033 41.6335 11.3535 41.2363 11.3535C40.0384 11.3535 39.4395 12.2585 39.4395 14.0684V19H37.2422V9.48828ZM50.25 11.1094L48.4336 12.0762C48.1471 11.4902 47.7923 11.1973 47.3691 11.1973C47.1673 11.1973 46.9948 11.2656 46.8516 11.4023C46.7083 11.5326 46.6367 11.7018 46.6367 11.9102C46.6367 12.2747 47.0599 12.6361 47.9062 12.9941C49.0716 13.4954 49.8561 13.9577 50.2598 14.3809C50.6634 14.804 50.8652 15.3737 50.8652 16.0898C50.8652 17.0078 50.5267 17.776 49.8496 18.3945C49.1921 18.9805 48.3978 19.2734 47.4668 19.2734C45.8717 19.2734 44.7422 18.4954 44.0781 16.9395L45.9531 16.0703C46.2135 16.526 46.4121 16.8158 46.5488 16.9395C46.8158 17.1868 47.1348 17.3105 47.5059 17.3105C48.248 17.3105 48.6191 16.972 48.6191 16.2949C48.6191 15.9043 48.3327 15.5397 47.7598 15.2012C47.5384 15.0905 47.3171 14.9831 47.0957 14.8789C46.8743 14.7747 46.6497 14.6673 46.4219 14.5566C45.7839 14.2441 45.3346 13.9316 45.0742 13.6191C44.7422 13.222 44.5762 12.7109 44.5762 12.0859C44.5762 11.2591 44.8594 10.5755 45.4258 10.0352C46.0052 9.49479 46.7083 9.22461 47.5352 9.22461C48.7526 9.22461 49.6576 9.85286 50.25 11.1094ZM52.3984 14.1758C52.3984 12.8021 52.89 11.6335 53.873 10.6699C54.8561 9.70638 56.054 9.22461 57.4668 9.22461C58.8861 9.22461 60.0905 9.70964 61.0801 10.6797C62.0566 11.6497 62.5449 12.8411 62.5449 14.2539C62.5449 15.6797 62.0534 16.8743 61.0703 17.8379C60.0807 18.7949 58.8665 19.2734 57.4277 19.2734C56.002 19.2734 54.8073 18.7852 53.8438 17.8086C52.8802 16.8451 52.3984 15.6341 52.3984 14.1758ZM54.6445 14.2148C54.6445 15.1654 54.8984 15.9173 55.4062 16.4707C55.9271 17.0306 56.6139 17.3105 57.4668 17.3105C58.3262 17.3105 59.013 17.0339 59.5273 16.4805C60.0417 15.9271 60.2988 15.1882 60.2988 14.2637C60.2988 13.3392 60.0417 12.6003 59.5273 12.0469C59.0065 11.487 58.3197 11.207 57.4668 11.207C56.627 11.207 55.9466 11.487 55.4258 12.0469C54.9049 12.6068 54.6445 13.3294 54.6445 14.2148ZM64.8789 9.48828H67.0859V10.3672C67.8542 9.60547 68.7201 9.22461 69.6836 9.22461C70.7904 9.22461 71.653 9.57292 72.2715 10.2695C72.8053 10.862 73.0723 11.8288 73.0723 13.1699V19H70.8652V13.6875C70.8652 12.75 70.735 12.1022 70.4746 11.7441C70.2207 11.3796 69.7585 11.1973 69.0879 11.1973C68.3587 11.1973 67.8411 11.4382 67.5352 11.9199C67.2357 12.3952 67.0859 13.2253 67.0859 14.4102V19H64.8789V9.48828ZM76.1973 17.9062C76.1973 17.5417 76.3307 17.2259 76.5977 16.959C76.8646 16.6921 77.1836 16.5586 77.5547 16.5586C77.9258 16.5586 78.2448 16.6921 78.5117 16.959C78.7786 17.2259 78.9121 17.5449 78.9121 17.916C78.9121 18.2936 78.7786 18.6159 78.5117 18.8828C78.2513 19.1432 77.9323 19.2734 77.5547 19.2734C77.1706 19.2734 76.8483 19.1432 76.5879 18.8828C76.3275 18.6224 76.1973 18.2969 76.1973 17.9062ZM76.1973 10.5625C76.1973 10.2044 76.3307 9.89193 76.5977 9.625C76.8646 9.35807 77.1836 9.22461 77.5547 9.22461C77.9258 9.22461 78.2448 9.35807 78.5117 9.625C78.7786 9.89193 78.9121 10.2109 78.9121 10.582C78.9121 10.9596 78.7786 11.2819 78.5117 11.5488C78.2513 11.8092 77.9323 11.9395 77.5547 11.9395C77.1771 11.9395 76.8548 11.806 76.5879 11.5391C76.3275 11.2786 76.1973 10.9531 76.1973 10.5625ZM93.209 3.92188V13.6777C93.209 14.8431 93.1276 15.7122 92.9648 16.2852C92.8021 16.9362 92.5254 17.4863 92.1348 17.9355C91.373 18.8275 90.3639 19.2734 89.1074 19.2734C88.1569 19.2734 87.2682 19.026 86.4414 18.5312L87.5547 16.5879C88.1081 16.959 88.6257 17.1445 89.1074 17.1445C89.7845 17.1445 90.2533 16.8874 90.5137 16.373C90.7871 15.8587 90.9238 14.9603 90.9238 13.6777V3.92188H93.209ZM95.9531 14.1758C95.9531 12.8021 96.4447 11.6335 97.4277 10.6699C98.4108 9.70638 99.6087 9.22461 101.021 9.22461C102.441 9.22461 103.645 9.70964 104.635 10.6797C105.611 11.6497 106.1 12.8411 106.1 14.2539C106.1 15.6797 105.608 16.8743 104.625 17.8379C103.635 18.7949 102.421 19.2734 100.982 19.2734C99.5566 19.2734 98.362 18.7852 97.3984 17.8086C96.4349 16.8451 95.9531 15.6341 95.9531 14.1758ZM98.1992 14.2148C98.1992 15.1654 98.4531 15.9173 98.9609 16.4707C99.4818 17.0306 100.169 17.3105 101.021 17.3105C101.881 17.3105 102.568 17.0339 103.082 16.4805C103.596 15.9271 103.854 15.1882 103.854 14.2637C103.854 13.3392 103.596 12.6003 103.082 12.0469C102.561 11.487 101.874 11.207 101.021 11.207C100.182 11.207 99.5013 11.487 98.9805 12.0469C98.4596 12.6068 98.1992 13.3294 98.1992 14.2148ZM108.434 2.50586H110.631V10.2793C111.412 9.57617 112.275 9.22461 113.219 9.22461C114.293 9.22461 115.152 9.57292 115.797 10.2695C116.344 10.875 116.617 11.8418 116.617 13.1699V19H114.42V13.375C114.42 12.6133 114.283 12.0632 114.01 11.7246C113.743 11.3796 113.31 11.207 112.711 11.207C111.943 11.207 111.402 11.4447 111.09 11.9199C110.784 12.4017 110.631 13.2285 110.631 14.4004V19H108.434V2.50586ZM119.41 9.48828H121.617V10.3672C122.385 9.60547 123.251 9.22461 124.215 9.22461C125.322 9.22461 126.184 9.57292 126.803 10.2695C127.337 10.862 127.604 11.8288 127.604 13.1699V19H125.396V13.6875C125.396 12.75 125.266 12.1022 125.006 11.7441C124.752 11.3796 124.29 11.1973 123.619 11.1973C122.89 11.1973 122.372 11.4382 122.066 11.9199C121.767 12.3952 121.617 13.2253 121.617 14.4102V19H119.41V9.48828ZM11.2852 42.3379H4.83008L3.15039 46H0.699219L8.16016 29.9746L15.3574 46H12.8672L11.2852 42.3379ZM10.3574 40.1992L8.12109 35.0723L5.77734 40.1992H10.3574ZM24.1367 36.8984V39.8184C23.6354 39.2064 23.1862 38.7865 22.7891 38.5586C22.3984 38.3242 21.9395 38.207 21.4121 38.207C20.5853 38.207 19.8984 38.4967 19.3516 39.0762C18.8047 39.6556 18.5312 40.3815 18.5312 41.2539C18.5312 42.1458 18.7949 42.8783 19.3223 43.4512C19.8561 44.0241 20.5365 44.3105 21.3633 44.3105C21.8906 44.3105 22.3561 44.1966 22.7598 43.9688C23.1504 43.7474 23.6094 43.3177 24.1367 42.6797V45.5801C23.2448 46.0423 22.3529 46.2734 21.4609 46.2734C19.9896 46.2734 18.7591 45.7982 17.7695 44.8477C16.7799 43.8906 16.2852 42.7025 16.2852 41.2832C16.2852 39.8639 16.7865 38.666 17.7891 37.6895C18.7917 36.7129 20.0221 36.2246 21.4805 36.2246C22.418 36.2246 23.3034 36.4492 24.1367 36.8984ZM33.668 36.8984V39.8184C33.1667 39.2064 32.7174 38.7865 32.3203 38.5586C31.9297 38.3242 31.4707 38.207 30.9434 38.207C30.1165 38.207 29.4297 38.4967 28.8828 39.0762C28.3359 39.6556 28.0625 40.3815 28.0625 41.2539C28.0625 42.1458 28.3262 42.8783 28.8535 43.4512C29.3874 44.0241 30.0677 44.3105 30.8945 44.3105C31.4219 44.3105 31.8874 44.1966 32.291 43.9688C32.6816 43.7474 33.1406 43.3177 33.668 42.6797V45.5801C32.776 46.0423 31.8841 46.2734 30.9922 46.2734C29.5208 46.2734 28.2904 45.7982 27.3008 44.8477C26.3112 43.8906 25.8164 42.7025 25.8164 41.2832C25.8164 39.8639 26.3177 38.666 27.3203 37.6895C28.3229 36.7129 29.5534 36.2246 31.0117 36.2246C31.9492 36.2246 32.8346 36.4492 33.668 36.8984ZM35.3477 41.1758C35.3477 39.8021 35.8392 38.6335 36.8223 37.6699C37.8053 36.7064 39.0033 36.2246 40.416 36.2246C41.8353 36.2246 43.0397 36.7096 44.0293 37.6797C45.0059 38.6497 45.4941 39.8411 45.4941 41.2539C45.4941 42.6797 45.0026 43.8743 44.0195 44.8379C43.0299 45.7949 41.8158 46.2734 40.377 46.2734C38.9512 46.2734 37.7565 45.7852 36.793 44.8086C35.8294 43.8451 35.3477 42.6341 35.3477 41.1758ZM37.5938 41.2148C37.5938 42.1654 37.8477 42.9173 38.3555 43.4707C38.8763 44.0306 39.5632 44.3105 40.416 44.3105C41.2754 44.3105 41.9622 44.0339 42.4766 43.4805C42.9909 42.9271 43.248 42.1882 43.248 41.2637C43.248 40.3392 42.9909 39.6003 42.4766 39.0469C41.9557 38.487 41.2689 38.207 40.416 38.207C39.5762 38.207 38.8958 38.487 38.375 39.0469C37.8542 39.6068 37.5938 40.3294 37.5938 41.2148ZM50.0254 36.4883V41.9473C50.0254 43.5228 50.6471 44.3105 51.8906 44.3105C53.1341 44.3105 53.7559 43.5228 53.7559 41.9473V36.4883H55.9531V41.9961C55.9531 42.7578 55.8587 43.4154 55.6699 43.9688C55.4876 44.4635 55.1719 44.9095 54.7227 45.3066C53.9805 45.9512 53.0365 46.2734 51.8906 46.2734C50.7513 46.2734 49.8105 45.9512 49.0684 45.3066C48.6126 44.9095 48.2904 44.4635 48.1016 43.9688C47.9193 43.526 47.8281 42.8685 47.8281 41.9961V36.4883H50.0254ZM58.7266 36.4883H60.9336V37.3672C61.7018 36.6055 62.5677 36.2246 63.5312 36.2246C64.638 36.2246 65.5007 36.5729 66.1191 37.2695C66.653 37.862 66.9199 38.8288 66.9199 40.1699V46H64.7129V40.6875C64.7129 39.75 64.5827 39.1022 64.3223 38.7441C64.0684 38.3796 63.6061 38.1973 62.9355 38.1973C62.2064 38.1973 61.6888 38.4382 61.3828 38.9199C61.0833 39.3952 60.9336 40.2253 60.9336 41.4102V46H58.7266V36.4883ZM71.9688 38.5391V46H69.7715V38.5391H68.834V36.4883H69.7715V33.002H71.9688V36.4883H73.6777V38.5391H71.9688ZM76.1973 44.9062C76.1973 44.5417 76.3307 44.2259 76.5977 43.959C76.8646 43.6921 77.1836 43.5586 77.5547 43.5586C77.9258 43.5586 78.2448 43.6921 78.5117 43.959C78.7786 44.2259 78.9121 44.5449 78.9121 44.916C78.9121 45.2936 78.7786 45.6159 78.5117 45.8828C78.2513 46.1432 77.9323 46.2734 77.5547 46.2734C77.1706 46.2734 76.8483 46.1432 76.5879 45.8828C76.3275 45.6224 76.1973 45.2969 76.1973 44.9062ZM76.1973 37.5625C76.1973 37.2044 76.3307 36.8919 76.5977 36.625C76.8646 36.3581 77.1836 36.2246 77.5547 36.2246C77.9258 36.2246 78.2448 36.3581 78.5117 36.625C78.7786 36.8919 78.9121 37.2109 78.9121 37.582C78.9121 37.9596 78.7786 38.2819 78.5117 38.5488C78.2513 38.8092 77.9323 38.9395 77.5547 38.9395C77.1771 38.9395 76.8548 38.806 76.5879 38.5391C76.3275 38.2786 76.1973 37.9531 76.1973 37.5625ZM93.209 30.9219V40.6777C93.209 41.8431 93.1276 42.7122 92.9648 43.2852C92.8021 43.9362 92.5254 44.4863 92.1348 44.9355C91.373 45.8275 90.3639 46.2734 89.1074 46.2734C88.1569 46.2734 87.2682 46.026 86.4414 45.5312L87.5547 43.5879C88.1081 43.959 88.6257 44.1445 89.1074 44.1445C89.7845 44.1445 90.2533 43.8874 90.5137 43.373C90.7871 42.8587 90.9238 41.9603 90.9238 40.6777V30.9219H93.209ZM95.9531 41.1758C95.9531 39.8021 96.4447 38.6335 97.4277 37.6699C98.4108 36.7064 99.6087 36.2246 101.021 36.2246C102.441 36.2246 103.645 36.7096 104.635 37.6797C105.611 38.6497 106.1 39.8411 106.1 41.2539C106.1 42.6797 105.608 43.8743 104.625 44.8379C103.635 45.7949 102.421 46.2734 100.982 46.2734C99.5566 46.2734 98.362 45.7852 97.3984 44.8086C96.4349 43.8451 95.9531 42.6341 95.9531 41.1758ZM98.1992 41.2148C98.1992 42.1654 98.4531 42.9173 98.9609 43.4707C99.4818 44.0306 100.169 44.3105 101.021 44.3105C101.881 44.3105 102.568 44.0339 103.082 43.4805C103.596 42.9271 103.854 42.1882 103.854 41.2637C103.854 40.3392 103.596 39.6003 103.082 39.0469C102.561 38.487 101.874 38.207 101.021 38.207C100.182 38.207 99.5013 38.487 98.9805 39.0469C98.4596 39.6068 98.1992 40.3294 98.1992 41.2148ZM108.434 29.5059H110.631V37.2793C111.412 36.5762 112.275 36.2246 113.219 36.2246C114.293 36.2246 115.152 36.5729 115.797 37.2695C116.344 37.875 116.617 38.8418 116.617 40.1699V46H114.42V40.375C114.42 39.6133 114.283 39.0632 114.01 38.7246C113.743 38.3796 113.31 38.207 112.711 38.207C111.943 38.207 111.402 38.4447 111.09 38.9199C110.784 39.4017 110.631 40.2285 110.631 41.4004V46H108.434V29.5059ZM119.41 36.4883H121.617V37.3672C122.385 36.6055 123.251 36.2246 124.215 36.2246C125.322 36.2246 126.184 36.5729 126.803 37.2695C127.337 37.862 127.604 38.8288 127.604 40.1699V46H125.396V40.6875C125.396 39.75 125.266 39.1022 125.006 38.7441C124.752 38.3796 124.29 38.1973 123.619 38.1973C122.89 38.1973 122.372 38.4382 122.066 38.9199C121.767 39.3952 121.617 40.2253 121.617 41.4102V46H119.41V36.4883Z" fill="#666666"/>
<path d="M349.082 10.877V17H346.807V1.92188H349.385C350.648 1.92188 351.602 2.00977 352.246 2.18555C352.897 2.36133 353.47 2.69336 353.965 3.18164C354.831 4.02799 355.264 5.0957 355.264 6.38477C355.264 7.76497 354.801 8.85872 353.877 9.66602C352.952 10.4733 351.706 10.877 350.137 10.877H349.082ZM349.082 8.76758H349.932C352.021 8.76758 353.066 7.96354 353.066 6.35547C353.066 4.79948 351.989 4.02148 349.834 4.02148H349.082V8.76758ZM365.342 12.7617H358.525C358.584 13.543 358.838 14.1647 359.287 14.627C359.736 15.0827 360.312 15.3105 361.016 15.3105C361.562 15.3105 362.015 15.1803 362.373 14.9199C362.725 14.6595 363.125 14.1777 363.574 13.4746L365.43 14.5098C365.143 14.998 364.84 15.418 364.521 15.7695C364.202 16.1146 363.861 16.401 363.496 16.6289C363.132 16.8503 362.738 17.013 362.314 17.1172C361.891 17.2214 361.432 17.2734 360.938 17.2734C359.518 17.2734 358.379 16.8177 357.52 15.9062C356.66 14.9883 356.23 13.7708 356.23 12.2539C356.23 10.75 356.647 9.53255 357.48 8.60156C358.32 7.68359 359.434 7.22461 360.82 7.22461C362.22 7.22461 363.327 7.67057 364.141 8.5625C364.948 9.44792 365.352 10.6751 365.352 12.2441L365.342 12.7617ZM363.086 10.9648C362.78 9.79297 362.041 9.20703 360.869 9.20703C360.602 9.20703 360.352 9.24935 360.117 9.33398C359.883 9.41211 359.668 9.5293 359.473 9.68555C359.284 9.83529 359.121 10.0176 358.984 10.2324C358.848 10.4473 358.743 10.6914 358.672 10.9648H363.086ZM367.754 7.48828H369.951V8.33789C370.355 7.91471 370.713 7.625 371.025 7.46875C371.344 7.30599 371.722 7.22461 372.158 7.22461C372.738 7.22461 373.343 7.41341 373.975 7.79102L372.969 9.80273C372.552 9.50326 372.145 9.35352 371.748 9.35352C370.55 9.35352 369.951 10.2585 369.951 12.0684V17H367.754V7.48828ZM380.762 9.10938L378.945 10.0762C378.659 9.49023 378.304 9.19727 377.881 9.19727C377.679 9.19727 377.507 9.26562 377.363 9.40234C377.22 9.53255 377.148 9.70182 377.148 9.91016C377.148 10.2747 377.572 10.6361 378.418 10.9941C379.583 11.4954 380.368 11.9577 380.771 12.3809C381.175 12.804 381.377 13.3737 381.377 14.0898C381.377 15.0078 381.038 15.776 380.361 16.3945C379.704 16.9805 378.91 17.2734 377.979 17.2734C376.383 17.2734 375.254 16.4954 374.59 14.9395L376.465 14.0703C376.725 14.526 376.924 14.8158 377.061 14.9395C377.327 15.1868 377.646 15.3105 378.018 15.3105C378.76 15.3105 379.131 14.972 379.131 14.2949C379.131 13.9043 378.844 13.5397 378.271 13.2012C378.05 13.0905 377.829 12.9831 377.607 12.8789C377.386 12.7747 377.161 12.6673 376.934 12.5566C376.296 12.2441 375.846 11.9316 375.586 11.6191C375.254 11.222 375.088 10.7109 375.088 10.0859C375.088 9.25911 375.371 8.57552 375.938 8.03516C376.517 7.49479 377.22 7.22461 378.047 7.22461C379.264 7.22461 380.169 7.85286 380.762 9.10938ZM382.91 12.1758C382.91 10.8021 383.402 9.63346 384.385 8.66992C385.368 7.70638 386.566 7.22461 387.979 7.22461C389.398 7.22461 390.602 7.70964 391.592 8.67969C392.568 9.64974 393.057 10.8411 393.057 12.2539C393.057 13.6797 392.565 14.8743 391.582 15.8379C390.592 16.7949 389.378 17.2734 387.939 17.2734C386.514 17.2734 385.319 16.7852 384.355 15.8086C383.392 14.8451 382.91 13.6341 382.91 12.1758ZM385.156 12.2148C385.156 13.1654 385.41 13.9173 385.918 14.4707C386.439 15.0306 387.126 15.3105 387.979 15.3105C388.838 15.3105 389.525 15.0339 390.039 14.4805C390.553 13.9271 390.811 13.1882 390.811 12.2637C390.811 11.3392 390.553 10.6003 390.039 10.0469C389.518 9.48698 388.831 9.20703 387.979 9.20703C387.139 9.20703 386.458 9.48698 385.938 10.0469C385.417 10.6068 385.156 11.3294 385.156 12.2148ZM395.391 7.48828H397.598V8.36719C398.366 7.60547 399.232 7.22461 400.195 7.22461C401.302 7.22461 402.165 7.57292 402.783 8.26953C403.317 8.86198 403.584 9.82878 403.584 11.1699V17H401.377V11.6875C401.377 10.75 401.247 10.1022 400.986 9.74414C400.732 9.37956 400.27 9.19727 399.6 9.19727C398.87 9.19727 398.353 9.43815 398.047 9.91992C397.747 10.3952 397.598 11.2253 397.598 12.4102V17H395.391V7.48828ZM406.709 15.9062C406.709 15.5417 406.842 15.2259 407.109 14.959C407.376 14.6921 407.695 14.5586 408.066 14.5586C408.438 14.5586 408.757 14.6921 409.023 14.959C409.29 15.2259 409.424 15.5449 409.424 15.916C409.424 16.2936 409.29 16.6159 409.023 16.8828C408.763 17.1432 408.444 17.2734 408.066 17.2734C407.682 17.2734 407.36 17.1432 407.1 16.8828C406.839 16.6224 406.709 16.2969 406.709 15.9062ZM406.709 8.5625C406.709 8.20443 406.842 7.89193 407.109 7.625C407.376 7.35807 407.695 7.22461 408.066 7.22461C408.438 7.22461 408.757 7.35807 409.023 7.625C409.29 7.89193 409.424 8.21094 409.424 8.58203C409.424 8.95964 409.29 9.2819 409.023 9.54883C408.763 9.80924 408.444 9.93945 408.066 9.93945C407.689 9.93945 407.367 9.80599 407.1 9.53906C406.839 9.27865 406.709 8.95312 406.709 8.5625ZM418.604 17L421.777 0.789062L426.953 12.5078L432.314 0.789062L435.166 17H432.832L431.377 7.89844L426.914 17.6934L422.578 7.88867L420.957 17H418.604ZM446.611 12.7617H439.795C439.854 13.543 440.107 14.1647 440.557 14.627C441.006 15.0827 441.582 15.3105 442.285 15.3105C442.832 15.3105 443.285 15.1803 443.643 14.9199C443.994 14.6595 444.395 14.1777 444.844 13.4746L446.699 14.5098C446.413 14.998 446.11 15.418 445.791 15.7695C445.472 16.1146 445.13 16.401 444.766 16.6289C444.401 16.8503 444.007 17.013 443.584 17.1172C443.161 17.2214 442.702 17.2734 442.207 17.2734C440.788 17.2734 439.648 16.8177 438.789 15.9062C437.93 14.9883 437.5 13.7708 437.5 12.2539C437.5 10.75 437.917 9.53255 438.75 8.60156C439.59 7.68359 440.703 7.22461 442.09 7.22461C443.49 7.22461 444.596 7.67057 445.41 8.5625C446.217 9.44792 446.621 10.6751 446.621 12.2441L446.611 12.7617ZM444.355 10.9648C444.049 9.79297 443.311 9.20703 442.139 9.20703C441.872 9.20703 441.621 9.24935 441.387 9.33398C441.152 9.41211 440.938 9.5293 440.742 9.68555C440.553 9.83529 440.391 10.0176 440.254 10.2324C440.117 10.4473 440.013 10.6914 439.941 10.9648H444.355ZM449.023 7.48828H451.221V8.33789C451.624 7.91471 451.982 7.625 452.295 7.46875C452.614 7.30599 452.992 7.22461 453.428 7.22461C454.007 7.22461 454.613 7.41341 455.244 7.79102L454.238 9.80273C453.822 9.50326 453.415 9.35352 453.018 9.35352C451.82 9.35352 451.221 10.2585 451.221 12.0684V17H449.023V7.48828ZM460.381 15.2324L456.104 7.48828H458.652L461.562 12.957L464.277 7.48828H466.758L459.18 22.1758H456.67L460.381 15.2324ZM355.664 40.3379H349.209L347.529 44H345.078L352.539 27.9746L359.736 44H357.246L355.664 40.3379ZM354.736 38.1992L352.5 33.0723L350.156 38.1992H354.736ZM368.516 34.8984V37.8184C368.014 37.2064 367.565 36.7865 367.168 36.5586C366.777 36.3242 366.318 36.207 365.791 36.207C364.964 36.207 364.277 36.4967 363.73 37.0762C363.184 37.6556 362.91 38.3815 362.91 39.2539C362.91 40.1458 363.174 40.8783 363.701 41.4512C364.235 42.0241 364.915 42.3105 365.742 42.3105C366.27 42.3105 366.735 42.1966 367.139 41.9688C367.529 41.7474 367.988 41.3177 368.516 40.6797V43.5801C367.624 44.0423 366.732 44.2734 365.84 44.2734C364.368 44.2734 363.138 43.7982 362.148 42.8477C361.159 41.8906 360.664 40.7025 360.664 39.2832C360.664 37.8639 361.165 36.666 362.168 35.6895C363.171 34.7129 364.401 34.2246 365.859 34.2246C366.797 34.2246 367.682 34.4492 368.516 34.8984ZM378.047 34.8984V37.8184C377.546 37.2064 377.096 36.7865 376.699 36.5586C376.309 36.3242 375.85 36.207 375.322 36.207C374.495 36.207 373.809 36.4967 373.262 37.0762C372.715 37.6556 372.441 38.3815 372.441 39.2539C372.441 40.1458 372.705 40.8783 373.232 41.4512C373.766 42.0241 374.447 42.3105 375.273 42.3105C375.801 42.3105 376.266 42.1966 376.67 41.9688C377.061 41.7474 377.52 41.3177 378.047 40.6797V43.5801C377.155 44.0423 376.263 44.2734 375.371 44.2734C373.9 44.2734 372.669 43.7982 371.68 42.8477C370.69 41.8906 370.195 40.7025 370.195 39.2832C370.195 37.8639 370.697 36.666 371.699 35.6895C372.702 34.7129 373.932 34.2246 375.391 34.2246C376.328 34.2246 377.214 34.4492 378.047 34.8984ZM379.727 39.1758C379.727 37.8021 380.218 36.6335 381.201 35.6699C382.184 34.7064 383.382 34.2246 384.795 34.2246C386.214 34.2246 387.419 34.7096 388.408 35.6797C389.385 36.6497 389.873 37.8411 389.873 39.2539C389.873 40.6797 389.382 41.8743 388.398 42.8379C387.409 43.7949 386.195 44.2734 384.756 44.2734C383.33 44.2734 382.135 43.7852 381.172 42.8086C380.208 41.8451 379.727 40.6341 379.727 39.1758ZM381.973 39.2148C381.973 40.1654 382.227 40.9173 382.734 41.4707C383.255 42.0306 383.942 42.3105 384.795 42.3105C385.654 42.3105 386.341 42.0339 386.855 41.4805C387.37 40.9271 387.627 40.1882 387.627 39.2637C387.627 38.3392 387.37 37.6003 386.855 37.0469C386.335 36.487 385.648 36.207 384.795 36.207C383.955 36.207 383.275 36.487 382.754 37.0469C382.233 37.6068 381.973 38.3294 381.973 39.2148ZM394.404 34.4883V39.9473C394.404 41.5228 395.026 42.3105 396.27 42.3105C397.513 42.3105 398.135 41.5228 398.135 39.9473V34.4883H400.332V39.9961C400.332 40.7578 400.238 41.4154 400.049 41.9688C399.867 42.4635 399.551 42.9095 399.102 43.3066C398.359 43.9512 397.415 44.2734 396.27 44.2734C395.13 44.2734 394.189 43.9512 393.447 43.3066C392.992 42.9095 392.669 42.4635 392.48 41.9688C392.298 41.526 392.207 40.8685 392.207 39.9961V34.4883H394.404ZM403.105 34.4883H405.312V35.3672C406.081 34.6055 406.947 34.2246 407.91 34.2246C409.017 34.2246 409.88 34.5729 410.498 35.2695C411.032 35.862 411.299 36.8288 411.299 38.1699V44H409.092V38.6875C409.092 37.75 408.962 37.1022 408.701 36.7441C408.447 36.3796 407.985 36.1973 407.314 36.1973C406.585 36.1973 406.068 36.4382 405.762 36.9199C405.462 37.3952 405.312 38.2253 405.312 39.4102V44H403.105V34.4883ZM416.348 36.5391V44H414.15V36.5391H413.213V34.4883H414.15V31.002H416.348V34.4883H418.057V36.5391H416.348ZM420.576 42.9062C420.576 42.5417 420.71 42.2259 420.977 41.959C421.243 41.6921 421.562 41.5586 421.934 41.5586C422.305 41.5586 422.624 41.6921 422.891 41.959C423.158 42.2259 423.291 42.5449 423.291 42.916C423.291 43.2936 423.158 43.6159 422.891 43.8828C422.63 44.1432 422.311 44.2734 421.934 44.2734C421.549 44.2734 421.227 44.1432 420.967 43.8828C420.706 43.6224 420.576 43.2969 420.576 42.9062ZM420.576 35.5625C420.576 35.2044 420.71 34.8919 420.977 34.625C421.243 34.3581 421.562 34.2246 421.934 34.2246C422.305 34.2246 422.624 34.3581 422.891 34.625C423.158 34.8919 423.291 35.2109 423.291 35.582C423.291 35.9596 423.158 36.2819 422.891 36.5488C422.63 36.8092 422.311 36.9395 421.934 36.9395C421.556 36.9395 421.234 36.806 420.967 36.5391C420.706 36.2786 420.576 35.9531 420.576 35.5625ZM432.471 44L435.645 27.7891L440.82 39.5078L446.182 27.7891L449.033 44H446.699L445.244 34.8984L440.781 44.6934L436.445 34.8887L434.824 44H432.471ZM460.479 39.7617H453.662C453.721 40.543 453.975 41.1647 454.424 41.627C454.873 42.0827 455.449 42.3105 456.152 42.3105C456.699 42.3105 457.152 42.1803 457.51 41.9199C457.861 41.6595 458.262 41.1777 458.711 40.4746L460.566 41.5098C460.28 41.998 459.977 42.418 459.658 42.7695C459.339 43.1146 458.997 43.401 458.633 43.6289C458.268 43.8503 457.874 44.013 457.451 44.1172C457.028 44.2214 456.569 44.2734 456.074 44.2734C454.655 44.2734 453.516 43.8177 452.656 42.9062C451.797 41.9883 451.367 40.7708 451.367 39.2539C451.367 37.75 451.784 36.5326 452.617 35.6016C453.457 34.6836 454.57 34.2246 455.957 34.2246C457.357 34.2246 458.464 34.6706 459.277 35.5625C460.085 36.4479 460.488 37.6751 460.488 39.2441L460.479 39.7617ZM458.223 37.9648C457.917 36.793 457.178 36.207 456.006 36.207C455.739 36.207 455.488 36.2493 455.254 36.334C455.02 36.4121 454.805 36.5293 454.609 36.6855C454.421 36.8353 454.258 37.0176 454.121 37.2324C453.984 37.4473 453.88 37.6914 453.809 37.9648H458.223ZM462.891 34.4883H465.088V35.3379C465.492 34.9147 465.85 34.625 466.162 34.4688C466.481 34.306 466.859 34.2246 467.295 34.2246C467.874 34.2246 468.48 34.4134 469.111 34.791L468.105 36.8027C467.689 36.5033 467.282 36.3535 466.885 36.3535C465.687 36.3535 465.088 37.2585 465.088 39.0684V44H462.891V34.4883ZM474.248 42.2324L469.971 34.4883H472.52L475.43 39.957L478.145 34.4883H480.625L473.047 49.1758H470.537L474.248 42.2324Z" fill="#666666"/>
<path d="M178 99L180.887 94H175.113L178 99ZM101.7 55.1451L102.025 63.7106L103.025 63.6726L102.7 55.1071L101.7 55.1451ZM115.516 76.6984H165V75.6984H115.516V76.6984ZM177.5 89.1984V94.5H178.5V89.1984H177.5ZM165 76.6984C171.904 76.6984 177.5 82.2948 177.5 89.1984H178.5C178.5 81.7426 172.456 75.6984 165 75.6984V76.6984ZM102.025 63.7106C102.301 70.9619 108.259 76.6984 115.516 76.6984V75.6984C108.797 75.6984 103.28 70.3868 103.025 63.6726L102.025 63.7106Z" fill="#979797"/>
<path d="M294.2 99L291.313 94H297.087L294.2 99ZM370.5 55.1451L370.174 63.7106L369.175 63.6726L369.5 55.1071L370.5 55.1451ZM356.684 76.6984H307.2V75.6984H356.684V76.6984ZM294.7 89.1984V94.5H293.7V89.1984H294.7ZM307.2 76.6984C300.296 76.6984 294.7 82.2948 294.7 89.1984H293.7C293.7 81.7426 299.744 75.6984 307.2 75.6984V76.6984ZM370.174 63.7106C369.899 70.9619 363.941 76.6984 356.684 76.6984V75.6984C363.403 75.6984 368.92 70.3868 369.175 63.6726L370.174 63.7106Z" fill="#979797"/>
<path d="M122 531L119.254 525.921L125.025 526.083L122 531ZM178.5 480.011L178.283 489.835L177.283 489.813L177.5 479.989L178.5 480.011ZM164.786 503.037H135.437V502.037H164.786V503.037ZM122.942 515.188L122.626 526.516L121.626 526.488L121.943 515.16L122.942 515.188ZM135.437 503.037C128.67 503.037 123.131 508.423 122.942 515.188L121.943 515.16C122.147 507.854 128.128 502.037 135.437 502.037V503.037ZM178.283 489.835C178.121 497.173 172.126 503.037 164.786 503.037V502.037C171.582 502.037 177.133 496.607 177.283 489.813L178.283 489.835Z" fill="#979797"/>
<path d="M351 531L353.744 525.92L347.973 526.084L351 531ZM294.6 479.996L294.516 489.417L295.516 489.426L295.6 480.004L294.6 479.996ZM308.016 503.037H337.558V502.037H308.016V503.037ZM350.053 515.184L350.373 526.516L351.373 526.488L351.052 515.156L350.053 515.184ZM337.558 503.037C344.324 503.037 349.862 508.421 350.053 515.184L351.052 515.156C350.846 507.851 344.865 502.037 337.558 502.037V503.037ZM294.516 489.417C294.449 496.919 300.513 503.037 308.016 503.037V502.037C301.069 502.037 295.454 496.372 295.516 489.426L294.516 489.417Z" fill="#979797"/>
<path d="M294.5 276L297.387 271H291.613L294.5 276ZM294 248V271.5H295V248H294Z" fill="#979797"/>
<path d="M178.5 276L181.387 271H175.613L178.5 276ZM178 248V271.5H179V248H178Z" fill="#979797"/>
<g filter="url(#filter3_d_0_1)">
<rect x="143" y="109" width="189" height="128" rx="10" fill="white"/>
<g clip-path="url(#clip2_0_1)" filter="url(#filter4_d_0_1)">
<rect x="167.2" y="182.4" width="141" height="34" rx="6.44" fill="#F0F0F0"/>
<path d="M184.12 203.28L187.172 193.797H189.379L185.219 205.4H183.729L184.12 203.28ZM181.299 193.797L184.327 203.28L184.741 205.4H183.243L179.099 193.797H181.299ZM193.937 205.559C193.3 205.559 192.723 205.456 192.208 205.249C191.698 205.036 191.262 204.741 190.901 204.364C190.545 203.987 190.272 203.543 190.08 203.033C189.889 202.523 189.793 201.973 189.793 201.384V201.065C189.793 200.39 189.892 199.779 190.088 199.232C190.285 198.685 190.558 198.217 190.909 197.83C191.26 197.437 191.674 197.136 192.152 196.929C192.63 196.722 193.148 196.618 193.706 196.618C194.322 196.618 194.862 196.722 195.324 196.929C195.786 197.136 196.168 197.429 196.471 197.806C196.779 198.178 197.008 198.621 197.157 199.137C197.311 199.652 197.388 200.22 197.388 200.842V201.663H190.726V200.284H195.491V200.133C195.48 199.787 195.411 199.463 195.284 199.16C195.162 198.858 194.973 198.613 194.718 198.427C194.463 198.241 194.123 198.148 193.698 198.148C193.379 198.148 193.095 198.217 192.845 198.356C192.601 198.488 192.397 198.682 192.232 198.937C192.067 199.192 191.94 199.5 191.849 199.862C191.764 200.218 191.722 200.619 191.722 201.065V201.384C191.722 201.761 191.772 202.112 191.873 202.436C191.979 202.754 192.134 203.033 192.335 203.272C192.537 203.511 192.782 203.7 193.069 203.838C193.355 203.971 193.682 204.037 194.049 204.037C194.511 204.037 194.923 203.944 195.284 203.758C195.645 203.572 195.959 203.31 196.224 202.97L197.236 203.95C197.05 204.221 196.809 204.481 196.511 204.731C196.214 204.975 195.85 205.174 195.419 205.328C194.994 205.482 194.5 205.559 193.937 205.559ZM200.814 198.419V205.4H198.894V196.778H200.727L200.814 198.419ZM203.452 196.722L203.436 198.507C203.319 198.486 203.192 198.47 203.053 198.459C202.921 198.449 202.788 198.443 202.655 198.443C202.326 198.443 202.036 198.491 201.786 198.587C201.537 198.677 201.327 198.81 201.157 198.985C200.992 199.155 200.865 199.362 200.774 199.607C200.684 199.851 200.631 200.125 200.615 200.427L200.177 200.459C200.177 199.917 200.23 199.415 200.336 198.953C200.442 198.491 200.602 198.085 200.814 197.734C201.032 197.383 201.303 197.11 201.627 196.913C201.956 196.717 202.336 196.618 202.767 196.618C202.883 196.618 203.008 196.629 203.141 196.65C203.279 196.672 203.383 196.695 203.452 196.722ZM206.711 196.778V205.4H204.783V196.778H206.711ZM204.655 194.515C204.655 194.222 204.751 193.981 204.942 193.79C205.139 193.593 205.409 193.495 205.755 193.495C206.095 193.495 206.363 193.593 206.56 193.79C206.756 193.981 206.854 194.222 206.854 194.515C206.854 194.802 206.756 195.041 206.56 195.232C206.363 195.423 206.095 195.519 205.755 195.519C205.409 195.519 205.139 195.423 204.942 195.232C204.751 195.041 204.655 194.802 204.655 194.515ZM211.413 205.4H209.492V195.949C209.492 195.306 209.612 194.767 209.851 194.331C210.095 193.89 210.443 193.558 210.895 193.335C211.346 193.107 211.88 192.993 212.496 192.993C212.688 192.993 212.876 193.006 213.062 193.032C213.248 193.054 213.429 193.088 213.604 193.136L213.556 194.618C213.45 194.592 213.333 194.573 213.206 194.562C213.083 194.552 212.951 194.547 212.807 194.547C212.515 194.547 212.263 194.602 212.05 194.714C211.843 194.82 211.684 194.977 211.572 195.184C211.466 195.391 211.413 195.646 211.413 195.949V205.4ZM213.19 196.778V198.18H208.169V196.778H213.19ZM217.086 204.46L219.429 196.778H221.485L218.027 206.715C217.947 206.927 217.843 207.158 217.716 207.408C217.588 207.658 217.421 207.894 217.214 208.117C217.012 208.346 216.76 208.529 216.457 208.667C216.154 208.811 215.787 208.882 215.357 208.882C215.187 208.882 215.022 208.866 214.863 208.835C214.709 208.808 214.563 208.779 214.425 208.747L214.417 207.281C214.47 207.286 214.534 207.291 214.608 207.297C214.688 207.302 214.752 207.305 214.799 207.305C215.118 207.305 215.384 207.265 215.596 207.185C215.809 207.111 215.981 206.988 216.114 206.818C216.252 206.648 216.369 206.42 216.465 206.133L217.086 204.46ZM215.764 196.778L217.812 203.232L218.154 205.257L216.823 205.599L213.692 196.778H215.764ZM228.992 203.487L230.984 196.778H232.211L231.876 198.786L229.868 205.4H228.769L228.992 203.487ZM227.82 196.778L229.374 203.519L229.502 205.4H228.274L225.94 196.778H227.82ZM234.076 203.44L235.582 196.778H237.454L235.128 205.4H233.9L234.076 203.44ZM232.418 196.778L234.387 203.408L234.634 205.4H233.534L231.502 198.778L231.167 196.778H232.418ZM240.817 196.778V205.4H238.889V196.778H240.817ZM238.761 194.515C238.761 194.222 238.857 193.981 239.048 193.79C239.245 193.593 239.516 193.495 239.861 193.495C240.201 193.495 240.469 193.593 240.666 193.79C240.862 193.981 240.961 194.222 240.961 194.515C240.961 194.802 240.862 195.041 240.666 195.232C240.469 195.423 240.201 195.519 239.861 195.519C239.516 195.519 239.245 195.423 239.048 195.232C238.857 195.041 238.761 194.802 238.761 194.515ZM246.874 196.778V198.18H242.013V196.778H246.874ZM243.415 194.666H245.336V203.017C245.336 203.283 245.373 203.487 245.447 203.631C245.527 203.769 245.636 203.862 245.774 203.91C245.912 203.958 246.074 203.982 246.26 203.982C246.393 203.982 246.52 203.974 246.642 203.958C246.765 203.942 246.863 203.926 246.937 203.91L246.945 205.376C246.786 205.424 246.6 205.466 246.387 205.504C246.18 205.541 245.941 205.559 245.67 205.559C245.229 205.559 244.839 205.482 244.499 205.328C244.159 205.169 243.893 204.911 243.702 204.555C243.511 204.199 243.415 203.727 243.415 203.137V194.666ZM250.252 193.16V205.4H248.34V193.16H250.252ZM249.918 200.77L249.296 200.762C249.301 200.167 249.384 199.617 249.543 199.113C249.708 198.608 249.936 198.17 250.228 197.798C250.526 197.421 250.882 197.131 251.296 196.929C251.711 196.722 252.17 196.618 252.675 196.618C253.1 196.618 253.482 196.677 253.822 196.794C254.168 196.911 254.465 197.099 254.715 197.36C254.964 197.615 255.153 197.949 255.281 198.364C255.413 198.773 255.48 199.272 255.48 199.862V205.4H253.551V199.846C253.551 199.431 253.49 199.102 253.368 198.858C253.251 198.613 253.079 198.438 252.85 198.332C252.622 198.22 252.343 198.164 252.013 198.164C251.668 198.164 251.363 198.233 251.097 198.372C250.837 198.51 250.619 198.698 250.444 198.937C250.268 199.176 250.135 199.453 250.045 199.766C249.96 200.08 249.918 200.414 249.918 200.77Z" fill="#464646"/>
<path fill-rule="evenodd" clip-rule="evenodd" d="M278.406 195.83H275.74C275.644 195.83 275.567 195.908 275.567 196.005V197.399C275.567 197.473 275.609 197.54 275.674 197.572L278.309 198.841C278.434 198.902 278.58 198.809 278.58 198.669V196.005C278.58 195.908 278.502 195.83 278.406 195.83V195.83Z" fill="black"/>
<path fill-rule="evenodd" clip-rule="evenodd" d="M294.088 196.004C294.087 195.908 294.01 195.83 293.914 195.83H285.026C284.93 195.83 284.853 195.908 284.853 196.005V198.507C284.853 198.603 284.93 198.681 285.026 198.681H287.963V207.398C287.963 207.494 288.041 207.572 288.136 207.572H290.803C290.899 207.572 290.976 207.494 290.976 207.398V198.744L293.916 198.749C294.016 198.749 294.097 198.667 294.096 198.567L294.087 196.004L294.088 196.004Z" fill="black"/>
<path fill-rule="evenodd" clip-rule="evenodd" d="M286.58 204.986H283.314V196.005C283.314 195.908 283.236 195.83 283.141 195.83H280.457C280.361 195.83 280.284 195.908 280.284 196.005V207.398C280.284 207.494 280.361 207.572 280.457 207.572H286.744C286.747 207.57 286.75 207.567 286.753 207.564V205.161C286.753 205.064 286.675 204.986 286.58 204.986H286.58Z" fill="black"/>
<path fill-rule="evenodd" clip-rule="evenodd" d="M278.472 201.883L275.837 200.613C275.712 200.553 275.567 200.645 275.567 200.786V207.398C275.567 207.494 275.644 207.572 275.74 207.572H278.406C278.502 207.572 278.58 207.494 278.58 207.398V202.055C278.58 201.981 278.538 201.914 278.472 201.883V201.883Z" fill="black"/>
<path fill-rule="evenodd" clip-rule="evenodd" d="M271.182 200.567C270.315 200.227 269.688 199.982 269.688 199.442C269.688 198.902 270.152 198.539 270.843 198.539L270.866 198.54C271.42 198.587 272.045 198.825 273.001 199.271C273.089 199.312 273.194 199.272 273.233 199.182L274.157 197.034C274.194 196.95 274.159 196.851 274.078 196.809C272.754 196.126 271.719 195.83 270.67 195.83C268.18 195.83 266.572 197.248 266.572 199.442C266.572 201.749 268.537 202.474 269.972 203.003C270.85 203.326 271.484 203.56 271.484 204.104C271.484 204.421 271.378 204.688 271.177 204.876C270.948 205.09 270.616 205.187 270.217 205.156C269.419 205.094 268.764 204.918 267.893 204.521C267.804 204.481 267.7 204.523 267.662 204.614L266.843 206.602C266.808 206.687 266.844 206.785 266.925 206.826C267.985 207.351 269.014 207.569 270.406 207.569C273.019 207.569 274.579 206.323 274.579 204.236C274.579 201.898 272.615 201.129 271.182 200.567V200.567Z" fill="black"/>
<path fill-rule="evenodd" clip-rule="evenodd" d="M297.846 193.713C296.463 192.18 294.584 191.23 292.554 191.038L270.216 191C265.686 191 262 194.732 262 199.32C262 202.331 263.588 204.974 265.961 206.434C266.028 206.476 266.116 206.446 266.147 206.372L267.051 204.205C267.075 204.148 267.056 204.081 267.005 204.046C267.005 204.046 267.004 204.045 267.004 204.045C265.467 202.971 264.55 201.204 264.55 199.32C264.55 196.156 267.092 193.582 270.216 193.582H291.857C294.882 193.582 297.408 196.016 297.45 199.08C297.471 200.623 296.889 202.103 295.817 203.238C294.819 204.294 293.522 204.914 292.139 205.004C292.043 205.01 291.967 205.089 291.967 205.187V207.408C291.967 207.512 292.053 207.597 292.156 207.591C294.185 207.483 296.094 206.605 297.568 205.093C299.136 203.484 300 201.378 300 199.161C300 197.085 299.235 195.252 297.846 193.713Z" fill="#0088FF"/>
</g>
<path d="M172.098 139.486L167.176 130.922H169.793L173.24 136.947L176.697 130.922H179.314L174.373 139.486V146H172.098V139.486ZM178.826 141.176C178.826 139.802 179.318 138.633 180.301 137.67C181.284 136.706 182.482 136.225 183.895 136.225C185.314 136.225 186.518 136.71 187.508 137.68C188.484 138.65 188.973 139.841 188.973 141.254C188.973 142.68 188.481 143.874 187.498 144.838C186.508 145.795 185.294 146.273 183.855 146.273C182.43 146.273 181.235 145.785 180.271 144.809C179.308 143.845 178.826 142.634 178.826 141.176ZM181.072 141.215C181.072 142.165 181.326 142.917 181.834 143.471C182.355 144.031 183.042 144.311 183.895 144.311C184.754 144.311 185.441 144.034 185.955 143.48C186.469 142.927 186.727 142.188 186.727 141.264C186.727 140.339 186.469 139.6 185.955 139.047C185.434 138.487 184.747 138.207 183.895 138.207C183.055 138.207 182.374 138.487 181.854 139.047C181.333 139.607 181.072 140.329 181.072 141.215ZM193.504 136.488V141.947C193.504 143.523 194.126 144.311 195.369 144.311C196.613 144.311 197.234 143.523 197.234 141.947V136.488H199.432V141.996C199.432 142.758 199.337 143.415 199.148 143.969C198.966 144.464 198.65 144.91 198.201 145.307C197.459 145.951 196.515 146.273 195.369 146.273C194.23 146.273 193.289 145.951 192.547 145.307C192.091 144.91 191.769 144.464 191.58 143.969C191.398 143.526 191.307 142.868 191.307 141.996V136.488H193.504ZM202.205 136.488H204.402V137.338C204.806 136.915 205.164 136.625 205.477 136.469C205.796 136.306 206.173 136.225 206.609 136.225C207.189 136.225 207.794 136.413 208.426 136.791L207.42 138.803C207.003 138.503 206.596 138.354 206.199 138.354C205.001 138.354 204.402 139.258 204.402 141.068V146H202.205V136.488ZM225.135 142.338H218.68L217 146H214.549L222.01 129.975L229.207 146H226.717L225.135 142.338ZM224.207 140.199L221.971 135.072L219.627 140.199H224.207ZM232.879 151.176H230.682V136.488H232.879V137.523C233.745 136.658 234.728 136.225 235.828 136.225C237.137 136.225 238.214 136.706 239.061 137.67C239.92 138.627 240.35 139.835 240.35 141.293C240.35 142.719 239.923 143.907 239.07 144.857C238.224 145.801 237.156 146.273 235.867 146.273C234.754 146.273 233.758 145.827 232.879 144.936V151.176ZM238.104 141.303C238.104 140.391 237.856 139.649 237.361 139.076C236.86 138.497 236.229 138.207 235.467 138.207C234.66 138.207 234.005 138.487 233.504 139.047C233.003 139.607 232.752 140.342 232.752 141.254C232.752 142.146 233.003 142.882 233.504 143.461C233.999 144.027 234.65 144.311 235.457 144.311C236.219 144.311 236.847 144.024 237.342 143.451C237.85 142.878 238.104 142.162 238.104 141.303ZM244.871 151.176H242.674V136.488H244.871V137.523C245.737 136.658 246.72 136.225 247.82 136.225C249.129 136.225 250.206 136.706 251.053 137.67C251.912 138.627 252.342 139.835 252.342 141.293C252.342 142.719 251.915 143.907 251.062 144.857C250.216 145.801 249.148 146.273 247.859 146.273C246.746 146.273 245.75 145.827 244.871 144.936V151.176ZM250.096 141.303C250.096 140.391 249.848 139.649 249.354 139.076C248.852 138.497 248.221 138.207 247.459 138.207C246.652 138.207 245.997 138.487 245.496 139.047C244.995 139.607 244.744 140.342 244.744 141.254C244.744 142.146 244.995 142.882 245.496 143.461C245.991 144.027 246.642 144.311 247.449 144.311C248.211 144.311 248.839 144.024 249.334 143.451C249.842 142.878 250.096 142.162 250.096 141.303ZM261.756 129.34L263.572 130.141L254.939 150.121L253.143 149.311L261.756 129.34ZM266.199 130.922L270.125 141L274.227 130.189L278.152 141L282.322 130.922H284.793L278.055 146.957L274.178 136.273L270.135 146.967L263.729 130.922H266.199ZM293.738 141.762H286.922C286.98 142.543 287.234 143.165 287.684 143.627C288.133 144.083 288.709 144.311 289.412 144.311C289.959 144.311 290.411 144.18 290.77 143.92C291.121 143.66 291.521 143.178 291.971 142.475L293.826 143.51C293.54 143.998 293.237 144.418 292.918 144.77C292.599 145.115 292.257 145.401 291.893 145.629C291.528 145.85 291.134 146.013 290.711 146.117C290.288 146.221 289.829 146.273 289.334 146.273C287.915 146.273 286.775 145.818 285.916 144.906C285.057 143.988 284.627 142.771 284.627 141.254C284.627 139.75 285.044 138.533 285.877 137.602C286.717 136.684 287.83 136.225 289.217 136.225C290.617 136.225 291.723 136.671 292.537 137.562C293.344 138.448 293.748 139.675 293.748 141.244L293.738 141.762ZM291.482 139.965C291.176 138.793 290.438 138.207 289.266 138.207C288.999 138.207 288.748 138.249 288.514 138.334C288.279 138.412 288.064 138.529 287.869 138.686C287.68 138.835 287.518 139.018 287.381 139.232C287.244 139.447 287.14 139.691 287.068 139.965H291.482ZM298.348 129.506V137.592C299.227 136.68 300.223 136.225 301.336 136.225C302.618 136.225 303.686 136.703 304.539 137.66C305.392 138.611 305.818 139.796 305.818 141.215C305.818 142.68 305.389 143.891 304.529 144.848C303.676 145.798 302.599 146.273 301.297 146.273C300.197 146.273 299.214 145.85 298.348 145.004V146H296.15V129.506H298.348ZM303.572 141.312C303.572 140.401 303.325 139.659 302.83 139.086C302.329 138.5 301.701 138.207 300.945 138.207C300.138 138.207 299.48 138.49 298.973 139.057C298.471 139.617 298.221 140.346 298.221 141.244C298.221 142.169 298.468 142.908 298.963 143.461C299.458 144.027 300.109 144.311 300.916 144.311C301.678 144.311 302.309 144.027 302.811 143.461C303.318 142.888 303.572 142.172 303.572 141.312Z" fill="#464646"/>
</g>
<defs>
<filter id="filter0_d_0_1" x="-3" y="534" width="222" height="63" filterUnits="userSpaceOnUse" color-interpolation-filters="sRGB">
<feFlood flood-opacity="0" result="BackgroundImageFix"/>
<feColorMatrix in="SourceAlpha" type="matrix" values="0 0 0 0 0 0 0 0 0 0 0 0 0 0 0 0 0 0 127 0" result="hardAlpha"/>
<feMorphology radius="5" operator="erode" in="SourceAlpha" result="effect1_dropShadow_0_1"/>
<feOffset dy="5"/>
<feGaussianBlur stdDeviation="7.5"/>
<feColorMatrix type="matrix" values="0 0 0 0 0 0 0 0 0 0 0 0 0 0 0 0 0 0 0.35 0"/>
<feBlend mode="normal" in2="BackgroundImageFix" result="effect1_dropShadow_0_1"/>
<feBlend mode="normal" in="SourceGraphic" in2="effect1_dropShadow_0_1" result="shape"/>
</filter>
<filter id="filter1_d_0_1" x="240" y="534" width="229" height="63" filterUnits="userSpaceOnUse" color-interpolation-filters="sRGB">
<feFlood flood-opacity="0" result="BackgroundImageFix"/>
<feColorMatrix in="SourceAlpha" type="matrix" values="0 0 0 0 0 0 0 0 0 0 0 0 0 0 0 0 0 0 127 0" result="hardAlpha"/>
<feMorphology radius="5" operator="erode" in="SourceAlpha" result="effect1_dropShadow_0_1"/>
<feOffset dy="5"/>
<feGaussianBlur stdDeviation="7.5"/>
<feColorMatrix type="matrix" values="0 0 0 0 0 0 0 0 0 0 0 0 0 0 0 0 0 0 0.35 0"/>
<feBlend mode="normal" in2="BackgroundImageFix" result="effect1_dropShadow_0_1"/>
<feBlend mode="normal" in="SourceGraphic" in2="effect1_dropShadow_0_1" result="shape"/>
</filter>
<filter id="filter2_d_0_1" x="78" y="267" width="307" height="232" filterUnits="userSpaceOnUse" color-interpolation-filters="sRGB">
<feFlood flood-opacity="0" result="BackgroundImageFix"/>
<feColorMatrix in="SourceAlpha" type="matrix" values="0 0 0 0 0 0 0 0 0 0 0 0 0 0 0 0 0 0 127 0" result="hardAlpha"/>
<feMorphology radius="11" operator="erode" in="SourceAlpha" result="effect1_dropShadow_0_1"/>
<feOffset dy="5"/>
<feGaussianBlur stdDeviation="17.5"/>
<feColorMatrix type="matrix" values="0 0 0 0 0 0 0 0 0 0 0 0 0 0 0 0 0 0 0.35 0"/>
<feBlend mode="normal" in2="BackgroundImageFix" result="effect1_dropShadow_0_1"/>
<feBlend mode="normal" in="SourceGraphic" in2="effect1_dropShadow_0_1" result="shape"/>
</filter>
<filter id="filter3_d_0_1" x="139" y="109" width="197" height="136" filterUnits="userSpaceOnUse" color-interpolation-filters="sRGB">
<feFlood flood-opacity="0" result="BackgroundImageFix"/>
<feColorMatrix in="SourceAlpha" type="matrix" values="0 0 0 0 0 0 0 0 0 0 0 0 0 0 0 0 0 0 127 0" result="hardAlpha"/>
<feOffset dy="4"/>
<feGaussianBlur stdDeviation="2"/>
<feComposite in2="hardAlpha" operator="out"/>
<feColorMatrix type="matrix" values="0 0 0 0 0 0 0 0 0 0 0 0 0 0 0 0 0 0 0.15 0"/>
<feBlend mode="normal" in2="BackgroundImageFix" result="effect1_dropShadow_0_1"/>
<feBlend mode="normal" in="SourceGraphic" in2="effect1_dropShadow_0_1" result="shape"/>
</filter>
<filter id="filter4_d_0_1" x="164.2" y="180.4" width="147" height="40" filterUnits="userSpaceOnUse" color-interpolation-filters="sRGB">
<feFlood flood-opacity="0" result="BackgroundImageFix"/>
<feColorMatrix in="SourceAlpha" type="matrix" values="0 0 0 0 0 0 0 0 0 0 0 0 0 0 0 0 0 0 127 0" result="hardAlpha"/>
<feOffset dy="1"/>
<feGaussianBlur stdDeviation="1.5"/>
<feColorMatrix type="matrix" values="0 0 0 0 0.613948 0 0 0 0 0.613948 0 0 0 0 0.613948 0 0 0 0.5 0"/>
<feBlend mode="normal" in2="BackgroundImageFix" result="effect1_dropShadow_0_1"/>
<feBlend mode="normal" in="SourceGraphic" in2="effect1_dropShadow_0_1" result="shape"/>
</filter>
<clipPath id="clip0_0_1">
<rect width="202" height="43" fill="white" transform="translate(7 539)"/>
</clipPath>
<clipPath id="clip1_0_1">
<rect width="209" height="43" fill="white" transform="translate(250 539)"/>
</clipPath>
<clipPath id="clip2_0_1">
<rect width="141" height="34" fill="white" transform="translate(167.2 182.4)"/>
</clipPath>
</defs>
</svg>
