<svg width="452" height="577" viewBox="0 0 452 577" fill="none" xmlns="http://www.w3.org/2000/svg">
<g clip-path="url(#clip0_0_1)">
<g filter="url(#filter0_d_0_1)">
<rect y="534" width="202" height="43" rx="10" fill="#2963FF"/>
</g>
<path d="M59.4062 547.732V550.428C58.0911 549.327 56.7305 548.777 55.3242 548.777C53.7747 548.777 52.4694 549.334 51.4082 550.447C50.3405 551.554 49.8066 552.908 49.8066 554.51C49.8066 556.092 50.3405 557.426 51.4082 558.514C52.4759 559.601 53.7845 560.145 55.334 560.145C56.1348 560.145 56.8151 560.014 57.375 559.754C57.6875 559.624 58.0098 559.448 58.3418 559.227C58.6803 559.005 59.0352 558.738 59.4062 558.426V561.17C58.1042 561.906 56.737 562.273 55.3047 562.273C53.1497 562.273 51.3105 561.521 49.7871 560.018C48.2702 558.501 47.5117 556.671 47.5117 554.529C47.5117 552.609 48.1465 550.896 49.416 549.393C50.9785 547.55 53 546.629 55.4805 546.629C56.8346 546.629 58.1432 546.997 59.4062 547.732ZM61.418 557.176C61.418 555.802 61.9095 554.633 62.8926 553.67C63.8757 552.706 65.0736 552.225 66.4863 552.225C67.9056 552.225 69.11 552.71 70.0996 553.68C71.0762 554.65 71.5645 555.841 71.5645 557.254C71.5645 558.68 71.0729 559.874 70.0898 560.838C69.1003 561.795 67.8861 562.273 66.4473 562.273C65.0215 562.273 63.8268 561.785 62.8633 560.809C61.8997 559.845 61.418 558.634 61.418 557.176ZM63.6641 557.215C63.6641 558.165 63.918 558.917 64.4258 559.471C64.9466 560.031 65.6335 560.311 66.4863 560.311C67.3457 560.311 68.0326 560.034 68.5469 559.48C69.0612 558.927 69.3184 558.188 69.3184 557.264C69.3184 556.339 69.0612 555.6 68.5469 555.047C68.026 554.487 67.3392 554.207 66.4863 554.207C65.6465 554.207 64.9661 554.487 64.4453 555.047C63.9245 555.607 63.6641 556.329 63.6641 557.215ZM73.8984 552.488H76.1055V553.367C76.8737 552.605 77.7396 552.225 78.7031 552.225C79.8099 552.225 80.6725 552.573 81.291 553.27C81.8249 553.862 82.0918 554.829 82.0918 556.17V562H79.8848V556.688C79.8848 555.75 79.7546 555.102 79.4941 554.744C79.2402 554.38 78.778 554.197 78.1074 554.197C77.3783 554.197 76.8607 554.438 76.5547 554.92C76.2552 555.395 76.1055 556.225 76.1055 557.41V562H73.8984V552.488ZM92.707 549.979H90.5098V549.09C90.5098 548.608 90.3535 548.185 90.041 547.82C89.709 547.449 89.3021 547.264 88.8203 547.264C88.3451 547.264 87.9447 547.446 87.6191 547.811C87.3001 548.169 87.1406 548.595 87.1406 549.09V552.488H89.6602V554.539H87.1406V562H84.9434V554.539H84.1621V552.488H84.9434V549.09C84.9434 548.022 85.321 547.111 86.0762 546.355C86.8379 545.594 87.7559 545.213 88.8301 545.213C89.8978 545.213 90.8092 545.594 91.5645 546.355C92.3262 547.111 92.707 548.022 92.707 549.09V549.979ZM92.707 562H90.5098V552.488H92.707V562ZM95.5 552.488H97.6973V553.338C98.1009 552.915 98.459 552.625 98.7715 552.469C99.0905 552.306 99.4681 552.225 99.9043 552.225C100.484 552.225 101.089 552.413 101.721 552.791L100.715 554.803C100.298 554.503 99.8913 554.354 99.4941 554.354C98.2962 554.354 97.6973 555.258 97.6973 557.068V562H95.5V552.488ZM103.293 552.488H105.49V553.367C105.913 552.924 106.275 552.625 106.574 552.469C106.893 552.306 107.294 552.225 107.775 552.225C108.85 552.225 109.699 552.693 110.324 553.631C111.014 552.693 111.949 552.225 113.127 552.225C115.269 552.225 116.34 553.523 116.34 556.121V562H114.133V556.717C114.133 555.805 114.022 555.161 113.801 554.783C113.573 554.399 113.199 554.207 112.678 554.207C112.072 554.207 111.63 554.435 111.35 554.891C111.076 555.346 110.939 556.079 110.939 557.088V562H108.732V556.746C108.732 555.053 108.244 554.207 107.268 554.207C106.649 554.207 106.197 554.438 105.91 554.9C105.63 555.363 105.49 556.092 105.49 557.088V562H103.293V552.488ZM127.775 557.762H120.959C121.018 558.543 121.271 559.165 121.721 559.627C122.17 560.083 122.746 560.311 123.449 560.311C123.996 560.311 124.449 560.18 124.807 559.92C125.158 559.66 125.559 559.178 126.008 558.475L127.863 559.51C127.577 559.998 127.274 560.418 126.955 560.77C126.636 561.115 126.294 561.401 125.93 561.629C125.565 561.85 125.171 562.013 124.748 562.117C124.325 562.221 123.866 562.273 123.371 562.273C121.952 562.273 120.812 561.818 119.953 560.906C119.094 559.988 118.664 558.771 118.664 557.254C118.664 555.75 119.081 554.533 119.914 553.602C120.754 552.684 121.867 552.225 123.254 552.225C124.654 552.225 125.76 552.671 126.574 553.562C127.382 554.448 127.785 555.675 127.785 557.244L127.775 557.762ZM125.52 555.965C125.214 554.793 124.475 554.207 123.303 554.207C123.036 554.207 122.785 554.249 122.551 554.334C122.316 554.412 122.102 554.529 121.906 554.686C121.717 554.835 121.555 555.018 121.418 555.232C121.281 555.447 121.177 555.691 121.105 555.965H125.52ZM137.199 545.506H139.406V562H137.199V561.004C136.333 561.85 135.354 562.273 134.26 562.273C132.958 562.273 131.877 561.798 131.018 560.848C130.165 559.878 129.738 558.667 129.738 557.215C129.738 555.796 130.165 554.611 131.018 553.66C131.864 552.703 132.928 552.225 134.211 552.225C135.324 552.225 136.32 552.68 137.199 553.592V545.506ZM131.984 557.215C131.984 558.126 132.229 558.868 132.717 559.441C133.218 560.021 133.85 560.311 134.611 560.311C135.425 560.311 136.083 560.031 136.584 559.471C137.085 558.891 137.336 558.156 137.336 557.264C137.336 556.372 137.085 555.636 136.584 555.057C136.083 554.49 135.432 554.207 134.631 554.207C133.876 554.207 133.244 554.493 132.736 555.066C132.235 555.646 131.984 556.362 131.984 557.215ZM150.549 552.488V557.947C150.549 559.523 151.171 560.311 152.414 560.311C153.658 560.311 154.279 559.523 154.279 557.947V552.488H156.477V557.996C156.477 558.758 156.382 559.415 156.193 559.969C156.011 560.464 155.695 560.91 155.246 561.307C154.504 561.951 153.56 562.273 152.414 562.273C151.275 562.273 150.334 561.951 149.592 561.307C149.136 560.91 148.814 560.464 148.625 559.969C148.443 559.526 148.352 558.868 148.352 557.996V552.488H150.549ZM164.777 554.109L162.961 555.076C162.674 554.49 162.32 554.197 161.896 554.197C161.695 554.197 161.522 554.266 161.379 554.402C161.236 554.533 161.164 554.702 161.164 554.91C161.164 555.275 161.587 555.636 162.434 555.994C163.599 556.495 164.383 556.958 164.787 557.381C165.191 557.804 165.393 558.374 165.393 559.09C165.393 560.008 165.054 560.776 164.377 561.395C163.719 561.98 162.925 562.273 161.994 562.273C160.399 562.273 159.27 561.495 158.605 559.939L160.48 559.07C160.741 559.526 160.939 559.816 161.076 559.939C161.343 560.187 161.662 560.311 162.033 560.311C162.775 560.311 163.146 559.972 163.146 559.295C163.146 558.904 162.86 558.54 162.287 558.201C162.066 558.09 161.844 557.983 161.623 557.879C161.402 557.775 161.177 557.667 160.949 557.557C160.311 557.244 159.862 556.932 159.602 556.619C159.27 556.222 159.104 555.711 159.104 555.086C159.104 554.259 159.387 553.576 159.953 553.035C160.533 552.495 161.236 552.225 162.062 552.225C163.28 552.225 164.185 552.853 164.777 554.109ZM176.037 557.762H169.221C169.279 558.543 169.533 559.165 169.982 559.627C170.432 560.083 171.008 560.311 171.711 560.311C172.258 560.311 172.71 560.18 173.068 559.92C173.42 559.66 173.82 559.178 174.27 558.475L176.125 559.51C175.839 559.998 175.536 560.418 175.217 560.77C174.898 561.115 174.556 561.401 174.191 561.629C173.827 561.85 173.433 562.013 173.01 562.117C172.587 562.221 172.128 562.273 171.633 562.273C170.214 562.273 169.074 561.818 168.215 560.906C167.355 559.988 166.926 558.771 166.926 557.254C166.926 555.75 167.342 554.533 168.176 553.602C169.016 552.684 170.129 552.225 171.516 552.225C172.915 552.225 174.022 552.671 174.836 553.562C175.643 554.448 176.047 555.675 176.047 557.244L176.037 557.762ZM173.781 555.965C173.475 554.793 172.736 554.207 171.564 554.207C171.298 554.207 171.047 554.249 170.812 554.334C170.578 554.412 170.363 554.529 170.168 554.686C169.979 554.835 169.816 555.018 169.68 555.232C169.543 555.447 169.439 555.691 169.367 555.965H173.781ZM178.449 552.488H180.646V553.338C181.05 552.915 181.408 552.625 181.721 552.469C182.04 552.306 182.417 552.225 182.854 552.225C183.433 552.225 184.038 552.413 184.67 552.791L183.664 554.803C183.247 554.503 182.84 554.354 182.443 554.354C181.245 554.354 180.646 555.258 180.646 557.068V562H178.449V552.488Z" fill="white"/>
<path fill-rule="evenodd" clip-rule="evenodd" d="M13.2343 555.534C12.9219 555.22 12.9219 554.711 13.2343 554.397L14.3656 553.259C14.6781 552.944 15.1846 552.944 15.497 553.259L19 556.782L26.503 549.236C26.8154 548.921 27.3219 548.921 27.6343 549.236L28.7657 550.374C29.0781 550.688 29.0781 551.197 28.7657 551.511L19.5657 560.764C19.2532 561.079 18.7467 561.079 18.4343 560.764L13.2343 555.534Z" fill="white"/>
</g>
<g clip-path="url(#clip1_0_1)">
<g filter="url(#filter1_d_0_1)">
<rect x="243" y="534" width="209" height="43" rx="10" fill="#FF3295"/>
</g>
<path d="M290.266 561V545.922H293.43C294.947 545.922 296.145 546.072 297.023 546.371C297.967 546.664 298.824 547.162 299.592 547.865C301.148 549.285 301.926 551.15 301.926 553.461C301.926 555.779 301.115 557.654 299.494 559.086C298.68 559.802 297.827 560.3 296.936 560.58C296.102 560.86 294.921 561 293.391 561H290.266ZM292.541 558.861H293.566C294.589 558.861 295.438 558.754 296.115 558.539C296.792 558.311 297.404 557.95 297.951 557.455C299.071 556.433 299.631 555.102 299.631 553.461C299.631 551.807 299.077 550.466 297.971 549.438C296.975 548.52 295.507 548.061 293.566 548.061H292.541V558.861ZM313.039 556.762H306.223C306.281 557.543 306.535 558.165 306.984 558.627C307.434 559.083 308.01 559.311 308.713 559.311C309.26 559.311 309.712 559.18 310.07 558.92C310.422 558.66 310.822 558.178 311.271 557.475L313.127 558.51C312.84 558.998 312.538 559.418 312.219 559.77C311.9 560.115 311.558 560.401 311.193 560.629C310.829 560.85 310.435 561.013 310.012 561.117C309.589 561.221 309.13 561.273 308.635 561.273C307.215 561.273 306.076 560.818 305.217 559.906C304.357 558.988 303.928 557.771 303.928 556.254C303.928 554.75 304.344 553.533 305.178 552.602C306.018 551.684 307.131 551.225 308.518 551.225C309.917 551.225 311.024 551.671 311.838 552.562C312.645 553.448 313.049 554.675 313.049 556.244L313.039 556.762ZM310.783 554.965C310.477 553.793 309.738 553.207 308.566 553.207C308.299 553.207 308.049 553.249 307.814 553.334C307.58 553.412 307.365 553.529 307.17 553.686C306.981 553.835 306.818 554.018 306.682 554.232C306.545 554.447 306.441 554.691 306.369 554.965H310.783ZM315.451 551.488H317.658V552.367C318.426 551.605 319.292 551.225 320.256 551.225C321.363 551.225 322.225 551.573 322.844 552.27C323.378 552.862 323.645 553.829 323.645 555.17V561H321.438V555.688C321.438 554.75 321.307 554.102 321.047 553.744C320.793 553.38 320.331 553.197 319.66 553.197C318.931 553.197 318.413 553.438 318.107 553.92C317.808 554.395 317.658 555.225 317.658 556.41V561H315.451V551.488ZM335.09 556.762H328.273C328.332 557.543 328.586 558.165 329.035 558.627C329.484 559.083 330.061 559.311 330.764 559.311C331.311 559.311 331.763 559.18 332.121 558.92C332.473 558.66 332.873 558.178 333.322 557.475L335.178 558.51C334.891 558.998 334.589 559.418 334.27 559.77C333.951 560.115 333.609 560.401 333.244 560.629C332.88 560.85 332.486 561.013 332.062 561.117C331.639 561.221 331.18 561.273 330.686 561.273C329.266 561.273 328.127 560.818 327.268 559.906C326.408 558.988 325.979 557.771 325.979 556.254C325.979 554.75 326.395 553.533 327.229 552.602C328.068 551.684 329.182 551.225 330.568 551.225C331.968 551.225 333.075 551.671 333.889 552.562C334.696 553.448 335.1 554.675 335.1 556.244L335.09 556.762ZM332.834 554.965C332.528 553.793 331.789 553.207 330.617 553.207C330.35 553.207 330.1 553.249 329.865 553.334C329.631 553.412 329.416 553.529 329.221 553.686C329.032 553.835 328.869 554.018 328.732 554.232C328.596 554.447 328.492 554.691 328.42 554.965H332.834ZM346.701 560.775C346.701 561.225 346.685 561.618 346.652 561.957C346.626 562.302 346.587 562.605 346.535 562.865C346.379 563.581 346.073 564.197 345.617 564.711C344.758 565.701 343.576 566.195 342.072 566.195C340.803 566.195 339.758 565.854 338.938 565.17C338.091 564.467 337.603 563.493 337.473 562.25H339.68C339.764 562.719 339.904 563.08 340.1 563.334C340.555 563.926 341.219 564.223 342.092 564.223C343.7 564.223 344.504 563.236 344.504 561.264V559.936C343.632 560.827 342.626 561.273 341.486 561.273C340.191 561.273 339.13 560.805 338.303 559.867C337.469 558.917 337.053 557.729 337.053 556.303C337.053 554.916 337.44 553.738 338.215 552.768C339.048 551.739 340.148 551.225 341.516 551.225C342.714 551.225 343.71 551.671 344.504 552.562V551.488H346.701V560.775ZM344.592 556.264C344.592 555.339 344.344 554.6 343.85 554.047C343.348 553.48 342.707 553.197 341.926 553.197C341.092 553.197 340.435 553.507 339.953 554.125C339.517 554.678 339.299 555.395 339.299 556.273C339.299 557.139 339.517 557.849 339.953 558.402C340.428 559.008 341.086 559.311 341.926 559.311C342.766 559.311 343.43 559.005 343.918 558.393C344.367 557.839 344.592 557.13 344.592 556.264ZM356.486 551.488H358.693V561H356.486V560.004C355.581 560.85 354.608 561.273 353.566 561.273C352.251 561.273 351.164 560.798 350.305 559.848C349.452 558.878 349.025 557.667 349.025 556.215C349.025 554.789 349.452 553.601 350.305 552.65C351.158 551.7 352.225 551.225 353.508 551.225C354.615 551.225 355.607 551.68 356.486 552.592V551.488ZM351.271 556.215C351.271 557.126 351.516 557.868 352.004 558.441C352.505 559.021 353.137 559.311 353.898 559.311C354.712 559.311 355.37 559.031 355.871 558.471C356.372 557.891 356.623 557.156 356.623 556.264C356.623 555.372 356.372 554.636 355.871 554.057C355.37 553.49 354.719 553.207 353.918 553.207C353.163 553.207 352.531 553.493 352.023 554.066C351.522 554.646 351.271 555.362 351.271 556.215ZM363.732 553.539V561H361.535V553.539H360.598V551.488H361.535V548.002H363.732V551.488H365.441V553.539H363.732ZM375.773 556.762H368.957C369.016 557.543 369.27 558.165 369.719 558.627C370.168 559.083 370.744 559.311 371.447 559.311C371.994 559.311 372.447 559.18 372.805 558.92C373.156 558.66 373.557 558.178 374.006 557.475L375.861 558.51C375.575 558.998 375.272 559.418 374.953 559.77C374.634 560.115 374.292 560.401 373.928 560.629C373.563 560.85 373.169 561.013 372.746 561.117C372.323 561.221 371.864 561.273 371.369 561.273C369.95 561.273 368.811 560.818 367.951 559.906C367.092 558.988 366.662 557.771 366.662 556.254C366.662 554.75 367.079 553.533 367.912 552.602C368.752 551.684 369.865 551.225 371.252 551.225C372.652 551.225 373.758 551.671 374.572 552.562C375.38 553.448 375.783 554.675 375.783 556.244L375.773 556.762ZM373.518 554.965C373.212 553.793 372.473 553.207 371.301 553.207C371.034 553.207 370.783 553.249 370.549 553.334C370.314 553.412 370.1 553.529 369.904 553.686C369.715 553.835 369.553 554.018 369.416 554.232C369.279 554.447 369.175 554.691 369.104 554.965H373.518ZM385.197 544.506H387.404V561H385.197V560.004C384.331 560.85 383.352 561.273 382.258 561.273C380.956 561.273 379.875 560.798 379.016 559.848C378.163 558.878 377.736 557.667 377.736 556.215C377.736 554.796 378.163 553.611 379.016 552.66C379.862 551.703 380.926 551.225 382.209 551.225C383.322 551.225 384.318 551.68 385.197 552.592V544.506ZM379.982 556.215C379.982 557.126 380.227 557.868 380.715 558.441C381.216 559.021 381.848 559.311 382.609 559.311C383.423 559.311 384.081 559.031 384.582 558.471C385.083 557.891 385.334 557.156 385.334 556.264C385.334 555.372 385.083 554.636 384.582 554.057C384.081 553.49 383.43 553.207 382.629 553.207C381.874 553.207 381.242 553.493 380.734 554.066C380.233 554.646 379.982 555.362 379.982 556.215ZM398.547 551.488V556.947C398.547 558.523 399.169 559.311 400.412 559.311C401.656 559.311 402.277 558.523 402.277 556.947V551.488H404.475V556.996C404.475 557.758 404.38 558.415 404.191 558.969C404.009 559.464 403.693 559.91 403.244 560.307C402.502 560.951 401.558 561.273 400.412 561.273C399.273 561.273 398.332 560.951 397.59 560.307C397.134 559.91 396.812 559.464 396.623 558.969C396.441 558.526 396.35 557.868 396.35 556.996V551.488H398.547ZM412.775 553.109L410.959 554.076C410.673 553.49 410.318 553.197 409.895 553.197C409.693 553.197 409.52 553.266 409.377 553.402C409.234 553.533 409.162 553.702 409.162 553.91C409.162 554.275 409.585 554.636 410.432 554.994C411.597 555.495 412.382 555.958 412.785 556.381C413.189 556.804 413.391 557.374 413.391 558.09C413.391 559.008 413.052 559.776 412.375 560.395C411.717 560.98 410.923 561.273 409.992 561.273C408.397 561.273 407.268 560.495 406.604 558.939L408.479 558.07C408.739 558.526 408.938 558.816 409.074 558.939C409.341 559.187 409.66 559.311 410.031 559.311C410.773 559.311 411.145 558.972 411.145 558.295C411.145 557.904 410.858 557.54 410.285 557.201C410.064 557.09 409.842 556.983 409.621 556.879C409.4 556.775 409.175 556.667 408.947 556.557C408.309 556.244 407.86 555.932 407.6 555.619C407.268 555.222 407.102 554.711 407.102 554.086C407.102 553.259 407.385 552.576 407.951 552.035C408.531 551.495 409.234 551.225 410.061 551.225C411.278 551.225 412.183 551.853 412.775 553.109ZM424.035 556.762H417.219C417.277 557.543 417.531 558.165 417.98 558.627C418.43 559.083 419.006 559.311 419.709 559.311C420.256 559.311 420.708 559.18 421.066 558.92C421.418 558.66 421.818 558.178 422.268 557.475L424.123 558.51C423.837 558.998 423.534 559.418 423.215 559.77C422.896 560.115 422.554 560.401 422.189 560.629C421.825 560.85 421.431 561.013 421.008 561.117C420.585 561.221 420.126 561.273 419.631 561.273C418.212 561.273 417.072 560.818 416.213 559.906C415.354 558.988 414.924 557.771 414.924 556.254C414.924 554.75 415.34 553.533 416.174 552.602C417.014 551.684 418.127 551.225 419.514 551.225C420.913 551.225 422.02 551.671 422.834 552.562C423.641 553.448 424.045 554.675 424.045 556.244L424.035 556.762ZM421.779 554.965C421.473 553.793 420.734 553.207 419.562 553.207C419.296 553.207 419.045 553.249 418.811 553.334C418.576 553.412 418.361 553.529 418.166 553.686C417.977 553.835 417.814 554.018 417.678 554.232C417.541 554.447 417.437 554.691 417.365 554.965H421.779ZM426.447 551.488H428.645V552.338C429.048 551.915 429.406 551.625 429.719 551.469C430.038 551.306 430.415 551.225 430.852 551.225C431.431 551.225 432.036 551.413 432.668 551.791L431.662 553.803C431.245 553.503 430.839 553.354 430.441 553.354C429.243 553.354 428.645 554.258 428.645 556.068V561H426.447V551.488Z" fill="white"/>
<path fill-rule="evenodd" clip-rule="evenodd" d="M259.249 560.442C258.917 560.102 258.917 559.55 259.249 559.209L261.052 557.43L269.024 549.255C269.356 548.915 269.894 548.915 270.226 549.255L271.428 550.488C271.76 550.828 271.76 551.38 271.428 551.721L261.653 561.745C261.321 562.085 260.783 562.085 260.451 561.745L259.249 560.442Z" fill="white"/>
<path fill-rule="evenodd" clip-rule="evenodd" d="M271.428 560.442C271.76 560.102 271.76 559.55 271.428 559.209L269.625 557.43L261.653 549.255C261.321 548.915 260.783 548.915 260.451 549.255L259.249 550.488C258.917 550.828 258.917 551.38 259.249 551.721L269.024 561.745C269.356 562.085 269.894 562.085 270.226 561.745L271.428 560.442Z" fill="white"/>
</g>
<g filter="url(#filter2_d_0_1)">
<rect x="95" y="281" width="259" height="184" rx="10" fill="white"/>
</g>
<path d="M201.504 381L204.678 364.789L209.854 376.508L215.215 364.789L218.066 381H215.732L214.277 371.898L209.814 381.693L205.479 371.889L203.857 381H201.504ZM229.512 376.762H222.695C222.754 377.543 223.008 378.165 223.457 378.627C223.906 379.083 224.482 379.311 225.186 379.311C225.732 379.311 226.185 379.18 226.543 378.92C226.895 378.66 227.295 378.178 227.744 377.475L229.6 378.51C229.313 378.998 229.01 379.418 228.691 379.77C228.372 380.115 228.031 380.401 227.666 380.629C227.301 380.85 226.908 381.013 226.484 381.117C226.061 381.221 225.602 381.273 225.107 381.273C223.688 381.273 222.549 380.818 221.689 379.906C220.83 378.988 220.4 377.771 220.4 376.254C220.4 374.75 220.817 373.533 221.65 372.602C222.49 371.684 223.604 371.225 224.99 371.225C226.39 371.225 227.497 371.671 228.311 372.562C229.118 373.448 229.521 374.675 229.521 376.244L229.512 376.762ZM227.256 374.965C226.95 373.793 226.211 373.207 225.039 373.207C224.772 373.207 224.521 373.249 224.287 373.334C224.053 373.412 223.838 373.529 223.643 373.686C223.454 373.835 223.291 374.018 223.154 374.232C223.018 374.447 222.913 374.691 222.842 374.965H227.256ZM231.924 371.488H234.121V372.338C234.525 371.915 234.883 371.625 235.195 371.469C235.514 371.306 235.892 371.225 236.328 371.225C236.908 371.225 237.513 371.413 238.145 371.791L237.139 373.803C236.722 373.503 236.315 373.354 235.918 373.354C234.72 373.354 234.121 374.258 234.121 376.068V381H231.924V371.488ZM243.281 379.232L239.004 371.488H241.553L244.463 376.957L247.178 371.488H249.658L242.08 386.176H239.57L243.281 379.232Z" fill="#FF3295"/>
<line x1="166" y1="350" x2="284" y2="350" stroke="#FF3295" stroke-width="4" stroke-linecap="round"/>
<line x1="156" y1="336" x2="294" y2="336" stroke="#FF3295" stroke-width="4" stroke-linecap="round"/>
<line x1="184" y1="322" x2="266" y2="322" stroke="#FF3295" stroke-width="4" stroke-linecap="round"/>
<line x1="169" y1="421" x2="281" y2="421" stroke="#FF3295" stroke-width="4" stroke-linecap="round"/>
<line x1="176" y1="407" x2="274" y2="407" stroke="#FF3295" stroke-width="4" stroke-linecap="round"/>
<line x1="156" y1="393" x2="294" y2="393" stroke="#FF3295" stroke-width="4" stroke-linecap="round"/>
<path d="M160.6 24C166.892 24.0014 171.999 29.1083 172 35.4V38.9286C172 41.176 170.176 43 167.929 43H138.071C135.824 43 134 41.176 134 38.9286V35.4C134.001 29.1083 139.108 24.0014 145.4 24H146.817C148.441 24.7491 151.211 25.3571 153 25.3571C154.789 25.3571 157.559 24.7491 159.183 24H160.6Z" fill="#2963FF"/>
<path d="M153 22C146.928 22 142 17.072 142 11C142 4.928 146.928 0 153 0C159.072 0 164 4.928 164 11C164 17.072 159.072 22 153 22Z" fill="#2963FF" fill-opacity="0.5"/>
<path d="M314.6 24C320.892 24.0014 325.999 29.1083 326 35.4V38.9286C326 41.176 324.176 43 321.929 43H292.071C289.824 43 288 41.176 288 38.9286V35.4C288.001 29.1083 293.108 24.0014 299.4 24H300.817C302.441 24.7491 305.211 25.3571 307 25.3571C308.789 25.3571 311.559 24.7491 313.183 24H314.6Z" fill="#FF3295"/>
<path d="M307 22C300.928 22 296 17.072 296 11C296 4.928 300.928 0 307 0C313.072 0 318 4.928 318 11C318 17.072 313.072 22 307 22Z" fill="#FF3295" fill-opacity="0.5"/>
<path d="M80.209 17.9219V27.6777C80.209 28.8431 80.1276 29.7122 79.9648 30.2852C79.8021 30.9362 79.5254 31.4863 79.1348 31.9355C78.373 32.8275 77.3639 33.2734 76.1074 33.2734C75.1569 33.2734 74.2682 33.026 73.4414 32.5312L74.5547 30.5879C75.1081 30.959 75.6257 31.1445 76.1074 31.1445C76.7845 31.1445 77.2533 30.8874 77.5137 30.373C77.7871 29.8587 77.9238 28.9603 77.9238 27.6777V17.9219H80.209ZM82.9531 28.1758C82.9531 26.8021 83.4447 25.6335 84.4277 24.6699C85.4108 23.7064 86.6087 23.2246 88.0215 23.2246C89.4408 23.2246 90.6452 23.7096 91.6348 24.6797C92.6113 25.6497 93.0996 26.8411 93.0996 28.2539C93.0996 29.6797 92.6081 30.8743 91.625 31.8379C90.6354 32.7949 89.4212 33.2734 87.9824 33.2734C86.5566 33.2734 85.362 32.7852 84.3984 31.8086C83.4349 30.8451 82.9531 29.6341 82.9531 28.1758ZM85.1992 28.2148C85.1992 29.1654 85.4531 29.9173 85.9609 30.4707C86.4818 31.0306 87.1686 31.3105 88.0215 31.3105C88.8809 31.3105 89.5677 31.0339 90.082 30.4805C90.5964 29.9271 90.8535 29.1882 90.8535 28.2637C90.8535 27.3392 90.5964 26.6003 90.082 26.0469C89.5612 25.487 88.8743 25.207 88.0215 25.207C87.1816 25.207 86.5013 25.487 85.9805 26.0469C85.4596 26.6068 85.1992 27.3294 85.1992 28.2148ZM95.4336 16.5059H97.6309V24.2793C98.4121 23.5762 99.2747 23.2246 100.219 23.2246C101.293 23.2246 102.152 23.5729 102.797 24.2695C103.344 24.875 103.617 25.8418 103.617 27.1699V33H101.42V27.375C101.42 26.6133 101.283 26.0632 101.01 25.7246C100.743 25.3796 100.31 25.207 99.7109 25.207C98.9427 25.207 98.4023 25.4447 98.0898 25.9199C97.7839 26.4017 97.6309 27.2285 97.6309 28.4004V33H95.4336V16.5059ZM106.41 23.4883H108.617V24.3672C109.385 23.6055 110.251 23.2246 111.215 23.2246C112.322 23.2246 113.184 23.5729 113.803 24.2695C114.337 24.862 114.604 25.8288 114.604 27.1699V33H112.396V27.6875C112.396 26.75 112.266 26.1022 112.006 25.7441C111.752 25.3796 111.29 25.1973 110.619 25.1973C109.89 25.1973 109.372 25.4382 109.066 25.9199C108.767 26.3952 108.617 27.2253 108.617 28.4102V33H106.41V23.4883Z" fill="#666666"/>
<path d="M339.279 33L342.453 16.7891L347.629 28.5078L352.99 16.7891L355.842 33H353.508L352.053 23.8984L347.59 33.6934L343.254 23.8887L341.633 33H339.279ZM367.287 28.7617H360.471C360.529 29.543 360.783 30.1647 361.232 30.627C361.682 31.0827 362.258 31.3105 362.961 31.3105C363.508 31.3105 363.96 31.1803 364.318 30.9199C364.67 30.6595 365.07 30.1777 365.52 29.4746L367.375 30.5098C367.089 30.998 366.786 31.418 366.467 31.7695C366.148 32.1146 365.806 32.401 365.441 32.6289C365.077 32.8503 364.683 33.013 364.26 33.1172C363.837 33.2214 363.378 33.2734 362.883 33.2734C361.464 33.2734 360.324 32.8177 359.465 31.9062C358.605 30.9883 358.176 29.7708 358.176 28.2539C358.176 26.75 358.592 25.5326 359.426 24.6016C360.266 23.6836 361.379 23.2246 362.766 23.2246C364.165 23.2246 365.272 23.6706 366.086 24.5625C366.893 25.4479 367.297 26.6751 367.297 28.2441L367.287 28.7617ZM365.031 26.9648C364.725 25.793 363.986 25.207 362.814 25.207C362.548 25.207 362.297 25.2493 362.062 25.334C361.828 25.4121 361.613 25.5293 361.418 25.6855C361.229 25.8353 361.066 26.0176 360.93 26.2324C360.793 26.4473 360.689 26.6914 360.617 26.9648H365.031ZM369.699 23.4883H371.896V24.3379C372.3 23.9147 372.658 23.625 372.971 23.4688C373.29 23.306 373.667 23.2246 374.104 23.2246C374.683 23.2246 375.288 23.4134 375.92 23.791L374.914 25.8027C374.497 25.5033 374.09 25.3535 373.693 25.3535C372.495 25.3535 371.896 26.2585 371.896 28.0684V33H369.699V23.4883ZM381.057 31.2324L376.779 23.4883H379.328L382.238 28.957L384.953 23.4883H387.434L379.855 38.1758H377.346L381.057 31.2324Z" fill="#666666"/>
<path d="M171 94L173.887 89H168.113L171 94ZM94.7003 50.1451L95.0255 58.7106L96.0248 58.6726L95.6996 50.1071L94.7003 50.1451ZM108.516 71.6984H158V70.6984H108.516V71.6984ZM170.5 84.1984V89.5H171.5V84.1984H170.5ZM158 71.6984C164.904 71.6984 170.5 77.2948 170.5 84.1984H171.5C171.5 76.7426 165.456 70.6984 158 70.6984V71.6984ZM95.0255 58.7106C95.3008 65.9619 101.259 71.6984 108.516 71.6984V70.6984C101.797 70.6984 96.2797 65.3868 96.0248 58.6726L95.0255 58.7106Z" fill="#979797"/>
<path d="M287.2 94L284.313 89H290.087L287.2 94ZM363.5 50.1451L363.174 58.7106L362.175 58.6726L362.5 50.1071L363.5 50.1451ZM349.684 71.6984H300.2V70.6984H349.684V71.6984ZM287.7 84.1984V89.5H286.7V84.1984H287.7ZM300.2 71.6984C293.296 71.6984 287.7 77.2948 287.7 84.1984H286.7C286.7 76.7426 292.744 70.6984 300.2 70.6984V71.6984ZM363.174 58.7106C362.899 65.9619 356.941 71.6984 349.684 71.6984V70.6984C356.403 70.6984 361.92 65.3868 362.175 58.6726L363.174 58.7106Z" fill="#979797"/>
<path d="M115 526L112.254 520.921L118.025 521.083L115 526ZM171.5 475.011L171.283 484.835L170.283 484.813L170.5 474.989L171.5 475.011ZM157.786 498.037H128.437V497.037H157.786V498.037ZM115.942 510.188L115.626 521.516L114.626 521.488L114.943 510.16L115.942 510.188ZM128.437 498.037C121.67 498.037 116.131 503.423 115.942 510.188L114.943 510.16C115.147 502.854 121.128 497.037 128.437 497.037V498.037ZM171.283 484.835C171.121 492.173 165.126 498.037 157.786 498.037V497.037C164.582 497.037 170.133 491.607 170.283 484.813L171.283 484.835Z" fill="#979797"/>
<path d="M344 526L346.744 520.92L340.973 521.084L344 526ZM287.6 474.996L287.516 484.417L288.516 484.426L288.6 475.004L287.6 474.996ZM301.016 498.037H330.558V497.037H301.016V498.037ZM343.053 510.184L343.373 521.516L344.373 521.488L344.052 510.156L343.053 510.184ZM330.558 498.037C337.324 498.037 342.862 503.421 343.053 510.184L344.052 510.156C343.846 502.851 337.865 497.037 330.558 497.037V498.037ZM287.516 484.417C287.449 491.919 293.513 498.037 301.016 498.037V497.037C294.069 497.037 288.454 491.372 288.516 484.426L287.516 484.417Z" fill="#979797"/>
<path d="M287.5 271L290.387 266H284.613L287.5 271ZM287 243V266.5H288V243H287Z" fill="#979797"/>
<path d="M171.5 271L174.387 266H168.613L171.5 271ZM171 243V266.5H172V243H171Z" fill="#979797"/>
<g filter="url(#filter3_d_0_1)">
<rect x="136" y="104" width="189" height="128" rx="10" fill="white"/>
<g clip-path="url(#clip2_0_1)" filter="url(#filter4_d_0_1)">
<rect x="160.2" y="177.4" width="141" height="34" rx="6.44" fill="#F0F0F0"/>
<path d="M177.12 198.28L180.172 188.797H182.379L178.219 200.4H176.729L177.12 198.28ZM174.299 188.797L177.327 198.28L177.741 200.4H176.243L172.099 188.797H174.299ZM186.937 200.559C186.3 200.559 185.723 200.456 185.208 200.249C184.698 200.036 184.262 199.741 183.901 199.364C183.545 198.987 183.272 198.543 183.08 198.033C182.889 197.523 182.793 196.973 182.793 196.384V196.065C182.793 195.39 182.892 194.779 183.088 194.232C183.285 193.685 183.558 193.217 183.909 192.83C184.26 192.437 184.674 192.136 185.152 191.929C185.63 191.722 186.148 191.618 186.706 191.618C187.322 191.618 187.862 191.722 188.324 191.929C188.786 192.136 189.168 192.429 189.471 192.806C189.779 193.178 190.008 193.621 190.157 194.137C190.311 194.652 190.388 195.22 190.388 195.842V196.663H183.726V195.284H188.491V195.133C188.48 194.787 188.411 194.463 188.284 194.16C188.162 193.858 187.973 193.613 187.718 193.427C187.463 193.241 187.123 193.148 186.698 193.148C186.379 193.148 186.095 193.217 185.845 193.356C185.601 193.488 185.397 193.682 185.232 193.937C185.067 194.192 184.94 194.5 184.849 194.862C184.764 195.218 184.722 195.619 184.722 196.065V196.384C184.722 196.761 184.772 197.112 184.873 197.436C184.979 197.754 185.134 198.033 185.335 198.272C185.537 198.511 185.782 198.7 186.069 198.838C186.355 198.971 186.682 199.037 187.049 199.037C187.511 199.037 187.923 198.944 188.284 198.758C188.645 198.572 188.959 198.31 189.224 197.97L190.236 198.95C190.05 199.221 189.809 199.481 189.511 199.731C189.214 199.975 188.85 200.174 188.419 200.328C187.994 200.482 187.5 200.559 186.937 200.559ZM193.814 193.419V200.4H191.894V191.778H193.727L193.814 193.419ZM196.452 191.722L196.436 193.507C196.319 193.486 196.192 193.47 196.053 193.459C195.921 193.449 195.788 193.443 195.655 193.443C195.326 193.443 195.036 193.491 194.786 193.587C194.537 193.677 194.327 193.81 194.157 193.985C193.992 194.155 193.865 194.362 193.774 194.607C193.684 194.851 193.631 195.125 193.615 195.427L193.177 195.459C193.177 194.917 193.23 194.415 193.336 193.953C193.442 193.491 193.602 193.085 193.814 192.734C194.032 192.383 194.303 192.11 194.627 191.913C194.956 191.717 195.336 191.618 195.767 191.618C195.883 191.618 196.008 191.629 196.141 191.65C196.279 191.672 196.383 191.695 196.452 191.722ZM199.711 191.778V200.4H197.783V191.778H199.711ZM197.655 189.515C197.655 189.222 197.751 188.981 197.942 188.79C198.139 188.593 198.409 188.495 198.755 188.495C199.095 188.495 199.363 188.593 199.56 188.79C199.756 188.981 199.854 189.222 199.854 189.515C199.854 189.802 199.756 190.041 199.56 190.232C199.363 190.423 199.095 190.519 198.755 190.519C198.409 190.519 198.139 190.423 197.942 190.232C197.751 190.041 197.655 189.802 197.655 189.515ZM204.413 200.4H202.492V190.949C202.492 190.306 202.612 189.767 202.851 189.331C203.095 188.89 203.443 188.558 203.895 188.335C204.346 188.107 204.88 187.993 205.496 187.993C205.688 187.993 205.876 188.006 206.062 188.032C206.248 188.054 206.429 188.088 206.604 188.136L206.556 189.618C206.45 189.592 206.333 189.573 206.206 189.562C206.083 189.552 205.951 189.547 205.807 189.547C205.515 189.547 205.263 189.602 205.05 189.714C204.843 189.82 204.684 189.977 204.572 190.184C204.466 190.391 204.413 190.646 204.413 190.949V200.4ZM206.19 191.778V193.18H201.169V191.778H206.19ZM210.086 199.46L212.429 191.778H214.485L211.027 201.715C210.947 201.927 210.843 202.158 210.716 202.408C210.588 202.658 210.421 202.894 210.214 203.117C210.012 203.346 209.76 203.529 209.457 203.667C209.154 203.811 208.787 203.882 208.357 203.882C208.187 203.882 208.022 203.866 207.863 203.835C207.709 203.808 207.563 203.779 207.425 203.747L207.417 202.281C207.47 202.286 207.534 202.291 207.608 202.297C207.688 202.302 207.752 202.305 207.799 202.305C208.118 202.305 208.384 202.265 208.596 202.185C208.809 202.111 208.981 201.988 209.114 201.818C209.252 201.648 209.369 201.42 209.465 201.133L210.086 199.46ZM208.764 191.778L210.812 198.232L211.154 200.257L209.823 200.599L206.692 191.778H208.764ZM221.992 198.487L223.984 191.778H225.211L224.876 193.786L222.868 200.4H221.769L221.992 198.487ZM220.82 191.778L222.374 198.519L222.502 200.4H221.274L218.94 191.778H220.82ZM227.076 198.44L228.582 191.778H230.454L228.128 200.4H226.9L227.076 198.44ZM225.418 191.778L227.387 198.408L227.634 200.4H226.534L224.502 193.778L224.167 191.778H225.418ZM233.817 191.778V200.4H231.889V191.778H233.817ZM231.761 189.515C231.761 189.222 231.857 188.981 232.048 188.79C232.245 188.593 232.516 188.495 232.861 188.495C233.201 188.495 233.469 188.593 233.666 188.79C233.862 188.981 233.961 189.222 233.961 189.515C233.961 189.802 233.862 190.041 233.666 190.232C233.469 190.423 233.201 190.519 232.861 190.519C232.516 190.519 232.245 190.423 232.048 190.232C231.857 190.041 231.761 189.802 231.761 189.515ZM239.874 191.778V193.18H235.013V191.778H239.874ZM236.415 189.666H238.336V198.017C238.336 198.283 238.373 198.487 238.447 198.631C238.527 198.769 238.636 198.862 238.774 198.91C238.912 198.958 239.074 198.982 239.26 198.982C239.393 198.982 239.52 198.974 239.642 198.958C239.765 198.942 239.863 198.926 239.937 198.91L239.945 200.376C239.786 200.424 239.6 200.466 239.387 200.504C239.18 200.541 238.941 200.559 238.67 200.559C238.229 200.559 237.839 200.482 237.499 200.328C237.159 200.169 236.893 199.911 236.702 199.555C236.511 199.199 236.415 198.727 236.415 198.137V189.666ZM243.252 188.16V200.4H241.34V188.16H243.252ZM242.918 195.77L242.296 195.762C242.301 195.167 242.384 194.617 242.543 194.113C242.708 193.608 242.936 193.17 243.228 192.798C243.526 192.421 243.882 192.131 244.296 191.929C244.711 191.722 245.17 191.618 245.675 191.618C246.1 191.618 246.482 191.677 246.822 191.794C247.168 191.911 247.465 192.099 247.715 192.36C247.964 192.615 248.153 192.949 248.281 193.364C248.413 193.773 248.48 194.272 248.48 194.862V200.4H246.551V194.846C246.551 194.431 246.49 194.102 246.368 193.858C246.251 193.613 246.079 193.438 245.85 193.332C245.622 193.22 245.343 193.164 245.013 193.164C244.668 193.164 244.363 193.233 244.097 193.372C243.837 193.51 243.619 193.698 243.444 193.937C243.268 194.176 243.135 194.453 243.045 194.766C242.96 195.08 242.918 195.414 242.918 195.77Z" fill="#464646"/>
<path fill-rule="evenodd" clip-rule="evenodd" d="M271.406 190.83H268.74C268.644 190.83 268.567 190.908 268.567 191.005V192.399C268.567 192.473 268.609 192.54 268.674 192.572L271.309 193.841C271.434 193.902 271.58 193.809 271.58 193.669V191.005C271.58 190.908 271.502 190.83 271.406 190.83V190.83Z" fill="black"/>
<path fill-rule="evenodd" clip-rule="evenodd" d="M287.088 191.004C287.087 190.908 287.01 190.83 286.914 190.83H278.026C277.93 190.83 277.853 190.908 277.853 191.005V193.507C277.853 193.603 277.93 193.681 278.026 193.681H280.963V202.398C280.963 202.494 281.041 202.572 281.136 202.572H283.803C283.899 202.572 283.976 202.494 283.976 202.398V193.744L286.916 193.749C287.016 193.749 287.097 193.667 287.096 193.567L287.087 191.004L287.088 191.004Z" fill="black"/>
<path fill-rule="evenodd" clip-rule="evenodd" d="M279.58 199.986H276.314V191.005C276.314 190.908 276.236 190.83 276.141 190.83H273.457C273.361 190.83 273.284 190.908 273.284 191.005V202.398C273.284 202.494 273.361 202.572 273.457 202.572H279.744C279.747 202.57 279.75 202.567 279.753 202.564V200.161C279.753 200.064 279.675 199.986 279.58 199.986H279.58Z" fill="black"/>
<path fill-rule="evenodd" clip-rule="evenodd" d="M271.472 196.883L268.837 195.613C268.712 195.553 268.567 195.645 268.567 195.786V202.398C268.567 202.494 268.644 202.572 268.74 202.572H271.406C271.502 202.572 271.58 202.494 271.58 202.398V197.055C271.58 196.981 271.538 196.914 271.472 196.883V196.883Z" fill="black"/>
<path fill-rule="evenodd" clip-rule="evenodd" d="M264.182 195.567C263.315 195.227 262.688 194.982 262.688 194.442C262.688 193.902 263.152 193.539 263.843 193.539L263.866 193.54C264.42 193.587 265.045 193.825 266.001 194.271C266.089 194.312 266.194 194.272 266.233 194.182L267.157 192.034C267.194 191.95 267.159 191.851 267.078 191.809C265.754 191.126 264.719 190.83 263.67 190.83C261.18 190.83 259.572 192.248 259.572 194.442C259.572 196.749 261.537 197.474 262.972 198.003C263.85 198.326 264.484 198.56 264.484 199.104C264.484 199.421 264.378 199.688 264.177 199.876C263.948 200.09 263.616 200.187 263.217 200.156C262.419 200.094 261.764 199.918 260.893 199.521C260.804 199.481 260.7 199.523 260.662 199.614L259.843 201.602C259.808 201.687 259.844 201.785 259.925 201.826C260.985 202.351 262.014 202.569 263.406 202.569C266.019 202.569 267.579 201.323 267.579 199.236C267.579 196.898 265.615 196.129 264.182 195.567Z" fill="black"/>
<path fill-rule="evenodd" clip-rule="evenodd" d="M290.846 188.713C289.463 187.18 287.584 186.23 285.554 186.038L263.216 186C258.686 186 255 189.732 255 194.32C255 197.331 256.588 199.974 258.961 201.434C259.028 201.476 259.116 201.446 259.147 201.372L260.051 199.205C260.075 199.148 260.056 199.081 260.005 199.046C260.005 199.046 260.004 199.045 260.004 199.045C258.467 197.971 257.55 196.204 257.55 194.32C257.55 191.156 260.092 188.582 263.216 188.582H284.857C287.882 188.582 290.408 191.016 290.45 194.08C290.471 195.623 289.889 197.103 288.817 198.238C287.819 199.294 286.522 199.914 285.139 200.004C285.043 200.01 284.967 200.089 284.967 200.187V202.408C284.967 202.512 285.053 202.597 285.156 202.591C287.185 202.483 289.094 201.605 290.568 200.093C292.136 198.484 293 196.378 293 194.161C293 192.085 292.235 190.252 290.846 188.713Z" fill="#0088FF"/>
</g>
<path d="M165.098 134.486L160.176 125.922H162.793L166.24 131.947L169.697 125.922H172.314L167.373 134.486V141H165.098V134.486ZM171.826 136.176C171.826 134.802 172.318 133.633 173.301 132.67C174.284 131.706 175.482 131.225 176.895 131.225C178.314 131.225 179.518 131.71 180.508 132.68C181.484 133.65 181.973 134.841 181.973 136.254C181.973 137.68 181.481 138.874 180.498 139.838C179.508 140.795 178.294 141.273 176.855 141.273C175.43 141.273 174.235 140.785 173.271 139.809C172.308 138.845 171.826 137.634 171.826 136.176ZM174.072 136.215C174.072 137.165 174.326 137.917 174.834 138.471C175.355 139.031 176.042 139.311 176.895 139.311C177.754 139.311 178.441 139.034 178.955 138.48C179.469 137.927 179.727 137.188 179.727 136.264C179.727 135.339 179.469 134.6 178.955 134.047C178.434 133.487 177.747 133.207 176.895 133.207C176.055 133.207 175.374 133.487 174.854 134.047C174.333 134.607 174.072 135.329 174.072 136.215ZM186.504 131.488V136.947C186.504 138.523 187.126 139.311 188.369 139.311C189.613 139.311 190.234 138.523 190.234 136.947V131.488H192.432V136.996C192.432 137.758 192.337 138.415 192.148 138.969C191.966 139.464 191.65 139.91 191.201 140.307C190.459 140.951 189.515 141.273 188.369 141.273C187.23 141.273 186.289 140.951 185.547 140.307C185.091 139.91 184.769 139.464 184.58 138.969C184.398 138.526 184.307 137.868 184.307 136.996V131.488H186.504ZM195.205 131.488H197.402V132.338C197.806 131.915 198.164 131.625 198.477 131.469C198.796 131.306 199.173 131.225 199.609 131.225C200.189 131.225 200.794 131.413 201.426 131.791L200.42 133.803C200.003 133.503 199.596 133.354 199.199 133.354C198.001 133.354 197.402 134.258 197.402 136.068V141H195.205V131.488ZM218.135 137.338H211.68L210 141H207.549L215.01 124.975L222.207 141H219.717L218.135 137.338ZM217.207 135.199L214.971 130.072L212.627 135.199H217.207ZM225.879 146.176H223.682V131.488H225.879V132.523C226.745 131.658 227.728 131.225 228.828 131.225C230.137 131.225 231.214 131.706 232.061 132.67C232.92 133.627 233.35 134.835 233.35 136.293C233.35 137.719 232.923 138.907 232.07 139.857C231.224 140.801 230.156 141.273 228.867 141.273C227.754 141.273 226.758 140.827 225.879 139.936V146.176ZM231.104 136.303C231.104 135.391 230.856 134.649 230.361 134.076C229.86 133.497 229.229 133.207 228.467 133.207C227.66 133.207 227.005 133.487 226.504 134.047C226.003 134.607 225.752 135.342 225.752 136.254C225.752 137.146 226.003 137.882 226.504 138.461C226.999 139.027 227.65 139.311 228.457 139.311C229.219 139.311 229.847 139.024 230.342 138.451C230.85 137.878 231.104 137.162 231.104 136.303ZM237.871 146.176H235.674V131.488H237.871V132.523C238.737 131.658 239.72 131.225 240.82 131.225C242.129 131.225 243.206 131.706 244.053 132.67C244.912 133.627 245.342 134.835 245.342 136.293C245.342 137.719 244.915 138.907 244.062 139.857C243.216 140.801 242.148 141.273 240.859 141.273C239.746 141.273 238.75 140.827 237.871 139.936V146.176ZM243.096 136.303C243.096 135.391 242.848 134.649 242.354 134.076C241.852 133.497 241.221 133.207 240.459 133.207C239.652 133.207 238.997 133.487 238.496 134.047C237.995 134.607 237.744 135.342 237.744 136.254C237.744 137.146 237.995 137.882 238.496 138.461C238.991 139.027 239.642 139.311 240.449 139.311C241.211 139.311 241.839 139.024 242.334 138.451C242.842 137.878 243.096 137.162 243.096 136.303ZM254.756 124.34L256.572 125.141L247.939 145.121L246.143 144.311L254.756 124.34ZM259.199 125.922L263.125 136L267.227 125.189L271.152 136L275.322 125.922H277.793L271.055 141.957L267.178 131.273L263.135 141.967L256.729 125.922H259.199ZM286.738 136.762H279.922C279.98 137.543 280.234 138.165 280.684 138.627C281.133 139.083 281.709 139.311 282.412 139.311C282.959 139.311 283.411 139.18 283.77 138.92C284.121 138.66 284.521 138.178 284.971 137.475L286.826 138.51C286.54 138.998 286.237 139.418 285.918 139.77C285.599 140.115 285.257 140.401 284.893 140.629C284.528 140.85 284.134 141.013 283.711 141.117C283.288 141.221 282.829 141.273 282.334 141.273C280.915 141.273 279.775 140.818 278.916 139.906C278.057 138.988 277.627 137.771 277.627 136.254C277.627 134.75 278.044 133.533 278.877 132.602C279.717 131.684 280.83 131.225 282.217 131.225C283.617 131.225 284.723 131.671 285.537 132.562C286.344 133.448 286.748 134.675 286.748 136.244L286.738 136.762ZM284.482 134.965C284.176 133.793 283.438 133.207 282.266 133.207C281.999 133.207 281.748 133.249 281.514 133.334C281.279 133.412 281.064 133.529 280.869 133.686C280.68 133.835 280.518 134.018 280.381 134.232C280.244 134.447 280.14 134.691 280.068 134.965H284.482ZM291.348 124.506V132.592C292.227 131.68 293.223 131.225 294.336 131.225C295.618 131.225 296.686 131.703 297.539 132.66C298.392 133.611 298.818 134.796 298.818 136.215C298.818 137.68 298.389 138.891 297.529 139.848C296.676 140.798 295.599 141.273 294.297 141.273C293.197 141.273 292.214 140.85 291.348 140.004V141H289.15V124.506H291.348ZM296.572 136.312C296.572 135.401 296.325 134.659 295.83 134.086C295.329 133.5 294.701 133.207 293.945 133.207C293.138 133.207 292.48 133.49 291.973 134.057C291.471 134.617 291.221 135.346 291.221 136.244C291.221 137.169 291.468 137.908 291.963 138.461C292.458 139.027 293.109 139.311 293.916 139.311C294.678 139.311 295.309 139.027 295.811 138.461C296.318 137.888 296.572 137.172 296.572 136.312Z" fill="#464646"/>
</g>
<defs>
<filter id="filter0_d_0_1" x="-10" y="529" width="222" height="63" filterUnits="userSpaceOnUse" color-interpolation-filters="sRGB">
<feFlood flood-opacity="0" result="BackgroundImageFix"/>
<feColorMatrix in="SourceAlpha" type="matrix" values="0 0 0 0 0 0 0 0 0 0 0 0 0 0 0 0 0 0 127 0" result="hardAlpha"/>
<feMorphology radius="5" operator="erode" in="SourceAlpha" result="effect1_dropShadow_0_1"/>
<feOffset dy="5"/>
<feGaussianBlur stdDeviation="7.5"/>
<feColorMatrix type="matrix" values="0 0 0 0 0 0 0 0 0 0 0 0 0 0 0 0 0 0 0.35 0"/>
<feBlend mode="normal" in2="BackgroundImageFix" result="effect1_dropShadow_0_1"/>
<feBlend mode="normal" in="SourceGraphic" in2="effect1_dropShadow_0_1" result="shape"/>
</filter>
<filter id="filter1_d_0_1" x="233" y="529" width="229" height="63" filterUnits="userSpaceOnUse" color-interpolation-filters="sRGB">
<feFlood flood-opacity="0" result="BackgroundImageFix"/>
<feColorMatrix in="SourceAlpha" type="matrix" values="0 0 0 0 0 0 0 0 0 0 0 0 0 0 0 0 0 0 127 0" result="hardAlpha"/>
<feMorphology radius="5" operator="erode" in="SourceAlpha" result="effect1_dropShadow_0_1"/>
<feOffset dy="5"/>
<feGaussianBlur stdDeviation="7.5"/>
<feColorMatrix type="matrix" values="0 0 0 0 0 0 0 0 0 0 0 0 0 0 0 0 0 0 0.35 0"/>
<feBlend mode="normal" in2="BackgroundImageFix" result="effect1_dropShadow_0_1"/>
<feBlend mode="normal" in="SourceGraphic" in2="effect1_dropShadow_0_1" result="shape"/>
</filter>
<filter id="filter2_d_0_1" x="71" y="262" width="307" height="232" filterUnits="userSpaceOnUse" color-interpolation-filters="sRGB">
<feFlood flood-opacity="0" result="BackgroundImageFix"/>
<feColorMatrix in="SourceAlpha" type="matrix" values="0 0 0 0 0 0 0 0 0 0 0 0 0 0 0 0 0 0 127 0" result="hardAlpha"/>
<feMorphology radius="11" operator="erode" in="SourceAlpha" result="effect1_dropShadow_0_1"/>
<feOffset dy="5"/>
<feGaussianBlur stdDeviation="17.5"/>
<feColorMatrix type="matrix" values="0 0 0 0 0 0 0 0 0 0 0 0 0 0 0 0 0 0 0.35 0"/>
<feBlend mode="normal" in2="BackgroundImageFix" result="effect1_dropShadow_0_1"/>
<feBlend mode="normal" in="SourceGraphic" in2="effect1_dropShadow_0_1" result="shape"/>
</filter>
<filter id="filter3_d_0_1" x="132" y="104" width="197" height="136" filterUnits="userSpaceOnUse" color-interpolation-filters="sRGB">
<feFlood flood-opacity="0" result="BackgroundImageFix"/>
<feColorMatrix in="SourceAlpha" type="matrix" values="0 0 0 0 0 0 0 0 0 0 0 0 0 0 0 0 0 0 127 0" result="hardAlpha"/>
<feOffset dy="4"/>
<feGaussianBlur stdDeviation="2"/>
<feComposite in2="hardAlpha" operator="out"/>
<feColorMatrix type="matrix" values="0 0 0 0 0 0 0 0 0 0 0 0 0 0 0 0 0 0 0.15 0"/>
<feBlend mode="normal" in2="BackgroundImageFix" result="effect1_dropShadow_0_1"/>
<feBlend mode="normal" in="SourceGraphic" in2="effect1_dropShadow_0_1" result="shape"/>
</filter>
<filter id="filter4_d_0_1" x="157.2" y="175.4" width="147" height="40" filterUnits="userSpaceOnUse" color-interpolation-filters="sRGB">
<feFlood flood-opacity="0" result="BackgroundImageFix"/>
<feColorMatrix in="SourceAlpha" type="matrix" values="0 0 0 0 0 0 0 0 0 0 0 0 0 0 0 0 0 0 127 0" result="hardAlpha"/>
<feOffset dy="1"/>
<feGaussianBlur stdDeviation="1.5"/>
<feColorMatrix type="matrix" values="0 0 0 0 0.613948 0 0 0 0 0.613948 0 0 0 0 0.613948 0 0 0 0.5 0"/>
<feBlend mode="normal" in2="BackgroundImageFix" result="effect1_dropShadow_0_1"/>
<feBlend mode="normal" in="SourceGraphic" in2="effect1_dropShadow_0_1" result="shape"/>
</filter>
<clipPath id="clip0_0_1">
<rect width="202" height="43" fill="white" transform="translate(0 534)"/>
</clipPath>
<clipPath id="clip1_0_1">
<rect width="209" height="43" fill="white" transform="translate(243 534)"/>
</clipPath>
<clipPath id="clip2_0_1">
<rect width="141" height="34" fill="white" transform="translate(160.2 177.4)"/>
</clipPath>
</defs>
</svg>
