<svg width="508" height="582" viewBox="0 0 508 582" fill="none" xmlns="http://www.w3.org/2000/svg">
<g clip-path="url(#clip0_0_1)">
<g filter="url(#filter0_d_0_1)">
<rect y="539" width="240" height="43" rx="10" fill="#2963FF"/>
</g>
<path d="M50.2969 550.922V560.004C50.2969 561.299 50.5085 562.247 50.9316 562.846C51.5632 563.712 52.4518 564.145 53.5977 564.145C54.75 564.145 55.6419 563.712 56.2734 562.846C56.6966 562.266 56.9082 561.319 56.9082 560.004V550.922H59.1836V560.629C59.1836 562.217 58.6888 563.526 57.6992 564.555C56.5859 565.701 55.2188 566.273 53.5977 566.273C51.9766 566.273 50.6126 565.701 49.5059 564.555C48.5163 563.526 48.0215 562.217 48.0215 560.629V550.922H50.2969ZM67.9141 558.109L66.0977 559.076C65.8112 558.49 65.4564 558.197 65.0332 558.197C64.8314 558.197 64.6589 558.266 64.5156 558.402C64.3724 558.533 64.3008 558.702 64.3008 558.91C64.3008 559.275 64.724 559.636 65.5703 559.994C66.7357 560.495 67.5202 560.958 67.9238 561.381C68.3275 561.804 68.5293 562.374 68.5293 563.09C68.5293 564.008 68.1908 564.776 67.5137 565.395C66.8561 565.98 66.0618 566.273 65.1309 566.273C63.5358 566.273 62.4062 565.495 61.7422 563.939L63.6172 563.07C63.8776 563.526 64.0762 563.816 64.2129 563.939C64.4798 564.187 64.7988 564.311 65.1699 564.311C65.9121 564.311 66.2832 563.972 66.2832 563.295C66.2832 562.904 65.9967 562.54 65.4238 562.201C65.2025 562.09 64.9811 561.983 64.7598 561.879C64.5384 561.775 64.3138 561.667 64.0859 561.557C63.4479 561.244 62.9987 560.932 62.7383 560.619C62.4062 560.222 62.2402 559.711 62.2402 559.086C62.2402 558.259 62.5234 557.576 63.0898 557.035C63.6693 556.495 64.3724 556.225 65.1992 556.225C66.4167 556.225 67.3216 556.853 67.9141 558.109ZM72.709 556.488V561.947C72.709 563.523 73.3307 564.311 74.5742 564.311C75.8177 564.311 76.4395 563.523 76.4395 561.947V556.488H78.6367V561.996C78.6367 562.758 78.5423 563.415 78.3535 563.969C78.1712 564.464 77.8555 564.91 77.4062 565.307C76.6641 565.951 75.7201 566.273 74.5742 566.273C73.4349 566.273 72.4941 565.951 71.752 565.307C71.2962 564.91 70.974 564.464 70.7852 563.969C70.6029 563.526 70.5117 562.868 70.5117 561.996V556.488H72.709ZM88.4219 556.488H90.6289V566H88.4219V565.004C87.5169 565.85 86.5436 566.273 85.502 566.273C84.1868 566.273 83.0996 565.798 82.2402 564.848C81.3874 563.878 80.9609 562.667 80.9609 561.215C80.9609 559.789 81.3874 558.601 82.2402 557.65C83.0931 556.7 84.1608 556.225 85.4434 556.225C86.5501 556.225 87.543 556.68 88.4219 557.592V556.488ZM83.207 561.215C83.207 562.126 83.4512 562.868 83.9395 563.441C84.4408 564.021 85.0723 564.311 85.834 564.311C86.6478 564.311 87.3053 564.031 87.8066 563.471C88.3079 562.891 88.5586 562.156 88.5586 561.264C88.5586 560.372 88.3079 559.636 87.8066 559.057C87.3053 558.49 86.6543 558.207 85.8535 558.207C85.0983 558.207 84.4668 558.493 83.959 559.066C83.4577 559.646 83.207 560.362 83.207 561.215ZM93.4023 556.488H95.5996V557.338C96.0033 556.915 96.3613 556.625 96.6738 556.469C96.9928 556.306 97.3704 556.225 97.8066 556.225C98.3861 556.225 98.9915 556.413 99.623 556.791L98.6172 558.803C98.2005 558.503 97.7936 558.354 97.3965 558.354C96.1986 558.354 95.5996 559.258 95.5996 561.068V566H93.4023V556.488ZM103.393 556.488V566H101.195V556.488H103.393ZM100.863 552.533C100.863 552.149 101.003 551.817 101.283 551.537C101.563 551.257 101.898 551.117 102.289 551.117C102.686 551.117 103.025 551.257 103.305 551.537C103.585 551.811 103.725 552.146 103.725 552.543C103.725 552.94 103.585 553.279 103.305 553.559C103.031 553.839 102.696 553.979 102.299 553.979C101.902 553.979 101.563 553.839 101.283 553.559C101.003 553.279 100.863 552.937 100.863 552.533ZM105.727 561.176C105.727 559.802 106.218 558.633 107.201 557.67C108.184 556.706 109.382 556.225 110.795 556.225C112.214 556.225 113.419 556.71 114.408 557.68C115.385 558.65 115.873 559.841 115.873 561.254C115.873 562.68 115.382 563.874 114.398 564.838C113.409 565.795 112.195 566.273 110.756 566.273C109.33 566.273 108.135 565.785 107.172 564.809C106.208 563.845 105.727 562.634 105.727 561.176ZM107.973 561.215C107.973 562.165 108.227 562.917 108.734 563.471C109.255 564.031 109.942 564.311 110.795 564.311C111.654 564.311 112.341 564.034 112.855 563.48C113.37 562.927 113.627 562.188 113.627 561.264C113.627 560.339 113.37 559.6 112.855 559.047C112.335 558.487 111.648 558.207 110.795 558.207C109.955 558.207 109.275 558.487 108.754 559.047C108.233 559.607 107.973 560.329 107.973 561.215ZM131.781 556.898V559.818C131.28 559.206 130.831 558.786 130.434 558.559C130.043 558.324 129.584 558.207 129.057 558.207C128.23 558.207 127.543 558.497 126.996 559.076C126.449 559.656 126.176 560.382 126.176 561.254C126.176 562.146 126.439 562.878 126.967 563.451C127.501 564.024 128.181 564.311 129.008 564.311C129.535 564.311 130.001 564.197 130.404 563.969C130.795 563.747 131.254 563.318 131.781 562.68V565.58C130.889 566.042 129.997 566.273 129.105 566.273C127.634 566.273 126.404 565.798 125.414 564.848C124.424 563.891 123.93 562.702 123.93 561.283C123.93 559.864 124.431 558.666 125.434 557.689C126.436 556.713 127.667 556.225 129.125 556.225C130.062 556.225 130.948 556.449 131.781 556.898ZM133.461 561.176C133.461 559.802 133.952 558.633 134.936 557.67C135.919 556.706 137.117 556.225 138.529 556.225C139.949 556.225 141.153 556.71 142.143 557.68C143.119 558.65 143.607 559.841 143.607 561.254C143.607 562.68 143.116 563.874 142.133 564.838C141.143 565.795 139.929 566.273 138.49 566.273C137.064 566.273 135.87 565.785 134.906 564.809C133.943 563.845 133.461 562.634 133.461 561.176ZM135.707 561.215C135.707 562.165 135.961 562.917 136.469 563.471C136.99 564.031 137.676 564.311 138.529 564.311C139.389 564.311 140.076 564.034 140.59 563.48C141.104 562.927 141.361 562.188 141.361 561.264C141.361 560.339 141.104 559.6 140.59 559.047C140.069 558.487 139.382 558.207 138.529 558.207C137.689 558.207 137.009 558.487 136.488 559.047C135.967 559.607 135.707 560.329 135.707 561.215ZM145.941 556.488H148.148V557.367C148.917 556.605 149.783 556.225 150.746 556.225C151.853 556.225 152.715 556.573 153.334 557.27C153.868 557.862 154.135 558.829 154.135 560.17V566H151.928V560.688C151.928 559.75 151.798 559.102 151.537 558.744C151.283 558.38 150.821 558.197 150.15 558.197C149.421 558.197 148.904 558.438 148.598 558.92C148.298 559.395 148.148 560.225 148.148 561.41V566H145.941V556.488ZM164.75 553.979H162.553V553.09C162.553 552.608 162.396 552.185 162.084 551.82C161.752 551.449 161.345 551.264 160.863 551.264C160.388 551.264 159.988 551.446 159.662 551.811C159.343 552.169 159.184 552.595 159.184 553.09V556.488H161.703V558.539H159.184V566H156.986V558.539H156.205V556.488H156.986V553.09C156.986 552.022 157.364 551.111 158.119 550.355C158.881 549.594 159.799 549.213 160.873 549.213C161.941 549.213 162.852 549.594 163.607 550.355C164.369 551.111 164.75 552.022 164.75 553.09V553.979ZM164.75 566H162.553V556.488H164.75V566ZM167.543 556.488H169.74V557.338C170.144 556.915 170.502 556.625 170.814 556.469C171.133 556.306 171.511 556.225 171.947 556.225C172.527 556.225 173.132 556.413 173.764 556.791L172.758 558.803C172.341 558.503 171.934 558.354 171.537 558.354C170.339 558.354 169.74 559.258 169.74 561.068V566H167.543V556.488ZM175.336 556.488H177.533V557.367C177.956 556.924 178.318 556.625 178.617 556.469C178.936 556.306 179.337 556.225 179.818 556.225C180.893 556.225 181.742 556.693 182.367 557.631C183.057 556.693 183.992 556.225 185.17 556.225C187.312 556.225 188.383 557.523 188.383 560.121V566H186.176V560.717C186.176 559.805 186.065 559.161 185.844 558.783C185.616 558.399 185.242 558.207 184.721 558.207C184.115 558.207 183.673 558.435 183.393 558.891C183.119 559.346 182.982 560.079 182.982 561.088V566H180.775V560.746C180.775 559.053 180.287 558.207 179.311 558.207C178.692 558.207 178.24 558.438 177.953 558.9C177.673 559.363 177.533 560.092 177.533 561.088V566H175.336V556.488ZM198.168 556.488H200.375V566H198.168V565.004C197.263 565.85 196.29 566.273 195.248 566.273C193.933 566.273 192.846 565.798 191.986 564.848C191.133 563.878 190.707 562.667 190.707 561.215C190.707 559.789 191.133 558.601 191.986 557.65C192.839 556.7 193.907 556.225 195.189 556.225C196.296 556.225 197.289 556.68 198.168 557.592V556.488ZM192.953 561.215C192.953 562.126 193.197 562.868 193.686 563.441C194.187 564.021 194.818 564.311 195.58 564.311C196.394 564.311 197.051 564.031 197.553 563.471C198.054 562.891 198.305 562.156 198.305 561.264C198.305 560.372 198.054 559.636 197.553 559.057C197.051 558.49 196.4 558.207 195.6 558.207C194.844 558.207 194.213 558.493 193.705 559.066C193.204 559.646 192.953 560.362 192.953 561.215ZM210.16 549.506H212.367V566H210.16V565.004C209.294 565.85 208.314 566.273 207.221 566.273C205.919 566.273 204.838 565.798 203.979 564.848C203.126 563.878 202.699 562.667 202.699 561.215C202.699 559.796 203.126 558.611 203.979 557.66C204.825 556.703 205.889 556.225 207.172 556.225C208.285 556.225 209.281 556.68 210.16 557.592V549.506ZM204.945 561.215C204.945 562.126 205.189 562.868 205.678 563.441C206.179 564.021 206.811 564.311 207.572 564.311C208.386 564.311 209.044 564.031 209.545 563.471C210.046 562.891 210.297 562.156 210.297 561.264C210.297 560.372 210.046 559.636 209.545 559.057C209.044 558.49 208.393 558.207 207.592 558.207C206.837 558.207 206.205 558.493 205.697 559.066C205.196 559.646 204.945 560.362 204.945 561.215ZM214.691 561.176C214.691 559.802 215.183 558.633 216.166 557.67C217.149 556.706 218.347 556.225 219.76 556.225C221.179 556.225 222.383 556.71 223.373 557.68C224.35 558.65 224.838 559.841 224.838 561.254C224.838 562.68 224.346 563.874 223.363 564.838C222.374 565.795 221.16 566.273 219.721 566.273C218.295 566.273 217.1 565.785 216.137 564.809C215.173 563.845 214.691 562.634 214.691 561.176ZM216.938 561.215C216.938 562.165 217.191 562.917 217.699 563.471C218.22 564.031 218.907 564.311 219.76 564.311C220.619 564.311 221.306 564.034 221.82 563.48C222.335 562.927 222.592 562.188 222.592 561.264C222.592 560.339 222.335 559.6 221.82 559.047C221.299 558.487 220.613 558.207 219.76 558.207C218.92 558.207 218.24 558.487 217.719 559.047C217.198 559.607 216.938 560.329 216.938 561.215Z" fill="white"/>
<path fill-rule="evenodd" clip-rule="evenodd" d="M13.2489 562.079C12.917 561.739 12.917 561.187 13.2489 560.846L14.451 559.614C14.7829 559.273 15.3212 559.273 15.6531 559.614L19.375 563.43L27.3469 555.255C27.6788 554.915 28.2171 554.915 28.549 555.255L29.7511 556.488C30.083 556.828 30.083 557.38 29.7511 557.721L19.976 567.745C19.6441 568.085 19.1059 568.085 18.774 567.745L13.2489 562.079Z" fill="white"/>
</g>
<g clip-path="url(#clip1_0_1)">
<g filter="url(#filter1_d_0_1)">
<rect x="268" y="539" width="240" height="43" rx="10" fill="#FF3295"/>
</g>
<path d="M323.141 550.922V560.004C323.141 561.299 323.352 562.247 323.775 562.846C324.407 563.712 325.296 564.145 326.441 564.145C327.594 564.145 328.486 563.712 329.117 562.846C329.54 562.266 329.752 561.319 329.752 560.004V550.922H332.027V560.629C332.027 562.217 331.533 563.526 330.543 564.555C329.43 565.701 328.062 566.273 326.441 566.273C324.82 566.273 323.456 565.701 322.35 564.555C321.36 563.526 320.865 562.217 320.865 560.629V550.922H323.141ZM340.758 558.109L338.941 559.076C338.655 558.49 338.3 558.197 337.877 558.197C337.675 558.197 337.503 558.266 337.359 558.402C337.216 558.533 337.145 558.702 337.145 558.91C337.145 559.275 337.568 559.636 338.414 559.994C339.579 560.495 340.364 560.958 340.768 561.381C341.171 561.804 341.373 562.374 341.373 563.09C341.373 564.008 341.035 564.776 340.357 565.395C339.7 565.98 338.906 566.273 337.975 566.273C336.38 566.273 335.25 565.495 334.586 563.939L336.461 563.07C336.721 563.526 336.92 563.816 337.057 563.939C337.324 564.187 337.643 564.311 338.014 564.311C338.756 564.311 339.127 563.972 339.127 563.295C339.127 562.904 338.84 562.54 338.268 562.201C338.046 562.09 337.825 561.983 337.604 561.879C337.382 561.775 337.158 561.667 336.93 561.557C336.292 561.244 335.842 560.932 335.582 560.619C335.25 560.222 335.084 559.711 335.084 559.086C335.084 558.259 335.367 557.576 335.934 557.035C336.513 556.495 337.216 556.225 338.043 556.225C339.26 556.225 340.165 556.853 340.758 558.109ZM345.553 556.488V561.947C345.553 563.523 346.174 564.311 347.418 564.311C348.661 564.311 349.283 563.523 349.283 561.947V556.488H351.48V561.996C351.48 562.758 351.386 563.415 351.197 563.969C351.015 564.464 350.699 564.91 350.25 565.307C349.508 565.951 348.564 566.273 347.418 566.273C346.279 566.273 345.338 565.951 344.596 565.307C344.14 564.91 343.818 564.464 343.629 563.969C343.447 563.526 343.355 562.868 343.355 561.996V556.488H345.553ZM361.266 556.488H363.473V566H361.266V565.004C360.361 565.85 359.387 566.273 358.346 566.273C357.031 566.273 355.943 565.798 355.084 564.848C354.231 563.878 353.805 562.667 353.805 561.215C353.805 559.789 354.231 558.601 355.084 557.65C355.937 556.7 357.005 556.225 358.287 556.225C359.394 556.225 360.387 556.68 361.266 557.592V556.488ZM356.051 561.215C356.051 562.126 356.295 562.868 356.783 563.441C357.285 564.021 357.916 564.311 358.678 564.311C359.492 564.311 360.149 564.031 360.65 563.471C361.152 562.891 361.402 562.156 361.402 561.264C361.402 560.372 361.152 559.636 360.65 559.057C360.149 558.49 359.498 558.207 358.697 558.207C357.942 558.207 357.311 558.493 356.803 559.066C356.301 559.646 356.051 560.362 356.051 561.215ZM366.246 556.488H368.443V557.338C368.847 556.915 369.205 556.625 369.518 556.469C369.837 556.306 370.214 556.225 370.65 556.225C371.23 556.225 371.835 556.413 372.467 556.791L371.461 558.803C371.044 558.503 370.637 558.354 370.24 558.354C369.042 558.354 368.443 559.258 368.443 561.068V566H366.246V556.488ZM376.236 556.488V566H374.039V556.488H376.236ZM373.707 552.533C373.707 552.149 373.847 551.817 374.127 551.537C374.407 551.257 374.742 551.117 375.133 551.117C375.53 551.117 375.868 551.257 376.148 551.537C376.428 551.811 376.568 552.146 376.568 552.543C376.568 552.94 376.428 553.279 376.148 553.559C375.875 553.839 375.54 553.979 375.143 553.979C374.745 553.979 374.407 553.839 374.127 553.559C373.847 553.279 373.707 552.937 373.707 552.533ZM378.57 561.176C378.57 559.802 379.062 558.633 380.045 557.67C381.028 556.706 382.226 556.225 383.639 556.225C385.058 556.225 386.262 556.71 387.252 557.68C388.229 558.65 388.717 559.841 388.717 561.254C388.717 562.68 388.225 563.874 387.242 564.838C386.253 565.795 385.038 566.273 383.6 566.273C382.174 566.273 380.979 565.785 380.016 564.809C379.052 563.845 378.57 562.634 378.57 561.176ZM380.816 561.215C380.816 562.165 381.07 562.917 381.578 563.471C382.099 564.031 382.786 564.311 383.639 564.311C384.498 564.311 385.185 564.034 385.699 563.48C386.214 562.927 386.471 562.188 386.471 561.264C386.471 560.339 386.214 559.6 385.699 559.047C385.178 558.487 384.492 558.207 383.639 558.207C382.799 558.207 382.118 558.487 381.598 559.047C381.077 559.607 380.816 560.329 380.816 561.215ZM404.234 549.506H406.441V566H404.234V565.004C403.368 565.85 402.389 566.273 401.295 566.273C399.993 566.273 398.912 565.798 398.053 564.848C397.2 563.878 396.773 562.667 396.773 561.215C396.773 559.796 397.2 558.611 398.053 557.66C398.899 556.703 399.964 556.225 401.246 556.225C402.359 556.225 403.355 556.68 404.234 557.592V549.506ZM399.02 561.215C399.02 562.126 399.264 562.868 399.752 563.441C400.253 564.021 400.885 564.311 401.646 564.311C402.46 564.311 403.118 564.031 403.619 563.471C404.12 562.891 404.371 562.156 404.371 561.264C404.371 560.372 404.12 559.636 403.619 559.057C403.118 558.49 402.467 558.207 401.666 558.207C400.911 558.207 400.279 558.493 399.771 559.066C399.27 559.646 399.02 560.362 399.02 561.215ZM417.877 561.762H411.061C411.119 562.543 411.373 563.165 411.822 563.627C412.271 564.083 412.848 564.311 413.551 564.311C414.098 564.311 414.55 564.18 414.908 563.92C415.26 563.66 415.66 563.178 416.109 562.475L417.965 563.51C417.678 563.998 417.376 564.418 417.057 564.77C416.738 565.115 416.396 565.401 416.031 565.629C415.667 565.85 415.273 566.013 414.85 566.117C414.426 566.221 413.967 566.273 413.473 566.273C412.053 566.273 410.914 565.818 410.055 564.906C409.195 563.988 408.766 562.771 408.766 561.254C408.766 559.75 409.182 558.533 410.016 557.602C410.855 556.684 411.969 556.225 413.355 556.225C414.755 556.225 415.862 556.671 416.676 557.562C417.483 558.448 417.887 559.675 417.887 561.244L417.877 561.762ZM415.621 559.965C415.315 558.793 414.576 558.207 413.404 558.207C413.137 558.207 412.887 558.249 412.652 558.334C412.418 558.412 412.203 558.529 412.008 558.686C411.819 558.835 411.656 559.018 411.52 559.232C411.383 559.447 411.279 559.691 411.207 559.965H415.621ZM420.289 556.488H422.496V557.367C423.264 556.605 424.13 556.225 425.094 556.225C426.201 556.225 427.063 556.573 427.682 557.27C428.215 557.862 428.482 558.829 428.482 560.17V566H426.275V560.688C426.275 559.75 426.145 559.102 425.885 558.744C425.631 558.38 425.169 558.197 424.498 558.197C423.769 558.197 423.251 558.438 422.945 558.92C422.646 559.395 422.496 560.225 422.496 561.41V566H420.289V556.488ZM439.928 561.762H433.111C433.17 562.543 433.424 563.165 433.873 563.627C434.322 564.083 434.898 564.311 435.602 564.311C436.148 564.311 436.601 564.18 436.959 563.92C437.311 563.66 437.711 563.178 438.16 562.475L440.016 563.51C439.729 563.998 439.426 564.418 439.107 564.77C438.788 565.115 438.447 565.401 438.082 565.629C437.717 565.85 437.324 566.013 436.9 566.117C436.477 566.221 436.018 566.273 435.523 566.273C434.104 566.273 432.965 565.818 432.105 564.906C431.246 563.988 430.816 562.771 430.816 561.254C430.816 559.75 431.233 558.533 432.066 557.602C432.906 556.684 434.02 556.225 435.406 556.225C436.806 556.225 437.913 556.671 438.727 557.562C439.534 558.448 439.938 559.675 439.938 561.244L439.928 561.762ZM437.672 559.965C437.366 558.793 436.627 558.207 435.455 558.207C435.188 558.207 434.938 558.249 434.703 558.334C434.469 558.412 434.254 558.529 434.059 558.686C433.87 558.835 433.707 559.018 433.57 559.232C433.434 559.447 433.329 559.691 433.258 559.965H437.672ZM451.539 565.775C451.539 566.225 451.523 566.618 451.49 566.957C451.464 567.302 451.425 567.605 451.373 567.865C451.217 568.581 450.911 569.197 450.455 569.711C449.596 570.701 448.414 571.195 446.91 571.195C445.641 571.195 444.596 570.854 443.775 570.17C442.929 569.467 442.441 568.493 442.311 567.25H444.518C444.602 567.719 444.742 568.08 444.938 568.334C445.393 568.926 446.057 569.223 446.93 569.223C448.538 569.223 449.342 568.236 449.342 566.264V564.936C448.469 565.827 447.464 566.273 446.324 566.273C445.029 566.273 443.967 565.805 443.141 564.867C442.307 563.917 441.891 562.729 441.891 561.303C441.891 559.916 442.278 558.738 443.053 557.768C443.886 556.739 444.986 556.225 446.354 556.225C447.551 556.225 448.548 556.671 449.342 557.562V556.488H451.539V565.775ZM449.43 561.264C449.43 560.339 449.182 559.6 448.688 559.047C448.186 558.48 447.545 558.197 446.764 558.197C445.93 558.197 445.273 558.507 444.791 559.125C444.355 559.678 444.137 560.395 444.137 561.273C444.137 562.139 444.355 562.849 444.791 563.402C445.266 564.008 445.924 564.311 446.764 564.311C447.604 564.311 448.268 564.005 448.756 563.393C449.205 562.839 449.43 562.13 449.43 561.264ZM461.324 556.488H463.531V566H461.324V565.004C460.419 565.85 459.446 566.273 458.404 566.273C457.089 566.273 456.002 565.798 455.143 564.848C454.29 563.878 453.863 562.667 453.863 561.215C453.863 559.789 454.29 558.601 455.143 557.65C455.995 556.7 457.063 556.225 458.346 556.225C459.452 556.225 460.445 556.68 461.324 557.592V556.488ZM456.109 561.215C456.109 562.126 456.354 562.868 456.842 563.441C457.343 564.021 457.975 564.311 458.736 564.311C459.55 564.311 460.208 564.031 460.709 563.471C461.21 562.891 461.461 562.156 461.461 561.264C461.461 560.372 461.21 559.636 460.709 559.057C460.208 558.49 459.557 558.207 458.756 558.207C458.001 558.207 457.369 558.493 456.861 559.066C456.36 559.646 456.109 560.362 456.109 561.215ZM473.316 549.506H475.523V566H473.316V565.004C472.451 565.85 471.471 566.273 470.377 566.273C469.075 566.273 467.994 565.798 467.135 564.848C466.282 563.878 465.855 562.667 465.855 561.215C465.855 559.796 466.282 558.611 467.135 557.66C467.981 556.703 469.046 556.225 470.328 556.225C471.441 556.225 472.438 556.68 473.316 557.592V549.506ZM468.102 561.215C468.102 562.126 468.346 562.868 468.834 563.441C469.335 564.021 469.967 564.311 470.729 564.311C471.542 564.311 472.2 564.031 472.701 563.471C473.202 562.891 473.453 562.156 473.453 561.264C473.453 560.372 473.202 559.636 472.701 559.057C472.2 558.49 471.549 558.207 470.748 558.207C469.993 558.207 469.361 558.493 468.854 559.066C468.352 559.646 468.102 560.362 468.102 561.215ZM477.848 561.176C477.848 559.802 478.339 558.633 479.322 557.67C480.305 556.706 481.503 556.225 482.916 556.225C484.335 556.225 485.54 556.71 486.529 557.68C487.506 558.65 487.994 559.841 487.994 561.254C487.994 562.68 487.503 563.874 486.52 564.838C485.53 565.795 484.316 566.273 482.877 566.273C481.451 566.273 480.257 565.785 479.293 564.809C478.329 563.845 477.848 562.634 477.848 561.176ZM480.094 561.215C480.094 562.165 480.348 562.917 480.855 563.471C481.376 564.031 482.063 564.311 482.916 564.311C483.775 564.311 484.462 564.034 484.977 563.48C485.491 562.927 485.748 562.188 485.748 561.264C485.748 560.339 485.491 559.6 484.977 559.047C484.456 558.487 483.769 558.207 482.916 558.207C482.076 558.207 481.396 558.487 480.875 559.047C480.354 559.607 480.094 560.329 480.094 561.215Z" fill="white"/>
<path fill-rule="evenodd" clip-rule="evenodd" d="M284.249 565.442C283.917 565.102 283.917 564.55 284.249 564.209L286.052 562.43L294.024 554.255C294.356 553.915 294.894 553.915 295.226 554.255L296.428 555.488C296.76 555.828 296.76 556.38 296.428 556.721L286.653 566.745C286.321 567.085 285.783 567.085 285.451 566.745L284.249 565.442Z" fill="white"/>
<path fill-rule="evenodd" clip-rule="evenodd" d="M296.428 565.442C296.76 565.102 296.76 564.55 296.428 564.209L294.625 562.43L286.653 554.255C286.321 553.915 285.783 553.915 285.451 554.255L284.249 555.488C283.917 555.828 283.917 556.38 284.249 556.721L294.024 566.745C294.356 567.085 294.894 567.085 295.226 566.745L296.428 565.442Z" fill="white"/>
</g>
<g filter="url(#filter2_d_0_1)">
<rect x="120" y="286" width="259" height="184" rx="10" fill="white"/>
</g>
<path d="M235.361 370.922V380.678C235.361 381.843 235.28 382.712 235.117 383.285C234.954 383.936 234.678 384.486 234.287 384.936C233.525 385.827 232.516 386.273 231.26 386.273C230.309 386.273 229.421 386.026 228.594 385.531L229.707 383.588C230.26 383.959 230.778 384.145 231.26 384.145C231.937 384.145 232.406 383.887 232.666 383.373C232.939 382.859 233.076 381.96 233.076 380.678V370.922H235.361ZM240.752 376.488V381.947C240.752 383.523 241.374 384.311 242.617 384.311C243.861 384.311 244.482 383.523 244.482 381.947V376.488H246.68V381.996C246.68 382.758 246.585 383.415 246.396 383.969C246.214 384.464 245.898 384.91 245.449 385.307C244.707 385.951 243.763 386.273 242.617 386.273C241.478 386.273 240.537 385.951 239.795 385.307C239.339 384.91 239.017 384.464 238.828 383.969C238.646 383.526 238.555 382.868 238.555 381.996V376.488H240.752ZM256.465 376.488H258.672V386H256.465V385.004C255.56 385.85 254.587 386.273 253.545 386.273C252.23 386.273 251.143 385.798 250.283 384.848C249.43 383.878 249.004 382.667 249.004 381.215C249.004 379.789 249.43 378.601 250.283 377.65C251.136 376.7 252.204 376.225 253.486 376.225C254.593 376.225 255.586 376.68 256.465 377.592V376.488ZM251.25 381.215C251.25 382.126 251.494 382.868 251.982 383.441C252.484 384.021 253.115 384.311 253.877 384.311C254.691 384.311 255.348 384.031 255.85 383.471C256.351 382.891 256.602 382.156 256.602 381.264C256.602 380.372 256.351 379.636 255.85 379.057C255.348 378.49 254.697 378.207 253.896 378.207C253.141 378.207 252.51 378.493 252.002 379.066C251.501 379.646 251.25 380.362 251.25 381.215ZM261.445 376.488H263.652V377.367C264.421 376.605 265.286 376.225 266.25 376.225C267.357 376.225 268.219 376.573 268.838 377.27C269.372 377.862 269.639 378.829 269.639 380.17V386H267.432V380.688C267.432 379.75 267.301 379.102 267.041 378.744C266.787 378.38 266.325 378.197 265.654 378.197C264.925 378.197 264.408 378.438 264.102 378.92C263.802 379.395 263.652 380.225 263.652 381.41V386H261.445V376.488Z" fill="#2963FF"/>
<line x1="191" y1="355" x2="309" y2="355" stroke="#2963FF" stroke-width="4" stroke-linecap="round"/>
<line x1="181" y1="341" x2="319" y2="341" stroke="#2963FF" stroke-width="4" stroke-linecap="round"/>
<line x1="209" y1="327" x2="291" y2="327" stroke="#2963FF" stroke-width="4" stroke-linecap="round"/>
<line x1="194" y1="426" x2="306" y2="426" stroke="#2963FF" stroke-width="4" stroke-linecap="round"/>
<line x1="201" y1="412" x2="299" y2="412" stroke="#2963FF" stroke-width="4" stroke-linecap="round"/>
<line x1="181" y1="398" x2="319" y2="398" stroke="#2963FF" stroke-width="4" stroke-linecap="round"/>
<path d="M185.6 29C191.892 29.0014 196.999 34.1083 197 40.4V43.9286C197 46.176 195.176 48 192.929 48H163.071C160.824 48 159 46.176 159 43.9286V40.4C159.001 34.1083 164.108 29.0014 170.4 29H171.817C173.441 29.7491 176.211 30.3571 178 30.3571C179.789 30.3571 182.559 29.7491 184.183 29H185.6Z" fill="#2963FF"/>
<path d="M178 27C171.928 27 167 22.072 167 16C167 9.928 171.928 5 178 5C184.072 5 189 9.928 189 16C189 22.072 184.072 27 178 27Z" fill="#2963FF" fill-opacity="0.5"/>
<path d="M339.6 29C345.892 29.0014 350.999 34.1083 351 40.4V43.9286C351 46.176 349.176 48 346.929 48H317.071C314.824 48 313 46.176 313 43.9286V40.4C313.001 34.1083 318.108 29.0014 324.4 29H325.817C327.441 29.7491 330.211 30.3571 332 30.3571C333.789 30.3571 336.559 29.7491 338.183 29H339.6Z" fill="#FF3295"/>
<path d="M332 27C325.928 27 321 22.072 321 16C321 9.928 325.928 5 332 5C338.072 5 343 9.928 343 16C343 22.072 338.072 27 332 27Z" fill="#FF3295" fill-opacity="0.5"/>
<path d="M24.6953 12.877V19H22.4199V3.92188H24.998C26.2611 3.92188 27.2148 4.00977 27.8594 4.18555C28.5104 4.36133 29.0833 4.69336 29.5781 5.18164C30.444 6.02799 30.877 7.0957 30.877 8.38477C30.877 9.76497 30.4147 10.8587 29.4902 11.666C28.5658 12.4733 27.319 12.877 25.75 12.877H24.6953ZM24.6953 10.7676H25.5449C27.6348 10.7676 28.6797 9.96354 28.6797 8.35547C28.6797 6.79948 27.6022 6.02148 25.4473 6.02148H24.6953V10.7676ZM40.9551 14.7617H34.1387C34.1973 15.543 34.4512 16.1647 34.9004 16.627C35.3496 17.0827 35.9258 17.3105 36.6289 17.3105C37.1758 17.3105 37.6283 17.1803 37.9863 16.9199C38.3379 16.6595 38.7383 16.1777 39.1875 15.4746L41.043 16.5098C40.7565 16.998 40.4538 17.418 40.1348 17.7695C39.8158 18.1146 39.474 18.401 39.1094 18.6289C38.7448 18.8503 38.3509 19.013 37.9277 19.1172C37.5046 19.2214 37.0456 19.2734 36.5508 19.2734C35.1315 19.2734 33.9922 18.8177 33.1328 17.9062C32.2734 16.9883 31.8438 15.7708 31.8438 14.2539C31.8438 12.75 32.2604 11.5326 33.0938 10.6016C33.9336 9.68359 35.0469 9.22461 36.4336 9.22461C37.8333 9.22461 38.9401 9.67057 39.7539 10.5625C40.5612 11.4479 40.9648 12.6751 40.9648 14.2441L40.9551 14.7617ZM38.6992 12.9648C38.3932 11.793 37.6543 11.207 36.4824 11.207C36.2155 11.207 35.9648 11.2493 35.7305 11.334C35.4961 11.4121 35.2812 11.5293 35.0859 11.6855C34.8971 11.8353 34.7344 12.0176 34.5977 12.2324C34.4609 12.4473 34.3568 12.6914 34.2852 12.9648H38.6992ZM43.3672 9.48828H45.5645V10.3379C45.9681 9.91471 46.3262 9.625 46.6387 9.46875C46.9577 9.30599 47.3353 9.22461 47.7715 9.22461C48.3509 9.22461 48.9564 9.41341 49.5879 9.79102L48.582 11.8027C48.1654 11.5033 47.7585 11.3535 47.3613 11.3535C46.1634 11.3535 45.5645 12.2585 45.5645 14.0684V19H43.3672V9.48828ZM56.375 11.1094L54.5586 12.0762C54.2721 11.4902 53.9173 11.1973 53.4941 11.1973C53.2923 11.1973 53.1198 11.2656 52.9766 11.4023C52.8333 11.5326 52.7617 11.7018 52.7617 11.9102C52.7617 12.2747 53.1849 12.6361 54.0312 12.9941C55.1966 13.4954 55.9811 13.9577 56.3848 14.3809C56.7884 14.804 56.9902 15.3737 56.9902 16.0898C56.9902 17.0078 56.6517 17.776 55.9746 18.3945C55.3171 18.9805 54.5228 19.2734 53.5918 19.2734C51.9967 19.2734 50.8672 18.4954 50.2031 16.9395L52.0781 16.0703C52.3385 16.526 52.5371 16.8158 52.6738 16.9395C52.9408 17.1868 53.2598 17.3105 53.6309 17.3105C54.373 17.3105 54.7441 16.972 54.7441 16.2949C54.7441 15.9043 54.4577 15.5397 53.8848 15.2012C53.6634 15.0905 53.4421 14.9831 53.2207 14.8789C52.9993 14.7747 52.7747 14.6673 52.5469 14.5566C51.9089 14.2441 51.4596 13.9316 51.1992 13.6191C50.8672 13.222 50.7012 12.7109 50.7012 12.0859C50.7012 11.2591 50.9844 10.5755 51.5508 10.0352C52.1302 9.49479 52.8333 9.22461 53.6602 9.22461C54.8776 9.22461 55.7826 9.85286 56.375 11.1094ZM58.5234 14.1758C58.5234 12.8021 59.015 11.6335 59.998 10.6699C60.9811 9.70638 62.179 9.22461 63.5918 9.22461C65.0111 9.22461 66.2155 9.70964 67.2051 10.6797C68.1816 11.6497 68.6699 12.8411 68.6699 14.2539C68.6699 15.6797 68.1784 16.8743 67.1953 17.8379C66.2057 18.7949 64.9915 19.2734 63.5527 19.2734C62.127 19.2734 60.9323 18.7852 59.9688 17.8086C59.0052 16.8451 58.5234 15.6341 58.5234 14.1758ZM60.7695 14.2148C60.7695 15.1654 61.0234 15.9173 61.5312 16.4707C62.0521 17.0306 62.7389 17.3105 63.5918 17.3105C64.4512 17.3105 65.138 17.0339 65.6523 16.4805C66.1667 15.9271 66.4238 15.1882 66.4238 14.2637C66.4238 13.3392 66.1667 12.6003 65.6523 12.0469C65.1315 11.487 64.4447 11.207 63.5918 11.207C62.752 11.207 62.0716 11.487 61.5508 12.0469C61.0299 12.6068 60.7695 13.3294 60.7695 14.2148ZM71.0039 9.48828H73.2109V10.3672C73.9792 9.60547 74.8451 9.22461 75.8086 9.22461C76.9154 9.22461 77.778 9.57292 78.3965 10.2695C78.9303 10.862 79.1973 11.8288 79.1973 13.1699V19H76.9902V13.6875C76.9902 12.75 76.86 12.1022 76.5996 11.7441C76.3457 11.3796 75.8835 11.1973 75.2129 11.1973C74.4837 11.1973 73.9661 11.4382 73.6602 11.9199C73.3607 12.3952 73.2109 13.2253 73.2109 14.4102V19H71.0039V9.48828ZM88.9922 9.48828H91.1992V19H88.9922V18.0039C88.0872 18.8503 87.1139 19.2734 86.0723 19.2734C84.7572 19.2734 83.6699 18.7982 82.8105 17.8477C81.9577 16.8776 81.5312 15.6667 81.5312 14.2148C81.5312 12.7891 81.9577 11.6009 82.8105 10.6504C83.6634 9.69987 84.7311 9.22461 86.0137 9.22461C87.1204 9.22461 88.1133 9.68034 88.9922 10.5918V9.48828ZM83.7773 14.2148C83.7773 15.1263 84.0215 15.8685 84.5098 16.4414C85.0111 17.0208 85.6426 17.3105 86.4043 17.3105C87.2181 17.3105 87.8757 17.0306 88.377 16.4707C88.8783 15.8913 89.1289 15.1556 89.1289 14.2637C89.1289 13.3717 88.8783 12.6361 88.377 12.0566C87.8757 11.4902 87.2246 11.207 86.4238 11.207C85.6686 11.207 85.0371 11.4935 84.5293 12.0664C84.028 12.6458 83.7773 13.362 83.7773 14.2148ZM94.3145 17.9062C94.3145 17.5417 94.4479 17.2259 94.7148 16.959C94.9818 16.6921 95.3008 16.5586 95.6719 16.5586C96.043 16.5586 96.362 16.6921 96.6289 16.959C96.8958 17.2259 97.0293 17.5449 97.0293 17.916C97.0293 18.2936 96.8958 18.6159 96.6289 18.8828C96.3685 19.1432 96.0495 19.2734 95.6719 19.2734C95.2878 19.2734 94.9655 19.1432 94.7051 18.8828C94.4447 18.6224 94.3145 18.2969 94.3145 17.9062ZM94.3145 10.5625C94.3145 10.2044 94.4479 9.89193 94.7148 9.625C94.9818 9.35807 95.3008 9.22461 95.6719 9.22461C96.043 9.22461 96.362 9.35807 96.6289 9.625C96.8958 9.89193 97.0293 10.2109 97.0293 10.582C97.0293 10.9596 96.8958 11.2819 96.6289 11.5488C96.3685 11.8092 96.0495 11.9395 95.6719 11.9395C95.2943 11.9395 94.972 11.806 94.7051 11.5391C94.4447 11.2786 94.3145 10.9531 94.3145 10.5625ZM111.326 3.92188V13.6777C111.326 14.8431 111.245 15.7122 111.082 16.2852C110.919 16.9362 110.643 17.4863 110.252 17.9355C109.49 18.8275 108.481 19.2734 107.225 19.2734C106.274 19.2734 105.385 19.026 104.559 18.5312L105.672 16.5879C106.225 16.959 106.743 17.1445 107.225 17.1445C107.902 17.1445 108.37 16.8874 108.631 16.373C108.904 15.8587 109.041 14.9603 109.041 13.6777V3.92188H111.326ZM116.717 9.48828V14.9473C116.717 16.5228 117.339 17.3105 118.582 17.3105C119.826 17.3105 120.447 16.5228 120.447 14.9473V9.48828H122.645V14.9961C122.645 15.7578 122.55 16.4154 122.361 16.9688C122.179 17.4635 121.863 17.9095 121.414 18.3066C120.672 18.9512 119.728 19.2734 118.582 19.2734C117.443 19.2734 116.502 18.9512 115.76 18.3066C115.304 17.9095 114.982 17.4635 114.793 16.9688C114.611 16.526 114.52 15.8685 114.52 14.9961V9.48828H116.717ZM132.43 9.48828H134.637V19H132.43V18.0039C131.525 18.8503 130.551 19.2734 129.51 19.2734C128.195 19.2734 127.107 18.7982 126.248 17.8477C125.395 16.8776 124.969 15.6667 124.969 14.2148C124.969 12.7891 125.395 11.6009 126.248 10.6504C127.101 9.69987 128.169 9.22461 129.451 9.22461C130.558 9.22461 131.551 9.68034 132.43 10.5918V9.48828ZM127.215 14.2148C127.215 15.1263 127.459 15.8685 127.947 16.4414C128.449 17.0208 129.08 17.3105 129.842 17.3105C130.656 17.3105 131.313 17.0306 131.814 16.4707C132.316 15.8913 132.566 15.1556 132.566 14.2637C132.566 13.3717 132.316 12.6361 131.814 12.0566C131.313 11.4902 130.662 11.207 129.861 11.207C129.106 11.207 128.475 11.4935 127.967 12.0664C127.465 12.6458 127.215 13.362 127.215 14.2148ZM137.41 9.48828H139.617V10.3672C140.385 9.60547 141.251 9.22461 142.215 9.22461C143.322 9.22461 144.184 9.57292 144.803 10.2695C145.337 10.862 145.604 11.8288 145.604 13.1699V19H143.396V13.6875C143.396 12.75 143.266 12.1022 143.006 11.7441C142.752 11.3796 142.29 11.1973 141.619 11.1973C140.89 11.1973 140.372 11.4382 140.066 11.9199C139.767 12.3952 139.617 13.2253 139.617 14.4102V19H137.41V9.48828ZM40.9258 31.7324V34.4277C39.6107 33.3275 38.25 32.7773 36.8438 32.7773C35.2943 32.7773 33.9889 33.334 32.9277 34.4473C31.86 35.554 31.3262 36.9082 31.3262 38.5098C31.3262 40.0918 31.86 41.4264 32.9277 42.5137C33.9954 43.6009 35.304 44.1445 36.8535 44.1445C37.6543 44.1445 38.3346 44.0143 38.8945 43.7539C39.207 43.6237 39.5293 43.4479 39.8613 43.2266C40.1999 43.0052 40.5547 42.7383 40.9258 42.4258V45.1699C39.6237 45.9056 38.2565 46.2734 36.8242 46.2734C34.6693 46.2734 32.8301 45.5215 31.3066 44.0176C29.7897 42.5007 29.0312 40.6712 29.0312 38.5293C29.0312 36.6087 29.666 34.8965 30.9355 33.3926C32.498 31.5501 34.5195 30.6289 37 30.6289C38.3542 30.6289 39.6628 30.9967 40.9258 31.7324ZM45.584 36.4883V41.9473C45.584 43.5228 46.2057 44.3105 47.4492 44.3105C48.6927 44.3105 49.3145 43.5228 49.3145 41.9473V36.4883H51.5117V41.9961C51.5117 42.7578 51.4173 43.4154 51.2285 43.9688C51.0462 44.4635 50.7305 44.9095 50.2812 45.3066C49.5391 45.9512 48.5951 46.2734 47.4492 46.2734C46.3099 46.2734 45.3691 45.9512 44.627 45.3066C44.1712 44.9095 43.849 44.4635 43.6602 43.9688C43.4779 43.526 43.3867 42.8685 43.3867 41.9961V36.4883H45.584ZM62.9473 41.7617H56.1309C56.1895 42.543 56.4434 43.1647 56.8926 43.627C57.3418 44.0827 57.918 44.3105 58.6211 44.3105C59.168 44.3105 59.6204 44.1803 59.9785 43.9199C60.3301 43.6595 60.7305 43.1777 61.1797 42.4746L63.0352 43.5098C62.7487 43.998 62.446 44.418 62.127 44.7695C61.8079 45.1146 61.4661 45.401 61.1016 45.6289C60.737 45.8503 60.3431 46.013 59.9199 46.1172C59.4967 46.2214 59.0378 46.2734 58.543 46.2734C57.1237 46.2734 55.9844 45.8177 55.125 44.9062C54.2656 43.9883 53.8359 42.7708 53.8359 41.2539C53.8359 39.75 54.2526 38.5326 55.0859 37.6016C55.9258 36.6836 57.0391 36.2246 58.4258 36.2246C59.8255 36.2246 60.9323 36.6706 61.7461 37.5625C62.5534 38.4479 62.957 39.6751 62.957 41.2441L62.9473 41.7617ZM60.6914 39.9648C60.3854 38.793 59.6465 38.207 58.4746 38.207C58.2077 38.207 57.957 38.2493 57.7227 38.334C57.4883 38.4121 57.2734 38.5293 57.0781 38.6855C56.8893 38.8353 56.7266 39.0176 56.5898 39.2324C56.4531 39.4473 56.349 39.6914 56.2773 39.9648H60.6914ZM65.3594 36.4883H67.5664V37.3672C68.3346 36.6055 69.2005 36.2246 70.1641 36.2246C71.2708 36.2246 72.1335 36.5729 72.752 37.2695C73.2858 37.862 73.5527 38.8288 73.5527 40.1699V46H71.3457V40.6875C71.3457 39.75 71.2155 39.1022 70.9551 38.7441C70.7012 38.3796 70.2389 38.1973 69.5684 38.1973C68.8392 38.1973 68.3216 38.4382 68.0156 38.9199C67.7161 39.3952 67.5664 40.2253 67.5664 41.4102V46H65.3594V36.4883ZM78.6016 38.5391V46H76.4043V38.5391H75.4668V36.4883H76.4043V33.002H78.6016V36.4883H80.3105V38.5391H78.6016ZM88.9922 36.4883H91.1992V46H88.9922V45.0039C88.0872 45.8503 87.1139 46.2734 86.0723 46.2734C84.7572 46.2734 83.6699 45.7982 82.8105 44.8477C81.9577 43.8776 81.5312 42.6667 81.5312 41.2148C81.5312 39.7891 81.9577 38.6009 82.8105 37.6504C83.6634 36.6999 84.7311 36.2246 86.0137 36.2246C87.1204 36.2246 88.1133 36.6803 88.9922 37.5918V36.4883ZM83.7773 41.2148C83.7773 42.1263 84.0215 42.8685 84.5098 43.4414C85.0111 44.0208 85.6426 44.3105 86.4043 44.3105C87.2181 44.3105 87.8757 44.0306 88.377 43.4707C88.8783 42.8913 89.1289 42.1556 89.1289 41.2637C89.1289 40.3717 88.8783 39.6361 88.377 39.0566C87.8757 38.4902 87.2246 38.207 86.4238 38.207C85.6686 38.207 85.0371 38.4935 84.5293 39.0664C84.028 39.6458 83.7773 40.362 83.7773 41.2148ZM94.3145 44.9062C94.3145 44.5417 94.4479 44.2259 94.7148 43.959C94.9818 43.6921 95.3008 43.5586 95.6719 43.5586C96.043 43.5586 96.362 43.6921 96.6289 43.959C96.8958 44.2259 97.0293 44.5449 97.0293 44.916C97.0293 45.2936 96.8958 45.6159 96.6289 45.8828C96.3685 46.1432 96.0495 46.2734 95.6719 46.2734C95.2878 46.2734 94.9655 46.1432 94.7051 45.8828C94.4447 45.6224 94.3145 45.2969 94.3145 44.9062ZM94.3145 37.5625C94.3145 37.2044 94.4479 36.8919 94.7148 36.625C94.9818 36.3581 95.3008 36.2246 95.6719 36.2246C96.043 36.2246 96.362 36.3581 96.6289 36.625C96.8958 36.8919 97.0293 37.2109 97.0293 37.582C97.0293 37.9596 96.8958 38.2819 96.6289 38.5488C96.3685 38.8092 96.0495 38.9395 95.6719 38.9395C95.2943 38.9395 94.972 38.806 94.7051 38.5391C94.4447 38.2786 94.3145 37.9531 94.3145 37.5625ZM111.326 30.9219V40.6777C111.326 41.8431 111.245 42.7122 111.082 43.2852C110.919 43.9362 110.643 44.4863 110.252 44.9355C109.49 45.8275 108.481 46.2734 107.225 46.2734C106.274 46.2734 105.385 46.026 104.559 45.5312L105.672 43.5879C106.225 43.959 106.743 44.1445 107.225 44.1445C107.902 44.1445 108.37 43.8874 108.631 43.373C108.904 42.8587 109.041 41.9603 109.041 40.6777V30.9219H111.326ZM116.717 36.4883V41.9473C116.717 43.5228 117.339 44.3105 118.582 44.3105C119.826 44.3105 120.447 43.5228 120.447 41.9473V36.4883H122.645V41.9961C122.645 42.7578 122.55 43.4154 122.361 43.9688C122.179 44.4635 121.863 44.9095 121.414 45.3066C120.672 45.9512 119.728 46.2734 118.582 46.2734C117.443 46.2734 116.502 45.9512 115.76 45.3066C115.304 44.9095 114.982 44.4635 114.793 43.9688C114.611 43.526 114.52 42.8685 114.52 41.9961V36.4883H116.717ZM132.43 36.4883H134.637V46H132.43V45.0039C131.525 45.8503 130.551 46.2734 129.51 46.2734C128.195 46.2734 127.107 45.7982 126.248 44.8477C125.395 43.8776 124.969 42.6667 124.969 41.2148C124.969 39.7891 125.395 38.6009 126.248 37.6504C127.101 36.6999 128.169 36.2246 129.451 36.2246C130.558 36.2246 131.551 36.6803 132.43 37.5918V36.4883ZM127.215 41.2148C127.215 42.1263 127.459 42.8685 127.947 43.4414C128.449 44.0208 129.08 44.3105 129.842 44.3105C130.656 44.3105 131.313 44.0306 131.814 43.4707C132.316 42.8913 132.566 42.1556 132.566 41.2637C132.566 40.3717 132.316 39.6361 131.814 39.0566C131.313 38.4902 130.662 38.207 129.861 38.207C129.106 38.207 128.475 38.4935 127.967 39.0664C127.465 39.6458 127.215 40.362 127.215 41.2148ZM137.41 36.4883H139.617V37.3672C140.385 36.6055 141.251 36.2246 142.215 36.2246C143.322 36.2246 144.184 36.5729 144.803 37.2695C145.337 37.862 145.604 38.8288 145.604 40.1699V46H143.396V40.6875C143.396 39.75 143.266 39.1022 143.006 38.7441C142.752 38.3796 142.29 38.1973 141.619 38.1973C140.89 38.1973 140.372 38.4382 140.066 38.9199C139.767 39.3952 139.617 40.2253 139.617 41.4102V46H137.41V36.4883Z" fill="#666666"/>
<path d="M367.082 10.877V17H364.807V1.92188H367.385C368.648 1.92188 369.602 2.00977 370.246 2.18555C370.897 2.36133 371.47 2.69336 371.965 3.18164C372.831 4.02799 373.264 5.0957 373.264 6.38477C373.264 7.76497 372.801 8.85872 371.877 9.66602C370.952 10.4733 369.706 10.877 368.137 10.877H367.082ZM367.082 8.76758H367.932C370.021 8.76758 371.066 7.96354 371.066 6.35547C371.066 4.79948 369.989 4.02148 367.834 4.02148H367.082V8.76758ZM383.342 12.7617H376.525C376.584 13.543 376.838 14.1647 377.287 14.627C377.736 15.0827 378.312 15.3105 379.016 15.3105C379.562 15.3105 380.015 15.1803 380.373 14.9199C380.725 14.6595 381.125 14.1777 381.574 13.4746L383.43 14.5098C383.143 14.998 382.84 15.418 382.521 15.7695C382.202 16.1146 381.861 16.401 381.496 16.6289C381.132 16.8503 380.738 17.013 380.314 17.1172C379.891 17.2214 379.432 17.2734 378.938 17.2734C377.518 17.2734 376.379 16.8177 375.52 15.9062C374.66 14.9883 374.23 13.7708 374.23 12.2539C374.23 10.75 374.647 9.53255 375.48 8.60156C376.32 7.68359 377.434 7.22461 378.82 7.22461C380.22 7.22461 381.327 7.67057 382.141 8.5625C382.948 9.44792 383.352 10.6751 383.352 12.2441L383.342 12.7617ZM381.086 10.9648C380.78 9.79297 380.041 9.20703 378.869 9.20703C378.602 9.20703 378.352 9.24935 378.117 9.33398C377.883 9.41211 377.668 9.5293 377.473 9.68555C377.284 9.83529 377.121 10.0176 376.984 10.2324C376.848 10.4473 376.743 10.6914 376.672 10.9648H381.086ZM385.754 7.48828H387.951V8.33789C388.355 7.91471 388.713 7.625 389.025 7.46875C389.344 7.30599 389.722 7.22461 390.158 7.22461C390.738 7.22461 391.343 7.41341 391.975 7.79102L390.969 9.80273C390.552 9.50326 390.145 9.35352 389.748 9.35352C388.55 9.35352 387.951 10.2585 387.951 12.0684V17H385.754V7.48828ZM398.762 9.10938L396.945 10.0762C396.659 9.49023 396.304 9.19727 395.881 9.19727C395.679 9.19727 395.507 9.26562 395.363 9.40234C395.22 9.53255 395.148 9.70182 395.148 9.91016C395.148 10.2747 395.572 10.6361 396.418 10.9941C397.583 11.4954 398.368 11.9577 398.771 12.3809C399.175 12.804 399.377 13.3737 399.377 14.0898C399.377 15.0078 399.038 15.776 398.361 16.3945C397.704 16.9805 396.91 17.2734 395.979 17.2734C394.383 17.2734 393.254 16.4954 392.59 14.9395L394.465 14.0703C394.725 14.526 394.924 14.8158 395.061 14.9395C395.327 15.1868 395.646 15.3105 396.018 15.3105C396.76 15.3105 397.131 14.972 397.131 14.2949C397.131 13.9043 396.844 13.5397 396.271 13.2012C396.05 13.0905 395.829 12.9831 395.607 12.8789C395.386 12.7747 395.161 12.6673 394.934 12.5566C394.296 12.2441 393.846 11.9316 393.586 11.6191C393.254 11.222 393.088 10.7109 393.088 10.0859C393.088 9.25911 393.371 8.57552 393.938 8.03516C394.517 7.49479 395.22 7.22461 396.047 7.22461C397.264 7.22461 398.169 7.85286 398.762 9.10938ZM400.91 12.1758C400.91 10.8021 401.402 9.63346 402.385 8.66992C403.368 7.70638 404.566 7.22461 405.979 7.22461C407.398 7.22461 408.602 7.70964 409.592 8.67969C410.568 9.64974 411.057 10.8411 411.057 12.2539C411.057 13.6797 410.565 14.8743 409.582 15.8379C408.592 16.7949 407.378 17.2734 405.939 17.2734C404.514 17.2734 403.319 16.7852 402.355 15.8086C401.392 14.8451 400.91 13.6341 400.91 12.1758ZM403.156 12.2148C403.156 13.1654 403.41 13.9173 403.918 14.4707C404.439 15.0306 405.126 15.3105 405.979 15.3105C406.838 15.3105 407.525 15.0339 408.039 14.4805C408.553 13.9271 408.811 13.1882 408.811 12.2637C408.811 11.3392 408.553 10.6003 408.039 10.0469C407.518 9.48698 406.831 9.20703 405.979 9.20703C405.139 9.20703 404.458 9.48698 403.938 10.0469C403.417 10.6068 403.156 11.3294 403.156 12.2148ZM413.391 7.48828H415.598V8.36719C416.366 7.60547 417.232 7.22461 418.195 7.22461C419.302 7.22461 420.165 7.57292 420.783 8.26953C421.317 8.86198 421.584 9.82878 421.584 11.1699V17H419.377V11.6875C419.377 10.75 419.247 10.1022 418.986 9.74414C418.732 9.37956 418.27 9.19727 417.6 9.19727C416.87 9.19727 416.353 9.43815 416.047 9.91992C415.747 10.3952 415.598 11.2253 415.598 12.4102V17H413.391V7.48828ZM431.379 7.48828H433.586V17H431.379V16.0039C430.474 16.8503 429.501 17.2734 428.459 17.2734C427.144 17.2734 426.057 16.7982 425.197 15.8477C424.344 14.8776 423.918 13.6667 423.918 12.2148C423.918 10.7891 424.344 9.60091 425.197 8.65039C426.05 7.69987 427.118 7.22461 428.4 7.22461C429.507 7.22461 430.5 7.68034 431.379 8.5918V7.48828ZM426.164 12.2148C426.164 13.1263 426.408 13.8685 426.896 14.4414C427.398 15.0208 428.029 15.3105 428.791 15.3105C429.605 15.3105 430.262 15.0306 430.764 14.4707C431.265 13.8913 431.516 13.1556 431.516 12.2637C431.516 11.3717 431.265 10.6361 430.764 10.0566C430.262 9.49023 429.611 9.20703 428.811 9.20703C428.055 9.20703 427.424 9.49349 426.916 10.0664C426.415 10.6458 426.164 11.362 426.164 12.2148ZM436.701 15.9062C436.701 15.5417 436.835 15.2259 437.102 14.959C437.368 14.6921 437.688 14.5586 438.059 14.5586C438.43 14.5586 438.749 14.6921 439.016 14.959C439.283 15.2259 439.416 15.5449 439.416 15.916C439.416 16.2936 439.283 16.6159 439.016 16.8828C438.755 17.1432 438.436 17.2734 438.059 17.2734C437.674 17.2734 437.352 17.1432 437.092 16.8828C436.831 16.6224 436.701 16.2969 436.701 15.9062ZM436.701 8.5625C436.701 8.20443 436.835 7.89193 437.102 7.625C437.368 7.35807 437.688 7.22461 438.059 7.22461C438.43 7.22461 438.749 7.35807 439.016 7.625C439.283 7.89193 439.416 8.21094 439.416 8.58203C439.416 8.95964 439.283 9.2819 439.016 9.54883C438.755 9.80924 438.436 9.93945 438.059 9.93945C437.681 9.93945 437.359 9.80599 437.092 9.53906C436.831 9.27865 436.701 8.95312 436.701 8.5625ZM448.596 17L451.77 0.789062L456.945 12.5078L462.307 0.789062L465.158 17H462.824L461.369 7.89844L456.906 17.6934L452.57 7.88867L450.949 17H448.596ZM474.953 7.48828H477.16V17H474.953V16.0039C474.048 16.8503 473.075 17.2734 472.033 17.2734C470.718 17.2734 469.631 16.7982 468.771 15.8477C467.919 14.8776 467.492 13.6667 467.492 12.2148C467.492 10.7891 467.919 9.60091 468.771 8.65039C469.624 7.69987 470.692 7.22461 471.975 7.22461C473.081 7.22461 474.074 7.68034 474.953 8.5918V7.48828ZM469.738 12.2148C469.738 13.1263 469.982 13.8685 470.471 14.4414C470.972 15.0208 471.604 15.3105 472.365 15.3105C473.179 15.3105 473.837 15.0306 474.338 14.4707C474.839 13.8913 475.09 13.1556 475.09 12.2637C475.09 11.3717 474.839 10.6361 474.338 10.0566C473.837 9.49023 473.186 9.20703 472.385 9.20703C471.63 9.20703 470.998 9.49349 470.49 10.0664C469.989 10.6458 469.738 11.362 469.738 12.2148ZM479.934 7.48828H482.131V8.33789C482.535 7.91471 482.893 7.625 483.205 7.46875C483.524 7.30599 483.902 7.22461 484.338 7.22461C484.917 7.22461 485.523 7.41341 486.154 7.79102L485.148 9.80273C484.732 9.50326 484.325 9.35352 483.928 9.35352C482.73 9.35352 482.131 10.2585 482.131 12.0684V17H479.934V7.48828ZM489.611 7.48828V17H487.414V7.48828H489.611ZM491.955 2.80078L488.713 6.02344L487.502 5.28125L489.973 1.72656L491.955 2.80078ZM499.406 7.48828H501.613V17H499.406V16.0039C498.501 16.8503 497.528 17.2734 496.486 17.2734C495.171 17.2734 494.084 16.7982 493.225 15.8477C492.372 14.8776 491.945 13.6667 491.945 12.2148C491.945 10.7891 492.372 9.60091 493.225 8.65039C494.077 7.69987 495.145 7.22461 496.428 7.22461C497.535 7.22461 498.527 7.68034 499.406 8.5918V7.48828ZM494.191 12.2148C494.191 13.1263 494.436 13.8685 494.924 14.4414C495.425 15.0208 496.057 15.3105 496.818 15.3105C497.632 15.3105 498.29 15.0306 498.791 14.4707C499.292 13.8913 499.543 13.1556 499.543 12.2637C499.543 11.3717 499.292 10.6361 498.791 10.0566C498.29 9.49023 497.639 9.20703 496.838 9.20703C496.083 9.20703 495.451 9.49349 494.943 10.0664C494.442 10.6458 494.191 11.362 494.191 12.2148ZM375.949 29.7324V32.4277C374.634 31.3275 373.273 30.7773 371.867 30.7773C370.318 30.7773 369.012 31.334 367.951 32.4473C366.883 33.554 366.35 34.9082 366.35 36.5098C366.35 38.0918 366.883 39.4264 367.951 40.5137C369.019 41.6009 370.327 42.1445 371.877 42.1445C372.678 42.1445 373.358 42.0143 373.918 41.7539C374.23 41.6237 374.553 41.4479 374.885 41.2266C375.223 41.0052 375.578 40.7383 375.949 40.4258V43.1699C374.647 43.9056 373.28 44.2734 371.848 44.2734C369.693 44.2734 367.854 43.5215 366.33 42.0176C364.813 40.5007 364.055 38.6712 364.055 36.5293C364.055 34.6087 364.689 32.8965 365.959 31.3926C367.521 29.5501 369.543 28.6289 372.023 28.6289C373.378 28.6289 374.686 28.9967 375.949 29.7324ZM380.607 34.4883V39.9473C380.607 41.5228 381.229 42.3105 382.473 42.3105C383.716 42.3105 384.338 41.5228 384.338 39.9473V34.4883H386.535V39.9961C386.535 40.7578 386.441 41.4154 386.252 41.9688C386.07 42.4635 385.754 42.9095 385.305 43.3066C384.562 43.9512 383.618 44.2734 382.473 44.2734C381.333 44.2734 380.393 43.9512 379.65 43.3066C379.195 42.9095 378.872 42.4635 378.684 41.9688C378.501 41.526 378.41 40.8685 378.41 39.9961V34.4883H380.607ZM397.971 39.7617H391.154C391.213 40.543 391.467 41.1647 391.916 41.627C392.365 42.0827 392.941 42.3105 393.645 42.3105C394.191 42.3105 394.644 42.1803 395.002 41.9199C395.354 41.6595 395.754 41.1777 396.203 40.4746L398.059 41.5098C397.772 41.998 397.469 42.418 397.15 42.7695C396.831 43.1146 396.49 43.401 396.125 43.6289C395.76 43.8503 395.367 44.013 394.943 44.1172C394.52 44.2214 394.061 44.2734 393.566 44.2734C392.147 44.2734 391.008 43.8177 390.148 42.9062C389.289 41.9883 388.859 40.7708 388.859 39.2539C388.859 37.75 389.276 36.5326 390.109 35.6016C390.949 34.6836 392.062 34.2246 393.449 34.2246C394.849 34.2246 395.956 34.6706 396.77 35.5625C397.577 36.4479 397.98 37.6751 397.98 39.2441L397.971 39.7617ZM395.715 37.9648C395.409 36.793 394.67 36.207 393.498 36.207C393.231 36.207 392.98 36.2493 392.746 36.334C392.512 36.4121 392.297 36.5293 392.102 36.6855C391.913 36.8353 391.75 37.0176 391.613 37.2324C391.477 37.4473 391.372 37.6914 391.301 37.9648H395.715ZM400.383 34.4883H402.59V35.3672C403.358 34.6055 404.224 34.2246 405.188 34.2246C406.294 34.2246 407.157 34.5729 407.775 35.2695C408.309 35.862 408.576 36.8288 408.576 38.1699V44H406.369V38.6875C406.369 37.75 406.239 37.1022 405.979 36.7441C405.725 36.3796 405.262 36.1973 404.592 36.1973C403.863 36.1973 403.345 36.4382 403.039 36.9199C402.74 37.3952 402.59 38.2253 402.59 39.4102V44H400.383V34.4883ZM413.625 36.5391V44H411.428V36.5391H410.49V34.4883H411.428V31.002H413.625V34.4883H415.334V36.5391H413.625ZM424.016 34.4883H426.223V44H424.016V43.0039C423.111 43.8503 422.137 44.2734 421.096 44.2734C419.781 44.2734 418.693 43.7982 417.834 42.8477C416.981 41.8776 416.555 40.6667 416.555 39.2148C416.555 37.7891 416.981 36.6009 417.834 35.6504C418.687 34.6999 419.755 34.2246 421.037 34.2246C422.144 34.2246 423.137 34.6803 424.016 35.5918V34.4883ZM418.801 39.2148C418.801 40.1263 419.045 40.8685 419.533 41.4414C420.035 42.0208 420.666 42.3105 421.428 42.3105C422.242 42.3105 422.899 42.0306 423.4 41.4707C423.902 40.8913 424.152 40.1556 424.152 39.2637C424.152 38.3717 423.902 37.6361 423.4 37.0566C422.899 36.4902 422.248 36.207 421.447 36.207C420.692 36.207 420.061 36.4935 419.553 37.0664C419.051 37.6458 418.801 38.362 418.801 39.2148ZM429.338 42.9062C429.338 42.5417 429.471 42.2259 429.738 41.959C430.005 41.6921 430.324 41.5586 430.695 41.5586C431.066 41.5586 431.385 41.6921 431.652 41.959C431.919 42.2259 432.053 42.5449 432.053 42.916C432.053 43.2936 431.919 43.6159 431.652 43.8828C431.392 44.1432 431.073 44.2734 430.695 44.2734C430.311 44.2734 429.989 44.1432 429.729 43.8828C429.468 43.6224 429.338 43.2969 429.338 42.9062ZM429.338 35.5625C429.338 35.2044 429.471 34.8919 429.738 34.625C430.005 34.3581 430.324 34.2246 430.695 34.2246C431.066 34.2246 431.385 34.3581 431.652 34.625C431.919 34.8919 432.053 35.2109 432.053 35.582C432.053 35.9596 431.919 36.2819 431.652 36.5488C431.392 36.8092 431.073 36.9395 430.695 36.9395C430.318 36.9395 429.995 36.806 429.729 36.5391C429.468 36.2786 429.338 35.9531 429.338 35.5625ZM446.35 28.9219V38.6777C446.35 39.8431 446.268 40.7122 446.105 41.2852C445.943 41.9362 445.666 42.4863 445.275 42.9355C444.514 43.8275 443.505 44.2734 442.248 44.2734C441.298 44.2734 440.409 44.026 439.582 43.5312L440.695 41.5879C441.249 41.959 441.766 42.1445 442.248 42.1445C442.925 42.1445 443.394 41.8874 443.654 41.373C443.928 40.8587 444.064 39.9603 444.064 38.6777V28.9219H446.35ZM451.74 34.4883V39.9473C451.74 41.5228 452.362 42.3105 453.605 42.3105C454.849 42.3105 455.471 41.5228 455.471 39.9473V34.4883H457.668V39.9961C457.668 40.7578 457.574 41.4154 457.385 41.9688C457.202 42.4635 456.887 42.9095 456.438 43.3066C455.695 43.9512 454.751 44.2734 453.605 44.2734C452.466 44.2734 451.525 43.9512 450.783 43.3066C450.327 42.9095 450.005 42.4635 449.816 41.9688C449.634 41.526 449.543 40.8685 449.543 39.9961V34.4883H451.74ZM467.453 34.4883H469.66V44H467.453V43.0039C466.548 43.8503 465.575 44.2734 464.533 44.2734C463.218 44.2734 462.131 43.7982 461.271 42.8477C460.419 41.8776 459.992 40.6667 459.992 39.2148C459.992 37.7891 460.419 36.6009 461.271 35.6504C462.124 34.6999 463.192 34.2246 464.475 34.2246C465.581 34.2246 466.574 34.6803 467.453 35.5918V34.4883ZM462.238 39.2148C462.238 40.1263 462.482 40.8685 462.971 41.4414C463.472 42.0208 464.104 42.3105 464.865 42.3105C465.679 42.3105 466.337 42.0306 466.838 41.4707C467.339 40.8913 467.59 40.1556 467.59 39.2637C467.59 38.3717 467.339 37.6361 466.838 37.0566C466.337 36.4902 465.686 36.207 464.885 36.207C464.13 36.207 463.498 36.4935 462.99 37.0664C462.489 37.6458 462.238 38.362 462.238 39.2148ZM472.434 34.4883H474.641V35.3672C475.409 34.6055 476.275 34.2246 477.238 34.2246C478.345 34.2246 479.208 34.5729 479.826 35.2695C480.36 35.862 480.627 36.8288 480.627 38.1699V44H478.42V38.6875C478.42 37.75 478.29 37.1022 478.029 36.7441C477.775 36.3796 477.313 36.1973 476.643 36.1973C475.913 36.1973 475.396 36.4382 475.09 36.9199C474.79 37.3952 474.641 38.2253 474.641 39.4102V44H472.434V34.4883Z" fill="#666666"/>
<path d="M196 99L198.887 94H193.113L196 99ZM119.7 55.1451L120.025 63.7106L121.025 63.6726L120.7 55.1071L119.7 55.1451ZM133.516 76.6984H183V75.6984H133.516V76.6984ZM195.5 89.1984V94.5H196.5V89.1984H195.5ZM183 76.6984C189.904 76.6984 195.5 82.2948 195.5 89.1984H196.5C196.5 81.7426 190.456 75.6984 183 75.6984V76.6984ZM120.025 63.7106C120.301 70.9619 126.259 76.6984 133.516 76.6984V75.6984C126.797 75.6984 121.28 70.3868 121.025 63.6726L120.025 63.7106Z" fill="#979797"/>
<path d="M312.2 99L309.313 94H315.087L312.2 99ZM388.5 55.1451L388.174 63.7106L387.175 63.6726L387.5 55.1071L388.5 55.1451ZM374.684 76.6984H325.2V75.6984H374.684V76.6984ZM312.7 89.1984V94.5H311.7V89.1984H312.7ZM325.2 76.6984C318.296 76.6984 312.7 82.2948 312.7 89.1984H311.7C311.7 81.7426 317.744 75.6984 325.2 75.6984V76.6984ZM388.174 63.7106C387.899 70.9619 381.941 76.6984 374.684 76.6984V75.6984C381.403 75.6984 386.92 70.3868 387.175 63.6726L388.174 63.7106Z" fill="#979797"/>
<path d="M140 531L137.254 525.921L143.025 526.083L140 531ZM196.5 480.011L196.283 489.835L195.283 489.813L195.5 479.989L196.5 480.011ZM182.786 503.037H153.437V502.037H182.786V503.037ZM140.942 515.188L140.626 526.516L139.626 526.488L139.943 515.16L140.942 515.188ZM153.437 503.037C146.67 503.037 141.131 508.423 140.942 515.188L139.943 515.16C140.147 507.854 146.128 502.037 153.437 502.037V503.037ZM196.283 489.835C196.121 497.173 190.126 503.037 182.786 503.037V502.037C189.582 502.037 195.133 496.607 195.283 489.813L196.283 489.835Z" fill="#979797"/>
<path d="M369 531L371.744 525.92L365.973 526.084L369 531ZM312.6 479.996L312.516 489.417L313.516 489.426L313.6 480.004L312.6 479.996ZM326.016 503.037H355.558V502.037H326.016V503.037ZM368.053 515.184L368.373 526.516L369.373 526.488L369.052 515.156L368.053 515.184ZM355.558 503.037C362.324 503.037 367.862 508.421 368.053 515.184L369.052 515.156C368.846 507.851 362.865 502.037 355.558 502.037V503.037ZM312.516 489.417C312.449 496.919 318.513 503.037 326.016 503.037V502.037C319.069 502.037 313.454 496.372 313.516 489.426L312.516 489.417Z" fill="#979797"/>
<path d="M312.5 276L315.387 271H309.613L312.5 276ZM312 248V271.5H313V248H312Z" fill="#979797"/>
<path d="M196.5 276L199.387 271H193.613L196.5 276ZM196 248V271.5H197V248H196Z" fill="#979797"/>
<g filter="url(#filter3_d_0_1)">
<rect x="161" y="109" width="189" height="128" rx="10" fill="white"/>
<g clip-path="url(#clip2_0_1)" filter="url(#filter4_d_0_1)">
<rect x="185.2" y="182.4" width="141" height="34" rx="6.44" fill="#F0F0F0"/>
<path d="M202.12 203.28L205.172 193.798H207.379L203.219 205.4H201.729L202.12 203.28ZM199.299 193.798L202.327 203.28L202.741 205.4H201.243L197.099 193.798H199.299ZM211.937 205.559C211.3 205.559 210.723 205.456 210.208 205.249C209.698 205.036 209.262 204.741 208.901 204.364C208.545 203.987 208.272 203.543 208.08 203.033C207.889 202.523 207.793 201.973 207.793 201.384V201.065C207.793 200.39 207.892 199.779 208.088 199.232C208.285 198.685 208.558 198.218 208.909 197.83C209.26 197.437 209.674 197.136 210.152 196.929C210.63 196.722 211.148 196.618 211.706 196.618C212.322 196.618 212.862 196.722 213.324 196.929C213.786 197.136 214.168 197.429 214.471 197.806C214.779 198.178 215.008 198.621 215.157 199.137C215.311 199.652 215.388 200.22 215.388 200.842V201.663H208.726V200.284H213.491V200.133C213.48 199.787 213.411 199.463 213.284 199.16C213.162 198.858 212.973 198.613 212.718 198.427C212.463 198.241 212.123 198.148 211.698 198.148C211.379 198.148 211.095 198.218 210.845 198.356C210.601 198.488 210.397 198.682 210.232 198.937C210.067 199.192 209.94 199.5 209.849 199.862C209.764 200.218 209.722 200.619 209.722 201.065V201.384C209.722 201.761 209.772 202.112 209.873 202.436C209.979 202.754 210.134 203.033 210.335 203.272C210.537 203.511 210.782 203.7 211.069 203.838C211.355 203.971 211.682 204.037 212.049 204.037C212.511 204.037 212.923 203.944 213.284 203.758C213.645 203.573 213.959 203.31 214.224 202.97L215.236 203.95C215.05 204.221 214.809 204.481 214.511 204.731C214.214 204.975 213.85 205.174 213.419 205.328C212.994 205.482 212.5 205.559 211.937 205.559ZM218.814 198.419V205.4H216.894V196.778H218.727L218.814 198.419ZM221.452 196.722L221.436 198.507C221.319 198.486 221.192 198.47 221.053 198.459C220.921 198.449 220.788 198.443 220.655 198.443C220.326 198.443 220.036 198.491 219.786 198.587C219.537 198.677 219.327 198.81 219.157 198.985C218.992 199.155 218.865 199.362 218.774 199.607C218.684 199.851 218.631 200.125 218.615 200.428L218.177 200.459C218.177 199.918 218.23 199.415 218.336 198.953C218.442 198.491 218.602 198.085 218.814 197.734C219.032 197.383 219.303 197.11 219.627 196.913C219.956 196.717 220.336 196.618 220.767 196.618C220.883 196.618 221.008 196.629 221.141 196.65C221.279 196.672 221.383 196.695 221.452 196.722ZM224.711 196.778V205.4H222.783V196.778H224.711ZM222.655 194.515C222.655 194.223 222.751 193.981 222.942 193.79C223.139 193.593 223.409 193.495 223.755 193.495C224.095 193.495 224.363 193.593 224.56 193.79C224.756 193.981 224.854 194.223 224.854 194.515C224.854 194.802 224.756 195.041 224.56 195.232C224.363 195.423 224.095 195.519 223.755 195.519C223.409 195.519 223.139 195.423 222.942 195.232C222.751 195.041 222.655 194.802 222.655 194.515ZM229.413 205.4H227.492V195.949C227.492 195.306 227.612 194.767 227.851 194.331C228.095 193.89 228.443 193.558 228.895 193.335C229.346 193.107 229.88 192.993 230.496 192.993C230.688 192.993 230.876 193.006 231.062 193.033C231.248 193.054 231.429 193.088 231.604 193.136L231.556 194.618C231.45 194.592 231.333 194.573 231.206 194.563C231.083 194.552 230.951 194.547 230.807 194.547C230.515 194.547 230.263 194.602 230.05 194.714C229.843 194.82 229.684 194.977 229.572 195.184C229.466 195.391 229.413 195.646 229.413 195.949V205.4ZM231.19 196.778V198.18H226.169V196.778H231.19ZM235.086 204.46L237.429 196.778H239.485L236.027 206.715C235.947 206.927 235.843 207.158 235.716 207.408C235.588 207.658 235.421 207.894 235.214 208.117C235.012 208.346 234.76 208.529 234.457 208.667C234.154 208.811 233.787 208.882 233.357 208.882C233.187 208.882 233.022 208.866 232.863 208.835C232.709 208.808 232.563 208.779 232.425 208.747L232.417 207.281C232.47 207.286 232.534 207.291 232.608 207.297C232.688 207.302 232.752 207.305 232.799 207.305C233.118 207.305 233.384 207.265 233.596 207.185C233.809 207.111 233.981 206.988 234.114 206.818C234.252 206.648 234.369 206.42 234.465 206.133L235.086 204.46ZM233.764 196.778L235.812 203.233L236.154 205.257L234.823 205.599L231.692 196.778H233.764ZM246.992 203.488L248.984 196.778H250.211L249.876 198.786L247.868 205.4H246.769L246.992 203.488ZM245.82 196.778L247.374 203.519L247.502 205.4H246.274L243.94 196.778H245.82ZM252.076 203.44L253.582 196.778H255.454L253.128 205.4H251.9L252.076 203.44ZM250.418 196.778L252.387 203.408L252.634 205.4H251.534L249.502 198.778L249.167 196.778H250.418ZM258.817 196.778V205.4H256.889V196.778H258.817ZM256.761 194.515C256.761 194.223 256.857 193.981 257.048 193.79C257.245 193.593 257.516 193.495 257.861 193.495C258.201 193.495 258.469 193.593 258.666 193.79C258.862 193.981 258.961 194.223 258.961 194.515C258.961 194.802 258.862 195.041 258.666 195.232C258.469 195.423 258.201 195.519 257.861 195.519C257.516 195.519 257.245 195.423 257.048 195.232C256.857 195.041 256.761 194.802 256.761 194.515ZM264.874 196.778V198.18H260.013V196.778H264.874ZM261.415 194.666H263.336V203.017C263.336 203.283 263.373 203.488 263.447 203.631C263.527 203.769 263.636 203.862 263.774 203.91C263.912 203.958 264.074 203.982 264.26 203.982C264.393 203.982 264.52 203.974 264.642 203.958C264.765 203.942 264.863 203.926 264.937 203.91L264.945 205.376C264.786 205.424 264.6 205.466 264.387 205.504C264.18 205.541 263.941 205.559 263.67 205.559C263.229 205.559 262.839 205.482 262.499 205.328C262.159 205.169 261.893 204.911 261.702 204.555C261.511 204.199 261.415 203.727 261.415 203.137V194.666ZM268.252 193.16V205.4H266.34V193.16H268.252ZM267.918 200.77L267.296 200.762C267.301 200.167 267.384 199.617 267.543 199.113C267.708 198.608 267.936 198.17 268.228 197.798C268.526 197.421 268.882 197.131 269.296 196.929C269.711 196.722 270.17 196.618 270.675 196.618C271.1 196.618 271.482 196.677 271.822 196.794C272.168 196.911 272.465 197.099 272.715 197.36C272.964 197.615 273.153 197.949 273.281 198.364C273.413 198.773 273.48 199.272 273.48 199.862V205.4H271.551V199.846C271.551 199.431 271.49 199.102 271.368 198.858C271.251 198.613 271.079 198.438 270.85 198.332C270.622 198.22 270.343 198.164 270.013 198.164C269.668 198.164 269.363 198.233 269.097 198.372C268.837 198.51 268.619 198.698 268.444 198.937C268.268 199.176 268.135 199.453 268.045 199.766C267.96 200.08 267.918 200.414 267.918 200.77Z" fill="#464646"/>
<path fill-rule="evenodd" clip-rule="evenodd" d="M296.406 195.83H293.74C293.644 195.83 293.567 195.908 293.567 196.005V197.399C293.567 197.473 293.609 197.54 293.674 197.572L296.309 198.841C296.434 198.902 296.58 198.809 296.58 198.669V196.005C296.58 195.908 296.502 195.83 296.406 195.83V195.83Z" fill="black"/>
<path fill-rule="evenodd" clip-rule="evenodd" d="M312.088 196.004C312.087 195.908 312.01 195.83 311.914 195.83H303.026C302.93 195.83 302.853 195.908 302.853 196.005V198.507C302.853 198.603 302.93 198.681 303.026 198.681H305.963V207.398C305.963 207.494 306.041 207.572 306.136 207.572H308.803C308.899 207.572 308.976 207.494 308.976 207.398V198.744L311.916 198.749C312.016 198.749 312.097 198.667 312.096 198.567L312.087 196.004L312.088 196.004Z" fill="black"/>
<path fill-rule="evenodd" clip-rule="evenodd" d="M304.58 204.986H301.314V196.005C301.314 195.908 301.236 195.83 301.141 195.83H298.457C298.361 195.83 298.284 195.908 298.284 196.005V207.398C298.284 207.494 298.361 207.572 298.457 207.572H304.744C304.747 207.57 304.75 207.567 304.753 207.564V205.161C304.753 205.064 304.675 204.986 304.58 204.986H304.58Z" fill="black"/>
<path fill-rule="evenodd" clip-rule="evenodd" d="M296.472 201.883L293.837 200.613C293.712 200.553 293.567 200.645 293.567 200.786V207.398C293.567 207.494 293.644 207.572 293.74 207.572H296.406C296.502 207.572 296.58 207.494 296.58 207.398V202.055C296.58 201.981 296.538 201.914 296.472 201.883V201.883Z" fill="black"/>
<path fill-rule="evenodd" clip-rule="evenodd" d="M289.182 200.567C288.315 200.227 287.688 199.982 287.688 199.442C287.688 198.902 288.152 198.539 288.843 198.539L288.866 198.54C289.42 198.587 290.045 198.825 291.001 199.271C291.089 199.312 291.194 199.272 291.233 199.182L292.157 197.034C292.194 196.95 292.159 196.851 292.078 196.809C290.754 196.126 289.719 195.83 288.67 195.83C286.18 195.83 284.572 197.248 284.572 199.442C284.572 201.749 286.537 202.474 287.972 203.003C288.85 203.326 289.484 203.56 289.484 204.104C289.484 204.421 289.378 204.688 289.177 204.876C288.948 205.09 288.616 205.187 288.217 205.156C287.419 205.094 286.764 204.918 285.893 204.521C285.804 204.481 285.7 204.523 285.662 204.614L284.843 206.602C284.808 206.687 284.844 206.785 284.925 206.826C285.985 207.351 287.014 207.569 288.406 207.569C291.019 207.569 292.579 206.323 292.579 204.236C292.579 201.898 290.615 201.129 289.182 200.567V200.567Z" fill="black"/>
<path fill-rule="evenodd" clip-rule="evenodd" d="M315.846 193.713C314.463 192.18 312.584 191.23 310.554 191.038L288.216 191C283.686 191 280 194.732 280 199.32C280 202.331 281.588 204.974 283.961 206.434C284.028 206.476 284.116 206.446 284.147 206.373L285.051 204.205C285.075 204.148 285.056 204.081 285.005 204.046C285.005 204.046 285.004 204.046 285.004 204.046C283.467 202.971 282.55 201.204 282.55 199.32C282.55 196.156 285.092 193.582 288.216 193.582H309.857C312.882 193.582 315.408 196.016 315.45 199.08C315.471 200.623 314.889 202.103 313.817 203.238C312.819 204.294 311.522 204.914 310.139 205.004C310.043 205.01 309.967 205.089 309.967 205.187V207.408C309.967 207.512 310.053 207.597 310.156 207.591C312.185 207.483 314.094 206.606 315.568 205.093C317.136 203.484 318 201.378 318 199.161C318 197.085 317.235 195.252 315.846 193.713Z" fill="#0088FF"/>
</g>
<path d="M207.4 134.406V146H205.361V134.406H202.255V132.49H210.497V134.406H207.4ZM213.175 137.477V142.369C213.175 143.78 213.732 144.486 214.846 144.486C215.96 144.486 216.517 143.78 216.517 142.369V137.477H218.486V142.412C218.486 143.095 218.402 143.684 218.232 144.18C218.069 144.623 217.786 145.023 217.384 145.379C216.719 145.956 215.873 146.245 214.846 146.245C213.825 146.245 212.982 145.956 212.317 145.379C211.909 145.023 211.62 144.623 211.451 144.18C211.288 143.783 211.206 143.194 211.206 142.412V137.477H213.175ZM234.814 142.719H229.03L227.525 146H225.329L232.014 131.641L238.462 146H236.231L234.814 142.719ZM233.982 140.802L231.979 136.209L229.879 140.802H233.982ZM241.752 150.638H239.784V137.477H241.752V138.405C242.528 137.629 243.409 137.241 244.395 137.241C245.567 137.241 246.533 137.673 247.291 138.536C248.061 139.394 248.446 140.476 248.446 141.782C248.446 143.06 248.064 144.125 247.3 144.976C246.542 145.822 245.585 146.245 244.43 146.245C243.432 146.245 242.54 145.845 241.752 145.046V150.638ZM246.434 141.791C246.434 140.975 246.212 140.31 245.769 139.796C245.32 139.277 244.754 139.017 244.071 139.017C243.348 139.017 242.762 139.268 242.312 139.77C241.863 140.272 241.639 140.931 241.639 141.747C241.639 142.547 241.863 143.206 242.312 143.725C242.756 144.232 243.339 144.486 244.062 144.486C244.745 144.486 245.308 144.23 245.751 143.716C246.206 143.203 246.434 142.561 246.434 141.791ZM252.498 150.638H250.529V137.477H252.498V138.405C253.273 137.629 254.154 137.241 255.14 137.241C256.313 137.241 257.278 137.673 258.036 138.536C258.806 139.394 259.191 140.476 259.191 141.782C259.191 143.06 258.809 144.125 258.045 144.976C257.287 145.822 256.33 146.245 255.175 146.245C254.178 146.245 253.285 145.845 252.498 145.046V150.638ZM257.179 141.791C257.179 140.975 256.957 140.31 256.514 139.796C256.065 139.277 255.499 139.017 254.816 139.017C254.093 139.017 253.507 139.268 253.058 139.77C252.608 140.272 252.384 140.931 252.384 141.747C252.384 142.547 252.608 143.206 253.058 143.725C253.501 144.232 254.084 144.486 254.808 144.486C255.49 144.486 256.053 144.23 256.496 143.716C256.951 143.203 257.179 142.561 257.179 141.791ZM267.626 131.072L269.254 131.79L261.519 149.693L259.909 148.966L267.626 131.072ZM271.608 132.49L275.125 141.52L278.8 131.834L282.318 141.52L286.054 132.49H288.268L282.23 146.858L278.756 137.285L275.134 146.866L269.394 132.49H271.608ZM296.282 142.202H290.175C290.227 142.902 290.455 143.46 290.857 143.874C291.26 144.282 291.776 144.486 292.406 144.486C292.896 144.486 293.302 144.37 293.622 144.136C293.937 143.903 294.296 143.471 294.699 142.841L296.361 143.769C296.105 144.206 295.833 144.582 295.547 144.897C295.262 145.207 294.955 145.463 294.629 145.667C294.302 145.866 293.949 146.012 293.57 146.105C293.191 146.198 292.78 146.245 292.336 146.245C291.065 146.245 290.044 145.837 289.274 145.02C288.504 144.197 288.119 143.107 288.119 141.747C288.119 140.4 288.492 139.309 289.239 138.475C289.991 137.652 290.989 137.241 292.231 137.241C293.485 137.241 294.477 137.641 295.206 138.44C295.93 139.233 296.291 140.333 296.291 141.739L296.282 142.202ZM294.261 140.592C293.987 139.542 293.325 139.017 292.275 139.017C292.036 139.017 291.811 139.055 291.601 139.131C291.391 139.201 291.199 139.306 291.024 139.446C290.855 139.58 290.709 139.744 290.586 139.936C290.464 140.129 290.37 140.347 290.306 140.592H294.261ZM300.412 131.221V138.466C301.2 137.65 302.092 137.241 303.09 137.241C304.239 137.241 305.196 137.67 305.96 138.527C306.724 139.379 307.106 140.441 307.106 141.712C307.106 143.025 306.721 144.11 305.951 144.967C305.187 145.819 304.222 146.245 303.055 146.245C302.069 146.245 301.188 145.866 300.412 145.107V146H298.444V131.221H300.412ZM305.094 141.8C305.094 140.983 304.872 140.318 304.429 139.805C303.98 139.28 303.417 139.017 302.74 139.017C302.017 139.017 301.427 139.271 300.972 139.779C300.523 140.28 300.299 140.934 300.299 141.739C300.299 142.567 300.52 143.229 300.964 143.725C301.407 144.232 301.99 144.486 302.714 144.486C303.396 144.486 303.962 144.232 304.411 143.725C304.866 143.212 305.094 142.57 305.094 141.8Z" fill="#464646"/>
</g>
<defs>
<filter id="filter0_d_0_1" x="-10" y="534" width="260" height="63" filterUnits="userSpaceOnUse" color-interpolation-filters="sRGB">
<feFlood flood-opacity="0" result="BackgroundImageFix"/>
<feColorMatrix in="SourceAlpha" type="matrix" values="0 0 0 0 0 0 0 0 0 0 0 0 0 0 0 0 0 0 127 0" result="hardAlpha"/>
<feMorphology radius="5" operator="erode" in="SourceAlpha" result="effect1_dropShadow_0_1"/>
<feOffset dy="5"/>
<feGaussianBlur stdDeviation="7.5"/>
<feColorMatrix type="matrix" values="0 0 0 0 0 0 0 0 0 0 0 0 0 0 0 0 0 0 0.35 0"/>
<feBlend mode="normal" in2="BackgroundImageFix" result="effect1_dropShadow_0_1"/>
<feBlend mode="normal" in="SourceGraphic" in2="effect1_dropShadow_0_1" result="shape"/>
</filter>
<filter id="filter1_d_0_1" x="258" y="534" width="260" height="63" filterUnits="userSpaceOnUse" color-interpolation-filters="sRGB">
<feFlood flood-opacity="0" result="BackgroundImageFix"/>
<feColorMatrix in="SourceAlpha" type="matrix" values="0 0 0 0 0 0 0 0 0 0 0 0 0 0 0 0 0 0 127 0" result="hardAlpha"/>
<feMorphology radius="5" operator="erode" in="SourceAlpha" result="effect1_dropShadow_0_1"/>
<feOffset dy="5"/>
<feGaussianBlur stdDeviation="7.5"/>
<feColorMatrix type="matrix" values="0 0 0 0 0 0 0 0 0 0 0 0 0 0 0 0 0 0 0.35 0"/>
<feBlend mode="normal" in2="BackgroundImageFix" result="effect1_dropShadow_0_1"/>
<feBlend mode="normal" in="SourceGraphic" in2="effect1_dropShadow_0_1" result="shape"/>
</filter>
<filter id="filter2_d_0_1" x="96" y="267" width="307" height="232" filterUnits="userSpaceOnUse" color-interpolation-filters="sRGB">
<feFlood flood-opacity="0" result="BackgroundImageFix"/>
<feColorMatrix in="SourceAlpha" type="matrix" values="0 0 0 0 0 0 0 0 0 0 0 0 0 0 0 0 0 0 127 0" result="hardAlpha"/>
<feMorphology radius="11" operator="erode" in="SourceAlpha" result="effect1_dropShadow_0_1"/>
<feOffset dy="5"/>
<feGaussianBlur stdDeviation="17.5"/>
<feColorMatrix type="matrix" values="0 0 0 0 0 0 0 0 0 0 0 0 0 0 0 0 0 0 0.35 0"/>
<feBlend mode="normal" in2="BackgroundImageFix" result="effect1_dropShadow_0_1"/>
<feBlend mode="normal" in="SourceGraphic" in2="effect1_dropShadow_0_1" result="shape"/>
</filter>
<filter id="filter3_d_0_1" x="157" y="109" width="197" height="136" filterUnits="userSpaceOnUse" color-interpolation-filters="sRGB">
<feFlood flood-opacity="0" result="BackgroundImageFix"/>
<feColorMatrix in="SourceAlpha" type="matrix" values="0 0 0 0 0 0 0 0 0 0 0 0 0 0 0 0 0 0 127 0" result="hardAlpha"/>
<feOffset dy="4"/>
<feGaussianBlur stdDeviation="2"/>
<feComposite in2="hardAlpha" operator="out"/>
<feColorMatrix type="matrix" values="0 0 0 0 0 0 0 0 0 0 0 0 0 0 0 0 0 0 0.15 0"/>
<feBlend mode="normal" in2="BackgroundImageFix" result="effect1_dropShadow_0_1"/>
<feBlend mode="normal" in="SourceGraphic" in2="effect1_dropShadow_0_1" result="shape"/>
</filter>
<filter id="filter4_d_0_1" x="182.2" y="180.4" width="147" height="40" filterUnits="userSpaceOnUse" color-interpolation-filters="sRGB">
<feFlood flood-opacity="0" result="BackgroundImageFix"/>
<feColorMatrix in="SourceAlpha" type="matrix" values="0 0 0 0 0 0 0 0 0 0 0 0 0 0 0 0 0 0 127 0" result="hardAlpha"/>
<feOffset dy="1"/>
<feGaussianBlur stdDeviation="1.5"/>
<feColorMatrix type="matrix" values="0 0 0 0 0.613948 0 0 0 0 0.613948 0 0 0 0 0.613948 0 0 0 0.5 0"/>
<feBlend mode="normal" in2="BackgroundImageFix" result="effect1_dropShadow_0_1"/>
<feBlend mode="normal" in="SourceGraphic" in2="effect1_dropShadow_0_1" result="shape"/>
</filter>
<clipPath id="clip0_0_1">
<rect width="240" height="43" fill="white" transform="translate(0 539)"/>
</clipPath>
<clipPath id="clip1_0_1">
<rect width="240" height="43" fill="white" transform="translate(268 539)"/>
</clipPath>
<clipPath id="clip2_0_1">
<rect width="141" height="34" fill="white" transform="translate(185.2 182.4)"/>
</clipPath>
</defs>
</svg>
