<svg id="Duotone" xmlns="http://www.w3.org/2000/svg" viewBox="0 0 100 112"><defs><style>.cls-1{fill:#f0f2ff;}.cls-2,.cls-7,.cls-8{fill:none;}.cls-2,.cls-3,.cls-4,.cls-7,.cls-8,.cls-9{stroke:#4550e5;}.cls-2,.cls-3,.cls-4,.cls-8{stroke-linecap:round;}.cls-2,.cls-3,.cls-4,.cls-7,.cls-9{stroke-linejoin:round;}.cls-3,.cls-6{fill:#fff;}.cls-4,.cls-5,.cls-9{fill:#d6daff;}.cls-8{stroke-miterlimit:10;}.cls-10{fill:#4550e5;}</style></defs><title>28- business-balance-time-income-2</title><g id="Icons"><g id="New_Symbol_58" data-name="New Symbol 58"><path class="cls-1" d="M90,56A40,40,0,1,0,13.56,72.5H86.44A39.85,39.85,0,0,0,90,56Z"/><line class="cls-2" x1="11" y1="72.5" x2="89" y2="72.5"/><line class="cls-2" x1="6.5" y1="72.5" x2="9" y2="72.5"/><line class="cls-2" x1="91" y1="72.5" x2="93.5" y2="72.5"/></g><polygon class="cls-3" points="73 72.5 50 72.5 27 72.5 24.13 86.3 50 86.3 75.88 86.3 73 72.5"/><line class="cls-2" x1="73" y1="72.5" x2="74.73" y2="72.5"/><line class="cls-2" x1="73.48" y1="74.8" x2="75.3" y2="74.8"/><line class="cls-2" x1="73.96" y1="77.1" x2="75.88" y2="77.1"/><line class="cls-2" x1="74.44" y1="79.4" x2="76.45" y2="79.4"/><line class="cls-2" x1="74.92" y1="81.7" x2="77.03" y2="81.7"/><line class="cls-2" x1="75.4" y1="84" x2="77.6" y2="84"/><line class="cls-2" x1="75.88" y1="86.3" x2="78.18" y2="86.3"/><line class="cls-2" x1="27" y1="72.5" x2="25.28" y2="72.5"/><line class="cls-2" x1="26.52" y1="74.8" x2="24.7" y2="74.8"/><line class="cls-2" x1="26.04" y1="77.1" x2="24.13" y2="77.1"/><line class="cls-2" x1="25.56" y1="79.4" x2="23.55" y2="79.4"/><line class="cls-2" x1="25.08" y1="81.7" x2="22.98" y2="81.7"/><line class="cls-2" x1="24.6" y1="84" x2="22.4" y2="84"/><line class="cls-2" x1="24.13" y1="86.3" x2="21.83" y2="86.3"/><ellipse class="cls-1" cx="50" cy="81.7" rx="17.83" ry="1.72"/><path class="cls-4" d="M62.08,63.87a12.08,12.08,0,0,0-24.15,0v.41a1.9,1.9,0,0,1-3.63.78l-1-2.1L29.24,65,30.11,67a6.5,6.5,0,0,0,12.41-2.52h0V80h3.75A4.16,4.16,0,0,0,50,77.68h0A4.16,4.16,0,0,0,53.72,80h3.76V64.45h0A6.5,6.5,0,0,0,69.89,67L70.76,65,66.66,63l-1,2.1a1.89,1.89,0,0,1-3.62-.78Z"/><path class="cls-3" d="M70.53,64.92l.91-1.8a2,2,0,0,0-3.59-1.82l-.92,1.8Z"/><path class="cls-3" d="M29.47,64.92l-.91-1.8a2,2,0,0,1,3.59-1.82l.91,1.8Z"/><polygon class="cls-3" points="50 51.8 46.35 55.97 50 66.18 53.65 55.97 50 51.8"/><path class="cls-4" d="M50,66.18l6.33-7.48-1.15-2.3h2.3l-.69-2.51a11.51,11.51,0,0,0-2-1.1Z"/><polygon class="cls-4" points="50 51.8 48.03 60.66 50 66.18 51.97 60.66 50 51.8"/><path class="cls-4" d="M50,66.18,45.22,52.79a11.51,11.51,0,0,0-2,1.1l-.68,2.51h2.3l-1.15,2.3Z"/><path class="cls-3" d="M54.78,52.79a12.09,12.09,0,0,0-4.78-1L53.65,56Z"/><path class="cls-3" d="M50,51.8a12.09,12.09,0,0,0-4.78,1L46.35,56Z"/><line class="cls-2" x1="50" y1="66.18" x2="50" y2="77.68"/><path class="cls-5" d="M37.29,74.35a3.45,3.45,0,0,0-.58,6.87l10.9.37,1.44-5.76Z"/><path class="cls-2" d="M37.29,74.35a3.45,3.45,0,0,0-.58,6.87l10.9.37,1.44-5.76Z"/><path class="cls-3" d="M49.12,76.09l2.06-.26,1.44,5.76-2.92.1a2.82,2.82,0,0,1-3-2.57h0A2.82,2.82,0,0,1,49.12,76.09Z"/><path class="cls-5" d="M62.94,74.35a3.45,3.45,0,0,1,.57,6.87l-10.89.37-1.44-5.76Z"/><path class="cls-2" d="M62.94,74.35a3.45,3.45,0,0,1,.57,6.87l-10.89.37-1.44-5.76Z"/><path class="cls-6" d="M37.93,45.48A12.08,12.08,0,1,1,25.85,33.4,12.08,12.08,0,0,1,37.93,45.48Z"/><path class="cls-7" d="M37.93,45.48A12.08,12.08,0,1,1,25.85,33.4,12.08,12.08,0,0,1,37.93,45.48Z"/><path class="cls-8" d="M28.87,42.46a3,3,0,0,0-3-3h-.22a2.8,2.8,0,0,0-1.25,5.3l2.94,1.47a2.8,2.8,0,0,1-1.25,5.3h-.22a3,3,0,0,1-3-3"/><line class="cls-8" x1="25.85" y1="39.44" x2="25.85" y2="37.93"/><line class="cls-8" x1="25.85" y1="53.02" x2="25.85" y2="51.51"/><circle class="cls-9" cx="74.15" cy="45.47" r="12.08"/><circle class="cls-6" cx="74.15" cy="45.47" r="9.06" transform="translate(-12.16 34.68) rotate(-24.39)"/><circle class="cls-7" cx="74.15" cy="45.47" r="9.06" transform="translate(-12.16 34.68) rotate(-24.39)"/><polyline class="cls-2" points="74.15 38.83 74.15 45.48 77.77 45.48"/><line class="cls-2" x1="79.27" y1="40.35" x2="78.42" y2="41.21"/><line class="cls-2" x1="81.4" y1="45.47" x2="80.19" y2="45.47"/><line class="cls-2" x1="79.27" y1="50.6" x2="78.42" y2="49.74"/><line class="cls-2" x1="74.15" y1="52.72" x2="74.15" y2="51.51"/><line class="cls-2" x1="69.03" y1="50.6" x2="69.88" y2="49.74"/><line class="cls-2" x1="66.9" y1="45.47" x2="68.11" y2="45.47"/><line class="cls-2" x1="69.03" y1="40.35" x2="69.88" y2="41.21"/><path class="cls-4" d="M85.26,57.55a.58.58,0,0,1,.49.89,4.59,4.59,0,0,1-3.77,2H66.32a4.59,4.59,0,0,1-3.77-2,.58.58,0,0,1,.49-.89Z"/><path class="cls-4" d="M14.74,57.55a.58.58,0,0,0-.49.89,4.59,4.59,0,0,0,3.77,2H33.68a4.59,4.59,0,0,0,3.77-2,.58.58,0,0,0-.49-.89Z"/><path class="cls-3" d="M42,42.6a1.42,1.42,0,0,1,1.15-1.38V40.3a6.9,6.9,0,0,1,13.8,0v.92A1.41,1.41,0,0,1,56.76,44a6.91,6.91,0,0,1-13.52,0A1.43,1.43,0,0,1,42,42.6Z"/><path class="cls-10" d="M52.59,40.3a.87.87,0,1,0,.86.86.87.87,0,0,0-.86-.86Z"/><path class="cls-10" d="M47.41,40.3a.87.87,0,1,0,.87.86.87.87,0,0,0-.87-.86Z"/><circle class="cls-5" cx="53.74" cy="43.46" r="0.86"/><circle class="cls-5" cx="46.26" cy="43.46" r="0.86"/><path class="cls-2" d="M48.28,45.53a3.1,3.1,0,0,0,3.45,0"/><path class="cls-3" d="M50,33.4a6.9,6.9,0,0,1,6.9,6.9v.63A1.93,1.93,0,0,1,55,39a1.36,1.36,0,0,0-1.6-1.13,17.17,17.17,0,0,1-6.8,0A1.36,1.36,0,0,0,45,39a1.93,1.93,0,0,1-1.9,1.91V40.3A6.9,6.9,0,0,1,50,33.4Z"/><path class="cls-5" d="M58.94,39.29a3.45,3.45,0,0,1-2.47,4.21L54.68,44a.24.24,0,0,1-.26-.11.23.23,0,0,1,0-.28,2.79,2.79,0,0,0,.73-2.71,1.23,1.23,0,0,0-1.49-.81,4,4,0,0,1-5-4.29,3.91,3.91,0,0,1,3-3.52A5.19,5.19,0,0,1,58.07,36Z"/><path class="cls-2" d="M58.94,39.29a3.45,3.45,0,0,1-2.47,4.21L54.68,44a.24.24,0,0,1-.26-.11.23.23,0,0,1,0-.28,2.79,2.79,0,0,0,.73-2.71,1.23,1.23,0,0,0-1.49-.81,4,4,0,0,1-5-4.29,3.91,3.91,0,0,1,3-3.52A5.19,5.19,0,0,1,58.07,36Z"/><path class="cls-2" d="M58.36,37.07a1.72,1.72,0,0,0,2.1,1.23"/></g></svg>