<svg id="Duotone" xmlns="http://www.w3.org/2000/svg" viewBox="0 0 178 178"><defs><style>.cls-1{fill:#f0f2ff;}.cls-2,.cls-5{fill:#d6daff;}.cls-3,.cls-6{fill:#fff;}.cls-4{fill:none;}.cls-4,.cls-5,.cls-6{stroke:#4550e5;stroke-linecap:round;stroke-linejoin:round;}.cls-7{fill:#4550e5;}</style></defs><title>02- desktop-programming-book-imac</title><g id="Icons"><g id="Background"><g id="New_Symbol_50" data-name="New Symbol 50"><circle class="cls-1" cx="90.34" cy="88" r="81"/></g></g><g id="Scene"><path class="cls-2" d="M115.08,113.26a1.73,1.73,0,0,0-1.27-2.08l-30.19-7.25a1.73,1.73,0,0,0-2.09,1.27l-1,4H68.77a1.72,1.72,0,0,0-1.72,1.73v39.67a1.73,1.73,0,0,0,1.72,1.73H99.82a1.5,1.5,0,0,0,.29-.06l3.62.87a1.73,1.73,0,0,0,2.08-1.27Z"/><rect class="cls-2" x="127.29" y="81.61" width="27.98" height="16.46" rx="1.65" ry="1.65" transform="translate(0.57 180.56) rotate(-65.26)"/><path class="cls-2" d="M136.7,118.51l-2.51,7a6.49,6.49,0,1,0,12.22,4.39l2.51-7a6.49,6.49,0,1,0-12.22-4.39Z"/><path class="cls-2" d="M110.18,98H70.5a5.16,5.16,0,0,1-5.17-5.17V80.7h50V92.78A5.17,5.17,0,0,1,110.18,98Z"/><path class="cls-2" d="M136.05,56.55c0-1.47-12.27-2.73-29.54-3.22l0-.23H74.19l0,.23c-17.26.49-29.53,1.75-29.53,3.22s11.92,2.7,28.78,3.21l-.27,2.3a7.26,7.26,0,0,0,7.21,8.11h20a7.26,7.26,0,0,0,7.21-8.11l-.27-2.3C124.13,59.25,136.05,58,136.05,56.55Z"/><path class="cls-3" d="M111,93.64H69.64a3.44,3.44,0,0,1-3.45-3.45V74.67a1.72,1.72,0,0,1,1.72-1.73h44.85a1.72,1.72,0,0,1,1.73,1.73V90.19A3.45,3.45,0,0,1,111,93.64Z"/><path class="cls-4" d="M111,93.64H69.64a3.44,3.44,0,0,1-3.45-3.45V74.67a1.72,1.72,0,0,1,1.72-1.73h44.85a1.72,1.72,0,0,1,1.73,1.73V90.19A3.45,3.45,0,0,1,111,93.64Z"/><line class="cls-4" x1="71.36" y1="88.47" x2="74.81" y2="88.47"/><line class="cls-4" x1="71.36" y1="83.29" x2="74.81" y2="83.29"/><line class="cls-4" x1="71.36" y1="78.12" x2="74.81" y2="78.12"/><line class="cls-4" x1="78.26" y1="83.29" x2="81.71" y2="83.29"/><line class="cls-4" x1="78.26" y1="78.12" x2="81.71" y2="78.12"/><line class="cls-4" x1="85.16" y1="83.29" x2="88.61" y2="83.29"/><line class="cls-4" x1="85.16" y1="78.12" x2="88.61" y2="78.12"/><line class="cls-4" x1="92.06" y1="83.29" x2="95.51" y2="83.29"/><line class="cls-4" x1="92.06" y1="78.12" x2="95.51" y2="78.12"/><line class="cls-4" x1="98.96" y1="83.29" x2="102.41" y2="83.29"/><line class="cls-4" x1="98.96" y1="78.12" x2="102.41" y2="78.12"/><line class="cls-4" x1="105.86" y1="88.47" x2="109.31" y2="88.47"/><line class="cls-4" x1="105.86" y1="83.29" x2="109.31" y2="83.29"/><line class="cls-4" x1="105.86" y1="78.12" x2="109.31" y2="78.12"/><line class="cls-4" x1="78.26" y1="88.47" x2="102.41" y2="88.47"/><path class="cls-3" d="M154.1,22.92H26.58A6.12,6.12,0,0,0,21,31.59H159.65A6.11,6.11,0,0,0,154.1,22.92Z"/><path class="cls-4" d="M154.1,22.92H26.58A6.12,6.12,0,0,0,21,31.59H159.65A6.11,6.11,0,0,0,154.1,22.92Z"/><path class="cls-3" d="M98,36.72H82.67a6.91,6.91,0,0,0-6.85,6.09L74,58.34A6.89,6.89,0,0,0,80.85,66h19a6.9,6.9,0,0,0,6.85-7.7l-1.82-15.53A6.91,6.91,0,0,0,98,36.72Z"/><path class="cls-4" d="M98,36.72H82.67a6.91,6.91,0,0,0-6.85,6.09L74,58.34A6.89,6.89,0,0,0,80.85,66h19a6.9,6.9,0,0,0,6.85-7.7l-1.82-15.53A6.91,6.91,0,0,0,98,36.72Z"/><path class="cls-2" d="M156.7,26.37H24a3.45,3.45,0,0,0-3,5.22L31.91,49.73a5.16,5.16,0,0,0,4.43,2.51h108a5.16,5.16,0,0,0,4.44-2.51l10.88-18.14A3.44,3.44,0,0,0,156.7,26.37Z"/><path class="cls-3" d="M36.34,52.24H64.46L90.34,26.37H24a3.45,3.45,0,0,0-3,5.22L31.91,49.73A5.16,5.16,0,0,0,36.34,52.24Z"/><path class="cls-4" d="M156.7,26.37H24a3.45,3.45,0,0,0-3,5.22L31.91,49.73a5.16,5.16,0,0,0,4.43,2.51h108a5.16,5.16,0,0,0,4.44-2.51l10.88-18.14A3.44,3.44,0,0,0,156.7,26.37Z"/><path class="cls-3" d="M30.31,47.07l1.6,2.66a5.16,5.16,0,0,0,4.43,2.51h108a5.16,5.16,0,0,0,4.44-2.51l1.6-2.66Z"/><path class="cls-4" d="M30.31,47.07l1.6,2.66a5.16,5.16,0,0,0,4.43,2.51h108a5.16,5.16,0,0,0,4.44-2.51l1.6-2.66Z"/><path class="cls-5" d="M56.8,57.42H45.58a1.73,1.73,0,0,1-1.46-.81L42,53.16a1.73,1.73,0,0,1,1.47-2.64H55.51a1.72,1.72,0,0,1,1.61,1.12l1.29,3.45A1.72,1.72,0,0,1,56.8,57.42Z"/><path class="cls-2" d="M131.69,29.82H49a1.72,1.72,0,0,0-1.58,2.41l4.53,10.35a1.72,1.72,0,0,0,1.58,1h73.64a1.72,1.72,0,0,0,1.58-1l4.53-10.35A1.72,1.72,0,0,0,131.69,29.82Z"/><path class="cls-4" d="M131.69,29.82H49a1.72,1.72,0,0,0-1.58,2.41l4.53,10.35a1.72,1.72,0,0,0,1.58,1h73.64a1.72,1.72,0,0,0,1.58-1l4.53-10.35A1.72,1.72,0,0,0,131.69,29.82Z"/><line class="cls-4" x1="52.39" y1="33.27" x2="59.29" y2="33.27"/><line class="cls-4" x1="57.56" y1="36.72" x2="66.19" y2="36.72"/><line class="cls-4" x1="116.21" y1="29.82" x2="113.63" y2="43.62"/><line class="cls-4" x1="64.46" y1="40.17" x2="73.09" y2="40.17"/><line class="cls-4" x1="62.74" y1="33.27" x2="64.46" y2="33.27"/><circle class="cls-2" cx="40.08" cy="91.92" r="12.08"/><path class="cls-6" d="M30.93,99.55a2.59,2.59,0,0,1-3.66-3.66l4.27-4.27,3.66,3.66Z"/><path class="cls-6" d="M32.15,94.67a11.21,11.21,0,1,0,0-15.86A11.21,11.21,0,0,0,32.15,94.67Z"/><circle class="cls-2" cx="40.08" cy="86.74" r="7.76"/><circle class="cls-4" cx="40.08" cy="86.74" r="7.76"/><path class="cls-3" d="M136.15,117l-2.33,6.5a6,6,0,0,0,11.37,4.08l2.33-6.49A6,6,0,1,0,136.15,117Z"/><path class="cls-4" d="M136.15,117l-2.33,6.5a6,6,0,0,0,11.37,4.08l2.33-6.49A6,6,0,1,0,136.15,117Z"/><path class="cls-7" d="M142.13,117.39a.85.85,0,0,0-.81.57.87.87,0,0,0,.52,1.11.93.93,0,0,0,.29.05.87.87,0,0,0,.29-1.68,1,1,0,0,0-.29,0Z"/><path class="cls-6" d="M73.08,108.55h38a1.72,1.72,0,0,1,1.72,1.72V139.6a1.72,1.72,0,0,1-1.72,1.72h-38a1.72,1.72,0,0,1-1.72-1.72V110.28A1.73,1.73,0,0,1,73.08,108.55Z" transform="translate(-50.65 185.93) rotate(-76.76)"/><path class="cls-5" d="M85.83,123.76h6.9a1.73,1.73,0,0,1,1.73,1.73v22.42a1.73,1.73,0,0,1-1.73,1.73h-6.9a1.72,1.72,0,0,1-1.72-1.72V125.48A1.72,1.72,0,0,1,85.83,123.76Z" transform="translate(-64.23 192.29) rotate(-76.76)"/><rect class="cls-5" x="94.67" y="93.53" width="3.45" height="25.87" transform="translate(-29.33 175.91) rotate(-76.76)"/><polygon class="cls-5" points="110.76 116.94 109.18 123.66 96.79 104.79 103.5 106.37 110.76 116.94"/><line class="cls-4" x1="80.34" y1="125.73" x2="88.74" y2="127.71"/><path class="cls-4" d="M99.31,120.45a4.31,4.31,0,1,1-5.68-2.23"/><path class="cls-4" d="M88.89,123.31a6,6,0,1,1,7.26-4.49"/><line class="cls-4" x1="80.04" y1="134.52" x2="98.52" y2="138.87"/><rect class="cls-6" x="67.91" y="103.99" width="32.77" height="41.4" rx="1.72" ry="1.72"/><path class="cls-5" d="M73.08,131.6H95.51a1.73,1.73,0,0,1,1.73,1.73v6.9a1.73,1.73,0,0,1-1.73,1.73H73.08a1.72,1.72,0,0,1-1.72-1.72v-6.9A1.72,1.72,0,0,1,73.08,131.6Z"/><rect class="cls-5" x="71.36" y="104" width="25.88" height="3.45"/><polygon class="cls-5" points="100.68 112.62 100.68 119.52 84.3 104 91.2 104 100.68 112.62"/><line class="cls-4" x1="73.08" y1="128.15" x2="81.71" y2="128.15"/><path class="cls-4" d="M90.33,118.66a4.31,4.31,0,1,1-6-.86"/><path class="cls-4" d="M80.85,123.83a6,6,0,1,1,6-6"/><line class="cls-4" x1="74.81" y1="136.77" x2="93.78" y2="136.77"/><rect class="cls-6" x="133.1" y="74.93" width="14.49" height="24.84" rx="1" ry="1" transform="translate(49.43 -50.72) rotate(24.74)"/><rect class="cls-2" x="133.1" y="79.07" width="14.49" height="16.56" transform="translate(49.43 -50.72) rotate(24.74)"/><polygon class="cls-3" points="131.6 89.02 149.45 82.43 137.23 76.8 131.6 89.02"/><rect class="cls-4" x="133.1" y="79.07" width="14.49" height="16.56" transform="translate(49.43 -50.72) rotate(24.74)"/></g></g></svg>