<?xml version="1.0" encoding="utf-8"?>
<!-- Generator: Adobe Illustrator 22.0.0, SVG Export Plug-In . SVG Version: 6.00 Build 0)  -->
<svg version="1.1" id="Layer_1" xmlns="http://www.w3.org/2000/svg" xmlns:xlink="http://www.w3.org/1999/xlink" x="0px" y="0px"
	 viewBox="0 0 100 112" style="enable-background:new 0 0 100 112;" xml:space="preserve">
<style type="text/css">
	.st0{clip-path:url(#SVGID_2_);fill:#F0F2FF;}
	.st1{clip-path:url(#SVGID_2_);fill:#FFFFFF;}
	.st2{clip-path:url(#SVGID_2_);fill:#dce5ff;}
	.st3{clip-path:url(#SVGID_2_);fill:none;stroke:#2963ff;stroke-linecap:round;stroke-linejoin:round;stroke-miterlimit:10;}
</style>
<g>
	<defs>
		<rect id="SVGID_1_" width="100" height="112"/>
	</defs>
	<clipPath id="SVGID_2_">
		<use xlink:href="#SVGID_1_"  style="overflow:visible;"/>
	</clipPath>
	<path class="st0" d="M90,56.5c0,22.1-17.9,40-40,40s-40-17.9-40-40s17.9-40,40-40S90,34.4,90,56.5"/>
	<path class="st1" d="M54.3,43c-1.5-0.4-3.3,1.2-3.3,2.8c0-1.6-1.8-3.1-3.3-2.8c-9.2,2.3-17.2,12-17.2,27.1
		c0,15.1,20.5,20.2,20.5,9.3c0,10.9,20.5,5.7,20.5-9.3C71.4,54.9,63.5,45.3,54.3,43"/>
	<path class="st2" d="M63.1,91c0,0.9-5.4,1.7-12.1,1.7S38.9,91.9,38.9,91c0-0.9,5.4-1.7,12.1-1.7S63.1,90.1,63.1,91"/>
	<path class="st3" d="M54.3,43c-1.5-0.4-3.3,1.2-3.3,2.8c0-1.6-1.8-3.1-3.3-2.8c-9.2,2.3-17.2,12-17.2,27.1
		c0,15.1,20.5,20.2,20.5,9.3c0,10.9,20.5,5.7,20.5-9.3C71.4,54.9,63.5,45.3,54.3,43z"/>
	<path class="st2" d="M46.7,69.4h8.6c0.6,0,1-0.4,1-1v-8.6c0-0.6-0.4-1-1-1h-8.6c-0.6,0-1,0.4-1,1v8.6
		C45.7,68.9,46.1,69.4,46.7,69.4"/>
	<path class="st1" d="M45.7,68.2l9.4-9.4h-8.3c-0.6,0-1.1,0.5-1.1,1.1V68.2z"/>
	<path class="st3" d="M46.7,69.4h8.6c0.6,0,1-0.4,1-1v-8.6c0-0.6-0.4-1-1-1h-8.6c-0.6,0-1,0.4-1,1v8.6
		C45.7,68.9,46.1,69.4,46.7,69.4z"/>
	<line class="st3" x1="54.9" y1="58.8" x2="54.9" y2="56.8"/>
	<line class="st3" x1="52.3" y1="58.8" x2="52.3" y2="56.8"/>
	<line class="st3" x1="49.7" y1="58.8" x2="49.7" y2="56.8"/>
	<line class="st3" x1="47" y1="58.8" x2="47" y2="56.8"/>
	<line class="st3" x1="54.9" y1="71.3" x2="54.9" y2="69.4"/>
	<line class="st3" x1="52.3" y1="71.3" x2="52.3" y2="69.4"/>
	<line class="st3" x1="49.7" y1="71.3" x2="49.7" y2="69.4"/>
	<line class="st3" x1="47" y1="71.3" x2="47" y2="69.4"/>
	<line class="st3" x1="56.3" y1="68" x2="58.2" y2="68"/>
	<line class="st3" x1="56.3" y1="65.4" x2="58.2" y2="65.4"/>
	<line class="st3" x1="56.3" y1="62.8" x2="58.2" y2="62.8"/>
	<line class="st3" x1="56.3" y1="60.1" x2="58.2" y2="60.1"/>
	<line class="st3" x1="43.7" y1="68" x2="45.7" y2="68"/>
	<line class="st3" x1="43.7" y1="65.4" x2="45.7" y2="65.4"/>
	<line class="st3" x1="43.7" y1="62.8" x2="45.7" y2="62.8"/>
	<line class="st3" x1="43.7" y1="60.1" x2="45.7" y2="60.1"/>
	<line class="st3" x1="51" y1="45.7" x2="51" y2="54.2"/>
	<line class="st3" x1="51" y1="79.4" x2="51" y2="75.3"/>
	<line class="st3" x1="49.7" y1="66.7" x2="53.6" y2="66.7"/>
	<path class="st3" d="M51,49.6h-4.3c-1.6,0-3,1.3-3,3c0,1.3-1,2.3-2.3,2.3c-1.3,0-2.3-1-2.3-2.3v-0.3"/>
	<path class="st3" d="M31.5,61.4h5.3c0.9,0,1.7-0.7,1.7-1.6c0-0.9,0.7-1.7,1.6-1.7h1.7"/>
	<path class="st3" d="M30.6,68h3.2c1,0,1.9,0.6,2.4,1.5c0.5,1.1,1.7,1.8,3,1.8h4"/>
	<path class="st3" d="M39.8,67.4c0-1.5-1.2-2.6-2.6-2.6h-2"/>
	<line class="st3" x1="41.7" y1="84.7" x2="41.7" y2="81.2"/>
	<line class="st3" x1="41.6" y1="51.5" x2="41.6" y2="48.9"/>
	<path class="st3" d="M44.4,78.6c0,1.5-1.2,2.6-2.6,2.6s-2.6-1.2-2.6-2.6"/>
	<path class="st3" d="M41.7,77.3c0-1.5-1.2-2.6-2.6-2.6h-4.6"/>
	<line class="st3" x1="48.3" y1="75.3" x2="46.4" y2="75.3"/>
	<path class="st3" d="M51,49.6h4.3c1.6,0,3,1.3,3,3c0,1.3,1,2.3,2.3,2.3c1.3,0,2.3-1,2.3-2.3v-0.3"/>
	<path class="st3" d="M70.5,61.4h-5.3c-0.9,0-1.7-0.7-1.7-1.6c0-0.9-0.7-1.7-1.6-1.7h-1.7"/>
	<path class="st3" d="M71.4,68h-3.2c-1,0-1.9,0.6-2.4,1.5c-0.5,1.1-1.7,1.8-3,1.8h-4"/>
	<path class="st3" d="M62.2,67.4c0-1.5,1.2-2.6,2.6-2.6h2"/>
	<line class="st3" x1="60.2" y1="84.7" x2="60.2" y2="81.2"/>
	<line class="st3" x1="60.4" y1="51.5" x2="60.4" y2="48.9"/>
	<path class="st3" d="M57.6,78.6c0,1.5,1.2,2.6,2.6,2.6s2.6-1.2,2.6-2.6"/>
	<path class="st3" d="M60.2,77.3c0-1.5,1.2-2.6,2.6-2.6h4.6"/>
	<line class="st3" x1="53.6" y1="75.3" x2="55.6" y2="75.3"/>
	<line class="st3" x1="80" y1="48.5" x2="80" y2="47.5"/>
	<line class="st3" x1="82.1" y1="49.4" x2="82.8" y2="48.7"/>
	<line class="st3" x1="83" y1="51.5" x2="84" y2="51.5"/>
	<line class="st3" x1="82.1" y1="53.6" x2="82.8" y2="54.3"/>
	<line class="st3" x1="80" y1="54.5" x2="80" y2="55.4"/>
	<line class="st3" x1="77.9" y1="53.6" x2="77.2" y2="54.3"/>
	<line class="st3" x1="77" y1="51.5" x2="76.1" y2="51.5"/>
	<line class="st3" x1="77.9" y1="49.4" x2="77.2" y2="48.7"/>
	<line class="st3" x1="63.5" y1="31.2" x2="63.5" y2="25.9"/>
	<line class="st3" x1="60.9" y1="28.6" x2="66.2" y2="28.6"/>
	<line class="st3" x1="21.3" y1="64" x2="21.3" y2="58.7"/>
	<line class="st3" x1="18.6" y1="61.4" x2="23.9" y2="61.4"/>
	<line class="st3" x1="30.5" y1="27.2" x2="30.5" y2="24.6"/>
	<line class="st3" x1="29.2" y1="25.9" x2="31.8" y2="25.9"/>
	<line class="st3" x1="80.7" y1="38.5" x2="80.7" y2="35.8"/>
	<line class="st3" x1="79.4" y1="37.1" x2="82" y2="37.1"/>
	<line class="st3" x1="18.6" y1="49.9" x2="18.6" y2="47.3"/>
	<line class="st3" x1="17.3" y1="48.6" x2="20" y2="48.6"/>
	<path class="st1" d="M65.6,42.6c-0.1,0.2-0.1,0.4,0,0.6c0.1,0.2,0.3,0.3,0.5,0.3h5.3c0.2,0,0.4-0.1,0.5-0.3c0.1-0.2,0.1-0.4,0-0.6
		l-2.7-5c-0.1-0.2-0.3-0.3-0.6-0.3c-0.2,0-0.5,0.1-0.6,0.3L65.6,42.6z"/>
	<path class="st3" d="M65.6,42.6c-0.1,0.2-0.1,0.4,0,0.6c0.1,0.2,0.3,0.3,0.5,0.3h5.3c0.2,0,0.4-0.1,0.5-0.3c0.1-0.2,0.1-0.4,0-0.6
		l-2.7-5c-0.1-0.2-0.3-0.3-0.6-0.3c-0.2,0-0.5,0.1-0.6,0.3L65.6,42.6z"/>
	<path class="st3" d="M48.2,37.2c-6-1.8-9.4-8.2-7.6-14.2c1.5-4.8,6.5-7.6,11.4-6.1c3.9,1.2,6,5.2,4.9,9.1c-0.9,3.1-4.2,4.8-7.3,3.9
		c-2.5-0.7-3.9-3.3-3.1-5.8c0.6-2,2.7-3.1,4.7-2.5c1.6,0.5,2.5,2.1,2,3.7c-0.4,1.3-1.7,2-3,1.6"/>
	<path class="st3" d="M19.4,33h1.2c0.7,0,1.3,0.6,1.3,1.3v1.1c0,0.7,0.6,1.3,1.3,1.3h1.1c0.7,0,1.3,0.6,1.3,1.3v1.1
		c0,0.7,0.6,1.3,1.3,1.3h1.1c0.7,0,1.3,0.6,1.3,1.3v1.1c0,0.7,0.6,1.3,1.3,1.3h1.1"/>
</g>
</svg>
