<svg id="Duotone" xmlns="http://www.w3.org/2000/svg" xmlns:xlink="http://www.w3.org/1999/xlink" viewBox="0 0 100 112"><defs><style>.cls-1,.cls-3{fill:none;}.cls-2{fill:#f0f2ff;}.cls-3,.cls-4,.cls-6,.cls-8{stroke:#4550e5;stroke-linejoin:round;}.cls-3,.cls-6,.cls-8{stroke-linecap:round;}.cls-4,.cls-8,.cls-9{fill:#d6daff;}.cls-5,.cls-6{fill:#fff;}.cls-7{clip-path:url(#clip-path);}</style><clipPath id="clip-path"><circle class="cls-1" cx="50" cy="56.05" r="40"/></clipPath></defs><title>05- business-management</title><g id="Icons"><path class="cls-2" d="M90,56.05a40,40,0,1,0-76.44,16.5H86.44A39.92,39.92,0,0,0,90,56.05Z"/><line class="cls-3" x1="11" y1="72.55" x2="89" y2="72.55"/><line class="cls-3" x1="6.5" y1="72.55" x2="9" y2="72.55"/><line class="cls-3" x1="91" y1="72.55" x2="93.5" y2="72.55"/><path class="cls-4" d="M89.19,66.58a1.23,1.23,0,0,0-.69-.93,1.21,1.21,0,0,0-1.15.06,11.56,11.56,0,0,1-6.94,1.42,1.22,1.22,0,0,0-1,.34,1.25,1.25,0,0,0-.35,1L79.37,71a1.21,1.21,0,0,0,1.1,1,17.87,17.87,0,0,0,7.69-1.18,2.13,2.13,0,0,0,1.32-2.28Z"/><path class="cls-5" d="M85.13,69.53A.92.92,0,0,1,84,70.2a.93.93,0,0,1-.68-1.11.92.92,0,0,1,1.11-.67A.93.93,0,0,1,85.13,69.53Z"/><path class="cls-5" d="M74.15,72.55h5A1.76,1.76,0,0,0,80.9,70.8h0a1.75,1.75,0,0,0-1.75-1.75h-5A1.75,1.75,0,0,0,72.4,70.8h0A1.75,1.75,0,0,0,74.15,72.55Z"/><path class="cls-3" d="M74.15,72.55h5A1.76,1.76,0,0,0,80.9,70.8h0a1.75,1.75,0,0,0-1.75-1.75h-5A1.75,1.75,0,0,0,72.4,70.8h0A1.75,1.75,0,0,0,74.15,72.55Z"/><path class="cls-5" d="M65.65,72.55h5A1.76,1.76,0,0,0,72.4,70.8h0a1.75,1.75,0,0,0-1.75-1.75h-5A1.75,1.75,0,0,0,63.9,70.8h0A1.75,1.75,0,0,0,65.65,72.55Z"/><path class="cls-3" d="M65.65,72.55h5A1.76,1.76,0,0,0,72.4,70.8h0a1.75,1.75,0,0,0-1.75-1.75h-5A1.75,1.75,0,0,0,63.9,70.8h0A1.75,1.75,0,0,0,65.65,72.55Z"/><path class="cls-6" d="M72.65,69.05h5A1.76,1.76,0,0,0,79.4,67.3h0a1.75,1.75,0,0,0-1.75-1.75h-5A1.75,1.75,0,0,0,70.9,67.3h0A1.75,1.75,0,0,0,72.65,69.05Z"/><path class="cls-5" d="M64.15,69.05h5A1.76,1.76,0,0,0,70.9,67.3h0a1.75,1.75,0,0,0-1.75-1.75h-5A1.75,1.75,0,0,0,62.4,67.3h0A1.75,1.75,0,0,0,64.15,69.05Z"/><path class="cls-3" d="M64.15,69.05h5A1.76,1.76,0,0,0,70.9,67.3h0a1.75,1.75,0,0,0-1.75-1.75h-5A1.75,1.75,0,0,0,62.4,67.3h0A1.75,1.75,0,0,0,64.15,69.05Z"/><path class="cls-5" d="M74.15,65.55h5A1.76,1.76,0,0,0,80.9,63.8h0a1.75,1.75,0,0,0-1.75-1.75h-5A1.75,1.75,0,0,0,72.4,63.8h0A1.75,1.75,0,0,0,74.15,65.55Z"/><path class="cls-3" d="M74.15,65.55h5A1.76,1.76,0,0,0,80.9,63.8h0a1.75,1.75,0,0,0-1.75-1.75h-5A1.75,1.75,0,0,0,72.4,63.8h0A1.75,1.75,0,0,0,74.15,65.55Z"/><path class="cls-6" d="M70.15,62.05h5A1.76,1.76,0,0,0,76.9,60.3h0a1.75,1.75,0,0,0-1.75-1.75h-5A1.75,1.75,0,0,0,68.4,60.3h0A1.75,1.75,0,0,0,70.15,62.05Z"/><path class="cls-5" d="M65.65,65.55h5A1.76,1.76,0,0,0,72.4,63.8h0a1.75,1.75,0,0,0-1.75-1.75h-5A1.75,1.75,0,0,0,63.9,63.8h0A1.75,1.75,0,0,0,65.65,65.55Z"/><path class="cls-3" d="M65.65,65.55h5A1.76,1.76,0,0,0,72.4,63.8h0a1.75,1.75,0,0,0-1.75-1.75h-5A1.75,1.75,0,0,0,63.9,63.8h0A1.75,1.75,0,0,0,65.65,65.55Z"/><path class="cls-5" d="M20.75,72.55h-5A1.75,1.75,0,0,1,14,70.8h0a1.75,1.75,0,0,1,1.75-1.75h5A1.75,1.75,0,0,1,22.5,70.8h0A1.75,1.75,0,0,1,20.75,72.55Z"/><path class="cls-3" d="M20.75,72.55h-5A1.75,1.75,0,0,1,14,70.8h0a1.75,1.75,0,0,1,1.75-1.75h5A1.75,1.75,0,0,1,22.5,70.8h0A1.75,1.75,0,0,1,20.75,72.55Z"/><path class="cls-5" d="M29.25,72.55h-5A1.75,1.75,0,0,1,22.5,70.8h0a1.75,1.75,0,0,1,1.75-1.75h5A1.75,1.75,0,0,1,31,70.8h0A1.75,1.75,0,0,1,29.25,72.55Z"/><path class="cls-3" d="M29.25,72.55h-5A1.75,1.75,0,0,1,22.5,70.8h0a1.75,1.75,0,0,1,1.75-1.75h5A1.75,1.75,0,0,1,31,70.8h0A1.75,1.75,0,0,1,29.25,72.55Z"/><path class="cls-5" d="M22.25,69.05h-5A1.75,1.75,0,0,1,15.5,67.3h0a1.75,1.75,0,0,1,1.75-1.75h5A1.75,1.75,0,0,1,24,67.3h0A1.75,1.75,0,0,1,22.25,69.05Z"/><path class="cls-3" d="M22.25,69.05h-5A1.75,1.75,0,0,1,15.5,67.3h0a1.75,1.75,0,0,1,1.75-1.75h5A1.75,1.75,0,0,1,24,67.3h0A1.75,1.75,0,0,1,22.25,69.05Z"/><path class="cls-5" d="M30.75,69.05h-5A1.75,1.75,0,0,1,24,67.3h0a1.75,1.75,0,0,1,1.75-1.75h5A1.75,1.75,0,0,1,32.5,67.3h0A1.75,1.75,0,0,1,30.75,69.05Z"/><path class="cls-3" d="M30.75,69.05h-5A1.75,1.75,0,0,1,24,67.3h0a1.75,1.75,0,0,1,1.75-1.75h5A1.75,1.75,0,0,1,32.5,67.3h0A1.75,1.75,0,0,1,30.75,69.05Z"/><path class="cls-5" d="M20.75,65.55h-5A1.75,1.75,0,0,1,14,63.8h0a1.75,1.75,0,0,1,1.75-1.75h5A1.75,1.75,0,0,1,22.5,63.8h0A1.75,1.75,0,0,1,20.75,65.55Z"/><path class="cls-3" d="M20.75,65.55h-5A1.75,1.75,0,0,1,14,63.8h0a1.75,1.75,0,0,1,1.75-1.75h5A1.75,1.75,0,0,1,22.5,63.8h0A1.75,1.75,0,0,1,20.75,65.55Z"/><path class="cls-5" d="M24.75,62.05h-5A1.75,1.75,0,0,1,18,60.3h0a1.75,1.75,0,0,1,1.75-1.75h5A1.75,1.75,0,0,1,26.5,60.3h0A1.75,1.75,0,0,1,24.75,62.05Z"/><path class="cls-3" d="M24.75,62.05h-5A1.75,1.75,0,0,1,18,60.3h0a1.75,1.75,0,0,1,1.75-1.75h5A1.75,1.75,0,0,1,26.5,60.3h0A1.75,1.75,0,0,1,24.75,62.05Z"/><path class="cls-5" d="M29.25,65.55h-5A1.75,1.75,0,0,1,22.5,63.8h0a1.75,1.75,0,0,1,1.75-1.75h5A1.75,1.75,0,0,1,31,63.8h0A1.75,1.75,0,0,1,29.25,65.55Z"/><path class="cls-3" d="M29.25,65.55h-5A1.75,1.75,0,0,1,22.5,63.8h0a1.75,1.75,0,0,1,1.75-1.75h5A1.75,1.75,0,0,1,31,63.8h0A1.75,1.75,0,0,1,29.25,65.55Z"/><path class="cls-3" d="M37.75,72.55h-5A1.75,1.75,0,0,1,31,70.8h0a1.75,1.75,0,0,1,1.75-1.75h5A1.75,1.75,0,0,1,39.5,70.8h0A1.75,1.75,0,0,1,37.75,72.55Z"/><g class="cls-7"><rect class="cls-6" x="40.5" y="89.05" width="19" height="8.5"/><line class="cls-3" x1="50" y1="94.55" x2="50" y2="97.55"/><path class="cls-5" d="M40.5,82.55v11.5h5a4,4,0,0,0,3.84-2.85L50,89.05l.64,2.15a4,4,0,0,0,3.84,2.85h5v-5h6V70.55A15.5,15.5,0,0,0,49.25,55.07C40.91,55.46,34.5,62.64,34.5,71v8.56a3,3,0,0,0,3,3Z"/><path class="cls-3" d="M40.5,82.55v11.5h5a4,4,0,0,0,3.84-2.85L50,89.05l.64,2.15a4,4,0,0,0,3.84,2.85h5v-5h6V70.55A15.5,15.5,0,0,0,49.25,55.07C40.91,55.46,34.5,62.64,34.5,71v8.56a3,3,0,0,0,3,3Z"/><path class="cls-6" d="M59.5,60.55c0-3-3-5.63-6.33-6H46.83c-3.38.37-6.33,3-6.33,6l3,1-2.5,3,9,13.5,9-13.5-2.5-3Z"/><path class="cls-6" d="M53.5,57.55v-3.5h-7v3.5c-.55,2.37-1.09,4.22-.32,6.53l3.82,14,3.82-14C54.59,61.77,54.05,59.92,53.5,57.55Z"/><polyline class="cls-3" points="53.98 63.54 50 61.05 46.02 63.54"/><polygon class="cls-8" points="51.81 62.18 51 64.05 49 64.05 48.19 62.18 50 61.05 51.81 62.18"/><path class="cls-8" d="M52,70.61a24.63,24.63,0,0,0-1-6.56H49a24.63,24.63,0,0,0-1,6.56l2,7.44Z"/><polygon class="cls-6" points="53.5 57.55 50 61.05 46.5 57.55 46.5 52.05 53.5 52.05 53.5 57.55"/><polygon class="cls-3" points="53.5 57.55 50 61.05 46.5 57.55 46.5 52.05 53.5 52.05 53.5 57.55"/><line class="cls-3" x1="40.5" y1="69.05" x2="40.5" y2="89.05"/><line class="cls-3" x1="59.5" y1="90.05" x2="59.5" y2="69.05"/><line class="cls-3" x1="50" y1="89.05" x2="50" y2="78.05"/><path class="cls-5" d="M60,41.55v-2.5a10,10,0,0,0-20,0v2.5a2,2,0,0,0,0,4l.12,0a10,10,0,0,0,19.76,0l.12,0a2,2,0,0,0,0-4Z"/><path class="cls-3" d="M60,41.55v-2.5a10,10,0,0,0-20,0v2.5a2,2,0,0,0,0,4l.12,0a10,10,0,0,0,19.76,0l.12,0a2,2,0,0,0,0-4Z"/><circle class="cls-9" cx="44.25" cy="45.8" r="1.25"/><circle class="cls-9" cx="55.75" cy="45.8" r="1.25"/><path class="cls-3" d="M47,48.34a4.38,4.38,0,0,0,6,0"/><path class="cls-5" d="M59.1,31.86A7.19,7.19,0,0,0,59.5,30a.48.48,0,0,0-.2-.44.49.49,0,0,0-.48-.07,2,2,0,0,1-1.32.06,6.88,6.88,0,0,1-1.09-.43,10.94,10.94,0,0,0-7.3-2A11.21,11.21,0,0,0,39,38.36v3.69l.55.27A1,1,0,0,0,41,41.43v-.38a9,9,0,0,1,4.36-7.71A5.31,5.31,0,0,0,50,35.55a6.71,6.71,0,0,0,2.29-.41,2.78,2.78,0,0,0,2.46,1.41A2.81,2.81,0,0,0,57,35.44a8.94,8.94,0,0,1,2,5.61v.38a1,1,0,0,0,1.45.89l.55-.27v-4A11,11,0,0,0,59.1,31.86Z"/><path class="cls-3" d="M59.1,31.86A7.19,7.19,0,0,0,59.5,30a.48.48,0,0,0-.2-.44.49.49,0,0,0-.48-.07,2,2,0,0,1-1.32.06,6.88,6.88,0,0,1-1.09-.43,10.94,10.94,0,0,0-7.3-2A11.21,11.21,0,0,0,39,38.36v3.69l.55.27A1,1,0,0,0,41,41.43v-.38a9,9,0,0,1,4.36-7.71A5.31,5.31,0,0,0,50,35.55a6.71,6.71,0,0,0,2.29-.41,2.78,2.78,0,0,0,2.46,1.41A2.81,2.81,0,0,0,57,35.44a8.94,8.94,0,0,1,2,5.61v.38a1,1,0,0,0,1.45.89l.55-.27v-4A11,11,0,0,0,59.1,31.86Z"/><line class="cls-3" x1="49" y1="41.05" x2="51" y2="41.05"/><rect class="cls-6" x="51.93" y="65.06" width="3" height="12" transform="translate(33.2 -15.51) rotate(23.79)"/><path class="cls-9" d="M59.57,61.47a1.75,1.75,0,1,0-3.2-1.41L54.48,65l2.74,1.21Z"/><path class="cls-3" d="M59.57,61.47a1.75,1.75,0,1,0-3.2-1.41L54.48,65l2.74,1.21Z"/><rect class="cls-6" x="56.42" y="69.76" width="3" height="12" transform="translate(107.6 -5.65) rotate(68.79)"/><path class="cls-9" d="M69.05,73.32a1.75,1.75,0,0,0-1.27-3.26L63,72.19,64.06,75Z"/><path class="cls-3" d="M69.05,73.32a1.75,1.75,0,0,0-1.27-3.26L63,72.19,64.06,75Z"/><rect class="cls-6" x="56.28" y="76.26" width="3" height="12" transform="translate(156.36 62.58) rotate(113.79)"/><path class="cls-8" d="M67.37,88.4a1.75,1.75,0,0,0,1.41-3.2l-4.91-1.89-1.21,2.75Z"/><rect class="cls-6" x="51.58" y="80.76" width="3" height="12" transform="translate(133.94 148.44) rotate(158.79)"/><path class="cls-8" d="M55.51,97.88a1.75,1.75,0,0,0,3.27-1.26l-2.14-4.81L53.85,92.9Z"/><rect class="cls-6" x="45.07" y="80.61" width="3" height="12" transform="translate(54.25 184.65) rotate(-156.21)"/><path class="cls-8" d="M40.43,96.2a1.75,1.75,0,1,0,3.2,1.41l1.89-4.9L42.78,91.5Z"/><rect class="cls-6" x="40.58" y="75.91" width="3" height="12" transform="translate(-19.07 150.77) rotate(-111.21)"/><path class="cls-8" d="M31,84.35a1.75,1.75,0,0,0,1.27,3.26L37,85.48l-1.08-2.8Z"/><rect class="cls-6" x="40.72" y="69.41" width="3" height="12" transform="translate(-43.81 83.62) rotate(-66.21)"/><path class="cls-8" d="M32.63,69.27a1.75,1.75,0,0,0-1.41,3.2l4.91,1.89,1.21-2.75Z"/><rect class="cls-6" x="45.42" y="64.91" width="3" height="12" transform="translate(-22.48 21.78) rotate(-21.21)"/><path class="cls-9" d="M44.49,59.79a1.75,1.75,0,0,0-3.27,1.27l2.14,4.8,2.79-1.08Z"/><path class="cls-3" d="M44.49,59.79a1.75,1.75,0,0,0-3.27,1.27l2.14,4.8,2.79-1.08Z"/><path class="cls-5" d="M50,66.84a12,12,0,1,0,12,12A12,12,0,0,0,50,66.84Zm0,21a9,9,0,1,1,9-9A9,9,0,0,1,50,87.84Z"/><path class="cls-9" d="M54.17,80.52a4.5,4.5,0,1,1-2.48-5.86A4.5,4.5,0,0,1,54.17,80.52Z"/><path class="cls-3" d="M54.17,80.52a4.5,4.5,0,1,1-2.48-5.86A4.5,4.5,0,0,1,54.17,80.52Z"/><path class="cls-6" d="M51.85,79.58a2,2,0,1,1-1.1-2.6A2,2,0,0,1,51.85,79.58Z"/><path class="cls-5" d="M68.12,87.48l-1.2,2.13a1.5,1.5,0,0,1-2,.56l-2.61-1.48a1.49,1.49,0,0,1-.56-2l1.2-2.12a2,2,0,0,1,2.43-.9,10.68,10.68,0,0,1,2.3,1.31A2,2,0,0,1,68.12,87.48Z"/><path class="cls-3" d="M68.12,87.48l-1.2,2.13a1.5,1.5,0,0,1-2,.56l-2.61-1.48a1.49,1.49,0,0,1-.56-2l1.2-2.12a2,2,0,0,1,2.43-.9,10.68,10.68,0,0,1,2.3,1.31A2,2,0,0,1,68.12,87.48Z"/><path class="cls-5" d="M32,74.18a2,2,0,0,1-.85-2.45L32,69.46A1.5,1.5,0,0,1,34,68.6l2.8,1.08a1.5,1.5,0,0,1,.85,1.94l-.88,2.28a2,2,0,0,1-2.27,1.24A10.29,10.29,0,0,1,32,74.18Z"/><path class="cls-3" d="M32,74.18a2,2,0,0,1-.85-2.45L32,69.46A1.5,1.5,0,0,1,34,68.6l2.8,1.08a1.5,1.5,0,0,1,.85,1.94l-.88,2.28a2,2,0,0,1-2.27,1.24A10.29,10.29,0,0,1,32,74.18Z"/><path class="cls-3" d="M50,66.84a12,12,0,1,0,12,12A12,12,0,0,0,50,66.84Zm0,21a9,9,0,1,1,9-9A9,9,0,0,1,50,87.84Z"/><path class="cls-9" d="M51.51,40h6a.5.5,0,0,1,.5.5v3a1,1,0,0,1-1,1H53a2,2,0,0,1-2-2v-2A.5.5,0,0,1,51.51,40Z"/><path class="cls-5" d="M52.39,44.44l3.77-4.39H51.51a.5.5,0,0,0-.5.5v2A2,2,0,0,0,52.39,44.44Z"/><path class="cls-9" d="M42.51,40h6a.5.5,0,0,1,.5.5v2a2,2,0,0,1-2,2H43a1,1,0,0,1-1-1v-3A.5.5,0,0,1,42.51,40Z"/><path class="cls-5" d="M42.51,40.05a.5.5,0,0,0-.5.5v3a1,1,0,0,0,1,1h.22l3.86-4.5Z"/><path class="cls-3" d="M42.51,40h6a.5.5,0,0,1,.5.5v2a2,2,0,0,1-2,2H43a1,1,0,0,1-1-1v-3A.5.5,0,0,1,42.51,40Z"/><path class="cls-3" d="M52,40h4a2,2,0,0,1,2,2v2a.5.5,0,0,1-.5.5h-6A.5.5,0,0,1,51,44V41A1,1,0,0,1,52,40Z" transform="translate(109 84.59) rotate(180)"/><path class="cls-3" d="M56,42.55a1.62,1.62,0,0,0-3,0"/><path class="cls-3" d="M47,42.55a1.63,1.63,0,0,0-3,0"/></g></g></svg>