<svg id="Duotone" xmlns="http://www.w3.org/2000/svg" viewBox="0 0 100 112"><defs><style>.cls-1{fill:#f0f2ff;}.cls-2{fill:#dce5ff;}.cls-3{fill:#fff;}.cls-4{fill:none;stroke:#2963ff;stroke-linecap:round;stroke-linejoin:round;}</style></defs><title>04- cloud</title><circle class="cls-1" cx="49.92" cy="54.75" r="40"/><ellipse class="cls-2" cx="49.91" cy="86.07" rx="16.56" ry="1.73"/><path class="cls-3" d="M72.71,47.82A8.08,8.08,0,0,0,72.94,46a8,8,0,0,0-12.8-6.35A16,16,0,0,0,32,50a.38.38,0,0,0,0,.1,6.78,6.78,0,0,0-1-.1,8,8,0,1,0,0,16H67a10,10,0,0,0,5.76-18.13Z"/><path class="cls-4" d="M72.71,47.82A8.08,8.08,0,0,0,72.94,46a8,8,0,0,0-12.8-6.35A16,16,0,0,0,32,50a.38.38,0,0,0,0,.1,6.78,6.78,0,0,0-1-.1,8,8,0,1,0,0,16H67a10,10,0,0,0,5.76-18.13Z"/></svg>