<svg width="678" height="490" viewBox="0 0 678 490" fill="none" xmlns="http://www.w3.org/2000/svg">
<path d="M621.5 142L624.387 137H618.613L621.5 142ZM485.501 98.0338L486.111 107.044L487.109 106.977L486.499 97.9662L485.501 98.0338ZM499.58 119.633H608.5V118.633H499.58V119.633ZM621 132.133V137.5H622V132.133H621ZM608.5 119.633C615.404 119.633 621 125.229 621 132.133H622C622 124.677 615.956 118.633 608.5 118.633V119.633ZM486.111 107.044C486.59 114.13 492.478 119.633 499.58 119.633V118.633C493.004 118.633 487.553 113.538 487.109 106.977L486.111 107.044Z" fill="#979797"/>
<path d="M486 98L483.457 103.183L489.218 102.794L486 98ZM485.805 102.523L486.111 107.044L487.109 106.977L486.803 102.456L485.805 102.523ZM499.58 119.633H608.5V118.633H499.58V119.633ZM621 132.133V142H622V132.133H621ZM608.5 119.633C615.404 119.633 621 125.229 621 132.133H622C622 124.677 615.956 118.633 608.5 118.633V119.633ZM486.111 107.044C486.59 114.13 492.478 119.633 499.58 119.633V118.633C493.004 118.633 487.553 113.538 487.109 106.977L486.111 107.044Z" fill="#979797"/>
<path d="M486.5 98L489.043 103.183L483.282 102.794L486.5 98ZM486.695 102.523L486.389 107.044L485.391 106.977L485.697 102.456L486.695 102.523ZM472.92 119.633H364V118.633H472.92V119.633ZM351.5 132.133V142H350.5V132.133H351.5ZM364 119.633C357.096 119.633 351.5 125.229 351.5 132.133H350.5C350.5 124.677 356.544 118.633 364 118.633V119.633ZM486.389 107.044C485.91 114.13 480.022 119.633 472.92 119.633V118.633C479.496 118.633 484.947 113.538 485.391 106.977L486.389 107.044Z" fill="#979797"/>
<path d="M486.5 366L489.387 361H483.613L486.5 366ZM350.501 322.034L351.111 331.044L352.109 330.977L351.499 321.966L350.501 322.034ZM364.58 343.633H473.5V342.633H364.58V343.633ZM486 356.133V361.5H487V356.133H486ZM473.5 343.633C480.404 343.633 486 349.229 486 356.133H487C487 348.677 480.956 342.633 473.5 342.633V343.633ZM351.111 331.044C351.59 338.13 357.478 343.633 364.58 343.633V342.633C358.004 342.633 352.553 337.538 352.109 330.977L351.111 331.044Z" fill="#979797"/>
<path d="M486.5 366L483.613 361H489.387L486.5 366ZM622.499 322.034L621.889 331.044L620.891 330.977L621.501 321.966L622.499 322.034ZM608.42 343.633H499.5V342.633H608.42V343.633ZM487 356.133V361.5H486V356.133H487ZM499.5 343.633C492.596 343.633 487 349.229 487 356.133H486C486 348.677 492.044 342.633 499.5 342.633V343.633ZM621.889 331.044C621.41 338.13 615.522 343.633 608.42 343.633V342.633C614.996 342.633 620.447 337.538 620.891 330.977L621.889 331.044Z" fill="#979797"/>
<path d="M622 322L624.543 327.183L618.782 326.794L622 322ZM622.195 326.523L621.889 331.044L620.891 330.977L621.197 326.456L622.195 326.523ZM608.42 343.633H499.5V342.633H608.42V343.633ZM487 356.133V366H486V356.133H487ZM499.5 343.633C492.596 343.633 487 349.229 487 356.133H486C486 348.677 492.044 342.633 499.5 342.633V343.633ZM621.889 331.044C621.41 338.13 615.522 343.633 608.42 343.633V342.633C614.996 342.633 620.447 337.538 620.891 330.977L621.889 331.044Z" fill="#979797"/>
<path d="M11.9492 257.732V260.428C10.6341 259.327 9.27344 258.777 7.86719 258.777C6.31771 258.777 5.01237 259.334 3.95117 260.447C2.88346 261.554 2.34961 262.908 2.34961 264.51C2.34961 266.092 2.88346 267.426 3.95117 268.514C5.01888 269.601 6.32747 270.145 7.87695 270.145C8.67773 270.145 9.35807 270.014 9.91797 269.754C10.2305 269.624 10.5527 269.448 10.8848 269.227C11.2233 269.005 11.5781 268.738 11.9492 268.426V271.17C10.6471 271.906 9.27995 272.273 7.84766 272.273C5.69271 272.273 3.85352 271.521 2.33008 270.018C0.813151 268.501 0.0546875 266.671 0.0546875 264.529C0.0546875 262.609 0.689453 260.896 1.95898 259.393C3.52148 257.55 5.54297 256.629 8.02344 256.629C9.3776 256.629 10.6862 256.997 11.9492 257.732ZM13.9609 267.176C13.9609 265.802 14.4525 264.633 15.4355 263.67C16.4186 262.706 17.6165 262.225 19.0293 262.225C20.4486 262.225 21.653 262.71 22.6426 263.68C23.6191 264.65 24.1074 265.841 24.1074 267.254C24.1074 268.68 23.6159 269.874 22.6328 270.838C21.6432 271.795 20.429 272.273 18.9902 272.273C17.5645 272.273 16.3698 271.785 15.4062 270.809C14.4427 269.845 13.9609 268.634 13.9609 267.176ZM16.207 267.215C16.207 268.165 16.4609 268.917 16.9688 269.471C17.4896 270.031 18.1764 270.311 19.0293 270.311C19.8887 270.311 20.5755 270.034 21.0898 269.48C21.6042 268.927 21.8613 268.188 21.8613 267.264C21.8613 266.339 21.6042 265.6 21.0898 265.047C20.569 264.487 19.8822 264.207 19.0293 264.207C18.1895 264.207 17.5091 264.487 16.9883 265.047C16.4674 265.607 16.207 266.329 16.207 267.215ZM26.4414 262.488H28.6387V263.367C29.0618 262.924 29.4232 262.625 29.7227 262.469C30.0417 262.306 30.4421 262.225 30.9238 262.225C31.998 262.225 32.8477 262.693 33.4727 263.631C34.1628 262.693 35.097 262.225 36.2754 262.225C38.4173 262.225 39.4883 263.523 39.4883 266.121V272H37.2812V266.717C37.2812 265.805 37.1706 265.161 36.9492 264.783C36.7214 264.399 36.347 264.207 35.8262 264.207C35.2207 264.207 34.778 264.435 34.498 264.891C34.2246 265.346 34.0879 266.079 34.0879 267.088V272H31.8809V266.746C31.8809 265.053 31.3926 264.207 30.416 264.207C29.7975 264.207 29.3451 264.438 29.0586 264.9C28.7786 265.363 28.6387 266.092 28.6387 267.088V272H26.4414V262.488ZM44.7129 277.176H42.5156V262.488H44.7129V263.523C45.5788 262.658 46.5618 262.225 47.6621 262.225C48.9707 262.225 50.0482 262.706 50.8945 263.67C51.7539 264.627 52.1836 265.835 52.1836 267.293C52.1836 268.719 51.7572 269.907 50.9043 270.857C50.0579 271.801 48.9902 272.273 47.7012 272.273C46.5879 272.273 45.5918 271.827 44.7129 270.936V277.176ZM49.9375 267.303C49.9375 266.391 49.6901 265.649 49.1953 265.076C48.694 264.497 48.0625 264.207 47.3008 264.207C46.4935 264.207 45.8392 264.487 45.3379 265.047C44.8366 265.607 44.5859 266.342 44.5859 267.254C44.5859 268.146 44.8366 268.882 45.3379 269.461C45.8327 270.027 46.4837 270.311 47.291 270.311C48.0527 270.311 48.681 270.024 49.1758 269.451C49.6836 268.878 49.9375 268.162 49.9375 267.303ZM61.5195 262.488H63.7266V272H61.5195V271.004C60.6146 271.85 59.6413 272.273 58.5996 272.273C57.2845 272.273 56.1973 271.798 55.3379 270.848C54.485 269.878 54.0586 268.667 54.0586 267.215C54.0586 265.789 54.485 264.601 55.3379 263.65C56.1908 262.7 57.2585 262.225 58.541 262.225C59.6478 262.225 60.6406 262.68 61.5195 263.592V262.488ZM56.3047 267.215C56.3047 268.126 56.5488 268.868 57.0371 269.441C57.5384 270.021 58.1699 270.311 58.9316 270.311C59.7454 270.311 60.403 270.031 60.9043 269.471C61.4056 268.891 61.6562 268.156 61.6562 267.264C61.6562 266.372 61.4056 265.636 60.9043 265.057C60.403 264.49 59.752 264.207 58.9512 264.207C58.196 264.207 57.5645 264.493 57.0566 265.066C56.5553 265.646 56.3047 266.362 56.3047 267.215ZM66.5 262.488H68.707V263.367C69.4753 262.605 70.3411 262.225 71.3047 262.225C72.4115 262.225 73.2741 262.573 73.8926 263.27C74.4264 263.862 74.6934 264.829 74.6934 266.17V272H72.4863V266.688C72.4863 265.75 72.3561 265.102 72.0957 264.744C71.8418 264.38 71.3796 264.197 70.709 264.197C69.9798 264.197 69.4622 264.438 69.1562 264.92C68.8568 265.395 68.707 266.225 68.707 267.41V272H66.5V262.488ZM80.1426 270.232L75.8652 262.488H78.4141L81.3242 267.957L84.0391 262.488H86.5195L78.9414 277.176H76.4316L80.1426 270.232ZM103.473 268.338H97.0176L95.3379 272H92.8867L100.348 255.975L107.545 272H105.055L103.473 268.338ZM102.545 266.199L100.309 261.072L97.9648 266.199H102.545Z" fill="#666666"/>
<mask id="mask0_0_1" style="mask-type:luminance" maskUnits="userSpaceOnUse" x="1" y="182" width="39" height="52">
<path fill-rule="evenodd" clip-rule="evenodd" d="M1 182H40V234H1V182Z" fill="white"/>
</mask>
<g mask="url(#mask0_0_1)">
<path fill-rule="evenodd" clip-rule="evenodd" d="M13.9665 207.993H14.0001C14.0001 207.497 14.0223 207 13.9952 206.505C13.9383 205.461 13.4739 204.862 12.4616 204.784C11.3189 204.696 10.1589 204.699 9.01628 204.788C8.06817 204.862 7.62027 205.311 7.54765 206.259C7.45986 207.402 7.46176 208.561 7.54494 209.703C7.61377 210.645 8.06709 211.095 9.00408 211.19C10.1681 211.308 11.3504 211.313 12.5144 211.186C13.4173 211.088 13.8302 210.649 13.9522 209.747C14.0296 209.172 13.9665 208.578 13.9665 207.993M7.54494 194.958C7.53085 194.958 7.51649 194.958 7.50213 194.958C7.50213 195.454 7.48316 195.951 7.50592 196.446C7.55497 197.514 7.98932 198.09 9.00842 198.196C10.1717 198.317 11.3547 198.321 12.5188 198.191C13.4211 198.09 13.8576 197.653 13.9516 196.749C14.0727 195.585 14.0741 194.403 13.9516 193.239C13.8543 192.318 13.4417 191.9 12.5225 191.801C11.3368 191.674 10.1367 191.691 8.94637 191.801C8.11478 191.878 7.63978 192.394 7.55659 193.204C7.49725 193.783 7.54494 194.373 7.54494 194.958M33.4867 208.018H33.4992C33.4992 207.522 33.5185 207.025 33.4951 206.53C33.4461 205.478 32.9936 204.885 31.9851 204.786C30.8213 204.671 29.638 204.657 28.4747 204.796C27.5415 204.907 27.127 205.3 27.0549 206.233C26.9644 207.397 26.9652 208.579 27.0552 209.743C27.1261 210.666 27.5575 211.078 28.478 211.184C29.6418 211.318 30.8243 211.305 31.9891 211.193C32.931 211.103 33.3727 210.595 33.4762 209.64C33.5342 209.105 33.4867 208.559 33.4867 208.018M20.536 204.785C20.536 204.77 20.536 204.755 20.5358 204.741C20.0396 204.741 19.5421 204.722 19.0471 204.745C17.9486 204.797 17.366 205.253 17.2874 206.311C17.2043 207.431 17.2043 208.568 17.2918 209.689C17.3712 210.704 17.9621 211.189 19.0056 211.228C19.9968 211.266 20.9918 211.263 21.9833 211.229C22.9958 211.194 23.5846 210.73 23.6938 209.761C23.8277 208.576 23.8125 207.375 23.6936 206.186C23.6123 205.373 23.1153 204.869 22.2905 204.795C21.7098 204.743 21.121 204.785 20.536 204.785M30.2539 198.212V198.243C30.7278 198.243 31.202 198.258 31.6751 198.24C32.7272 198.199 33.3326 197.751 33.4477 196.757C33.5821 195.594 33.5694 194.412 33.4529 193.248C33.3605 192.324 32.9483 191.906 32.0292 191.804C30.844 191.671 29.6391 191.664 28.4544 191.808C27.5239 191.922 27.1194 192.322 27.0473 193.26C26.96 194.402 26.9609 195.561 27.0432 196.704C27.1107 197.646 27.5648 198.071 28.4986 198.197C29.0738 198.275 29.6681 198.212 30.2539 198.212M20.5111 191.783C20.5111 191.771 20.5111 191.759 20.5111 191.747C20.0147 191.747 19.5172 191.725 19.0222 191.752C17.9708 191.808 17.4294 192.212 17.3102 193.209C17.1685 194.393 17.1717 195.598 17.311 196.783C17.4189 197.701 17.8359 198.124 18.7626 198.196C19.9055 198.283 21.0647 198.281 22.2087 198.202C23.1343 198.138 23.6085 197.664 23.7025 196.743C23.8209 195.579 23.8261 194.397 23.6995 193.234C23.5995 192.312 23.1874 191.925 22.2656 191.798C21.6912 191.718 21.0967 191.783 20.5111 191.783M1.00171 207.993C1.00171 201.115 1.0009 194.236 1.00198 187.358C1.00252 184.055 3.05859 182.001 6.36462 182.001C15.7955 182 25.2261 182 34.6568 182.001C37.9251 182.001 39.9986 184.061 39.9988 187.309C40.0004 201.089 40.0002 214.869 39.9991 228.649C39.9988 231.913 37.9381 233.975 34.6779 233.977C31.79 233.979 28.902 233.966 26.0144 233.988C25.5174 233.992 25.3576 233.87 25.3635 233.353C25.3904 230.917 25.3866 228.481 25.3725 226.046C25.357 223.43 23.7648 221.557 21.1918 221.092C18.6913 220.64 16.1223 222.48 15.7576 224.994C15.4747 226.946 15.6833 228.91 15.63 230.868C15.6058 231.746 15.6148 232.627 15.631 233.506C15.6373 233.847 15.5351 233.985 15.1718 233.983C12.0359 233.971 8.89759 234.047 5.76444 233.95C2.93747 233.862 1.00767 231.709 1.00442 228.832C0.996289 221.886 1.00171 214.94 1.00171 207.993" fill="#3366FF"/>
</g>
<path fill-rule="evenodd" clip-rule="evenodd" d="M6.16273 193.463C6.54559 189.644 8.73179 187.212 12.5592 186.848C18.0378 186.329 23.5613 186.249 29.0186 186.849C33.2489 187.314 35.1482 189.284 35.5959 193.63C36.1596 199.116 36.1521 204.685 35.5959 210.173C35.1632 214.437 33.1541 216.496 29.0012 216.971C23.6436 217.584 18.1987 217.569 12.8435 216.997C8.15438 216.496 6.15525 213.78 5.92952 208.745C5.82351 206.412 5.91081 204.069 5.91081 201.73C5.97816 201.729 6.04301 201.729 6.1091 201.729C6.1091 198.972 5.88961 196.191 6.16273 193.463Z" fill="#3366FF" fill-opacity="0.5"/>
<mask id="mask1_0_1" style="mask-type:luminance" maskUnits="userSpaceOnUse" x="1" y="182" width="39" height="52">
<path fill-rule="evenodd" clip-rule="evenodd" d="M1 182H40V234H1V182Z" fill="white"/>
</mask>
<g mask="url(#mask1_0_1)">
<path fill-rule="evenodd" clip-rule="evenodd" d="M13.9665 207.993H14.0001C14.0001 207.497 14.0223 207 13.9952 206.505C13.9383 205.461 13.4739 204.862 12.4616 204.784C11.3189 204.696 10.1589 204.699 9.01628 204.788C8.06817 204.862 7.62027 205.311 7.54765 206.259C7.45986 207.402 7.46176 208.561 7.54494 209.703C7.61377 210.645 8.06709 211.095 9.00408 211.19C10.1681 211.308 11.3504 211.313 12.5144 211.186C13.4173 211.088 13.8302 210.649 13.9522 209.747C14.0296 209.172 13.9665 208.578 13.9665 207.993M7.54494 194.958C7.53085 194.958 7.51649 194.958 7.50213 194.958C7.50213 195.454 7.48316 195.951 7.50592 196.446C7.55497 197.514 7.98932 198.09 9.00842 198.196C10.1717 198.317 11.3547 198.321 12.5188 198.191C13.4211 198.09 13.8576 197.653 13.9516 196.749C14.0727 195.585 14.0741 194.403 13.9516 193.239C13.8543 192.318 13.4417 191.9 12.5225 191.801C11.3368 191.674 10.1367 191.691 8.94637 191.801C8.11478 191.878 7.63978 192.394 7.55659 193.204C7.49725 193.783 7.54494 194.373 7.54494 194.958M33.4867 208.018H33.4992C33.4992 207.522 33.5185 207.025 33.4951 206.53C33.4461 205.478 32.9936 204.885 31.9851 204.786C30.8213 204.671 29.638 204.657 28.4747 204.796C27.5415 204.907 27.127 205.3 27.0549 206.233C26.9644 207.397 26.9652 208.579 27.0552 209.743C27.1261 210.666 27.5575 211.078 28.478 211.184C29.6418 211.318 30.8243 211.305 31.9891 211.193C32.931 211.103 33.3727 210.595 33.4762 209.64C33.5342 209.105 33.4867 208.559 33.4867 208.018M20.536 204.785C20.536 204.77 20.536 204.755 20.5358 204.741C20.0396 204.741 19.5421 204.722 19.0471 204.745C17.9486 204.797 17.366 205.253 17.2874 206.311C17.2043 207.431 17.2043 208.568 17.2918 209.689C17.3712 210.704 17.9621 211.189 19.0056 211.228C19.9968 211.266 20.9918 211.263 21.9833 211.229C22.9958 211.194 23.5846 210.73 23.6938 209.761C23.8277 208.576 23.8125 207.375 23.6936 206.186C23.6123 205.373 23.1153 204.869 22.2905 204.795C21.7098 204.743 21.121 204.785 20.536 204.785M30.2539 198.212V198.243C30.7278 198.243 31.202 198.258 31.6751 198.24C32.7272 198.199 33.3326 197.751 33.4477 196.757C33.5821 195.594 33.5694 194.412 33.4529 193.248C33.3605 192.324 32.9483 191.906 32.0292 191.804C30.844 191.671 29.6391 191.664 28.4544 191.808C27.5239 191.922 27.1194 192.322 27.0473 193.26C26.96 194.402 26.9609 195.561 27.0432 196.704C27.1107 197.646 27.5648 198.071 28.4986 198.197C29.0738 198.275 29.6681 198.212 30.2539 198.212M20.5111 191.783C20.5111 191.771 20.5111 191.759 20.5111 191.747C20.0147 191.747 19.5172 191.725 19.0222 191.752C17.9708 191.808 17.4294 192.212 17.3102 193.209C17.1685 194.393 17.1717 195.598 17.311 196.783C17.4189 197.701 17.8359 198.124 18.7626 198.196C19.9055 198.283 21.0647 198.281 22.2087 198.202C23.1343 198.138 23.6085 197.664 23.7025 196.743C23.8209 195.579 23.8261 194.397 23.6995 193.234C23.5995 192.312 23.1874 191.925 22.2656 191.798C21.6912 191.718 21.0967 191.783 20.5111 191.783M1.00171 207.993C1.00171 201.115 1.0009 194.236 1.00198 187.358C1.00252 184.055 3.05859 182.001 6.36462 182.001C15.7955 182 25.2261 182 34.6568 182.001C37.9251 182.001 39.9986 184.061 39.9988 187.309C40.0004 201.089 40.0002 214.869 39.9991 228.649C39.9988 231.913 37.9381 233.975 34.6779 233.977C31.79 233.979 28.902 233.966 26.0144 233.988C25.5174 233.992 25.3576 233.87 25.3635 233.353C25.3904 230.917 25.3866 228.481 25.3725 226.046C25.357 223.43 23.7648 221.557 21.1918 221.092C18.6913 220.64 16.1223 222.48 15.7576 224.994C15.4747 226.946 15.6833 228.91 15.63 230.868C15.6058 231.746 15.6148 232.627 15.631 233.506C15.6373 233.847 15.5351 233.985 15.1718 233.983C12.0359 233.971 8.89759 234.047 5.76444 233.95C2.93747 233.862 1.00767 231.709 1.00442 228.832C0.996289 221.886 1.00171 214.94 1.00171 207.993" fill="#3366FF"/>
</g>
<path fill-rule="evenodd" clip-rule="evenodd" d="M6.16273 193.463C6.54559 189.644 8.73179 187.212 12.5592 186.848C18.0378 186.329 23.5613 186.249 29.0186 186.849C33.2489 187.314 35.1482 189.284 35.5959 193.63C36.1596 199.116 36.1521 204.685 35.5959 210.173C35.1632 214.437 33.1541 216.496 29.0012 216.971C23.6436 217.584 18.1987 217.569 12.8435 216.997C8.15438 216.496 6.15525 213.78 5.92952 208.745C5.82351 206.412 5.91081 204.069 5.91081 201.73C5.97816 201.729 6.04301 201.729 6.1091 201.729C6.1091 198.972 5.88961 196.191 6.16273 193.463Z" fill="#3366FF" fill-opacity="0.5"/>
<path d="M106.6 193C109.58 193.001 111.999 195.42 112 198.4V200.071C112 201.136 111.136 202 110.071 202H95.9286C94.864 202 94 201.136 94 200.071V198.4C94.0006 195.42 96.4197 193.001 99.4 193H100.071C100.841 193.355 102.153 193.643 103 193.643C103.847 193.643 105.159 193.355 105.929 193H106.6Z" fill="#3366FF"/>
<path d="M103 192C100.24 192 98 189.76 98 187C98 184.24 100.24 182 103 182C105.76 182 108 184.24 108 187C108 189.76 105.76 192 103 192Z" fill="#3366FF" fill-opacity="0.5"/>
<path d="M106.6 226C109.58 226.001 111.999 228.42 112 231.4V233.071C112 234.136 111.136 235 110.071 235H95.9286C94.864 235 94 234.136 94 233.071V231.4C94.0006 228.42 96.4197 226.001 99.4 226H100.071C100.841 226.355 102.153 226.643 103 226.643C103.847 226.643 105.159 226.355 105.929 226H106.6Z" fill="#3366FF"/>
<path d="M103 225C100.24 225 98 222.76 98 220C98 217.24 100.24 215 103 215C105.76 215 108 217.24 108 220C108 222.76 105.76 225 103 225Z" fill="#3366FF" fill-opacity="0.5"/>
<path d="M73.6 193C76.5803 193.001 78.9994 195.42 79 198.4V200.071C79 201.136 78.136 202 77.0714 202H62.9286C61.864 202 61 201.136 61 200.071V198.4C61.0006 195.42 63.4197 193.001 66.4 193H67.0711C67.8406 193.355 69.1527 193.643 70 193.643C70.8473 193.643 72.1594 193.355 72.9289 193H73.6Z" fill="#3366FF"/>
<path d="M70 192C67.24 192 65 189.76 65 187C65 184.24 67.24 182 70 182C72.76 182 75 184.24 75 187C75 189.76 72.76 192 70 192Z" fill="#3366FF" fill-opacity="0.5"/>
<path d="M73.6 226C76.5803 226.001 78.9994 228.42 79 231.4V233.071C79 234.136 78.136 235 77.0714 235H62.9286C61.864 235 61 234.136 61 233.071V231.4C61.0006 228.42 63.4197 226.001 66.4 226H67.0711C67.8406 226.355 69.1527 226.643 70 226.643C70.8473 226.643 72.1594 226.355 72.9289 226H73.6Z" fill="#3366FF"/>
<path d="M70 225C67.24 225 65 222.76 65 220C65 217.24 67.24 215 70 215C72.76 215 75 217.24 75 220C75 222.76 72.76 225 70 225Z" fill="#3366FF" fill-opacity="0.5"/>
<path d="M106.6 193C109.58 193.001 111.999 195.42 112 198.4V200.071C112 201.136 111.136 202 110.071 202H95.9286C94.864 202 94 201.136 94 200.071V198.4C94.0006 195.42 96.4197 193.001 99.4 193H100.071C100.841 193.355 102.153 193.643 103 193.643C103.847 193.643 105.159 193.355 105.929 193H106.6Z" fill="#3366FF"/>
<path d="M73.6 193C76.5803 193.001 78.9994 195.42 79 198.4V200.071C79 201.136 78.136 202 77.0714 202H62.9286C61.864 202 61 201.136 61 200.071V198.4C61.0006 195.42 63.4197 193.001 66.4 193H67.0711C67.8406 193.355 69.1527 193.643 70 193.643C70.8473 193.643 72.1594 193.355 72.9289 193H73.6Z" fill="#3366FF"/>
<path d="M73.6 226C76.5803 226.001 78.9994 228.42 79 231.4V233.071C79 234.136 78.136 235 77.0714 235H62.9286C61.864 235 61 234.136 61 233.071V231.4C61.0006 228.42 63.4197 226.001 66.4 226H67.0711C67.8406 226.355 69.1527 226.643 70 226.643C70.8473 226.643 72.1594 226.355 72.9289 226H73.6Z" fill="#3366FF"/>
<path d="M577.949 261.732V264.428C576.634 263.327 575.273 262.777 573.867 262.777C572.318 262.777 571.012 263.334 569.951 264.447C568.883 265.554 568.35 266.908 568.35 268.51C568.35 270.092 568.883 271.426 569.951 272.514C571.019 273.601 572.327 274.145 573.877 274.145C574.678 274.145 575.358 274.014 575.918 273.754C576.23 273.624 576.553 273.448 576.885 273.227C577.223 273.005 577.578 272.738 577.949 272.426V275.17C576.647 275.906 575.28 276.273 573.848 276.273C571.693 276.273 569.854 275.521 568.33 274.018C566.813 272.501 566.055 270.671 566.055 268.529C566.055 266.609 566.689 264.896 567.959 263.393C569.521 261.55 571.543 260.629 574.023 260.629C575.378 260.629 576.686 260.997 577.949 261.732ZM579.961 271.176C579.961 269.802 580.452 268.633 581.436 267.67C582.419 266.706 583.617 266.225 585.029 266.225C586.449 266.225 587.653 266.71 588.643 267.68C589.619 268.65 590.107 269.841 590.107 271.254C590.107 272.68 589.616 273.874 588.633 274.838C587.643 275.795 586.429 276.273 584.99 276.273C583.564 276.273 582.37 275.785 581.406 274.809C580.443 273.845 579.961 272.634 579.961 271.176ZM582.207 271.215C582.207 272.165 582.461 272.917 582.969 273.471C583.49 274.031 584.176 274.311 585.029 274.311C585.889 274.311 586.576 274.034 587.09 273.48C587.604 272.927 587.861 272.188 587.861 271.264C587.861 270.339 587.604 269.6 587.09 269.047C586.569 268.487 585.882 268.207 585.029 268.207C584.189 268.207 583.509 268.487 582.988 269.047C582.467 269.607 582.207 270.329 582.207 271.215ZM592.441 266.488H594.639V267.367C595.062 266.924 595.423 266.625 595.723 266.469C596.042 266.306 596.442 266.225 596.924 266.225C597.998 266.225 598.848 266.693 599.473 267.631C600.163 266.693 601.097 266.225 602.275 266.225C604.417 266.225 605.488 267.523 605.488 270.121V276H603.281V270.717C603.281 269.805 603.171 269.161 602.949 268.783C602.721 268.399 602.347 268.207 601.826 268.207C601.221 268.207 600.778 268.435 600.498 268.891C600.225 269.346 600.088 270.079 600.088 271.088V276H597.881V270.746C597.881 269.053 597.393 268.207 596.416 268.207C595.798 268.207 595.345 268.438 595.059 268.9C594.779 269.363 594.639 270.092 594.639 271.088V276H592.441V266.488ZM610.713 281.176H608.516V266.488H610.713V267.523C611.579 266.658 612.562 266.225 613.662 266.225C614.971 266.225 616.048 266.706 616.895 267.67C617.754 268.627 618.184 269.835 618.184 271.293C618.184 272.719 617.757 273.907 616.904 274.857C616.058 275.801 614.99 276.273 613.701 276.273C612.588 276.273 611.592 275.827 610.713 274.936V281.176ZM615.938 271.303C615.938 270.391 615.69 269.649 615.195 269.076C614.694 268.497 614.062 268.207 613.301 268.207C612.493 268.207 611.839 268.487 611.338 269.047C610.837 269.607 610.586 270.342 610.586 271.254C610.586 272.146 610.837 272.882 611.338 273.461C611.833 274.027 612.484 274.311 613.291 274.311C614.053 274.311 614.681 274.024 615.176 273.451C615.684 272.878 615.938 272.162 615.938 271.303ZM627.52 266.488H629.727V276H627.52V275.004C626.615 275.85 625.641 276.273 624.6 276.273C623.285 276.273 622.197 275.798 621.338 274.848C620.485 273.878 620.059 272.667 620.059 271.215C620.059 269.789 620.485 268.601 621.338 267.65C622.191 266.7 623.258 266.225 624.541 266.225C625.648 266.225 626.641 266.68 627.52 267.592V266.488ZM622.305 271.215C622.305 272.126 622.549 272.868 623.037 273.441C623.538 274.021 624.17 274.311 624.932 274.311C625.745 274.311 626.403 274.031 626.904 273.471C627.406 272.891 627.656 272.156 627.656 271.264C627.656 270.372 627.406 269.636 626.904 269.057C626.403 268.49 625.752 268.207 624.951 268.207C624.196 268.207 623.564 268.493 623.057 269.066C622.555 269.646 622.305 270.362 622.305 271.215ZM632.5 266.488H634.707V267.367C635.475 266.605 636.341 266.225 637.305 266.225C638.411 266.225 639.274 266.573 639.893 267.27C640.426 267.862 640.693 268.829 640.693 270.17V276H638.486V270.688C638.486 269.75 638.356 269.102 638.096 268.744C637.842 268.38 637.38 268.197 636.709 268.197C635.98 268.197 635.462 268.438 635.156 268.92C634.857 269.395 634.707 270.225 634.707 271.41V276H632.5V266.488ZM646.143 274.232L641.865 266.488H644.414L647.324 271.957L650.039 266.488H652.52L644.941 281.176H642.432L646.143 274.232ZM671.758 261.732V264.428C670.443 263.327 669.082 262.777 667.676 262.777C666.126 262.777 664.821 263.334 663.76 264.447C662.692 265.554 662.158 266.908 662.158 268.51C662.158 270.092 662.692 271.426 663.76 272.514C664.827 273.601 666.136 274.145 667.686 274.145C668.486 274.145 669.167 274.014 669.727 273.754C670.039 273.624 670.361 273.448 670.693 273.227C671.032 273.005 671.387 272.738 671.758 272.426V275.17C670.456 275.906 669.089 276.273 667.656 276.273C665.501 276.273 663.662 275.521 662.139 274.018C660.622 272.501 659.863 270.671 659.863 268.529C659.863 266.609 660.498 264.896 661.768 263.393C663.33 261.55 665.352 260.629 667.832 260.629C669.186 260.629 670.495 260.997 671.758 261.732Z" fill="#666666"/>
<mask id="mask2_0_1" style="mask-type:luminance" maskUnits="userSpaceOnUse" x="567" y="186" width="39" height="52">
<path fill-rule="evenodd" clip-rule="evenodd" d="M567 186H606V238H567V186Z" fill="white"/>
</mask>
<g mask="url(#mask2_0_1)">
<path fill-rule="evenodd" clip-rule="evenodd" d="M579.967 211.993H580C580 211.497 580.022 211 579.995 210.505C579.938 209.461 579.474 208.862 578.462 208.784C577.319 208.696 576.159 208.699 575.016 208.788C574.068 208.862 573.62 209.311 573.548 210.259C573.46 211.402 573.462 212.561 573.545 213.703C573.614 214.645 574.067 215.095 575.004 215.19C576.168 215.308 577.35 215.313 578.514 215.186C579.417 215.088 579.83 214.649 579.952 213.747C580.03 213.172 579.967 212.578 579.967 211.993M573.545 198.958C573.531 198.958 573.517 198.958 573.502 198.958C573.502 199.454 573.483 199.951 573.506 200.446C573.555 201.514 573.989 202.09 575.008 202.196C576.172 202.317 577.355 202.321 578.519 202.191C579.421 202.09 579.858 201.653 579.952 200.749C580.073 199.585 580.074 198.403 579.952 197.239C579.854 196.318 579.442 195.9 578.523 195.801C577.337 195.674 576.137 195.691 574.946 195.801C574.115 195.878 573.64 196.394 573.557 197.204C573.497 197.783 573.545 198.373 573.545 198.958M599.487 212.018H599.499C599.499 211.522 599.519 211.025 599.495 210.53C599.446 209.478 598.994 208.885 597.985 208.786C596.821 208.671 595.638 208.657 594.475 208.796C593.542 208.907 593.127 209.3 593.055 210.233C592.964 211.397 592.965 212.579 593.055 213.743C593.126 214.666 593.558 215.078 594.478 215.184C595.642 215.318 596.824 215.305 597.989 215.193C598.931 215.103 599.373 214.595 599.476 213.64C599.534 213.105 599.487 212.559 599.487 212.018M586.536 208.785C586.536 208.77 586.536 208.755 586.536 208.741C586.04 208.741 585.542 208.722 585.047 208.745C583.949 208.797 583.366 209.253 583.288 210.311C583.204 211.431 583.204 212.568 583.292 213.689C583.371 214.704 583.962 215.189 585.006 215.228C585.997 215.266 586.992 215.263 587.983 215.229C588.996 215.194 589.585 214.73 589.694 213.761C589.828 212.576 589.813 211.375 589.694 210.186C589.612 209.373 589.115 208.869 588.291 208.795C587.71 208.743 587.121 208.785 586.536 208.785M596.254 202.212V202.243C596.728 202.243 597.202 202.258 597.675 202.24C598.727 202.199 599.333 201.751 599.448 200.757C599.582 199.594 599.569 198.412 599.453 197.248C599.361 196.324 598.948 195.906 598.029 195.804C596.844 195.671 595.639 195.664 594.454 195.808C593.524 195.922 593.119 196.322 593.047 197.26C592.96 198.402 592.961 199.561 593.043 200.704C593.111 201.646 593.565 202.071 594.499 202.197C595.074 202.275 595.668 202.212 596.254 202.212M586.511 195.783C586.511 195.771 586.511 195.759 586.511 195.747C586.015 195.747 585.517 195.725 585.022 195.752C583.971 195.808 583.429 196.212 583.31 197.209C583.169 198.393 583.172 199.598 583.311 200.783C583.419 201.701 583.836 202.124 584.763 202.196C585.906 202.283 587.065 202.281 588.209 202.202C589.134 202.138 589.609 201.664 589.703 200.743C589.821 199.579 589.826 198.397 589.7 197.234C589.6 196.312 589.187 195.925 588.266 195.798C587.691 195.718 587.097 195.783 586.511 195.783M567.002 211.993C567.002 205.115 567.001 198.236 567.002 191.358C567.003 188.055 569.059 186.001 572.365 186.001C581.796 186 591.226 186 600.657 186.001C603.925 186.001 605.999 188.061 605.999 191.309C606.001 205.089 606 218.869 605.999 232.649C605.999 235.913 603.938 237.975 600.678 237.977C597.79 237.979 594.902 237.966 592.014 237.988C591.517 237.992 591.358 237.87 591.364 237.353C591.39 234.917 591.387 232.481 591.373 230.046C591.357 227.43 589.765 225.557 587.192 225.092C584.691 224.64 582.122 226.48 581.758 228.994C581.475 230.946 581.683 232.91 581.63 234.868C581.606 235.746 581.615 236.627 581.631 237.506C581.637 237.847 581.535 237.985 581.172 237.983C578.036 237.971 574.898 238.047 571.765 237.95C568.938 237.862 567.008 235.709 567.004 232.832C566.996 225.886 567.002 218.94 567.002 211.993" fill="#3366FF"/>
</g>
<path fill-rule="evenodd" clip-rule="evenodd" d="M572.163 197.463C572.546 193.644 574.732 191.212 578.559 190.848C584.038 190.329 589.561 190.249 595.019 190.849C599.249 191.314 601.148 193.284 601.596 197.63C602.16 203.116 602.152 208.685 601.596 214.173C601.163 218.437 599.154 220.496 595.001 220.971C589.644 221.584 584.199 221.569 578.843 220.997C574.154 220.496 572.155 217.78 571.929 212.745C571.823 210.412 571.911 208.069 571.911 205.73C571.978 205.729 572.043 205.729 572.109 205.729C572.109 202.972 571.89 200.191 572.163 197.463Z" fill="#3366FF" fill-opacity="0.5"/>
<mask id="mask3_0_1" style="mask-type:luminance" maskUnits="userSpaceOnUse" x="567" y="186" width="39" height="52">
<path fill-rule="evenodd" clip-rule="evenodd" d="M567 186H606V238H567V186Z" fill="white"/>
</mask>
<g mask="url(#mask3_0_1)">
<path fill-rule="evenodd" clip-rule="evenodd" d="M579.967 211.993H580C580 211.497 580.022 211 579.995 210.505C579.938 209.461 579.474 208.862 578.462 208.784C577.319 208.696 576.159 208.699 575.016 208.788C574.068 208.862 573.62 209.311 573.548 210.259C573.46 211.402 573.462 212.561 573.545 213.703C573.614 214.645 574.067 215.095 575.004 215.19C576.168 215.308 577.35 215.313 578.514 215.186C579.417 215.088 579.83 214.649 579.952 213.747C580.03 213.172 579.967 212.578 579.967 211.993M573.545 198.958C573.531 198.958 573.517 198.958 573.502 198.958C573.502 199.454 573.483 199.951 573.506 200.446C573.555 201.514 573.989 202.09 575.008 202.196C576.172 202.317 577.355 202.321 578.519 202.191C579.421 202.09 579.858 201.653 579.952 200.749C580.073 199.585 580.074 198.403 579.952 197.239C579.854 196.318 579.442 195.9 578.523 195.801C577.337 195.674 576.137 195.691 574.946 195.801C574.115 195.878 573.64 196.394 573.557 197.204C573.497 197.783 573.545 198.373 573.545 198.958M599.487 212.018H599.499C599.499 211.522 599.519 211.025 599.495 210.53C599.446 209.478 598.994 208.885 597.985 208.786C596.821 208.671 595.638 208.657 594.475 208.796C593.542 208.907 593.127 209.3 593.055 210.233C592.964 211.397 592.965 212.579 593.055 213.743C593.126 214.666 593.558 215.078 594.478 215.184C595.642 215.318 596.824 215.305 597.989 215.193C598.931 215.103 599.373 214.595 599.476 213.64C599.534 213.105 599.487 212.559 599.487 212.018M586.536 208.785C586.536 208.77 586.536 208.755 586.536 208.741C586.04 208.741 585.542 208.722 585.047 208.745C583.949 208.797 583.366 209.253 583.288 210.311C583.204 211.431 583.204 212.568 583.292 213.689C583.371 214.704 583.962 215.189 585.006 215.228C585.997 215.266 586.992 215.263 587.983 215.229C588.996 215.194 589.585 214.73 589.694 213.761C589.828 212.576 589.813 211.375 589.694 210.186C589.612 209.373 589.115 208.869 588.291 208.795C587.71 208.743 587.121 208.785 586.536 208.785M596.254 202.212V202.243C596.728 202.243 597.202 202.258 597.675 202.24C598.727 202.199 599.333 201.751 599.448 200.757C599.582 199.594 599.569 198.412 599.453 197.248C599.361 196.324 598.948 195.906 598.029 195.804C596.844 195.671 595.639 195.664 594.454 195.808C593.524 195.922 593.119 196.322 593.047 197.26C592.96 198.402 592.961 199.561 593.043 200.704C593.111 201.646 593.565 202.071 594.499 202.197C595.074 202.275 595.668 202.212 596.254 202.212M586.511 195.783C586.511 195.771 586.511 195.759 586.511 195.747C586.015 195.747 585.517 195.725 585.022 195.752C583.971 195.808 583.429 196.212 583.31 197.209C583.169 198.393 583.172 199.598 583.311 200.783C583.419 201.701 583.836 202.124 584.763 202.196C585.906 202.283 587.065 202.281 588.209 202.202C589.134 202.138 589.609 201.664 589.703 200.743C589.821 199.579 589.826 198.397 589.7 197.234C589.6 196.312 589.187 195.925 588.266 195.798C587.691 195.718 587.097 195.783 586.511 195.783M567.002 211.993C567.002 205.115 567.001 198.236 567.002 191.358C567.003 188.055 569.059 186.001 572.365 186.001C581.796 186 591.226 186 600.657 186.001C603.925 186.001 605.999 188.061 605.999 191.309C606.001 205.089 606 218.869 605.999 232.649C605.999 235.913 603.938 237.975 600.678 237.977C597.79 237.979 594.902 237.966 592.014 237.988C591.517 237.992 591.358 237.87 591.364 237.353C591.39 234.917 591.387 232.481 591.373 230.046C591.357 227.43 589.765 225.557 587.192 225.092C584.691 224.64 582.122 226.48 581.758 228.994C581.475 230.946 581.683 232.91 581.63 234.868C581.606 235.746 581.615 236.627 581.631 237.506C581.637 237.847 581.535 237.985 581.172 237.983C578.036 237.971 574.898 238.047 571.765 237.95C568.938 237.862 567.008 235.709 567.004 232.832C566.996 225.886 567.002 218.94 567.002 211.993" fill="#3366FF"/>
</g>
<path fill-rule="evenodd" clip-rule="evenodd" d="M572.163 197.463C572.546 193.644 574.732 191.212 578.559 190.848C584.038 190.329 589.561 190.249 595.019 190.849C599.249 191.314 601.148 193.284 601.596 197.63C602.16 203.116 602.152 208.685 601.596 214.173C601.163 218.437 599.154 220.496 595.001 220.971C589.644 221.584 584.199 221.569 578.843 220.997C574.154 220.496 572.155 217.78 571.929 212.745C571.823 210.412 571.911 208.069 571.911 205.73C571.978 205.729 572.043 205.729 572.109 205.729C572.109 202.972 571.89 200.191 572.163 197.463Z" fill="#3366FF" fill-opacity="0.5"/>
<path d="M672.6 197C675.58 197.001 677.999 199.42 678 202.4V204.071C678 205.136 677.136 206 676.071 206H661.929C660.864 206 660 205.136 660 204.071V202.4C660.001 199.42 662.42 197.001 665.4 197H666.071C666.841 197.355 668.153 197.643 669 197.643C669.847 197.643 671.159 197.355 671.929 197H672.6Z" fill="#3366FF"/>
<path d="M669 196C666.24 196 664 193.76 664 191C664 188.24 666.24 186 669 186C671.76 186 674 188.24 674 191C674 193.76 671.76 196 669 196Z" fill="#3366FF" fill-opacity="0.5"/>
<path d="M672.6 230C675.58 230.001 677.999 232.42 678 235.4V237.071C678 238.136 677.136 239 676.071 239H661.929C660.864 239 660 238.136 660 237.071V235.4C660.001 232.42 662.42 230.001 665.4 230H666.071C666.841 230.355 668.153 230.643 669 230.643C669.847 230.643 671.159 230.355 671.929 230H672.6Z" fill="#3366FF"/>
<path d="M669 229C666.24 229 664 226.76 664 224C664 221.24 666.24 219 669 219C671.76 219 674 221.24 674 224C674 226.76 671.76 229 669 229Z" fill="#3366FF" fill-opacity="0.5"/>
<path d="M639.6 197C642.58 197.001 644.999 199.42 645 202.4V204.071C645 205.136 644.136 206 643.071 206H628.929C627.864 206 627 205.136 627 204.071V202.4C627.001 199.42 629.42 197.001 632.4 197H633.071C633.841 197.355 635.153 197.643 636 197.643C636.847 197.643 638.159 197.355 638.929 197H639.6Z" fill="#3366FF"/>
<path d="M636 196C633.24 196 631 193.76 631 191C631 188.24 633.24 186 636 186C638.76 186 641 188.24 641 191C641 193.76 638.76 196 636 196Z" fill="#3366FF" fill-opacity="0.5"/>
<path d="M639.6 230C642.58 230.001 644.999 232.42 645 235.4V237.071C645 238.136 644.136 239 643.071 239H628.929C627.864 239 627 238.136 627 237.071V235.4C627.001 232.42 629.42 230.001 632.4 230H633.071C633.841 230.355 635.153 230.643 636 230.643C636.847 230.643 638.159 230.355 638.929 230H639.6Z" fill="#3366FF"/>
<path d="M636 229C633.24 229 631 226.76 631 224C631 221.24 633.24 219 636 219C638.76 219 641 221.24 641 224C641 226.76 638.76 229 636 229Z" fill="#3366FF" fill-opacity="0.5"/>
<path d="M672.6 197C675.58 197.001 677.999 199.42 678 202.4V204.071C678 205.136 677.136 206 676.071 206H661.929C660.864 206 660 205.136 660 204.071V202.4C660.001 199.42 662.42 197.001 665.4 197H666.071C666.841 197.355 668.153 197.643 669 197.643C669.847 197.643 671.159 197.355 671.929 197H672.6Z" fill="#3366FF"/>
<path d="M639.6 197C642.58 197.001 644.999 199.42 645 202.4V204.071C645 205.136 644.136 206 643.071 206H628.929C627.864 206 627 205.136 627 204.071V202.4C627.001 199.42 629.42 197.001 632.4 197H633.071C633.841 197.355 635.153 197.643 636 197.643C636.847 197.643 638.159 197.355 638.929 197H639.6Z" fill="#3366FF"/>
<path d="M639.6 230C642.58 230.001 644.999 232.42 645 235.4V237.071C645 238.136 644.136 239 643.071 239H628.929C627.864 239 627 238.136 627 237.071V235.4C627.001 232.42 629.42 230.001 632.4 230H633.071C633.841 230.355 635.153 230.643 636 230.643C636.847 230.643 638.159 230.355 638.929 230H639.6Z" fill="#3366FF"/>
<path d="M442.949 469.732V472.428C441.634 471.327 440.273 470.777 438.867 470.777C437.318 470.777 436.012 471.334 434.951 472.447C433.883 473.554 433.35 474.908 433.35 476.51C433.35 478.092 433.883 479.426 434.951 480.514C436.019 481.601 437.327 482.145 438.877 482.145C439.678 482.145 440.358 482.014 440.918 481.754C441.23 481.624 441.553 481.448 441.885 481.227C442.223 481.005 442.578 480.738 442.949 480.426V483.17C441.647 483.906 440.28 484.273 438.848 484.273C436.693 484.273 434.854 483.521 433.33 482.018C431.813 480.501 431.055 478.671 431.055 476.529C431.055 474.609 431.689 472.896 432.959 471.393C434.521 469.55 436.543 468.629 439.023 468.629C440.378 468.629 441.686 468.997 442.949 469.732ZM444.961 479.176C444.961 477.802 445.452 476.633 446.436 475.67C447.419 474.706 448.617 474.225 450.029 474.225C451.449 474.225 452.653 474.71 453.643 475.68C454.619 476.65 455.107 477.841 455.107 479.254C455.107 480.68 454.616 481.874 453.633 482.838C452.643 483.795 451.429 484.273 449.99 484.273C448.564 484.273 447.37 483.785 446.406 482.809C445.443 481.845 444.961 480.634 444.961 479.176ZM447.207 479.215C447.207 480.165 447.461 480.917 447.969 481.471C448.49 482.031 449.176 482.311 450.029 482.311C450.889 482.311 451.576 482.034 452.09 481.48C452.604 480.927 452.861 480.188 452.861 479.264C452.861 478.339 452.604 477.6 452.09 477.047C451.569 476.487 450.882 476.207 450.029 476.207C449.189 476.207 448.509 476.487 447.988 477.047C447.467 477.607 447.207 478.329 447.207 479.215ZM457.441 474.488H459.639V475.367C460.062 474.924 460.423 474.625 460.723 474.469C461.042 474.306 461.442 474.225 461.924 474.225C462.998 474.225 463.848 474.693 464.473 475.631C465.163 474.693 466.097 474.225 467.275 474.225C469.417 474.225 470.488 475.523 470.488 478.121V484H468.281V478.717C468.281 477.805 468.171 477.161 467.949 476.783C467.721 476.399 467.347 476.207 466.826 476.207C466.221 476.207 465.778 476.435 465.498 476.891C465.225 477.346 465.088 478.079 465.088 479.088V484H462.881V478.746C462.881 477.053 462.393 476.207 461.416 476.207C460.798 476.207 460.345 476.438 460.059 476.9C459.779 477.363 459.639 478.092 459.639 479.088V484H457.441V474.488ZM475.713 489.176H473.516V474.488H475.713V475.523C476.579 474.658 477.562 474.225 478.662 474.225C479.971 474.225 481.048 474.706 481.895 475.67C482.754 476.627 483.184 477.835 483.184 479.293C483.184 480.719 482.757 481.907 481.904 482.857C481.058 483.801 479.99 484.273 478.701 484.273C477.588 484.273 476.592 483.827 475.713 482.936V489.176ZM480.938 479.303C480.938 478.391 480.69 477.649 480.195 477.076C479.694 476.497 479.062 476.207 478.301 476.207C477.493 476.207 476.839 476.487 476.338 477.047C475.837 477.607 475.586 478.342 475.586 479.254C475.586 480.146 475.837 480.882 476.338 481.461C476.833 482.027 477.484 482.311 478.291 482.311C479.053 482.311 479.681 482.024 480.176 481.451C480.684 480.878 480.938 480.162 480.938 479.303ZM492.52 474.488H494.727V484H492.52V483.004C491.615 483.85 490.641 484.273 489.6 484.273C488.285 484.273 487.197 483.798 486.338 482.848C485.485 481.878 485.059 480.667 485.059 479.215C485.059 477.789 485.485 476.601 486.338 475.65C487.191 474.7 488.258 474.225 489.541 474.225C490.648 474.225 491.641 474.68 492.52 475.592V474.488ZM487.305 479.215C487.305 480.126 487.549 480.868 488.037 481.441C488.538 482.021 489.17 482.311 489.932 482.311C490.745 482.311 491.403 482.031 491.904 481.471C492.406 480.891 492.656 480.156 492.656 479.264C492.656 478.372 492.406 477.636 491.904 477.057C491.403 476.49 490.752 476.207 489.951 476.207C489.196 476.207 488.564 476.493 488.057 477.066C487.555 477.646 487.305 478.362 487.305 479.215ZM497.5 474.488H499.707V475.367C500.475 474.605 501.341 474.225 502.305 474.225C503.411 474.225 504.274 474.573 504.893 475.27C505.426 475.862 505.693 476.829 505.693 478.17V484H503.486V478.688C503.486 477.75 503.356 477.102 503.096 476.744C502.842 476.38 502.38 476.197 501.709 476.197C500.98 476.197 500.462 476.438 500.156 476.92C499.857 477.395 499.707 478.225 499.707 479.41V484H497.5V474.488ZM511.143 482.232L506.865 474.488H509.414L512.324 479.957L515.039 474.488H517.52L509.941 489.176H507.432L511.143 482.232ZM525.615 484V468.922H528.779C530.296 468.922 531.494 469.072 532.373 469.371C533.317 469.664 534.173 470.162 534.941 470.865C536.497 472.285 537.275 474.15 537.275 476.461C537.275 478.779 536.465 480.654 534.844 482.086C534.03 482.802 533.177 483.3 532.285 483.58C531.452 483.86 530.27 484 528.74 484H525.615ZM527.891 481.861H528.916C529.938 481.861 530.788 481.754 531.465 481.539C532.142 481.311 532.754 480.95 533.301 480.455C534.421 479.433 534.98 478.102 534.98 476.461C534.98 474.807 534.427 473.466 533.32 472.438C532.324 471.52 530.856 471.061 528.916 471.061H527.891V481.861Z" fill="#666666"/>
<mask id="mask4_0_1" style="mask-type:luminance" maskUnits="userSpaceOnUse" x="432" y="394" width="39" height="52">
<path fill-rule="evenodd" clip-rule="evenodd" d="M432 394H471V446H432V394Z" fill="white"/>
</mask>
<g mask="url(#mask4_0_1)">
<path fill-rule="evenodd" clip-rule="evenodd" d="M444.967 419.993H445C445 419.497 445.022 419 444.995 418.505C444.938 417.461 444.474 416.862 443.462 416.784C442.319 416.696 441.159 416.699 440.016 416.788C439.068 416.862 438.62 417.311 438.548 418.259C438.46 419.402 438.462 420.561 438.545 421.703C438.614 422.645 439.067 423.095 440.004 423.19C441.168 423.308 442.35 423.313 443.514 423.186C444.417 423.088 444.83 422.649 444.952 421.747C445.03 421.172 444.967 420.578 444.967 419.993M438.545 406.958C438.531 406.958 438.517 406.958 438.502 406.958C438.502 407.454 438.483 407.951 438.506 408.446C438.555 409.514 438.989 410.09 440.008 410.196C441.172 410.317 442.355 410.321 443.519 410.191C444.421 410.09 444.858 409.653 444.952 408.749C445.073 407.585 445.074 406.403 444.952 405.239C444.854 404.318 444.442 403.9 443.523 403.801C442.337 403.674 441.137 403.691 439.946 403.801C439.115 403.878 438.64 404.394 438.557 405.204C438.497 405.783 438.545 406.373 438.545 406.958M464.487 420.018H464.499C464.499 419.522 464.519 419.025 464.495 418.53C464.446 417.478 463.994 416.885 462.985 416.786C461.821 416.671 460.638 416.657 459.475 416.796C458.542 416.907 458.127 417.3 458.055 418.233C457.964 419.397 457.965 420.579 458.055 421.743C458.126 422.666 458.558 423.078 459.478 423.184C460.642 423.318 461.824 423.305 462.989 423.193C463.931 423.103 464.373 422.595 464.476 421.64C464.534 421.105 464.487 420.559 464.487 420.018M451.536 416.785C451.536 416.77 451.536 416.755 451.536 416.741C451.04 416.741 450.542 416.722 450.047 416.745C448.949 416.797 448.366 417.253 448.288 418.311C448.204 419.431 448.204 420.568 448.292 421.689C448.371 422.704 448.962 423.189 450.006 423.228C450.997 423.266 451.992 423.263 452.983 423.229C453.996 423.194 454.585 422.73 454.694 421.761C454.828 420.576 454.813 419.375 454.694 418.186C454.612 417.373 454.115 416.869 453.291 416.795C452.71 416.743 452.121 416.785 451.536 416.785M461.254 410.212V410.243C461.728 410.243 462.202 410.258 462.675 410.24C463.727 410.199 464.333 409.751 464.448 408.757C464.582 407.594 464.569 406.412 464.453 405.248C464.361 404.324 463.948 403.906 463.029 403.804C461.844 403.671 460.639 403.664 459.454 403.808C458.524 403.922 458.119 404.322 458.047 405.26C457.96 406.402 457.961 407.561 458.043 408.704C458.111 409.646 458.565 410.071 459.499 410.197C460.074 410.275 460.668 410.212 461.254 410.212M451.511 403.783C451.511 403.771 451.511 403.759 451.511 403.747C451.015 403.747 450.517 403.725 450.022 403.752C448.971 403.808 448.429 404.212 448.31 405.209C448.169 406.393 448.172 407.598 448.311 408.783C448.419 409.701 448.836 410.124 449.763 410.196C450.906 410.283 452.065 410.281 453.209 410.202C454.134 410.138 454.609 409.664 454.703 408.743C454.821 407.579 454.826 406.397 454.7 405.234C454.6 404.312 454.187 403.925 453.266 403.798C452.691 403.718 452.097 403.783 451.511 403.783M432.002 419.993C432.002 413.115 432.001 406.236 432.002 399.358C432.003 396.055 434.059 394.001 437.365 394.001C446.796 394 456.226 394 465.657 394.001C468.925 394.001 470.999 396.061 470.999 399.309C471.001 413.089 471 426.869 470.999 440.649C470.999 443.913 468.938 445.975 465.678 445.977C462.79 445.979 459.902 445.966 457.014 445.988C456.517 445.992 456.358 445.87 456.364 445.353C456.39 442.917 456.387 440.481 456.373 438.046C456.357 435.43 454.765 433.557 452.192 433.092C449.691 432.64 447.122 434.48 446.758 436.994C446.475 438.946 446.683 440.91 446.63 442.868C446.606 443.746 446.615 444.627 446.631 445.506C446.637 445.847 446.535 445.985 446.172 445.983C443.036 445.971 439.898 446.047 436.765 445.95C433.938 445.862 432.008 443.709 432.004 440.832C431.996 433.886 432.002 426.94 432.002 419.993" fill="#3366FF"/>
</g>
<path fill-rule="evenodd" clip-rule="evenodd" d="M437.163 405.463C437.546 401.644 439.732 399.212 443.559 398.848C449.038 398.329 454.561 398.249 460.019 398.849C464.249 399.314 466.148 401.284 466.596 405.63C467.16 411.116 467.152 416.685 466.596 422.173C466.163 426.437 464.154 428.496 460.001 428.971C454.644 429.584 449.199 429.569 443.843 428.997C439.154 428.496 437.155 425.78 436.929 420.745C436.823 418.412 436.911 416.069 436.911 413.73C436.978 413.729 437.043 413.729 437.109 413.729C437.109 410.972 436.89 408.191 437.163 405.463Z" fill="#3366FF" fill-opacity="0.5"/>
<mask id="mask5_0_1" style="mask-type:luminance" maskUnits="userSpaceOnUse" x="432" y="394" width="39" height="52">
<path fill-rule="evenodd" clip-rule="evenodd" d="M432 394H471V446H432V394Z" fill="white"/>
</mask>
<g mask="url(#mask5_0_1)">
<path fill-rule="evenodd" clip-rule="evenodd" d="M444.967 419.993H445C445 419.497 445.022 419 444.995 418.505C444.938 417.461 444.474 416.862 443.462 416.784C442.319 416.696 441.159 416.699 440.016 416.788C439.068 416.862 438.62 417.311 438.548 418.259C438.46 419.402 438.462 420.561 438.545 421.703C438.614 422.645 439.067 423.095 440.004 423.19C441.168 423.308 442.35 423.313 443.514 423.186C444.417 423.088 444.83 422.649 444.952 421.747C445.03 421.172 444.967 420.578 444.967 419.993M438.545 406.958C438.531 406.958 438.517 406.958 438.502 406.958C438.502 407.454 438.483 407.951 438.506 408.446C438.555 409.514 438.989 410.09 440.008 410.196C441.172 410.317 442.355 410.321 443.519 410.191C444.421 410.09 444.858 409.653 444.952 408.749C445.073 407.585 445.074 406.403 444.952 405.239C444.854 404.318 444.442 403.9 443.523 403.801C442.337 403.674 441.137 403.691 439.946 403.801C439.115 403.878 438.64 404.394 438.557 405.204C438.497 405.783 438.545 406.373 438.545 406.958M464.487 420.018H464.499C464.499 419.522 464.519 419.025 464.495 418.53C464.446 417.478 463.994 416.885 462.985 416.786C461.821 416.671 460.638 416.657 459.475 416.796C458.542 416.907 458.127 417.3 458.055 418.233C457.964 419.397 457.965 420.579 458.055 421.743C458.126 422.666 458.558 423.078 459.478 423.184C460.642 423.318 461.824 423.305 462.989 423.193C463.931 423.103 464.373 422.595 464.476 421.64C464.534 421.105 464.487 420.559 464.487 420.018M451.536 416.785C451.536 416.77 451.536 416.755 451.536 416.741C451.04 416.741 450.542 416.722 450.047 416.745C448.949 416.797 448.366 417.253 448.288 418.311C448.204 419.431 448.204 420.568 448.292 421.689C448.371 422.704 448.962 423.189 450.006 423.228C450.997 423.266 451.992 423.263 452.983 423.229C453.996 423.194 454.585 422.73 454.694 421.761C454.828 420.576 454.813 419.375 454.694 418.186C454.612 417.373 454.115 416.869 453.291 416.795C452.71 416.743 452.121 416.785 451.536 416.785M461.254 410.212V410.243C461.728 410.243 462.202 410.258 462.675 410.24C463.727 410.199 464.333 409.751 464.448 408.757C464.582 407.594 464.569 406.412 464.453 405.248C464.361 404.324 463.948 403.906 463.029 403.804C461.844 403.671 460.639 403.664 459.454 403.808C458.524 403.922 458.119 404.322 458.047 405.26C457.96 406.402 457.961 407.561 458.043 408.704C458.111 409.646 458.565 410.071 459.499 410.197C460.074 410.275 460.668 410.212 461.254 410.212M451.511 403.783C451.511 403.771 451.511 403.759 451.511 403.747C451.015 403.747 450.517 403.725 450.022 403.752C448.971 403.808 448.429 404.212 448.31 405.209C448.169 406.393 448.172 407.598 448.311 408.783C448.419 409.701 448.836 410.124 449.763 410.196C450.906 410.283 452.065 410.281 453.209 410.202C454.134 410.138 454.609 409.664 454.703 408.743C454.821 407.579 454.826 406.397 454.7 405.234C454.6 404.312 454.187 403.925 453.266 403.798C452.691 403.718 452.097 403.783 451.511 403.783M432.002 419.993C432.002 413.115 432.001 406.236 432.002 399.358C432.003 396.055 434.059 394.001 437.365 394.001C446.796 394 456.226 394 465.657 394.001C468.925 394.001 470.999 396.061 470.999 399.309C471.001 413.089 471 426.869 470.999 440.649C470.999 443.913 468.938 445.975 465.678 445.977C462.79 445.979 459.902 445.966 457.014 445.988C456.517 445.992 456.358 445.87 456.364 445.353C456.39 442.917 456.387 440.481 456.373 438.046C456.357 435.43 454.765 433.557 452.192 433.092C449.691 432.64 447.122 434.48 446.758 436.994C446.475 438.946 446.683 440.91 446.63 442.868C446.606 443.746 446.615 444.627 446.631 445.506C446.637 445.847 446.535 445.985 446.172 445.983C443.036 445.971 439.898 446.047 436.765 445.95C433.938 445.862 432.008 443.709 432.004 440.832C431.996 433.886 432.002 426.94 432.002 419.993" fill="#3366FF"/>
</g>
<path fill-rule="evenodd" clip-rule="evenodd" d="M437.163 405.463C437.546 401.644 439.732 399.212 443.559 398.848C449.038 398.329 454.561 398.249 460.019 398.849C464.249 399.314 466.148 401.284 466.596 405.63C467.16 411.116 467.152 416.685 466.596 422.173C466.163 426.437 464.154 428.496 460.001 428.971C454.644 429.584 449.199 429.569 443.843 428.997C439.154 428.496 437.155 425.78 436.929 420.745C436.823 418.412 436.911 416.069 436.911 413.73C436.978 413.729 437.043 413.729 437.109 413.729C437.109 410.972 436.89 408.191 437.163 405.463Z" fill="#3366FF" fill-opacity="0.5"/>
<path d="M537.6 405C540.58 405.001 542.999 407.42 543 410.4V412.071C543 413.136 542.136 414 541.071 414H526.929C525.864 414 525 413.136 525 412.071V410.4C525.001 407.42 527.42 405.001 530.4 405H531.071C531.841 405.355 533.153 405.643 534 405.643C534.847 405.643 536.159 405.355 536.929 405H537.6Z" fill="#3366FF"/>
<path d="M534 404C531.24 404 529 401.76 529 399C529 396.24 531.24 394 534 394C536.76 394 539 396.24 539 399C539 401.76 536.76 404 534 404Z" fill="#3366FF" fill-opacity="0.5"/>
<path d="M537.6 438C540.58 438.001 542.999 440.42 543 443.4V445.071C543 446.136 542.136 447 541.071 447H526.929C525.864 447 525 446.136 525 445.071V443.4C525.001 440.42 527.42 438.001 530.4 438H531.071C531.841 438.355 533.153 438.643 534 438.643C534.847 438.643 536.159 438.355 536.929 438H537.6Z" fill="#3366FF"/>
<path d="M534 437C531.24 437 529 434.76 529 432C529 429.24 531.24 427 534 427C536.76 427 539 429.24 539 432C539 434.76 536.76 437 534 437Z" fill="#3366FF" fill-opacity="0.5"/>
<path d="M504.6 405C507.58 405.001 509.999 407.42 510 410.4V412.071C510 413.136 509.136 414 508.071 414H493.929C492.864 414 492 413.136 492 412.071V410.4C492.001 407.42 494.42 405.001 497.4 405H498.071C498.841 405.355 500.153 405.643 501 405.643C501.847 405.643 503.159 405.355 503.929 405H504.6Z" fill="#3366FF"/>
<path d="M501 404C498.24 404 496 401.76 496 399C496 396.24 498.24 394 501 394C503.76 394 506 396.24 506 399C506 401.76 503.76 404 501 404Z" fill="#3366FF" fill-opacity="0.5"/>
<path d="M504.6 438C507.58 438.001 509.999 440.42 510 443.4V445.071C510 446.136 509.136 447 508.071 447H493.929C492.864 447 492 446.136 492 445.071V443.4C492.001 440.42 494.42 438.001 497.4 438H498.071C498.841 438.355 500.153 438.643 501 438.643C501.847 438.643 503.159 438.355 503.929 438H504.6Z" fill="#3366FF"/>
<path d="M501 437C498.24 437 496 434.76 496 432C496 429.24 498.24 427 501 427C503.76 427 506 429.24 506 432C506 434.76 503.76 437 501 437Z" fill="#3366FF" fill-opacity="0.5"/>
<path d="M537.6 405C540.58 405.001 542.999 407.42 543 410.4V412.071C543 413.136 542.136 414 541.071 414H526.929C525.864 414 525 413.136 525 412.071V410.4C525.001 407.42 527.42 405.001 530.4 405H531.071C531.841 405.355 533.153 405.643 534 405.643C534.847 405.643 536.159 405.355 536.929 405H537.6Z" fill="#3366FF"/>
<path d="M504.6 405C507.58 405.001 509.999 407.42 510 410.4V412.071C510 413.136 509.136 414 508.071 414H493.929C492.864 414 492 413.136 492 412.071V410.4C492.001 407.42 494.42 405.001 497.4 405H498.071C498.841 405.355 500.153 405.643 501 405.643C501.847 405.643 503.159 405.355 503.929 405H504.6Z" fill="#3366FF"/>
<path d="M504.6 438C507.58 438.001 509.999 440.42 510 443.4V445.071C510 446.136 509.136 447 508.071 447H493.929C492.864 447 492 446.136 492 445.071V443.4C492.001 440.42 494.42 438.001 497.4 438H498.071C498.841 438.355 500.153 438.643 501 438.643C501.847 438.643 503.159 438.355 503.929 438H504.6Z" fill="#3366FF"/>
<path d="M442.949 75.7324V78.4277C441.634 77.3275 440.273 76.7773 438.867 76.7773C437.318 76.7773 436.012 77.334 434.951 78.4473C433.883 79.554 433.35 80.9082 433.35 82.5098C433.35 84.0918 433.883 85.4264 434.951 86.5137C436.019 87.6009 437.327 88.1445 438.877 88.1445C439.678 88.1445 440.358 88.0143 440.918 87.7539C441.23 87.6237 441.553 87.4479 441.885 87.2266C442.223 87.0052 442.578 86.7383 442.949 86.4258V89.1699C441.647 89.9056 440.28 90.2734 438.848 90.2734C436.693 90.2734 434.854 89.5215 433.33 88.0176C431.813 86.5007 431.055 84.6712 431.055 82.5293C431.055 80.6087 431.689 78.8965 432.959 77.3926C434.521 75.5501 436.543 74.6289 439.023 74.6289C440.378 74.6289 441.686 74.9967 442.949 75.7324ZM444.961 85.1758C444.961 83.8021 445.452 82.6335 446.436 81.6699C447.419 80.7064 448.617 80.2246 450.029 80.2246C451.449 80.2246 452.653 80.7096 453.643 81.6797C454.619 82.6497 455.107 83.8411 455.107 85.2539C455.107 86.6797 454.616 87.8743 453.633 88.8379C452.643 89.7949 451.429 90.2734 449.99 90.2734C448.564 90.2734 447.37 89.7852 446.406 88.8086C445.443 87.8451 444.961 86.6341 444.961 85.1758ZM447.207 85.2148C447.207 86.1654 447.461 86.9173 447.969 87.4707C448.49 88.0306 449.176 88.3105 450.029 88.3105C450.889 88.3105 451.576 88.0339 452.09 87.4805C452.604 86.9271 452.861 86.1882 452.861 85.2637C452.861 84.3392 452.604 83.6003 452.09 83.0469C451.569 82.487 450.882 82.207 450.029 82.207C449.189 82.207 448.509 82.487 447.988 83.0469C447.467 83.6068 447.207 84.3294 447.207 85.2148ZM457.441 80.4883H459.639V81.3672C460.062 80.9245 460.423 80.625 460.723 80.4688C461.042 80.306 461.442 80.2246 461.924 80.2246C462.998 80.2246 463.848 80.6934 464.473 81.6309C465.163 80.6934 466.097 80.2246 467.275 80.2246C469.417 80.2246 470.488 81.5234 470.488 84.1211V90H468.281V84.7168C468.281 83.8053 468.171 83.1608 467.949 82.7832C467.721 82.3991 467.347 82.207 466.826 82.207C466.221 82.207 465.778 82.4349 465.498 82.8906C465.225 83.3464 465.088 84.0788 465.088 85.0879V90H462.881V84.7461C462.881 83.0534 462.393 82.207 461.416 82.207C460.798 82.207 460.345 82.4382 460.059 82.9004C459.779 83.3626 459.639 84.0918 459.639 85.0879V90H457.441V80.4883ZM475.713 95.1758H473.516V80.4883H475.713V81.5234C476.579 80.6576 477.562 80.2246 478.662 80.2246C479.971 80.2246 481.048 80.7064 481.895 81.6699C482.754 82.627 483.184 83.8346 483.184 85.293C483.184 86.7188 482.757 87.9069 481.904 88.8574C481.058 89.8014 479.99 90.2734 478.701 90.2734C477.588 90.2734 476.592 89.8275 475.713 88.9355V95.1758ZM480.938 85.3027C480.938 84.3913 480.69 83.6491 480.195 83.0762C479.694 82.4967 479.062 82.207 478.301 82.207C477.493 82.207 476.839 82.487 476.338 83.0469C475.837 83.6068 475.586 84.3424 475.586 85.2539C475.586 86.1458 475.837 86.8815 476.338 87.4609C476.833 88.0273 477.484 88.3105 478.291 88.3105C479.053 88.3105 479.681 88.0241 480.176 87.4512C480.684 86.8783 480.938 86.1621 480.938 85.3027ZM492.52 80.4883H494.727V90H492.52V89.0039C491.615 89.8503 490.641 90.2734 489.6 90.2734C488.285 90.2734 487.197 89.7982 486.338 88.8477C485.485 87.8776 485.059 86.6667 485.059 85.2148C485.059 83.7891 485.485 82.6009 486.338 81.6504C487.191 80.6999 488.258 80.2246 489.541 80.2246C490.648 80.2246 491.641 80.6803 492.52 81.5918V80.4883ZM487.305 85.2148C487.305 86.1263 487.549 86.8685 488.037 87.4414C488.538 88.0208 489.17 88.3105 489.932 88.3105C490.745 88.3105 491.403 88.0306 491.904 87.4707C492.406 86.8913 492.656 86.1556 492.656 85.2637C492.656 84.3717 492.406 83.6361 491.904 83.0566C491.403 82.4902 490.752 82.207 489.951 82.207C489.196 82.207 488.564 82.4935 488.057 83.0664C487.555 83.6458 487.305 84.362 487.305 85.2148ZM497.5 80.4883H499.707V81.3672C500.475 80.6055 501.341 80.2246 502.305 80.2246C503.411 80.2246 504.274 80.5729 504.893 81.2695C505.426 81.862 505.693 82.8288 505.693 84.1699V90H503.486V84.6875C503.486 83.75 503.356 83.1022 503.096 82.7441C502.842 82.3796 502.38 82.1973 501.709 82.1973C500.98 82.1973 500.462 82.4382 500.156 82.9199C499.857 83.3952 499.707 84.2253 499.707 85.4102V90H497.5V80.4883ZM511.143 88.2324L506.865 80.4883H509.414L512.324 85.957L515.039 80.4883H517.52L509.941 95.1758H507.432L511.143 88.2324ZM525.615 90V74.9219H527.881C528.89 74.9219 529.694 75 530.293 75.1562C530.898 75.3125 531.41 75.5762 531.826 75.9473C532.249 76.3314 532.585 76.8099 532.832 77.3828C533.086 77.9622 533.213 78.5482 533.213 79.1406C533.213 80.2214 532.799 81.1361 531.973 81.8848C532.773 82.1582 533.405 82.6367 533.867 83.3203C534.336 83.9974 534.57 84.7852 534.57 85.6836C534.57 86.862 534.154 87.8581 533.32 88.6719C532.819 89.1732 532.256 89.5215 531.631 89.7168C530.947 89.9056 530.091 90 529.062 90H525.615ZM527.891 81.3965H528.604C529.45 81.3965 530.068 81.2109 530.459 80.8398C530.856 80.4622 531.055 79.9089 531.055 79.1797C531.055 78.4701 530.853 77.9329 530.449 77.5684C530.046 77.1973 529.46 77.0117 528.691 77.0117H527.891V81.3965ZM527.891 87.8613H529.297C530.326 87.8613 531.081 87.6595 531.562 87.2559C532.07 86.8197 532.324 86.2663 532.324 85.5957C532.324 84.9447 532.08 84.3978 531.592 83.9551C531.117 83.5189 530.267 83.3008 529.043 83.3008H527.891V87.8613Z" fill="#666666"/>
<mask id="mask6_0_1" style="mask-type:luminance" maskUnits="userSpaceOnUse" x="432" y="0" width="39" height="52">
<path fill-rule="evenodd" clip-rule="evenodd" d="M432 0H471V52H432V0Z" fill="white"/>
</mask>
<g mask="url(#mask6_0_1)">
<path fill-rule="evenodd" clip-rule="evenodd" d="M444.967 25.993H445C445 25.4969 445.022 24.9997 444.995 24.5049C444.938 23.4608 444.474 22.8623 443.462 22.784C442.319 22.696 441.159 22.6993 440.016 22.7884C439.068 22.862 438.62 23.3111 438.548 24.2595C438.46 25.4018 438.462 26.5607 438.545 27.7036C438.614 28.6455 439.067 29.0956 440.004 29.1904C441.168 29.3079 442.35 29.3134 443.514 29.1863C444.417 29.0883 444.83 28.6493 444.952 27.7475C445.03 27.1722 444.967 26.5786 444.967 25.993M438.545 12.9577C438.531 12.9577 438.517 12.9577 438.502 12.958C438.502 13.4539 438.483 13.9511 438.506 14.4459C438.555 15.514 438.989 16.0903 440.008 16.1965C441.172 16.3176 442.355 16.3211 443.519 16.1911C444.421 16.0903 444.858 15.6532 444.952 14.7489C445.073 13.5849 445.074 12.4033 444.952 11.2396C444.854 10.318 444.442 9.90009 443.523 9.80151C442.337 9.67423 441.137 9.69102 439.946 9.80124C439.115 9.87843 438.64 10.3941 438.557 11.2044C438.497 11.7831 438.545 12.373 438.545 12.9577M464.487 26.0185H464.499C464.499 25.5224 464.519 25.0251 464.495 24.5301C464.446 23.4782 463.994 22.8851 462.985 22.7857C461.821 22.6708 460.638 22.6576 459.475 22.7957C458.542 22.9067 458.127 23.3 458.055 24.2335C457.964 25.3975 457.965 26.5791 458.055 27.7434C458.126 28.6658 458.558 29.0777 459.478 29.1839C460.642 29.3185 461.824 29.3047 462.989 29.1928C463.931 29.1027 464.373 28.5954 464.476 27.6405C464.534 27.1056 464.487 26.5596 464.487 26.0185M451.536 22.7849C451.536 22.7702 451.536 22.7556 451.536 22.7413C451.04 22.7413 450.542 22.7218 450.047 22.745C448.949 22.7968 448.366 23.2534 448.288 24.3107C448.204 25.4314 448.204 26.5683 448.292 27.6887C448.371 28.7037 448.962 29.1888 450.006 29.2283C450.997 29.2662 451.992 29.2635 452.983 29.2291C453.996 29.1942 454.585 28.7305 454.694 27.7607C454.828 26.5761 454.813 25.3748 454.694 24.1861C454.612 23.3728 454.115 22.8688 453.291 22.7949C452.71 22.7429 452.121 22.7849 451.536 22.7849M461.254 16.2119V16.2431C461.728 16.2431 462.202 16.258 462.675 16.2398C463.727 16.1995 464.333 15.7513 464.448 14.7571C464.582 13.5944 464.569 12.4117 464.453 11.2477C464.361 10.3237 463.948 9.90659 463.029 9.80368C461.844 9.67071 460.639 9.66393 459.454 9.80856C458.524 9.92203 458.119 10.3218 458.047 11.2596C457.96 12.4022 457.961 13.5611 458.043 14.7043C458.111 15.6465 458.565 16.0708 459.499 16.1976C460.074 16.2753 460.668 16.2119 461.254 16.2119M451.511 9.7831C451.511 9.77118 451.511 9.75899 451.511 9.74708C451.015 9.74708 450.517 9.72541 450.022 9.75168C448.971 9.80774 448.429 10.2124 448.31 11.2095C448.169 12.3936 448.172 13.5985 448.311 14.7833C448.419 15.7014 448.836 16.1245 449.763 16.1957C450.906 16.2834 452.065 16.2815 453.209 16.2022C454.134 16.138 454.609 15.6643 454.703 14.7433C454.821 13.5792 454.826 12.3974 454.7 11.2336C454.6 10.3117 454.187 9.92528 453.266 9.79772C452.691 9.7181 452.097 9.7831 451.511 9.7831M432.002 25.9936C432.002 19.1149 432.001 12.2365 432.002 5.35782C432.003 2.05538 434.059 0.00117434 437.365 0.000903519C446.796 -0.000179781 456.226 -0.000179781 465.657 0.00117434C468.925 0.00144517 470.999 2.06107 470.999 5.30961C471.001 19.0895 471 32.8693 470.999 46.6489C470.999 49.9128 468.938 51.9749 465.678 51.9771C462.79 51.9792 459.902 51.966 457.014 51.9884C456.517 51.9922 456.358 51.8698 456.364 51.3528C456.39 48.9173 456.387 46.4812 456.373 44.0457C456.357 41.4303 454.765 39.557 452.192 39.092C449.691 38.6398 447.122 40.4803 446.758 42.9941C446.475 44.9456 446.683 46.9099 446.63 48.8677C446.606 49.7466 446.615 50.6267 446.631 51.5061C446.637 51.8476 446.535 51.9847 446.172 51.9833C443.036 51.9708 439.898 52.0475 436.765 51.9503C433.938 51.8625 432.008 49.7092 432.004 46.8322C431.996 39.8861 432.002 32.9397 432.002 25.9936" fill="#3366FF"/>
</g>
<path fill-rule="evenodd" clip-rule="evenodd" d="M437.163 11.4631C437.546 7.64438 439.732 5.21221 443.559 4.84834C449.038 4.32871 454.561 4.24956 460.019 4.84962C464.249 5.31435 466.148 7.28434 466.596 11.6303C467.16 17.1164 467.152 22.6855 466.596 28.1729C466.163 32.4372 464.154 34.4966 460.001 34.9715C454.644 35.5843 449.199 35.569 443.843 34.997C439.154 34.4966 437.155 31.7797 436.929 26.7455C436.823 24.4117 436.911 22.0689 436.911 19.7299C436.978 19.7286 437.043 19.7286 437.109 19.7286C437.109 16.9722 436.89 14.1915 437.163 11.4631Z" fill="#3366FF" fill-opacity="0.5"/>
<mask id="mask7_0_1" style="mask-type:luminance" maskUnits="userSpaceOnUse" x="432" y="0" width="39" height="52">
<path fill-rule="evenodd" clip-rule="evenodd" d="M432 0H471V52H432V0Z" fill="white"/>
</mask>
<g mask="url(#mask7_0_1)">
<path fill-rule="evenodd" clip-rule="evenodd" d="M444.967 25.993H445C445 25.4969 445.022 24.9997 444.995 24.5049C444.938 23.4608 444.474 22.8623 443.462 22.784C442.319 22.696 441.159 22.6993 440.016 22.7884C439.068 22.862 438.62 23.3111 438.548 24.2595C438.46 25.4018 438.462 26.5607 438.545 27.7036C438.614 28.6455 439.067 29.0956 440.004 29.1904C441.168 29.3079 442.35 29.3134 443.514 29.1863C444.417 29.0883 444.83 28.6493 444.952 27.7475C445.03 27.1722 444.967 26.5786 444.967 25.993M438.545 12.9577C438.531 12.9577 438.517 12.9577 438.502 12.958C438.502 13.4539 438.483 13.9511 438.506 14.4459C438.555 15.514 438.989 16.0903 440.008 16.1965C441.172 16.3176 442.355 16.3211 443.519 16.1911C444.421 16.0903 444.858 15.6532 444.952 14.7489C445.073 13.5849 445.074 12.4033 444.952 11.2396C444.854 10.318 444.442 9.90009 443.523 9.80151C442.337 9.67423 441.137 9.69102 439.946 9.80124C439.115 9.87843 438.64 10.3941 438.557 11.2044C438.497 11.7831 438.545 12.373 438.545 12.9577M464.487 26.0185H464.499C464.499 25.5224 464.519 25.0251 464.495 24.5301C464.446 23.4782 463.994 22.8851 462.985 22.7857C461.821 22.6708 460.638 22.6576 459.475 22.7957C458.542 22.9067 458.127 23.3 458.055 24.2335C457.964 25.3975 457.965 26.5791 458.055 27.7434C458.126 28.6658 458.558 29.0777 459.478 29.1839C460.642 29.3185 461.824 29.3047 462.989 29.1928C463.931 29.1027 464.373 28.5954 464.476 27.6405C464.534 27.1056 464.487 26.5596 464.487 26.0185M451.536 22.7849C451.536 22.7702 451.536 22.7556 451.536 22.7413C451.04 22.7413 450.542 22.7218 450.047 22.745C448.949 22.7968 448.366 23.2534 448.288 24.3107C448.204 25.4314 448.204 26.5683 448.292 27.6887C448.371 28.7037 448.962 29.1888 450.006 29.2283C450.997 29.2662 451.992 29.2635 452.983 29.2291C453.996 29.1942 454.585 28.7305 454.694 27.7607C454.828 26.5761 454.813 25.3748 454.694 24.1861C454.612 23.3728 454.115 22.8688 453.291 22.7949C452.71 22.7429 452.121 22.7849 451.536 22.7849M461.254 16.2119V16.2431C461.728 16.2431 462.202 16.258 462.675 16.2398C463.727 16.1995 464.333 15.7513 464.448 14.7571C464.582 13.5944 464.569 12.4117 464.453 11.2477C464.361 10.3237 463.948 9.90659 463.029 9.80368C461.844 9.67071 460.639 9.66393 459.454 9.80856C458.524 9.92203 458.119 10.3218 458.047 11.2596C457.96 12.4022 457.961 13.5611 458.043 14.7043C458.111 15.6465 458.565 16.0708 459.499 16.1976C460.074 16.2753 460.668 16.2119 461.254 16.2119M451.511 9.7831C451.511 9.77118 451.511 9.75899 451.511 9.74708C451.015 9.74708 450.517 9.72541 450.022 9.75168C448.971 9.80774 448.429 10.2124 448.31 11.2095C448.169 12.3936 448.172 13.5985 448.311 14.7833C448.419 15.7014 448.836 16.1245 449.763 16.1957C450.906 16.2834 452.065 16.2815 453.209 16.2022C454.134 16.138 454.609 15.6643 454.703 14.7433C454.821 13.5792 454.826 12.3974 454.7 11.2336C454.6 10.3117 454.187 9.92528 453.266 9.79772C452.691 9.7181 452.097 9.7831 451.511 9.7831M432.002 25.9936C432.002 19.1149 432.001 12.2365 432.002 5.35782C432.003 2.05538 434.059 0.00117434 437.365 0.000903519C446.796 -0.000179781 456.226 -0.000179781 465.657 0.00117434C468.925 0.00144517 470.999 2.06107 470.999 5.30961C471.001 19.0895 471 32.8693 470.999 46.6489C470.999 49.9128 468.938 51.9749 465.678 51.9771C462.79 51.9792 459.902 51.966 457.014 51.9884C456.517 51.9922 456.358 51.8698 456.364 51.3528C456.39 48.9173 456.387 46.4812 456.373 44.0457C456.357 41.4303 454.765 39.557 452.192 39.092C449.691 38.6398 447.122 40.4803 446.758 42.9941C446.475 44.9456 446.683 46.9099 446.63 48.8677C446.606 49.7466 446.615 50.6267 446.631 51.5061C446.637 51.8476 446.535 51.9847 446.172 51.9833C443.036 51.9708 439.898 52.0475 436.765 51.9503C433.938 51.8625 432.008 49.7092 432.004 46.8322C431.996 39.8861 432.002 32.9397 432.002 25.9936" fill="#3366FF"/>
</g>
<path fill-rule="evenodd" clip-rule="evenodd" d="M437.163 11.4631C437.546 7.64438 439.732 5.21221 443.559 4.84834C449.038 4.32871 454.561 4.24956 460.019 4.84962C464.249 5.31435 466.148 7.28434 466.596 11.6303C467.16 17.1164 467.152 22.6855 466.596 28.1729C466.163 32.4372 464.154 34.4966 460.001 34.9715C454.644 35.5843 449.199 35.569 443.843 34.997C439.154 34.4966 437.155 31.7797 436.929 26.7455C436.823 24.4117 436.911 22.0689 436.911 19.7299C436.978 19.7286 437.043 19.7286 437.109 19.7286C437.109 16.9722 436.89 14.1915 437.163 11.4631Z" fill="#3366FF" fill-opacity="0.5"/>
<path d="M537.6 11C540.58 11.0006 542.999 13.4197 543 16.4V18.0714C543 19.136 542.136 20 541.071 20H526.929C525.864 20 525 19.136 525 18.0714V16.4C525.001 13.4197 527.42 11.0006 530.4 11H531.071C531.841 11.3549 533.153 11.6429 534 11.6429C534.847 11.6429 536.159 11.3549 536.929 11H537.6Z" fill="#3366FF"/>
<path d="M534 10C531.24 10 529 7.76 529 5C529 2.24 531.24 0 534 0C536.76 0 539 2.24 539 5C539 7.76 536.76 10 534 10Z" fill="#3366FF" fill-opacity="0.5"/>
<path d="M537.6 44C540.58 44.0006 542.999 46.4197 543 49.4V51.0714C543 52.136 542.136 53 541.071 53H526.929C525.864 53 525 52.136 525 51.0714V49.4C525.001 46.4197 527.42 44.0006 530.4 44H531.071C531.841 44.3549 533.153 44.6429 534 44.6429C534.847 44.6429 536.159 44.3549 536.929 44H537.6Z" fill="#3366FF"/>
<path d="M534 43C531.24 43 529 40.76 529 38C529 35.24 531.24 33 534 33C536.76 33 539 35.24 539 38C539 40.76 536.76 43 534 43Z" fill="#3366FF" fill-opacity="0.5"/>
<path d="M504.6 11C507.58 11.0006 509.999 13.4197 510 16.4V18.0714C510 19.136 509.136 20 508.071 20H493.929C492.864 20 492 19.136 492 18.0714V16.4C492.001 13.4197 494.42 11.0006 497.4 11H498.071C498.841 11.3549 500.153 11.6429 501 11.6429C501.847 11.6429 503.159 11.3549 503.929 11H504.6Z" fill="#3366FF"/>
<path d="M501 10C498.24 10 496 7.76 496 5C496 2.24 498.24 0 501 0C503.76 0 506 2.24 506 5C506 7.76 503.76 10 501 10Z" fill="#3366FF" fill-opacity="0.5"/>
<path d="M504.6 44C507.58 44.0006 509.999 46.4197 510 49.4V51.0714C510 52.136 509.136 53 508.071 53H493.929C492.864 53 492 52.136 492 51.0714V49.4C492.001 46.4197 494.42 44.0006 497.4 44H498.071C498.841 44.3549 500.153 44.6429 501 44.6429C501.847 44.6429 503.159 44.3549 503.929 44H504.6Z" fill="#3366FF"/>
<path d="M501 43C498.24 43 496 40.76 496 38C496 35.24 498.24 33 501 33C503.76 33 506 35.24 506 38C506 40.76 503.76 43 501 43Z" fill="#3366FF" fill-opacity="0.5"/>
<path d="M537.6 11C540.58 11.0006 542.999 13.4197 543 16.4V18.0714C543 19.136 542.136 20 541.071 20H526.929C525.864 20 525 19.136 525 18.0714V16.4C525.001 13.4197 527.42 11.0006 530.4 11H531.071C531.841 11.3549 533.153 11.6429 534 11.6429C534.847 11.6429 536.159 11.3549 536.929 11H537.6Z" fill="#3366FF"/>
<path d="M504.6 11C507.58 11.0006 509.999 13.4197 510 16.4V18.0714C510 19.136 509.136 20 508.071 20H493.929C492.864 20 492 19.136 492 18.0714V16.4C492.001 13.4197 494.42 11.0006 497.4 11H498.071C498.841 11.3549 500.153 11.6429 501 11.6429C501.847 11.6429 503.159 11.3549 503.929 11H504.6Z" fill="#3366FF"/>
<path d="M504.6 44C507.58 44.0006 509.999 46.4197 510 49.4V51.0714C510 52.136 509.136 53 508.071 53H493.929C492.864 53 492 52.136 492 51.0714V49.4C492.001 46.4197 494.42 44.0006 497.4 44H498.071C498.841 44.3549 500.153 44.6429 501 44.6429C501.847 44.6429 503.159 44.3549 503.929 44H504.6Z" fill="#3366FF"/>
<path d="M208.6 225.5L203.6 222.613L203.6 228.387L208.6 225.5ZM159 226L204.1 226L204.1 225L159 225L159 226Z" fill="#979797"/>
<g filter="url(#filter0_d_0_1)">
<rect x="256" y="162" width="189" height="128" rx="10" fill="white"/>
<g clip-path="url(#clip0_0_1)" filter="url(#filter1_d_0_1)">
<rect x="280.2" y="235.4" width="141" height="34" rx="6.44" fill="#F0F0F0"/>
<path d="M297.12 256.28L300.172 246.797H302.379L298.219 258.4H296.729L297.12 256.28ZM294.299 246.797L297.327 256.28L297.741 258.4H296.243L292.099 246.797H294.299ZM306.937 258.559C306.3 258.559 305.723 258.456 305.208 258.248C304.698 258.036 304.262 257.741 303.901 257.364C303.545 256.987 303.272 256.543 303.08 256.033C302.889 255.523 302.793 254.973 302.793 254.384V254.065C302.793 253.39 302.892 252.779 303.088 252.232C303.285 251.685 303.558 251.217 303.909 250.83C304.26 250.436 304.674 250.136 305.152 249.929C305.63 249.722 306.148 249.618 306.706 249.618C307.322 249.618 307.862 249.722 308.324 249.929C308.786 250.136 309.168 250.428 309.471 250.806C309.779 251.178 310.008 251.621 310.157 252.136C310.311 252.652 310.388 253.22 310.388 253.842V254.663H303.726V253.284H308.491V253.133C308.48 252.787 308.411 252.463 308.284 252.16C308.162 251.858 307.973 251.613 307.718 251.427C307.463 251.241 307.123 251.148 306.698 251.148C306.379 251.148 306.095 251.217 305.845 251.356C305.601 251.488 305.397 251.682 305.232 251.937C305.067 252.192 304.94 252.5 304.849 252.862C304.764 253.218 304.722 253.619 304.722 254.065V254.384C304.722 254.761 304.772 255.111 304.873 255.436C304.98 255.754 305.134 256.033 305.335 256.272C305.537 256.511 305.782 256.7 306.069 256.838C306.355 256.971 306.682 257.037 307.049 257.037C307.511 257.037 307.923 256.944 308.284 256.758C308.645 256.572 308.959 256.309 309.224 255.969L310.236 256.95C310.05 257.221 309.809 257.481 309.511 257.731C309.214 257.975 308.85 258.174 308.419 258.328C307.994 258.482 307.5 258.559 306.937 258.559ZM313.814 251.419V258.4H311.894V249.778H313.727L313.814 251.419ZM316.452 249.722L316.436 251.507C316.319 251.486 316.192 251.47 316.053 251.459C315.921 251.448 315.788 251.443 315.655 251.443C315.326 251.443 315.036 251.491 314.786 251.587C314.537 251.677 314.327 251.81 314.157 251.985C313.992 252.155 313.865 252.362 313.774 252.607C313.684 252.851 313.631 253.125 313.615 253.427L313.177 253.459C313.177 252.917 313.23 252.415 313.336 251.953C313.442 251.491 313.602 251.085 313.814 250.734C314.032 250.383 314.303 250.11 314.627 249.913C314.956 249.717 315.336 249.618 315.767 249.618C315.883 249.618 316.008 249.629 316.141 249.65C316.279 249.671 316.383 249.695 316.452 249.722ZM319.711 249.778V258.4H317.783V249.778H319.711ZM317.655 247.515C317.655 247.222 317.751 246.981 317.942 246.789C318.139 246.593 318.41 246.495 318.755 246.495C319.095 246.495 319.363 246.593 319.56 246.789C319.756 246.981 319.855 247.222 319.855 247.515C319.855 247.801 319.756 248.041 319.56 248.232C319.363 248.423 319.095 248.519 318.755 248.519C318.41 248.519 318.139 248.423 317.942 248.232C317.751 248.041 317.655 247.801 317.655 247.515ZM324.413 258.4H322.492V248.949C322.492 248.306 322.612 247.767 322.851 247.331C323.095 246.89 323.443 246.558 323.895 246.335C324.346 246.107 324.88 245.993 325.496 245.993C325.688 245.993 325.876 246.006 326.062 246.032C326.248 246.054 326.429 246.088 326.604 246.136L326.556 247.618C326.45 247.592 326.333 247.573 326.206 247.562C326.083 247.552 325.951 247.546 325.807 247.546C325.515 247.546 325.263 247.602 325.05 247.714C324.843 247.82 324.684 247.977 324.572 248.184C324.466 248.391 324.413 248.646 324.413 248.949V258.4ZM326.19 249.778V251.18H321.169V249.778H326.19ZM330.086 257.46L332.429 249.778H334.485L331.027 259.715C330.947 259.927 330.843 260.158 330.716 260.408C330.588 260.658 330.421 260.894 330.214 261.117C330.012 261.346 329.76 261.529 329.457 261.667C329.154 261.811 328.788 261.882 328.357 261.882C328.187 261.882 328.023 261.866 327.863 261.834C327.709 261.808 327.563 261.779 327.425 261.747L327.417 260.281C327.47 260.286 327.534 260.291 327.608 260.296C327.688 260.302 327.752 260.304 327.799 260.304C328.118 260.304 328.384 260.265 328.596 260.185C328.809 260.111 328.981 259.988 329.114 259.818C329.252 259.648 329.369 259.42 329.465 259.133L330.086 257.46ZM328.764 249.778L330.812 256.232L331.154 258.256L329.823 258.599L326.692 249.778H328.764ZM341.992 256.487L343.984 249.778H345.211L344.876 251.786L342.868 258.4H341.769L341.992 256.487ZM340.82 249.778L342.374 256.519L342.502 258.4H341.275L338.94 249.778H340.82ZM347.076 256.44L348.582 249.778H350.455L348.128 258.4H346.9L347.076 256.44ZM345.418 249.778L347.387 256.408L347.634 258.4H346.534L344.502 251.778L344.167 249.778H345.418ZM353.817 249.778V258.4H351.889V249.778H353.817ZM351.761 247.515C351.761 247.222 351.857 246.981 352.048 246.789C352.245 246.593 352.516 246.495 352.861 246.495C353.201 246.495 353.469 246.593 353.666 246.789C353.863 246.981 353.961 247.222 353.961 247.515C353.961 247.801 353.863 248.041 353.666 248.232C353.469 248.423 353.201 248.519 352.861 248.519C352.516 248.519 352.245 248.423 352.048 248.232C351.857 248.041 351.761 247.801 351.761 247.515ZM359.874 249.778V251.18H355.013V249.778H359.874ZM356.415 247.666H358.336V256.017C358.336 256.283 358.373 256.487 358.447 256.631C358.527 256.769 358.636 256.862 358.774 256.91C358.912 256.958 359.074 256.981 359.26 256.981C359.393 256.981 359.52 256.973 359.643 256.958C359.765 256.942 359.863 256.926 359.937 256.91L359.945 258.376C359.786 258.424 359.6 258.466 359.388 258.503C359.18 258.541 358.941 258.559 358.67 258.559C358.229 258.559 357.839 258.482 357.499 258.328C357.159 258.169 356.893 257.911 356.702 257.555C356.511 257.199 356.415 256.726 356.415 256.137V247.666ZM363.252 246.16V258.4H361.34V246.16H363.252ZM362.918 253.77L362.296 253.762C362.301 253.167 362.384 252.617 362.543 252.113C362.708 251.608 362.936 251.17 363.228 250.798C363.526 250.421 363.882 250.131 364.296 249.929C364.711 249.722 365.17 249.618 365.675 249.618C366.1 249.618 366.482 249.677 366.822 249.794C367.168 249.911 367.465 250.099 367.715 250.359C367.965 250.614 368.153 250.949 368.281 251.363C368.413 251.773 368.48 252.272 368.48 252.862V258.4H366.551V252.846C366.551 252.431 366.49 252.102 366.368 251.858C366.251 251.613 366.079 251.438 365.85 251.332C365.622 251.22 365.343 251.164 365.013 251.164C364.668 251.164 364.363 251.233 364.097 251.371C363.837 251.51 363.619 251.698 363.444 251.937C363.268 252.176 363.135 252.453 363.045 252.766C362.96 253.079 362.918 253.414 362.918 253.77Z" fill="#464646"/>
<path fill-rule="evenodd" clip-rule="evenodd" d="M391.406 248.83H388.74C388.644 248.83 388.567 248.908 388.567 249.005V250.399C388.567 250.473 388.609 250.54 388.674 250.572L391.309 251.841C391.434 251.902 391.58 251.809 391.58 251.669V249.005C391.58 248.908 391.502 248.83 391.406 248.83V248.83Z" fill="black"/>
<path fill-rule="evenodd" clip-rule="evenodd" d="M407.088 249.004C407.087 248.908 407.01 248.83 406.915 248.83H398.026C397.93 248.83 397.853 248.908 397.853 249.005V251.507C397.853 251.603 397.931 251.681 398.026 251.681H400.963V260.398C400.963 260.494 401.041 260.572 401.136 260.572H403.803C403.899 260.572 403.976 260.494 403.976 260.398V251.744L406.917 251.749C407.016 251.749 407.097 251.667 407.096 251.567L407.087 249.004L407.088 249.004Z" fill="black"/>
<path fill-rule="evenodd" clip-rule="evenodd" d="M399.58 257.986H396.314V249.005C396.314 248.908 396.236 248.83 396.141 248.83H393.457C393.361 248.83 393.284 248.908 393.284 249.005V260.398C393.284 260.494 393.361 260.572 393.457 260.572H399.744C399.747 260.57 399.75 260.567 399.753 260.564V258.161C399.753 258.064 399.675 257.986 399.58 257.986H399.58Z" fill="black"/>
<path fill-rule="evenodd" clip-rule="evenodd" d="M391.472 254.883L388.837 253.613C388.712 253.553 388.567 253.645 388.567 253.786V260.398C388.567 260.494 388.644 260.572 388.74 260.572H391.406C391.502 260.572 391.58 260.494 391.58 260.398V255.055C391.58 254.981 391.538 254.914 391.472 254.883V254.883Z" fill="black"/>
<path fill-rule="evenodd" clip-rule="evenodd" d="M384.182 253.567C383.315 253.227 382.688 252.982 382.688 252.442C382.688 251.902 383.152 251.539 383.843 251.539L383.866 251.54C384.42 251.587 385.045 251.826 386.001 252.271C386.089 252.312 386.194 252.272 386.233 252.182L387.157 250.034C387.194 249.95 387.159 249.851 387.078 249.809C385.754 249.126 384.719 248.83 383.67 248.83C381.18 248.83 379.572 250.248 379.572 252.442C379.572 254.749 381.537 255.474 382.972 256.003C383.85 256.326 384.484 256.56 384.484 257.104C384.484 257.421 384.378 257.688 384.177 257.876C383.948 258.09 383.616 258.187 383.217 258.156C382.419 258.094 381.764 257.918 380.893 257.521C380.804 257.481 380.7 257.523 380.662 257.614L379.843 259.602C379.808 259.687 379.844 259.785 379.925 259.826C380.985 260.351 382.014 260.569 383.406 260.569C386.019 260.569 387.579 259.323 387.579 257.236C387.579 254.898 385.615 254.129 384.182 253.567V253.567Z" fill="black"/>
<path fill-rule="evenodd" clip-rule="evenodd" d="M410.846 246.713C409.463 245.18 407.584 244.23 405.554 244.038L383.216 244C378.686 244 375 247.732 375 252.32C375 255.331 376.588 257.974 378.961 259.434C379.028 259.476 379.116 259.446 379.147 259.373L380.051 257.205C380.075 257.148 380.056 257.081 380.005 257.046C380.005 257.046 380.004 257.046 380.004 257.046C378.467 255.971 377.55 254.204 377.55 252.32C377.55 249.156 380.092 246.582 383.216 246.582H404.857C407.882 246.582 410.408 249.016 410.45 252.08C410.471 253.623 409.889 255.103 408.817 256.238C407.819 257.294 406.522 257.914 405.139 258.004C405.043 258.01 404.967 258.089 404.967 258.187V260.408C404.967 260.512 405.053 260.597 405.156 260.591C407.185 260.483 409.094 259.606 410.568 258.093C412.136 256.484 413 254.378 413 252.161C413 250.085 412.235 248.252 410.846 246.713Z" fill="#0088FF"/>
</g>
<path d="M302.4 187.406V199H300.361V187.406H297.255V185.49H305.497V187.406H302.4ZM308.175 190.477V195.369C308.175 196.78 308.732 197.486 309.846 197.486C310.96 197.486 311.517 196.78 311.517 195.369V190.477H313.486V195.412C313.486 196.095 313.402 196.684 313.232 197.18C313.069 197.623 312.786 198.023 312.384 198.379C311.719 198.956 310.873 199.245 309.846 199.245C308.825 199.245 307.982 198.956 307.317 198.379C306.909 198.023 306.62 197.623 306.451 197.18C306.288 196.783 306.206 196.194 306.206 195.412V190.477H308.175ZM329.814 195.719H324.03L322.525 199H320.329L327.014 184.641L333.462 199H331.231L329.814 195.719ZM328.982 193.802L326.979 189.209L324.879 193.802H328.982ZM336.752 203.638H334.784V190.477H336.752V191.405C337.528 190.629 338.409 190.241 339.395 190.241C340.567 190.241 341.533 190.673 342.291 191.536C343.061 192.394 343.446 193.476 343.446 194.782C343.446 196.06 343.064 197.125 342.3 197.976C341.542 198.822 340.585 199.245 339.43 199.245C338.432 199.245 337.54 198.845 336.752 198.046V203.638ZM341.434 194.791C341.434 193.975 341.212 193.31 340.769 192.796C340.32 192.277 339.754 192.017 339.071 192.017C338.348 192.017 337.762 192.268 337.312 192.77C336.863 193.272 336.639 193.931 336.639 194.747C336.639 195.547 336.863 196.206 337.312 196.725C337.756 197.232 338.339 197.486 339.062 197.486C339.745 197.486 340.308 197.23 340.751 196.716C341.206 196.203 341.434 195.561 341.434 194.791ZM347.498 203.638H345.529V190.477H347.498V191.405C348.273 190.629 349.154 190.241 350.14 190.241C351.313 190.241 352.278 190.673 353.036 191.536C353.806 192.394 354.191 193.476 354.191 194.782C354.191 196.06 353.809 197.125 353.045 197.976C352.287 198.822 351.33 199.245 350.175 199.245C349.178 199.245 348.285 198.845 347.498 198.046V203.638ZM352.179 194.791C352.179 193.975 351.957 193.31 351.514 192.796C351.065 192.277 350.499 192.017 349.816 192.017C349.093 192.017 348.507 192.268 348.058 192.77C347.608 193.272 347.384 193.931 347.384 194.747C347.384 195.547 347.608 196.206 348.058 196.725C348.501 197.232 349.084 197.486 349.808 197.486C350.49 197.486 351.053 197.23 351.496 196.716C351.951 196.203 352.179 195.561 352.179 194.791ZM362.626 184.072L364.254 184.79L356.519 202.693L354.909 201.966L362.626 184.072ZM366.608 185.49L370.125 194.52L373.8 184.834L377.318 194.52L381.054 185.49H383.268L377.23 199.858L373.756 190.285L370.134 199.866L364.394 185.49H366.608ZM391.282 195.202H385.175C385.227 195.902 385.455 196.46 385.857 196.874C386.26 197.282 386.776 197.486 387.406 197.486C387.896 197.486 388.302 197.37 388.622 197.136C388.937 196.903 389.296 196.471 389.699 195.841L391.361 196.769C391.105 197.206 390.833 197.582 390.547 197.897C390.262 198.207 389.955 198.463 389.629 198.667C389.302 198.866 388.949 199.012 388.57 199.105C388.191 199.198 387.78 199.245 387.336 199.245C386.065 199.245 385.044 198.837 384.274 198.02C383.504 197.197 383.119 196.107 383.119 194.747C383.119 193.4 383.492 192.309 384.239 191.475C384.991 190.652 385.989 190.241 387.231 190.241C388.485 190.241 389.477 190.641 390.206 191.44C390.93 192.233 391.291 193.333 391.291 194.739L391.282 195.202ZM389.261 193.592C388.987 192.542 388.325 192.017 387.275 192.017C387.036 192.017 386.811 192.055 386.601 192.131C386.391 192.201 386.199 192.306 386.024 192.446C385.855 192.58 385.709 192.744 385.586 192.936C385.464 193.129 385.37 193.347 385.306 193.592H389.261ZM395.412 184.221V191.466C396.2 190.65 397.092 190.241 398.09 190.241C399.239 190.241 400.196 190.67 400.96 191.527C401.724 192.379 402.106 193.441 402.106 194.712C402.106 196.025 401.721 197.11 400.951 197.967C400.187 198.819 399.222 199.245 398.055 199.245C397.069 199.245 396.188 198.866 395.412 198.107V199H393.444V184.221H395.412ZM400.094 194.8C400.094 193.983 399.872 193.318 399.429 192.805C398.98 192.28 398.417 192.017 397.74 192.017C397.017 192.017 396.427 192.271 395.972 192.779C395.523 193.28 395.299 193.934 395.299 194.739C395.299 195.567 395.52 196.229 395.964 196.725C396.407 197.232 396.99 197.486 397.714 197.486C398.396 197.486 398.962 197.232 399.411 196.725C399.866 196.212 400.094 195.57 400.094 194.8Z" fill="#464646"/>
</g>
<defs>
<filter id="filter0_d_0_1" x="252" y="162" width="197" height="136" filterUnits="userSpaceOnUse" color-interpolation-filters="sRGB">
<feFlood flood-opacity="0" result="BackgroundImageFix"/>
<feColorMatrix in="SourceAlpha" type="matrix" values="0 0 0 0 0 0 0 0 0 0 0 0 0 0 0 0 0 0 127 0" result="hardAlpha"/>
<feOffset dy="4"/>
<feGaussianBlur stdDeviation="2"/>
<feComposite in2="hardAlpha" operator="out"/>
<feColorMatrix type="matrix" values="0 0 0 0 0 0 0 0 0 0 0 0 0 0 0 0 0 0 0.15 0"/>
<feBlend mode="normal" in2="BackgroundImageFix" result="effect1_dropShadow_0_1"/>
<feBlend mode="normal" in="SourceGraphic" in2="effect1_dropShadow_0_1" result="shape"/>
</filter>
<filter id="filter1_d_0_1" x="277.2" y="233.4" width="147" height="40" filterUnits="userSpaceOnUse" color-interpolation-filters="sRGB">
<feFlood flood-opacity="0" result="BackgroundImageFix"/>
<feColorMatrix in="SourceAlpha" type="matrix" values="0 0 0 0 0 0 0 0 0 0 0 0 0 0 0 0 0 0 127 0" result="hardAlpha"/>
<feOffset dy="1"/>
<feGaussianBlur stdDeviation="1.5"/>
<feColorMatrix type="matrix" values="0 0 0 0 0.613948 0 0 0 0 0.613948 0 0 0 0 0.613948 0 0 0 0.5 0"/>
<feBlend mode="normal" in2="BackgroundImageFix" result="effect1_dropShadow_0_1"/>
<feBlend mode="normal" in="SourceGraphic" in2="effect1_dropShadow_0_1" result="shape"/>
</filter>
<clipPath id="clip0_0_1">
<rect width="141" height="34" fill="white" transform="translate(280.2 235.4)"/>
</clipPath>
</defs>
</svg>
