<svg width="386" height="234" viewBox="0 0 386 234" fill="none" xmlns="http://www.w3.org/2000/svg">
<path d="M303.5 78L306.387 73H300.613L303.5 78ZM303 48V73.5H304V48H303Z" fill="#979797"/>
<path d="M202 19.5L197 16.6132L197 22.3868L202 19.5ZM184 20L197.5 20L197.5 19L184 19L184 20Z" fill="#979797"/>
<g filter="url(#filter0_d_0_1)">
<rect x="4" y="2" width="157" height="224" rx="10" fill="white"/>
<path d="M40.9492 67.7324V70.4277C39.6341 69.3275 38.2734 68.7773 36.8672 68.7773C35.3177 68.7773 34.0124 69.334 32.9512 70.4473C31.8835 71.554 31.3496 72.9082 31.3496 74.5098C31.3496 76.0918 31.8835 77.4264 32.9512 78.5137C34.0189 79.6009 35.3275 80.1445 36.877 80.1445C37.6777 80.1445 38.3581 80.0143 38.918 79.7539C39.2305 79.6237 39.5527 79.4479 39.8848 79.2266C40.2233 79.0052 40.5781 78.7383 40.9492 78.4258V81.1699C39.6471 81.9056 38.2799 82.2734 36.8477 82.2734C34.6927 82.2734 32.8535 81.5215 31.3301 80.0176C29.8132 78.5007 29.0547 76.6712 29.0547 74.5293C29.0547 72.6087 29.6895 70.8965 30.959 69.3926C32.5215 67.5501 34.543 66.6289 37.0234 66.6289C38.3776 66.6289 39.6862 66.9967 40.9492 67.7324ZM42.9609 77.1758C42.9609 75.8021 43.4525 74.6335 44.4355 73.6699C45.4186 72.7064 46.6165 72.2246 48.0293 72.2246C49.4486 72.2246 50.653 72.7096 51.6426 73.6797C52.6191 74.6497 53.1074 75.8411 53.1074 77.2539C53.1074 78.6797 52.6159 79.8743 51.6328 80.8379C50.6432 81.7949 49.429 82.2734 47.9902 82.2734C46.5645 82.2734 45.3698 81.7852 44.4062 80.8086C43.4427 79.8451 42.9609 78.6341 42.9609 77.1758ZM45.207 77.2148C45.207 78.1654 45.4609 78.9173 45.9688 79.4707C46.4896 80.0306 47.1764 80.3105 48.0293 80.3105C48.8887 80.3105 49.5755 80.0339 50.0898 79.4805C50.6042 78.9271 50.8613 78.1882 50.8613 77.2637C50.8613 76.3392 50.6042 75.6003 50.0898 75.0469C49.569 74.487 48.8822 74.207 48.0293 74.207C47.1895 74.207 46.5091 74.487 45.9883 75.0469C45.4674 75.6068 45.207 76.3294 45.207 77.2148ZM55.4414 72.4883H57.6387V73.3672C58.0618 72.9245 58.4232 72.625 58.7227 72.4688C59.0417 72.306 59.4421 72.2246 59.9238 72.2246C60.998 72.2246 61.8477 72.6934 62.4727 73.6309C63.1628 72.6934 64.097 72.2246 65.2754 72.2246C67.4173 72.2246 68.4883 73.5234 68.4883 76.1211V82H66.2812V76.7168C66.2812 75.8053 66.1706 75.1608 65.9492 74.7832C65.7214 74.3991 65.347 74.207 64.8262 74.207C64.2207 74.207 63.778 74.4349 63.498 74.8906C63.2246 75.3464 63.0879 76.0788 63.0879 77.0879V82H60.8809V76.7461C60.8809 75.0534 60.3926 74.207 59.416 74.207C58.7975 74.207 58.3451 74.4382 58.0586 74.9004C57.7786 75.3626 57.6387 76.0918 57.6387 77.0879V82H55.4414V72.4883ZM73.7129 87.1758H71.5156V72.4883H73.7129V73.5234C74.5788 72.6576 75.5618 72.2246 76.6621 72.2246C77.9707 72.2246 79.0482 72.7064 79.8945 73.6699C80.7539 74.627 81.1836 75.8346 81.1836 77.293C81.1836 78.7188 80.7572 79.9069 79.9043 80.8574C79.0579 81.8014 77.9902 82.2734 76.7012 82.2734C75.5879 82.2734 74.5918 81.8275 73.7129 80.9355V87.1758ZM78.9375 77.3027C78.9375 76.3913 78.6901 75.6491 78.1953 75.0762C77.694 74.4967 77.0625 74.207 76.3008 74.207C75.4935 74.207 74.8392 74.487 74.3379 75.0469C73.8366 75.6068 73.5859 76.3424 73.5859 77.2539C73.5859 78.1458 73.8366 78.8815 74.3379 79.4609C74.8327 80.0273 75.4837 80.3105 76.291 80.3105C77.0527 80.3105 77.681 80.0241 78.1758 79.4512C78.6836 78.8783 78.9375 78.1621 78.9375 77.3027ZM90.5195 72.4883H92.7266V82H90.5195V81.0039C89.6146 81.8503 88.6413 82.2734 87.5996 82.2734C86.2845 82.2734 85.1973 81.7982 84.3379 80.8477C83.485 79.8776 83.0586 78.6667 83.0586 77.2148C83.0586 75.7891 83.485 74.6009 84.3379 73.6504C85.1908 72.6999 86.2585 72.2246 87.541 72.2246C88.6478 72.2246 89.6406 72.6803 90.5195 73.5918V72.4883ZM85.3047 77.2148C85.3047 78.1263 85.5488 78.8685 86.0371 79.4414C86.5384 80.0208 87.1699 80.3105 87.9316 80.3105C88.7454 80.3105 89.403 80.0306 89.9043 79.4707C90.4056 78.8913 90.6562 78.1556 90.6562 77.2637C90.6562 76.3717 90.4056 75.6361 89.9043 75.0566C89.403 74.4902 88.752 74.207 87.9512 74.207C87.196 74.207 86.5645 74.4935 86.0566 75.0664C85.5553 75.6458 85.3047 76.362 85.3047 77.2148ZM95.5 72.4883H97.707V73.3672C98.4753 72.6055 99.3411 72.2246 100.305 72.2246C101.411 72.2246 102.274 72.5729 102.893 73.2695C103.426 73.862 103.693 74.8288 103.693 76.1699V82H101.486V76.6875C101.486 75.75 101.356 75.1022 101.096 74.7441C100.842 74.3796 100.38 74.1973 99.709 74.1973C98.9798 74.1973 98.4622 74.4382 98.1562 74.9199C97.8568 75.3952 97.707 76.2253 97.707 77.4102V82H95.5V72.4883ZM109.143 80.2324L104.865 72.4883H107.414L110.324 77.957L113.039 72.4883H115.52L107.941 87.1758H105.432L109.143 80.2324ZM132.473 78.3379H126.018L124.338 82H121.887L129.348 65.9746L136.545 82H134.055L132.473 78.3379ZM131.545 76.1992L129.309 71.0723L126.965 76.1992H131.545Z" fill="#666666"/>
<path d="M40.9492 106.732V109.428C39.6341 108.327 38.2734 107.777 36.8672 107.777C35.3177 107.777 34.0124 108.334 32.9512 109.447C31.8835 110.554 31.3496 111.908 31.3496 113.51C31.3496 115.092 31.8835 116.426 32.9512 117.514C34.0189 118.601 35.3275 119.145 36.877 119.145C37.6777 119.145 38.3581 119.014 38.918 118.754C39.2305 118.624 39.5527 118.448 39.8848 118.227C40.2233 118.005 40.5781 117.738 40.9492 117.426V120.17C39.6471 120.906 38.2799 121.273 36.8477 121.273C34.6927 121.273 32.8535 120.521 31.3301 119.018C29.8132 117.501 29.0547 115.671 29.0547 113.529C29.0547 111.609 29.6895 109.896 30.959 108.393C32.5215 106.55 34.543 105.629 37.0234 105.629C38.3776 105.629 39.6862 105.997 40.9492 106.732ZM42.9609 116.176C42.9609 114.802 43.4525 113.633 44.4355 112.67C45.4186 111.706 46.6165 111.225 48.0293 111.225C49.4486 111.225 50.653 111.71 51.6426 112.68C52.6191 113.65 53.1074 114.841 53.1074 116.254C53.1074 117.68 52.6159 118.874 51.6328 119.838C50.6432 120.795 49.429 121.273 47.9902 121.273C46.5645 121.273 45.3698 120.785 44.4062 119.809C43.4427 118.845 42.9609 117.634 42.9609 116.176ZM45.207 116.215C45.207 117.165 45.4609 117.917 45.9688 118.471C46.4896 119.031 47.1764 119.311 48.0293 119.311C48.8887 119.311 49.5755 119.034 50.0898 118.48C50.6042 117.927 50.8613 117.188 50.8613 116.264C50.8613 115.339 50.6042 114.6 50.0898 114.047C49.569 113.487 48.8822 113.207 48.0293 113.207C47.1895 113.207 46.5091 113.487 45.9883 114.047C45.4674 114.607 45.207 115.329 45.207 116.215ZM55.4414 111.488H57.6387V112.367C58.0618 111.924 58.4232 111.625 58.7227 111.469C59.0417 111.306 59.4421 111.225 59.9238 111.225C60.998 111.225 61.8477 111.693 62.4727 112.631C63.1628 111.693 64.097 111.225 65.2754 111.225C67.4173 111.225 68.4883 112.523 68.4883 115.121V121H66.2812V115.717C66.2812 114.805 66.1706 114.161 65.9492 113.783C65.7214 113.399 65.347 113.207 64.8262 113.207C64.2207 113.207 63.778 113.435 63.498 113.891C63.2246 114.346 63.0879 115.079 63.0879 116.088V121H60.8809V115.746C60.8809 114.053 60.3926 113.207 59.416 113.207C58.7975 113.207 58.3451 113.438 58.0586 113.9C57.7786 114.363 57.6387 115.092 57.6387 116.088V121H55.4414V111.488ZM73.7129 126.176H71.5156V111.488H73.7129V112.523C74.5788 111.658 75.5618 111.225 76.6621 111.225C77.9707 111.225 79.0482 111.706 79.8945 112.67C80.7539 113.627 81.1836 114.835 81.1836 116.293C81.1836 117.719 80.7572 118.907 79.9043 119.857C79.0579 120.801 77.9902 121.273 76.7012 121.273C75.5879 121.273 74.5918 120.827 73.7129 119.936V126.176ZM78.9375 116.303C78.9375 115.391 78.6901 114.649 78.1953 114.076C77.694 113.497 77.0625 113.207 76.3008 113.207C75.4935 113.207 74.8392 113.487 74.3379 114.047C73.8366 114.607 73.5859 115.342 73.5859 116.254C73.5859 117.146 73.8366 117.882 74.3379 118.461C74.8327 119.027 75.4837 119.311 76.291 119.311C77.0527 119.311 77.681 119.024 78.1758 118.451C78.6836 117.878 78.9375 117.162 78.9375 116.303ZM90.5195 111.488H92.7266V121H90.5195V120.004C89.6146 120.85 88.6413 121.273 87.5996 121.273C86.2845 121.273 85.1973 120.798 84.3379 119.848C83.485 118.878 83.0586 117.667 83.0586 116.215C83.0586 114.789 83.485 113.601 84.3379 112.65C85.1908 111.7 86.2585 111.225 87.541 111.225C88.6478 111.225 89.6406 111.68 90.5195 112.592V111.488ZM85.3047 116.215C85.3047 117.126 85.5488 117.868 86.0371 118.441C86.5384 119.021 87.1699 119.311 87.9316 119.311C88.7454 119.311 89.403 119.031 89.9043 118.471C90.4056 117.891 90.6562 117.156 90.6562 116.264C90.6562 115.372 90.4056 114.636 89.9043 114.057C89.403 113.49 88.752 113.207 87.9512 113.207C87.196 113.207 86.5645 113.493 86.0566 114.066C85.5553 114.646 85.3047 115.362 85.3047 116.215ZM95.5 111.488H97.707V112.367C98.4753 111.605 99.3411 111.225 100.305 111.225C101.411 111.225 102.274 111.573 102.893 112.27C103.426 112.862 103.693 113.829 103.693 115.17V121H101.486V115.688C101.486 114.75 101.356 114.102 101.096 113.744C100.842 113.38 100.38 113.197 99.709 113.197C98.9798 113.197 98.4622 113.438 98.1562 113.92C97.8568 114.395 97.707 115.225 97.707 116.41V121H95.5V111.488ZM109.143 119.232L104.865 111.488H107.414L110.324 116.957L113.039 111.488H115.52L107.941 126.176H105.432L109.143 119.232ZM123.615 121V105.922H125.881C126.89 105.922 127.694 106 128.293 106.156C128.898 106.312 129.41 106.576 129.826 106.947C130.249 107.331 130.585 107.81 130.832 108.383C131.086 108.962 131.213 109.548 131.213 110.141C131.213 111.221 130.799 112.136 129.973 112.885C130.773 113.158 131.405 113.637 131.867 114.32C132.336 114.997 132.57 115.785 132.57 116.684C132.57 117.862 132.154 118.858 131.32 119.672C130.819 120.173 130.256 120.521 129.631 120.717C128.947 120.906 128.091 121 127.062 121H123.615ZM125.891 112.396H126.604C127.45 112.396 128.068 112.211 128.459 111.84C128.856 111.462 129.055 110.909 129.055 110.18C129.055 109.47 128.853 108.933 128.449 108.568C128.046 108.197 127.46 108.012 126.691 108.012H125.891V112.396ZM125.891 118.861H127.297C128.326 118.861 129.081 118.66 129.562 118.256C130.07 117.82 130.324 117.266 130.324 116.596C130.324 115.945 130.08 115.398 129.592 114.955C129.117 114.519 128.267 114.301 127.043 114.301H125.891V118.861Z" fill="#666666"/>
<path d="M40.9492 145.732V148.428C39.6341 147.327 38.2734 146.777 36.8672 146.777C35.3177 146.777 34.0124 147.334 32.9512 148.447C31.8835 149.554 31.3496 150.908 31.3496 152.51C31.3496 154.092 31.8835 155.426 32.9512 156.514C34.0189 157.601 35.3275 158.145 36.877 158.145C37.6777 158.145 38.3581 158.014 38.918 157.754C39.2305 157.624 39.5527 157.448 39.8848 157.227C40.2233 157.005 40.5781 156.738 40.9492 156.426V159.17C39.6471 159.906 38.2799 160.273 36.8477 160.273C34.6927 160.273 32.8535 159.521 31.3301 158.018C29.8132 156.501 29.0547 154.671 29.0547 152.529C29.0547 150.609 29.6895 148.896 30.959 147.393C32.5215 145.55 34.543 144.629 37.0234 144.629C38.3776 144.629 39.6862 144.997 40.9492 145.732ZM42.9609 155.176C42.9609 153.802 43.4525 152.633 44.4355 151.67C45.4186 150.706 46.6165 150.225 48.0293 150.225C49.4486 150.225 50.653 150.71 51.6426 151.68C52.6191 152.65 53.1074 153.841 53.1074 155.254C53.1074 156.68 52.6159 157.874 51.6328 158.838C50.6432 159.795 49.429 160.273 47.9902 160.273C46.5645 160.273 45.3698 159.785 44.4062 158.809C43.4427 157.845 42.9609 156.634 42.9609 155.176ZM45.207 155.215C45.207 156.165 45.4609 156.917 45.9688 157.471C46.4896 158.031 47.1764 158.311 48.0293 158.311C48.8887 158.311 49.5755 158.034 50.0898 157.48C50.6042 156.927 50.8613 156.188 50.8613 155.264C50.8613 154.339 50.6042 153.6 50.0898 153.047C49.569 152.487 48.8822 152.207 48.0293 152.207C47.1895 152.207 46.5091 152.487 45.9883 153.047C45.4674 153.607 45.207 154.329 45.207 155.215ZM55.4414 150.488H57.6387V151.367C58.0618 150.924 58.4232 150.625 58.7227 150.469C59.0417 150.306 59.4421 150.225 59.9238 150.225C60.998 150.225 61.8477 150.693 62.4727 151.631C63.1628 150.693 64.097 150.225 65.2754 150.225C67.4173 150.225 68.4883 151.523 68.4883 154.121V160H66.2812V154.717C66.2812 153.805 66.1706 153.161 65.9492 152.783C65.7214 152.399 65.347 152.207 64.8262 152.207C64.2207 152.207 63.778 152.435 63.498 152.891C63.2246 153.346 63.0879 154.079 63.0879 155.088V160H60.8809V154.746C60.8809 153.053 60.3926 152.207 59.416 152.207C58.7975 152.207 58.3451 152.438 58.0586 152.9C57.7786 153.363 57.6387 154.092 57.6387 155.088V160H55.4414V150.488ZM73.7129 165.176H71.5156V150.488H73.7129V151.523C74.5788 150.658 75.5618 150.225 76.6621 150.225C77.9707 150.225 79.0482 150.706 79.8945 151.67C80.7539 152.627 81.1836 153.835 81.1836 155.293C81.1836 156.719 80.7572 157.907 79.9043 158.857C79.0579 159.801 77.9902 160.273 76.7012 160.273C75.5879 160.273 74.5918 159.827 73.7129 158.936V165.176ZM78.9375 155.303C78.9375 154.391 78.6901 153.649 78.1953 153.076C77.694 152.497 77.0625 152.207 76.3008 152.207C75.4935 152.207 74.8392 152.487 74.3379 153.047C73.8366 153.607 73.5859 154.342 73.5859 155.254C73.5859 156.146 73.8366 156.882 74.3379 157.461C74.8327 158.027 75.4837 158.311 76.291 158.311C77.0527 158.311 77.681 158.024 78.1758 157.451C78.6836 156.878 78.9375 156.162 78.9375 155.303ZM90.5195 150.488H92.7266V160H90.5195V159.004C89.6146 159.85 88.6413 160.273 87.5996 160.273C86.2845 160.273 85.1973 159.798 84.3379 158.848C83.485 157.878 83.0586 156.667 83.0586 155.215C83.0586 153.789 83.485 152.601 84.3379 151.65C85.1908 150.7 86.2585 150.225 87.541 150.225C88.6478 150.225 89.6406 150.68 90.5195 151.592V150.488ZM85.3047 155.215C85.3047 156.126 85.5488 156.868 86.0371 157.441C86.5384 158.021 87.1699 158.311 87.9316 158.311C88.7454 158.311 89.403 158.031 89.9043 157.471C90.4056 156.891 90.6562 156.156 90.6562 155.264C90.6562 154.372 90.4056 153.636 89.9043 153.057C89.403 152.49 88.752 152.207 87.9512 152.207C87.196 152.207 86.5645 152.493 86.0566 153.066C85.5553 153.646 85.3047 154.362 85.3047 155.215ZM95.5 150.488H97.707V151.367C98.4753 150.605 99.3411 150.225 100.305 150.225C101.411 150.225 102.274 150.573 102.893 151.27C103.426 151.862 103.693 152.829 103.693 154.17V160H101.486V154.688C101.486 153.75 101.356 153.102 101.096 152.744C100.842 152.38 100.38 152.197 99.709 152.197C98.9798 152.197 98.4622 152.438 98.1562 152.92C97.8568 153.395 97.707 154.225 97.707 155.41V160H95.5V150.488ZM109.143 158.232L104.865 150.488H107.414L110.324 155.957L113.039 150.488H115.52L107.941 165.176H105.432L109.143 158.232ZM134.758 145.732V148.428C133.443 147.327 132.082 146.777 130.676 146.777C129.126 146.777 127.821 147.334 126.76 148.447C125.692 149.554 125.158 150.908 125.158 152.51C125.158 154.092 125.692 155.426 126.76 156.514C127.827 157.601 129.136 158.145 130.686 158.145C131.486 158.145 132.167 158.014 132.727 157.754C133.039 157.624 133.361 157.448 133.693 157.227C134.032 157.005 134.387 156.738 134.758 156.426V159.17C133.456 159.906 132.089 160.273 130.656 160.273C128.501 160.273 126.662 159.521 125.139 158.018C123.622 156.501 122.863 154.671 122.863 152.529C122.863 150.609 123.498 148.896 124.768 147.393C126.33 145.55 128.352 144.629 130.832 144.629C132.186 144.629 133.495 144.997 134.758 145.732Z" fill="#666666"/>
<path d="M40.9492 184.732V187.428C39.6341 186.327 38.2734 185.777 36.8672 185.777C35.3177 185.777 34.0124 186.334 32.9512 187.447C31.8835 188.554 31.3496 189.908 31.3496 191.51C31.3496 193.092 31.8835 194.426 32.9512 195.514C34.0189 196.601 35.3275 197.145 36.877 197.145C37.6777 197.145 38.3581 197.014 38.918 196.754C39.2305 196.624 39.5527 196.448 39.8848 196.227C40.2233 196.005 40.5781 195.738 40.9492 195.426V198.17C39.6471 198.906 38.2799 199.273 36.8477 199.273C34.6927 199.273 32.8535 198.521 31.3301 197.018C29.8132 195.501 29.0547 193.671 29.0547 191.529C29.0547 189.609 29.6895 187.896 30.959 186.393C32.5215 184.55 34.543 183.629 37.0234 183.629C38.3776 183.629 39.6862 183.997 40.9492 184.732ZM42.9609 194.176C42.9609 192.802 43.4525 191.633 44.4355 190.67C45.4186 189.706 46.6165 189.225 48.0293 189.225C49.4486 189.225 50.653 189.71 51.6426 190.68C52.6191 191.65 53.1074 192.841 53.1074 194.254C53.1074 195.68 52.6159 196.874 51.6328 197.838C50.6432 198.795 49.429 199.273 47.9902 199.273C46.5645 199.273 45.3698 198.785 44.4062 197.809C43.4427 196.845 42.9609 195.634 42.9609 194.176ZM45.207 194.215C45.207 195.165 45.4609 195.917 45.9688 196.471C46.4896 197.031 47.1764 197.311 48.0293 197.311C48.8887 197.311 49.5755 197.034 50.0898 196.48C50.6042 195.927 50.8613 195.188 50.8613 194.264C50.8613 193.339 50.6042 192.6 50.0898 192.047C49.569 191.487 48.8822 191.207 48.0293 191.207C47.1895 191.207 46.5091 191.487 45.9883 192.047C45.4674 192.607 45.207 193.329 45.207 194.215ZM55.4414 189.488H57.6387V190.367C58.0618 189.924 58.4232 189.625 58.7227 189.469C59.0417 189.306 59.4421 189.225 59.9238 189.225C60.998 189.225 61.8477 189.693 62.4727 190.631C63.1628 189.693 64.097 189.225 65.2754 189.225C67.4173 189.225 68.4883 190.523 68.4883 193.121V199H66.2812V193.717C66.2812 192.805 66.1706 192.161 65.9492 191.783C65.7214 191.399 65.347 191.207 64.8262 191.207C64.2207 191.207 63.778 191.435 63.498 191.891C63.2246 192.346 63.0879 193.079 63.0879 194.088V199H60.8809V193.746C60.8809 192.053 60.3926 191.207 59.416 191.207C58.7975 191.207 58.3451 191.438 58.0586 191.9C57.7786 192.363 57.6387 193.092 57.6387 194.088V199H55.4414V189.488ZM73.7129 204.176H71.5156V189.488H73.7129V190.523C74.5788 189.658 75.5618 189.225 76.6621 189.225C77.9707 189.225 79.0482 189.706 79.8945 190.67C80.7539 191.627 81.1836 192.835 81.1836 194.293C81.1836 195.719 80.7572 196.907 79.9043 197.857C79.0579 198.801 77.9902 199.273 76.7012 199.273C75.5879 199.273 74.5918 198.827 73.7129 197.936V204.176ZM78.9375 194.303C78.9375 193.391 78.6901 192.649 78.1953 192.076C77.694 191.497 77.0625 191.207 76.3008 191.207C75.4935 191.207 74.8392 191.487 74.3379 192.047C73.8366 192.607 73.5859 193.342 73.5859 194.254C73.5859 195.146 73.8366 195.882 74.3379 196.461C74.8327 197.027 75.4837 197.311 76.291 197.311C77.0527 197.311 77.681 197.024 78.1758 196.451C78.6836 195.878 78.9375 195.162 78.9375 194.303ZM90.5195 189.488H92.7266V199H90.5195V198.004C89.6146 198.85 88.6413 199.273 87.5996 199.273C86.2845 199.273 85.1973 198.798 84.3379 197.848C83.485 196.878 83.0586 195.667 83.0586 194.215C83.0586 192.789 83.485 191.601 84.3379 190.65C85.1908 189.7 86.2585 189.225 87.541 189.225C88.6478 189.225 89.6406 189.68 90.5195 190.592V189.488ZM85.3047 194.215C85.3047 195.126 85.5488 195.868 86.0371 196.441C86.5384 197.021 87.1699 197.311 87.9316 197.311C88.7454 197.311 89.403 197.031 89.9043 196.471C90.4056 195.891 90.6562 195.156 90.6562 194.264C90.6562 193.372 90.4056 192.636 89.9043 192.057C89.403 191.49 88.752 191.207 87.9512 191.207C87.196 191.207 86.5645 191.493 86.0566 192.066C85.5553 192.646 85.3047 193.362 85.3047 194.215ZM95.5 189.488H97.707V190.367C98.4753 189.605 99.3411 189.225 100.305 189.225C101.411 189.225 102.274 189.573 102.893 190.27C103.426 190.862 103.693 191.829 103.693 193.17V199H101.486V193.688C101.486 192.75 101.356 192.102 101.096 191.744C100.842 191.38 100.38 191.197 99.709 191.197C98.9798 191.197 98.4622 191.438 98.1562 191.92C97.8568 192.395 97.707 193.225 97.707 194.41V199H95.5V189.488ZM109.143 197.232L104.865 189.488H107.414L110.324 194.957L113.039 189.488H115.52L107.941 204.176H105.432L109.143 197.232ZM123.615 199V183.922H126.779C128.296 183.922 129.494 184.072 130.373 184.371C131.317 184.664 132.173 185.162 132.941 185.865C134.497 187.285 135.275 189.15 135.275 191.461C135.275 193.779 134.465 195.654 132.844 197.086C132.03 197.802 131.177 198.3 130.285 198.58C129.452 198.86 128.27 199 126.74 199H123.615ZM125.891 196.861H126.916C127.938 196.861 128.788 196.754 129.465 196.539C130.142 196.311 130.754 195.95 131.301 195.455C132.421 194.433 132.98 193.102 132.98 191.461C132.98 189.807 132.427 188.466 131.32 187.438C130.324 186.52 128.856 186.061 126.916 186.061H125.891V196.861Z" fill="#666666"/>
</g>
<g filter="url(#filter1_d_0_1)">
<rect x="225" y="90" width="157" height="136" rx="10" fill="white"/>
</g>
<g clip-path="url(#clip0_0_1)" filter="url(#filter2_d_0_1)">
<rect x="12" y="12" width="141" height="34" rx="6.44" fill="black"/>
<path d="M74.6411 35H72.1628L72.1788 33.4142H74.6411C75.3583 33.4142 75.9586 33.2575 76.442 32.9441C76.9308 32.6306 77.2973 32.1817 77.5417 31.5973C77.7914 31.013 77.9163 30.317 77.9163 29.5095V28.88C77.9163 28.2531 77.8445 27.698 77.7011 27.2145C77.563 26.7311 77.3558 26.3247 77.0795 25.9953C76.8086 25.6659 76.4739 25.4163 76.0755 25.2463C75.6823 25.0763 75.2281 24.9913 74.7128 24.9913H72.115V23.3975H74.7128C75.4831 23.3975 76.187 23.5277 76.8245 23.788C77.462 24.043 78.0119 24.4122 78.4741 24.8956C78.9416 25.3791 79.3002 25.9581 79.5498 26.6328C79.7995 27.3075 79.9244 28.0619 79.9244 28.8959V29.5095C79.9244 30.3436 79.7995 31.098 79.5498 31.7727C79.3002 32.4473 78.9416 33.0264 78.4741 33.5098C78.0066 33.988 77.4488 34.3572 76.8006 34.6175C76.1578 34.8725 75.438 35 74.6411 35ZM73.2705 23.3975V35H71.2703V23.3975H73.2705ZM86.6022 33.2708V29.1589C86.6022 28.8508 86.5464 28.5852 86.4348 28.362C86.3233 28.1389 86.1533 27.9663 85.9248 27.8441C85.7017 27.7219 85.4202 27.6608 85.0802 27.6608C84.7667 27.6608 84.4958 27.7139 84.2673 27.8202C84.0389 27.9264 83.8609 28.0698 83.7334 28.2505C83.6059 28.4311 83.5422 28.6356 83.5422 28.8641H81.6297C81.6297 28.5241 81.712 28.1947 81.8767 27.8759C82.0414 27.5572 82.2805 27.273 82.5939 27.0233C82.9073 26.7736 83.2819 26.577 83.7175 26.4336C84.1531 26.2902 84.6419 26.2184 85.1838 26.2184C85.8319 26.2184 86.4056 26.3273 86.905 26.5452C87.4097 26.763 87.8055 27.0923 88.0923 27.5333C88.3845 27.9689 88.5306 28.5161 88.5306 29.1748V33.0078C88.5306 33.4009 88.5572 33.7542 88.6103 34.0677C88.6688 34.3758 88.7511 34.6441 88.8573 34.8725V35H86.8891C86.7988 34.7928 86.727 34.5298 86.6739 34.2111C86.6261 33.887 86.6022 33.5736 86.6022 33.2708ZM86.8811 29.7566L86.897 30.9439H85.5184C85.1625 30.9439 84.8491 30.9784 84.5781 31.0475C84.3072 31.1113 84.0814 31.2069 83.9008 31.3344C83.7202 31.4619 83.5847 31.6159 83.4944 31.7966C83.4041 31.9772 83.3589 32.1817 83.3589 32.4102C83.3589 32.6386 83.412 32.8484 83.5183 33.0397C83.6245 33.2256 83.7786 33.3717 83.9805 33.478C84.1877 33.5842 84.4373 33.6373 84.7295 33.6373C85.1227 33.6373 85.4653 33.5577 85.7575 33.3983C86.055 33.2336 86.2888 33.0344 86.4588 32.8006C86.6288 32.5616 86.7191 32.3358 86.7297 32.1233L87.3513 32.9759C87.2875 33.1938 87.1786 33.4275 87.0245 33.6772C86.8705 33.9269 86.6686 34.1659 86.4189 34.3944C86.1745 34.6175 85.8797 34.8008 85.5344 34.9442C85.1944 35.0877 84.8013 35.1594 84.355 35.1594C83.7919 35.1594 83.2898 35.0478 82.8489 34.8247C82.408 34.5963 82.0627 34.2908 81.813 33.9083C81.5633 33.5205 81.4384 33.0822 81.4384 32.5934C81.4384 32.1366 81.5234 31.7328 81.6934 31.3822C81.8688 31.0263 82.1238 30.7288 82.4584 30.4897C82.7984 30.2506 83.2128 30.07 83.7016 29.9478C84.1903 29.8203 84.7481 29.7566 85.375 29.7566H86.8811ZM94.4912 26.3778V27.7803H89.6303V26.3778H94.4912ZM91.0328 24.2661H92.9533V32.6173C92.9533 32.883 92.9905 33.0875 93.0648 33.2309C93.1445 33.3691 93.2534 33.462 93.3916 33.5098C93.5297 33.5577 93.6917 33.5816 93.8777 33.5816C94.0105 33.5816 94.138 33.5736 94.2602 33.5577C94.3823 33.5417 94.4806 33.5258 94.555 33.5098L94.563 34.9761C94.4036 35.0239 94.2177 35.0664 94.0052 35.1036C93.798 35.1408 93.5589 35.1594 93.288 35.1594C92.847 35.1594 92.4566 35.0823 92.1166 34.9283C91.7766 34.7689 91.5109 34.5113 91.3197 34.1553C91.1284 33.7994 91.0328 33.3266 91.0328 32.7369V24.2661ZM100.834 33.2708V29.1589C100.834 28.8508 100.779 28.5852 100.667 28.362C100.555 28.1389 100.385 27.9663 100.157 27.8441C99.9339 27.7219 99.6523 27.6608 99.3123 27.6608C98.9989 27.6608 98.728 27.7139 98.4995 27.8202C98.2711 27.9264 98.0931 28.0698 97.9656 28.2505C97.8381 28.4311 97.7744 28.6356 97.7744 28.8641H95.8619C95.8619 28.5241 95.9442 28.1947 96.1089 27.8759C96.2736 27.5572 96.5127 27.273 96.8261 27.0233C97.1395 26.7736 97.5141 26.577 97.9497 26.4336C98.3853 26.2902 98.8741 26.2184 99.4159 26.2184C100.064 26.2184 100.638 26.3273 101.137 26.5452C101.642 26.763 102.038 27.0923 102.325 27.5333C102.617 27.9689 102.763 28.5161 102.763 29.1748V33.0078C102.763 33.4009 102.789 33.7542 102.843 34.0677C102.901 34.3758 102.983 34.6441 103.09 34.8725V35H101.121C101.031 34.7928 100.959 34.5298 100.906 34.2111C100.858 33.887 100.834 33.5736 100.834 33.2708ZM101.113 29.7566L101.129 30.9439H99.7506C99.3947 30.9439 99.0813 30.9784 98.8103 31.0475C98.5394 31.1113 98.3136 31.2069 98.133 31.3344C97.9523 31.4619 97.8169 31.6159 97.7266 31.7966C97.6363 31.9772 97.5911 32.1817 97.5911 32.4102C97.5911 32.6386 97.6442 32.8484 97.7505 33.0397C97.8567 33.2256 98.0108 33.3717 98.2127 33.478C98.4198 33.5842 98.6695 33.6373 98.9617 33.6373C99.3548 33.6373 99.6975 33.5577 99.9897 33.3983C100.287 33.2336 100.521 33.0344 100.691 32.8006C100.861 32.5616 100.951 32.3358 100.962 32.1233L101.583 32.9759C101.52 33.1938 101.411 33.4275 101.257 33.6772C101.103 33.9269 100.901 34.1659 100.651 34.3944C100.407 34.6175 100.112 34.8008 99.7666 34.9442C99.4266 35.0877 99.0334 35.1594 98.5872 35.1594C98.0241 35.1594 97.522 35.0478 97.0811 34.8247C96.6402 34.5963 96.2948 34.2908 96.0452 33.9083C95.7955 33.5205 95.6706 33.0822 95.6706 32.5934C95.6706 32.1366 95.7556 31.7328 95.9256 31.3822C96.1009 31.0263 96.3559 30.7288 96.6906 30.4897C97.0306 30.2506 97.445 30.07 97.9338 29.9478C98.4225 29.8203 98.9803 29.7566 99.6072 29.7566H101.113ZM104.779 22.76H106.699V33.1592L106.516 35H104.779V22.76ZM112.325 30.6092V30.7766C112.325 31.4141 112.254 32.0011 112.11 32.5377C111.972 33.0689 111.76 33.5311 111.473 33.9242C111.191 34.3173 110.84 34.6228 110.421 34.8406C110.006 35.0531 109.526 35.1594 108.978 35.1594C108.442 35.1594 107.974 35.0584 107.576 34.8566C107.178 34.6547 106.843 34.3678 106.572 33.9959C106.306 33.6241 106.091 33.1805 105.926 32.6652C105.762 32.1498 105.645 31.5814 105.576 30.9598V30.4259C105.645 29.7991 105.762 29.2306 105.926 28.7206C106.091 28.2053 106.306 27.7617 106.572 27.3898C106.843 27.0127 107.175 26.7231 107.568 26.5213C107.966 26.3194 108.431 26.2184 108.963 26.2184C109.515 26.2184 110.001 26.3247 110.421 26.5372C110.846 26.7497 111.199 27.0525 111.481 27.4456C111.762 27.8334 111.972 28.2956 112.11 28.8322C112.254 29.3688 112.325 29.9611 112.325 30.6092ZM110.405 30.7766V30.6092C110.405 30.2214 110.373 29.8575 110.309 29.5175C110.245 29.1722 110.139 28.8694 109.99 28.6091C109.847 28.3488 109.65 28.1442 109.401 27.9955C109.156 27.8414 108.851 27.7644 108.484 27.7644C108.144 27.7644 107.852 27.8228 107.608 27.9397C107.363 28.0566 107.159 28.2159 106.994 28.4178C106.83 28.6197 106.699 28.8534 106.604 29.1191C106.513 29.3847 106.452 29.6716 106.42 29.9797V31.422C106.468 31.8205 106.569 32.187 106.723 32.5217C106.883 32.8511 107.106 33.1167 107.393 33.3186C107.68 33.5152 108.049 33.6134 108.5 33.6134C108.856 33.6134 109.156 33.5417 109.401 33.3983C109.645 33.2548 109.839 33.0556 109.983 32.8006C110.131 32.5403 110.238 32.2375 110.301 31.8922C110.37 31.5469 110.405 31.175 110.405 30.7766ZM118.812 33.2708V29.1589C118.812 28.8508 118.756 28.5852 118.645 28.362C118.533 28.1389 118.363 27.9663 118.135 27.8441C117.911 27.7219 117.63 27.6608 117.29 27.6608C116.976 27.6608 116.705 27.7139 116.477 27.8202C116.249 27.9264 116.071 28.0698 115.943 28.2505C115.816 28.4311 115.752 28.6356 115.752 28.8641H113.839C113.839 28.5241 113.922 28.1947 114.086 27.8759C114.251 27.5572 114.49 27.273 114.804 27.0233C115.117 26.7736 115.492 26.577 115.927 26.4336C116.363 26.2902 116.852 26.2184 117.393 26.2184C118.042 26.2184 118.615 26.3273 119.115 26.5452C119.619 26.763 120.015 27.0923 120.302 27.5333C120.594 27.9689 120.74 28.5161 120.74 29.1748V33.0078C120.74 33.4009 120.767 33.7542 120.82 34.0677C120.878 34.3758 120.961 34.6441 121.067 34.8725V35H119.099C119.008 34.7928 118.937 34.5298 118.884 34.2111C118.836 33.887 118.812 33.5736 118.812 33.2708ZM119.091 29.7566L119.107 30.9439H117.728C117.372 30.9439 117.059 30.9784 116.788 31.0475C116.517 31.1113 116.291 31.2069 116.11 31.3344C115.93 31.4619 115.794 31.6159 115.704 31.7966C115.614 31.9772 115.569 32.1817 115.569 32.4102C115.569 32.6386 115.622 32.8484 115.728 33.0397C115.834 33.2256 115.988 33.3717 116.19 33.478C116.397 33.5842 116.647 33.6373 116.939 33.6373C117.332 33.6373 117.675 33.5577 117.967 33.3983C118.265 33.2336 118.498 33.0344 118.668 32.8006C118.838 32.5616 118.929 32.3358 118.939 32.1233L119.561 32.9759C119.497 33.1938 119.388 33.4275 119.234 33.6772C119.08 33.9269 118.878 34.1659 118.629 34.3944C118.384 34.6175 118.089 34.8008 117.744 34.9442C117.404 35.0877 117.011 35.1594 116.565 35.1594C116.002 35.1594 115.5 35.0478 115.059 34.8247C114.618 34.5963 114.272 34.2908 114.023 33.9083C113.773 33.5205 113.648 33.0822 113.648 32.5934C113.648 32.1366 113.733 31.7328 113.903 31.3822C114.078 31.0263 114.333 30.7288 114.668 30.4897C115.008 30.2506 115.423 30.07 115.911 29.9478C116.4 29.8203 116.958 29.7566 117.585 29.7566H119.091ZM127.585 32.6652C127.585 32.4739 127.538 32.3013 127.442 32.1472C127.346 31.9878 127.163 31.8444 126.892 31.7169C126.627 31.5894 126.233 31.4725 125.713 31.3663C125.256 31.2653 124.836 31.1458 124.454 31.0077C124.077 30.8642 123.752 30.6916 123.482 30.4897C123.211 30.2878 123.001 30.0488 122.852 29.7725C122.703 29.4963 122.629 29.1775 122.629 28.8163C122.629 28.4656 122.706 28.1336 122.86 27.8202C123.014 27.5067 123.235 27.2305 123.521 26.9914C123.808 26.7523 124.156 26.5638 124.565 26.4256C124.98 26.2875 125.442 26.2184 125.952 26.2184C126.674 26.2184 127.293 26.3406 127.809 26.585C128.329 26.8241 128.728 27.1508 129.004 27.5652C129.28 27.9742 129.418 28.4364 129.418 28.9517H127.498C127.498 28.7233 127.439 28.5108 127.322 28.3142C127.211 28.1123 127.041 27.9503 126.812 27.8281C126.584 27.7006 126.297 27.6369 125.952 27.6369C125.622 27.6369 125.349 27.69 125.131 27.7963C124.919 27.8972 124.759 28.03 124.653 28.1947C124.552 28.3594 124.502 28.54 124.502 28.7366C124.502 28.88 124.528 29.0102 124.581 29.127C124.64 29.2386 124.735 29.3422 124.868 29.4378C125.001 29.5281 125.182 29.6131 125.41 29.6928C125.644 29.7725 125.936 29.8495 126.287 29.9239C126.945 30.062 127.511 30.24 127.984 30.4578C128.462 30.6703 128.829 30.9466 129.084 31.2866C129.339 31.6213 129.466 32.0463 129.466 32.5616C129.466 32.9441 129.384 33.2947 129.219 33.6134C129.06 33.9269 128.826 34.2005 128.518 34.4342C128.21 34.6627 127.84 34.8406 127.41 34.9681C126.985 35.0956 126.507 35.1594 125.976 35.1594C125.195 35.1594 124.533 35.0212 123.992 34.745C123.45 34.4634 123.038 34.1048 122.756 33.6692C122.48 33.2283 122.342 32.7714 122.342 32.2986H124.199C124.22 32.6545 124.318 32.9388 124.494 33.1513C124.674 33.3584 124.897 33.5098 125.163 33.6055C125.434 33.6958 125.713 33.7409 126 33.7409C126.345 33.7409 126.635 33.6958 126.868 33.6055C127.102 33.5098 127.28 33.3823 127.402 33.223C127.524 33.0583 127.585 32.8723 127.585 32.6652ZM134.949 35.1594C134.311 35.1594 133.735 35.0558 133.219 34.8486C132.709 34.6361 132.274 34.3413 131.913 33.9641C131.557 33.5869 131.283 33.1433 131.092 32.6333C130.9 32.1233 130.805 31.5734 130.805 30.9838V30.665C130.805 29.9903 130.903 29.3794 131.1 28.8322C131.296 28.285 131.57 27.8175 131.92 27.4297C132.271 27.0366 132.685 26.7364 133.164 26.5292C133.642 26.322 134.16 26.2184 134.718 26.2184C135.334 26.2184 135.873 26.322 136.335 26.5292C136.797 26.7364 137.18 27.0286 137.483 27.4058C137.791 27.7777 138.019 28.2213 138.168 28.7366C138.322 29.2519 138.399 29.8203 138.399 30.4419V31.2627H131.737V29.8841H136.503V29.7327C136.492 29.3873 136.423 29.0633 136.295 28.7605C136.173 28.4577 135.985 28.2133 135.73 28.0273C135.475 27.8414 135.135 27.7484 134.71 27.7484C134.391 27.7484 134.107 27.8175 133.857 27.9556C133.613 28.0884 133.408 28.2823 133.243 28.5373C133.079 28.7923 132.951 29.1005 132.861 29.4617C132.776 29.8177 132.733 30.2188 132.733 30.665V30.9838C132.733 31.3609 132.784 31.7116 132.885 32.0356C132.991 32.3544 133.145 32.6333 133.347 32.8723C133.549 33.1114 133.793 33.3 134.08 33.4381C134.367 33.5709 134.694 33.6373 135.06 33.6373C135.522 33.6373 135.934 33.5444 136.295 33.3584C136.657 33.1725 136.97 32.9095 137.236 32.5695L138.248 33.5497C138.062 33.8206 137.82 34.0809 137.523 34.3306C137.225 34.575 136.861 34.7742 136.431 34.9283C136.006 35.0823 135.512 35.1594 134.949 35.1594Z" fill="white"/>
<path fill-rule="evenodd" clip-rule="evenodd" d="M41.4064 25.4302H38.7397C38.644 25.4302 38.5666 25.5083 38.5666 25.6048V26.9996C38.5666 27.073 38.6085 27.1399 38.6741 27.1718L41.3089 28.4412C41.4343 28.5018 41.5795 28.4094 41.5795 28.269V25.6048C41.5795 25.5083 41.5019 25.4302 41.4064 25.4302V25.4302Z" fill="white"/>
<path fill-rule="evenodd" clip-rule="evenodd" d="M57.0876 25.6041C57.0871 25.5078 57.0097 25.4302 56.9145 25.4302H48.0259C47.9302 25.4302 47.8528 25.5083 47.8528 25.6048V28.1067C47.8528 28.2033 47.9304 28.2814 48.0259 28.2814H50.9631V36.9978C50.9631 37.0944 51.0408 37.1725 51.1363 37.1725H53.8029C53.8986 37.1725 53.976 37.0941 53.976 36.9978V28.3439L56.9164 28.3488C57.0157 28.3488 57.0965 28.2675 57.096 28.1671L57.0871 25.6039L57.0876 25.6041Z" fill="white"/>
<path fill-rule="evenodd" clip-rule="evenodd" d="M49.5797 34.5862H46.314V25.6048C46.314 25.5083 46.2364 25.4302 46.1409 25.4302H43.4569C43.3612 25.4302 43.2838 25.5085 43.2838 25.6048V36.9978C43.2838 37.0944 43.3614 37.1725 43.4569 37.1725H49.7439C49.7468 37.1705 49.7502 37.1674 49.7531 37.1642V34.7609C49.7531 34.6643 49.6754 34.5862 49.5799 34.5862H49.5797Z" fill="white"/>
<path fill-rule="evenodd" clip-rule="evenodd" d="M41.472 31.4829L38.8372 30.2135C38.7118 30.1529 38.5666 30.2453 38.5666 30.3857V36.9978C38.5666 37.0943 38.6442 37.1724 38.7397 37.1724H41.4064C41.5021 37.1724 41.5795 37.0941 41.5795 36.9978V31.6549C41.5795 31.5814 41.5376 31.5145 41.472 31.4827V31.4829Z" fill="white"/>
<path fill-rule="evenodd" clip-rule="evenodd" d="M34.182 30.167C33.3148 29.8272 32.6883 29.5817 32.6883 29.0421C32.6883 28.5025 33.1523 28.1388 33.8432 28.1388L33.8663 28.1398C34.4203 28.1875 35.0448 28.4257 36.001 28.8713C36.0893 28.9125 36.1942 28.8723 36.2327 28.7825L37.1573 26.6342C37.1937 26.5497 37.1588 26.451 37.0777 26.4091C35.7536 25.726 34.7188 25.4302 33.6703 25.4302C31.1804 25.4302 29.5715 26.848 29.5715 29.0421C29.5715 31.3494 31.5371 32.0739 32.9724 32.6027C33.8499 32.9263 34.4839 33.1598 34.4839 33.7045C34.4839 34.0215 34.3778 34.2882 34.1769 34.4757C33.9476 34.6901 33.6158 34.7869 33.2174 34.7562C32.4192 34.6944 31.7642 34.5178 30.893 34.1215C30.8042 34.0811 30.6996 34.1232 30.6622 34.2137L29.843 36.2023C29.808 36.2869 29.8437 36.3855 29.9252 36.4258C30.9853 36.9513 32.0138 37.1691 33.406 37.1691C36.0188 37.1691 37.5788 35.9232 37.5788 33.8364C37.5788 31.4983 35.6154 30.7288 34.182 30.167V30.167Z" fill="white"/>
<path fill-rule="evenodd" clip-rule="evenodd" d="M60.8461 23.3132C59.4628 21.7799 57.5836 20.8304 55.5538 20.6384L33.216 20.6001C28.6859 20.6001 25 24.3325 25 28.9203C25 31.9316 26.5883 34.5738 28.9608 36.0344C29.0279 36.0759 29.1163 36.0459 29.1469 35.9726L30.0513 33.8053C30.0753 33.7477 30.0557 33.6814 30.0048 33.6461C30.0046 33.6461 30.0043 33.6456 30.0038 33.6456C28.4669 32.571 27.5496 30.8045 27.5496 28.9205C27.5496 25.7564 30.0918 23.1822 33.2165 23.1822H54.8567C57.8823 23.1822 60.408 25.6166 60.4499 28.6801C60.4709 30.2235 59.8891 31.703 58.817 32.8382C57.8193 33.8943 56.522 34.5137 55.1394 34.6037C55.043 34.6101 54.9671 34.689 54.9671 34.7869V37.0079C54.9671 37.1122 55.0529 37.1968 55.1558 37.1914C57.1852 37.0827 59.0944 36.2056 60.5683 34.6935C62.1365 33.0844 63 30.9777 63 28.7616C63 26.685 62.2351 24.8525 60.8461 23.3132Z" fill="#0088FF"/>
</g>
<g clip-path="url(#clip1_0_1)" filter="url(#filter3_d_0_1)">
<rect x="225" y="2" width="157" height="34" rx="6.44" fill="#3366FF"/>
<path d="M243.24 13.3577V25H241.32V15.6367L238.475 16.6009V15.0152L243.009 13.3577H243.24ZM254.97 23.6294C255.284 23.6294 255.565 23.5683 255.815 23.4461C256.07 23.3186 256.275 23.1433 256.429 22.9202C256.588 22.697 256.676 22.4394 256.692 22.1472H258.5C258.49 22.705 258.325 23.2123 258.006 23.6692C257.688 24.1261 257.265 24.49 256.739 24.7609C256.213 25.0266 255.632 25.1594 254.994 25.1594C254.335 25.1594 253.762 25.0478 253.273 24.8247C252.784 24.5963 252.378 24.2828 252.054 23.8844C251.73 23.4859 251.485 23.0264 251.321 22.5058C251.161 21.9852 251.082 21.4273 251.082 20.8323V20.5534C251.082 19.9584 251.161 19.4006 251.321 18.88C251.485 18.3541 251.73 17.8919 252.054 17.4934C252.378 17.095 252.784 16.7842 253.273 16.5611C253.762 16.3327 254.333 16.2184 254.986 16.2184C255.677 16.2184 256.283 16.3566 256.803 16.6328C257.324 16.9038 257.733 17.2836 258.03 17.7723C258.333 18.2558 258.49 18.8189 258.5 19.4617H256.692C256.676 19.143 256.596 18.8561 256.453 18.6011C256.314 18.3408 256.118 18.1336 255.863 17.9795C255.613 17.8255 255.313 17.7484 254.962 17.7484C254.575 17.7484 254.253 17.8281 253.998 17.9875C253.743 18.1416 253.544 18.3541 253.4 18.625C253.257 18.8906 253.153 19.1908 253.09 19.5255C253.031 19.8548 253.002 20.1975 253.002 20.5534V20.8323C253.002 21.1883 253.031 21.5336 253.09 21.8683C253.148 22.203 253.249 22.5031 253.393 22.7688C253.541 23.0291 253.743 23.2389 253.998 23.3983C254.253 23.5523 254.577 23.6294 254.97 23.6294ZM262.031 12.76V25H260.102V12.76H262.031ZM266.19 16.3778V25H264.262V16.3778H266.19ZM264.134 14.1147C264.134 13.8225 264.23 13.5808 264.421 13.3895C264.618 13.193 264.889 13.0947 265.234 13.0947C265.574 13.0947 265.842 13.193 266.039 13.3895C266.235 13.5808 266.334 13.8225 266.334 14.1147C266.334 14.4016 266.235 14.6406 266.039 14.8319C265.842 15.0231 265.574 15.1188 265.234 15.1188C264.889 15.1188 264.618 15.0231 264.421 14.8319C264.23 14.6406 264.134 14.4016 264.134 14.1147ZM271.816 23.6294C272.13 23.6294 272.411 23.5683 272.661 23.4461C272.916 23.3186 273.12 23.1433 273.275 22.9202C273.434 22.697 273.522 22.4394 273.538 22.1472H275.346C275.336 22.705 275.171 23.2123 274.852 23.6692C274.534 24.1261 274.111 24.49 273.585 24.7609C273.059 25.0266 272.478 25.1594 271.84 25.1594C271.181 25.1594 270.608 25.0478 270.119 24.8247C269.63 24.5963 269.224 24.2828 268.9 23.8844C268.576 23.4859 268.331 23.0264 268.167 22.5058C268.007 21.9852 267.928 21.4273 267.928 20.8323V20.5534C267.928 19.9584 268.007 19.4006 268.167 18.88C268.331 18.3541 268.576 17.8919 268.9 17.4934C269.224 17.095 269.63 16.7842 270.119 16.5611C270.608 16.3327 271.179 16.2184 271.832 16.2184C272.523 16.2184 273.128 16.3566 273.649 16.6328C274.17 16.9038 274.579 17.2836 274.876 17.7723C275.179 18.2558 275.336 18.8189 275.346 19.4617H273.538C273.522 19.143 273.442 18.8561 273.298 18.6011C273.16 18.3408 272.964 18.1336 272.709 17.9795C272.459 17.8255 272.159 17.7484 271.808 17.7484C271.42 17.7484 271.099 17.8281 270.844 17.9875C270.589 18.1416 270.39 18.3541 270.246 18.625C270.103 18.8906 269.999 19.1908 269.936 19.5255C269.877 19.8548 269.848 20.1975 269.848 20.5534V20.8323C269.848 21.1883 269.877 21.5336 269.936 21.8683C269.994 22.203 270.095 22.5031 270.238 22.7688C270.387 23.0291 270.589 23.2389 270.844 23.3983C271.099 23.5523 271.423 23.6294 271.816 23.6294ZM278.757 12.76V25H276.829V12.76H278.757ZM284.112 16.3778L280.359 20.5375L278.303 22.6413L277.801 21.0156L279.355 19.0952L281.793 16.3778H284.112ZM282.208 25L279.41 20.9519L280.622 19.6052L284.431 25H282.208ZM292.2 23.478L294.312 16.3778H296.304L293.308 25H292.065L292.2 23.478ZM290.583 16.3778L292.734 23.5098L292.838 25H291.595L288.583 16.3778H290.583ZM301.181 25.1594C300.544 25.1594 299.967 25.0558 299.452 24.8486C298.942 24.6361 298.506 24.3413 298.145 23.9641C297.789 23.5869 297.515 23.1433 297.324 22.6333C297.133 22.1233 297.037 21.5734 297.037 20.9838V20.665C297.037 19.9903 297.136 19.3794 297.332 18.8322C297.529 18.285 297.802 17.8175 298.153 17.4297C298.504 17.0366 298.918 16.7364 299.396 16.5292C299.874 16.322 300.392 16.2184 300.95 16.2184C301.566 16.2184 302.105 16.322 302.568 16.5292C303.03 16.7364 303.412 17.0286 303.715 17.4058C304.023 17.7777 304.252 18.2213 304.4 18.7366C304.555 19.2519 304.632 19.8203 304.632 20.4419V21.2627H297.97V19.8841H302.735V19.7327C302.724 19.3873 302.655 19.0633 302.528 18.7605C302.406 18.4577 302.217 18.2133 301.962 18.0273C301.707 17.8414 301.367 17.7484 300.942 17.7484C300.623 17.7484 300.339 17.8175 300.089 17.9556C299.845 18.0884 299.64 18.2823 299.476 18.5373C299.311 18.7923 299.184 19.1005 299.093 19.4617C299.008 19.8177 298.966 20.2188 298.966 20.665V20.9838C298.966 21.3609 299.016 21.7116 299.117 22.0356C299.223 22.3544 299.378 22.6333 299.579 22.8723C299.781 23.1114 300.026 23.3 300.313 23.4381C300.599 23.5709 300.926 23.6373 301.293 23.6373C301.755 23.6373 302.167 23.5444 302.528 23.3584C302.889 23.1725 303.203 22.9095 303.468 22.5695L304.48 23.5497C304.294 23.8206 304.053 24.0809 303.755 24.3306C303.458 24.575 303.094 24.7742 302.663 24.9283C302.238 25.0823 301.744 25.1594 301.181 25.1594ZM308.058 18.0194V25H306.138V16.3778H307.97L308.058 18.0194ZM310.696 16.322L310.68 18.107C310.563 18.0858 310.435 18.0698 310.297 18.0592C310.165 18.0486 310.032 18.0433 309.899 18.0433C309.57 18.0433 309.28 18.0911 309.03 18.1867C308.781 18.277 308.571 18.4098 308.401 18.5852C308.236 18.7552 308.109 18.9623 308.018 19.2067C307.928 19.4511 307.875 19.7247 307.859 20.0275L307.421 20.0594C307.421 19.5175 307.474 19.0155 307.58 18.5533C307.686 18.0911 307.846 17.6847 308.058 17.3341C308.276 16.9834 308.547 16.7098 308.871 16.5133C309.2 16.3167 309.58 16.2184 310.01 16.2184C310.127 16.2184 310.252 16.2291 310.385 16.2503C310.523 16.2716 310.627 16.2955 310.696 16.322ZM313.955 16.3778V25H312.027V16.3778H313.955ZM311.899 14.1147C311.899 13.8225 311.995 13.5808 312.186 13.3895C312.383 13.193 312.653 13.0947 312.999 13.0947C313.339 13.0947 313.607 13.193 313.804 13.3895C314 13.5808 314.098 13.8225 314.098 14.1147C314.098 14.4016 314 14.6406 313.804 14.8319C313.607 15.0231 313.339 15.1188 312.999 15.1188C312.653 15.1188 312.383 15.0231 312.186 14.8319C311.995 14.6406 311.899 14.4016 311.899 14.1147ZM318.529 25H316.601V15.82C316.601 15.1241 316.739 14.537 317.015 14.0589C317.297 13.5808 317.698 13.2169 318.218 12.9672C318.744 12.7175 319.368 12.5927 320.091 12.5927C320.516 12.5927 320.925 12.6378 321.318 12.7281C321.717 12.8184 322.128 12.9327 322.553 13.0708L322.258 14.6327C321.988 14.5423 321.687 14.4573 321.358 14.3777C321.029 14.2927 320.649 14.2502 320.218 14.2502C319.639 14.2502 319.212 14.383 318.935 14.6486C318.665 14.9089 318.529 15.2994 318.529 15.82V25ZM320.258 16.3778V17.7803H315.278V16.3778H320.258ZM323.462 16.3778V25H321.541V16.3778H323.462ZM329.127 23.6294C329.441 23.6294 329.722 23.5683 329.972 23.4461C330.227 23.3186 330.432 23.1433 330.586 22.9202C330.745 22.697 330.833 22.4394 330.849 22.1472H332.658C332.647 22.705 332.482 23.2123 332.164 23.6692C331.845 24.1261 331.422 24.49 330.897 24.7609C330.371 25.0266 329.789 25.1594 329.151 25.1594C328.493 25.1594 327.919 25.0478 327.43 24.8247C326.941 24.5963 326.535 24.2828 326.211 23.8844C325.887 23.4859 325.642 23.0264 325.478 22.5058C325.318 21.9852 325.239 21.4273 325.239 20.8323V20.5534C325.239 19.9584 325.318 19.4006 325.478 18.88C325.642 18.3541 325.887 17.8919 326.211 17.4934C326.535 17.095 326.941 16.7842 327.43 16.5611C327.919 16.3327 328.49 16.2184 329.143 16.2184C329.834 16.2184 330.44 16.3566 330.96 16.6328C331.481 16.9038 331.89 17.2836 332.187 17.7723C332.49 18.2558 332.647 18.8189 332.658 19.4617H330.849C330.833 19.143 330.753 18.8561 330.61 18.6011C330.472 18.3408 330.275 18.1336 330.02 17.9795C329.77 17.8255 329.47 17.7484 329.12 17.7484C328.732 17.7484 328.41 17.8281 328.155 17.9875C327.9 18.1416 327.701 18.3541 327.558 18.625C327.414 18.8906 327.311 19.1908 327.247 19.5255C327.188 19.8548 327.159 20.1975 327.159 20.5534V20.8323C327.159 21.1883 327.188 21.5336 327.247 21.8683C327.305 22.203 327.406 22.5031 327.55 22.7688C327.698 23.0291 327.9 23.2389 328.155 23.3983C328.41 23.5523 328.734 23.6294 329.127 23.6294ZM338.993 23.2708V19.1589C338.993 18.8508 338.937 18.5852 338.825 18.362C338.714 18.1389 338.544 17.9663 338.315 17.8441C338.092 17.7219 337.811 17.6608 337.471 17.6608C337.157 17.6608 336.886 17.7139 336.658 17.8202C336.43 17.9264 336.252 18.0698 336.124 18.2505C335.997 18.4311 335.933 18.6356 335.933 18.8641H334.02C334.02 18.5241 334.103 18.1947 334.267 17.8759C334.432 17.5572 334.671 17.273 334.985 17.0233C335.298 16.7736 335.673 16.577 336.108 16.4336C336.544 16.2902 337.033 16.2184 337.574 16.2184C338.223 16.2184 338.796 16.3273 339.296 16.5452C339.8 16.763 340.196 17.0923 340.483 17.5333C340.775 17.9689 340.921 18.5161 340.921 19.1748V23.0078C340.921 23.4009 340.948 23.7542 341.001 24.0677C341.059 24.3758 341.142 24.6441 341.248 24.8725V25H339.28C339.189 24.7928 339.118 24.5298 339.065 24.2111C339.017 23.887 338.993 23.5736 338.993 23.2708ZM339.272 19.7566L339.288 20.9439H337.909C337.553 20.9439 337.24 20.9784 336.969 21.0475C336.698 21.1113 336.472 21.2069 336.291 21.3344C336.111 21.4619 335.975 21.6159 335.885 21.7966C335.795 21.9772 335.75 22.1817 335.75 22.4102C335.75 22.6386 335.803 22.8484 335.909 23.0397C336.015 23.2256 336.169 23.3717 336.371 23.478C336.578 23.5842 336.828 23.6373 337.12 23.6373C337.513 23.6373 337.856 23.5577 338.148 23.3983C338.446 23.2336 338.679 23.0344 338.849 22.8006C339.019 22.5616 339.11 22.3358 339.12 22.1233L339.742 22.9759C339.678 23.1938 339.569 23.4275 339.415 23.6772C339.261 23.9269 339.059 24.1659 338.81 24.3944C338.565 24.6175 338.27 24.8008 337.925 24.9442C337.585 25.0877 337.192 25.1594 336.746 25.1594C336.183 25.1594 335.68 25.0478 335.24 24.8247C334.799 24.5963 334.453 24.2908 334.204 23.9083C333.954 23.5205 333.829 23.0822 333.829 22.5934C333.829 22.1366 333.914 21.7328 334.084 21.3822C334.259 21.0263 334.514 20.7288 334.849 20.4897C335.189 20.2506 335.603 20.07 336.092 19.9478C336.581 19.8203 337.139 19.7566 337.766 19.7566H339.272ZM346.882 16.3778V17.7803H342.021V16.3778H346.882ZM343.423 14.2661H345.344V22.6173C345.344 22.883 345.381 23.0875 345.455 23.2309C345.535 23.3691 345.644 23.462 345.782 23.5098C345.92 23.5577 346.082 23.5816 346.268 23.5816C346.401 23.5816 346.529 23.5736 346.651 23.5577C346.773 23.5417 346.871 23.5258 346.946 23.5098L346.954 24.9761C346.794 25.0239 346.608 25.0664 346.396 25.1036C346.189 25.1408 345.95 25.1594 345.679 25.1594C345.238 25.1594 344.847 25.0823 344.507 24.9283C344.167 24.7689 343.902 24.5113 343.71 24.1553C343.519 23.7994 343.423 23.3266 343.423 22.7369V14.2661ZM350.42 16.3778V25H348.492V16.3778H350.42ZM348.364 14.1147C348.364 13.8225 348.46 13.5808 348.651 13.3895C348.848 13.193 349.118 13.0947 349.464 13.0947C349.804 13.0947 350.072 13.193 350.269 13.3895C350.465 13.5808 350.563 13.8225 350.563 14.1147C350.563 14.4016 350.465 14.6406 350.269 14.8319C350.072 15.0231 349.804 15.1188 349.464 15.1188C349.118 15.1188 348.848 15.0231 348.651 14.8319C348.46 14.6406 348.364 14.4016 348.364 14.1147ZM352.157 20.7845V20.6013C352.157 19.9797 352.248 19.4033 352.428 18.872C352.609 18.3355 352.869 17.8706 353.209 17.4775C353.554 17.0791 353.974 16.7709 354.468 16.5531C354.968 16.33 355.531 16.2184 356.158 16.2184C356.79 16.2184 357.353 16.33 357.847 16.5531C358.346 16.7709 358.769 17.0791 359.114 17.4775C359.459 17.8706 359.722 18.3355 359.903 18.872C360.083 19.4033 360.174 19.9797 360.174 20.6013V20.7845C360.174 21.4061 360.083 21.9825 359.903 22.5138C359.722 23.045 359.459 23.5098 359.114 23.9083C358.769 24.3014 358.349 24.6095 357.855 24.8327C357.361 25.0505 356.8 25.1594 356.173 25.1594C355.541 25.1594 354.975 25.0505 354.476 24.8327C353.982 24.6095 353.562 24.3014 353.217 23.9083C352.872 23.5098 352.609 23.045 352.428 22.5138C352.248 21.9825 352.157 21.4061 352.157 20.7845ZM354.078 20.6013V20.7845C354.078 21.1723 354.118 21.5389 354.197 21.8842C354.277 22.2295 354.402 22.5323 354.572 22.7927C354.742 23.053 354.96 23.2575 355.225 23.4063C355.491 23.555 355.807 23.6294 356.173 23.6294C356.529 23.6294 356.838 23.555 357.098 23.4063C357.363 23.2575 357.581 23.053 357.751 22.7927C357.921 22.5323 358.046 22.2295 358.126 21.8842C358.211 21.5389 358.253 21.1723 358.253 20.7845V20.6013C358.253 20.2188 358.211 19.8575 358.126 19.5175C358.046 19.1722 357.919 18.8667 357.743 18.6011C357.573 18.3355 357.355 18.1283 357.09 17.9795C356.83 17.8255 356.519 17.7484 356.158 17.7484C355.796 17.7484 355.483 17.8255 355.217 17.9795C354.957 18.1283 354.742 18.3355 354.572 18.6011C354.402 18.8667 354.277 19.1722 354.197 19.5175C354.118 19.8575 354.078 20.2188 354.078 20.6013ZM363.688 18.2186V25H361.768V16.3778H363.576L363.688 18.2186ZM363.345 20.3702L362.724 20.3622C362.729 19.7513 362.814 19.1908 362.979 18.6808C363.149 18.1708 363.383 17.7325 363.68 17.3659C363.983 16.9994 364.344 16.7178 364.764 16.5213C365.183 16.3194 365.651 16.2184 366.166 16.2184C366.581 16.2184 366.955 16.2769 367.29 16.3938C367.63 16.5053 367.919 16.6886 368.158 16.9436C368.403 17.1986 368.589 17.5306 368.716 17.9397C368.844 18.3434 368.908 18.8402 368.908 19.4298V25H366.979V19.4219C366.979 19.0075 366.918 18.6808 366.796 18.4417C366.679 18.1973 366.506 18.0247 366.278 17.9238C366.055 17.8175 365.776 17.7644 365.441 17.7644C365.112 17.7644 364.817 17.8334 364.557 17.9716C364.296 18.1097 364.076 18.2983 363.895 18.5373C363.72 18.7764 363.584 19.0527 363.489 19.3661C363.393 19.6795 363.345 20.0142 363.345 20.3702Z" fill="white"/>
</g>
<mask id="mask0_0_1" style="mask-type:luminance" maskUnits="userSpaceOnUse" x="247" y="109" width="38" height="52">
<path fill-rule="evenodd" clip-rule="evenodd" d="M247.236 109H284.248V161H247.236V109Z" fill="white"/>
</mask>
<g mask="url(#mask0_0_1)">
<path fill-rule="evenodd" clip-rule="evenodd" d="M259.541 134.993H259.573C259.573 134.497 259.594 134 259.569 133.505C259.515 132.461 259.074 131.862 258.113 131.784C257.029 131.696 255.928 131.699 254.843 131.788C253.944 131.862 253.519 132.311 253.45 133.259C253.366 134.402 253.368 135.561 253.447 136.704C253.512 137.645 253.943 138.096 254.832 138.19C255.937 138.308 257.059 138.313 258.163 138.186C259.02 138.088 259.412 137.649 259.528 136.747C259.601 136.172 259.541 135.579 259.541 134.993M253.447 121.958C253.434 121.958 253.42 121.958 253.407 121.958C253.407 122.454 253.389 122.951 253.41 123.446C253.457 124.514 253.869 125.09 254.836 125.196C255.94 125.317 257.063 125.321 258.168 125.191C259.024 125.09 259.438 124.653 259.527 123.749C259.642 122.585 259.644 121.403 259.527 120.24C259.435 119.318 259.043 118.9 258.171 118.801C257.046 118.674 255.907 118.691 254.777 118.801C253.988 118.878 253.537 119.394 253.458 120.204C253.402 120.783 253.447 121.373 253.447 121.958M278.067 135.018H278.079C278.079 134.522 278.097 134.025 278.075 133.53C278.028 132.478 277.599 131.885 276.642 131.786C275.537 131.671 274.414 131.658 273.31 131.796C272.425 131.907 272.031 132.3 271.963 133.233C271.877 134.397 271.878 135.579 271.963 136.743C272.031 137.666 272.44 138.078 273.314 138.184C274.418 138.318 275.54 138.305 276.646 138.193C277.54 138.103 277.959 137.595 278.057 136.64C278.112 136.106 278.067 135.56 278.067 135.018M265.776 131.785C265.776 131.77 265.776 131.755 265.776 131.741C265.305 131.741 264.833 131.722 264.363 131.745C263.321 131.797 262.768 132.253 262.693 133.31C262.614 134.431 262.614 135.568 262.697 136.688C262.773 137.704 263.333 138.189 264.324 138.228C265.264 138.266 266.209 138.263 267.15 138.229C268.111 138.194 268.67 137.73 268.773 136.76C268.9 135.576 268.886 134.375 268.773 133.186C268.696 132.373 268.224 131.869 267.441 131.795C266.89 131.743 266.331 131.785 265.776 131.785M274.999 125.212V125.243C275.449 125.243 275.899 125.258 276.348 125.24C277.346 125.199 277.921 124.751 278.03 123.757C278.158 122.594 278.145 121.412 278.035 120.248C277.947 119.324 277.556 118.906 276.684 118.804C275.559 118.671 274.415 118.664 273.291 118.808C272.408 118.922 272.024 119.322 271.956 120.26C271.873 121.402 271.874 122.561 271.952 123.704C272.016 124.646 272.447 125.071 273.333 125.197C273.879 125.275 274.443 125.212 274.999 125.212M265.753 118.783C265.753 118.771 265.753 118.759 265.753 118.747C265.281 118.747 264.809 118.725 264.34 118.752C263.342 118.808 262.828 119.212 262.715 120.209C262.58 121.393 262.583 122.598 262.716 123.783C262.818 124.701 263.214 125.124 264.093 125.196C265.178 125.283 266.278 125.281 267.364 125.202C268.242 125.138 268.692 124.664 268.781 123.743C268.894 122.579 268.899 121.397 268.779 120.233C268.684 119.312 268.293 118.925 267.418 118.798C266.873 118.718 266.308 118.783 265.753 118.783M247.237 134.993C247.237 128.115 247.237 121.236 247.238 114.358C247.238 111.055 249.189 109.001 252.327 109.001C261.277 109 270.227 109 279.177 109.001C282.279 109.001 284.247 111.061 284.247 114.309C284.249 128.089 284.249 141.869 284.248 155.649C284.247 158.913 282.292 160.975 279.197 160.977C276.457 160.979 273.716 160.966 270.975 160.988C270.504 160.992 270.352 160.87 270.358 160.353C270.383 157.917 270.38 155.481 270.366 153.046C270.352 150.43 268.84 148.557 266.399 148.092C264.025 147.64 261.587 149.48 261.241 151.994C260.973 153.946 261.171 155.91 261.12 157.868C261.097 158.746 261.106 159.627 261.121 160.506C261.127 160.847 261.03 160.985 260.685 160.983C257.709 160.971 254.731 161.047 251.757 160.95C249.074 160.862 247.243 158.709 247.24 155.832C247.232 148.886 247.237 141.94 247.237 134.993" fill="#3366FF"/>
</g>
<path fill-rule="evenodd" clip-rule="evenodd" d="M252.135 120.463C252.499 116.644 254.573 114.212 258.206 113.848C263.405 113.329 268.647 113.249 273.827 113.849C277.841 114.314 279.644 116.284 280.069 120.63C280.604 126.116 280.597 131.685 280.069 137.173C279.658 141.437 277.751 143.496 273.81 143.971C268.725 144.584 263.558 144.569 258.476 143.997C254.025 143.496 252.128 140.78 251.914 135.745C251.813 133.412 251.896 131.069 251.896 128.73C251.96 128.729 252.022 128.729 252.084 128.729C252.084 125.972 251.876 123.191 252.135 120.463Z" fill="#3366FF" fill-opacity="0.5"/>
<mask id="mask1_0_1" style="mask-type:luminance" maskUnits="userSpaceOnUse" x="247" y="109" width="38" height="52">
<path fill-rule="evenodd" clip-rule="evenodd" d="M247.236 109H284.248V161H247.236V109Z" fill="white"/>
</mask>
<g mask="url(#mask1_0_1)">
<path fill-rule="evenodd" clip-rule="evenodd" d="M259.541 134.993H259.573C259.573 134.497 259.594 134 259.569 133.505C259.515 132.461 259.074 131.862 258.113 131.784C257.029 131.696 255.928 131.699 254.843 131.788C253.944 131.862 253.519 132.311 253.45 133.259C253.366 134.402 253.368 135.561 253.447 136.704C253.512 137.645 253.943 138.096 254.832 138.19C255.937 138.308 257.059 138.313 258.163 138.186C259.02 138.088 259.412 137.649 259.528 136.747C259.601 136.172 259.541 135.579 259.541 134.993M253.447 121.958C253.434 121.958 253.42 121.958 253.407 121.958C253.407 122.454 253.389 122.951 253.41 123.446C253.457 124.514 253.869 125.09 254.836 125.196C255.94 125.317 257.063 125.321 258.168 125.191C259.024 125.09 259.438 124.653 259.527 123.749C259.642 122.585 259.644 121.403 259.527 120.24C259.435 119.318 259.043 118.9 258.171 118.801C257.046 118.674 255.907 118.691 254.777 118.801C253.988 118.878 253.537 119.394 253.458 120.204C253.402 120.783 253.447 121.373 253.447 121.958M278.067 135.018H278.079C278.079 134.522 278.097 134.025 278.075 133.53C278.028 132.478 277.599 131.885 276.642 131.786C275.537 131.671 274.414 131.658 273.31 131.796C272.425 131.907 272.031 132.3 271.963 133.233C271.877 134.397 271.878 135.579 271.963 136.743C272.031 137.666 272.44 138.078 273.314 138.184C274.418 138.318 275.54 138.305 276.646 138.193C277.54 138.103 277.959 137.595 278.057 136.64C278.112 136.106 278.067 135.56 278.067 135.018M265.776 131.785C265.776 131.77 265.776 131.755 265.776 131.741C265.305 131.741 264.833 131.722 264.363 131.745C263.321 131.797 262.768 132.253 262.693 133.31C262.614 134.431 262.614 135.568 262.697 136.688C262.773 137.704 263.333 138.189 264.324 138.228C265.264 138.266 266.209 138.263 267.15 138.229C268.111 138.194 268.67 137.73 268.773 136.76C268.9 135.576 268.886 134.375 268.773 133.186C268.696 132.373 268.224 131.869 267.441 131.795C266.89 131.743 266.331 131.785 265.776 131.785M274.999 125.212V125.243C275.449 125.243 275.899 125.258 276.348 125.24C277.346 125.199 277.921 124.751 278.03 123.757C278.158 122.594 278.145 121.412 278.035 120.248C277.947 119.324 277.556 118.906 276.684 118.804C275.559 118.671 274.415 118.664 273.291 118.808C272.408 118.922 272.024 119.322 271.956 120.26C271.873 121.402 271.874 122.561 271.952 123.704C272.016 124.646 272.447 125.071 273.333 125.197C273.879 125.275 274.443 125.212 274.999 125.212M265.753 118.783C265.753 118.771 265.753 118.759 265.753 118.747C265.281 118.747 264.809 118.725 264.34 118.752C263.342 118.808 262.828 119.212 262.715 120.209C262.58 121.393 262.583 122.598 262.716 123.783C262.818 124.701 263.214 125.124 264.093 125.196C265.178 125.283 266.278 125.281 267.364 125.202C268.242 125.138 268.692 124.664 268.781 123.743C268.894 122.579 268.899 121.397 268.779 120.233C268.684 119.312 268.293 118.925 267.418 118.798C266.873 118.718 266.308 118.783 265.753 118.783M247.237 134.993C247.237 128.115 247.237 121.236 247.238 114.358C247.238 111.055 249.189 109.001 252.327 109.001C261.277 109 270.227 109 279.177 109.001C282.279 109.001 284.247 111.061 284.247 114.309C284.249 128.089 284.249 141.869 284.248 155.649C284.247 158.913 282.292 160.975 279.197 160.977C276.457 160.979 273.716 160.966 270.975 160.988C270.504 160.992 270.352 160.87 270.358 160.353C270.383 157.917 270.38 155.481 270.366 153.046C270.352 150.43 268.84 148.557 266.399 148.092C264.025 147.64 261.587 149.48 261.241 151.994C260.973 153.946 261.171 155.91 261.12 157.868C261.097 158.746 261.106 159.627 261.121 160.506C261.127 160.847 261.03 160.985 260.685 160.983C257.709 160.971 254.731 161.047 251.757 160.95C249.074 160.862 247.243 158.709 247.24 155.832C247.232 148.886 247.237 141.94 247.237 134.993" fill="#3366FF"/>
</g>
<path fill-rule="evenodd" clip-rule="evenodd" d="M252.135 120.463C252.499 116.644 254.573 114.212 258.206 113.848C263.405 113.329 268.647 113.249 273.827 113.849C277.841 114.314 279.644 116.284 280.069 120.63C280.604 126.116 280.597 131.685 280.069 137.173C279.658 141.437 277.751 143.496 273.81 143.971C268.725 144.584 263.558 144.569 258.476 143.997C254.025 143.496 252.128 140.78 251.914 135.745C251.813 133.412 251.896 131.069 251.896 128.73C251.96 128.729 252.022 128.729 252.084 128.729C252.084 125.972 251.876 123.191 252.135 120.463Z" fill="#3366FF" fill-opacity="0.5"/>
<path d="M347.455 120C350.283 120.001 352.579 122.42 352.58 125.4V127.071C352.58 128.136 351.76 129 350.749 129H337.327C336.317 129 335.497 128.136 335.497 127.071V125.4C335.497 122.42 337.793 120.001 340.622 120H341.259C341.989 120.355 343.234 120.643 344.038 120.643C344.842 120.643 346.088 120.355 346.818 120H347.455Z" fill="#3366FF"/>
<path d="M344.038 119C341.419 119 339.293 116.76 339.293 114C339.293 111.24 341.419 109 344.038 109C346.658 109 348.783 111.24 348.783 114C348.783 116.76 346.658 119 344.038 119Z" fill="#3366FF" fill-opacity="0.5"/>
<path d="M347.455 153C350.283 153.001 352.579 155.42 352.58 158.4V160.071C352.58 161.136 351.76 162 350.749 162H337.327C336.317 162 335.497 161.136 335.497 160.071V158.4C335.497 155.42 337.793 153.001 340.622 153H341.259C341.989 153.355 343.234 153.643 344.038 153.643C344.842 153.643 346.088 153.355 346.818 153H347.455Z" fill="#3366FF"/>
<path d="M344.038 152C341.419 152 339.293 149.76 339.293 147C339.293 144.24 341.419 142 344.038 142C346.658 142 348.783 144.24 348.783 147C348.783 149.76 346.658 152 344.038 152Z" fill="#3366FF" fill-opacity="0.5"/>
<path d="M316.136 120C318.965 120.001 321.261 122.42 321.261 125.4V127.071C321.261 128.136 320.441 129 319.431 129H306.009C304.998 129 304.178 128.136 304.178 127.071V125.4C304.179 122.42 306.475 120.001 309.303 120H309.94C310.67 120.355 311.916 120.643 312.72 120.643C313.524 120.643 314.769 120.355 315.499 120H316.136Z" fill="#3366FF"/>
<path d="M312.72 119C310.1 119 307.975 116.76 307.975 114C307.975 111.24 310.1 109 312.72 109C315.339 109 317.465 111.24 317.465 114C317.465 116.76 315.339 119 312.72 119Z" fill="#3366FF" fill-opacity="0.5"/>
<path d="M316.136 153C318.965 153.001 321.261 155.42 321.261 158.4V160.071C321.261 161.136 320.441 162 319.431 162H306.009C304.998 162 304.178 161.136 304.178 160.071V158.4C304.179 155.42 306.475 153.001 309.303 153H309.94C310.67 153.355 311.916 153.643 312.72 153.643C313.524 153.643 314.769 153.355 315.499 153H316.136Z" fill="#3366FF"/>
<path d="M312.72 152C310.1 152 307.975 149.76 307.975 147C307.975 144.24 310.1 142 312.72 142C315.339 142 317.465 144.24 317.465 147C317.465 149.76 315.339 152 312.72 152Z" fill="#3366FF" fill-opacity="0.5"/>
<path d="M347.455 120C350.283 120.001 352.579 122.42 352.58 125.4V127.071C352.58 128.136 351.76 129 350.749 129H337.327C336.317 129 335.497 128.136 335.497 127.071V125.4C335.497 122.42 337.793 120.001 340.622 120H341.259C341.989 120.355 343.234 120.643 344.038 120.643C344.842 120.643 346.088 120.355 346.818 120H347.455Z" fill="#3366FF"/>
<path d="M316.136 120C318.965 120.001 321.261 122.42 321.261 125.4V127.071C321.261 128.136 320.441 129 319.431 129H306.009C304.998 129 304.178 128.136 304.178 127.071V125.4C304.179 122.42 306.475 120.001 309.303 120H309.94C310.67 120.355 311.916 120.643 312.72 120.643C313.524 120.643 314.769 120.355 315.499 120H316.136Z" fill="#3366FF"/>
<path d="M316.136 153C318.965 153.001 321.261 155.42 321.261 158.4V160.071C321.261 161.136 320.441 162 319.431 162H306.009C304.998 162 304.178 161.136 304.178 160.071V158.4C304.179 155.42 306.475 153.001 309.303 153H309.94C310.67 153.355 311.916 153.643 312.72 153.643C313.524 153.643 314.769 153.355 315.499 153H316.136Z" fill="#3366FF"/>
<path d="M246.97 183.398L249.663 188.936L252.357 183.398H254.572L250.667 190.729V195H248.651V190.729L244.746 183.398H246.97ZM254.755 190.785V190.601C254.755 189.98 254.845 189.403 255.026 188.872C255.207 188.335 255.467 187.871 255.807 187.478C256.152 187.079 256.572 186.771 257.066 186.553C257.565 186.33 258.129 186.218 258.755 186.218C259.388 186.218 259.951 186.33 260.445 186.553C260.944 186.771 261.367 187.079 261.712 187.478C262.057 187.871 262.32 188.335 262.501 188.872C262.681 189.403 262.772 189.98 262.772 190.601V190.785C262.772 191.406 262.681 191.983 262.501 192.514C262.32 193.045 262.057 193.51 261.712 193.908C261.367 194.301 260.947 194.61 260.453 194.833C259.959 195.05 259.398 195.159 258.771 195.159C258.139 195.159 257.573 195.05 257.074 194.833C256.58 194.61 256.16 194.301 255.815 193.908C255.47 193.51 255.207 193.045 255.026 192.514C254.845 191.983 254.755 191.406 254.755 190.785ZM256.676 190.601V190.785C256.676 191.172 256.715 191.539 256.795 191.884C256.875 192.23 257 192.532 257.17 192.793C257.34 193.053 257.558 193.258 257.823 193.406C258.089 193.555 258.405 193.629 258.771 193.629C259.127 193.629 259.435 193.555 259.696 193.406C259.961 193.258 260.179 193.053 260.349 192.793C260.519 192.532 260.644 192.23 260.724 191.884C260.809 191.539 260.851 191.172 260.851 190.785V190.601C260.851 190.219 260.809 189.858 260.724 189.518C260.644 189.172 260.517 188.867 260.341 188.601C260.171 188.335 259.953 188.128 259.688 187.98C259.428 187.825 259.117 187.748 258.755 187.748C258.394 187.748 258.081 187.825 257.815 187.98C257.555 188.128 257.34 188.335 257.17 188.601C257 188.867 256.875 189.172 256.795 189.518C256.715 189.858 256.676 190.219 256.676 190.601ZM269.569 192.968V186.378H271.498V195H269.681L269.569 192.968ZM269.84 191.175L270.485 191.159C270.485 191.738 270.422 192.272 270.294 192.761C270.167 193.244 269.97 193.667 269.705 194.028C269.439 194.384 269.099 194.663 268.685 194.865C268.27 195.061 267.773 195.159 267.194 195.159C266.775 195.159 266.39 195.098 266.039 194.976C265.688 194.854 265.385 194.665 265.13 194.41C264.881 194.155 264.687 193.823 264.549 193.414C264.411 193.005 264.342 192.516 264.342 191.948V186.378H266.262V191.964C266.262 192.277 266.299 192.54 266.374 192.753C266.448 192.96 266.549 193.127 266.676 193.255C266.804 193.382 266.953 193.473 267.123 193.526C267.293 193.579 267.473 193.605 267.665 193.605C268.212 193.605 268.642 193.499 268.955 193.287C269.274 193.069 269.5 192.777 269.633 192.41C269.771 192.044 269.84 191.632 269.84 191.175ZM275.394 188.019V195H273.474V186.378H275.307L275.394 188.019ZM278.032 186.322L278.016 188.107C277.899 188.086 277.772 188.07 277.633 188.059C277.501 188.049 277.368 188.043 277.235 188.043C276.906 188.043 276.616 188.091 276.366 188.187C276.117 188.277 275.907 188.41 275.737 188.585C275.572 188.755 275.445 188.962 275.354 189.207C275.264 189.451 275.211 189.725 275.195 190.028L274.757 190.059C274.757 189.518 274.81 189.015 274.916 188.553C275.022 188.091 275.182 187.685 275.394 187.334C275.612 186.983 275.883 186.71 276.207 186.513C276.536 186.317 276.916 186.218 277.347 186.218C277.463 186.218 277.588 186.229 277.721 186.25C277.859 186.272 277.963 186.295 278.032 186.322ZM290.344 191.223H292.336C292.272 191.983 292.06 192.66 291.698 193.255C291.337 193.845 290.83 194.309 290.176 194.649C289.523 194.989 288.729 195.159 287.794 195.159C287.076 195.159 286.431 195.032 285.857 194.777C285.283 194.517 284.792 194.15 284.383 193.677C283.974 193.199 283.66 192.623 283.443 191.948C283.23 191.273 283.124 190.519 283.124 189.685V188.721C283.124 187.887 283.233 187.132 283.451 186.458C283.674 185.783 283.993 185.206 284.407 184.728C284.821 184.245 285.318 183.876 285.897 183.621C286.481 183.366 287.138 183.238 287.865 183.238C288.79 183.238 289.571 183.408 290.208 183.748C290.846 184.088 291.34 184.558 291.69 185.159C292.046 185.759 292.264 186.447 292.344 187.223H290.352C290.298 186.723 290.182 186.295 290.001 185.94C289.826 185.584 289.565 185.313 289.22 185.127C288.875 184.935 288.423 184.84 287.865 184.84C287.408 184.84 287.01 184.925 286.67 185.095C286.33 185.265 286.046 185.515 285.817 185.844C285.589 186.173 285.416 186.58 285.299 187.063C285.188 187.541 285.132 188.088 285.132 188.705V189.685C285.132 190.269 285.183 190.8 285.283 191.279C285.39 191.751 285.549 192.158 285.762 192.498C285.979 192.838 286.256 193.101 286.59 193.287C286.925 193.473 287.326 193.566 287.794 193.566C288.362 193.566 288.822 193.475 289.172 193.295C289.528 193.114 289.796 192.851 289.977 192.506C290.163 192.155 290.285 191.728 290.344 191.223ZM293.595 190.785V190.601C293.595 189.98 293.685 189.403 293.866 188.872C294.046 188.335 294.307 187.871 294.647 187.478C294.992 187.079 295.412 186.771 295.906 186.553C296.405 186.33 296.968 186.218 297.595 186.218C298.227 186.218 298.79 186.33 299.285 186.553C299.784 186.771 300.206 187.079 300.552 187.478C300.897 187.871 301.16 188.335 301.34 188.872C301.521 189.403 301.611 189.98 301.611 190.601V190.785C301.611 191.406 301.521 191.983 301.34 192.514C301.16 193.045 300.897 193.51 300.552 193.908C300.206 194.301 299.787 194.61 299.293 194.833C298.798 195.05 298.238 195.159 297.611 195.159C296.979 195.159 296.413 195.05 295.914 194.833C295.42 194.61 295 194.301 294.655 193.908C294.309 193.51 294.046 193.045 293.866 192.514C293.685 191.983 293.595 191.406 293.595 190.785ZM295.515 190.601V190.785C295.515 191.172 295.555 191.539 295.635 191.884C295.715 192.23 295.839 192.532 296.009 192.793C296.179 193.053 296.397 193.258 296.663 193.406C296.928 193.555 297.245 193.629 297.611 193.629C297.967 193.629 298.275 193.555 298.535 193.406C298.801 193.258 299.019 193.053 299.189 192.793C299.359 192.532 299.484 192.23 299.563 191.884C299.648 191.539 299.691 191.172 299.691 190.785V190.601C299.691 190.219 299.648 189.858 299.563 189.518C299.484 189.172 299.356 188.867 299.181 188.601C299.011 188.335 298.793 188.128 298.528 187.98C298.267 187.825 297.956 187.748 297.595 187.748C297.234 187.748 296.92 187.825 296.655 187.98C296.395 188.128 296.179 188.335 296.009 188.601C295.839 188.867 295.715 189.172 295.635 189.518C295.555 189.858 295.515 190.219 295.515 190.601ZM305.142 188.131V195H303.221V186.378H305.03L305.142 188.131ZM304.831 190.37L304.177 190.362C304.177 189.767 304.252 189.217 304.4 188.713C304.549 188.208 304.767 187.77 305.054 187.398C305.341 187.021 305.697 186.731 306.122 186.529C306.552 186.322 307.049 186.218 307.612 186.218C308.005 186.218 308.364 186.277 308.688 186.394C309.017 186.505 309.301 186.683 309.54 186.928C309.785 187.172 309.971 187.485 310.098 187.868C310.231 188.25 310.297 188.713 310.297 189.255V195H308.377V189.422C308.377 189.002 308.313 188.673 308.186 188.434C308.063 188.195 307.885 188.025 307.652 187.924C307.423 187.818 307.15 187.764 306.831 187.764C306.47 187.764 306.162 187.833 305.907 187.972C305.657 188.11 305.452 188.298 305.293 188.537C305.134 188.776 305.017 189.053 304.942 189.366C304.868 189.68 304.831 190.014 304.831 190.37ZM310.178 189.86L309.277 190.059C309.277 189.539 309.349 189.047 309.493 188.585C309.641 188.118 309.856 187.709 310.138 187.358C310.425 187.002 310.778 186.723 311.198 186.521C311.618 186.319 312.098 186.218 312.64 186.218C313.081 186.218 313.474 186.28 313.82 186.402C314.17 186.519 314.468 186.705 314.712 186.96C314.956 187.215 315.142 187.547 315.27 187.956C315.397 188.359 315.461 188.848 315.461 189.422V195H313.533V189.414C313.533 188.978 313.469 188.641 313.341 188.402C313.219 188.163 313.044 187.998 312.815 187.908C312.587 187.812 312.313 187.764 311.995 187.764C311.697 187.764 311.434 187.82 311.206 187.932C310.983 188.038 310.794 188.189 310.64 188.386C310.486 188.577 310.369 188.798 310.289 189.047C310.215 189.297 310.178 189.568 310.178 189.86ZM319.366 188.035V198.315H317.445V186.378H319.214L319.366 188.035ZM324.984 190.609V190.777C324.984 191.403 324.909 191.985 324.761 192.522C324.617 193.053 324.402 193.518 324.115 193.916C323.834 194.309 323.486 194.615 323.071 194.833C322.657 195.05 322.179 195.159 321.637 195.159C321.1 195.159 320.63 195.061 320.226 194.865C319.828 194.663 319.491 194.378 319.214 194.012C318.938 193.645 318.715 193.215 318.545 192.721C318.38 192.222 318.263 191.674 318.194 191.079V190.434C318.263 189.802 318.38 189.228 318.545 188.713C318.715 188.197 318.938 187.754 319.214 187.382C319.491 187.01 319.828 186.723 320.226 186.521C320.625 186.319 321.09 186.218 321.621 186.218C322.163 186.218 322.644 186.325 323.063 186.537C323.483 186.744 323.836 187.042 324.123 187.43C324.41 187.812 324.625 188.274 324.769 188.816C324.912 189.353 324.984 189.95 324.984 190.609ZM323.063 190.777V190.609C323.063 190.211 323.026 189.842 322.952 189.502C322.877 189.156 322.76 188.853 322.601 188.593C322.442 188.333 322.237 188.131 321.987 187.988C321.743 187.839 321.448 187.764 321.103 187.764C320.763 187.764 320.471 187.823 320.226 187.94C319.982 188.051 319.777 188.208 319.613 188.41C319.448 188.612 319.321 188.848 319.23 189.119C319.14 189.385 319.076 189.674 319.039 189.988V191.534C319.103 191.916 319.212 192.267 319.366 192.585C319.52 192.904 319.738 193.159 320.019 193.35C320.306 193.536 320.673 193.629 321.119 193.629C321.464 193.629 321.759 193.555 322.003 193.406C322.248 193.258 322.447 193.053 322.601 192.793C322.76 192.527 322.877 192.222 322.952 191.876C323.026 191.531 323.063 191.164 323.063 190.777ZM331.478 193.271V189.159C331.478 188.851 331.423 188.585 331.311 188.362C331.199 188.139 331.029 187.966 330.801 187.844C330.578 187.722 330.296 187.661 329.956 187.661C329.643 187.661 329.372 187.714 329.143 187.82C328.915 187.926 328.737 188.07 328.61 188.25C328.482 188.431 328.418 188.636 328.418 188.864H326.506C326.506 188.524 326.588 188.195 326.753 187.876C326.918 187.557 327.157 187.273 327.47 187.023C327.783 186.774 328.158 186.577 328.594 186.434C329.029 186.29 329.518 186.218 330.06 186.218C330.708 186.218 331.282 186.327 331.781 186.545C332.286 186.763 332.682 187.092 332.968 187.533C333.261 187.969 333.407 188.516 333.407 189.175V193.008C333.407 193.401 333.433 193.754 333.486 194.068C333.545 194.376 333.627 194.644 333.733 194.873V195H331.765C331.675 194.793 331.603 194.53 331.55 194.211C331.502 193.887 331.478 193.574 331.478 193.271ZM331.757 189.757L331.773 190.944H330.395C330.039 190.944 329.725 190.978 329.454 191.048C329.183 191.111 328.958 191.207 328.777 191.334C328.596 191.462 328.461 191.616 328.37 191.797C328.28 191.977 328.235 192.182 328.235 192.41C328.235 192.639 328.288 192.848 328.394 193.04C328.501 193.226 328.655 193.372 328.857 193.478C329.064 193.584 329.313 193.637 329.606 193.637C329.999 193.637 330.341 193.558 330.634 193.398C330.931 193.234 331.165 193.034 331.335 192.801C331.505 192.562 331.595 192.336 331.606 192.123L332.227 192.976C332.164 193.194 332.055 193.428 331.901 193.677C331.747 193.927 331.545 194.166 331.295 194.394C331.051 194.618 330.756 194.801 330.41 194.944C330.07 195.088 329.677 195.159 329.231 195.159C328.668 195.159 328.166 195.048 327.725 194.825C327.284 194.596 326.939 194.291 326.689 193.908C326.439 193.52 326.315 193.082 326.315 192.593C326.315 192.137 326.4 191.733 326.57 191.382C326.745 191.026 327 190.729 327.335 190.49C327.675 190.251 328.089 190.07 328.578 189.948C329.066 189.82 329.624 189.757 330.251 189.757H331.757ZM337.319 188.219V195H335.399V186.378H337.208L337.319 188.219ZM336.977 190.37L336.355 190.362C336.36 189.751 336.445 189.191 336.61 188.681C336.78 188.171 337.014 187.733 337.311 187.366C337.614 186.999 337.975 186.718 338.395 186.521C338.815 186.319 339.282 186.218 339.798 186.218C340.212 186.218 340.587 186.277 340.921 186.394C341.261 186.505 341.551 186.689 341.79 186.944C342.034 187.199 342.22 187.531 342.348 187.94C342.475 188.343 342.539 188.84 342.539 189.43V195H340.61V189.422C340.61 189.008 340.549 188.681 340.427 188.442C340.31 188.197 340.138 188.025 339.909 187.924C339.686 187.818 339.407 187.764 339.073 187.764C338.743 187.764 338.448 187.833 338.188 187.972C337.928 188.11 337.707 188.298 337.527 188.537C337.351 188.776 337.216 189.053 337.12 189.366C337.025 189.68 336.977 190.014 336.977 190.37ZM347.001 194.06L349.344 186.378H351.4L347.942 196.315C347.862 196.527 347.758 196.758 347.631 197.008C347.503 197.258 347.336 197.494 347.129 197.717C346.927 197.946 346.675 198.129 346.372 198.267C346.069 198.411 345.702 198.482 345.272 198.482C345.102 198.482 344.937 198.466 344.778 198.435C344.624 198.408 344.478 198.379 344.34 198.347L344.332 196.881C344.385 196.886 344.449 196.891 344.523 196.897C344.603 196.902 344.667 196.905 344.714 196.905C345.033 196.905 345.299 196.865 345.511 196.785C345.724 196.711 345.896 196.588 346.029 196.418C346.167 196.248 346.284 196.02 346.38 195.733L347.001 194.06ZM345.679 186.378L347.727 192.833L348.069 194.857L346.738 195.199L343.607 186.378H345.679ZM354.452 182.76V183.884C354.452 184.218 354.391 184.566 354.269 184.928C354.152 185.283 353.987 185.626 353.775 185.955C353.562 186.28 353.318 186.561 353.042 186.8L352.078 186.195C352.295 185.865 352.471 185.517 352.603 185.151C352.742 184.779 352.811 184.362 352.811 183.9V182.76H354.452ZM359.743 192.665C359.743 192.474 359.696 192.301 359.6 192.147C359.504 191.988 359.321 191.844 359.05 191.717C358.785 191.589 358.391 191.473 357.871 191.366C357.414 191.265 356.994 191.146 356.612 191.008C356.235 190.864 355.91 190.692 355.64 190.49C355.369 190.288 355.159 190.049 355.01 189.773C354.861 189.496 354.787 189.178 354.787 188.816C354.787 188.466 354.864 188.134 355.018 187.82C355.172 187.507 355.393 187.23 355.679 186.991C355.966 186.752 356.314 186.564 356.723 186.426C357.138 186.288 357.6 186.218 358.11 186.218C358.832 186.218 359.451 186.341 359.967 186.585C360.487 186.824 360.886 187.151 361.162 187.565C361.438 187.974 361.576 188.436 361.576 188.952H359.656C359.656 188.723 359.597 188.511 359.48 188.314C359.369 188.112 359.199 187.95 358.97 187.828C358.742 187.701 358.455 187.637 358.11 187.637C357.78 187.637 357.507 187.69 357.289 187.796C357.077 187.897 356.917 188.03 356.811 188.195C356.71 188.359 356.66 188.54 356.66 188.737C356.66 188.88 356.686 189.01 356.739 189.127C356.798 189.239 356.893 189.342 357.026 189.438C357.159 189.528 357.34 189.613 357.568 189.693C357.802 189.773 358.094 189.85 358.445 189.924C359.103 190.062 359.669 190.24 360.142 190.458C360.62 190.67 360.987 190.947 361.242 191.287C361.497 191.621 361.624 192.046 361.624 192.562C361.624 192.944 361.542 193.295 361.377 193.613C361.218 193.927 360.984 194.2 360.676 194.434C360.368 194.663 359.998 194.841 359.568 194.968C359.143 195.096 358.665 195.159 358.134 195.159C357.353 195.159 356.691 195.021 356.15 194.745C355.608 194.463 355.196 194.105 354.914 193.669C354.638 193.228 354.5 192.771 354.5 192.299H356.357C356.378 192.655 356.476 192.939 356.652 193.151C356.832 193.358 357.055 193.51 357.321 193.605C357.592 193.696 357.871 193.741 358.158 193.741C358.503 193.741 358.793 193.696 359.026 193.605C359.26 193.51 359.438 193.382 359.56 193.223C359.682 193.058 359.743 192.872 359.743 192.665ZM268.071 207.219V214H266.15V205.378H267.959L268.071 207.219ZM267.728 209.37L267.107 209.362C267.112 208.751 267.197 208.191 267.362 207.681C267.532 207.171 267.765 206.733 268.063 206.366C268.366 205.999 268.727 205.718 269.147 205.521C269.566 205.319 270.034 205.218 270.549 205.218C270.964 205.218 271.338 205.277 271.673 205.394C272.013 205.505 272.302 205.689 272.541 205.944C272.786 206.199 272.972 206.531 273.099 206.94C273.227 207.343 273.29 207.84 273.29 208.43V214H271.362V208.422C271.362 208.008 271.301 207.681 271.179 207.442C271.062 207.197 270.889 207.025 270.661 206.924C270.438 206.818 270.159 206.764 269.824 206.764C269.495 206.764 269.2 206.833 268.94 206.972C268.679 207.11 268.459 207.298 268.278 207.537C268.103 207.776 267.967 208.053 267.872 208.366C267.776 208.68 267.728 209.014 267.728 209.37ZM279.052 214.159C278.414 214.159 277.838 214.056 277.323 213.849C276.813 213.636 276.377 213.341 276.016 212.964C275.66 212.587 275.386 212.143 275.195 211.633C275.004 211.123 274.908 210.573 274.908 209.984V209.665C274.908 208.99 275.006 208.379 275.203 207.832C275.4 207.285 275.673 206.818 276.024 206.43C276.374 206.037 276.789 205.736 277.267 205.529C277.745 205.322 278.263 205.218 278.821 205.218C279.437 205.218 279.976 205.322 280.438 205.529C280.901 205.736 281.283 206.029 281.586 206.406C281.894 206.778 282.123 207.221 282.271 207.737C282.425 208.252 282.502 208.82 282.502 209.442V210.263H275.84V208.884H280.606V208.733C280.595 208.387 280.526 208.063 280.399 207.76C280.276 207.458 280.088 207.213 279.833 207.027C279.578 206.841 279.238 206.748 278.813 206.748C278.494 206.748 278.21 206.818 277.96 206.956C277.716 207.088 277.511 207.282 277.347 207.537C277.182 207.792 277.054 208.1 276.964 208.462C276.879 208.818 276.837 209.219 276.837 209.665V209.984C276.837 210.361 276.887 210.712 276.988 211.036C277.094 211.354 277.248 211.633 277.45 211.872C277.652 212.111 277.896 212.3 278.183 212.438C278.47 212.571 278.797 212.637 279.163 212.637C279.626 212.637 280.037 212.544 280.399 212.358C280.76 212.173 281.073 211.91 281.339 211.57L282.351 212.55C282.165 212.821 281.923 213.081 281.626 213.331C281.328 213.575 280.964 213.774 280.534 213.928C280.109 214.082 279.615 214.159 279.052 214.159ZM287.802 214.159C287.164 214.159 286.588 214.056 286.072 213.849C285.562 213.636 285.127 213.341 284.765 212.964C284.41 212.587 284.136 212.143 283.945 211.633C283.753 211.123 283.658 210.573 283.658 209.984V209.665C283.658 208.99 283.756 208.379 283.953 207.832C284.149 207.285 284.423 206.818 284.773 206.43C285.124 206.037 285.538 205.736 286.017 205.529C286.495 205.322 287.013 205.218 287.57 205.218C288.187 205.218 288.726 205.322 289.188 205.529C289.65 205.736 290.033 206.029 290.336 206.406C290.644 206.778 290.872 207.221 291.021 207.737C291.175 208.252 291.252 208.82 291.252 209.442V210.263H284.59V208.884H289.355V208.733C289.345 208.387 289.276 208.063 289.148 207.76C289.026 207.458 288.838 207.213 288.583 207.027C288.328 206.841 287.988 206.748 287.563 206.748C287.244 206.748 286.96 206.818 286.71 206.956C286.465 207.088 286.261 207.282 286.096 207.537C285.932 207.792 285.804 208.1 285.714 208.462C285.629 208.818 285.586 209.219 285.586 209.665V209.984C285.586 210.361 285.637 210.712 285.738 211.036C285.844 211.354 285.998 211.633 286.2 211.872C286.402 212.111 286.646 212.3 286.933 212.438C287.22 212.571 287.547 212.637 287.913 212.637C288.375 212.637 288.787 212.544 289.148 212.358C289.51 212.173 289.823 211.91 290.089 211.57L291.101 212.55C290.915 212.821 290.673 213.081 290.375 213.331C290.078 213.575 289.714 213.774 289.284 213.928C288.859 214.082 288.365 214.159 287.802 214.159ZM298.01 212.215V201.76H299.938V214H298.193L298.01 212.215ZM292.4 209.785V209.617C292.4 208.964 292.477 208.369 292.631 207.832C292.785 207.29 293.008 206.825 293.3 206.438C293.592 206.045 293.948 205.744 294.368 205.537C294.788 205.325 295.26 205.218 295.786 205.218C296.307 205.218 296.764 205.319 297.157 205.521C297.55 205.723 297.885 206.013 298.161 206.39C298.437 206.762 298.658 207.208 298.822 207.729C298.987 208.244 299.104 208.818 299.173 209.45V209.984C299.104 210.6 298.987 211.163 298.822 211.673C298.658 212.183 298.437 212.624 298.161 212.996C297.885 213.368 297.547 213.655 297.149 213.857C296.756 214.058 296.296 214.159 295.77 214.159C295.25 214.159 294.78 214.05 294.36 213.833C293.945 213.615 293.592 213.309 293.3 212.916C293.008 212.523 292.785 212.061 292.631 211.53C292.477 210.993 292.4 210.411 292.4 209.785ZM294.32 209.617V209.785C294.32 210.178 294.355 210.544 294.424 210.884C294.498 211.224 294.612 211.524 294.766 211.785C294.92 212.04 295.12 212.242 295.364 212.39C295.614 212.534 295.911 212.605 296.256 212.605C296.692 212.605 297.051 212.51 297.332 212.319C297.614 212.127 297.834 211.87 297.994 211.546C298.158 211.216 298.27 210.85 298.328 210.446V209.004C298.296 208.69 298.23 208.398 298.129 208.127C298.033 207.856 297.903 207.62 297.739 207.418C297.574 207.211 297.369 207.051 297.125 206.94C296.886 206.823 296.602 206.764 296.272 206.764C295.922 206.764 295.624 206.839 295.38 206.988C295.135 207.136 294.934 207.341 294.774 207.601C294.62 207.861 294.506 208.164 294.432 208.51C294.357 208.855 294.32 209.224 294.32 209.617ZM306.783 211.665C306.783 211.474 306.735 211.301 306.64 211.147C306.544 210.988 306.361 210.844 306.09 210.717C305.824 210.589 305.431 210.473 304.91 210.366C304.454 210.265 304.034 210.146 303.651 210.008C303.274 209.864 302.95 209.692 302.679 209.49C302.408 209.288 302.198 209.049 302.05 208.773C301.901 208.496 301.827 208.178 301.827 207.816C301.827 207.466 301.904 207.134 302.058 206.82C302.212 206.507 302.432 206.23 302.719 205.991C303.006 205.752 303.354 205.564 303.763 205.426C304.177 205.288 304.64 205.218 305.15 205.218C305.872 205.218 306.491 205.341 307.006 205.585C307.527 205.824 307.925 206.151 308.202 206.565C308.478 206.974 308.616 207.436 308.616 207.952H306.695C306.695 207.723 306.637 207.511 306.52 207.314C306.409 207.112 306.239 206.95 306.01 206.828C305.782 206.701 305.495 206.637 305.15 206.637C304.82 206.637 304.547 206.69 304.329 206.796C304.116 206.897 303.957 207.03 303.851 207.195C303.75 207.359 303.699 207.54 303.699 207.737C303.699 207.88 303.726 208.01 303.779 208.127C303.837 208.239 303.933 208.342 304.066 208.438C304.199 208.528 304.379 208.613 304.608 208.693C304.841 208.773 305.134 208.85 305.484 208.924C306.143 209.062 306.709 209.24 307.182 209.458C307.66 209.67 308.026 209.947 308.281 210.287C308.536 210.621 308.664 211.046 308.664 211.562C308.664 211.944 308.581 212.295 308.417 212.613C308.257 212.927 308.024 213.2 307.715 213.434C307.407 213.663 307.038 213.841 306.608 213.968C306.183 214.096 305.705 214.159 305.173 214.159C304.393 214.159 303.731 214.021 303.189 213.745C302.647 213.463 302.236 213.105 301.954 212.669C301.678 212.228 301.54 211.771 301.54 211.299H303.396C303.418 211.655 303.516 211.939 303.691 212.151C303.872 212.358 304.095 212.51 304.361 212.605C304.632 212.696 304.91 212.741 305.197 212.741C305.543 212.741 305.832 212.696 306.066 212.605C306.3 212.51 306.478 212.382 306.6 212.223C306.722 212.058 306.783 211.872 306.783 211.665ZM316.33 207.131V214H314.409V205.378H316.218L316.33 207.131ZM316.019 209.37L315.365 209.362C315.365 208.767 315.44 208.217 315.589 207.713C315.737 207.208 315.955 206.77 316.242 206.398C316.529 206.021 316.885 205.731 317.31 205.529C317.74 205.322 318.237 205.218 318.8 205.218C319.193 205.218 319.552 205.277 319.876 205.394C320.205 205.505 320.489 205.683 320.728 205.928C320.973 206.172 321.159 206.485 321.286 206.868C321.419 207.25 321.485 207.713 321.485 208.255V214H319.565V208.422C319.565 208.002 319.501 207.673 319.374 207.434C319.252 207.195 319.074 207.025 318.84 206.924C318.611 206.818 318.338 206.764 318.019 206.764C317.658 206.764 317.35 206.833 317.095 206.972C316.845 207.11 316.64 207.298 316.481 207.537C316.322 207.776 316.205 208.053 316.13 208.366C316.056 208.68 316.019 209.014 316.019 209.37ZM321.366 208.86L320.465 209.059C320.465 208.539 320.537 208.047 320.681 207.585C320.829 207.118 321.045 206.709 321.326 206.358C321.613 206.002 321.966 205.723 322.386 205.521C322.806 205.319 323.286 205.218 323.828 205.218C324.269 205.218 324.662 205.28 325.008 205.402C325.358 205.519 325.656 205.705 325.9 205.96C326.145 206.215 326.33 206.547 326.458 206.956C326.585 207.359 326.649 207.848 326.649 208.422V214H324.721V208.414C324.721 207.978 324.657 207.641 324.53 207.402C324.407 207.163 324.232 206.998 324.004 206.908C323.775 206.812 323.502 206.764 323.183 206.764C322.885 206.764 322.622 206.82 322.394 206.932C322.171 207.038 321.982 207.189 321.828 207.386C321.674 207.577 321.557 207.798 321.478 208.047C321.403 208.297 321.366 208.568 321.366 208.86ZM332.427 214.159C331.789 214.159 331.213 214.056 330.697 213.849C330.187 213.636 329.752 213.341 329.39 212.964C329.035 212.587 328.761 212.143 328.57 211.633C328.378 211.123 328.283 210.573 328.283 209.984V209.665C328.283 208.99 328.381 208.379 328.578 207.832C328.774 207.285 329.048 206.818 329.398 206.43C329.749 206.037 330.163 205.736 330.642 205.529C331.12 205.322 331.638 205.218 332.195 205.218C332.812 205.218 333.351 205.322 333.813 205.529C334.275 205.736 334.658 206.029 334.961 206.406C335.269 206.778 335.497 207.221 335.646 207.737C335.8 208.252 335.877 208.82 335.877 209.442V210.263H329.215V208.884H333.98V208.733C333.97 208.387 333.901 208.063 333.773 207.76C333.651 207.458 333.463 207.213 333.208 207.027C332.953 206.841 332.613 206.748 332.188 206.748C331.869 206.748 331.585 206.818 331.335 206.956C331.09 207.088 330.886 207.282 330.721 207.537C330.557 207.792 330.429 208.1 330.339 208.462C330.254 208.818 330.211 209.219 330.211 209.665V209.984C330.211 210.361 330.262 210.712 330.363 211.036C330.469 211.354 330.623 211.633 330.825 211.872C331.027 212.111 331.271 212.3 331.558 212.438C331.845 212.571 332.172 212.637 332.538 212.637C333 212.637 333.412 212.544 333.773 212.358C334.135 212.173 334.448 211.91 334.714 211.57L335.726 212.55C335.54 212.821 335.298 213.081 335 213.331C334.703 213.575 334.339 213.774 333.909 213.928C333.484 214.082 332.99 214.159 332.427 214.159ZM341.328 205.378V206.78H336.467V205.378H341.328ZM337.869 203.266H339.79V211.617C339.79 211.883 339.827 212.088 339.901 212.231C339.981 212.369 340.09 212.462 340.228 212.51C340.366 212.558 340.528 212.582 340.714 212.582C340.847 212.582 340.974 212.574 341.097 212.558C341.219 212.542 341.317 212.526 341.391 212.51L341.399 213.976C341.24 214.024 341.054 214.066 340.842 214.104C340.634 214.141 340.395 214.159 340.124 214.159C339.683 214.159 339.293 214.082 338.953 213.928C338.613 213.769 338.347 213.511 338.156 213.155C337.965 212.799 337.869 212.327 337.869 211.737V203.266Z" fill="#464646"/>
<defs>
<filter id="filter0_d_0_1" x="0" y="2" width="165" height="232" filterUnits="userSpaceOnUse" color-interpolation-filters="sRGB">
<feFlood flood-opacity="0" result="BackgroundImageFix"/>
<feColorMatrix in="SourceAlpha" type="matrix" values="0 0 0 0 0 0 0 0 0 0 0 0 0 0 0 0 0 0 127 0" result="hardAlpha"/>
<feOffset dy="4"/>
<feGaussianBlur stdDeviation="2"/>
<feComposite in2="hardAlpha" operator="out"/>
<feColorMatrix type="matrix" values="0 0 0 0 0 0 0 0 0 0 0 0 0 0 0 0 0 0 0.15 0"/>
<feBlend mode="normal" in2="BackgroundImageFix" result="effect1_dropShadow_0_1"/>
<feBlend mode="normal" in="SourceGraphic" in2="effect1_dropShadow_0_1" result="shape"/>
</filter>
<filter id="filter1_d_0_1" x="221" y="90" width="165" height="144" filterUnits="userSpaceOnUse" color-interpolation-filters="sRGB">
<feFlood flood-opacity="0" result="BackgroundImageFix"/>
<feColorMatrix in="SourceAlpha" type="matrix" values="0 0 0 0 0 0 0 0 0 0 0 0 0 0 0 0 0 0 127 0" result="hardAlpha"/>
<feOffset dy="4"/>
<feGaussianBlur stdDeviation="2"/>
<feComposite in2="hardAlpha" operator="out"/>
<feColorMatrix type="matrix" values="0 0 0 0 0 0 0 0 0 0 0 0 0 0 0 0 0 0 0.15 0"/>
<feBlend mode="normal" in2="BackgroundImageFix" result="effect1_dropShadow_0_1"/>
<feBlend mode="normal" in="SourceGraphic" in2="effect1_dropShadow_0_1" result="shape"/>
</filter>
<filter id="filter2_d_0_1" x="9" y="10" width="147" height="40" filterUnits="userSpaceOnUse" color-interpolation-filters="sRGB">
<feFlood flood-opacity="0" result="BackgroundImageFix"/>
<feColorMatrix in="SourceAlpha" type="matrix" values="0 0 0 0 0 0 0 0 0 0 0 0 0 0 0 0 0 0 127 0" result="hardAlpha"/>
<feOffset dy="1"/>
<feGaussianBlur stdDeviation="1.5"/>
<feColorMatrix type="matrix" values="0 0 0 0 0.613948 0 0 0 0 0.613948 0 0 0 0 0.613948 0 0 0 0.5 0"/>
<feBlend mode="normal" in2="BackgroundImageFix" result="effect1_dropShadow_0_1"/>
<feBlend mode="normal" in="SourceGraphic" in2="effect1_dropShadow_0_1" result="shape"/>
</filter>
<filter id="filter3_d_0_1" x="222" y="0" width="163" height="40" filterUnits="userSpaceOnUse" color-interpolation-filters="sRGB">
<feFlood flood-opacity="0" result="BackgroundImageFix"/>
<feColorMatrix in="SourceAlpha" type="matrix" values="0 0 0 0 0 0 0 0 0 0 0 0 0 0 0 0 0 0 127 0" result="hardAlpha"/>
<feOffset dy="1"/>
<feGaussianBlur stdDeviation="1.5"/>
<feColorMatrix type="matrix" values="0 0 0 0 0.613948 0 0 0 0 0.613948 0 0 0 0 0.613948 0 0 0 0.5 0"/>
<feBlend mode="normal" in2="BackgroundImageFix" result="effect1_dropShadow_0_1"/>
<feBlend mode="normal" in="SourceGraphic" in2="effect1_dropShadow_0_1" result="shape"/>
</filter>
<clipPath id="clip0_0_1">
<rect width="141" height="34" fill="white" transform="translate(12 12)"/>
</clipPath>
<clipPath id="clip1_0_1">
<rect width="157" height="34" fill="white" transform="translate(225 2)"/>
</clipPath>
</defs>
</svg>
