<svg width="386" height="232" viewBox="0 0 386 232" fill="none" xmlns="http://www.w3.org/2000/svg">
<path d="M289.5 81L292.387 76H286.613L289.5 81ZM289 61V76.5H290V61H289Z" fill="#979797"/>
<path d="M195 17.5L190 14.6132L190 20.3868L195 17.5ZM177 18L190.5 18L190.5 17L177 17L177 18Z" fill="#979797"/>
<g filter="url(#filter0_d_0_1)">
<g clip-path="url(#clip0_0_1)">
<rect x="4" width="157" height="224" rx="6" fill="white"/>
<path d="M39.62 75.36L41.26 76.66C40.06 78.24 38.16 79.2 35.9 79.2C32 79.2 28.94 76.06 28.94 72.14C28.94 68.24 32 65.06 35.9 65.06C38.12 65.06 40 66.02 41.22 67.54L39.58 68.82C38.68 67.8 37.42 67.1 35.9 67.1C33.16 67.1 31.06 69.36 31.06 72.14C31.06 74.94 33.16 77.16 35.9 77.16C37.42 77.16 38.76 76.48 39.62 75.36ZM47.3719 77.2C48.9319 77.2 50.2119 76.06 50.2119 74.3C50.2119 72.6 48.9319 71.48 47.3719 71.48C45.8319 71.48 44.5519 72.6 44.5519 74.3C44.5519 76.06 45.8319 77.2 47.3719 77.2ZM47.3719 79.2C44.7319 79.2 42.5119 77.26 42.5119 74.3C42.5119 71.34 44.7319 69.46 47.3719 69.46C50.0319 69.46 52.2719 71.34 52.2719 74.3C52.2719 77.26 50.0319 79.2 47.3719 79.2ZM65.1972 71.48C63.8372 71.48 62.9372 72.46 62.9372 73.98V79H60.8772V73.76C60.8572 72.32 60.0972 71.48 58.9772 71.48C57.7772 71.48 56.6172 72.14 56.6172 73.98V79H54.5572V69.66H56.6172V71.06C57.2572 69.78 58.7972 69.46 59.5572 69.46C61.0572 69.46 61.9572 70.12 62.4972 71.32C63.3572 69.7 64.7972 69.46 65.6372 69.46C67.9572 69.46 69.2372 70.96 69.2372 73.62V79H67.1772V73.8C67.1772 72.34 66.3972 71.48 65.1972 71.48ZM74.0981 74.38C74.0981 76.24 75.4981 77.22 76.9381 77.22C78.4781 77.22 79.7381 76.1 79.7381 74.38C79.7381 72.64 78.4781 71.46 76.9381 71.46C75.4181 71.46 74.0981 72.56 74.0981 74.38ZM72.0181 69.66H74.0781V71.04C74.6581 70.02 75.9181 69.46 77.1981 69.46C79.7181 69.46 81.8381 71.4 81.8381 74.34C81.8381 77.32 79.7181 79.2 77.1981 79.2C75.9181 79.2 74.6581 78.7 74.0781 77.66V83.54H72.0181V69.66ZM85.667 74.3C85.667 76.02 86.987 77.2 88.527 77.2C90.047 77.2 91.407 76.14 91.407 74.3C91.407 72.48 89.927 71.46 88.527 71.46C86.987 71.46 85.667 72.58 85.667 74.3ZM93.467 79H91.427V77.66C90.787 78.68 89.487 79.2 88.287 79.2C85.787 79.2 83.547 77.3 83.547 74.32C83.547 71.34 85.787 69.46 88.287 69.46C89.407 69.46 90.787 69.92 91.427 70.98V69.66H93.467V79ZM98.4141 73.98V79H96.3541V69.66H98.4141V71.06C98.9541 70 100.254 69.46 101.274 69.46C103.534 69.46 104.834 70.9 104.834 73.56V79H102.774V73.8C102.774 72.3 102.014 71.48 100.814 71.48C99.5941 71.48 98.4141 72.14 98.4141 73.98ZM115.927 69.66L110.147 83.56H107.987L110.007 78.56L106.307 69.66H108.507L111.107 76.06L113.727 69.66H115.927ZM129.294 73.66L127.234 67.88L125.174 73.66H129.294ZM133.574 79H131.334L130.014 75.56H124.454L123.134 79H120.874L126.074 65.22H128.374L133.574 79Z" fill="#666666"/>
<path d="M39.62 114.36L41.26 115.66C40.06 117.24 38.16 118.2 35.9 118.2C32 118.2 28.94 115.06 28.94 111.14C28.94 107.24 32 104.06 35.9 104.06C38.12 104.06 40 105.02 41.22 106.54L39.58 107.82C38.68 106.8 37.42 106.1 35.9 106.1C33.16 106.1 31.06 108.36 31.06 111.14C31.06 113.94 33.16 116.16 35.9 116.16C37.42 116.16 38.76 115.48 39.62 114.36ZM47.3719 116.2C48.9319 116.2 50.2119 115.06 50.2119 113.3C50.2119 111.6 48.9319 110.48 47.3719 110.48C45.8319 110.48 44.5519 111.6 44.5519 113.3C44.5519 115.06 45.8319 116.2 47.3719 116.2ZM47.3719 118.2C44.7319 118.2 42.5119 116.26 42.5119 113.3C42.5119 110.34 44.7319 108.46 47.3719 108.46C50.0319 108.46 52.2719 110.34 52.2719 113.3C52.2719 116.26 50.0319 118.2 47.3719 118.2ZM65.1972 110.48C63.8372 110.48 62.9372 111.46 62.9372 112.98V118H60.8772V112.76C60.8572 111.32 60.0972 110.48 58.9772 110.48C57.7772 110.48 56.6172 111.14 56.6172 112.98V118H54.5572V108.66H56.6172V110.06C57.2572 108.78 58.7972 108.46 59.5572 108.46C61.0572 108.46 61.9572 109.12 62.4972 110.32C63.3572 108.7 64.7972 108.46 65.6372 108.46C67.9572 108.46 69.2372 109.96 69.2372 112.62V118H67.1772V112.8C67.1772 111.34 66.3972 110.48 65.1972 110.48ZM74.0981 113.38C74.0981 115.24 75.4981 116.22 76.9381 116.22C78.4781 116.22 79.7381 115.1 79.7381 113.38C79.7381 111.64 78.4781 110.46 76.9381 110.46C75.4181 110.46 74.0981 111.56 74.0981 113.38ZM72.0181 108.66H74.0781V110.04C74.6581 109.02 75.9181 108.46 77.1981 108.46C79.7181 108.46 81.8381 110.4 81.8381 113.34C81.8381 116.32 79.7181 118.2 77.1981 118.2C75.9181 118.2 74.6581 117.7 74.0781 116.66V122.54H72.0181V108.66ZM85.667 113.3C85.667 115.02 86.987 116.2 88.527 116.2C90.047 116.2 91.407 115.14 91.407 113.3C91.407 111.48 89.927 110.46 88.527 110.46C86.987 110.46 85.667 111.58 85.667 113.3ZM93.467 118H91.427V116.66C90.787 117.68 89.487 118.2 88.287 118.2C85.787 118.2 83.547 116.3 83.547 113.32C83.547 110.34 85.787 108.46 88.287 108.46C89.407 108.46 90.787 108.92 91.427 109.98V108.66H93.467V118ZM98.4141 112.98V118H96.3541V108.66H98.4141V110.06C98.9541 109 100.254 108.46 101.274 108.46C103.534 108.46 104.834 109.9 104.834 112.56V118H102.774V112.8C102.774 111.3 102.014 110.48 100.814 110.48C99.5941 110.48 98.4141 111.14 98.4141 112.98ZM115.927 108.66L110.147 122.56H107.987L110.007 117.56L106.307 108.66H108.507L111.107 115.06L113.727 108.66H115.927ZM128.094 111.7H124.694V116.06H128.154C129.434 116.06 130.174 115 130.174 113.94C130.174 112.92 129.414 111.7 128.094 111.7ZM124.694 106.16V109.88H127.754C128.874 109.88 129.454 108.98 129.454 107.94C129.454 106.82 128.754 106.16 127.614 106.16H124.694ZM131.654 107.86C131.654 108.94 131.214 110.12 129.874 110.66C131.474 111.04 132.394 112.64 132.394 113.96C132.394 116.14 130.874 118 128.254 118H122.554V104.22H127.834C130.174 104.22 131.654 105.6 131.654 107.86Z" fill="#666666"/>
<path d="M39.62 153.36L41.26 154.66C40.06 156.24 38.16 157.2 35.9 157.2C32 157.2 28.94 154.06 28.94 150.14C28.94 146.24 32 143.06 35.9 143.06C38.12 143.06 40 144.02 41.22 145.54L39.58 146.82C38.68 145.8 37.42 145.1 35.9 145.1C33.16 145.1 31.06 147.36 31.06 150.14C31.06 152.94 33.16 155.16 35.9 155.16C37.42 155.16 38.76 154.48 39.62 153.36ZM47.3719 155.2C48.9319 155.2 50.2119 154.06 50.2119 152.3C50.2119 150.6 48.9319 149.48 47.3719 149.48C45.8319 149.48 44.5519 150.6 44.5519 152.3C44.5519 154.06 45.8319 155.2 47.3719 155.2ZM47.3719 157.2C44.7319 157.2 42.5119 155.26 42.5119 152.3C42.5119 149.34 44.7319 147.46 47.3719 147.46C50.0319 147.46 52.2719 149.34 52.2719 152.3C52.2719 155.26 50.0319 157.2 47.3719 157.2ZM65.1972 149.48C63.8372 149.48 62.9372 150.46 62.9372 151.98V157H60.8772V151.76C60.8572 150.32 60.0972 149.48 58.9772 149.48C57.7772 149.48 56.6172 150.14 56.6172 151.98V157H54.5572V147.66H56.6172V149.06C57.2572 147.78 58.7972 147.46 59.5572 147.46C61.0572 147.46 61.9572 148.12 62.4972 149.32C63.3572 147.7 64.7972 147.46 65.6372 147.46C67.9572 147.46 69.2372 148.96 69.2372 151.62V157H67.1772V151.8C67.1772 150.34 66.3972 149.48 65.1972 149.48ZM74.0981 152.38C74.0981 154.24 75.4981 155.22 76.9381 155.22C78.4781 155.22 79.7381 154.1 79.7381 152.38C79.7381 150.64 78.4781 149.46 76.9381 149.46C75.4181 149.46 74.0981 150.56 74.0981 152.38ZM72.0181 147.66H74.0781V149.04C74.6581 148.02 75.9181 147.46 77.1981 147.46C79.7181 147.46 81.8381 149.4 81.8381 152.34C81.8381 155.32 79.7181 157.2 77.1981 157.2C75.9181 157.2 74.6581 156.7 74.0781 155.66V161.54H72.0181V147.66ZM85.667 152.3C85.667 154.02 86.987 155.2 88.527 155.2C90.047 155.2 91.407 154.14 91.407 152.3C91.407 150.48 89.927 149.46 88.527 149.46C86.987 149.46 85.667 150.58 85.667 152.3ZM93.467 157H91.427V155.66C90.787 156.68 89.487 157.2 88.287 157.2C85.787 157.2 83.547 155.3 83.547 152.32C83.547 149.34 85.787 147.46 88.287 147.46C89.407 147.46 90.787 147.92 91.427 148.98V147.66H93.467V157ZM98.4141 151.98V157H96.3541V147.66H98.4141V149.06C98.9541 148 100.254 147.46 101.274 147.46C103.534 147.46 104.834 148.9 104.834 151.56V157H102.774V151.8C102.774 150.3 102.014 149.48 100.814 149.48C99.5941 149.48 98.4141 150.14 98.4141 151.98ZM115.927 147.66L110.147 161.56H107.987L110.007 156.56L106.307 147.66H108.507L111.107 154.06L113.727 147.66H115.927ZM132.374 153.36L134.014 154.66C132.814 156.24 130.914 157.2 128.654 157.2C124.754 157.2 121.694 154.06 121.694 150.14C121.694 146.24 124.754 143.06 128.654 143.06C130.874 143.06 132.754 144.02 133.974 145.54L132.334 146.82C131.434 145.8 130.174 145.1 128.654 145.1C125.914 145.1 123.814 147.36 123.814 150.14C123.814 152.94 125.914 155.16 128.654 155.16C130.174 155.16 131.514 154.48 132.374 153.36Z" fill="#666666"/>
<path d="M39.62 192.36L41.26 193.66C40.06 195.24 38.16 196.2 35.9 196.2C32 196.2 28.94 193.06 28.94 189.14C28.94 185.24 32 182.06 35.9 182.06C38.12 182.06 40 183.02 41.22 184.54L39.58 185.82C38.68 184.8 37.42 184.1 35.9 184.1C33.16 184.1 31.06 186.36 31.06 189.14C31.06 191.94 33.16 194.16 35.9 194.16C37.42 194.16 38.76 193.48 39.62 192.36ZM47.3719 194.2C48.9319 194.2 50.2119 193.06 50.2119 191.3C50.2119 189.6 48.9319 188.48 47.3719 188.48C45.8319 188.48 44.5519 189.6 44.5519 191.3C44.5519 193.06 45.8319 194.2 47.3719 194.2ZM47.3719 196.2C44.7319 196.2 42.5119 194.26 42.5119 191.3C42.5119 188.34 44.7319 186.46 47.3719 186.46C50.0319 186.46 52.2719 188.34 52.2719 191.3C52.2719 194.26 50.0319 196.2 47.3719 196.2ZM65.1972 188.48C63.8372 188.48 62.9372 189.46 62.9372 190.98V196H60.8772V190.76C60.8572 189.32 60.0972 188.48 58.9772 188.48C57.7772 188.48 56.6172 189.14 56.6172 190.98V196H54.5572V186.66H56.6172V188.06C57.2572 186.78 58.7972 186.46 59.5572 186.46C61.0572 186.46 61.9572 187.12 62.4972 188.32C63.3572 186.7 64.7972 186.46 65.6372 186.46C67.9572 186.46 69.2372 187.96 69.2372 190.62V196H67.1772V190.8C67.1772 189.34 66.3972 188.48 65.1972 188.48ZM74.0981 191.38C74.0981 193.24 75.4981 194.22 76.9381 194.22C78.4781 194.22 79.7381 193.1 79.7381 191.38C79.7381 189.64 78.4781 188.46 76.9381 188.46C75.4181 188.46 74.0981 189.56 74.0981 191.38ZM72.0181 186.66H74.0781V188.04C74.6581 187.02 75.9181 186.46 77.1981 186.46C79.7181 186.46 81.8381 188.4 81.8381 191.34C81.8381 194.32 79.7181 196.2 77.1981 196.2C75.9181 196.2 74.6581 195.7 74.0781 194.66V200.54H72.0181V186.66ZM85.667 191.3C85.667 193.02 86.987 194.2 88.527 194.2C90.047 194.2 91.407 193.14 91.407 191.3C91.407 189.48 89.927 188.46 88.527 188.46C86.987 188.46 85.667 189.58 85.667 191.3ZM93.467 196H91.427V194.66C90.787 195.68 89.487 196.2 88.287 196.2C85.787 196.2 83.547 194.3 83.547 191.32C83.547 188.34 85.787 186.46 88.287 186.46C89.407 186.46 90.787 186.92 91.427 187.98V186.66H93.467V196ZM98.4141 190.98V196H96.3541V186.66H98.4141V188.06C98.9541 187 100.254 186.46 101.274 186.46C103.534 186.46 104.834 187.9 104.834 190.56V196H102.774V190.8C102.774 189.3 102.014 188.48 100.814 188.48C99.5941 188.48 98.4141 189.14 98.4141 190.98ZM115.927 186.66L110.147 200.56H107.987L110.007 195.56L106.307 186.66H108.507L111.107 193.06L113.727 186.66H115.927ZM124.674 184.2V194.04H127.914C130.614 194.04 131.994 191.88 131.994 189.14C131.994 186.42 130.614 184.2 127.914 184.2H124.674ZM127.914 196H122.554V182.22H127.914C131.834 182.22 134.114 185.22 134.114 189.14C134.114 193.06 131.834 196 127.914 196Z" fill="#666666"/>
</g>
</g>
<g filter="url(#filter1_d_0_1)">
<rect x="197" y="97" width="185" height="127" rx="6" fill="white"/>
</g>
<g clip-path="url(#clip1_0_1)" filter="url(#filter2_d_0_1)">
<rect x="12" y="10" width="141" height="34" rx="6" fill="black"/>
<path d="M71.1928 23.665V31.0906H73.4939C75.485 31.0906 76.4805 29.4259 76.4805 27.4022C76.4805 25.3622 75.485 23.665 73.4939 23.665H71.1928ZM73.4939 33H69.1038V21.7555H73.4939C76.709 21.7555 78.5694 24.2035 78.5694 27.4022C78.5694 30.601 76.709 33 73.4939 33ZM81.9801 29.1811C81.9801 30.4214 82.9756 31.2374 84.0853 31.2374C85.1788 31.2374 86.1743 30.4867 86.1743 29.1811C86.1743 27.8755 85.1298 27.1248 84.0853 27.1248C82.9756 27.1248 81.9801 27.9408 81.9801 29.1811ZM88.1653 33H86.1743V32.0208C85.701 32.8042 84.5423 33.1469 83.8079 33.1469C81.8005 33.1469 79.9237 31.6128 79.9237 29.1811C79.9237 26.7494 81.8005 25.2154 83.8079 25.2154C84.5097 25.2154 85.6031 25.4928 86.1743 26.3251V25.3786H88.1653V33ZM93.0329 22.4736V25.3786H94.6486V26.9779H93.0329V33H91.0582V26.9779H89.671V25.3786H91.0582V22.4736H93.0329ZM97.6307 29.1811C97.6307 30.4214 98.6262 31.2374 99.736 31.2374C100.829 31.2374 101.825 30.4867 101.825 29.1811C101.825 27.8755 100.78 27.1248 99.736 27.1248C98.6262 27.1248 97.6307 27.9408 97.6307 29.1811ZM103.816 33H101.825V32.0208C101.352 32.8042 100.193 33.1469 99.4585 33.1469C97.4512 33.1469 95.5744 31.6128 95.5744 29.1811C95.5744 26.7494 97.4512 25.2154 99.4585 25.2154C100.16 25.2154 101.254 25.4928 101.825 26.3251V25.3786H103.816V33ZM108.096 29.1648C108.096 30.4378 109.026 31.2538 110.12 31.2538C111.229 31.2538 112.127 30.4214 112.127 29.1648C112.127 27.9245 111.229 27.1085 110.12 27.1085C109.092 27.1085 108.096 27.8592 108.096 29.1648ZM108.063 31.9718V33H106.072V21.2333H108.063V26.3904C108.471 25.6234 109.418 25.2154 110.446 25.2154C112.453 25.2154 114.183 26.7658 114.183 29.1974C114.183 31.6128 112.453 33.1632 110.446 33.1632C109.451 33.1632 108.471 32.7389 108.063 31.9718ZM117.553 29.1811C117.553 30.4214 118.548 31.2374 119.658 31.2374C120.751 31.2374 121.747 30.4867 121.747 29.1811C121.747 27.8755 120.702 27.1248 119.658 27.1248C118.548 27.1248 117.553 27.9408 117.553 29.1811ZM123.738 33H121.747V32.0208C121.274 32.8042 120.115 33.1469 119.38 33.1469C117.373 33.1469 115.496 31.6128 115.496 29.1811C115.496 26.7494 117.373 25.2154 119.38 25.2154C120.082 25.2154 121.176 25.4928 121.747 26.3251V25.3786H123.738V33ZM128.883 30.0787L127.838 29.8176C125.864 29.2954 125.684 28.3651 125.684 27.4838C125.684 26.2435 126.99 25.2154 128.491 25.2154C129.944 25.2154 131.38 25.8682 131.461 27.6144H129.568C129.519 27.0432 128.997 26.831 128.54 26.831C128.034 26.831 127.577 27.0106 127.577 27.5818C127.577 27.8918 127.936 28.104 128.377 28.2182L129.65 28.5283C131.412 29.0179 131.641 30.193 131.641 30.8131C131.641 32.3798 130.107 33.1632 128.524 33.1632C127.022 33.1632 125.505 32.233 125.456 30.601H127.316C127.365 31.1395 127.985 31.6128 128.72 31.5638C129.291 31.5475 129.715 31.2374 129.715 30.7968C129.731 30.4051 129.454 30.2093 128.883 30.0787ZM134.89 28.4957H138.807C138.66 27.4512 137.877 26.88 136.898 26.88C135.853 26.88 135.037 27.4512 134.89 28.4957ZM140.749 29.1648C140.749 29.3606 140.733 29.6707 140.717 29.8502H134.907C135.037 30.8784 135.886 31.4822 137.012 31.4822C137.779 31.4822 138.546 31.1558 138.921 30.503C139.395 30.7642 139.933 31.0579 140.439 31.319C139.737 32.6246 138.285 33.1632 136.881 33.1632C134.711 33.1632 132.932 31.5638 132.932 29.1648C132.932 26.7494 134.711 25.2154 136.881 25.2154C139.036 25.2154 140.749 26.7494 140.749 29.1648Z" fill="white"/>
<path fill-rule="evenodd" clip-rule="evenodd" d="M41.4064 23.4302H38.7397C38.644 23.4302 38.5666 23.5083 38.5666 23.6048V24.9996C38.5666 25.073 38.6085 25.1399 38.6741 25.1718L41.3089 26.4412C41.4343 26.5018 41.5795 26.4094 41.5795 26.269V23.6048C41.5795 23.5083 41.5019 23.4302 41.4064 23.4302V23.4302Z" fill="white"/>
<path fill-rule="evenodd" clip-rule="evenodd" d="M57.0876 23.6041C57.0871 23.5078 57.0097 23.4302 56.9145 23.4302H48.0259C47.9302 23.4302 47.8528 23.5083 47.8528 23.6048V26.1067C47.8528 26.2033 47.9304 26.2814 48.0259 26.2814H50.9631V34.9978C50.9631 35.0944 51.0408 35.1725 51.1363 35.1725H53.8029C53.8986 35.1725 53.976 35.0941 53.976 34.9978V26.3439L56.9164 26.3488C57.0157 26.3488 57.0965 26.2675 57.096 26.1671L57.0871 23.6039L57.0876 23.6041Z" fill="white"/>
<path fill-rule="evenodd" clip-rule="evenodd" d="M49.5797 32.5862H46.314V23.6048C46.314 23.5083 46.2364 23.4302 46.1409 23.4302H43.4569C43.3612 23.4302 43.2838 23.5085 43.2838 23.6048V34.9978C43.2838 35.0944 43.3614 35.1725 43.4569 35.1725H49.7439C49.7468 35.1705 49.7502 35.1674 49.7531 35.1642V32.7609C49.7531 32.6643 49.6754 32.5862 49.5799 32.5862H49.5797Z" fill="white"/>
<path fill-rule="evenodd" clip-rule="evenodd" d="M41.472 29.4829L38.8372 28.2135C38.7118 28.1529 38.5666 28.2453 38.5666 28.3857V34.9978C38.5666 35.0943 38.6442 35.1724 38.7397 35.1724H41.4064C41.5021 35.1724 41.5795 35.0941 41.5795 34.9978V29.6549C41.5795 29.5814 41.5376 29.5145 41.472 29.4827V29.4829Z" fill="white"/>
<path fill-rule="evenodd" clip-rule="evenodd" d="M34.182 28.167C33.3148 27.8272 32.6883 27.5817 32.6883 27.0421C32.6883 26.5025 33.1523 26.1388 33.8432 26.1388L33.8663 26.1398C34.4203 26.1875 35.0448 26.4257 36.001 26.8713C36.0893 26.9125 36.1942 26.8723 36.2327 26.7825L37.1573 24.6342C37.1937 24.5497 37.1588 24.451 37.0777 24.4091C35.7536 23.726 34.7188 23.4302 33.6703 23.4302C31.1804 23.4302 29.5715 24.848 29.5715 27.0421C29.5715 29.3494 31.5371 30.0739 32.9724 30.6027C33.8499 30.9263 34.4839 31.1598 34.4839 31.7045C34.4839 32.0215 34.3778 32.2882 34.1769 32.4757C33.9476 32.6901 33.6158 32.7869 33.2174 32.7562C32.4192 32.6944 31.7642 32.5178 30.893 32.1215C30.8042 32.0811 30.6996 32.1232 30.6622 32.2137L29.843 34.2023C29.808 34.2869 29.8437 34.3855 29.9252 34.4258C30.9853 34.9513 32.0138 35.1691 33.406 35.1691C36.0188 35.1691 37.5788 33.9232 37.5788 31.8364C37.5788 29.4983 35.6154 28.7288 34.182 28.167Z" fill="white"/>
<path fill-rule="evenodd" clip-rule="evenodd" d="M60.8461 21.3132C59.4628 19.7799 57.5836 18.8304 55.5538 18.6384L33.216 18.6001C28.6859 18.6001 25 22.3325 25 26.9203C25 29.9316 26.5883 32.5738 28.9608 34.0344C29.0279 34.0759 29.1163 34.0459 29.1469 33.9726L30.0513 31.8053C30.0753 31.7477 30.0557 31.6814 30.0048 31.6461C30.0046 31.6461 30.0043 31.6456 30.0038 31.6456C28.4669 30.571 27.5496 28.8045 27.5496 26.9205C27.5496 23.7564 30.0918 21.1822 33.2165 21.1822H54.8567C57.8823 21.1822 60.408 23.6166 60.4499 26.6801C60.4709 28.2235 59.8891 29.703 58.817 30.8382C57.8193 31.8943 56.522 32.5137 55.1394 32.6037C55.043 32.6101 54.9671 32.689 54.9671 32.7869V35.0079C54.9671 35.1122 55.0529 35.1968 55.1558 35.1914C57.1852 35.0827 59.0944 34.2056 60.5683 32.6935C62.1365 31.0844 63 28.9777 63 26.7616C63 24.685 62.2351 22.8525 60.8461 21.3132Z" fill="#0088FF"/>
</g>
<g clip-path="url(#clip2_0_1)" filter="url(#filter3_d_0_1)">
<rect x="210" y="10" width="159" height="34" rx="6" fill="#3366FF"/>
<path d="M223.486 23.8771L227.288 22.1962V33H225.281V24.9542L223.486 25.6723V23.8771ZM233.447 29.1648C233.447 26.7494 235.373 25.2154 237.559 25.2154C238.849 25.2154 240.007 25.7376 240.726 26.7005L239.142 27.8918C238.767 27.3859 238.196 27.1411 237.559 27.1411C236.45 27.1411 235.422 27.9245 235.422 29.1648C235.422 30.4051 236.45 31.2538 237.559 31.2538C238.196 31.2538 238.767 30.9926 239.142 30.4867L240.742 31.6618C240.024 32.6246 238.865 33.1632 237.559 33.1632C235.373 33.1632 233.447 31.5638 233.447 29.1648ZM242.415 33V21.2333H244.406V33H242.415ZM248.629 25.3786V33H246.655V25.3786H248.629ZM246.361 22.4246C246.361 21.7555 246.948 21.2333 247.65 21.2333C248.352 21.2333 248.907 21.7555 248.907 22.4246C248.907 23.1264 248.352 23.6323 247.65 23.6323C246.948 23.6323 246.361 23.1264 246.361 22.4246ZM250.388 29.1648C250.388 26.7494 252.314 25.2154 254.501 25.2154C255.79 25.2154 256.949 25.7376 257.667 26.7005L256.084 27.8918C255.709 27.3859 255.137 27.1411 254.501 27.1411C253.391 27.1411 252.363 27.9245 252.363 29.1648C252.363 30.4051 253.391 31.2538 254.501 31.2538C255.137 31.2538 255.709 30.9926 256.084 30.4867L257.683 31.6618C256.965 32.6246 255.807 33.1632 254.501 33.1632C252.314 33.1632 250.388 31.5638 250.388 29.1648ZM264.204 33L261.331 29.736V33H259.357V21.2333H261.331V27.6634L263.437 25.3786H266.015L262.817 28.7242L266.701 33H264.204ZM273.673 33L270.474 25.3786H272.596L274.554 30.4541L276.512 25.3786H278.65L275.435 33H273.673ZM281.226 28.4957H285.143C284.996 27.4512 284.212 26.88 283.233 26.88C282.189 26.88 281.373 27.4512 281.226 28.4957ZM287.085 29.1648C287.085 29.3606 287.068 29.6707 287.052 29.8502H281.242C281.373 30.8784 282.221 31.4822 283.347 31.4822C284.115 31.4822 284.882 31.1558 285.257 30.503C285.73 30.7642 286.269 31.0579 286.775 31.319C286.073 32.6246 284.62 33.1632 283.217 33.1632C281.046 33.1632 279.267 31.5638 279.267 29.1648C279.267 26.7494 281.046 25.2154 283.217 25.2154C285.371 25.2154 287.085 26.7494 287.085 29.1648ZM290.752 30.3072V33H288.761V25.3786H290.752V27.1738C291.144 25.7866 292.042 25.2154 292.907 25.2154C293.445 25.2154 293.853 25.3133 294.163 25.4928L293.821 27.288C293.347 27.0758 292.858 27.0758 292.662 27.0758C291.307 27.0758 290.752 28.2835 290.752 30.3072ZM297.446 25.3786V33H295.471V25.3786H297.446ZM295.177 22.4246C295.177 21.7555 295.765 21.2333 296.467 21.2333C297.168 21.2333 297.723 21.7555 297.723 22.4246C297.723 23.1264 297.168 23.6323 296.467 23.6323C295.765 23.6323 295.177 23.1264 295.177 22.4246ZM308.197 25.3786V33H306.223V26.9779H302.404V33H300.396V26.9779H298.944V25.3786H300.396V24.7747C300.396 22.5389 301.49 21.2333 303.644 21.2333H304.476V23.1427H303.644C302.714 23.1427 302.404 23.8445 302.404 24.7747V25.3786H308.197ZM305.929 22.4246C305.929 21.7555 306.516 21.2333 307.218 21.2333C307.92 21.2333 308.475 21.7555 308.475 22.4246C308.475 23.1264 307.92 23.6323 307.218 23.6323C306.516 23.6323 305.929 23.1264 305.929 22.4246ZM309.947 29.1648C309.947 26.7494 311.873 25.2154 314.059 25.2154C315.349 25.2154 316.507 25.7376 317.226 26.7005L315.642 27.8918C315.267 27.3859 314.696 27.1411 314.059 27.1411C312.95 27.1411 311.922 27.9245 311.922 29.1648C311.922 30.4051 312.95 31.2538 314.059 31.2538C314.696 31.2538 315.267 30.9926 315.642 30.4867L317.242 31.6618C316.524 32.6246 315.365 33.1632 314.059 33.1632C311.873 33.1632 309.947 31.5638 309.947 29.1648ZM320.387 29.1811C320.387 30.4214 321.382 31.2374 322.492 31.2374C323.585 31.2374 324.581 30.4867 324.581 29.1811C324.581 27.8755 323.536 27.1248 322.492 27.1248C321.382 27.1248 320.387 27.9408 320.387 29.1811ZM326.572 33H324.581V32.0208C324.108 32.8042 322.949 33.1469 322.214 33.1469C320.207 33.1469 318.33 31.6128 318.33 29.1811C318.33 26.7494 320.207 25.2154 322.214 25.2154C322.916 25.2154 324.01 25.4928 324.581 26.3251V25.3786H326.572V33ZM331.439 22.4736V25.3786H333.055V26.9779H331.439V33H329.465V26.9779H328.078V25.3786H329.465V22.4736H331.439ZM336.525 25.3786V33H334.55V25.3786H336.525ZM334.256 22.4246C334.256 21.7555 334.844 21.2333 335.545 21.2333C336.247 21.2333 336.802 21.7555 336.802 22.4246C336.802 23.1264 336.247 23.6323 335.545 23.6323C334.844 23.6323 334.256 23.1264 334.256 22.4246ZM342.266 31.2048C343.376 31.2048 344.257 30.4051 344.257 29.1648C344.257 27.9408 343.376 27.1738 342.266 27.1738C341.156 27.1738 340.275 27.9408 340.275 29.1648C340.275 30.4051 341.156 31.2048 342.266 31.2048ZM342.266 33.1469C340.112 33.1469 338.3 31.5638 338.3 29.1648C338.3 26.7494 340.112 25.2154 342.266 25.2154C344.42 25.2154 346.232 26.7494 346.232 29.1648C346.232 31.5638 344.42 33.1469 342.266 33.1469ZM350.008 28.9363V33H348.017V25.3786H350.008V26.5046C350.449 25.6723 351.379 25.2154 352.277 25.2154C354.055 25.2154 355.116 26.3251 355.116 28.4957V33H353.125V28.8547C353.125 27.745 352.538 27.1574 351.673 27.1574C350.759 27.1574 350.008 27.6144 350.008 28.9363Z" fill="white"/>
</g>
<rect x="208" y="194" width="16" height="16" rx="8" fill="#40DD91"/>
<path d="M212 201.722L214.947 204.5L220 199.5" stroke="white" stroke-width="2"/>
<mask id="mask0_0_1" style="mask-type:luminance" maskUnits="userSpaceOnUse" x="208" y="113" width="48" height="65">
<path fill-rule="evenodd" clip-rule="evenodd" d="M208 113H255.945V177.755H208V113Z" fill="white"/>
</mask>
<g mask="url(#mask0_0_1)">
<path fill-rule="evenodd" clip-rule="evenodd" d="M223.94 145.369H223.982C223.982 144.751 224.009 144.132 223.976 143.515C223.906 142.215 223.335 141.47 222.09 141.373C220.686 141.263 219.26 141.267 217.855 141.378C216.689 141.47 216.139 142.029 216.049 143.21C215.941 144.632 215.944 146.076 216.046 147.499C216.131 148.672 216.688 149.232 217.84 149.35C219.271 149.497 220.724 149.503 222.155 149.345C223.265 149.223 223.773 148.676 223.923 147.553C224.018 146.837 223.94 146.098 223.94 145.369M216.046 129.136C216.029 129.136 216.011 129.136 215.993 129.136C215.993 129.754 215.97 130.373 215.998 130.989C216.058 132.319 216.592 133.037 217.845 133.169C219.275 133.32 220.73 133.324 222.161 133.162C223.27 133.037 223.807 132.492 223.922 131.366C224.071 129.917 224.073 128.445 223.922 126.996C223.803 125.849 223.295 125.328 222.165 125.205C220.708 125.047 219.232 125.068 217.769 125.205C216.747 125.301 216.163 125.943 216.06 126.952C215.987 127.673 216.046 128.408 216.046 129.136M247.938 145.4H247.953C247.953 144.783 247.977 144.163 247.948 143.547C247.888 142.237 247.331 141.498 246.092 141.375C244.661 141.232 243.206 141.215 241.776 141.387C240.629 141.525 240.119 142.015 240.031 143.178C239.919 144.627 239.92 146.098 240.031 147.548C240.118 148.697 240.649 149.21 241.78 149.342C243.211 149.51 244.664 149.493 246.097 149.353C247.254 149.241 247.797 148.609 247.925 147.42C247.996 146.754 247.938 146.074 247.938 145.4M232.017 141.373C232.017 141.355 232.017 141.337 232.016 141.319C231.406 141.319 230.795 141.295 230.186 141.324C228.836 141.388 228.12 141.957 228.023 143.273C227.921 144.669 227.921 146.085 228.028 147.48C228.126 148.744 228.852 149.348 230.135 149.397C231.354 149.445 232.577 149.441 233.796 149.398C235.041 149.355 235.764 148.777 235.899 147.57C236.063 146.095 236.045 144.599 235.898 143.118C235.798 142.106 235.187 141.478 234.173 141.386C233.46 141.321 232.736 141.373 232.017 141.373M243.963 133.188V133.227C244.546 133.227 245.129 133.246 245.71 133.223C247.004 133.173 247.748 132.615 247.89 131.376C248.055 129.929 248.039 128.456 247.896 127.006C247.782 125.856 247.276 125.336 246.146 125.208C244.689 125.043 243.207 125.034 241.751 125.214C240.607 125.356 240.11 125.853 240.021 127.021C239.914 128.444 239.915 129.887 240.016 131.311C240.099 132.484 240.657 133.013 241.805 133.17C242.513 133.267 243.243 133.188 243.963 133.188M231.986 125.182C231.986 125.168 231.986 125.152 231.986 125.138C231.376 125.138 230.764 125.111 230.156 125.143C228.863 125.213 228.198 125.717 228.051 126.959C227.877 128.433 227.881 129.934 228.052 131.409C228.185 132.552 228.697 133.079 229.836 133.168C231.241 133.277 232.667 133.275 234.073 133.176C235.211 133.096 235.794 132.506 235.909 131.359C236.055 129.91 236.061 128.438 235.906 126.989C235.783 125.841 235.276 125.36 234.143 125.201C233.437 125.102 232.706 125.182 231.986 125.182M208.002 145.369C208.002 136.803 208.001 128.238 208.002 119.672C208.003 115.559 210.531 113.001 214.595 113.001C226.189 113 237.782 113 249.376 113.001C253.394 113.002 255.943 115.566 255.943 119.612C255.945 136.772 255.945 153.931 255.943 171.091C255.943 175.155 253.41 177.723 249.402 177.726C245.852 177.729 242.301 177.712 238.751 177.74C238.14 177.745 237.944 177.592 237.951 176.949C237.984 173.916 237.98 170.882 237.962 167.849C237.943 164.592 235.986 162.26 232.823 161.68C229.749 161.117 226.591 163.409 226.142 166.54C225.794 168.97 226.051 171.416 225.985 173.854C225.956 174.948 225.967 176.044 225.987 177.14C225.994 177.565 225.869 177.735 225.422 177.734C221.567 177.718 217.709 177.814 213.857 177.693C210.382 177.583 208.009 174.902 208.005 171.319C207.995 162.669 208.002 154.019 208.002 145.369" fill="#3366FF"/>
</g>
<path fill-rule="evenodd" clip-rule="evenodd" d="M214.347 127.275C214.817 122.519 217.505 119.49 222.21 119.037C228.945 118.39 235.736 118.292 242.445 119.039C247.645 119.618 249.98 122.071 250.53 127.483C251.223 134.315 251.214 141.25 250.53 148.083C249.998 153.393 247.528 155.958 242.423 156.549C235.837 157.312 229.143 157.293 222.56 156.581C216.795 155.958 214.338 152.575 214.06 146.306C213.93 143.399 214.037 140.482 214.037 137.569C214.12 137.568 214.2 137.568 214.281 137.568C214.281 134.135 214.011 130.672 214.347 127.275Z" fill="#3366FF" fill-opacity="0.5"/>
<mask id="mask1_0_1" style="mask-type:luminance" maskUnits="userSpaceOnUse" x="208" y="113" width="48" height="65">
<path fill-rule="evenodd" clip-rule="evenodd" d="M208 113H255.945V177.755H208V113Z" fill="white"/>
</mask>
<g mask="url(#mask1_0_1)">
<path fill-rule="evenodd" clip-rule="evenodd" d="M223.94 145.369H223.982C223.982 144.751 224.009 144.132 223.976 143.515C223.906 142.215 223.335 141.47 222.09 141.373C220.686 141.263 219.26 141.267 217.855 141.378C216.689 141.47 216.139 142.029 216.049 143.21C215.941 144.632 215.944 146.076 216.046 147.499C216.131 148.672 216.688 149.232 217.84 149.35C219.271 149.497 220.724 149.503 222.155 149.345C223.265 149.223 223.773 148.676 223.923 147.553C224.018 146.837 223.94 146.098 223.94 145.369M216.046 129.136C216.029 129.136 216.011 129.136 215.993 129.136C215.993 129.754 215.97 130.373 215.998 130.989C216.058 132.319 216.592 133.037 217.845 133.169C219.275 133.32 220.73 133.324 222.161 133.162C223.27 133.037 223.807 132.492 223.922 131.366C224.071 129.917 224.073 128.445 223.922 126.996C223.803 125.849 223.295 125.328 222.165 125.205C220.708 125.047 219.232 125.068 217.769 125.205C216.747 125.301 216.163 125.943 216.06 126.952C215.987 127.673 216.046 128.408 216.046 129.136M247.938 145.4H247.953C247.953 144.783 247.977 144.163 247.948 143.547C247.888 142.237 247.331 141.498 246.092 141.375C244.661 141.232 243.206 141.215 241.776 141.387C240.629 141.525 240.119 142.015 240.031 143.178C239.919 144.627 239.92 146.098 240.031 147.548C240.118 148.697 240.649 149.21 241.78 149.342C243.211 149.51 244.664 149.493 246.097 149.353C247.254 149.241 247.797 148.609 247.925 147.42C247.996 146.754 247.938 146.074 247.938 145.4M232.017 141.373C232.017 141.355 232.017 141.337 232.016 141.319C231.406 141.319 230.795 141.295 230.186 141.324C228.836 141.388 228.12 141.957 228.023 143.273C227.921 144.669 227.921 146.085 228.028 147.48C228.126 148.744 228.852 149.348 230.135 149.397C231.354 149.445 232.577 149.441 233.796 149.398C235.041 149.355 235.764 148.777 235.899 147.57C236.063 146.095 236.045 144.599 235.898 143.118C235.798 142.106 235.187 141.478 234.173 141.386C233.46 141.321 232.736 141.373 232.017 141.373M243.963 133.188V133.227C244.546 133.227 245.129 133.246 245.71 133.223C247.004 133.173 247.748 132.615 247.89 131.376C248.055 129.929 248.039 128.456 247.896 127.006C247.782 125.856 247.276 125.336 246.146 125.208C244.689 125.043 243.207 125.034 241.751 125.214C240.607 125.356 240.11 125.853 240.021 127.021C239.914 128.444 239.915 129.887 240.016 131.311C240.099 132.484 240.657 133.013 241.805 133.17C242.513 133.267 243.243 133.188 243.963 133.188M231.986 125.182C231.986 125.168 231.986 125.152 231.986 125.138C231.376 125.138 230.764 125.111 230.156 125.143C228.863 125.213 228.198 125.717 228.051 126.959C227.877 128.433 227.881 129.934 228.052 131.409C228.185 132.552 228.697 133.079 229.836 133.168C231.241 133.277 232.667 133.275 234.073 133.176C235.211 133.096 235.794 132.506 235.909 131.359C236.055 129.91 236.061 128.438 235.906 126.989C235.783 125.841 235.276 125.36 234.143 125.201C233.437 125.102 232.706 125.182 231.986 125.182M208.002 145.369C208.002 136.803 208.001 128.238 208.002 119.672C208.003 115.559 210.531 113.001 214.595 113.001C226.189 113 237.782 113 249.376 113.001C253.394 113.002 255.943 115.566 255.943 119.612C255.945 136.772 255.945 153.931 255.943 171.091C255.943 175.155 253.41 177.723 249.402 177.726C245.852 177.729 242.301 177.712 238.751 177.74C238.14 177.745 237.944 177.592 237.951 176.949C237.984 173.916 237.98 170.882 237.962 167.849C237.943 164.592 235.986 162.26 232.823 161.68C229.749 161.117 226.591 163.409 226.142 166.54C225.794 168.97 226.051 171.416 225.985 173.854C225.956 174.948 225.967 176.044 225.987 177.14C225.994 177.565 225.869 177.735 225.422 177.734C221.567 177.718 217.709 177.814 213.857 177.693C210.382 177.583 208.009 174.902 208.005 171.319C207.995 162.669 208.002 154.019 208.002 145.369" fill="#3366FF"/>
</g>
<path fill-rule="evenodd" clip-rule="evenodd" d="M214.347 127.275C214.817 122.519 217.505 119.49 222.21 119.037C228.945 118.39 235.736 118.292 242.445 119.039C247.645 119.618 249.98 122.071 250.53 127.483C251.223 134.315 251.214 141.25 250.53 148.083C249.998 153.393 247.528 155.958 242.423 156.549C235.837 157.312 229.143 157.293 222.56 156.581C216.795 155.958 214.338 152.575 214.06 146.306C213.93 143.399 214.037 140.482 214.037 137.569C214.12 137.568 214.2 137.568 214.281 137.568C214.281 134.135 214.011 130.672 214.347 127.275Z" fill="#3366FF" fill-opacity="0.5"/>
<path d="M326.322 126.698C329.986 126.699 332.96 129.711 332.961 133.423V135.504C332.961 136.83 331.899 137.906 330.59 137.906H313.203C311.895 137.906 310.833 136.83 310.833 135.504V133.423C310.833 129.711 313.807 126.699 317.471 126.698H318.296C319.242 127.14 320.855 127.499 321.897 127.499C322.938 127.499 324.551 127.14 325.497 126.698H326.322Z" fill="#3366FF"/>
<path d="M321.897 125.453C318.504 125.453 315.75 122.663 315.75 119.226C315.75 115.789 318.504 113 321.897 113C325.29 113 328.043 115.789 328.043 119.226C328.043 122.663 325.29 125.453 321.897 125.453Z" fill="#3366FF" fill-opacity="0.5"/>
<path d="M326.322 167.792C329.986 167.793 332.96 170.805 332.961 174.517V176.598C332.961 177.924 331.899 179 330.59 179H313.203C311.895 179 310.833 177.924 310.833 176.598V174.517C310.833 170.805 313.807 167.793 317.471 167.792H318.296C319.242 168.234 320.855 168.593 321.897 168.593C322.938 168.593 324.551 168.234 325.497 167.792H326.322Z" fill="#3366FF"/>
<path d="M321.897 166.547C318.504 166.547 315.75 163.758 315.75 160.321C315.75 156.884 318.504 154.094 321.897 154.094C325.29 154.094 328.043 156.884 328.043 160.321C328.043 163.758 325.29 166.547 321.897 166.547Z" fill="#3366FF" fill-opacity="0.5"/>
<path d="M285.754 126.698C289.418 126.699 292.392 129.711 292.392 133.423V135.504C292.392 136.83 291.33 137.906 290.022 137.906H272.635C271.326 137.906 270.264 136.83 270.264 135.504V133.423C270.265 129.711 273.239 126.699 276.903 126.698H277.728C278.674 127.14 280.287 127.499 281.328 127.499C282.37 127.499 283.983 127.14 284.929 126.698H285.754Z" fill="#3366FF"/>
<path d="M281.328 125.453C277.935 125.453 275.182 122.663 275.182 119.226C275.182 115.789 277.935 113 281.328 113C284.721 113 287.475 115.789 287.475 119.226C287.475 122.663 284.721 125.453 281.328 125.453Z" fill="#3366FF" fill-opacity="0.5"/>
<path d="M285.754 167.792C289.418 167.793 292.392 170.805 292.392 174.517V176.598C292.392 177.924 291.33 179 290.022 179H272.635C271.326 179 270.264 177.924 270.264 176.598V174.517C270.265 170.805 273.239 167.793 276.903 167.792H277.728C278.674 168.234 280.287 168.593 281.328 168.593C282.37 168.593 283.983 168.234 284.929 167.792H285.754Z" fill="#3366FF"/>
<path d="M281.328 166.547C277.935 166.547 275.182 163.758 275.182 160.321C275.182 156.884 277.935 154.094 281.328 154.094C284.721 154.094 287.475 156.884 287.475 160.321C287.475 163.758 284.721 166.547 281.328 166.547Z" fill="#3366FF" fill-opacity="0.5"/>
<path d="M326.322 126.698C329.986 126.699 332.96 129.711 332.961 133.423V135.504C332.961 136.83 331.899 137.906 330.59 137.906H313.203C311.895 137.906 310.833 136.83 310.833 135.504V133.423C310.833 129.711 313.807 126.699 317.471 126.698H318.296C319.242 127.14 320.855 127.499 321.897 127.499C322.938 127.499 324.551 127.14 325.497 126.698H326.322Z" fill="#3366FF"/>
<path d="M285.754 126.698C289.418 126.699 292.392 129.711 292.392 133.423V135.504C292.392 136.83 291.33 137.906 290.022 137.906H272.635C271.326 137.906 270.264 136.83 270.264 135.504V133.423C270.265 129.711 273.239 126.699 276.903 126.698H277.728C278.674 127.14 280.287 127.499 281.328 127.499C282.37 127.499 283.983 127.14 284.929 126.698H285.754Z" fill="#3366FF"/>
<path d="M285.754 167.792C289.418 167.793 292.392 170.806 292.392 174.517V176.598C292.392 177.924 291.33 179 290.022 179H272.635C271.326 179 270.264 177.924 270.264 176.598V174.517C270.265 170.806 273.239 167.793 276.903 167.792H277.728C278.674 168.234 280.287 168.593 281.328 168.593C282.37 168.593 283.983 168.234 284.929 167.792H285.754Z" fill="#3366FF"/>
<path d="M363.918 126.698C367.581 126.699 370.555 129.711 370.556 133.423V135.504C370.556 136.83 369.494 137.906 368.185 137.906H350.799C349.49 137.906 348.428 136.83 348.428 135.504V133.423C348.429 129.711 351.402 126.699 355.066 126.698H355.891C356.837 127.14 358.45 127.499 359.492 127.499C360.533 127.499 362.146 127.14 363.092 126.698H363.918Z" fill="#3366FF"/>
<path d="M359.492 125.453C356.099 125.453 353.345 122.663 353.345 119.226C353.345 115.789 356.099 113 359.492 113C362.885 113 365.639 115.789 365.639 119.226C365.639 122.663 362.885 125.453 359.492 125.453Z" fill="#3366FF" fill-opacity="0.5"/>
<path d="M363.918 167.792C367.581 167.793 370.555 170.805 370.556 174.517V176.598C370.556 177.924 369.494 179 368.185 179H350.799C349.49 179 348.428 177.924 348.428 176.598V174.517C348.429 170.805 351.402 167.793 355.066 167.792H355.891C356.837 168.234 358.45 168.593 359.492 168.593C360.533 168.593 362.146 168.234 363.092 167.792H363.918Z" fill="#3366FF"/>
<path d="M359.492 166.547C356.099 166.547 353.345 163.758 353.345 160.321C353.345 156.884 356.099 154.094 359.492 154.094C362.885 154.094 365.639 156.884 365.639 160.321C365.639 163.758 362.885 166.547 359.492 166.547Z" fill="#3366FF" fill-opacity="0.5"/>
<path d="M363.918 126.698C367.581 126.699 370.555 129.711 370.556 133.423V135.504C370.556 136.83 369.494 137.906 368.185 137.906H350.799C349.49 137.906 348.428 136.83 348.428 135.504V133.423C348.429 129.711 351.402 126.699 355.066 126.698H355.891C356.837 127.14 358.45 127.499 359.492 127.499C360.533 127.499 362.146 127.14 363.092 126.698H363.918Z" fill="#3366FF"/>
<path d="M363.918 167.792C367.581 167.793 370.555 170.806 370.556 174.517V176.598C370.556 177.924 369.494 179 368.185 179H350.799C349.49 179 348.428 177.924 348.428 176.598V174.517C348.429 170.806 351.402 167.793 355.066 167.792H355.891C356.837 168.234 358.45 168.593 359.492 168.593C360.533 168.593 362.146 168.234 363.092 167.792H363.918Z" fill="#3366FF"/>
<path d="M237.621 208H235.842V202.843L231.566 196.756H233.639L236.74 201.227L239.873 196.756H241.946L237.621 202.859V208ZM244.824 206.531C246.097 206.531 247.141 205.601 247.141 204.165C247.141 202.778 246.097 201.864 244.824 201.864C243.567 201.864 242.523 202.778 242.523 204.165C242.523 205.601 243.567 206.531 244.824 206.531ZM244.824 208.163C242.669 208.163 240.858 206.58 240.858 204.165C240.858 201.749 242.669 200.215 244.824 200.215C246.994 200.215 248.822 201.749 248.822 204.165C248.822 206.58 246.994 208.163 244.824 208.163ZM255.828 204.475V200.379H257.509V208H255.828V206.89C255.387 207.755 254.359 208.163 253.559 208.163C251.682 208.163 250.589 206.988 250.605 204.818V200.379H252.286V204.622C252.286 205.878 252.955 206.531 253.869 206.531C254.849 206.531 255.828 205.993 255.828 204.475ZM261.532 205.258V208H259.851V200.379H261.532V202.125C261.924 200.754 262.658 200.215 263.621 200.215C264.159 200.215 264.731 200.33 264.975 200.509L264.698 202.06C264.257 201.847 263.898 201.798 263.572 201.798C262.136 201.798 261.532 203.235 261.532 205.258ZM274.749 198.355H272.171V202.288H274.684C275.941 202.288 276.447 201.292 276.447 200.33C276.447 199.383 275.957 198.355 274.749 198.355ZM275.337 203.806L278.291 208H276.185L273.378 203.871H272.171V208H270.424V196.756H274.815C277.23 196.756 278.242 198.551 278.242 200.33C278.242 201.962 277.409 203.594 275.337 203.806ZM281.107 203.561H285.53C285.35 202.37 284.518 201.684 283.359 201.684C282.184 201.684 281.287 202.386 281.107 203.561ZM287.178 204.165C287.178 204.344 287.178 204.605 287.162 204.785H281.107C281.287 205.96 282.201 206.694 283.441 206.694C284.29 206.694 285.122 206.303 285.514 205.601L286.885 206.205C286.232 207.559 284.779 208.163 283.359 208.163C281.205 208.163 279.443 206.58 279.443 204.165C279.443 201.749 281.205 200.215 283.359 200.215C285.514 200.215 287.178 201.749 287.178 204.165ZM294.795 204.23C294.795 202.745 293.718 201.847 292.478 201.847C291.205 201.847 290.209 202.81 290.209 204.23C290.209 205.634 291.205 206.548 292.478 206.548C293.604 206.548 294.795 205.748 294.795 204.23ZM294.812 201.505V200.379H296.493V211.705H294.812V206.907C294.355 207.755 293.31 208.163 292.266 208.163C290.209 208.163 288.48 206.629 288.48 204.197C288.48 201.798 290.209 200.215 292.266 200.215C293.31 200.215 294.355 200.672 294.812 201.505ZM303.991 204.475V200.379H305.672V208H303.991V206.89C303.55 207.755 302.522 208.163 301.722 208.163C299.846 208.163 298.752 206.988 298.768 204.818V200.379H300.449V204.622C300.449 205.878 301.119 206.531 302.032 206.531C303.012 206.531 303.991 205.993 303.991 204.475ZM309.679 200.379V208H308.014V200.379H309.679ZM307.72 197.294C307.72 196.69 308.243 196.233 308.846 196.233C309.483 196.233 309.956 196.69 309.956 197.294C309.956 197.898 309.483 198.355 308.846 198.355C308.243 198.355 307.72 197.898 307.72 197.294ZM313.711 205.258V208H312.03V200.379H313.711V202.125C314.103 200.754 314.837 200.215 315.8 200.215C316.339 200.215 316.91 200.33 317.155 200.509L316.877 202.06C316.437 201.847 316.078 201.798 315.751 201.798C314.315 201.798 313.711 203.235 313.711 205.258ZM319.564 203.561H323.987C323.808 202.37 322.975 201.684 321.817 201.684C320.642 201.684 319.744 202.386 319.564 203.561ZM325.635 204.165C325.635 204.344 325.635 204.605 325.619 204.785H319.564C319.744 205.96 320.658 206.694 321.898 206.694C322.747 206.694 323.579 206.303 323.971 205.601L325.342 206.205C324.689 207.559 323.236 208.163 321.817 208.163C319.662 208.163 317.9 206.58 317.9 204.165C317.9 201.749 319.662 200.215 321.817 200.215C323.971 200.215 325.635 201.749 325.635 204.165ZM336.092 201.864C334.983 201.864 334.248 202.663 334.248 203.904V208H332.567V203.724C332.551 202.549 331.931 201.864 331.017 201.864C330.038 201.864 329.091 202.402 329.091 203.904V208H327.41V200.379H329.091V201.521C329.613 200.476 330.87 200.215 331.49 200.215C332.714 200.215 333.448 200.754 333.889 201.733C334.591 200.411 335.766 200.215 336.451 200.215C338.344 200.215 339.389 201.439 339.389 203.61V208H337.708V203.757C337.708 202.565 337.071 201.864 336.092 201.864ZM342.833 203.561H347.256C347.076 202.37 346.244 201.684 345.085 201.684C343.91 201.684 343.013 202.386 342.833 203.561ZM348.904 204.165C348.904 204.344 348.904 204.605 348.888 204.785H342.833C343.013 205.96 343.927 206.694 345.167 206.694C346.016 206.694 346.848 206.303 347.24 205.601L348.61 206.205C347.958 207.559 346.505 208.163 345.085 208.163C342.931 208.163 341.169 206.58 341.169 204.165C341.169 201.749 342.931 200.215 345.085 200.215C347.24 200.215 348.904 201.749 348.904 204.165ZM352.36 203.904V208H350.679V200.379H352.36V201.521C352.8 200.656 353.861 200.215 354.694 200.215C356.538 200.215 357.598 201.39 357.598 203.561V208H355.918V203.757C355.918 202.533 355.297 201.864 354.318 201.864C353.323 201.864 352.36 202.402 352.36 203.904ZM362.16 197.49V200.379H363.775V201.766H362.16V208H360.479V201.766H359.108V200.379H360.479V197.49H362.16ZM368.164 204.948L367.136 204.703C365.504 204.263 364.917 203.463 365.031 202.223C365.112 201.097 366.369 200.215 367.756 200.215C369.095 200.215 370.449 200.836 370.531 202.468H368.931C368.866 201.896 368.344 201.652 367.822 201.652C367.381 201.652 366.924 201.815 366.744 202.076C366.614 202.288 366.598 202.516 366.679 202.761C366.793 203.071 367.201 203.235 367.609 203.349L368.784 203.643C370.416 204.034 370.775 205.111 370.775 205.862C370.775 207.331 369.486 208.163 367.74 208.163C366.304 208.163 364.868 207.282 364.819 205.666H366.369C366.451 206.319 366.973 206.76 367.871 206.76C368.638 206.76 369.225 206.417 369.225 205.846C369.225 205.34 368.735 205.079 368.164 204.948Z" fill="#40DD91"/>
<defs>
<filter id="filter0_d_0_1" x="0" y="0" width="165" height="232" filterUnits="userSpaceOnUse" color-interpolation-filters="sRGB">
<feFlood flood-opacity="0" result="BackgroundImageFix"/>
<feColorMatrix in="SourceAlpha" type="matrix" values="0 0 0 0 0 0 0 0 0 0 0 0 0 0 0 0 0 0 127 0" result="hardAlpha"/>
<feOffset dy="4"/>
<feGaussianBlur stdDeviation="2"/>
<feComposite in2="hardAlpha" operator="out"/>
<feColorMatrix type="matrix" values="0 0 0 0 0 0 0 0 0 0 0 0 0 0 0 0 0 0 0.15 0"/>
<feBlend mode="normal" in2="BackgroundImageFix" result="effect1_dropShadow_0_1"/>
<feBlend mode="normal" in="SourceGraphic" in2="effect1_dropShadow_0_1" result="shape"/>
</filter>
<filter id="filter1_d_0_1" x="193" y="97" width="193" height="135" filterUnits="userSpaceOnUse" color-interpolation-filters="sRGB">
<feFlood flood-opacity="0" result="BackgroundImageFix"/>
<feColorMatrix in="SourceAlpha" type="matrix" values="0 0 0 0 0 0 0 0 0 0 0 0 0 0 0 0 0 0 127 0" result="hardAlpha"/>
<feOffset dy="4"/>
<feGaussianBlur stdDeviation="2"/>
<feComposite in2="hardAlpha" operator="out"/>
<feColorMatrix type="matrix" values="0 0 0 0 0 0 0 0 0 0 0 0 0 0 0 0 0 0 0.15 0"/>
<feBlend mode="normal" in2="BackgroundImageFix" result="effect1_dropShadow_0_1"/>
<feBlend mode="normal" in="SourceGraphic" in2="effect1_dropShadow_0_1" result="shape"/>
</filter>
<filter id="filter2_d_0_1" x="9" y="8" width="147" height="40" filterUnits="userSpaceOnUse" color-interpolation-filters="sRGB">
<feFlood flood-opacity="0" result="BackgroundImageFix"/>
<feColorMatrix in="SourceAlpha" type="matrix" values="0 0 0 0 0 0 0 0 0 0 0 0 0 0 0 0 0 0 127 0" result="hardAlpha"/>
<feOffset dy="1"/>
<feGaussianBlur stdDeviation="1.5"/>
<feColorMatrix type="matrix" values="0 0 0 0 0.613948 0 0 0 0 0.613948 0 0 0 0 0.613948 0 0 0 0.5 0"/>
<feBlend mode="normal" in2="BackgroundImageFix" result="effect1_dropShadow_0_1"/>
<feBlend mode="normal" in="SourceGraphic" in2="effect1_dropShadow_0_1" result="shape"/>
</filter>
<filter id="filter3_d_0_1" x="207" y="8" width="165" height="40" filterUnits="userSpaceOnUse" color-interpolation-filters="sRGB">
<feFlood flood-opacity="0" result="BackgroundImageFix"/>
<feColorMatrix in="SourceAlpha" type="matrix" values="0 0 0 0 0 0 0 0 0 0 0 0 0 0 0 0 0 0 127 0" result="hardAlpha"/>
<feOffset dy="1"/>
<feGaussianBlur stdDeviation="1.5"/>
<feColorMatrix type="matrix" values="0 0 0 0 0.613948 0 0 0 0 0.613948 0 0 0 0 0.613948 0 0 0 0.5 0"/>
<feBlend mode="normal" in2="BackgroundImageFix" result="effect1_dropShadow_0_1"/>
<feBlend mode="normal" in="SourceGraphic" in2="effect1_dropShadow_0_1" result="shape"/>
</filter>
<clipPath id="clip0_0_1">
<rect x="4" width="157" height="224" rx="6" fill="white"/>
</clipPath>
<clipPath id="clip1_0_1">
<rect width="141" height="34" fill="white" transform="translate(12 10)"/>
</clipPath>
<clipPath id="clip2_0_1">
<rect width="159" height="34" fill="white" transform="translate(210 10)"/>
</clipPath>
</defs>
</svg>
