<svg id="Duotone" xmlns="http://www.w3.org/2000/svg" viewBox="0 0 100 112"><defs><style>.cls-1{fill:#f0f2ff;}.cls-2{fill:#d6daff;}.cls-3,.cls-6{fill:#fff;}.cls-4,.cls-5{fill:none;}.cls-4,.cls-5,.cls-6{stroke:#4550e5;}.cls-4{stroke-miterlimit:10;}.cls-5,.cls-6{stroke-linecap:round;stroke-linejoin:round;}</style></defs><title>01- hand-globe</title><g id="Icons"><g id="Background"><g id="New_Symbol_57-7" data-name="New Symbol 57"><circle class="cls-1" cx="50" cy="56" r="40"/></g></g><g id="Scene"><circle class="cls-2" cx="56.47" cy="46.03" r="16.56"/><path class="cls-3" d="M71.49,39a16.6,16.6,0,0,0-10.24-8.86H58.78A2.27,2.27,0,0,0,56.5,32a2.19,2.19,0,0,0,2.16,2.56,1.76,1.76,0,0,1,1.7,2.2,1.8,1.8,0,0,1-1.77,1.3H52.33a4.55,4.55,0,0,0-4.63,4.15,4.38,4.38,0,0,0,4.38,4.62h2.58A1.15,1.15,0,0,1,55.81,48v.93a1,1,0,0,0,1,1,1,1,0,0,1,1,1v1.21a.8.8,0,0,1-.14.53,2.63,2.63,0,0,0,0,3.37,2.78,2.78,0,0,0,2.14.93h1A3.81,3.81,0,0,0,64.58,53V48.58a2.38,2.38,0,0,1,1.28-2.12,3.52,3.52,0,0,0,1.68-3,.15.15,0,0,0-.15-.15H65.68a.88.88,0,0,1-.88-.88v-1.1a.88.88,0,0,1,.88-.88h3.75A2.19,2.19,0,0,0,71.49,39Z"/><path class="cls-4" d="M71.49,39a16.6,16.6,0,0,0-10.24-8.86H58.78A2.27,2.27,0,0,0,56.5,32a2.19,2.19,0,0,0,2.16,2.56,1.76,1.76,0,0,1,1.7,2.21,1.8,1.8,0,0,1-1.77,1.3H52.33a4.55,4.55,0,0,0-4.63,4.15,4.38,4.38,0,0,0,4.38,4.62h2.58A1.15,1.15,0,0,1,55.81,48v.93a1,1,0,0,0,1,1,1,1,0,0,1,1,1v1.21a.8.8,0,0,1-.14.53,2.63,2.63,0,0,0,0,3.37,2.78,2.78,0,0,0,2.14.93h1A3.81,3.81,0,0,0,64.58,53V48.58a2.38,2.38,0,0,1,1.28-2.12,3.52,3.52,0,0,0,1.68-3l-.15-.15H65.68a.88.88,0,0,1-.88-.88v-1.1a.88.88,0,0,1,.88-.88h3.75A2.19,2.19,0,0,0,71.49,39Z"/><circle class="cls-5" cx="56.47" cy="46.03" r="16.56"/><ellipse class="cls-2" cx="53.48" cy="88.23" rx="10.35" ry="1.72"/><path class="cls-3" d="M35.09,74.33a82.42,82.42,0,0,0,9.55,2.47,18.8,18.8,0,0,0,10.83-1c3.37-1.37,8-3.4,13-5.95a2.05,2.05,0,0,0,1.12-2.2,2,2,0,0,0-2.48-1.51l-12,5.15a3.62,3.62,0,0,1-1.43.29H51c2.54,0,4.15-.78,4.73-2.3a1.38,1.38,0,0,0-1.3-1.84H48.12c-.87,0-3.73-4.14-7.82-4.14H35.09Z"/><path class="cls-3" d="M31.94,61.9h3.14a0,0,0,0,1,0,0V75.7a0,0,0,0,1,0,0H31.94a1,1,0,0,1-1-1V62.9A1,1,0,0,1,31.94,61.9Z" transform="translate(66.03 137.6) rotate(180)"/><path class="cls-5" d="M31.94,61.9h3.14a0,0,0,0,1,0,0V75.7a0,0,0,0,1,0,0H31.94a1,1,0,0,1-1-1V62.9A1,1,0,0,1,31.94,61.9Z" transform="translate(66.03 137.6) rotate(180)"/><rect class="cls-2" x="22.67" y="60.52" width="8.28" height="16.56" rx="1" ry="1" transform="translate(53.61 137.6) rotate(180)"/><rect class="cls-5" x="22.67" y="60.52" width="8.28" height="16.56" rx="1" ry="1" transform="translate(53.61 137.6) rotate(180)"/><path class="cls-5" d="M35.09,74.33a82.42,82.42,0,0,0,9.55,2.47,18.8,18.8,0,0,0,10.83-1c3.37-1.37,8-3.4,13-5.95a2.05,2.05,0,0,0,1.12-2.2,2,2,0,0,0-2.48-1.51l-12,5.15a3.62,3.62,0,0,1-1.43.29H51c2.54,0,4.15-.78,4.73-2.3a1.38,1.38,0,0,0-1.3-1.84H48.12c-.87,0-3.73-4.14-7.82-4.14H35.09Z"/><circle class="cls-6" cx="26.81" cy="72.94" r="1.92"/><line class="cls-5" x1="44.65" y1="71.56" x2="50.96" y2="71.56"/></g></g></svg>