<svg id="Duotone" xmlns="http://www.w3.org/2000/svg" xmlns:xlink="http://www.w3.org/1999/xlink" viewBox="0 0 100 112"><defs><style>.cls-1,.cls-3,.cls-7{fill:none;}.cls-2{fill:#f0f2ff;}.cls-3,.cls-7,.cls-8,.cls-9{stroke:#2963ff;stroke-linejoin:round;}.cls-3,.cls-8,.cls-9{stroke-linecap:round;}.cls-4{clip-path:url(#clip-path);}.cls-5,.cls-8{fill:#fff;}.cls-6,.cls-9{fill:#dce5ff;}</style><clipPath id="clip-path"><circle class="cls-1" cx="50" cy="55.83" r="40"/></clipPath></defs><title>110- prisoner-male-caucasian</title><g id="Icons"><g id="Background"><g id="New_Symbol_85-6" data-name="New Symbol 85"><path class="cls-2" d="M90,55.83a40,40,0,1,0-76.44,16.5H86.44A39.85,39.85,0,0,0,90,55.83Z"/><line class="cls-3" x1="10.5" y1="72.33" x2="88.5" y2="72.33"/><line class="cls-3" x1="6" y1="72.33" x2="8.5" y2="72.33"/><line class="cls-3" x1="90.5" y1="72.33" x2="93" y2="72.33"/></g></g><g id="Scene"><g class="cls-4"><path class="cls-5" d="M77,72.33V23.93a39,39,0,0,0-54,0v48.4Z"/><polyline class="cls-3" points="23 24.06 23 72.33 77 72.33 77 24.06"/><line class="cls-3" x1="47" y1="26.73" x2="32" y2="26.73"/><line class="cls-3" x1="47" y1="30.33" x2="32" y2="30.33"/><line class="cls-3" x1="47" y1="33.93" x2="32" y2="33.93"/><line class="cls-3" x1="47" y1="41.13" x2="32" y2="41.13"/><line class="cls-3" x1="47" y1="48.33" x2="32" y2="48.33"/><line class="cls-3" x1="47" y1="55.53" x2="32" y2="55.53"/><line class="cls-3" x1="47" y1="62.73" x2="32" y2="62.73"/><line class="cls-3" x1="47" y1="37.53" x2="30.2" y2="37.53"/><line class="cls-3" x1="47" y1="44.73" x2="32" y2="44.73"/><line class="cls-3" x1="47" y1="51.93" x2="30.2" y2="51.93"/><line class="cls-3" x1="47" y1="59.13" x2="32" y2="59.13"/><line class="cls-3" x1="47" y1="66.33" x2="30.2" y2="66.33"/><line class="cls-3" x1="53" y1="26.73" x2="68" y2="26.73"/><line class="cls-3" x1="53" y1="30.33" x2="68" y2="30.33"/><line class="cls-3" x1="53" y1="33.93" x2="68" y2="33.93"/><line class="cls-3" x1="53" y1="41.13" x2="68" y2="41.13"/><line class="cls-3" x1="53" y1="48.33" x2="68" y2="48.33"/><line class="cls-3" x1="53" y1="55.53" x2="68" y2="55.53"/><line class="cls-3" x1="53" y1="62.73" x2="68" y2="62.73"/><line class="cls-3" x1="53" y1="37.53" x2="69.8" y2="37.53"/><line class="cls-3" x1="53" y1="44.73" x2="68" y2="44.73"/><line class="cls-3" x1="53" y1="51.93" x2="69.8" y2="51.93"/><line class="cls-3" x1="53" y1="59.13" x2="68" y2="59.13"/><line class="cls-3" x1="53" y1="66.33" x2="69.8" y2="66.33"/><line class="cls-3" x1="47" y1="23.13" x2="35" y2="23.13"/><line class="cls-3" x1="53" y1="23.13" x2="66.2" y2="23.13"/></g><path class="cls-6" d="M59.6,67.53h5a1,1,0,0,0,1-1v-1.8a15.6,15.6,0,1,0-31.2,0v1.8a1,1,0,0,0,1,1h5v4.8H59.6Z"/><line class="cls-3" x1="40.4" y1="67.53" x2="40.4" y2="62.73"/><line class="cls-3" x1="59.6" y1="67.53" x2="59.6" y2="62.73"/><path class="cls-7" d="M59.6,67.53h5a1,1,0,0,0,1-1v-1.8a15.6,15.6,0,1,0-31.2,0v1.8a1,1,0,0,0,1,1h5v4.8H59.6Z"/><path class="cls-5" d="M46.4,49.53a3.6,3.6,0,0,0,7.2,0v-2.4H46.4Z"/><path class="cls-3" d="M46.4,49.53a3.6,3.6,0,0,0,7.2,0v-2.4H46.4Z"/><path class="cls-8" d="M44,74.32h2.4a2.41,2.41,0,0,1,2.4,2.4v2a2.4,2.4,0,0,1-2.4,2.4H45.2a1.2,1.2,0,0,1-1.2-1.2Z"/><path class="cls-8" d="M45.2,81.12a9.62,9.62,0,0,1-9.6-9.6v-4h4.8v4a4.8,4.8,0,0,0,4.8,4.8h1.2"/><path class="cls-8" d="M56,74.32H53.6a2.4,2.4,0,0,0-2.4,2.4v2a2.39,2.39,0,0,0,2.4,2.4h1.2a1.2,1.2,0,0,0,1.2-1.2Z"/><path class="cls-8" d="M54.8,81.12a9.62,9.62,0,0,0,9.6-9.6v-4H59.6v4a4.8,4.8,0,0,1-4.8,4.8H53.6"/><path class="cls-9" d="M42.8,81.13a1.2,1.2,0,0,0,2.4,0V75.52a1.2,1.2,0,1,0-2.4,0Z"/><path class="cls-9" d="M54.8,81.13a1.2,1.2,0,0,0,2.4,0V75.52a1.2,1.2,0,1,0-2.4,0Z"/><path class="cls-3" d="M56,82.33c0,2-2.69,3.6-6,3.6s-6-1.61-6-3.6"/><path class="cls-8" d="M60.2,35.73v-2.4a10.2,10.2,0,0,0-20.4,0v2.4a1.8,1.8,0,0,0-1.8,1.8v.6a1.79,1.79,0,0,0,1.8,1.8l.16,0a10.19,10.19,0,0,0,20.07,0l.17,0a1.8,1.8,0,0,0,1.8-1.8v-.6A1.81,1.81,0,0,0,60.2,35.73Z"/><path class="cls-3" d="M47,43.53a4.35,4.35,0,0,1,6,0"/><path class="cls-9" d="M42.88,38.65a2.39,2.39,0,0,0,2.7.65l3.53-1.41a2.38,2.38,0,0,1,1.78,0l3.53,1.41a2.39,2.39,0,0,0,2.7-.65l3.08-3.52H39.8Z"/><path class="cls-6" d="M61.4,32.13a11.4,11.4,0,1,0-22.8,0v3H61.4Z"/><path class="cls-3" d="M61.4,32.13a11.4,11.4,0,1,0-22.8,0v3H61.4Z"/><rect class="cls-6" x="38" y="30.33" width="24" height="4.8" rx="1" ry="1"/><rect class="cls-3" x="38" y="30.33" width="24" height="4.8" rx="1" ry="1"/><rect class="cls-8" x="42.8" y="56.73" width="14.4" height="7.2" rx="1.2" ry="1.2"/><line class="cls-3" x1="46.4" y1="59.13" x2="53.6" y2="59.13"/><line class="cls-3" x1="45.2" y1="61.53" x2="54.8" y2="61.53"/><line class="cls-3" x1="45.2" y1="56.73" x2="45.2" y2="49.88"/><line class="cls-3" x1="54.8" y1="56.73" x2="54.8" y2="49.88"/></g></g></svg>