<?xml version="1.0" encoding="utf-8"?>
<!-- Generator: Adobe Illustrator 22.0.0, SVG Export Plug-In . SVG Version: 6.00 Build 0)  -->
<svg version="1.1" id="Layer_1" xmlns="http://www.w3.org/2000/svg" xmlns:xlink="http://www.w3.org/1999/xlink" x="0px" y="0px"
	 viewBox="0 0 100 112" style="enable-background:new 0 0 100 112;" xml:space="preserve">
<style type="text/css">
	.st0{clip-path:url(#SVGID_2_);fill:#F0F2FF;}
	.st1{clip-path:url(#SVGID_2_);fill:#FFFFFF;}
	.st2{clip-path:url(#SVGID_2_);fill:none;stroke:#4550E5;stroke-linecap:round;stroke-linejoin:round;stroke-miterlimit:10;}
	.st3{clip-path:url(#SVGID_2_);fill:#D6DAFF;}
	.st4{clip-path:url(#SVGID_2_);fill:#4550E5;}
</style>
<g>
	<defs>
		<rect id="SVGID_1_" width="100" height="112"/>
	</defs>
	<clipPath id="SVGID_2_">
		<use xlink:href="#SVGID_1_"  style="overflow:visible;"/>
	</clipPath>
	<path class="st0" d="M90,56.5c0,22.1-17.9,40-40,40c-22.1,0-40-17.9-40-40s17.9-40,40-40C72.1,16.5,90,34.4,90,56.5"/>
	<path class="st1" d="M26.4,51.7c0-1.5-1.7-3.2-3.2-3.2c1.5,0,3.2-1.7,3.2-3.2c0,1.5,1.7,3.2,3.2,3.2C28.1,48.5,26.4,50.2,26.4,51.7
		"/>
	<path class="st2" d="M26.4,51.7c0-1.5-1.7-3.2-3.2-3.2c1.5,0,3.2-1.7,3.2-3.2c0,1.5,1.7,3.2,3.2,3.2C28.1,48.5,26.4,50.2,26.4,51.7
		z"/>
	<path class="st1" d="M64.2,77.3c0-1.5-1.7-3.2-3.2-3.2c1.5,0,3.2-1.7,3.2-3.2c0,1.5,1.7,3.2,3.2,3.2C65.8,74.2,64.2,75.8,64.2,77.3
		"/>
	<path class="st2" d="M64.2,77.3c0-1.5-1.7-3.2-3.2-3.2c1.5,0,3.2-1.7,3.2-3.2c0,1.5,1.7,3.2,3.2,3.2C65.8,74.2,64.2,75.8,64.2,77.3
		z"/>
	<path class="st1" d="M49.7,33c0-1.5-1.7-3.2-3.2-3.2c1.5,0,3.2-1.7,3.2-3.2c0,1.5,1.7,3.2,3.2,3.2C51.3,29.8,49.7,31.5,49.7,33"/>
	<path class="st2" d="M49.7,33c0-1.5-1.7-3.2-3.2-3.2c1.5,0,3.2-1.7,3.2-3.2c0,1.5,1.7,3.2,3.2,3.2C51.3,29.8,49.7,31.5,49.7,33z"/>
	<path class="st1" d="M58.8,54.7L52,47.9L31.9,67.9c-0.5,0.5-0.5,1.2,0,1.7l5.1,5.1c0.5,0.5,1.2,0.5,1.7,0L58.8,54.7z"/>
	<path class="st1" d="M36.1,73.9l-3.4-3.4c0,0-3,1.3-5.1,3.4c-1.6,1.6-3.5,6.4-4.3,8.6c-0.2,0.5,0.3,0.9,0.8,0.8
		c2.2-0.8,7-2.7,8.6-4.3C34.9,76.9,36.1,73.9,36.1,73.9"/>
	<path class="st2" d="M36.1,73.9l-3.4-3.4c0,0-3,1.3-5.1,3.4c-1.6,1.6-3.5,6.4-4.3,8.6c-0.2,0.5,0.3,0.9,0.8,0.8
		c2.2-0.8,7-2.7,8.6-4.3C34.9,76.9,36.1,73.9,36.1,73.9z"/>
	<path class="st3" d="M34.9,72.6c0,0-1.8,3.9-5,4.9c-0.5,0.1-0.9-0.3-0.8-0.8c1-3.2,4.9-5,4.9-5L34.9,72.6z"/>
	<path class="st2" d="M34.9,72.6c0,0-1.8,3.9-5,4.9c-0.5,0.1-0.9-0.3-0.8-0.8c1-3.2,4.9-5,4.9-5L34.9,72.6z"/>
	<path class="st2" d="M58.8,54.7L52,47.9L31.9,67.9c-0.5,0.5-0.5,1.2,0,1.7l5.1,5.1c0.5,0.5,1.2,0.5,1.7,0L58.8,54.7z"/>
	<path class="st1" d="M69.9,32.5c-2.6,1.1-5.6,3-7.3,4.7l-9.4,9.4l6.8,6.8l9.4-9.4c1.7-1.7,3.6-4.7,4.7-7.3L69.9,32.5z"/>
	<path class="st2" d="M69.9,32.5c-2.6,1.1-5.6,3-7.3,4.7l-9.4,9.4l6.8,6.8l9.4-9.4c1.7-1.7,3.6-4.7,4.7-7.3L69.9,32.5z"/>
	<path class="st1" d="M62.6,37.2l-8.2,4.5c-0.7,0.4-1.2,1.1-1.2,2l0,2.9L62.6,37.2z"/>
	<path class="st2" d="M62.6,37.2l-8.2,4.5c-0.7,0.4-1.2,1.1-1.2,2l0,2.9L62.6,37.2z"/>
	<path class="st1" d="M69.5,44L65,52.2c-0.4,0.7-1.1,1.2-2,1.2l-2.9,0L69.5,44z"/>
	<path class="st2" d="M69.5,44L65,52.2c-0.4,0.7-1.1,1.2-2,1.2l-2.9,0L69.5,44z"/>
	<path class="st1" d="M66,40.6c-0.5-0.5-1.2-0.5-1.7,0L57.9,47l1.7,1.7l6.4-6.4C66.5,41.8,66.5,41.1,66,40.6"/>
	<path class="st2" d="M66,40.6c-0.5-0.5-1.2-0.5-1.7,0L57.9,47l1.7,1.7l6.4-6.4C66.5,41.8,66.5,41.1,66,40.6z"/>
	<polygon class="st3" points="60.1,53.4 58.4,51.7 59.6,48.7 57.9,47 54.9,48.3 53.2,46.6 52,47.9 58.8,54.7 	"/>
	<path class="st2" d="M60.1,53.4l-0.9-0.9c-0.5-0.5-0.7-1.3-0.4-2l0.8-1.9L57.9,47l-1.9,0.8c-0.7,0.3-1.5,0.1-2-0.4l-0.9-0.8
		L52,47.9l6.8,6.8L60.1,53.4z"/>
	<path class="st4" d="M66.5,36.2c-0.2,0-0.3,0.1-0.4,0.2c-0.2,0.2-0.2,0.6,0,0.9c0.1,0.1,0.3,0.2,0.4,0.2c0.2,0,0.3-0.1,0.4-0.2
		c0.2-0.2,0.2-0.6,0-0.9C66.8,36.2,66.6,36.2,66.5,36.2"/>
	<path class="st4" d="M68.6,35.7c-0.2,0-0.3,0.1-0.4,0.2c-0.2,0.2-0.2,0.6,0,0.9c0.1,0.1,0.3,0.2,0.4,0.2c0.2,0,0.3-0.1,0.4-0.2
		c0.2-0.2,0.2-0.6,0-0.9C68.9,35.8,68.8,35.7,68.6,35.7"/>
	<path class="st4" d="M70.3,37.4c-0.2,0-0.3,0.1-0.4,0.2c-0.2,0.2-0.2,0.6,0,0.9c0.1,0.1,0.3,0.2,0.4,0.2c0.2,0,0.3-0.1,0.4-0.2
		c0.2-0.2,0.2-0.6,0-0.9C70.6,37.5,70.5,37.4,70.3,37.4"/>
	<path class="st4" d="M70.7,35.3c-0.2,0-0.3,0.1-0.4,0.2c-0.2,0.2-0.2,0.6,0,0.9c0.1,0.1,0.3,0.2,0.4,0.2c0.2,0,0.3-0.1,0.4-0.2
		c0.2-0.2,0.2-0.6,0-0.9C71,35.4,70.9,35.3,70.7,35.3"/>
	<path class="st4" d="M69,33.6c-0.2,0-0.3,0.1-0.4,0.2c-0.2,0.2-0.2,0.6,0,0.9c0.1,0.1,0.3,0.2,0.4,0.2c0.2,0,0.3-0.1,0.4-0.2
		c0.2-0.2,0.2-0.6,0-0.9C69.3,33.7,69.2,33.6,69,33.6"/>
	<path class="st4" d="M72.4,37c-0.2,0-0.3,0.1-0.4,0.2c-0.2,0.2-0.2,0.6,0,0.9c0.1,0.1,0.3,0.2,0.4,0.2c0.2,0,0.3-0.1,0.4-0.2
		c0.2-0.2,0.2-0.6,0-0.9C72.8,37.1,72.6,37,72.4,37"/>
	<path class="st4" d="M68.2,37.9c-0.2,0-0.3,0.1-0.4,0.2c-0.2,0.2-0.2,0.6,0,0.9c0.1,0.1,0.3,0.2,0.4,0.2c0.2,0,0.3-0.1,0.4-0.2
		c0.2-0.2,0.2-0.6,0-0.9C68.5,37.9,68.3,37.9,68.2,37.9"/>
	<path class="st4" d="M69.9,39.6c-0.2,0-0.3,0.1-0.4,0.2c-0.2,0.2-0.2,0.6,0,0.9c0.1,0.1,0.3,0.2,0.4,0.2c0.2,0,0.3-0.1,0.4-0.2
		c0.2-0.2,0.2-0.6,0-0.9C70.2,39.6,70,39.6,69.9,39.6"/>
	<path class="st3" d="M52.4,56c0.5-0.5,0.5-1.2,0-1.7c-0.5-0.5-1.2-0.5-1.7,0l-0.9,0.9c-0.5,0.5-0.5,1.2,0,1.7
		c0.5,0.5,1.2,0.5,1.7,0L52.4,56z"/>
	<path class="st2" d="M52.4,56c0.5-0.5,0.5-1.2,0-1.7c-0.5-0.5-1.2-0.5-1.7,0l-0.9,0.9c-0.5,0.5-0.5,1.2,0,1.7
		c0.5,0.5,1.2,0.5,1.7,0L52.4,56z"/>
	<path class="st1" d="M40,66.6c-0.5-0.5-1.2-0.5-1.7,0l-4.7,4.7l1.7,1.7l4.7-4.7C40.5,67.9,40.5,67.1,40,66.6"/>
	<path class="st1" d="M40.3,67.2c-0.1-0.2-0.1-0.4-0.3-0.6c-0.5-0.5-1.2-0.5-1.7,0l-4.7,4.7l0.9,0.9l4.7-4.7
		C39.5,67.2,39.9,67.1,40.3,67.2"/>
	<path class="st2" d="M40,66.6c-0.5-0.5-1.2-0.5-1.7,0l-4.7,4.7l1.7,1.7l4.7-4.7C40.5,67.9,40.5,67.1,40,66.6z"/>
	<path class="st1" d="M31.9,67.9l-0.5-1.4c-0.2-0.7-0.1-1.5,0.5-2c0.6-0.6,1.3-0.9,2.1-1l2.6-0.3L31.9,67.9z"/>
	<path class="st2" d="M31.9,67.9l-0.5-1.4c-0.2-0.7-0.1-1.5,0.5-2c0.6-0.6,1.3-0.9,2.1-1l2.6-0.3L31.9,67.9z"/>
	<path class="st1" d="M38.7,74.8l1.4,0.5c0.7,0.2,1.5,0.1,2-0.5c0.6-0.6,0.9-1.3,1-2.1l0.3-2.6L38.7,74.8z"/>
	<path class="st2" d="M38.7,74.8l1.4,0.5c0.7,0.2,1.5,0.1,2-0.5c0.6-0.6,0.9-1.3,1-2.1l0.3-2.6L38.7,74.8z"/>
	<path class="st3" d="M69.9,32.5l4.2,4.2c0.9-2.1,1.2-3.9,0.4-4.7C73.8,31.3,72,31.7,69.9,32.5"/>
	<path class="st2" d="M69.9,32.5l4.2,4.2c0.9-2.1,1.2-3.9,0.4-4.7C73.8,31.3,72,31.7,69.9,32.5z"/>
</g>
</svg>
