<svg width="723" height="217" viewBox="0 0 723 217" fill="none" xmlns="http://www.w3.org/2000/svg">
<path d="M624.5 84L627.387 79H621.613L624.5 84ZM624 56V79.5H625V56H624Z" fill="#979797"/>
<g filter="url(#filter0_d_0_1)">
<rect x="530" width="189" height="32" rx="10" fill="white"/>
<path d="M574.694 9.49L578.43 18.8525L582.219 9.49H584.45L578.386 24.015L572.462 9.49H574.694ZM590.995 14.4775H592.972V23H590.995V22.1075C590.184 22.8658 589.312 23.245 588.379 23.245C587.2 23.245 586.226 22.8192 585.456 21.9675C584.692 21.0983 584.31 20.0133 584.31 18.7125C584.31 17.435 584.692 16.3704 585.456 15.5187C586.22 14.6671 587.177 14.2412 588.326 14.2412C589.318 14.2412 590.207 14.6496 590.995 15.4662V14.4775ZM586.322 18.7125C586.322 19.5292 586.541 20.1942 586.979 20.7075C587.428 21.2267 587.994 21.4862 588.676 21.4862C589.405 21.4862 589.995 21.2354 590.444 20.7337C590.893 20.2146 591.117 19.5554 591.117 18.7562C591.117 17.9571 590.893 17.2979 590.444 16.7787C589.995 16.2712 589.411 16.0175 588.694 16.0175C588.017 16.0175 587.451 16.2742 586.996 16.7875C586.547 17.3067 586.322 17.9483 586.322 18.7125ZM597.426 8.22125V23H595.457V8.22125H597.426ZM601.889 14.4775V19.3687C601.889 20.7804 602.446 21.4862 603.56 21.4862C604.674 21.4862 605.231 20.7804 605.231 19.3687V14.4775H607.2V19.4125C607.2 20.095 607.115 20.6842 606.946 21.18C606.783 21.6233 606.5 22.0229 606.097 22.3787C605.432 22.9562 604.587 23.245 603.56 23.245C602.539 23.245 601.696 22.9562 601.031 22.3787C600.623 22.0229 600.334 21.6233 600.165 21.18C600.002 20.7833 599.92 20.1942 599.92 19.4125V14.4775H601.889ZM617.446 19.2025H611.339C611.391 19.9025 611.619 20.4596 612.021 20.8737C612.424 21.2821 612.94 21.4862 613.57 21.4862C614.06 21.4862 614.465 21.3696 614.786 21.1362C615.101 20.9029 615.46 20.4712 615.862 19.8412L617.525 20.7687C617.268 21.2062 616.997 21.5825 616.711 21.8975C616.425 22.2067 616.119 22.4633 615.792 22.6675C615.466 22.8658 615.113 23.0117 614.734 23.105C614.355 23.1983 613.943 23.245 613.5 23.245C612.228 23.245 611.207 22.8367 610.437 22.02C609.667 21.1975 609.282 20.1067 609.282 18.7475C609.282 17.4 609.656 16.3092 610.402 15.475C611.155 14.6525 612.152 14.2412 613.395 14.2412C614.649 14.2412 615.641 14.6408 616.37 15.44C617.093 16.2333 617.455 17.3329 617.455 18.7387L617.446 19.2025ZM615.425 17.5925C615.151 16.5425 614.489 16.0175 613.439 16.0175C613.2 16.0175 612.975 16.0554 612.765 16.1312C612.555 16.2012 612.362 16.3062 612.187 16.4462C612.018 16.5804 611.872 16.7437 611.75 16.9362C611.627 17.1287 611.534 17.3475 611.47 17.5925H615.425ZM633.45 19.7187H627.666L626.161 23H623.965L630.65 8.64125L637.099 23H634.868L633.45 19.7187ZM632.619 17.8025L630.615 13.2087L628.515 17.8025H632.619ZM644.965 14.845V17.4612C644.516 16.9129 644.113 16.5367 643.757 16.3325C643.407 16.1225 642.996 16.0175 642.524 16.0175C641.783 16.0175 641.167 16.2771 640.677 16.7962C640.187 17.3154 639.942 17.9658 639.942 18.7475C639.942 19.5467 640.179 20.2029 640.651 20.7162C641.13 21.2296 641.739 21.4862 642.48 21.4862C642.952 21.4862 643.37 21.3842 643.731 21.18C644.081 20.9817 644.492 20.5967 644.965 20.025V22.6237C644.166 23.0379 643.367 23.245 642.567 23.245C641.249 23.245 640.147 22.8192 639.26 21.9675C638.373 21.11 637.93 20.0454 637.93 18.7737C637.93 17.5021 638.379 16.4287 639.277 15.5537C640.176 14.6787 641.278 14.2412 642.585 14.2412C643.425 14.2412 644.218 14.4425 644.965 14.845ZM648.903 16.315V23H646.934V16.315H646.094V14.4775H646.934V11.3537H648.903V14.4775H650.434V16.315H648.903ZM653.741 14.4775V23H651.772V14.4775H653.741ZM651.475 10.9337C651.475 10.5896 651.6 10.2921 651.851 10.0412C652.102 9.79042 652.402 9.665 652.752 9.665C653.108 9.665 653.412 9.79042 653.662 10.0412C653.913 10.2862 654.039 10.5867 654.039 10.9425C654.039 11.2983 653.913 11.6017 653.662 11.8525C653.417 12.1033 653.117 12.2287 652.761 12.2287C652.405 12.2287 652.102 12.1033 651.851 11.8525C651.6 11.6017 651.475 11.2954 651.475 10.9337ZM655.832 18.6775C655.832 17.4467 656.273 16.3996 657.154 15.5362C658.035 14.6729 659.108 14.2412 660.374 14.2412C661.645 14.2412 662.725 14.6758 663.611 15.545C664.486 16.4142 664.924 17.4817 664.924 18.7475C664.924 20.025 664.483 21.0954 663.602 21.9587C662.716 22.8162 661.628 23.245 660.339 23.245C659.061 23.245 657.991 22.8075 657.127 21.9325C656.264 21.0692 655.832 19.9842 655.832 18.6775ZM657.845 18.7125C657.845 19.5642 658.072 20.2379 658.527 20.7337C658.994 21.2354 659.61 21.4862 660.374 21.4862C661.144 21.4862 661.759 21.2383 662.22 20.7425C662.681 20.2467 662.911 19.5846 662.911 18.7562C662.911 17.9279 662.681 17.2658 662.22 16.77C661.753 16.2683 661.138 16.0175 660.374 16.0175C659.621 16.0175 659.012 16.2683 658.545 16.77C658.078 17.2717 657.845 17.9192 657.845 18.7125ZM667.015 14.4775H668.993V15.265C669.681 14.5825 670.457 14.2412 671.32 14.2412C672.312 14.2412 673.085 14.5533 673.639 15.1775C674.117 15.7083 674.356 16.5746 674.356 17.7762V23H672.379V18.24C672.379 17.4 672.262 16.8196 672.029 16.4987C671.801 16.1721 671.387 16.0087 670.786 16.0087C670.133 16.0087 669.669 16.2246 669.395 16.6562C669.127 17.0821 668.993 17.8258 668.993 18.8875V23H667.015V14.4775Z" fill="#464646"/>
</g>
<g filter="url(#filter1_d_0_1)">
<rect x="530" y="97" width="189" height="71" rx="10" fill="white"/>
<path d="M585.841 122.514V128H583.803V114.49H586.113C587.244 114.49 588.099 114.569 588.676 114.726C589.26 114.884 589.773 115.181 590.216 115.619C590.992 116.377 591.38 117.334 591.38 118.489C591.38 119.725 590.966 120.705 590.138 121.429C589.309 122.152 588.192 122.514 586.786 122.514H585.841ZM585.841 120.624H586.603C588.475 120.624 589.411 119.903 589.411 118.462C589.411 117.068 588.446 116.371 586.515 116.371H585.841V120.624ZM600.935 116.406H595.519V119.652H600.777V121.569H595.519V126.084H600.935V128H593.48V114.49H600.935V116.406ZM603.612 128V113.571L613.465 123.879V114.49H615.504V128.823L605.651 118.541V128H603.612ZM618.75 128V114.49H621.585C622.944 114.49 624.017 114.624 624.805 114.892C625.651 115.155 626.418 115.601 627.106 116.231C628.5 117.503 629.197 119.174 629.197 121.245C629.197 123.322 628.471 125.002 627.019 126.285C626.29 126.927 625.525 127.373 624.726 127.624C623.98 127.875 622.921 128 621.55 128H618.75ZM620.789 126.084H621.707C622.623 126.084 623.385 125.987 623.991 125.795C624.598 125.591 625.146 125.267 625.636 124.824C626.64 123.908 627.141 122.715 627.141 121.245C627.141 119.763 626.645 118.562 625.654 117.64C624.761 116.817 623.446 116.406 621.707 116.406H620.789V126.084ZM633.809 114.49V128H631.77V114.49H633.809ZM637.055 128V113.571L646.907 123.879V114.49H648.946V128.823L639.094 118.541V128H637.055ZM659.28 120.965H664.862V121.411C664.862 122.426 664.743 123.325 664.504 124.106C664.27 124.83 663.877 125.506 663.322 126.136C662.068 127.548 660.473 128.254 658.536 128.254C656.646 128.254 655.027 127.571 653.68 126.206C652.332 124.835 651.659 123.19 651.659 121.271C651.659 119.311 652.344 117.649 653.715 116.284C655.086 114.913 656.754 114.227 658.72 114.227C659.776 114.227 660.762 114.443 661.677 114.875C662.552 115.307 663.413 116.007 664.259 116.975L662.806 118.366C661.698 116.89 660.347 116.152 658.755 116.152C657.326 116.152 656.127 116.645 655.159 117.631C654.19 118.6 653.706 119.813 653.706 121.271C653.706 122.776 654.246 124.016 655.325 124.99C656.334 125.894 657.428 126.346 658.606 126.346C659.61 126.346 660.511 126.008 661.31 125.331C662.109 124.649 662.555 123.832 662.649 122.881H659.28V120.965ZM603.963 140.406H598.546V143.652H603.805V145.569H598.546V150.084H603.963V152H596.508V138.49H603.963V140.406ZM611.216 146.242L615.399 152H612.905L609.046 146.47H608.679V152H606.64V138.49H609.029C610.814 138.49 612.103 138.825 612.896 139.496C613.771 140.243 614.209 141.229 614.209 142.454C614.209 143.41 613.935 144.233 613.386 144.921C612.838 145.61 612.115 146.05 611.216 146.242ZM608.679 144.694H609.326C611.257 144.694 612.222 143.956 612.222 142.48C612.222 141.097 611.283 140.406 609.405 140.406H608.679V144.694ZM622.014 146.242L626.196 152H623.702L619.844 146.47H619.476V152H617.437V138.49H619.826C621.611 138.49 622.9 138.825 623.694 139.496C624.569 140.243 625.006 141.229 625.006 142.454C625.006 143.41 624.732 144.233 624.184 144.921C623.635 145.61 622.912 146.05 622.014 146.242ZM619.476 144.694H620.124C622.055 144.694 623.02 143.956 623.02 142.48C623.02 141.097 622.081 140.406 620.202 140.406H619.476V144.694ZM627.246 145.184C627.246 143.282 627.943 141.649 629.338 140.284C630.726 138.919 632.394 138.236 634.343 138.236C636.268 138.236 637.918 138.925 639.295 140.301C640.678 141.678 641.369 143.332 641.369 145.262C641.369 147.205 640.675 148.853 639.286 150.206C637.892 151.565 636.209 152.245 634.238 152.245C632.493 152.245 630.927 151.641 629.539 150.434C628.01 149.098 627.246 147.348 627.246 145.184ZM629.303 145.21C629.303 146.703 629.804 147.931 630.808 148.894C631.805 149.856 632.957 150.337 634.264 150.337C635.681 150.337 636.877 149.847 637.851 148.867C638.825 147.876 639.313 146.668 639.313 145.245C639.313 143.804 638.831 142.597 637.869 141.622C636.912 140.642 635.728 140.152 634.316 140.152C632.91 140.152 631.723 140.642 630.755 141.622C629.787 142.591 629.303 143.787 629.303 145.21ZM648.509 146.242L652.691 152H650.198L646.339 146.47H645.971V152H643.933V138.49H646.321C648.106 138.49 649.395 138.825 650.189 139.496C651.064 140.243 651.501 141.229 651.501 142.454C651.501 143.41 651.227 144.233 650.679 144.921C650.13 145.61 649.407 146.05 648.509 146.242ZM645.971 144.694H646.619C648.55 144.694 649.515 143.956 649.515 142.48C649.515 141.097 648.576 140.406 646.698 140.406H645.971V144.694Z" fill="#464646"/>
</g>
<path d="M244 16.5L239 13.6132L239 19.3868L244 16.5ZM216 17L239.5 17L239.5 16L216 16L216 17Z" fill="#979797"/>
<path d="M98.5 84L101.387 79H95.6132L98.5 84ZM98 56V79.5H99V56H98Z" fill="#979797"/>
<g filter="url(#filter2_d_0_1)">
<rect x="4" width="189" height="32" rx="10" fill="white"/>
<path d="M87.4925 11.4062H82.785V14.6525H87.3263V16.5687H82.785V23H80.7463V9.49H87.4925V11.4062ZM91.4913 14.4775V23H89.5225V14.4775H91.4913ZM89.225 10.9337C89.225 10.5896 89.3504 10.2921 89.6013 10.0412C89.8521 9.79042 90.1525 9.665 90.5025 9.665C90.8583 9.665 91.1617 9.79042 91.4125 10.0412C91.6633 10.2862 91.7888 10.5867 91.7888 10.9425C91.7888 11.2983 91.6633 11.6017 91.4125 11.8525C91.1675 12.1033 90.8671 12.2287 90.5113 12.2287C90.1554 12.2287 89.8521 12.1033 89.6013 11.8525C89.3504 11.6017 89.225 11.2954 89.225 10.9337ZM101.746 19.2025H95.6388C95.6913 19.9025 95.9188 20.4596 96.3213 20.8737C96.7238 21.2821 97.24 21.4862 97.87 21.4862C98.36 21.4862 98.7654 21.3696 99.0863 21.1362C99.4013 20.9029 99.76 20.4712 100.163 19.8412L101.825 20.7687C101.568 21.2062 101.297 21.5825 101.011 21.8975C100.725 22.2067 100.419 22.4633 100.093 22.6675C99.7658 22.8658 99.4129 23.0117 99.0338 23.105C98.6546 23.1983 98.2433 23.245 97.8 23.245C96.5283 23.245 95.5075 22.8367 94.7375 22.02C93.9675 21.1975 93.5825 20.1067 93.5825 18.7475C93.5825 17.4 93.9558 16.3092 94.7025 15.475C95.455 14.6525 96.4525 14.2412 97.695 14.2412C98.9492 14.2412 99.9408 14.6408 100.67 15.44C101.393 16.2333 101.755 17.3329 101.755 18.7387L101.746 19.2025ZM99.725 17.5925C99.4508 16.5425 98.7888 16.0175 97.7388 16.0175C97.4996 16.0175 97.275 16.0554 97.065 16.1312C96.855 16.2012 96.6625 16.3062 96.4875 16.4462C96.3183 16.5804 96.1725 16.7437 96.05 16.9362C95.9275 17.1287 95.8342 17.3475 95.77 17.5925H99.725ZM105.876 8.22125V23H103.908V8.22125H105.876ZM114.653 8.22125H116.63V23H114.653V22.1075C113.877 22.8658 112.999 23.245 112.019 23.245C110.852 23.245 109.884 22.8192 109.114 21.9675C108.35 21.0983 107.968 20.0133 107.968 18.7125C107.968 17.4408 108.35 16.3792 109.114 15.5275C109.872 14.67 110.826 14.2412 111.975 14.2412C112.973 14.2412 113.865 14.6496 114.653 15.4662V8.22125ZM109.98 18.7125C109.98 19.5292 110.199 20.1942 110.636 20.7075C111.085 21.2267 111.651 21.4862 112.334 21.4862C113.063 21.4862 113.652 21.2354 114.101 20.7337C114.55 20.2146 114.775 19.5554 114.775 18.7562C114.775 17.9571 114.55 17.2979 114.101 16.7787C113.652 16.2712 113.069 16.0175 112.351 16.0175C111.675 16.0175 111.109 16.2742 110.654 16.7875C110.205 17.3067 109.98 17.9483 109.98 18.7125Z" fill="#464646"/>
</g>
<g filter="url(#filter3_d_0_1)">
<rect x="4" y="97" width="189" height="32" rx="10" fill="white"/>
<path d="M77.0613 107.216V109.631C75.8829 108.645 74.6638 108.152 73.4038 108.152C72.0154 108.152 70.8458 108.651 69.895 109.649C68.9383 110.64 68.46 111.854 68.46 113.289C68.46 114.706 68.9383 115.902 69.895 116.876C70.8517 117.85 72.0242 118.337 73.4125 118.337C74.13 118.337 74.7396 118.221 75.2413 117.987C75.5213 117.871 75.81 117.713 76.1075 117.515C76.4108 117.317 76.7288 117.077 77.0613 116.797V119.256C75.8946 119.915 74.6696 120.245 73.3863 120.245C71.4554 120.245 69.8075 119.571 68.4425 118.224C67.0833 116.865 66.4038 115.225 66.4038 113.306C66.4038 111.585 66.9725 110.051 68.11 108.704C69.51 107.053 71.3213 106.227 73.5438 106.227C74.7571 106.227 75.9296 106.557 77.0613 107.216ZM78.8638 115.677C78.8638 114.447 79.3042 113.4 80.185 112.536C81.0658 111.673 82.1392 111.241 83.405 111.241C84.6767 111.241 85.7558 111.676 86.6425 112.545C87.5175 113.414 87.955 114.482 87.955 115.747C87.955 117.025 87.5146 118.095 86.6338 118.959C85.7471 119.816 84.6592 120.245 83.37 120.245C82.0925 120.245 81.0221 119.807 80.1588 118.932C79.2954 118.069 78.8638 116.984 78.8638 115.677ZM80.8763 115.712C80.8763 116.564 81.1038 117.238 81.5588 117.734C82.0254 118.235 82.6408 118.486 83.405 118.486C84.175 118.486 84.7904 118.238 85.2513 117.742C85.7121 117.247 85.9425 116.585 85.9425 115.756C85.9425 114.928 85.7121 114.266 85.2513 113.77C84.7846 113.268 84.1692 113.017 83.405 113.017C82.6525 113.017 82.0429 113.268 81.5763 113.77C81.1096 114.272 80.8763 114.919 80.8763 115.712ZM92.015 111.477V116.369C92.015 117.78 92.5721 118.486 93.6863 118.486C94.8004 118.486 95.3575 117.78 95.3575 116.369V111.477H97.3263V116.412C97.3263 117.095 97.2417 117.684 97.0725 118.18C96.9092 118.623 96.6263 119.023 96.2238 119.379C95.5588 119.956 94.7129 120.245 93.6863 120.245C92.6654 120.245 91.8225 119.956 91.1575 119.379C90.7492 119.023 90.4604 118.623 90.2913 118.18C90.1279 117.783 90.0463 117.194 90.0463 116.412V111.477H92.015ZM99.8113 111.477H101.789V112.265C102.477 111.582 103.253 111.241 104.116 111.241C105.108 111.241 105.881 111.553 106.435 112.177C106.913 112.708 107.153 113.575 107.153 114.776V120H105.175V115.24C105.175 114.4 105.058 113.82 104.825 113.499C104.598 113.172 104.183 113.009 103.583 113.009C102.929 113.009 102.465 113.225 102.191 113.656C101.923 114.082 101.789 114.826 101.789 115.887V120H99.8113V111.477ZM111.676 113.315V120H109.708V113.315H108.868V111.477H109.708V108.354H111.676V111.477H113.208V113.315H111.676ZM114.546 111.477H116.515V112.239C116.877 111.86 117.198 111.6 117.478 111.46C117.763 111.314 118.102 111.241 118.493 111.241C119.012 111.241 119.554 111.41 120.12 111.749L119.219 113.551C118.845 113.283 118.481 113.149 118.125 113.149C117.052 113.149 116.515 113.96 116.515 115.581V120H114.546V111.477ZM124.723 118.416L120.89 111.477H123.174L125.781 116.377L128.214 111.477H130.436L123.646 124.638H121.398L124.723 118.416Z" fill="#464646"/>
</g>
<path d="M361.5 84L364.387 79H358.613L361.5 84ZM361 56V79.5H362V56H361Z" fill="#979797"/>
<g filter="url(#filter4_d_0_1)">
<rect x="267" width="189" height="32" rx="10" fill="white"/>
<path d="M294.202 16.1837C294.202 14.2821 294.9 12.6487 296.294 11.2837C297.682 9.91875 299.35 9.23625 301.299 9.23625C303.224 9.23625 304.875 9.92458 306.251 11.3012C307.634 12.6779 308.325 14.3317 308.325 16.2625C308.325 18.205 307.631 19.8529 306.242 21.2062C304.848 22.5654 303.165 23.245 301.194 23.245C299.45 23.245 297.883 22.6412 296.495 21.4337C294.967 20.0979 294.202 18.3479 294.202 16.1837ZM296.259 16.21C296.259 17.7033 296.76 18.9312 297.764 19.8937C298.761 20.8562 299.913 21.3375 301.22 21.3375C302.637 21.3375 303.833 20.8475 304.807 19.8675C305.782 18.8758 306.269 17.6683 306.269 16.245C306.269 14.8042 305.787 13.5967 304.825 12.6225C303.868 11.6425 302.684 11.1525 301.272 11.1525C299.867 11.1525 298.68 11.6425 297.711 12.6225C296.743 13.5908 296.259 14.7867 296.259 16.21ZM312.481 27.6375H310.513V14.4775H312.481V15.405C313.257 14.6292 314.138 14.2412 315.124 14.2412C316.296 14.2412 317.262 14.6729 318.02 15.5362C318.79 16.3937 319.175 17.4758 319.175 18.7825C319.175 20.06 318.793 21.1246 318.029 21.9762C317.27 22.8221 316.314 23.245 315.159 23.245C314.161 23.245 313.269 22.8454 312.481 22.0462V27.6375ZM317.163 18.7912C317.163 17.9746 316.941 17.3096 316.498 16.7962C316.048 16.2771 315.483 16.0175 314.8 16.0175C314.077 16.0175 313.49 16.2683 313.041 16.77C312.592 17.2717 312.368 17.9308 312.368 18.7475C312.368 19.5467 312.592 20.2058 313.041 20.725C313.485 21.2325 314.068 21.4862 314.791 21.4862C315.474 21.4862 316.037 21.2296 316.48 20.7162C316.935 20.2029 317.163 19.5612 317.163 18.7912ZM329.019 19.2025H322.911C322.964 19.9025 323.191 20.4596 323.594 20.8737C323.996 21.2821 324.512 21.4862 325.142 21.4862C325.632 21.4862 326.038 21.3696 326.359 21.1362C326.674 20.9029 327.032 20.4712 327.435 19.8412L329.097 20.7687C328.841 21.2062 328.57 21.5825 328.284 21.8975C327.998 22.2067 327.692 22.4633 327.365 22.6675C327.038 22.8658 326.685 23.0117 326.306 23.105C325.927 23.1983 325.516 23.245 325.072 23.245C323.801 23.245 322.78 22.8367 322.01 22.02C321.24 21.1975 320.855 20.1067 320.855 18.7475C320.855 17.4 321.228 16.3092 321.975 15.475C322.727 14.6525 323.725 14.2412 324.967 14.2412C326.222 14.2412 327.213 14.6408 327.942 15.44C328.666 16.2333 329.027 17.3329 329.027 18.7387L329.019 19.2025ZM326.997 17.5925C326.723 16.5425 326.061 16.0175 325.011 16.0175C324.772 16.0175 324.547 16.0554 324.337 16.1312C324.127 16.2012 323.935 16.3062 323.76 16.4462C323.591 16.5804 323.445 16.7437 323.322 16.9362C323.2 17.1287 323.107 17.3475 323.042 17.5925H326.997ZM331.18 14.4775H333.149V15.2387C333.51 14.8596 333.831 14.6 334.111 14.46C334.397 14.3142 334.735 14.2412 335.126 14.2412C335.645 14.2412 336.188 14.4104 336.754 14.7487L335.853 16.5512C335.479 16.2829 335.115 16.1487 334.759 16.1487C333.685 16.1487 333.149 16.9596 333.149 18.5812V23H331.18V14.4775ZM344.043 14.4775H346.02V23H344.043V22.1075C343.232 22.8658 342.36 23.245 341.426 23.245C340.248 23.245 339.274 22.8192 338.504 21.9675C337.74 21.0983 337.358 20.0133 337.358 18.7125C337.358 17.435 337.74 16.3704 338.504 15.5187C339.268 14.6671 340.225 14.2412 341.374 14.2412C342.365 14.2412 343.255 14.6496 344.043 15.4662V14.4775ZM339.37 18.7125C339.37 19.5292 339.589 20.1942 340.026 20.7075C340.475 21.2267 341.041 21.4862 341.724 21.4862C342.453 21.4862 343.042 21.2354 343.491 20.7337C343.94 20.2146 344.165 19.5554 344.165 18.7562C344.165 17.9571 343.94 17.2979 343.491 16.7787C343.042 16.2712 342.459 16.0175 341.741 16.0175C341.065 16.0175 340.499 16.2742 340.044 16.7875C339.595 17.3067 339.37 17.9483 339.37 18.7125ZM350.535 16.315V23H348.566V16.315H347.726V14.4775H348.566V11.3537H350.535V14.4775H352.066V16.315H350.535ZM355.374 14.4775V23H353.405V14.4775H355.374ZM353.107 10.9337C353.107 10.5896 353.233 10.2921 353.484 10.0412C353.735 9.79042 354.035 9.665 354.385 9.665C354.741 9.665 355.044 9.79042 355.295 10.0412C355.546 10.2862 355.671 10.5867 355.671 10.9425C355.671 11.2983 355.546 11.6017 355.295 11.8525C355.05 12.1033 354.75 12.2287 354.394 12.2287C354.038 12.2287 353.735 12.1033 353.484 11.8525C353.233 11.6017 353.107 11.2954 353.107 10.9337ZM357.465 18.6775C357.465 17.4467 357.905 16.3996 358.786 15.5362C359.667 14.6729 360.74 14.2412 362.006 14.2412C363.278 14.2412 364.357 14.6758 365.244 15.545C366.119 16.4142 366.556 17.4817 366.556 18.7475C366.556 20.025 366.116 21.0954 365.235 21.9587C364.348 22.8162 363.26 23.245 361.971 23.245C360.694 23.245 359.623 22.8075 358.76 21.9325C357.897 21.0692 357.465 19.9842 357.465 18.6775ZM359.478 18.7125C359.478 19.5642 359.705 20.2379 360.16 20.7337C360.627 21.2354 361.242 21.4862 362.006 21.4862C362.776 21.4862 363.392 21.2383 363.853 20.7425C364.313 20.2467 364.544 19.5846 364.544 18.7562C364.544 17.9279 364.313 17.2658 363.853 16.77C363.386 16.2683 362.77 16.0175 362.006 16.0175C361.254 16.0175 360.644 16.2683 360.178 16.77C359.711 17.2717 359.478 17.9192 359.478 18.7125ZM368.647 14.4775H370.625V15.265C371.313 14.5825 372.089 14.2412 372.952 14.2412C373.944 14.2412 374.717 14.5533 375.271 15.1775C375.75 15.7083 375.989 16.5746 375.989 17.7762V23H374.011V18.24C374.011 17.4 373.895 16.8196 373.661 16.4987C373.434 16.1721 373.02 16.0087 372.419 16.0087C371.765 16.0087 371.302 16.2246 371.027 16.6562C370.759 17.0821 370.625 17.8258 370.625 18.8875V23H368.647V14.4775ZM385.071 9.49L388.807 18.8525L392.596 9.49H394.827L388.764 24.015L382.84 9.49H385.071ZM401.373 14.4775H403.35V23H401.373V22.1075C400.562 22.8658 399.69 23.245 398.756 23.245C397.578 23.245 396.604 22.8192 395.834 21.9675C395.07 21.0983 394.688 20.0133 394.688 18.7125C394.688 17.435 395.07 16.3704 395.834 15.5187C396.598 14.6671 397.555 14.2412 398.704 14.2412C399.695 14.2412 400.585 14.6496 401.373 15.4662V14.4775ZM396.7 18.7125C396.7 19.5292 396.919 20.1942 397.356 20.7075C397.805 21.2267 398.371 21.4862 399.054 21.4862C399.783 21.4862 400.372 21.2354 400.821 20.7337C401.27 20.2146 401.495 19.5554 401.495 18.7562C401.495 17.9571 401.27 17.2979 400.821 16.7787C400.372 16.2712 399.789 16.0175 399.071 16.0175C398.395 16.0175 397.829 16.2742 397.374 16.7875C396.925 17.3067 396.7 17.9483 396.7 18.7125ZM407.804 8.22125V23H405.835V8.22125H407.804ZM412.266 14.4775V19.3687C412.266 20.7804 412.823 21.4862 413.938 21.4862C415.052 21.4862 415.609 20.7804 415.609 19.3687V14.4775H417.578V19.4125C417.578 20.095 417.493 20.6842 417.324 21.18C417.16 21.6233 416.878 22.0229 416.475 22.3787C415.81 22.9562 414.964 23.245 413.938 23.245C412.917 23.245 412.074 22.9562 411.409 22.3787C411 22.0229 410.712 21.6233 410.543 21.18C410.379 20.7833 410.298 20.1942 410.298 19.4125V14.4775H412.266ZM427.824 19.2025H421.716C421.769 19.9025 421.996 20.4596 422.399 20.8737C422.801 21.2821 423.317 21.4862 423.947 21.4862C424.437 21.4862 424.843 21.3696 425.164 21.1362C425.479 20.9029 425.837 20.4712 426.24 19.8412L427.902 20.7687C427.646 21.2062 427.375 21.5825 427.089 21.8975C426.803 22.2067 426.497 22.4633 426.17 22.6675C425.843 22.8658 425.49 23.0117 425.111 23.105C424.732 23.1983 424.321 23.245 423.877 23.245C422.606 23.245 421.585 22.8367 420.815 22.02C420.045 21.1975 419.66 20.1067 419.66 18.7475C419.66 17.4 420.033 16.3092 420.78 15.475C421.532 14.6525 422.53 14.2412 423.772 14.2412C425.027 14.2412 426.018 14.6408 426.747 15.44C427.471 16.2333 427.832 17.3329 427.832 18.7387L427.824 19.2025ZM425.802 17.5925C425.528 16.5425 424.866 16.0175 423.816 16.0175C423.577 16.0175 423.352 16.0554 423.142 16.1312C422.932 16.2012 422.74 16.3062 422.565 16.4462C422.396 16.5804 422.25 16.7437 422.127 16.9362C422.005 17.1287 421.912 17.3475 421.847 17.5925H425.802Z" fill="#464646"/>
</g>
<g filter="url(#filter5_d_0_1)">
<rect x="267" y="97" width="189" height="112" rx="10" fill="white"/>
<path d="M347.64 112.502L345.986 113.482C345.677 112.946 345.382 112.596 345.102 112.432C344.811 112.246 344.435 112.152 343.974 112.152C343.408 112.152 342.938 112.313 342.565 112.634C342.192 112.949 342.005 113.345 342.005 113.824C342.005 114.483 342.495 115.014 343.475 115.416L344.822 115.967C345.919 116.411 346.721 116.953 347.229 117.595C347.736 118.231 347.99 119.012 347.99 119.94C347.99 121.182 347.576 122.209 346.747 123.02C345.913 123.837 344.878 124.245 343.641 124.245C342.469 124.245 341.5 123.898 340.736 123.204C339.984 122.51 339.514 121.532 339.327 120.272L341.392 119.817C341.486 120.611 341.649 121.159 341.882 121.462C342.302 122.046 342.915 122.337 343.72 122.337C344.356 122.337 344.884 122.125 345.304 121.699C345.724 121.273 345.934 120.733 345.934 120.08C345.934 119.817 345.896 119.578 345.82 119.362C345.75 119.141 345.636 118.94 345.479 118.759C345.327 118.572 345.129 118.4 344.884 118.242C344.639 118.079 344.347 117.925 344.009 117.779L342.705 117.236C340.856 116.455 339.931 115.311 339.931 113.806C339.931 112.791 340.319 111.942 341.095 111.26C341.871 110.572 342.836 110.227 343.991 110.227C345.549 110.227 346.765 110.986 347.64 112.502ZM352.041 128.638H350.073V115.477H352.041V116.405C352.817 115.629 353.698 115.241 354.684 115.241C355.856 115.241 356.822 115.673 357.58 116.536C358.35 117.394 358.735 118.476 358.735 119.782C358.735 121.06 358.353 122.125 357.589 122.976C356.83 123.822 355.874 124.245 354.719 124.245C353.721 124.245 352.829 123.845 352.041 123.046V128.638ZM356.723 119.791C356.723 118.975 356.501 118.31 356.058 117.796C355.608 117.277 355.043 117.017 354.36 117.017C353.637 117.017 353.05 117.268 352.601 117.77C352.152 118.272 351.928 118.931 351.928 119.747C351.928 120.547 352.152 121.206 352.601 121.725C353.045 122.232 353.628 122.486 354.351 122.486C355.034 122.486 355.597 122.23 356.04 121.716C356.495 121.203 356.723 120.561 356.723 119.791ZM367.1 115.477H369.078V124H367.1V123.107C366.289 123.866 365.417 124.245 364.484 124.245C363.305 124.245 362.331 123.819 361.561 122.967C360.797 122.098 360.415 121.013 360.415 119.712C360.415 118.435 360.797 117.37 361.561 116.519C362.325 115.667 363.282 115.241 364.431 115.241C365.423 115.241 366.313 115.65 367.1 116.466V115.477ZM362.428 119.712C362.428 120.529 362.646 121.194 363.084 121.707C363.533 122.227 364.099 122.486 364.781 122.486C365.51 122.486 366.1 122.235 366.549 121.734C366.998 121.215 367.223 120.555 367.223 119.756C367.223 118.957 366.998 118.298 366.549 117.779C366.1 117.271 365.516 117.017 364.799 117.017C364.122 117.017 363.556 117.274 363.101 117.787C362.652 118.307 362.428 118.948 362.428 119.712ZM373.531 115.477V124H371.562V115.477H373.531ZM371.265 111.934C371.265 111.59 371.39 111.292 371.641 111.041C371.892 110.79 372.192 110.665 372.542 110.665C372.898 110.665 373.202 110.79 373.452 111.041C373.703 111.286 373.829 111.587 373.829 111.942C373.829 112.298 373.703 112.602 373.452 112.852C373.207 113.103 372.907 113.229 372.551 113.229C372.195 113.229 371.892 113.103 371.641 112.852C371.39 112.602 371.265 112.295 371.265 111.934ZM376.025 115.477H378.003V116.265C378.691 115.582 379.467 115.241 380.33 115.241C381.322 115.241 382.095 115.553 382.649 116.177C383.127 116.708 383.366 117.575 383.366 118.776V124H381.389V119.24C381.389 118.4 381.272 117.82 381.039 117.499C380.811 117.172 380.397 117.009 379.796 117.009C379.143 117.009 378.679 117.225 378.405 117.656C378.137 118.082 378.003 118.826 378.003 119.887V124H376.025V115.477ZM333.745 135.216V137.631C332.567 136.645 331.348 136.152 330.088 136.152C328.699 136.152 327.53 136.651 326.579 137.649C325.622 138.64 325.144 139.854 325.144 141.289C325.144 142.706 325.622 143.902 326.579 144.876C327.535 145.85 328.708 146.337 330.096 146.337C330.814 146.337 331.423 146.221 331.925 145.987C332.205 145.871 332.494 145.713 332.791 145.515C333.095 145.317 333.413 145.077 333.745 144.797V147.256C332.578 147.915 331.353 148.245 330.07 148.245C328.139 148.245 326.491 147.571 325.126 146.224C323.767 144.865 323.088 143.225 323.088 141.306C323.088 139.585 323.656 138.051 324.794 136.704C326.194 135.053 328.005 134.227 330.228 134.227C331.441 134.227 332.613 134.557 333.745 135.216ZM335.548 143.677C335.548 142.447 335.988 141.4 336.869 140.536C337.75 139.673 338.823 139.241 340.089 139.241C341.36 139.241 342.44 139.676 343.326 140.545C344.201 141.414 344.639 142.482 344.639 143.747C344.639 145.025 344.198 146.095 343.318 146.959C342.431 147.816 341.343 148.245 340.054 148.245C338.776 148.245 337.706 147.807 336.843 146.932C335.979 146.069 335.548 144.984 335.548 143.677ZM337.56 143.712C337.56 144.564 337.788 145.238 338.243 145.734C338.709 146.235 339.325 146.486 340.089 146.486C340.859 146.486 341.474 146.238 341.935 145.742C342.396 145.247 342.626 144.585 342.626 143.756C342.626 142.928 342.396 142.266 341.935 141.77C341.468 141.268 340.853 141.017 340.089 141.017C339.336 141.017 338.727 141.268 338.26 141.77C337.793 142.272 337.56 142.919 337.56 143.712ZM348.699 133.221V148H346.73V133.221H348.699ZM350.79 143.677C350.79 142.447 351.23 141.4 352.111 140.536C352.992 139.673 354.065 139.241 355.331 139.241C356.603 139.241 357.682 139.676 358.569 140.545C359.444 141.414 359.881 142.482 359.881 143.747C359.881 145.025 359.441 146.095 358.56 146.959C357.673 147.816 356.585 148.245 355.296 148.245C354.019 148.245 352.948 147.807 352.085 146.932C351.222 146.069 350.79 144.984 350.79 143.677ZM352.803 143.712C352.803 144.564 353.03 145.238 353.485 145.734C353.952 146.235 354.567 146.486 355.331 146.486C356.101 146.486 356.717 146.238 357.178 145.742C357.638 145.247 357.869 144.585 357.869 143.756C357.869 142.928 357.638 142.266 357.178 141.77C356.711 141.268 356.095 141.017 355.331 141.017C354.579 141.017 353.969 141.268 353.503 141.77C353.036 142.272 352.803 142.919 352.803 143.712ZM361.972 139.477H363.941V140.265C364.32 139.868 364.644 139.6 364.912 139.46C365.198 139.314 365.557 139.241 365.989 139.241C366.951 139.241 367.712 139.661 368.272 140.501C368.891 139.661 369.728 139.241 370.784 139.241C372.703 139.241 373.662 140.405 373.662 142.732V148H371.685V143.266C371.685 142.45 371.586 141.872 371.387 141.534C371.183 141.19 370.848 141.017 370.381 141.017C369.839 141.017 369.442 141.222 369.191 141.63C368.946 142.038 368.824 142.695 368.824 143.599V148H366.846V143.292C366.846 141.776 366.409 141.017 365.534 141.017C364.98 141.017 364.574 141.225 364.317 141.639C364.067 142.053 363.941 142.706 363.941 143.599V148H361.972V139.477ZM378.116 133.221V140.466C378.904 139.65 379.796 139.241 380.794 139.241C381.943 139.241 382.9 139.67 383.664 140.527C384.428 141.379 384.81 142.441 384.81 143.712C384.81 145.025 384.425 146.11 383.655 146.967C382.891 147.819 381.925 148.245 380.759 148.245C379.773 148.245 378.892 147.866 378.116 147.107V148H376.148V133.221H378.116ZM382.798 143.8C382.798 142.983 382.576 142.318 382.133 141.805C381.683 141.28 381.12 141.017 380.444 141.017C379.72 141.017 379.131 141.271 378.676 141.779C378.227 142.28 378.003 142.934 378.003 143.739C378.003 144.567 378.224 145.229 378.668 145.725C379.111 146.232 379.694 146.486 380.418 146.486C381.1 146.486 381.666 146.232 382.115 145.725C382.57 145.212 382.798 144.57 382.798 143.8ZM388.861 139.477V148H386.893V139.477H388.861ZM386.595 135.934C386.595 135.59 386.72 135.292 386.971 135.041C387.222 134.79 387.523 134.665 387.873 134.665C388.228 134.665 388.532 134.79 388.783 135.041C389.033 135.286 389.159 135.587 389.159 135.942C389.159 136.298 389.033 136.602 388.783 136.852C388.538 137.103 388.237 137.229 387.881 137.229C387.525 137.229 387.222 137.103 386.971 136.852C386.72 136.602 386.595 136.295 386.595 135.934ZM397.638 139.477H399.615V148H397.638V147.107C396.827 147.866 395.955 148.245 395.021 148.245C393.843 148.245 392.869 147.819 392.099 146.967C391.335 146.098 390.953 145.013 390.953 143.712C390.953 142.435 391.335 141.37 392.099 140.519C392.863 139.667 393.82 139.241 394.969 139.241C395.96 139.241 396.85 139.65 397.638 140.466V139.477ZM392.965 143.712C392.965 144.529 393.184 145.194 393.621 145.707C394.07 146.227 394.636 146.486 395.319 146.486C396.048 146.486 396.637 146.235 397.086 145.734C397.535 145.215 397.76 144.555 397.76 143.756C397.76 142.957 397.535 142.298 397.086 141.779C396.637 141.271 396.054 141.017 395.336 141.017C394.66 141.017 394.094 141.274 393.639 141.787C393.19 142.307 392.965 142.948 392.965 143.712ZM332.109 166.242L336.291 172H333.797L329.939 166.47H329.571V172H327.532V158.49H329.921C331.706 158.49 332.995 158.825 333.789 159.496C334.664 160.243 335.101 161.229 335.101 162.454C335.101 163.41 334.827 164.233 334.279 164.921C333.73 165.61 333.007 166.05 332.109 166.242ZM329.571 164.694H330.219C332.15 164.694 333.115 163.956 333.115 162.48C333.115 161.097 332.176 160.406 330.297 160.406H329.571V164.694ZM337.184 167.677C337.184 166.447 337.624 165.4 338.505 164.536C339.386 163.673 340.459 163.241 341.725 163.241C342.997 163.241 344.076 163.676 344.963 164.545C345.838 165.414 346.275 166.482 346.275 167.747C346.275 169.025 345.835 170.095 344.954 170.959C344.067 171.816 342.979 172.245 341.69 172.245C340.413 172.245 339.342 171.807 338.479 170.932C337.615 170.069 337.184 168.984 337.184 167.677ZM339.196 167.712C339.196 168.564 339.424 169.238 339.879 169.734C340.345 170.235 340.961 170.486 341.725 170.486C342.495 170.486 343.11 170.238 343.571 169.742C344.032 169.247 344.263 168.585 344.263 167.756C344.263 166.928 344.032 166.266 343.571 165.77C343.105 165.268 342.489 165.017 341.725 165.017C340.973 165.017 340.363 165.268 339.896 165.77C339.43 166.272 339.196 166.919 339.196 167.712ZM348.366 163.477H350.335V164.265C350.714 163.868 351.038 163.6 351.306 163.46C351.592 163.314 351.951 163.241 352.382 163.241C353.345 163.241 354.106 163.661 354.666 164.501C355.285 163.661 356.122 163.241 357.177 163.241C359.097 163.241 360.056 164.405 360.056 166.732V172H358.079V167.266C358.079 166.45 357.98 165.872 357.781 165.534C357.577 165.19 357.242 165.017 356.775 165.017C356.232 165.017 355.836 165.222 355.585 165.63C355.34 166.038 355.217 166.695 355.217 167.599V172H353.24V167.292C353.24 165.776 352.802 165.017 351.927 165.017C351.373 165.017 350.968 165.225 350.711 165.639C350.46 166.053 350.335 166.706 350.335 167.599V172H348.366V163.477ZM368.824 163.477H370.801V172H368.824V171.107C368.013 171.866 367.141 172.245 366.208 172.245C365.029 172.245 364.055 171.819 363.285 170.967C362.521 170.098 362.139 169.013 362.139 167.712C362.139 166.435 362.521 165.37 363.285 164.519C364.049 163.667 365.006 163.241 366.155 163.241C367.147 163.241 368.036 163.65 368.824 164.466V163.477ZM364.151 167.712C364.151 168.529 364.37 169.194 364.808 169.707C365.257 170.227 365.823 170.486 366.505 170.486C367.234 170.486 367.823 170.235 368.273 169.734C368.722 169.215 368.946 168.555 368.946 167.756C368.946 166.957 368.722 166.298 368.273 165.779C367.823 165.271 367.24 165.017 366.523 165.017C365.846 165.017 365.28 165.274 364.825 165.787C364.376 166.307 364.151 166.948 364.151 167.712ZM373.286 163.477H375.264V164.265C375.952 163.582 376.728 163.241 377.591 163.241C378.583 163.241 379.356 163.553 379.91 164.177C380.388 164.708 380.628 165.575 380.628 166.776V172H378.65V167.24C378.65 166.4 378.533 165.82 378.3 165.499C378.073 165.172 377.658 165.009 377.058 165.009C376.404 165.009 375.94 165.225 375.666 165.656C375.398 166.082 375.264 166.826 375.264 167.887V172H373.286V163.477ZM385.09 163.477V172H383.121V163.477H385.09ZM382.824 159.934C382.824 159.59 382.949 159.292 383.2 159.041C383.451 158.79 383.751 158.665 384.101 158.665C384.457 158.665 384.76 158.79 385.011 159.041C385.262 159.286 385.388 159.587 385.388 159.942C385.388 160.298 385.262 160.602 385.011 160.852C384.766 161.103 384.466 161.229 384.11 161.229C383.754 161.229 383.451 161.103 383.2 160.852C382.949 160.602 382.824 160.295 382.824 159.934ZM393.866 163.477H395.844V172H393.866V171.107C393.055 171.866 392.183 172.245 391.25 172.245C390.072 172.245 389.097 171.819 388.327 170.967C387.563 170.098 387.181 169.013 387.181 167.712C387.181 166.435 387.563 165.37 388.327 164.519C389.092 163.667 390.048 163.241 391.197 163.241C392.189 163.241 393.079 163.65 393.866 164.466V163.477ZM389.194 167.712C389.194 168.529 389.412 169.194 389.85 169.707C390.299 170.227 390.865 170.486 391.547 170.486C392.277 170.486 392.866 170.235 393.315 169.734C393.764 169.215 393.989 168.555 393.989 167.756C393.989 166.957 393.764 166.298 393.315 165.779C392.866 165.271 392.282 165.017 391.565 165.017C390.888 165.017 390.322 165.274 389.867 165.787C389.418 166.307 389.194 166.948 389.194 167.712ZM318.056 187.88L323.315 182.49H326.036L319.929 188.606L326.071 196H323.341L318.476 189.989L318.056 190.409V196H316.018V182.49H318.056V187.88ZM333.211 187.477H335.189V196H333.211V195.107C332.4 195.866 331.528 196.245 330.595 196.245C329.417 196.245 328.443 195.819 327.673 194.967C326.908 194.098 326.526 193.013 326.526 191.712C326.526 190.435 326.908 189.37 327.673 188.519C328.437 187.667 329.393 187.241 330.543 187.241C331.534 187.241 332.424 187.65 333.211 188.466V187.477ZM328.539 191.712C328.539 192.529 328.758 193.194 329.195 193.707C329.644 194.227 330.21 194.486 330.893 194.486C331.622 194.486 332.211 194.235 332.66 193.734C333.109 193.215 333.334 192.555 333.334 191.756C333.334 190.957 333.109 190.298 332.66 189.779C332.211 189.271 331.628 189.017 330.91 189.017C330.233 189.017 329.668 189.274 329.213 189.787C328.763 190.307 328.539 190.948 328.539 191.712ZM340.5 194.145H345.566V196H336.598L342.119 189.315H337.77V187.477H346.013L340.5 194.145ZM353.704 187.477H355.681V196H353.704V195.107C352.893 195.866 352.021 196.245 351.087 196.245C349.909 196.245 348.935 195.819 348.165 194.967C347.401 194.098 347.019 193.013 347.019 191.712C347.019 190.435 347.401 189.37 348.165 188.519C348.929 187.667 349.886 187.241 351.035 187.241C352.027 187.241 352.916 187.65 353.704 188.466V187.477ZM349.031 191.712C349.031 192.529 349.25 193.194 349.687 193.707C350.137 194.227 350.702 194.486 351.385 194.486C352.114 194.486 352.703 194.235 353.152 193.734C353.602 193.215 353.826 192.555 353.826 191.756C353.826 190.957 353.602 190.298 353.152 189.779C352.703 189.271 352.12 189.017 351.402 189.017C350.726 189.017 350.16 189.274 349.705 189.787C349.256 190.307 349.031 190.948 349.031 191.712ZM360.135 181.221V190.234L362.909 187.477H365.551L361.85 191.056L365.823 196H363.268L360.45 192.404L360.135 192.719V196H358.166V181.221H360.135ZM367.091 181.221H369.06V188.186C369.76 187.556 370.533 187.241 371.379 187.241C372.341 187.241 373.111 187.553 373.689 188.177C374.179 188.72 374.424 189.586 374.424 190.776V196H372.455V190.96C372.455 190.277 372.333 189.785 372.088 189.481C371.848 189.172 371.46 189.017 370.924 189.017C370.235 189.017 369.751 189.23 369.471 189.656C369.197 190.088 369.06 190.829 369.06 191.879V196H367.091V181.221ZM381.879 188.93L380.251 189.796C379.995 189.271 379.677 189.009 379.298 189.009C379.117 189.009 378.962 189.07 378.834 189.192C378.705 189.309 378.641 189.461 378.641 189.647C378.641 189.974 379.02 190.298 379.779 190.619C380.823 191.068 381.526 191.482 381.888 191.861C382.249 192.24 382.43 192.751 382.43 193.392C382.43 194.215 382.127 194.903 381.52 195.457C380.931 195.982 380.219 196.245 379.385 196.245C377.956 196.245 376.944 195.548 376.349 194.154L378.029 193.375C378.262 193.783 378.44 194.043 378.563 194.154C378.802 194.375 379.088 194.486 379.42 194.486C380.085 194.486 380.418 194.183 380.418 193.576C380.418 193.226 380.161 192.9 379.648 192.596C379.449 192.497 379.251 192.401 379.053 192.307C378.854 192.214 378.653 192.118 378.449 192.019C377.877 191.739 377.475 191.459 377.241 191.179C376.944 190.823 376.795 190.365 376.795 189.805C376.795 189.064 377.049 188.452 377.556 187.967C378.075 187.483 378.705 187.241 379.446 187.241C380.537 187.241 381.348 187.804 381.879 188.93ZM386.236 189.315V196H384.268V189.315H383.428V187.477H384.268V184.354H386.236V187.477H387.768V189.315H386.236ZM395.546 187.477H397.524V196H395.546V195.107C394.735 195.866 393.863 196.245 392.93 196.245C391.752 196.245 390.777 195.819 390.007 194.967C389.243 194.098 388.861 193.013 388.861 191.712C388.861 190.435 389.243 189.37 390.007 188.519C390.772 187.667 391.728 187.241 392.877 187.241C393.869 187.241 394.759 187.65 395.546 188.466V187.477ZM390.874 191.712C390.874 192.529 391.092 193.194 391.53 193.707C391.979 194.227 392.545 194.486 393.227 194.486C393.957 194.486 394.546 194.235 394.995 193.734C395.444 193.215 395.669 192.555 395.669 191.756C395.669 190.957 395.444 190.298 394.995 189.779C394.546 189.271 393.962 189.017 393.245 189.017C392.568 189.017 392.002 189.274 391.547 189.787C391.098 190.307 390.874 190.948 390.874 191.712ZM400.009 187.477H401.986V188.265C402.675 187.582 403.45 187.241 404.314 187.241C405.305 187.241 406.078 187.553 406.633 188.177C407.111 188.708 407.35 189.575 407.35 190.776V196H405.373V191.24C405.373 190.4 405.256 189.82 405.023 189.499C404.795 189.172 404.381 189.009 403.78 189.009C403.127 189.009 402.663 189.225 402.389 189.656C402.12 190.082 401.986 190.826 401.986 191.887V196H400.009V187.477Z" fill="#464646"/>
</g>
<path d="M507 16.5L502 13.6132L502 19.3868L507 16.5ZM479 17L502.5 17L502.5 16L479 16L479 17Z" fill="#979797"/>
<defs>
<filter id="filter0_d_0_1" x="526" y="0" width="197" height="40" filterUnits="userSpaceOnUse" color-interpolation-filters="sRGB">
<feFlood flood-opacity="0" result="BackgroundImageFix"/>
<feColorMatrix in="SourceAlpha" type="matrix" values="0 0 0 0 0 0 0 0 0 0 0 0 0 0 0 0 0 0 127 0" result="hardAlpha"/>
<feOffset dy="4"/>
<feGaussianBlur stdDeviation="2"/>
<feComposite in2="hardAlpha" operator="out"/>
<feColorMatrix type="matrix" values="0 0 0 0 0 0 0 0 0 0 0 0 0 0 0 0 0 0 0.15 0"/>
<feBlend mode="normal" in2="BackgroundImageFix" result="effect1_dropShadow_0_1"/>
<feBlend mode="normal" in="SourceGraphic" in2="effect1_dropShadow_0_1" result="shape"/>
</filter>
<filter id="filter1_d_0_1" x="526" y="97" width="197" height="79" filterUnits="userSpaceOnUse" color-interpolation-filters="sRGB">
<feFlood flood-opacity="0" result="BackgroundImageFix"/>
<feColorMatrix in="SourceAlpha" type="matrix" values="0 0 0 0 0 0 0 0 0 0 0 0 0 0 0 0 0 0 127 0" result="hardAlpha"/>
<feOffset dy="4"/>
<feGaussianBlur stdDeviation="2"/>
<feComposite in2="hardAlpha" operator="out"/>
<feColorMatrix type="matrix" values="0 0 0 0 0 0 0 0 0 0 0 0 0 0 0 0 0 0 0.15 0"/>
<feBlend mode="normal" in2="BackgroundImageFix" result="effect1_dropShadow_0_1"/>
<feBlend mode="normal" in="SourceGraphic" in2="effect1_dropShadow_0_1" result="shape"/>
</filter>
<filter id="filter2_d_0_1" x="0" y="0" width="197" height="40" filterUnits="userSpaceOnUse" color-interpolation-filters="sRGB">
<feFlood flood-opacity="0" result="BackgroundImageFix"/>
<feColorMatrix in="SourceAlpha" type="matrix" values="0 0 0 0 0 0 0 0 0 0 0 0 0 0 0 0 0 0 127 0" result="hardAlpha"/>
<feOffset dy="4"/>
<feGaussianBlur stdDeviation="2"/>
<feComposite in2="hardAlpha" operator="out"/>
<feColorMatrix type="matrix" values="0 0 0 0 0 0 0 0 0 0 0 0 0 0 0 0 0 0 0.15 0"/>
<feBlend mode="normal" in2="BackgroundImageFix" result="effect1_dropShadow_0_1"/>
<feBlend mode="normal" in="SourceGraphic" in2="effect1_dropShadow_0_1" result="shape"/>
</filter>
<filter id="filter3_d_0_1" x="0" y="97" width="197" height="40" filterUnits="userSpaceOnUse" color-interpolation-filters="sRGB">
<feFlood flood-opacity="0" result="BackgroundImageFix"/>
<feColorMatrix in="SourceAlpha" type="matrix" values="0 0 0 0 0 0 0 0 0 0 0 0 0 0 0 0 0 0 127 0" result="hardAlpha"/>
<feOffset dy="4"/>
<feGaussianBlur stdDeviation="2"/>
<feComposite in2="hardAlpha" operator="out"/>
<feColorMatrix type="matrix" values="0 0 0 0 0 0 0 0 0 0 0 0 0 0 0 0 0 0 0.15 0"/>
<feBlend mode="normal" in2="BackgroundImageFix" result="effect1_dropShadow_0_1"/>
<feBlend mode="normal" in="SourceGraphic" in2="effect1_dropShadow_0_1" result="shape"/>
</filter>
<filter id="filter4_d_0_1" x="263" y="0" width="197" height="40" filterUnits="userSpaceOnUse" color-interpolation-filters="sRGB">
<feFlood flood-opacity="0" result="BackgroundImageFix"/>
<feColorMatrix in="SourceAlpha" type="matrix" values="0 0 0 0 0 0 0 0 0 0 0 0 0 0 0 0 0 0 127 0" result="hardAlpha"/>
<feOffset dy="4"/>
<feGaussianBlur stdDeviation="2"/>
<feComposite in2="hardAlpha" operator="out"/>
<feColorMatrix type="matrix" values="0 0 0 0 0 0 0 0 0 0 0 0 0 0 0 0 0 0 0.15 0"/>
<feBlend mode="normal" in2="BackgroundImageFix" result="effect1_dropShadow_0_1"/>
<feBlend mode="normal" in="SourceGraphic" in2="effect1_dropShadow_0_1" result="shape"/>
</filter>
<filter id="filter5_d_0_1" x="263" y="97" width="197" height="120" filterUnits="userSpaceOnUse" color-interpolation-filters="sRGB">
<feFlood flood-opacity="0" result="BackgroundImageFix"/>
<feColorMatrix in="SourceAlpha" type="matrix" values="0 0 0 0 0 0 0 0 0 0 0 0 0 0 0 0 0 0 127 0" result="hardAlpha"/>
<feOffset dy="4"/>
<feGaussianBlur stdDeviation="2"/>
<feComposite in2="hardAlpha" operator="out"/>
<feColorMatrix type="matrix" values="0 0 0 0 0 0 0 0 0 0 0 0 0 0 0 0 0 0 0.15 0"/>
<feBlend mode="normal" in2="BackgroundImageFix" result="effect1_dropShadow_0_1"/>
<feBlend mode="normal" in="SourceGraphic" in2="effect1_dropShadow_0_1" result="shape"/>
</filter>
</defs>
</svg>
