<svg width="792" height="406" viewBox="0 0 792 406" fill="none" xmlns="http://www.w3.org/2000/svg">
<path d="M316.707 254.207C317.098 253.817 317.098 253.183 316.707 252.793L310.343 246.429C309.953 246.038 309.319 246.038 308.929 246.429C308.538 246.819 308.538 247.453 308.929 247.843L314.586 253.5L308.929 259.157C308.538 259.547 308.538 260.181 308.929 260.571C309.319 260.962 309.953 260.962 310.343 260.571L316.707 254.207ZM288 254.5L316 254.5L316 252.5L288 252.5L288 254.5Z" fill="#DADADA"/>
<path d="M53.7071 255.207C54.0976 254.817 54.0976 254.183 53.7071 253.793L47.3431 247.429C46.9526 247.038 46.3195 247.038 45.9289 247.429C45.5384 247.819 45.5384 248.453 45.9289 248.843L51.5858 254.5L45.9289 260.157C45.5384 260.547 45.5384 261.181 45.9289 261.571C46.3195 261.962 46.9526 261.962 47.3431 261.571L53.7071 255.207ZM25 255.5L53 255.5L53 253.5L25 253.5L25 255.5Z" fill="#DADADA"/>
<g filter="url(#filter0_d_33_35)">
<rect x="339" y="277" width="189" height="94" rx="10" fill="white"/>
<path d="M367.603 296.452L363.41 287.653H361.725L360.22 300H362.12L363.177 291.183L366.815 298.62H368.428L372.047 291.183L373.105 300H375.004L373.499 287.653H371.796L367.603 296.452ZM383.604 300H385.432V291.631H383.604V292.814C383.031 291.864 381.794 291.452 380.791 291.452C378.551 291.452 376.544 293.137 376.544 295.807C376.544 298.477 378.551 300.179 380.791 300.179C381.866 300.179 383.031 299.713 383.604 298.799V300ZM378.443 295.789C378.443 294.248 379.626 293.244 381.006 293.244C382.26 293.244 383.586 294.158 383.586 295.789C383.586 297.437 382.368 298.387 381.006 298.387C379.626 298.387 378.443 297.33 378.443 295.789ZM389.865 295.502C389.865 293.853 390.922 293.262 392.015 293.262C393.09 293.262 393.771 293.997 393.771 295.341V300H395.617V295.126C395.617 292.742 394.452 291.452 392.427 291.452C391.513 291.452 390.349 291.936 389.865 292.886V291.631H388.019V300H389.865V295.502ZM403.761 296.129C403.761 297.796 402.686 298.387 401.611 298.387C400.607 298.387 399.873 297.67 399.873 296.291V291.631H398.027V296.506C398.009 298.889 399.21 300.179 401.27 300.179C402.148 300.179 403.277 299.731 403.761 298.781V300H405.607V291.631H403.761V296.129ZM414.702 300H416.53V291.631H414.702V292.814C414.128 291.864 412.892 291.452 411.888 291.452C409.648 291.452 407.641 293.137 407.641 295.807C407.641 298.477 409.648 300.179 411.888 300.179C412.964 300.179 414.128 299.713 414.702 298.799V300ZM409.541 295.789C409.541 294.248 410.724 293.244 412.103 293.244C413.358 293.244 414.684 294.158 414.684 295.789C414.684 297.437 413.465 298.387 412.103 298.387C410.724 298.387 409.541 297.33 409.541 295.789ZM419.116 300H420.962V287.08H419.116V300ZM433.165 289.409C434.491 289.409 435.029 290.538 435.029 291.578C435.029 292.635 434.474 293.728 433.094 293.728H430.334V289.409H433.165ZM433.81 295.395C436.086 295.162 437 293.37 437 291.578C437 289.624 435.889 287.653 433.237 287.653H428.417V300H430.334V295.466H431.66L434.742 300H437.054L433.81 295.395ZM446.813 295.789C446.813 293.137 444.985 291.452 442.62 291.452C440.254 291.452 438.319 293.137 438.319 295.789C438.319 298.441 440.254 300.179 442.62 300.179C444.179 300.179 445.774 299.516 446.49 298.029L444.985 297.366C444.555 298.136 443.641 298.566 442.709 298.566C441.347 298.566 440.344 297.76 440.147 296.47H446.795C446.813 296.273 446.813 295.986 446.813 295.789ZM440.147 295.126C440.344 293.836 441.329 293.065 442.62 293.065C443.892 293.065 444.806 293.818 445.003 295.126H440.147ZM451.059 300H452.761L456.255 291.631H454.284L451.919 297.652L449.517 291.631H447.564L451.059 300ZM459.602 291.631H457.774V300H459.602V291.631ZM457.451 288.244C457.451 288.908 458.025 289.409 458.688 289.409C459.387 289.409 459.906 288.908 459.906 288.244C459.906 287.581 459.387 287.08 458.688 287.08C458.025 287.08 457.451 287.581 457.451 288.244ZM470.14 295.789C470.14 293.137 468.313 291.452 465.947 291.452C463.582 291.452 461.646 293.137 461.646 295.789C461.646 298.441 463.582 300.179 465.947 300.179C467.506 300.179 469.101 299.516 469.818 298.029L468.313 297.366C467.883 298.136 466.969 298.566 466.037 298.566C464.675 298.566 463.671 297.76 463.474 296.47H470.123C470.14 296.273 470.14 295.986 470.14 295.789ZM463.474 295.126C463.671 293.836 464.657 293.065 465.947 293.065C467.22 293.065 468.133 293.818 468.331 295.126H463.474ZM484.367 291.631H482.396L480.443 297.276L478.507 291.631H476.787L474.852 297.276L472.916 291.631H470.945L474.099 300H475.604L477.647 294.068L479.78 300H481.303L484.367 291.631Z" fill="#464646"/>
<path d="M360.832 328H368.448V326.262H362.731V322.803H367.569V321.065H362.731V317.409H368.268V315.653H360.832V328ZM372.365 324.989C372.365 322.767 373.028 321.19 374.605 321.19C374.963 321.19 375.357 321.244 375.841 321.477L376.146 319.775C375.877 319.578 375.25 319.452 374.659 319.452C373.601 319.452 372.795 320.044 372.365 321.549V319.631H370.519V328H372.365V324.989ZM379.522 324.989C379.522 322.767 380.185 321.19 381.762 321.19C382.121 321.19 382.515 321.244 382.999 321.477L383.303 319.775C383.035 319.578 382.407 319.452 381.816 319.452C380.759 319.452 379.952 320.044 379.522 321.549V319.631H377.676V328H379.522V324.989ZM388.476 326.387C387.096 326.387 385.949 325.366 385.949 323.789C385.949 322.266 387.096 321.262 388.476 321.262C389.874 321.262 391.021 322.266 391.021 323.789C391.021 325.366 389.874 326.387 388.476 326.387ZM388.476 328.179C390.859 328.179 392.866 326.441 392.866 323.789C392.866 321.137 390.859 319.452 388.476 319.452C386.111 319.452 384.121 321.137 384.121 323.789C384.121 326.441 386.111 328.179 388.476 328.179ZM396.76 324.989C396.76 322.767 397.423 321.19 399 321.19C399.358 321.19 399.752 321.244 400.236 321.477L400.541 319.775C400.272 319.578 399.645 319.452 399.054 319.452C397.996 319.452 397.19 320.044 396.76 321.549V319.631H394.914V328H396.76V324.989Z" fill="#464646"/>
<path d="M360.319 352.416C360.319 354.423 362.111 356.179 364.673 356.179C367.021 356.179 368.687 354.799 368.884 352.864C369.081 351.072 368.06 349.692 365.551 349.029L363.974 348.617C362.505 348.241 362.326 347.488 362.326 347.004C362.326 346.001 363.311 345.302 364.458 345.302C365.748 345.302 366.608 346.019 366.608 347.165H368.508C368.508 344.908 366.788 343.51 364.494 343.51C362.326 343.51 360.426 344.925 360.426 347.04C360.426 348.133 360.838 349.638 363.49 350.355L365.049 350.749C366.196 351.018 367.074 351.61 367.003 352.756C366.877 353.67 366.125 354.441 364.673 354.441C363.186 354.441 362.272 353.42 362.218 352.416H360.319ZM376.56 352.129C376.56 353.796 375.485 354.387 374.41 354.387C373.406 354.387 372.671 353.67 372.671 352.291V347.631H370.826V352.506C370.808 354.889 372.008 356.179 374.069 356.179C374.947 356.179 376.076 355.731 376.56 354.781V356H378.406V347.631H376.56V352.129ZM380.44 351.789C380.44 354.441 382.501 356.179 384.902 356.179C386.264 356.179 387.447 355.642 388.235 354.71L386.784 353.581C386.336 354.1 385.637 354.405 384.902 354.405C383.504 354.405 382.268 353.348 382.268 351.789C382.268 350.23 383.504 349.244 384.902 349.244C385.637 349.244 386.336 349.531 386.784 350.051L388.217 348.904C387.429 347.972 386.246 347.452 384.902 347.452C382.501 347.452 380.44 349.137 380.44 351.789ZM389.47 351.789C389.47 354.441 391.531 356.179 393.932 356.179C395.294 356.179 396.477 355.642 397.265 354.71L395.814 353.581C395.366 354.1 394.667 354.405 393.932 354.405C392.534 354.405 391.298 353.348 391.298 351.789C391.298 350.23 392.534 349.244 393.932 349.244C394.667 349.244 395.366 349.531 395.814 350.051L397.247 348.904C396.459 347.972 395.276 347.452 393.932 347.452C391.531 347.452 389.47 349.137 389.47 351.789ZM406.994 351.789C406.994 349.137 405.166 347.452 402.801 347.452C400.436 347.452 398.5 349.137 398.5 351.789C398.5 354.441 400.436 356.179 402.801 356.179C404.36 356.179 405.955 355.516 406.672 354.029L405.166 353.366C404.736 354.136 403.822 354.566 402.891 354.566C401.529 354.566 400.525 353.76 400.328 352.47H406.976C406.994 352.273 406.994 351.986 406.994 351.789ZM400.328 351.126C400.525 349.836 401.511 349.065 402.801 349.065C404.073 349.065 404.987 349.818 405.184 351.126H400.328ZM412.025 352.649C412.652 352.792 413.19 353.079 413.19 353.635C413.19 354.262 412.545 354.638 411.702 354.638C410.717 354.638 410.143 354.154 410.054 353.437H408.351C408.405 355.212 409.982 356.179 411.559 356.179C413.477 356.179 414.892 355.265 414.892 353.652C414.892 352.828 414.498 351.645 412.706 351.215L411.416 350.893C410.968 350.767 410.52 350.588 410.394 350.248C410.305 349.979 410.323 349.728 410.466 349.495C410.663 349.208 411.165 349.029 411.649 349.029C412.222 349.029 412.796 349.298 412.867 349.925H414.623C414.534 348.133 413.046 347.452 411.577 347.452C410.054 347.452 408.674 348.42 408.584 349.656C408.459 351.018 409.104 351.896 410.896 352.38L412.025 352.649ZM419.987 352.649C420.615 352.792 421.152 353.079 421.152 353.635C421.152 354.262 420.507 354.638 419.665 354.638C418.679 354.638 418.106 354.154 418.016 353.437H416.314C416.368 355.212 417.945 356.179 419.522 356.179C421.439 356.179 422.855 355.265 422.855 353.652C422.855 352.828 422.46 351.645 420.668 351.215L419.378 350.893C418.93 350.767 418.482 350.588 418.357 350.248C418.267 349.979 418.285 349.728 418.428 349.495C418.626 349.208 419.127 349.029 419.611 349.029C420.185 349.029 420.758 349.298 420.83 349.925H422.586C422.496 348.133 421.009 347.452 419.539 347.452C418.016 347.452 416.636 348.42 416.547 349.656C416.421 351.018 417.067 351.896 418.859 352.38L419.987 352.649Z" fill="#464646"/>
</g>
<rect x="339" y="237" width="189" height="33" rx="10" fill="#FAFAFA"/>
<path d="M382.625 247.653L386.389 260H388.718L392.481 247.653H389.74L387.553 255.753L385.349 247.653H382.625ZM399.241 260H401.714V251.631H399.241V252.563C398.56 251.649 397.359 251.452 396.804 251.452C394.671 251.452 392.539 253.137 392.539 255.807C392.539 258.477 394.671 260.161 396.804 260.161C397.431 260.161 398.721 259.839 399.241 259.05V260ZM395.119 255.807C395.119 254.606 396.159 253.818 397.216 253.818C398.237 253.818 399.241 254.57 399.241 255.807C399.241 257.061 398.237 257.796 397.216 257.796C396.159 257.796 395.119 257.007 395.119 255.807ZM404.013 247.08V260H406.504V247.08H404.013ZM414.185 256.058C414.185 257.33 413.45 257.76 412.679 257.76C412.106 257.76 411.192 257.437 411.192 256.093V251.631H408.701V256.631C408.701 259.014 410.135 260.179 412.016 260.179C412.823 260.179 413.737 259.695 414.185 258.853V260H416.675V251.631H414.185V256.058ZM424.853 257.24C424.441 257.796 423.724 258.029 423.026 258.029C422.13 258.029 421.108 257.599 420.965 256.631H427.093C427.111 256.416 427.129 256.076 427.129 255.86C427.129 253.226 425.23 251.452 422.846 251.452C420.463 251.452 418.474 253.137 418.474 255.789C418.474 258.423 420.463 260.179 422.846 260.179C424.28 260.179 425.803 259.731 426.663 258.477L424.853 257.24ZM421.001 255.072C421.198 253.997 422.183 253.638 422.864 253.638C423.581 253.638 424.477 254.051 424.62 255.072H421.001ZM436.698 254.803L437.952 250.502L439.26 254.803H436.698ZM440.102 257.079L441.195 260H443.955L439.386 247.653H436.536L431.949 260H434.744L435.837 257.079H440.102ZM444.426 255.789C444.426 258.423 446.595 260.179 448.978 260.179C450.483 260.179 451.827 259.534 452.616 258.387L450.591 256.954C450.25 257.509 449.623 257.796 448.978 257.796C447.921 257.796 446.899 256.989 446.899 255.789C446.899 254.588 447.921 253.836 448.978 253.836C449.623 253.836 450.25 254.122 450.591 254.678L452.616 253.226C451.809 252.079 450.483 251.452 448.978 251.452C446.595 251.452 444.426 253.137 444.426 255.789ZM457.605 251.631V248.424H455.132V251.631H453.608V253.603H455.132V260H457.605V253.603H459.361V251.631H457.605ZM463.361 251.631H460.888V260H463.361V251.631ZM460.566 248.531C460.566 249.338 461.282 250.001 462.125 250.001C462.985 250.001 463.648 249.338 463.648 248.531C463.648 247.689 462.967 247.08 462.125 247.08C461.282 247.08 460.566 247.707 460.566 248.531ZM469.483 257.706C468.462 257.706 467.601 256.954 467.601 255.789C467.601 254.642 468.462 253.889 469.483 253.889C470.54 253.889 471.383 254.642 471.383 255.789C471.383 256.954 470.54 257.706 469.483 257.706ZM469.483 260.143C471.848 260.143 473.838 258.423 473.838 255.789C473.838 253.137 471.848 251.452 469.483 251.452C467.1 251.452 465.146 253.137 465.146 255.789C465.146 258.423 467.1 260.143 469.483 260.143ZM478.114 255.574C478.114 254.301 478.777 253.871 479.655 253.871C480.497 253.871 481.107 254.409 481.107 255.538V260H483.598V255C483.598 252.617 482.415 251.452 480.533 251.452C479.53 251.452 478.562 252.008 478.114 252.85V251.631H475.623V260H478.114V255.574Z" fill="#464646"/>
<rect x="339" y="237" width="189" height="33" rx="10" stroke="#EAEAEA" stroke-width="2" stroke-miterlimit="0" stroke-linejoin="bevel"/>
<g filter="url(#filter1_d_33_35)">
<rect x="76" y="277" width="189" height="38" rx="10" fill="white"/>
<path d="M97.156 296.416C97.156 298.423 98.948 300.179 101.511 300.179C103.858 300.179 105.525 298.799 105.722 296.864C105.919 295.072 104.897 293.692 102.389 293.029L100.812 292.617C99.3422 292.241 99.163 291.488 99.163 291.004C99.163 290.001 100.149 289.302 101.296 289.302C102.586 289.302 103.446 290.019 103.446 291.165H105.345C105.345 288.908 103.625 287.51 101.331 287.51C99.163 287.51 97.2635 288.925 97.2635 291.04C97.2635 292.133 97.6757 293.638 100.328 294.355L101.887 294.749C103.034 295.018 103.912 295.61 103.84 296.756C103.715 297.67 102.962 298.441 101.511 298.441C100.023 298.441 99.1093 297.42 99.0555 296.416H97.156ZM115.797 295.789C115.797 293.137 113.969 291.452 111.603 291.452C109.238 291.452 107.303 293.137 107.303 295.789C107.303 298.441 109.238 300.179 111.603 300.179C113.162 300.179 114.757 299.516 115.474 298.029L113.969 297.366C113.539 298.136 112.625 298.566 111.693 298.566C110.331 298.566 109.328 297.76 109.13 296.47H115.779C115.797 296.273 115.797 295.986 115.797 295.789ZM109.13 295.126C109.328 293.836 110.313 293.065 111.603 293.065C112.876 293.065 113.79 293.818 113.987 295.126H109.13ZM120.254 288.46H118.408V291.631H116.903V293.155H118.408V300H120.254V293.155H122.028V291.631H120.254V288.46ZM127.571 296.416C127.571 298.423 129.363 300.179 131.926 300.179C134.273 300.179 135.94 298.799 136.137 296.864C136.334 295.072 135.312 293.692 132.804 293.029L131.227 292.617C129.757 292.241 129.578 291.488 129.578 291.004C129.578 290.001 130.564 289.302 131.711 289.302C133.001 289.302 133.861 290.019 133.861 291.165H135.76C135.76 288.908 134.04 287.51 131.746 287.51C129.578 287.51 127.679 288.925 127.679 291.04C127.679 292.133 128.091 293.638 130.743 294.355L132.302 294.749C133.449 295.018 134.327 295.61 134.255 296.756C134.13 297.67 133.377 298.441 131.926 298.441C130.438 298.441 129.524 297.42 129.471 296.416H127.571ZM140.659 288.46H138.813V291.631H137.308V293.155H138.813V300H140.659V293.155H142.433V291.631H140.659V288.46ZM150.571 300H152.398V291.631H150.571V292.814C149.997 291.864 148.761 291.452 147.757 291.452C145.517 291.452 143.51 293.137 143.51 295.807C143.51 298.477 145.517 300.179 147.757 300.179C148.832 300.179 149.997 299.713 150.571 298.799V300ZM145.41 295.789C145.41 294.248 146.592 293.244 147.972 293.244C149.227 293.244 150.553 294.158 150.553 295.789C150.553 297.437 149.334 298.387 147.972 298.387C146.592 298.387 145.41 297.33 145.41 295.789ZM157.494 288.46H155.648V291.631H154.143V293.155H155.648V300H157.494V293.155H159.268V291.631H157.494V288.46ZM166.65 296.129C166.65 297.796 165.575 298.387 164.5 298.387C163.496 298.387 162.761 297.67 162.761 296.291V291.631H160.916V296.506C160.898 298.889 162.098 300.179 164.159 300.179C165.037 300.179 166.166 299.731 166.65 298.781V300H168.496V291.631H166.65V296.129ZM174.15 296.649C174.777 296.792 175.315 297.079 175.315 297.635C175.315 298.262 174.67 298.638 173.827 298.638C172.842 298.638 172.268 298.154 172.179 297.437H170.476C170.53 299.212 172.107 300.179 173.684 300.179C175.601 300.179 177.017 299.265 177.017 297.652C177.017 296.828 176.623 295.645 174.831 295.215L173.541 294.893C173.093 294.767 172.645 294.588 172.519 294.248C172.43 293.979 172.448 293.728 172.591 293.495C172.788 293.208 173.29 293.029 173.774 293.029C174.347 293.029 174.921 293.298 174.992 293.925H176.748C176.659 292.133 175.171 291.452 173.702 291.452C172.179 291.452 170.799 292.42 170.709 293.656C170.584 295.018 171.229 295.896 173.021 296.38L174.15 296.649Z" fill="#464646"/>
</g>
<rect x="76" y="237" width="189" height="33" rx="10" fill="#FAFAFA"/>
<path d="M148.839 254.803L150.093 250.502L151.401 254.803H148.839ZM152.244 257.079L153.337 260H156.096L151.527 247.653H148.677L144.09 260H146.885L147.979 257.079H152.244ZM156.568 255.789C156.568 258.423 158.736 260.179 161.119 260.179C162.625 260.179 163.969 259.534 164.757 258.387L162.732 256.954C162.392 257.509 161.764 257.796 161.119 257.796C160.062 257.796 159.041 256.989 159.041 255.789C159.041 254.588 160.062 253.836 161.119 253.836C161.764 253.836 162.392 254.122 162.732 254.678L164.757 253.226C163.951 252.079 162.625 251.452 161.119 251.452C158.736 251.452 156.568 253.137 156.568 255.789ZM169.746 251.631V248.424H167.273V251.631H165.75V253.603H167.273V260H169.746V253.603H171.502V251.631H169.746ZM175.502 251.631H173.029V260H175.502V251.631ZM172.707 248.531C172.707 249.338 173.424 250.001 174.266 250.001C175.126 250.001 175.789 249.338 175.789 248.531C175.789 247.689 175.108 247.08 174.266 247.08C173.424 247.08 172.707 247.707 172.707 248.531ZM181.624 257.706C180.603 257.706 179.743 256.954 179.743 255.789C179.743 254.642 180.603 253.889 181.624 253.889C182.682 253.889 183.524 254.642 183.524 255.789C183.524 256.954 182.682 257.706 181.624 257.706ZM181.624 260.143C183.99 260.143 185.979 258.423 185.979 255.789C185.979 253.137 183.99 251.452 181.624 251.452C179.241 251.452 177.288 253.137 177.288 255.789C177.288 258.423 179.241 260.143 181.624 260.143ZM190.255 255.574C190.255 254.301 190.918 253.871 191.796 253.871C192.639 253.871 193.248 254.409 193.248 255.538V260H195.739V255C195.739 252.617 194.556 251.452 192.674 251.452C191.671 251.452 190.703 252.008 190.255 252.85V251.631H187.764V260H190.255V255.574Z" fill="#464646"/>
<rect x="76" y="237" width="189" height="33" rx="10" stroke="#EAEAEA" stroke-width="2" stroke-miterlimit="0" stroke-linejoin="bevel"/>
<path d="M72.3218 210.75H75.7982V221H78.1099V210.75H81.5864V208.653H72.3218V210.75ZM90.8554 208.653V213.832H85.9095V208.653H83.6336V221H85.9095V215.893H90.8554V221H93.1671V208.653H90.8554ZM96.2511 221H104.064V218.957H98.527V215.929H103.222V213.904H98.527V210.696H103.885V208.653H96.2511V221ZM115.645 208.653H113.352V216.681L108.639 208.653H106.506V221H108.782V212.882L113.549 221H115.645V208.653Z" fill="#999999"/>
<path d="M791.707 45.2071C792.098 44.8166 792.098 44.1834 791.707 43.7929L785.343 37.4289C784.953 37.0384 784.319 37.0384 783.929 37.4289C783.538 37.8195 783.538 38.4526 783.929 38.8431L789.586 44.5L783.929 50.1569C783.538 50.5474 783.538 51.1805 783.929 51.5711C784.319 51.9616 784.953 51.9616 785.343 51.5711L791.707 45.2071ZM763 45.5L791 45.5L791 43.5L763 43.5L763 45.5Z" fill="#DADADA"/>
<path d="M528.707 45.2071C529.098 44.8166 529.098 44.1834 528.707 43.7929L522.343 37.4289C521.953 37.0384 521.319 37.0384 520.929 37.4289C520.538 37.8195 520.538 38.4526 520.929 38.8431L526.586 44.5L520.929 50.1569C520.538 50.5474 520.538 51.1805 520.929 51.5711C521.319 51.9616 521.953 51.9616 522.343 51.5711L528.707 45.2071ZM500 45.5L528 45.5L528 43.5L500 43.5L500 45.5Z" fill="#DADADA"/>
<path d="M265.707 45.2071C266.098 44.8166 266.098 44.1834 265.707 43.7929L259.343 37.4289C258.953 37.0384 258.319 37.0384 257.929 37.4289C257.538 37.8195 257.538 38.4526 257.929 38.8431L263.586 44.5L257.929 50.1569C257.538 50.5474 257.538 51.1805 257.929 51.5711C258.319 51.9616 258.953 51.9616 259.343 51.5711L265.707 45.2071ZM237 45.5L265 45.5L265 43.5L237 43.5L237 45.5Z" fill="#DADADA"/>
<g filter="url(#filter2_d_33_35)">
<rect x="551" y="68" width="189" height="94" rx="10" fill="white"/>
<path d="M577.287 89.3514C575.872 89.3514 574.635 88.312 574.635 86.7171V78.6531H572.7V86.7171C572.7 89.441 574.796 91.1792 577.287 91.1792C579.742 91.1792 581.857 89.441 581.857 86.7171V78.6531H579.94V86.7171C579.94 88.312 578.703 89.3514 577.287 89.3514ZM588.16 84.7997L592.891 78.6531H590.651L586.87 83.6707V78.6531H584.953V91H586.87V86.0003L591.476 91H593.984L588.16 84.7997Z" fill="#464646"/>
<path d="M572.147 115.416C572.147 117.423 573.939 119.179 576.502 119.179C578.849 119.179 580.516 117.799 580.713 115.864C580.91 114.072 579.889 112.692 577.38 112.029L575.803 111.617C574.333 111.241 574.154 110.488 574.154 110.004C574.154 109.001 575.14 108.302 576.287 108.302C577.577 108.302 578.437 109.019 578.437 110.165H580.337C580.337 107.908 578.616 106.51 576.323 106.51C574.154 106.51 572.255 107.925 572.255 110.04C572.255 111.133 572.667 112.638 575.319 113.355L576.878 113.749C578.025 114.018 578.903 114.61 578.831 115.756C578.706 116.67 577.953 117.441 576.502 117.441C575.014 117.441 574.101 116.42 574.047 115.416H572.147ZM584.572 110.631H582.726V123.068H584.572V117.799C585.092 118.731 586.221 119.179 587.368 119.179C589.626 119.179 591.525 117.495 591.525 114.825C591.525 112.19 589.626 110.452 587.368 110.452C586.221 110.452 585.092 110.954 584.572 111.868V110.631ZM584.59 114.86C584.59 113.23 585.773 112.244 587.135 112.244C588.515 112.244 589.644 113.301 589.644 114.86C589.644 116.402 588.515 117.405 587.135 117.405C585.845 117.405 584.59 116.527 584.59 114.86ZM600.117 119H601.945V110.631H600.117V111.814C599.543 110.864 598.307 110.452 597.303 110.452C595.063 110.452 593.056 112.137 593.056 114.807C593.056 117.477 595.063 119.179 597.303 119.179C598.379 119.179 599.543 118.713 600.117 117.799V119ZM594.956 114.789C594.956 113.248 596.139 112.244 597.518 112.244C598.773 112.244 600.099 113.158 600.099 114.789C600.099 116.437 598.88 117.387 597.518 117.387C596.139 117.387 594.956 116.33 594.956 114.789ZM606.359 110.631H604.531V119H606.359V110.631ZM604.209 107.244C604.209 107.908 604.782 108.409 605.445 108.409C606.144 108.409 606.664 107.908 606.664 107.244C606.664 106.581 606.144 106.08 605.445 106.08C604.782 106.08 604.209 106.581 604.209 107.244ZM610.787 114.502C610.787 112.853 611.845 112.262 612.938 112.262C614.013 112.262 614.694 112.997 614.694 114.341V119H616.54V114.126C616.54 111.742 615.375 110.452 613.35 110.452C612.436 110.452 611.271 110.936 610.787 111.886V110.631H608.941V119H610.787V114.502Z" fill="#464646"/>
<path d="M577.699 136.409C579.025 136.409 579.563 137.538 579.563 138.578C579.563 139.635 579.007 140.728 577.627 140.728H574.868V136.409H577.699ZM578.344 142.395C580.62 142.162 581.534 140.37 581.534 138.578C581.534 136.624 580.423 134.653 577.771 134.653H572.95V147H574.868V142.466H576.194L579.276 147H581.588L578.344 142.395ZM589.263 143.129C589.263 144.796 588.187 145.387 587.112 145.387C586.109 145.387 585.374 144.67 585.374 143.291V138.631H583.528V143.506C583.51 145.889 584.711 147.179 586.772 147.179C587.65 147.179 588.779 146.731 589.263 145.781V147H591.108V138.631H589.263V143.129ZM596.762 143.649C597.39 143.792 597.927 144.079 597.927 144.635C597.927 145.262 597.282 145.638 596.44 145.638C595.454 145.638 594.881 145.154 594.791 144.437H593.089C593.143 146.212 594.72 147.179 596.297 147.179C598.214 147.179 599.63 146.265 599.63 144.652C599.63 143.828 599.235 142.645 597.443 142.215L596.153 141.893C595.705 141.767 595.257 141.588 595.132 141.248C595.042 140.979 595.06 140.728 595.203 140.495C595.401 140.208 595.902 140.029 596.386 140.029C596.96 140.029 597.533 140.298 597.605 140.925H599.361C599.271 139.133 597.784 138.452 596.314 138.452C594.791 138.452 593.411 139.42 593.322 140.656C593.196 142.018 593.842 142.896 595.634 143.38L596.762 143.649ZM604.725 143.649C605.352 143.792 605.89 144.079 605.89 144.635C605.89 145.262 605.245 145.638 604.402 145.638C603.417 145.638 602.843 145.154 602.754 144.437H601.051C601.105 146.212 602.682 147.179 604.259 147.179C606.176 147.179 607.592 146.265 607.592 144.652C607.592 143.828 607.198 142.645 605.406 142.215L604.116 141.893C603.668 141.767 603.22 141.588 603.094 141.248C603.005 140.979 603.023 140.728 603.166 140.495C603.363 140.208 603.865 140.029 604.349 140.029C604.922 140.029 605.496 140.298 605.567 140.925H607.323C607.234 139.133 605.746 138.452 604.277 138.452C602.754 138.452 601.374 139.42 601.284 140.656C601.159 142.018 601.804 142.896 603.596 143.38L604.725 143.649ZM611.433 138.631H609.605V147H611.433V138.631ZM609.283 135.244C609.283 135.908 609.856 136.409 610.519 136.409C611.218 136.409 611.738 135.908 611.738 135.244C611.738 134.581 611.218 134.08 610.519 134.08C609.856 134.08 609.283 134.581 609.283 135.244ZM620.538 147H622.366V138.631H620.538V139.814C619.965 138.864 618.728 138.452 617.725 138.452C615.485 138.452 613.478 140.137 613.478 142.807C613.478 145.477 615.485 147.179 617.725 147.179C618.8 147.179 619.965 146.713 620.538 145.799V147ZM615.377 142.789C615.377 141.248 616.56 140.244 617.94 140.244C619.194 140.244 620.52 141.158 620.52 142.789C620.52 144.437 619.302 145.387 617.94 145.387C616.56 145.387 615.377 144.33 615.377 142.789Z" fill="#464646"/>
</g>
<rect x="25" y="28" width="189" height="33" rx="10" fill="#FAFAFA"/>
<path d="M101.045 51H103.68V46.072H107.712V43.7782H103.68V40.9648H108.769V38.6531H101.045V51ZM112.856 42.6314H110.383V51H112.856V42.6314ZM110.061 39.5312C110.061 40.3376 110.777 41.0006 111.62 41.0006C112.48 41.0006 113.143 40.3376 113.143 39.5312C113.143 38.689 112.462 38.0797 111.62 38.0797C110.777 38.0797 110.061 38.7069 110.061 39.5312ZM121.021 48.2403C120.609 48.7958 119.892 49.0288 119.193 49.0288C118.297 49.0288 117.276 48.5987 117.132 47.631H123.261C123.279 47.416 123.297 47.0755 123.297 46.8605C123.297 44.2262 121.397 42.4522 119.014 42.4522C116.63 42.4522 114.641 44.1366 114.641 46.7888C114.641 49.423 116.63 51.1792 119.014 51.1792C120.447 51.1792 121.971 50.7312 122.831 49.4768L121.021 48.2403ZM117.168 46.072C117.365 44.9968 118.351 44.6384 119.032 44.6384C119.749 44.6384 120.645 45.0506 120.788 46.072H117.168ZM124.996 38.0797V51H127.487V38.0797H124.996ZM135.74 46.7888C135.74 48.0074 134.862 48.8138 133.805 48.8138C132.748 48.8138 131.87 48.0253 131.87 46.7888C131.87 45.5702 132.73 44.7997 133.805 44.7997C134.809 44.7997 135.74 45.5523 135.74 46.7888ZM138.267 51V38.0797H135.794V43.6528C135.382 42.8822 134.396 42.4522 133.339 42.4522C131.189 42.4522 129.289 44.1546 129.289 46.8426C129.289 49.4947 131.189 51.1792 133.339 51.1792C134.396 51.1792 135.382 50.7312 135.794 49.9606V51H138.267Z" fill="#464646"/>
<rect x="25" y="28" width="189" height="33" rx="10" stroke="#EAEAEA" stroke-width="2" stroke-miterlimit="0" stroke-linejoin="bevel"/>
<g filter="url(#filter3_d_33_35)">
<rect x="288" y="68" width="189" height="94" rx="10" fill="white"/>
<path d="M310.014 91H317.63V89.2618H311.914V85.8032H316.752V84.065H311.914V80.4093H317.451V78.6531H310.014V91ZM326.047 86.8605C326.047 88.527 324.739 89.4051 323.502 89.4051C322.104 89.4051 321.011 88.4016 321.011 86.8605C321.011 85.3014 322.104 84.2442 323.502 84.2442C324.864 84.2442 326.047 85.2298 326.047 86.8605ZM326.065 83.8678C325.563 82.9539 324.416 82.4522 323.269 82.4522C321.011 82.4522 319.112 84.1904 319.112 86.8246C319.112 89.4947 321.011 91.1792 323.269 91.1792C324.416 91.1792 325.563 90.7312 326.065 89.7994V95.0678H327.911V82.6314H326.065V83.8678ZM336.144 87.1293C336.144 88.7958 335.069 89.3872 333.993 89.3872C332.99 89.3872 332.255 88.6704 332.255 87.2906V82.6314H330.409V87.5056C330.391 89.889 331.592 91.1792 333.653 91.1792C334.531 91.1792 335.66 90.7312 336.144 89.7814V91H337.99V82.6314H336.144V87.1293ZM347.084 91H348.912V82.6314H347.084V83.8141C346.511 82.8643 345.274 82.4522 344.271 82.4522C342.031 82.4522 340.024 84.1366 340.024 86.8067C340.024 89.4768 342.031 91.1792 344.271 91.1792C345.346 91.1792 346.511 90.7133 347.084 89.7994V91ZM341.923 86.7888C341.923 85.2477 343.106 84.2442 344.486 84.2442C345.74 84.2442 347.066 85.1581 347.066 86.7888C347.066 88.4374 345.848 89.3872 344.486 89.3872C343.106 89.3872 341.923 88.3299 341.923 86.7888ZM351.499 91H353.345V78.0797H351.499V91ZM359.009 87.649C359.636 87.7923 360.174 88.079 360.174 88.6346C360.174 89.2618 359.528 89.6381 358.686 89.6381C357.701 89.6381 357.127 89.1542 357.038 88.4374H355.335C355.389 90.2115 356.966 91.1792 358.543 91.1792C360.46 91.1792 361.876 90.2653 361.876 88.6525C361.876 87.8282 361.482 86.6454 359.69 86.2154L358.399 85.8928C357.951 85.7674 357.503 85.5882 357.378 85.2477C357.288 84.9789 357.306 84.728 357.45 84.495C357.647 84.2083 358.149 84.0291 358.632 84.0291C359.206 84.0291 359.779 84.2979 359.851 84.9251H361.607C361.518 83.1331 360.03 82.4522 358.561 82.4522C357.038 82.4522 355.658 83.4198 355.568 84.6563C355.443 86.0182 356.088 86.8963 357.88 87.3802L359.009 87.649Z" fill="#464646"/>
<path d="M310.058 119H311.957V106.653H310.058V119ZM316.708 114.502C316.708 112.853 317.766 112.262 318.859 112.262C319.934 112.262 320.615 112.997 320.615 114.341V119H322.461V114.126C322.461 111.742 321.296 110.452 319.271 110.452C318.357 110.452 317.192 110.936 316.708 111.886V110.631H314.863V119H316.708V114.502ZM329.833 119H336.678V117.262H331.732V106.653H329.833V119ZM340.281 110.631H338.453V119H340.281V110.631ZM338.13 107.244C338.13 107.908 338.704 108.409 339.367 108.409C340.066 108.409 340.585 107.908 340.585 107.244C340.585 106.581 340.066 106.08 339.367 106.08C338.704 106.08 338.13 106.581 338.13 107.244ZM345.945 115.649C346.572 115.792 347.11 116.079 347.11 116.635C347.11 117.262 346.465 117.638 345.622 117.638C344.637 117.638 344.063 117.154 343.974 116.437H342.271C342.325 118.212 343.902 119.179 345.479 119.179C347.396 119.179 348.812 118.265 348.812 116.652C348.812 115.828 348.418 114.645 346.626 114.215L345.336 113.893C344.888 113.767 344.44 113.588 344.314 113.248C344.225 112.979 344.243 112.728 344.386 112.495C344.583 112.208 345.085 112.029 345.569 112.029C346.142 112.029 346.716 112.298 346.787 112.925H348.543C348.454 111.133 346.966 110.452 345.497 110.452C343.974 110.452 342.594 111.42 342.504 112.656C342.379 114.018 343.024 114.896 344.816 115.38L345.945 115.649ZM353.334 107.46H351.488V110.631H349.983V112.155H351.488V119H353.334V112.155H355.108V110.631H353.334V107.46Z" fill="#464646"/>
<path d="M318.654 134.653H316.755V143.416L311.504 134.653H309.677V147H311.576V138.165L316.88 147H318.654V134.653ZM325.176 145.387C323.796 145.387 322.649 144.366 322.649 142.789C322.649 141.266 323.796 140.262 325.176 140.262C326.574 140.262 327.721 141.266 327.721 142.789C327.721 144.366 326.574 145.387 325.176 145.387ZM325.176 147.179C327.559 147.179 329.566 145.441 329.566 142.789C329.566 140.137 327.559 138.452 325.176 138.452C322.811 138.452 320.821 140.137 320.821 142.789C320.821 145.441 322.811 147.179 325.176 147.179ZM334.123 135.46H332.277V138.631H330.772V140.155H332.277V147H334.123V140.155H335.897V138.631H334.123V135.46ZM343.662 138.631H341.834V147H343.662V138.631ZM341.511 135.244C341.511 135.908 342.085 136.409 342.748 136.409C343.447 136.409 343.966 135.908 343.966 135.244C343.966 134.581 343.447 134.08 342.748 134.08C342.085 134.08 341.511 134.581 341.511 135.244ZM348.09 142.502C348.09 140.853 349.147 140.262 350.24 140.262C351.315 140.262 351.996 140.997 351.996 142.341V147H353.842V142.126C353.842 139.742 352.677 138.452 350.652 138.452C349.738 138.452 348.574 138.936 348.09 139.886V138.631H346.244V147H348.09V142.502ZM361.214 147H368.059V145.262H363.114V134.653H361.214V147ZM371.662 138.631H369.834V147H371.662V138.631ZM369.511 135.244C369.511 135.908 370.085 136.409 370.748 136.409C371.447 136.409 371.966 135.908 371.966 135.244C371.966 134.581 371.447 134.08 370.748 134.08C370.085 134.08 369.511 134.581 369.511 135.244ZM377.326 143.649C377.953 143.792 378.491 144.079 378.491 144.635C378.491 145.262 377.846 145.638 377.004 145.638C376.018 145.638 375.445 145.154 375.355 144.437H373.653C373.706 146.212 375.283 147.179 376.86 147.179C378.778 147.179 380.193 146.265 380.193 144.652C380.193 143.828 379.799 142.645 378.007 142.215L376.717 141.893C376.269 141.767 375.821 141.588 375.696 141.248C375.606 140.979 375.624 140.728 375.767 140.495C375.964 140.208 376.466 140.029 376.95 140.029C377.523 140.029 378.097 140.298 378.168 140.925H379.925C379.835 139.133 378.348 138.452 376.878 138.452C375.355 138.452 373.975 139.42 373.886 140.656C373.76 142.018 374.405 142.896 376.197 143.38L377.326 143.649ZM384.715 135.46H382.87V138.631H381.364V140.155H382.87V147H384.715V140.155H386.489V138.631H384.715V135.46Z" fill="#464646"/>
</g>
<rect x="288" y="28" width="189" height="33" rx="10" fill="#FAFAFA"/>
<path d="M347.395 44.8534C347.395 42.7926 348.972 41.1082 351.033 41.1082C353.075 41.1082 354.688 42.7926 354.688 44.8534C354.688 46.9142 353.075 48.5808 351.033 48.5808C348.972 48.5808 347.395 46.9142 347.395 44.8534ZM344.778 44.8534C344.778 48.3299 347.538 51.1792 351.033 51.1792C354.545 51.1792 357.305 48.3299 357.305 44.8534C357.305 41.359 354.545 38.5098 351.033 38.5098C347.538 38.5098 344.778 41.359 344.778 44.8534ZM361.612 46.8426C361.612 45.624 362.49 44.8176 363.548 44.8176C364.605 44.8176 365.483 45.6061 365.483 46.8426C365.483 48.0611 364.623 48.8317 363.548 48.8317C362.544 48.8317 361.612 48.097 361.612 46.8426ZM359.086 42.6314V55.1037H361.559V49.9786C361.971 50.7491 362.956 51.1792 364.014 51.1792C366.164 51.1792 368.064 49.4768 368.064 46.7888C368.064 44.1366 366.164 42.4522 364.014 42.4522C362.956 42.4522 361.971 42.9002 361.559 43.6707V42.6314H359.086ZM375.743 48.2403C375.331 48.7958 374.614 49.0288 373.916 49.0288C373.02 49.0288 371.998 48.5987 371.855 47.631H377.983C378.001 47.416 378.019 47.0755 378.019 46.8605C378.019 44.2262 376.12 42.4522 373.736 42.4522C371.353 42.4522 369.364 44.1366 369.364 46.7888C369.364 49.423 371.353 51.1792 373.736 51.1792C375.17 51.1792 376.693 50.7312 377.553 49.4768L375.743 48.2403ZM371.891 46.072C372.088 44.9968 373.073 44.6384 373.754 44.6384C374.471 44.6384 375.367 45.0506 375.51 46.072H371.891ZM382.209 48.079C382.209 45.857 382.854 44.7459 384.288 44.7459C384.7 44.7459 385.112 44.7818 385.56 44.9968L386.008 42.7568C385.596 42.5597 385.166 42.4522 384.574 42.4522C383.714 42.4522 382.639 43.0973 382.209 44.6563V42.6314H379.718V51H382.209V48.079ZM393.356 51H395.829V42.6314H393.356V43.5632C392.675 42.6493 391.474 42.4522 390.919 42.4522C388.786 42.4522 386.654 44.1366 386.654 46.8067C386.654 49.4768 388.786 51.1613 390.919 51.1613C391.546 51.1613 392.836 50.8387 393.356 50.0502V51ZM389.234 46.8067C389.234 45.6061 390.274 44.8176 391.331 44.8176C392.352 44.8176 393.356 45.5702 393.356 46.8067C393.356 48.0611 392.352 48.7958 391.331 48.7958C390.274 48.7958 389.234 48.0074 389.234 46.8067ZM401.39 42.6314V39.4237H398.917V42.6314H397.393V44.6026H398.917V51H401.39V44.6026H403.146V42.6314H401.39ZM408.386 48.7062C407.364 48.7062 406.504 47.9536 406.504 46.7888C406.504 45.6419 407.364 44.8893 408.386 44.8893C409.443 44.8893 410.285 45.6419 410.285 46.7888C410.285 47.9536 409.443 48.7062 408.386 48.7062ZM408.386 51.1434C410.751 51.1434 412.74 49.423 412.74 46.7888C412.74 44.1366 410.751 42.4522 408.386 42.4522C406.002 42.4522 404.049 44.1366 404.049 46.7888C404.049 49.423 406.002 51.1434 408.386 51.1434ZM417.017 48.079C417.017 45.857 417.662 44.7459 419.095 44.7459C419.507 44.7459 419.92 44.7818 420.368 44.9968L420.816 42.7568C420.403 42.5597 419.973 42.4522 419.382 42.4522C418.522 42.4522 417.447 43.0973 417.017 44.6563V42.6314H414.526V51H417.017V48.079Z" fill="#464646"/>
<rect x="288" y="28" width="189" height="33" rx="10" stroke="#EAEAEA" stroke-width="2" stroke-miterlimit="0" stroke-linejoin="bevel"/>
<g filter="url(#filter4_d_33_35)">
<rect x="25" y="68" width="189" height="94" rx="10" fill="white"/>
<path d="M55.449 87.7386C54.6785 88.7421 53.4778 89.3514 52.1159 89.3514C49.6609 89.3514 47.7793 87.3622 47.7793 84.8534C47.7793 82.3626 49.6609 80.3376 52.1159 80.3376C53.4778 80.3376 54.6068 80.9648 55.4132 81.8787L56.8826 80.7318C55.7895 79.3699 54.105 78.5098 52.1159 78.5098C48.6215 78.5098 45.8797 81.359 45.8797 84.8534C45.8797 88.3658 48.6215 91.1792 52.1159 91.1792C54.1409 91.1792 55.8433 90.319 56.9185 88.9034L55.449 87.7386ZM62.3947 89.3872C61.0149 89.3872 59.868 88.3658 59.868 86.7888C59.868 85.2656 61.0149 84.2621 62.3947 84.2621C63.7925 84.2621 64.9393 85.2656 64.9393 86.7888C64.9393 88.3658 63.7925 89.3872 62.3947 89.3872ZM62.3947 91.1792C64.7781 91.1792 66.7851 89.441 66.7851 86.7888C66.7851 84.1366 64.7781 82.4522 62.3947 82.4522C60.0293 82.4522 58.0401 84.1366 58.0401 86.7888C58.0401 89.441 60.0293 91.1792 62.3947 91.1792ZM74.4775 87.1293C74.4775 88.7958 73.4023 89.3872 72.3271 89.3872C71.3236 89.3872 70.5889 88.6704 70.5889 87.2906V82.6314H68.7431V87.5056C68.7252 89.889 69.9259 91.1792 71.9867 91.1792C72.8647 91.1792 73.9937 90.7312 74.4775 89.7814V91H76.3233V82.6314H74.4775V87.1293ZM80.741 86.5021C80.741 84.8534 81.7983 84.2621 82.8914 84.2621C83.9666 84.2621 84.6476 84.9968 84.6476 86.3408V91H86.4933V86.1258C86.4933 83.7424 85.3285 82.4522 83.3036 82.4522C82.3896 82.4522 81.2248 82.936 80.741 83.8858V82.6314H78.8952V91H80.741V86.5021ZM91.5015 79.4595H89.6558V82.6314H88.1505V84.1546H89.6558V91H91.5015V84.1546H93.2756V82.6314H91.5015V79.4595ZM96.8585 87.9894C96.8585 85.7674 97.5215 84.1904 99.0985 84.1904C99.4569 84.1904 99.8511 84.2442 100.335 84.4771L100.64 82.7747C100.371 82.5776 99.7436 82.4522 99.1523 82.4522C98.095 82.4522 97.2886 83.0435 96.8585 84.5488V82.6314H95.0127V91H96.8585V87.9894ZM109.732 82.6314H107.761L105.414 88.3658L103.084 82.6314H101.113L104.428 90.6058L102.618 95.0858H104.554L109.732 82.6314Z" fill="#464646"/>
<path d="M54.848 109.771L55.7261 106.653H54.0595L53.1815 109.771H51.2819L52.16 106.653H50.4935L49.6154 109.771H47.7159L47.3037 111.33H49.1853L48.3251 114.43H46.4077L45.9955 115.989H47.8951L47.017 119H48.6477L49.5437 115.989H51.4253L50.5651 119H52.1959L53.0919 115.989H55.0272L55.4573 114.43H53.5219L54.4 111.33H56.3354L56.7655 109.771H54.848ZM50.8339 111.33H52.7335L51.8554 114.43H49.9738L50.8339 111.33ZM71.4372 119H73.4442L68.785 106.653H66.7242L62.065 119H64.09L65.2727 115.918H70.2545L71.4372 119ZM67.7636 109.036L69.6093 114.215H65.9178L67.7636 109.036ZM77.149 107.46H75.3033V110.631H73.798V112.155H75.3033V119H77.149V112.155H78.9231V110.631H77.149V107.46ZM83.169 107.46H81.3233V110.631H79.818V112.155H81.3233V119H83.169V112.155H84.9431V110.631H83.169V107.46ZM94.5142 114.789C94.5142 112.137 92.6864 110.452 90.3209 110.452C87.9555 110.452 86.0201 112.137 86.0201 114.789C86.0201 117.441 87.9555 119.179 90.3209 119.179C91.88 119.179 93.4749 118.516 94.1917 117.029L92.6864 116.366C92.2563 117.136 91.3424 117.566 90.4105 117.566C89.0486 117.566 88.0451 116.76 87.848 115.47H94.4963C94.5142 115.273 94.5142 114.986 94.5142 114.789ZM87.848 114.126C88.0451 112.836 89.0307 112.065 90.3209 112.065C91.5933 112.065 92.5072 112.818 92.7043 114.126H87.848ZM105.996 112.262C107.071 112.262 107.77 113.033 107.77 114.341V119H109.616V114.18C109.616 111.796 108.469 110.452 106.39 110.452C105.638 110.452 104.348 110.667 103.577 112.119C103.093 111.044 102.287 110.452 100.943 110.452C100.262 110.452 98.8819 110.739 98.3085 111.886V110.631H96.4627V119H98.3085V114.502C98.3085 112.853 99.3479 112.262 100.423 112.262C101.427 112.262 102.108 113.015 102.125 114.305V119H103.971V114.502C103.971 113.14 104.778 112.262 105.996 112.262ZM113.954 110.631H112.108V123.068H113.954V117.799C114.473 118.731 115.602 119.179 116.749 119.179C119.007 119.179 120.906 117.495 120.906 114.825C120.906 112.19 119.007 110.452 116.749 110.452C115.602 110.452 114.473 110.954 113.954 111.868V110.631ZM113.971 114.86C113.971 113.23 115.154 112.244 116.516 112.244C117.896 112.244 119.025 113.301 119.025 114.86C119.025 116.402 117.896 117.405 116.516 117.405C115.226 117.405 113.971 116.527 113.971 114.86ZM125.484 107.46H123.638V110.631H122.133V112.155H123.638V119H125.484V112.155H127.258V110.631H125.484V107.46ZM132.077 115.649C132.705 115.792 133.242 116.079 133.242 116.635C133.242 117.262 132.597 117.638 131.755 117.638C130.769 117.638 130.196 117.154 130.106 116.437H128.404C128.458 118.212 130.035 119.179 131.612 119.179C133.529 119.179 134.945 118.265 134.945 116.652C134.945 115.828 134.55 114.645 132.758 114.215L131.468 113.893C131.02 113.767 130.572 113.588 130.447 113.248C130.357 112.979 130.375 112.728 130.518 112.495C130.716 112.208 131.217 112.029 131.701 112.029C132.275 112.029 132.848 112.298 132.92 112.925H134.676C134.586 111.133 133.099 110.452 131.629 110.452C130.106 110.452 128.726 111.42 128.637 112.656C128.511 114.018 129.157 114.896 130.949 115.38L132.077 115.649Z" fill="#464646"/>
<path d="M54.8184 147H56.8255L52.1663 134.653H50.1055L45.4463 147H47.4712L48.6539 143.918H53.6357L54.8184 147ZM51.1448 137.036L52.9906 142.215H49.2991L51.1448 137.036ZM64.614 142.825C64.614 144.473 63.2879 145.405 62.0335 145.405C60.6357 145.405 59.4888 144.402 59.4888 142.825C59.4888 141.301 60.6357 140.244 62.0335 140.244C63.4133 140.244 64.614 141.158 64.614 142.825ZM59.5067 148.057C59.1663 148.201 58.324 148.684 57.9835 148.828C58.772 150.333 60.2235 151.175 61.8543 151.175C64.6677 151.175 66.4597 149.616 66.4597 145.764V138.631H64.6498V139.868C64.1301 138.954 62.9653 138.452 61.8184 138.452C59.5605 138.452 57.5893 140.19 57.5893 142.843C57.5893 145.495 59.5605 147.179 61.8184 147.179C62.9474 147.179 64.1839 146.677 64.6498 145.728V146.158C64.6498 148.505 63.5567 149.455 61.8543 149.455C60.9403 149.455 59.9547 148.935 59.5067 148.057ZM77.003 142.789C77.003 140.137 75.1751 138.452 72.8097 138.452C70.4442 138.452 68.5089 140.137 68.5089 142.789C68.5089 145.441 70.4442 147.179 72.8097 147.179C74.3687 147.179 75.9636 146.516 76.6804 145.029L75.1751 144.366C74.745 145.136 73.8311 145.566 72.8993 145.566C71.5374 145.566 70.5338 144.76 70.3367 143.47H76.985C77.003 143.273 77.003 142.986 77.003 142.789ZM70.3367 142.126C70.5338 140.836 71.5194 140.065 72.8097 140.065C74.082 140.065 74.9959 140.818 75.193 142.126H70.3367Z" fill="#464646"/>
</g>
<rect x="551" y="30" width="189" height="33" rx="10" fill="#FAFAFA"/>
<path d="M602.467 53H605.101V48.072H609.133V45.7782H605.101V42.9648H610.19V40.6531H602.467V53ZM614.277 44.6314H611.804V53H614.277V44.6314ZM611.482 41.5312C611.482 42.3376 612.199 43.0006 613.041 43.0006C613.901 43.0006 614.564 42.3376 614.564 41.5312C614.564 40.689 613.883 40.0797 613.041 40.0797C612.199 40.0797 611.482 40.7069 611.482 41.5312ZM622.442 50.2403C622.03 50.7958 621.313 51.0288 620.614 51.0288C619.718 51.0288 618.697 50.5987 618.553 49.631H624.682C624.7 49.416 624.718 49.0755 624.718 48.8605C624.718 46.2262 622.818 44.4522 620.435 44.4522C618.052 44.4522 616.063 46.1366 616.063 48.7888C616.063 51.423 618.052 53.1792 620.435 53.1792C621.869 53.1792 623.392 52.7312 624.252 51.4768L622.442 50.2403ZM618.589 48.072C618.786 46.9968 619.772 46.6384 620.453 46.6384C621.17 46.6384 622.066 47.0506 622.209 48.072H618.589ZM626.417 40.0797V53H628.908V40.0797H626.417ZM637.162 48.7888C637.162 50.0074 636.284 50.8138 635.226 50.8138C634.169 50.8138 633.291 50.0253 633.291 48.7888C633.291 47.5702 634.151 46.7997 635.226 46.7997C636.23 46.7997 637.162 47.5523 637.162 48.7888ZM639.688 53V40.0797H637.216V45.6528C636.803 44.8822 635.818 44.4522 634.76 44.4522C632.61 44.4522 630.711 46.1546 630.711 48.8426C630.711 51.4947 632.61 53.1792 634.76 53.1792C635.818 53.1792 636.803 52.7312 637.216 51.9606V53H639.688ZM644.929 40.6531L648.692 53H651.022L654.785 40.6531H652.043L649.857 48.753L647.653 40.6531H644.929ZM661.545 53H664.018V44.6314H661.545V45.5632C660.864 44.6493 659.663 44.4522 659.108 44.4522C656.975 44.4522 654.843 46.1366 654.843 48.8067C654.843 51.4768 656.975 53.1613 659.108 53.1613C659.735 53.1613 661.025 52.8387 661.545 52.0502V53ZM657.423 48.8067C657.423 47.6061 658.462 46.8176 659.52 46.8176C660.541 46.8176 661.545 47.5702 661.545 48.8067C661.545 50.0611 660.541 50.7958 659.52 50.7958C658.462 50.7958 657.423 50.0074 657.423 48.8067ZM666.317 40.0797V53H668.808V40.0797H666.317ZM676.488 49.0576C676.488 50.3299 675.754 50.76 674.983 50.76C674.41 50.76 673.496 50.4374 673.496 49.0934V44.6314H671.005V49.631C671.005 52.0144 672.438 53.1792 674.32 53.1792C675.126 53.1792 676.04 52.6954 676.488 51.8531V53H678.979V44.6314H676.488V49.0576ZM687.157 50.2403C686.745 50.7958 686.028 51.0288 685.329 51.0288C684.433 51.0288 683.412 50.5987 683.268 49.631H689.397C689.415 49.416 689.433 49.0755 689.433 48.8605C689.433 46.2262 687.533 44.4522 685.15 44.4522C682.767 44.4522 680.778 46.1366 680.778 48.7888C680.778 51.423 682.767 53.1792 685.15 53.1792C686.584 53.1792 688.107 52.7312 688.967 51.4768L687.157 50.2403ZM683.304 48.072C683.501 46.9968 684.487 46.6384 685.168 46.6384C685.885 46.6384 686.781 47.0506 686.924 48.072H683.304Z" fill="#464646"/>
<rect x="551" y="30" width="189" height="33" rx="10" stroke="#EAEAEA" stroke-width="2" stroke-miterlimit="0" stroke-linejoin="bevel"/>
<path d="M29.2961 13H31.572V0.65312H29.2961V13ZM34.6511 13H36.9449V7.94656H41.1023V5.90368H36.9449V2.696H42.1954V0.65312H34.6511V13Z" fill="#999999"/>
<defs>
<filter id="filter0_d_33_35" x="314" y="262" width="239" height="144" filterUnits="userSpaceOnUse" color-interpolation-filters="sRGB">
<feFlood flood-opacity="0" result="BackgroundImageFix"/>
<feColorMatrix in="SourceAlpha" type="matrix" values="0 0 0 0 0 0 0 0 0 0 0 0 0 0 0 0 0 0 127 0" result="hardAlpha"/>
<feMorphology radius="10" operator="erode" in="SourceAlpha" result="effect1_dropShadow_33_35"/>
<feOffset dy="10"/>
<feGaussianBlur stdDeviation="17.5"/>
<feComposite in2="hardAlpha" operator="out"/>
<feColorMatrix type="matrix" values="0 0 0 0 0 0 0 0 0 0 0 0 0 0 0 0 0 0 0.35 0"/>
<feBlend mode="normal" in2="BackgroundImageFix" result="effect1_dropShadow_33_35"/>
<feBlend mode="normal" in="SourceGraphic" in2="effect1_dropShadow_33_35" result="shape"/>
</filter>
<filter id="filter1_d_33_35" x="51" y="262" width="239" height="88" filterUnits="userSpaceOnUse" color-interpolation-filters="sRGB">
<feFlood flood-opacity="0" result="BackgroundImageFix"/>
<feColorMatrix in="SourceAlpha" type="matrix" values="0 0 0 0 0 0 0 0 0 0 0 0 0 0 0 0 0 0 127 0" result="hardAlpha"/>
<feMorphology radius="10" operator="erode" in="SourceAlpha" result="effect1_dropShadow_33_35"/>
<feOffset dy="10"/>
<feGaussianBlur stdDeviation="17.5"/>
<feComposite in2="hardAlpha" operator="out"/>
<feColorMatrix type="matrix" values="0 0 0 0 0 0 0 0 0 0 0 0 0 0 0 0 0 0 0.35 0"/>
<feBlend mode="normal" in2="BackgroundImageFix" result="effect1_dropShadow_33_35"/>
<feBlend mode="normal" in="SourceGraphic" in2="effect1_dropShadow_33_35" result="shape"/>
</filter>
<filter id="filter2_d_33_35" x="526" y="53" width="239" height="144" filterUnits="userSpaceOnUse" color-interpolation-filters="sRGB">
<feFlood flood-opacity="0" result="BackgroundImageFix"/>
<feColorMatrix in="SourceAlpha" type="matrix" values="0 0 0 0 0 0 0 0 0 0 0 0 0 0 0 0 0 0 127 0" result="hardAlpha"/>
<feMorphology radius="10" operator="erode" in="SourceAlpha" result="effect1_dropShadow_33_35"/>
<feOffset dy="10"/>
<feGaussianBlur stdDeviation="17.5"/>
<feComposite in2="hardAlpha" operator="out"/>
<feColorMatrix type="matrix" values="0 0 0 0 0 0 0 0 0 0 0 0 0 0 0 0 0 0 0.35 0"/>
<feBlend mode="normal" in2="BackgroundImageFix" result="effect1_dropShadow_33_35"/>
<feBlend mode="normal" in="SourceGraphic" in2="effect1_dropShadow_33_35" result="shape"/>
</filter>
<filter id="filter3_d_33_35" x="263" y="53" width="239" height="144" filterUnits="userSpaceOnUse" color-interpolation-filters="sRGB">
<feFlood flood-opacity="0" result="BackgroundImageFix"/>
<feColorMatrix in="SourceAlpha" type="matrix" values="0 0 0 0 0 0 0 0 0 0 0 0 0 0 0 0 0 0 127 0" result="hardAlpha"/>
<feMorphology radius="10" operator="erode" in="SourceAlpha" result="effect1_dropShadow_33_35"/>
<feOffset dy="10"/>
<feGaussianBlur stdDeviation="17.5"/>
<feComposite in2="hardAlpha" operator="out"/>
<feColorMatrix type="matrix" values="0 0 0 0 0 0 0 0 0 0 0 0 0 0 0 0 0 0 0.35 0"/>
<feBlend mode="normal" in2="BackgroundImageFix" result="effect1_dropShadow_33_35"/>
<feBlend mode="normal" in="SourceGraphic" in2="effect1_dropShadow_33_35" result="shape"/>
</filter>
<filter id="filter4_d_33_35" x="0" y="53" width="239" height="144" filterUnits="userSpaceOnUse" color-interpolation-filters="sRGB">
<feFlood flood-opacity="0" result="BackgroundImageFix"/>
<feColorMatrix in="SourceAlpha" type="matrix" values="0 0 0 0 0 0 0 0 0 0 0 0 0 0 0 0 0 0 127 0" result="hardAlpha"/>
<feMorphology radius="10" operator="erode" in="SourceAlpha" result="effect1_dropShadow_33_35"/>
<feOffset dy="10"/>
<feGaussianBlur stdDeviation="17.5"/>
<feComposite in2="hardAlpha" operator="out"/>
<feColorMatrix type="matrix" values="0 0 0 0 0 0 0 0 0 0 0 0 0 0 0 0 0 0 0.35 0"/>
<feBlend mode="normal" in2="BackgroundImageFix" result="effect1_dropShadow_33_35"/>
<feBlend mode="normal" in="SourceGraphic" in2="effect1_dropShadow_33_35" result="shape"/>
</filter>
</defs>
</svg>
