<?xml version="1.0" encoding="utf-8"?>
<!-- Generator: Adobe Illustrator 24.0.1, SVG Export Plug-In . SVG Version: 6.00 Build 0)  -->
<svg version="1.1" id="Duotone" xmlns="http://www.w3.org/2000/svg" xmlns:xlink="http://www.w3.org/1999/xlink" x="0px" y="0px"
	 viewBox="0 0 91.8 313.1" style="enable-background:new 0 0 91.8 313.1;" xml:space="preserve">
<style type="text/css">
	.st0{fill:none;stroke:#2963FF;stroke-width:1.0968;stroke-linecap:round;stroke-linejoin:round;}
	.st1{fill:#FFFFFF;stroke:#2963FF;stroke-width:1.0968;stroke-miterlimit:10;}
	.st2{fill:#dce5ff;stroke:#2963FF;stroke-width:1.0968;stroke-linecap:round;stroke-linejoin:round;}
	.st3{fill:#FFFFFF;stroke:#2963FF;stroke-width:1.0968;stroke-linecap:round;stroke-linejoin:round;}
	.st4{fill:#FFFFFF;}
	.st5{fill:#dce5ff;}
	.st6{fill:none;stroke:#2963FF;stroke-width:1.0354;stroke-linecap:round;stroke-linejoin:round;}
	.st7{fill:#dce5ff;stroke:#2963FF;stroke-width:1.0354;stroke-linecap:round;stroke-linejoin:round;}
	.st8{fill:#F0F2FF;}
	.st9{fill:none;stroke:#2963FF;stroke-width:1.0597;stroke-linecap:round;stroke-linejoin:round;}
	.st10{fill:#FFFFFF;stroke:#2963FF;stroke-width:1.0597;stroke-linecap:round;stroke-linejoin:round;}
	.st11{fill-rule:evenodd;clip-rule:evenodd;fill:#2963FF;}
	.st12{display:none;fill:none;stroke:#2963FF;stroke-width:1.0597;stroke-miterlimit:10;}
	.st13{display:none;fill:none;stroke:#2963FF;stroke-width:1.0597;stroke-linecap:round;stroke-linejoin:round;}
	.st14{fill:none;stroke:#2963FF;stroke-width:0.8182;stroke-linecap:round;stroke-linejoin:round;}
	.st15{fill:#2963FF;stroke:#2963FF;stroke-width:0.9961;}
	.st16{fill-rule:evenodd;clip-rule:evenodd;fill:#09B3FF;}
	.st17{fill:#dce5ff;stroke:#2963FF;stroke-width:0.8695;stroke-linejoin:round;}
	.st18{fill:#FFFFFF;stroke:#2963FF;stroke-width:0.8695;stroke-linecap:round;stroke-linejoin:round;}
	.st19{fill:none;stroke:#2963FF;stroke-width:0.8695;stroke-linecap:round;stroke-linejoin:round;}
	.st20{fill:#dce5ff;stroke:#2963FF;stroke-width:0.8695;stroke-linecap:round;stroke-linejoin:round;}
	.st21{fill:none;stroke:#2963FF;stroke-width:1.0238;stroke-linecap:round;stroke-linejoin:round;}
	.st22{fill:#dce5ff;stroke:#2963FF;stroke-width:1.0238;stroke-linecap:round;stroke-linejoin:round;}
	.st23{fill:#2963FF;}
	.st24{fill:none;stroke:#2963FF;stroke-width:0.7868;stroke-linecap:round;stroke-linejoin:round;}
	.st25{fill:#FFFFFF;stroke:#2963FF;stroke-width:0.7868;stroke-linecap:round;stroke-linejoin:round;}
</style>
<title>37- user-male-african-american</title>
<g>
	<g>
		<path class="st0" d="M48.2,38.3c-8.9-0.2-16.3,7-16.4,15.9c0,0.1,0,0.2,0,0.3V58h32.9v-3.6c0-8.9-7.2-16.2-16.2-16.2
			C48.4,38.3,48.3,38.3,48.2,38.3z"/>
		<path class="st1" d="M48.2,38.3c-8.9-0.2-16.3,7-16.4,15.9c0,0.1,0,0.2,0,0.3V58h32.9v-3.6c0-8.9-7.2-16.2-16.2-16.2
			C48.4,38.3,48.3,38.3,48.2,38.3z"/>
		<line class="st0" x1="37.8" y1="58" x2="37.8" y2="53.1"/>
		<line class="st0" x1="58.6" y1="58" x2="58.6" y2="53.1"/>
		<path class="st2" d="M46.6,44.3h3.3l0,0v8.2c0,0.6-0.5,1.1-1.1,1.1h-1.1c-0.6,0-1.1-0.5-1.1-1.1V44.3L46.6,44.3z"/>
		<path class="st1" d="M44.4,33.4v5.8c0,2.1,1.7,3.8,3.8,3.8c2.1,0,3.8-1.7,3.8-3.8v-5.8H44.4z"/>
		<path class="st2" d="M48.2,45.4c3.3-0.1,6.1-2.6,6.4-5.9c-2-0.8-4.2-1.2-6.4-1.2c-2.2,0-4.4,0.4-6.4,1.2
			C42.1,42.8,44.9,45.4,48.2,45.4z"/>
		<path class="st0" d="M44.4,33.4v5.8c0,2.1,1.7,3.8,3.8,3.8c2.1,0,3.8-1.7,3.8-3.8v-5.8H44.4z"/>
		<path class="st3" d="M59.2,22.9v-2.7c0-6.1-4.9-11-11-11s-11,4.9-11,11v2.7c-1.2,0-2.2,1-2.2,2.2s1,2.2,2.2,2.2h0.1
			c0.9,6,6.5,10.1,12.5,9.1c4.7-0.7,8.4-4.4,9.1-9.1h0.1c1.2,0,2.2-1,2.2-2.2S60.4,22.9,59.2,22.9z"/>
		<path class="st4" d="M59.2,20.2c0-6.1-4.9-11-11-11s-11,4.9-11,11v2.7c1,0,1.8,0.8,1.7,1.8c0,0,0,0.1,0,0.1
			c0.6-1.5,0.7-3.1,0.4-4.6c1-0.1,2-0.5,2.7-1.1v-2.7c3.9,1.5,8.2,1.5,12.1,0v2.7c0.8,0.6,1.7,1,2.7,1.1c-0.3,1.6-0.1,3.2,0.4,4.6
			c-0.1-1,0.7-1.8,1.6-1.9c0,0,0.1,0,0.1,0L59.2,20.2z"/>
		<path class="st0" d="M59.2,20.2c0-6.1-4.9-11-11-11s-11,4.9-11,11v2.7c1,0,1.8,0.8,1.7,1.8c0,0,0,0.1,0,0.1
			c0.6-1.5,0.7-3.1,0.4-4.6c1-0.1,2-0.5,2.7-1.1v-2.7c3.9,1.5,8.2,1.5,12.1,0v2.7c0.8,0.6,1.7,1,2.7,1.1c-0.3,1.6-0.1,3.2,0.4,4.6
			c-0.1-1,0.7-1.8,1.6-1.9c0,0,0.1,0,0.1,0L59.2,20.2z"/>
		<path class="st0" d="M51.5,30.4c-1.8,1.8-4.7,1.8-6.6,0"/>
		<path class="st0" d="M45.5,24c-0.4-0.9-1.4-1.3-2.3-0.9c-0.4,0.2-0.8,0.5-0.9,0.9"/>
		<path class="st0" d="M54.2,24c-0.4-0.9-1.4-1.3-2.3-0.9c-0.4,0.2-0.8,0.5-0.9,0.9"/>
	</g>
	<circle class="st5" cx="41.9" cy="27.6" r="1.4"/>
	<circle class="st5" cx="54.5" cy="27.6" r="1.4"/>
</g>
<g>
	<path class="st6" d="M49.2,103.4V64.9"/>
	<path class="st7" d="M48.8,109.1c0.1,0.1,0.2,0.1,0.3,0.1c0.1,0,0.2-0.1,0.3-0.2l3.4-5c0.1-0.1,0.1-0.4-0.1-0.5
		c-0.1-0.1-0.1-0.1-0.2-0.1l-6.7-0.1c-0.1,0-0.2,0.1-0.3,0.2c-0.1,0.1-0.1,0.3,0,0.4L48.8,109.1z"/>
</g>
<g id="Id">
	<path class="st8" d="M36,76.1h26.4l0,0v12.4c0,0.4-0.4,0.8-1,0.8H37.2c-0.6,0-1-0.3-1-0.8V76.1H36z"/>
	<path class="st4" d="M54.4,76.2L39.7,89.5h-2.5c-0.7,0-1.3-0.4-1.3-1l0,0V76.2H54.4z"/>
	<path class="st9" d="M36,76.2h26.4l0,0v12.4c0,0.4-0.4,0.8-1,0.8H37c-0.6,0-1-0.3-1-0.8L36,76.2L36,76.2z"/>
	<path class="st10" d="M37.2,72.4h24.2c0.6,0,1.1,0.4,1.1,1.1v2.5l0,0H36l0,0v-2.5C36,72.9,36.6,72.4,37.2,72.4L37.2,72.4z"/>
	<path id="Path_8_" class="st11" d="M39.8,80.2c0,0.7,0.4,1.1,1.1,1.1s1.1-0.4,1.1-1.1v-0.6c0-0.7-0.4-1.1-1.1-1.1s-1.1,0.4-1.1,1.1
		V80.2z"/>
	<path id="Path_7_" class="st11" d="M42.7,83.5c-0.1,0-0.1,0.1-0.3,0.1h-2.8c-0.1,0-0.3-0.1-0.3-0.3c0-0.8,0.8-1.6,1.7-1.6
		C42,82,42.7,82.7,42.7,83.5L42.7,83.5z"/>
	<path class="st12" d="M39.3,77.7h3.5c0.4,0,0.7,0.3,0.7,0.7v5.4c0,0.4-0.3,0.7-0.7,0.7h-3.5c-0.4,0-0.7-0.3-0.7-0.7v-5.4
		C38.4,78,38.8,77.7,39.3,77.7z"/>
	<path id="Path_6_" class="st13" d="M55.2,86.5c-0.3,0-0.7,0.1-0.8,0.4s0,0.7,0.1,1c0.1,0.1,0.7,0.3,1,0.1c0.3,0,0.6-0.3,0.6-0.8
		c0,0.3,0.3,0.7,0.6,0.7c0.3,0,0.7-0.3,0.7-0.6c0,0.3,0.1,0.7,0.6,0.7c0.3,0,0.7-0.1,0.7-0.4c0,0,0.1-0.1,0.1-0.3l0.7-0.3"/>
	<path id="Line_3_" class="st10" d="M45.9,78.9h10.9"/>
	<path id="Line_4_" class="st10" d="M45.9,81.6h9.5"/>
	<path id="Line_5_" class="st10" d="M45.9,85h13.4"/>
</g>
<g id="Icons">
	<g id="Icons_1_">
		<g id="Icons-2">
			<circle class="st8" cx="49.2" cy="150.6" r="32.7"/>
			<path class="st4" d="M49.2,127.3l15.9,5.6c1,0.3,1.6,1.3,1.6,2.3v17.1c0,11.9-17.6,18.4-17.6,18.4s-17.6-6.5-17.6-18.4v-17.1
				c0-1,0.7-2,1.6-2.3L49.2,127.3z"/>
			<path class="st14" d="M49.2,127.3l15.9,5.6c1,0.3,1.6,1.3,1.6,2.3v17.1c0,11.9-17.6,18.4-17.6,18.4s-17.6-6.5-17.6-18.4v-17.1
				c0-1,0.7-2,1.6-2.3L49.2,127.3z"/>
			<ellipse class="st5" cx="49.2" cy="175.1" rx="9.8" ry="1.2"/>
		</g>
		<g id="Page-1">
			<g id="Group-2">
				<polygon id="Path-9" class="st15" points="52.9,156.9 52.9,159.7 42.3,159.7 42.3,158 42.3,155.5 42.3,149.7 42.3,145.1 
					45.1,145.1 45.1,149.8 45,155.5 45,156.9 				"/>
				<path id="Path-9_1_" class="st15" d="M50.4,138.2L50.4,138.2l-8.2,0v2.8H50l0,0.9l0,5.7v4.5h2.8l0-4.5l0-5.7v-1.1h3.8v-2.6H50.4
					z"/>
				<polygon id="Path-2" class="st16" points="41.8,160.3 45.6,156.4 53.4,156.4 53.4,160.3 				"/>
				<polygon id="Path-2_1_" class="st16" points="53.2,137.7 49.6,141.5 41.8,141.5 41.8,137.6 				"/>
			</g>
		</g>
	</g>
</g>
<g>
	<g>
		<ellipse class="st8" cx="65.1" cy="220.8" rx="5" ry="1.5"/>
		<path class="st17" d="M77.5,208.4c-1.8,4.3-6.7,6.3-11,4.5c-4.3-1.8-6.3-6.7-4.5-11c1.8-4.3,6.7-6.3,11-4.5c0,0,0,0,0,0
			C77.2,199.2,79.2,204.1,77.5,208.4z"/>
		<path class="st18" d="M71.6,205.9l2-0.9c0.7-0.4,1-1.3,0.6-2c-0.3-0.7-1.1-1-1.8-0.7l-2,0.9l-0.9-2c-0.4-0.7-1.3-1-2-0.6
			c-0.7,0.3-1,1.1-0.7,1.8l0.9,2l-2,0.9c-0.7,0.3-1.1,1.2-0.8,1.9c0,0,0,0,0,0c0.3,0.7,1.2,1.1,1.9,0.8l2-0.9l0.9,2
			c0.3,0.7,1.2,1.1,1.9,0.8c0,0,0,0,0,0c0.7-0.3,1.1-1.2,0.8-1.9L71.6,205.9z"/>
		<line class="st19" x1="66.5" y1="212.9" x2="63.3" y2="220.7"/>
	</g>
	<g>
		<ellipse class="st8" cx="33.5" cy="219" rx="5" ry="1.5"/>
		<circle class="st20" cx="27.7" cy="203.3" r="8.4"/>
		<path class="st18" d="M28,207.5c-0.3,0.1-0.7,0.1-1,0l-3.4-1.4c-0.7-0.2-1.1-1-0.8-1.7s1-1.1,1.7-0.8c0.1,0,0.1,0,0.2,0.1l2.2,0.9
			l2.3-5.6c0.3-0.7,1-1,1.7-0.7c0.7,0.3,1,1,0.7,1.7l0,0l-2.8,6.9C28.6,207.1,28.4,207.3,28,207.5z"/>
		<line class="st19" x1="30.9" y1="211.1" x2="34.2" y2="218.8"/>
	</g>
</g>
<g>
	<path class="st21" d="M49.2,227.2v-37.6"/>
	<path class="st22" d="M48.8,232.8c0.1,0.1,0.2,0.1,0.3,0.1c0.1,0,0.2-0.1,0.3-0.2l3.4-4.9c0.1-0.1,0.1-0.4-0.1-0.5
		c-0.1,0-0.1-0.1-0.2-0.1l-6.7-0.1c-0.1,0-0.2,0.1-0.3,0.2c-0.1,0.1-0.1,0.3,0,0.4L48.8,232.8z"/>
</g>
<g id="Icons_2_">
	<g id="Background">
		<circle class="st8" cx="49.2" cy="272" r="31.5"/>
	</g>
	<g id="Scene">
		<path class="st4" d="M60.1,285.9c0,1.7-1.4,3-3,3c0,0,0,0,0,0H41.3c-1.7,0-3-1.4-3-3l0,0v-33.8c0-1.7,1.4-3,3-3H57
			c1.7,0,3,1.4,3,3L60.1,285.9z"/>
		<ellipse class="st5" cx="49.2" cy="294.1" rx="18" ry="1.4"/>
		<rect x="40.1" y="254.7" class="st5" width="18" height="28"/>
		<polygon class="st4" points="40.1,269.9 55.3,254.7 40.1,254.7 		"/>
		<path class="st23" d="M45.4,251.4L45.4,251.4c-0.3,0-0.4,0.3-0.4,0.5c0,0.2,0.2,0.4,0.4,0.4l0,0c0.3,0,0.4-0.3,0.4-0.5
			C45.7,251.6,45.6,251.4,45.4,251.4z"/>
		<g>
			<path class="st24" d="M60.1,285.9c0,1.7-1.4,3-3,3c0,0,0,0,0,0H41.3c-1.7,0-3-1.4-3-3l0,0v-33.8c0-1.7,1.4-3,3-3H57
				c1.7,0,3,1.4,3,3L60.1,285.9z"/>
			<rect x="40.1" y="254.7" class="st24" width="18" height="28"/>
			<line class="st24" x1="48.2" y1="251.9" x2="53.4" y2="251.9"/>
			<circle class="st25" cx="49.2" cy="285.8" r="1.7"/>
		</g>
	</g>
</g>
</svg>
