<?xml version="1.0" encoding="utf-8"?>
<!-- Generator: Adobe Illustrator 24.0.1, SVG Export Plug-In . SVG Version: 6.00 Build 0)  -->
<svg version="1.1" id="Duotone" xmlns="http://www.w3.org/2000/svg" xmlns:xlink="http://www.w3.org/1999/xlink" x="0px" y="0px"
	 viewBox="0 0 171.1 139.2" style="enable-background:new 0 0 171.1 139.2;" xml:space="preserve">
<style type="text/css">
	.st0{fill:#F0F2FF;}
	.st1{fill:#D6DAFF;}
	.st2{fill:none;stroke:#2963FF;stroke-width:0.6;stroke-linecap:round;stroke-linejoin:round;}
	.st3{fill:#FFFFFF;stroke:#2963FF;stroke-width:0.6;stroke-miterlimit:10;}
	.st4{fill:#D6DAFF;stroke:#2963FF;stroke-width:0.6;stroke-linecap:round;stroke-linejoin:round;}
	.st5{fill:#FFFFFF;stroke:#2963FF;stroke-width:0.6;stroke-linecap:round;stroke-linejoin:round;}
	.st6{fill:#FFFFFF;}
	.st7{fill-rule:evenodd;clip-rule:evenodd;fill:#2963FF;}
	.st8{display:none;fill:none;stroke:#2963FF;stroke-width:0.6;stroke-miterlimit:10;}
	.st9{display:none;fill:none;stroke:#2963FF;stroke-width:0.6;stroke-linecap:round;stroke-linejoin:round;}
	.st10{fill:#2963FF;stroke:#2963FF;stroke-width:0.6;}
	.st11{fill-rule:evenodd;clip-rule:evenodd;fill:#09B3FF;}
	.st12{fill:#2963FF;}
</style>
<title>37- user-male-african-american</title>
<g>
	<g id="Background_1_">
		<circle class="st0" cx="24.4" cy="24.4" r="24.4"/>
	</g>
	<ellipse class="st1" cx="24.4" cy="39.5" rx="7.8" ry="1"/>
	<g>
		<path class="st2" d="M24.4,23.5c-5.6-0.1-10.2,4.4-10.3,9.9c0,0.1,0,0.1,0,0.2v2.2h20.6v-2.2c0-5.6-4.5-10.1-10.1-10.1
			C24.5,23.5,24.5,23.5,24.4,23.5z"/>
		<path class="st3" d="M24.4,23.5c-5.6-0.1-10.2,4.4-10.3,9.9c0,0.1,0,0.1,0,0.2v2.2h20.6v-2.2c0-5.6-4.5-10.1-10.1-10.1
			C24.5,23.5,24.5,23.5,24.4,23.5z"/>
		<line class="st2" x1="17.9" y1="35.9" x2="17.9" y2="32.8"/>
		<line class="st2" x1="30.9" y1="35.9" x2="30.9" y2="32.8"/>
		<path class="st4" d="M23.4,27.3h2.1l0,0v5.1c0,0.4-0.3,0.7-0.7,0.7h-0.7c-0.4,0-0.7-0.3-0.7-0.7V27.3L23.4,27.3z"/>
		<path class="st3" d="M22,20.5v3.6c0,1.3,1.1,2.4,2.4,2.4c1.3,0,2.4-1.1,2.4-2.4v-3.6H22z"/>
		<path class="st4" d="M24.4,28c2.1,0,3.8-1.6,4-3.7c-1.3-0.5-2.6-0.8-4-0.7c-1.4,0-2.7,0.2-4,0.7C20.6,26.4,22.3,28,24.4,28z"/>
		<path class="st2" d="M22,20.5v3.6c0,1.3,1.1,2.4,2.4,2.4c1.3,0,2.4-1.1,2.4-2.4v-3.6H22z"/>
		<path class="st5" d="M31.3,14v-1.7c0-3.8-3.1-6.9-6.9-6.9s-6.9,3.1-6.9,6.9V14c-0.8,0-1.4,0.6-1.4,1.4s0.6,1.4,1.4,1.4h0.1
			c0.6,3.7,4.1,6.3,7.8,5.7c2.9-0.5,5.3-2.8,5.7-5.7h0.1c0.8,0,1.4-0.6,1.4-1.4S32,14,31.3,14z"/>
		<path class="st6" d="M31.3,12.2c0-3.8-3.1-6.9-6.9-6.9s-6.9,3.1-6.9,6.9V14c0.6,0,1.1,0.5,1.1,1.1c0,0,0,0.1,0,0.1
			c0.3-0.9,0.4-1.9,0.3-2.9c0.6-0.1,1.2-0.3,1.7-0.7V9.8c2.4,0.9,5.1,0.9,7.5,0v1.7c0.5,0.4,1.1,0.6,1.7,0.7c-0.2,1-0.1,2,0.3,2.9
			c0-0.6,0.4-1.1,1-1.2c0,0,0.1,0,0.1,0L31.3,12.2z"/>
		<path class="st2" d="M31.3,12.2c0-3.8-3.1-6.9-6.9-6.9s-6.9,3.1-6.9,6.9V14c0.6,0,1.1,0.5,1.1,1.1c0,0,0,0.1,0,0.1
			c0.3-0.9,0.4-1.9,0.3-2.9c0.6-0.1,1.2-0.3,1.7-0.7V9.8c2.4,0.9,5.1,0.9,7.5,0v1.7c0.5,0.4,1.1,0.6,1.7,0.7c-0.2,1-0.1,2,0.3,2.9
			c0-0.6,0.4-1.1,1-1.2c0,0,0.1,0,0.1,0L31.3,12.2z"/>
		<path class="st2" d="M26.5,18.6c-1.1,1.1-3,1.1-4.1,0"/>
		<path class="st2" d="M22.7,14.6c-0.2-0.6-0.9-0.8-1.5-0.6c-0.3,0.1-0.5,0.3-0.6,0.6"/>
		<path class="st2" d="M28.2,14.6c-0.2-0.6-0.9-0.8-1.5-0.6c-0.3,0.1-0.5,0.3-0.6,0.6"/>
	</g>
	<circle class="st1" cx="28.3" cy="16.9" r="0.9"/>
	<circle class="st1" cx="20.5" cy="16.9" r="0.9"/>
</g>
<g>
	<path class="st2" d="M58.9,87l-24-36.4"/>
	<path class="st4" d="M60.7,90.1c0.1,0,0.1,0,0.2,0C61,90,61,90,61,89.9l-0.2-4.2c0-0.1-0.1-0.3-0.2-0.3c-0.1,0-0.1,0-0.1,0
		l-3.5,2.3c-0.1,0-0.1,0.1-0.1,0.2c0,0.1,0.1,0.2,0.2,0.2L60.7,90.1z"/>
</g>
<g id="Id">
	<path class="st0" d="M37.4,66.7l20.9-0.3l0,0l0.1,9.9c0,0.3-0.3,0.7-0.8,0.7l-19.3,0.2c-0.4,0-0.8-0.2-0.8-0.7l-0.1-9.9L37.4,66.7z
		"/>
	<path class="st6" d="M52,66.6L40.4,77.3l-2,0c-0.6,0-1-0.3-1-0.8l0,0l-0.1-9.7L52,66.6z"/>
	<path class="st2" d="M37.4,66.8l20.9-0.3l0,0l0.1,9.9c0,0.3-0.3,0.7-0.8,0.7l-19.4,0.2c-0.4,0-0.8-0.2-0.8-0.7L37.4,66.8L37.4,66.8
		z"/>
	<path class="st5" d="M38.3,63.8l19.2-0.2c0.4,0,0.9,0.3,0.9,0.9l0,2l0,0l-20.9,0.3l0,0l0-2C37.4,64.2,37.8,63.8,38.3,63.8
		L38.3,63.8z"/>
	<path id="Path_8_" class="st7" d="M40.5,69.9c0,0.6,0.3,0.9,0.9,0.9c0.6,0,0.9-0.3,0.9-0.9l0-0.4c0-0.6-0.3-0.9-0.9-0.9
		c-0.6,0-0.9,0.3-0.9,0.9L40.5,69.9z"/>
	<path id="Path_7_" class="st7" d="M42.7,72.6c-0.1,0-0.1,0.1-0.2,0.1l-2.2,0c-0.1,0-0.2-0.1-0.2-0.2c0-0.7,0.7-1.2,1.3-1.2
		C42.2,71.4,42.7,71.9,42.7,72.6L42.7,72.6z"/>
	<path class="st8" d="M40,68l2.8,0c0.3,0,0.6,0.2,0.6,0.6l0.1,4.3c0,0.3-0.2,0.6-0.6,0.6l-2.8,0c-0.3,0-0.6-0.2-0.6-0.6l-0.1-4.3
		C39.3,68.3,39.7,68,40,68z"/>
	<path id="Path_6_" class="st9" d="M52.7,74.8c-0.2,0-0.6,0.1-0.7,0.3s0,0.6,0.1,0.8c0.1,0.1,0.6,0.2,0.8,0.1c0.2,0,0.4-0.2,0.4-0.7
		c0,0.2,0.2,0.6,0.5,0.6c0.2,0,0.6-0.2,0.6-0.5c0,0.2,0.1,0.6,0.5,0.6c0.2,0,0.6-0.1,0.6-0.3c0,0,0.1-0.1,0.1-0.2l0.6-0.2"/>
	<path id="Line_3_" class="st5" d="M45.3,68.9l8.6-0.1"/>
	<path id="Line_4_" class="st5" d="M45.3,71l7.5-0.1"/>
	<path id="Line_5_" class="st5" d="M45.3,73.7L56,73.5"/>
</g>
<g id="Icons">
	<g id="Icons_1_">
		<g id="Icons-2">
			<circle class="st0" cx="81.5" cy="113.4" r="25.9"/>
			<path class="st6" d="M81.5,94.9l12.6,4.4c0.8,0.3,1.3,1,1.3,1.8v13.5c0,9.4-13.9,14.6-13.9,14.6s-13.9-5.2-13.9-14.6v-13.5
				c0-0.8,0.5-1.6,1.3-1.8L81.5,94.9z"/>
			<path class="st2" d="M81.5,94.9l12.6,4.4c0.8,0.3,1.3,1,1.3,1.8v13.5c0,9.4-13.9,14.6-13.9,14.6s-13.9-5.2-13.9-14.6v-13.5
				c0-0.8,0.5-1.6,1.3-1.8L81.5,94.9z"/>
			<ellipse class="st1" cx="81.5" cy="132.7" rx="7.8" ry="1"/>
		</g>
		<g id="Page-1">
			<g id="Group-2">
				<polygon id="Path-9" class="st10" points="84.5,118.4 84.5,120.6 76.1,120.6 76.1,119.2 76.1,117.3 76.1,112.7 76.1,109 
					78.3,109 78.3,112.7 78.3,117.3 78.3,118.4 				"/>
				<path id="Path-9_1_" class="st10" d="M82.5,103.5L82.5,103.5l-6.5,0v2.2h6.1l0,0.8l0,4.5v3.6h2.2l0-3.6l0-4.5v-0.9h3v-2.1H82.5z
					"/>
				<polygon id="Path-2" class="st11" points="75.7,121 78.7,118 84.9,118 84.9,121 				"/>
				<polygon id="Path-2_1_" class="st11" points="84.8,103.2 81.9,106.2 75.7,106.2 75.7,103.1 				"/>
			</g>
		</g>
	</g>
</g>
<g id="Icons_2_">
	<g id="Background">
		<circle class="st0" cx="146.7" cy="24.4" r="24.4"/>
	</g>
	<g id="Scene">
		<path class="st6" d="M155.2,35.2c0,1.3-1.1,2.4-2.4,2.4c0,0,0,0,0,0h-12.2c-1.3,0-2.4-1.1-2.4-2.4l0,0V9c0-1.3,1.1-2.3,2.4-2.3
			h12.2c1.3,0,2.4,1.1,2.4,2.4L155.2,35.2z"/>
		<ellipse class="st1" cx="146.7" cy="41.6" rx="14" ry="1.1"/>
		<rect x="139.7" y="11" class="st1" width="14" height="21.7"/>
		<polygon class="st6" points="139.7,22.8 151.5,11 139.7,11 		"/>
		<path class="st12" d="M143.8,8.4L143.8,8.4c-0.2,0-0.3,0.2-0.3,0.4c0,0.2,0.2,0.3,0.3,0.3l0,0c0.2,0,0.3-0.2,0.3-0.4
			C144.1,8.6,143.9,8.5,143.8,8.4z"/>
		<g>
			<path class="st2" d="M155.2,35.2c0,1.3-1.1,2.4-2.4,2.4c0,0,0,0,0,0h-12.2c-1.3,0-2.4-1.1-2.4-2.4l0,0V9c0-1.3,1.1-2.3,2.4-2.3
				h12.2c1.3,0,2.4,1.1,2.4,2.4L155.2,35.2z"/>
			<rect x="139.7" y="11" class="st2" width="14" height="21.7"/>
			<line class="st2" x1="146" y1="8.8" x2="150" y2="8.8"/>
			<circle class="st5" cx="146.7" cy="35.1" r="1.3"/>
		</g>
	</g>
</g>
<g>
	<path class="st2" d="M126.6,54.5L99.7,88.8"/>
	<path class="st4" d="M129,51.7c0-0.1,0-0.1-0.1-0.2c-0.1,0-0.1-0.1-0.2,0l-4,1.5c-0.1,0-0.2,0.2-0.2,0.3c0,0.1,0,0.1,0.1,0.1
		l3.3,2.6c0.1,0,0.2,0.1,0.2,0c0.1,0,0.1-0.1,0.2-0.2L129,51.7z"/>
</g>
<g>
	<g>
		<circle class="st4" cx="113" cy="70.3" r="7.4"/>
		<path class="st5" d="M112,73.8c-0.3,0-0.6-0.1-0.8-0.3l-2.4-2.2c-0.5-0.4-0.6-1.1-0.2-1.6c0.4-0.5,1.1-0.6,1.6-0.2
			c0,0,0.1,0.1,0.1,0.1l1.6,1.4l3.6-4c0.4-0.5,1.1-0.5,1.6-0.1c0.5,0.4,0.5,1.1,0.1,1.6l0,0l-4.3,4.9
			C112.6,73.7,112.3,73.8,112,73.8z"/>
	</g>
</g>
</svg>
