<?xml version="1.0" encoding="utf-8"?>
<!-- Generator: Adobe Illustrator 24.0.1, SVG Export Plug-In . SVG Version: 6.00 Build 0)  -->
<svg version="1.1" id="Duotone" xmlns="http://www.w3.org/2000/svg" xmlns:xlink="http://www.w3.org/1999/xlink" x="0px" y="0px"
	 viewBox="0 0 320.3 80" style="enable-background:new 0 0 320.3 80;" xml:space="preserve">
<style type="text/css">
	.st0{fill:#F0F2FF;}
	.st1{fill:#FFFFFF;}
	.st2{fill:none;stroke:#2963FF;stroke-linecap:round;stroke-linejoin:round;}
	.st3{fill:#dce5ff;}
	.st4{fill:#dce5ff;stroke:#2963FF;stroke-linecap:round;stroke-linejoin:round;}
	.st5{fill:#2963FF;stroke:#2963FF;stroke-width:1.2174;}
	.st6{fill-rule:evenodd;clip-rule:evenodd;fill:#09B3FF;}
	.st7{fill:#2963FF;}
	.st8{fill:#FFFFFF;stroke:#2963FF;stroke-linecap:round;stroke-linejoin:round;}
	.st9{fill:#dce5ff;stroke:#2963FF;stroke-width:0.8695;stroke-linejoin:round;}
	.st10{fill:#FFFFFF;stroke:#2963FF;stroke-width:0.8695;stroke-linecap:round;stroke-linejoin:round;}
	.st11{fill:none;stroke:#2963FF;stroke-width:0.8695;stroke-linecap:round;stroke-linejoin:round;}
	.st12{fill:#dce5ff;stroke:#2963FF;stroke-width:0.8695;stroke-linecap:round;stroke-linejoin:round;}
	.st13{fill:none;stroke:#2963FF;stroke-width:1.2435;stroke-linecap:round;stroke-linejoin:round;}
	.st14{fill:#FFFFFF;stroke:#2963FF;stroke-width:1.2435;stroke-linecap:round;stroke-linejoin:round;}
	.st15{fill-rule:evenodd;clip-rule:evenodd;fill:#2963FF;}
	.st16{display:none;fill:none;stroke:#2963FF;stroke-width:1.2435;stroke-miterlimit:10;}
	.st17{display:none;fill:none;stroke:#2963FF;stroke-width:1.2435;stroke-linecap:round;stroke-linejoin:round;}
	.st18{fill:none;stroke:#2963FF;stroke-width:1.2803;stroke-linecap:round;stroke-linejoin:round;}
	.st19{fill:#FFFFFF;stroke:#2963FF;stroke-width:1.2803;stroke-miterlimit:10;}
	.st20{fill:#dce5ff;stroke:#2963FF;stroke-width:1.2803;stroke-linecap:round;stroke-linejoin:round;}
	.st21{fill:#FFFFFF;stroke:#2963FF;stroke-width:1.2803;stroke-linecap:round;stroke-linejoin:round;}
</style>
<title>37- user-male-african-american</title>
<g id="Icons">
	<g id="Icons_1_">
		<g id="Icons-2">
			<circle class="st0" cx="145.7" cy="40" r="40"/>
			<path class="st1" d="M145.7,11.5l19.5,6.8c1.2,0.4,2,1.6,2,2.8V42c0,14.5-21.5,22.5-21.5,22.5s-21.5-8-21.5-22.5V21.1
				c0-1.3,0.8-2.4,2-2.8L145.7,11.5z"/>
			<path class="st2" d="M145.7,11.5l19.5,6.8c1.2,0.4,2,1.6,2,2.8V42c0,14.5-21.5,22.5-21.5,22.5s-21.5-8-21.5-22.5V21.1
				c0-1.3,0.8-2.4,2-2.8L145.7,11.5z"/>
			<ellipse class="st3" cx="145.7" cy="69.9" rx="12" ry="1.5"/>
		</g>
	</g>
	<g>
		<path class="st2" d="M89.3,42.2H53.4"/>
		<path class="st4" d="M94.6,42.5c0.1-0.1,0.1-0.2,0.1-0.3c0-0.1-0.1-0.2-0.1-0.3l-4.7-3.4c-0.1-0.1-0.3-0.1-0.4,0.1
			c0,0.1-0.1,0.1-0.1,0.2l-0.1,6.7c0,0.1,0.1,0.2,0.2,0.3c0.1,0.1,0.2,0.1,0.3,0L94.6,42.5z"/>
	</g>
	<g id="Page-1">
		<g id="Group-2">
			<polygon id="Path-9" class="st5" points="150.2,47.7 150.2,51.2 137.2,51.2 137.2,49 137.2,46 137.3,39 137.3,33.3 140.7,33.3 
				140.7,39 140.6,46 140.6,47.7 			"/>
			<path id="Path-9_1_" class="st5" d="M147.2,24.8L147.2,24.8l-10,0v3.4h9.5l0,1.2l0,6.9v5.5h3.4l0-5.6l0-6.9V28h4.6v-3.2H147.2z"
				/>
			<polygon id="Path-2" class="st6" points="136.7,51.8 141.3,47.1 150.8,47.1 150.8,51.8 			"/>
			<polygon id="Path-2_1_" class="st6" points="150.6,24.2 146.2,28.9 136.6,28.9 136.6,24.2 			"/>
		</g>
	</g>
	<g>
		<path class="st2" d="M225.8,42.3h-35.9"/>
		<path class="st4" d="M231.1,42.7c0.1-0.1,0.1-0.2,0.1-0.3c0-0.1-0.1-0.2-0.1-0.3l-4.7-3.4c-0.1-0.1-0.3-0.1-0.4,0.1
			c0,0.1-0.1,0.1-0.1,0.2l-0.1,6.7c0,0.1,0.1,0.2,0.2,0.3c0.1,0.1,0.2,0.1,0.3,0L231.1,42.7z"/>
	</g>
	<g id="Icons_2_">
		<g id="Background">
			<circle class="st0" cx="280.3" cy="40" r="40"/>
		</g>
		<g id="Scene">
			<path class="st1" d="M294.2,57.7c0,2.1-1.7,3.9-3.9,3.9c0,0,0,0,0,0h-20c-2.1,0-3.9-1.7-3.9-3.9l0,0v-43c0-2.1,1.7-3.9,3.9-3.9
				h20c2.1,0,3.9,1.7,3.9,3.9L294.2,57.7z"/>
			<ellipse class="st3" cx="280.3" cy="68.2" rx="22.9" ry="1.8"/>
			<rect x="268.8" y="18.1" class="st3" width="22.9" height="35.6"/>
			<polygon class="st1" points="268.8,37.3 288,18.1 268.8,18.1 			"/>
			<path class="st7" d="M275.4,13.9L275.4,13.9c-0.3,0-0.6,0.3-0.5,0.7c0,0.3,0.3,0.5,0.5,0.5l0,0c0.3,0,0.6-0.3,0.5-0.7
				C275.9,14.1,275.7,13.9,275.4,13.9z"/>
			<g>
				<path class="st2" d="M294.2,57.7c0,2.1-1.7,3.9-3.9,3.9c0,0,0,0,0,0h-20c-2.1,0-3.9-1.7-3.9-3.9l0,0v-43c0-2.1,1.7-3.9,3.9-3.9
					h20c2.1,0,3.9,1.7,3.9,3.9L294.2,57.7z"/>
				<rect x="268.8" y="18.1" class="st2" width="22.9" height="35.6"/>
				<line class="st2" x1="279.1" y1="14.5" x2="285.7" y2="14.5"/>
				<circle class="st8" cx="280.3" cy="57.6" r="2.1"/>
			</g>
		</g>
	</g>
	<g>
		<ellipse class="st0" cx="215.5" cy="34.2" rx="5" ry="1.5"/>
		<path class="st9" d="M227.9,21.8c-1.8,4.3-6.7,6.3-11,4.5c-4.3-1.8-6.3-6.7-4.5-11s6.7-6.3,11-4.5c0,0,0,0,0,0
			C227.6,12.6,229.6,17.5,227.9,21.8z"/>
		<path class="st10" d="M222,19.3l2-0.9c0.7-0.4,1-1.3,0.6-2c-0.3-0.7-1.1-1-1.8-0.7l-2,0.9l-0.9-2c-0.4-0.7-1.3-1-2-0.6
			c-0.7,0.3-1,1.1-0.7,1.8l0.9,2l-2,0.9c-0.7,0.3-1.1,1.2-0.8,1.9c0,0,0,0,0,0c0.3,0.7,1.2,1.1,1.9,0.8l2-0.9l0.9,2
			c0.3,0.7,1.2,1.1,1.9,0.8c0,0,0,0,0,0c0.7-0.3,1.1-1.2,0.8-1.9L222,19.3z"/>
		<line class="st11" x1="216.9" y1="26.3" x2="213.7" y2="34.1"/>
	</g>
	<g>
		<ellipse class="st0" cx="202.9" cy="35.4" rx="5" ry="1.5"/>
		<circle class="st12" cx="197.1" cy="19.7" r="8.4"/>
		<path class="st10" d="M197.4,23.9c-0.3,0.1-0.7,0.1-1,0l-3.4-1.4c-0.7-0.2-1.1-1-0.8-1.7c0.2-0.7,1-1.1,1.7-0.8
			c0.1,0,0.1,0,0.2,0.1l2.2,0.9l2.3-5.6c0.3-0.7,1-1,1.7-0.7c0.7,0.3,1,1,0.7,1.7l0,0l-2.8,6.9C198,23.5,197.8,23.7,197.4,23.9z"/>
		<line class="st11" x1="200.4" y1="27.5" x2="203.6" y2="35.2"/>
	</g>
</g>
<g id="Id">
	<path class="st0" d="M55.9,18.5h31l0,0V33c0,0.5-0.5,1-1.2,1H57.2c-0.7,0-1.2-0.3-1.2-1V18.5H55.9z"/>
	<path class="st1" d="M77.5,18.6L60.2,34.2h-3c-0.8,0-1.5-0.5-1.5-1.2l0,0V18.6L77.5,18.6z"/>
	<path class="st13" d="M55.9,18.6h31l0,0v14.6c0,0.5-0.5,1-1.2,1H57.1c-0.7,0-1.2-0.3-1.2-1L55.9,18.6L55.9,18.6z"/>
	<path class="st14" d="M57.2,14.1h28.4c0.7,0,1.3,0.5,1.3,1.3v3l0,0h-31l0,0v-3C55.9,14.8,56.6,14.1,57.2,14.1L57.2,14.1z"/>
	<path id="Path_8_" class="st15" d="M60.4,23.3c0,0.8,0.5,1.3,1.3,1.3s1.3-0.5,1.3-1.3v-0.7c0-0.8-0.5-1.3-1.3-1.3s-1.3,0.5-1.3,1.3
		V23.3z"/>
	<path id="Path_7_" class="st15" d="M63.7,27.2c-0.2,0-0.2,0.2-0.3,0.2h-3.3c-0.2,0-0.3-0.2-0.3-0.3c0-1,1-1.8,2-1.8
		C62.9,25.4,63.7,26.2,63.7,27.2L63.7,27.2z"/>
	<path class="st16" d="M59.7,20.4h4.1c0.5,0,0.8,0.3,0.8,0.8v6.3c0,0.5-0.3,0.8-0.8,0.8h-4.1c-0.5,0-0.8-0.3-0.8-0.8v-6.3
		C58.7,20.8,59.2,20.4,59.7,20.4z"/>
	<path id="Path_6_" class="st17" d="M78.5,30.7c-0.3,0-0.8,0.2-1,0.5c-0.2,0.3,0,0.8,0.2,1.2c0.2,0.2,0.8,0.3,1.2,0.2
		c0.3,0,0.7-0.3,0.7-1c0,0.3,0.3,0.8,0.7,0.8c0.3,0,0.8-0.3,0.8-0.7c0,0.3,0.2,0.8,0.7,0.8c0.3,0,0.8-0.2,0.8-0.5
		c0,0,0.2-0.2,0.2-0.3l0.8-0.3"/>
	<path id="Line_3_" class="st14" d="M67.5,21.8h12.8"/>
	<path id="Line_4_" class="st14" d="M67.5,24.9h11.1"/>
	<path id="Line_5_" class="st14" d="M67.5,28.9h15.8"/>
</g>
<g>
	<g>
		<path class="st18" d="M20.7,47.8c-10.4-0.2-19,8.1-19.2,18.6c0,0.1,0,0.2,0,0.3v4.2h38.4v-4.2c0-10.4-8.4-18.9-18.9-18.9
			C21,47.8,20.8,47.8,20.7,47.8z"/>
		<path class="st19" d="M20.7,47.8c-10.4-0.2-19,8.1-19.2,18.6c0,0.1,0,0.2,0,0.3v4.2h38.4v-4.2c0-10.4-8.4-18.9-18.9-18.9
			C21,47.8,20.8,47.8,20.7,47.8z"/>
		<line class="st18" x1="8.6" y1="70.8" x2="8.6" y2="65"/>
		<line class="st18" x1="32.9" y1="70.8" x2="32.9" y2="65"/>
		<path class="st20" d="M18.8,54.8h3.8l0,0v9.6c0,0.7-0.6,1.3-1.3,1.3h-1.3c-0.7,0-1.3-0.6-1.3-1.3V54.8L18.8,54.8z"/>
		<path class="st19" d="M16.3,42v6.8c0,2.5,2,4.5,4.5,4.5s4.5-2,4.5-4.5V42H16.3z"/>
		<path class="st20" d="M20.7,56.1c3.9-0.1,7.1-3.1,7.5-6.9c-2.4-1-4.9-1.4-7.5-1.4c-2.6-0.1-5.1,0.4-7.5,1.4
			C13.6,53,16.8,56,20.7,56.1z"/>
		<path class="st18" d="M16.3,42v6.8c0,2.5,2,4.5,4.5,4.5s4.5-2,4.5-4.5V42H16.3z"/>
		<path class="st21" d="M33.5,29.9v-3.2c0-7.1-5.7-12.8-12.8-12.8S7.9,19.6,7.9,26.7v3.2c-1.4,0-2.6,1.1-2.6,2.6
			c0,1.4,1.1,2.6,2.6,2.6h0.2c1.1,7,7.6,11.8,14.6,10.7c5.5-0.9,9.8-5.2,10.7-10.7h0.2c1.4,0,2.6-1.1,2.6-2.6
			C36.1,31,35,29.9,33.5,29.9z"/>
		<path class="st1" d="M33.5,26.7c0-7.1-5.7-12.8-12.8-12.8S7.9,19.6,7.9,26.7v3.2c1.1,0,2,0.9,2,2.1c0,0,0,0.1,0,0.1
			c0.6-1.7,0.8-3.6,0.5-5.4c1.2-0.1,2.3-0.6,3.2-1.3v-3.2c4.5,1.7,9.5,1.7,14.1,0v3.2c0.9,0.7,2,1.2,3.2,1.3
			c-0.3,1.8-0.1,3.7,0.5,5.4c-0.1-1.1,0.8-2.1,1.9-2.2c0.1,0,0.1,0,0.2,0L33.5,26.7z"/>
		<path class="st18" d="M33.5,26.7c0-7.1-5.7-12.8-12.8-12.8S7.9,19.6,7.9,26.7v3.2c1.1,0,2,0.9,2,2.1c0,0,0,0.1,0,0.1
			c0.6-1.7,0.8-3.6,0.5-5.4c1.2-0.1,2.3-0.6,3.2-1.3v-3.2c4.5,1.7,9.5,1.7,14.1,0v3.2c0.9,0.7,2,1.2,3.2,1.3
			c-0.3,1.8-0.1,3.7,0.5,5.4c-0.1-1.1,0.8-2.1,1.9-2.2c0.1,0,0.1,0,0.2,0L33.5,26.7z"/>
		<path class="st18" d="M24.6,38.5c-2.1,2.1-5.5,2.1-7.7,0"/>
		<path class="st18" d="M17.5,31.1c-0.5-1.1-1.7-1.6-2.7-1.1c-0.5,0.2-0.9,0.6-1.1,1.1"/>
		<path class="st18" d="M27.8,31.1c-0.5-1.1-1.7-1.6-2.7-1.1c-0.5,0.2-0.9,0.6-1.1,1.1"/>
	</g>
	<circle class="st3" cx="13.4" cy="35.3" r="1.6"/>
	<circle class="st3" cx="28.1" cy="35.3" r="1.6"/>
</g>
</svg>
