<?xml version="1.0" encoding="UTF-8"?>
<svg width="715px" height="856px" viewBox="0 0 715 856" version="1.1" xmlns="http://www.w3.org/2000/svg" xmlns:xlink="http://www.w3.org/1999/xlink">
    <!-- Generator: Sketch 52.6 (67491) - http://www.bohemiancoding.com/sketch -->
    <title>Slice</title>
    <desc>Created with Sketch.</desc>
    <defs>
        <rect id="path-1" x="0" y="0" width="189" height="127.4" rx="14"></rect>
        <filter x="-20.4%" y="-26.3%" width="140.7%" height="160.4%" filterUnits="objectBoundingBox" id="filter-2">
            <feMorphology radius="5.5" operator="erode" in="SourceAlpha" result="shadowSpreadOuter1"></feMorphology>
            <feOffset dx="0" dy="5" in="shadowSpreadOuter1" result="shadowOffsetOuter1"></feOffset>
            <feGaussianBlur stdDeviation="17.5" in="shadowOffsetOuter1" result="shadowBlurOuter1"></feGaussianBlur>
            <feColorMatrix values="0 0 0 0 0   0 0 0 0 0   0 0 0 0 0  0 0 0 0.35 0" type="matrix" in="shadowBlurOuter1"></feColorMatrix>
        </filter>
        <filter x="-6.5%" y="-25.8%" width="112.9%" height="151.6%" filterUnits="objectBoundingBox" id="filter-3">
            <feOffset dx="0" dy="1" in="SourceAlpha" result="shadowOffsetOuter1"></feOffset>
            <feGaussianBlur stdDeviation="1.5" in="shadowOffsetOuter1" result="shadowBlurOuter1"></feGaussianBlur>
            <feColorMatrix values="0 0 0 0 0.613947966   0 0 0 0 0.613947966   0 0 0 0 0.613947966  0 0 0 0.5 0" type="matrix" in="shadowBlurOuter1" result="shadowMatrixOuter1"></feColorMatrix>
            <feMerge>
                <feMergeNode in="shadowMatrixOuter1"></feMergeNode>
                <feMergeNode in="SourceGraphic"></feMergeNode>
            </feMerge>
        </filter>
        <rect id="path-4" x="0" y="30" width="305" height="325" rx="10"></rect>
        <filter x="-12.6%" y="-10.3%" width="125.2%" height="123.7%" filterUnits="objectBoundingBox" id="filter-5">
            <feMorphology radius="5.5" operator="erode" in="SourceAlpha" result="shadowSpreadOuter1"></feMorphology>
            <feOffset dx="0" dy="5" in="shadowSpreadOuter1" result="shadowOffsetOuter1"></feOffset>
            <feGaussianBlur stdDeviation="17.5" in="shadowOffsetOuter1" result="shadowBlurOuter1"></feGaussianBlur>
            <feColorMatrix values="0 0 0 0 0   0 0 0 0 0   0 0 0 0 0  0 0 0 0.35 0" type="matrix" in="shadowBlurOuter1"></feColorMatrix>
        </filter>
        <rect id="path-6" x="0" y="0" width="306" height="406" rx="10"></rect>
        <filter x="-12.6%" y="-8.3%" width="125.2%" height="119.0%" filterUnits="objectBoundingBox" id="filter-7">
            <feMorphology radius="5.5" operator="erode" in="SourceAlpha" result="shadowSpreadOuter1"></feMorphology>
            <feOffset dx="0" dy="5" in="shadowSpreadOuter1" result="shadowOffsetOuter1"></feOffset>
            <feGaussianBlur stdDeviation="17.5" in="shadowOffsetOuter1" result="shadowBlurOuter1"></feGaussianBlur>
            <feColorMatrix values="0 0 0 0 0   0 0 0 0 0   0 0 0 0 0  0 0 0 0.351477582 0" type="matrix" in="shadowBlurOuter1"></feColorMatrix>
        </filter>
        <rect id="path-8" x="0" y="0" width="221" height="43" rx="10"></rect>
        <filter x="-7.9%" y="-29.1%" width="115.8%" height="181.4%" filterUnits="objectBoundingBox" id="filter-9">
            <feMorphology radius="2.5" operator="erode" in="SourceAlpha" result="shadowSpreadOuter1"></feMorphology>
            <feOffset dx="0" dy="5" in="shadowSpreadOuter1" result="shadowOffsetOuter1"></feOffset>
            <feGaussianBlur stdDeviation="7.5" in="shadowOffsetOuter1" result="shadowBlurOuter1"></feGaussianBlur>
            <feColorMatrix values="0 0 0 0 0   0 0 0 0 0   0 0 0 0 0  0 0 0 0.35 0" type="matrix" in="shadowBlurOuter1"></feColorMatrix>
        </filter>
    </defs>
    <g id="Page-1" stroke="none" stroke-width="1" fill="none" fill-rule="evenodd">
        <g id="V1" transform="translate(33.000000, 29.000000)">
            <g id="Your-app">
                <g id="Rectangle">
                    <use fill="black" fill-opacity="1" filter="url(#filter-2)" xlink:href="#path-1"></use>
                    <use fill="#FFFFFF" fill-rule="evenodd" xlink:href="#path-1"></use>
                </g>
                <g id="button" filter="url(#filter-3)" transform="translate(32.200000, 78.400000)">
                    <rect id="Rectangle" fill="#F0F0F0" x="0" y="0" width="123.48" height="30.24" rx="6.44"></rect>
                    <g id="silt_blue" transform="translate(83.160000, 8.400000)">
                        <path d="M11.6821836,4.78206304 L11.6821836,12.6489398 C11.6821836,12.7765508 11.5760058,12.88 11.4450289,12.88 L9.83497105,12.88 C9.70399415,12.88 9.59781638,12.7765508 9.59781638,12.6489398 L9.59781638,4.78206304 C9.59781638,4.65445204 9.70399415,4.55100287 9.83497105,4.55100287 L11.4450289,4.55100287 C11.5760058,4.55100287 11.6821836,4.65445204 11.6821836,4.78206304 Z M9.52,1.36004489 C9.52,1.06706573 9.62957798,0.813816356 9.84873719,0.600289173 C10.0678964,0.38676199 10.3303739,0.28 10.6361775,0.28 C10.9470778,0.28 11.2121036,0.38676199 11.4312628,0.600289173 C11.650422,0.808850607 11.76,1.06458282 11.76,1.36749347 C11.76,1.67040413 11.650422,1.92861917 11.4312628,2.14214637 C11.2172003,2.35567353 10.9547228,2.46243553 10.6438225,2.46243553 C10.3329222,2.46243553 10.0678964,2.35567353 9.84873719,2.14214637 C9.62957798,1.92861917 9.52,1.66792129 9.52,1.36004489 Z" id="i" stroke="#2963FF" stroke-width="0.7" fill="#2963FF" fill-rule="nonzero"></path>
                        <path d="M7.07071358,2.43496583 L5.97989171,3.09589245 C5.87833588,3.15742448 5.74749543,3.12884129 5.67950825,3.03027113 C5.38595618,2.60466926 5.16661137,2.34858638 5.02147388,2.26202246 C4.7650558,2.09423137 4.43428148,2.01033708 4.02914093,2.01033708 C3.5316899,2.01033708 3.118863,2.15453038 2.79064788,2.44292135 C2.46243276,2.72606884 2.29832768,3.08261958 2.29832768,3.51258426 C2.29832768,4.1050966 2.72910354,4.58224537 3.59066824,4.94404494 L4.77531376,5.43955057 C5.73944567,5.83805442 6.44458478,6.32437914 6.89075219,6.89853934 C7.33691963,7.47269951 7.56,8.17662504 7.56,9.01033707 C7.56,10.1271966 7.19589181,11.0500338 6.46766451,11.7788764 C5.73430887,12.5129625 4.8240384,12.88 3.7368258,12.88 C2.70602519,12.88 1.89062498,12.5793805 1.18291467,11.9440449 C0.739484173,11.5459624 0.348148773,10.7462122 0.00890847351,9.54479447 L0.00890539533,9.54479537 C-0.0256889955,9.42227953 0.0435671442,9.29433478 0.163593312,9.25902282 C0.167811085,9.25778194 0.172063354,9.25666664 0.176344715,9.25567837 L1.51024554,8.94776299 C1.62254557,8.92184064 1.7360017,8.98616608 1.77378666,9.09718109 C1.99859898,9.75769649 2.173446,10.1709493 2.29832768,10.3369395 C2.66756968,10.8612867 3.09834449,11.1653933 3.80605834,11.1653933 C4.36504971,11.1653933 4.82915944,10.9740094 5.19840146,10.591236 C5.56764347,10.2084625 5.7522617,9.72344864 5.7522617,9.13617977 C5.7522617,8.90022353 5.72020993,8.68393357 5.65610542,8.48730337 C5.59200088,8.29067318 5.49199934,8.1097761 5.35609776,7.94460675 C5.22019621,7.77943737 5.04455246,7.62475727 4.82916129,7.4805618 C4.61377012,7.33636633 4.35735589,7.19872724 4.05991095,7.06764045 L2.91372795,6.58 C1.28803742,5.87737477 0.475204356,4.84966968 0.475204356,3.49685394 C0.475204356,2.58448982 0.816235264,1.8215761 1.49830731,1.20808989 C2.18037936,0.589360202 3.0291216,0.28 4.04452594,0.28 C5.47273594,0.28 6.50946508,0.89585935 7.15471335,2.12757804 L7.15471737,2.12757587 C7.21176836,2.23648089 7.17475298,2.37192899 7.07071358,2.43496583 Z" id="S" stroke="#2963FF" stroke-width="0.7" fill="#2963FF"></path>
                        <g id="Group-4" transform="translate(13.720000, 4.480000)">
                            <path d="M6.97398732,6.91342127 L6.97398732,8.27045145 C6.97398732,8.52421921 6.76505354,8.72993863 6.50732066,8.72993863 L0.466666667,8.72993863 C0.208933783,8.72993863 1.59903679e-13,8.52421921 1.59872116e-13,8.27045145 L2.68202631e-05,0.459487179 C2.68202631e-05,0.205719417 0.23590224,6.27024198e-15 0.493635123,6.2236256e-15 L2.03405603,0 C2.29178891,-4.66163815e-17 2.47378105,0.205719417 2.47378105,0.459487179 L2.47378105,5.99444691 C2.47378105,6.24821467 2.68271484,6.45393409 2.94044772,6.45393409 L6.50732066,6.45393409 C6.76505354,6.45393409 6.97398732,6.6596535 6.97398732,6.91342127 Z" id="Path-9" fill="#2963FF"></path>
                            <path d="M0.160292505,8.61269381 C1.7569762,7.04987035 2.55788493,6.26845862 2.56301873,6.26845862 C2.57071943,6.26845862 2.68496613,6.4508521 2.92637378,6.4508521 L6.50732066,6.4508521 C6.76505354,6.4508521 6.97398732,6.65657152 6.97398732,6.91033928 L6.97398732,8.27554507 C6.97398732,8.52931283 6.76505354,8.73503225 6.50732066,8.73503225 L0.643464204,8.73503225 C0.387906731,8.74352792 0.2268495,8.70274843 0.160292505,8.61269381 Z" id="Path-2" fill="#09B3FF"></path>
                        </g>
                        <g id="Group-3" transform="translate(13.440000, 0.000000)">
                            <path d="M9.24000321,8.55080057 C9.24000321,8.80595613 9.03315879,9.0128006 8.77800323,9.01280062 L0.461999861,9.0128012 C0.206844307,9.0128012 -1.38600001e-07,8.80595675 -1.38600001e-07,8.5508012 L3.06549296e-06,7.0472052 C3.40226273e-06,6.7920499 0.206847749,6.58520582 0.462003065,6.58520582 L1.87314679,6.5852052 C2.12830234,6.5852052 2.3351468,6.37836075 2.3351468,6.1232052 C2.3351468,6.12199228 2.33514202,6.12077935 2.33513245,6.11956648 L2.3351468,0.601142804 C2.3351468,0.345987249 2.51684752,0.139142804 2.77200307,0.139142804 L4.29221125,0.139142804 C4.54736681,0.139142804 4.75421125,0.345987249 4.75421125,0.601142804 L4.75421125,6.07754285 C4.75421125,6.29480523 4.93033723,6.47093121 5.14759961,6.47093121 L8.77800307,6.47093123 C9.0331586,6.47093123 9.24000305,6.67777567 9.24000307,6.93293121 L9.24000321,8.55080057 Z" id="Path-9" fill="#2963FF" transform="translate(4.620002, 4.575972) rotate(-180.000000) translate(-4.620002, -4.575972) "></path>
                            <path d="M0,2.80901988 C1.34641393,1.36552722 2.1865011,0.475607921 2.52026151,0.139261957 C2.52750708,0.131960271 2.60287485,0.269830779 2.82016204,0.269830779 C4.02752385,0.269830779 5.23488564,0.269830779 6.44224745,0.269830779 C6.697403,0.269830779 6.90424745,0.476675224 6.90424745,0.731830779 L6.90424745,2.34701988 C6.90424745,2.60217543 6.697403,2.80901988 6.44224745,2.80901988 L0,2.80901988 Z" id="Path-2" fill="#09B3FF" transform="translate(3.452124, 1.474001) rotate(180.000000) translate(-3.452124, -1.474001) "></path>
                        </g>
                    </g>
                    <text id="Verify-with" font-family="Futura-Medium, Futura" font-size="12.32" font-weight="400" fill="#464646">
                        <tspan x="18.3028125" y="20.28">Verify with</tspan>
                    </text>
                </g>
                <text id="Tu-App" font-family="Futura-Medium, Futura" font-size="17.92" font-weight="400" fill="#464646">
                    <tspan x="41.0625" y="37">Tu App/Web</tspan>
                </text>
            </g>
            <g id="Arrows" transform="translate(94.000000, 108.000000)" stroke="#D8D8D8">
                <path d="M0.5,0.132715702 L0.5,67.5184634 C0.5,75.8027347 7.21572875,82.5184634 15.5,82.5184634 L345.5,82.5184634 C353.784271,82.5184634 360.5,89.2341922 360.5,97.5184634 L360.5,130" id="Path-4"></path>
                <path d="M0.5,3 L0.5,130.36" id="Path-5"></path>
                <path d="M134,537 L134,577.360088 C134,585.64436 140.715729,592.360088 149,592.360088 L233,592.360088 C241.284271,592.360088 248,599.075817 248,607.360088 L248,651" id="Path-6"></path>
                <path d="M360.5,455 L360.5,576.682725 C360.5,584.966996 353.784271,591.682725 345.5,591.682725 L263,591.682725 C254.715729,591.682725 248,598.398454 248,606.682725 L248,651" id="Path-7"></path>
            </g>
            <g id="without-photos" transform="translate(342.000000, 208.000000)">
                <rect id="Rectangle" fill="#2963FF" x="143" y="0" width="149" height="35" rx="5"></rect>
                <rect id="Rectangle" fill="#2963FF" x="157" y="0" width="135" height="35" rx="5"></rect>
                <g id="Rectangle">
                    <use fill="black" fill-opacity="1" filter="url(#filter-5)" xlink:href="#path-4"></use>
                    <use fill="#FFFFFF" fill-rule="evenodd" xlink:href="#path-4"></use>
                </g>
                <g id="Benefits" transform="translate(16.000000, 220.000000)">
                    <rect id="Rectangle" fill="#E5F0FF" x="0" y="0" width="274" height="123" rx="10"></rect>
                    <g id="Group-6" transform="translate(17.000000, 20.000000)" fill="#2963FF">
                        <g id="check-solid">
                            <path d="M0.205016802,5.98988225 C-0.0683389339,5.70186303 -0.0683389339,5.23487257 0.205016802,4.94682454 L1.19494355,3.90376682 C1.46829929,3.61571878 1.91154191,3.61571878 2.18489764,3.90376682 L5.24999829,7.13325836 L11.8151024,0.216014418 C12.0884581,-0.0720048061 12.5317007,-0.0720048061 12.8050565,0.216014418 L13.7949832,1.25907214 C14.0683389,1.54709136 14.0683389,2.01408182 13.7949832,2.30212985 L5.74497534,10.7839892 C5.47159226,11.0720084 5.02837698,11.0720084 4.75502125,10.7839604 L0.205016802,5.98988225 Z" id="Path"></path>
                        </g>
                        <g id="check-solid" transform="translate(0.000000, 19.000000)">
                            <path d="M0.205016802,5.98988225 C-0.0683389339,5.70186303 -0.0683389339,5.23487257 0.205016802,4.94682454 L1.19494355,3.90376682 C1.46829929,3.61571878 1.91154191,3.61571878 2.18489764,3.90376682 L5.24999829,7.13325836 L11.8151024,0.216014418 C12.0884581,-0.0720048061 12.5317007,-0.0720048061 12.8050565,0.216014418 L13.7949832,1.25907214 C14.0683389,1.54709136 14.0683389,2.01408182 13.7949832,2.30212985 L5.74497534,10.7839892 C5.47159226,11.0720084 5.02837698,11.0720084 4.75502125,10.7839604 L0.205016802,5.98988225 Z" id="Path"></path>
                        </g>
                        <g id="check-solid-copy-3" transform="translate(0.000000, 38.000000)">
                            <path d="M0.205016802,5.98988225 C-0.0683389339,5.70186303 -0.0683389339,5.23487257 0.205016802,4.94682454 L1.19494355,3.90376682 C1.46829929,3.61571878 1.91154191,3.61571878 2.18489764,3.90376682 L5.24999829,7.13325836 L11.8151024,0.216014418 C12.0884581,-0.0720048061 12.5317007,-0.0720048061 12.8050565,0.216014418 L13.7949832,1.25907214 C14.0683389,1.54709136 14.0683389,2.01408182 13.7949832,2.30212985 L5.74497534,10.7839892 C5.47159226,11.0720084 5.02837698,11.0720084 4.75502125,10.7839604 L0.205016802,5.98988225 Z" id="Path"></path>
                        </g>
                        <g id="check-solid-copy-4" transform="translate(0.000000, 57.000000)">
                            <path d="M0.205016802,5.98988225 C-0.0683389339,5.70186303 -0.0683389339,5.23487257 0.205016802,4.94682454 L1.19494355,3.90376682 C1.46829929,3.61571878 1.91154191,3.61571878 2.18489764,3.90376682 L5.24999829,7.13325836 L11.8151024,0.216014418 C12.0884581,-0.0720048061 12.5317007,-0.0720048061 12.8050565,0.216014418 L13.7949832,1.25907214 C14.0683389,1.54709136 14.0683389,2.01408182 13.7949832,2.30212985 L5.74497534,10.7839892 C5.47159226,11.0720084 5.02837698,11.0720084 4.75502125,10.7839604 L0.205016802,5.98988225 Z" id="Path"></path>
                        </g>
                        <g id="check-solid-copy-5" transform="translate(0.000000, 76.000000)">
                            <path d="M0.205016802,5.98988225 C-0.0683389339,5.70186303 -0.0683389339,5.23487257 0.205016802,4.94682454 L1.19494355,3.90376682 C1.46829929,3.61571878 1.91154191,3.61571878 2.18489764,3.90376682 L5.24999829,7.13325836 L11.8151024,0.216014418 C12.0884581,-0.0720048061 12.5317007,-0.0720048061 12.8050565,0.216014418 L13.7949832,1.25907214 C14.0683389,1.54709136 14.0683389,2.01408182 13.7949832,2.30212985 L5.74497534,10.7839892 C5.47159226,11.0720084 5.02837698,11.0720084 4.75502125,10.7839604 L0.205016802,5.98988225 Z" id="Path"></path>
                        </g>
                    </g>
                </g>
                <g id="es" transform="translate(19.000000, 6.000000)" font-family="Futura-Medium, Futura" font-weight="400">
                    <g id="es_benefits" transform="translate(37.000000, 229.000000)" font-size="14">
                        <text id="100%-ratio-de-conver" fill="#464646">
                            <tspan x="0" y="34">100% ratio de conversión </tspan>
                        </text>
                        <text id="100%-verificados-aut" fill="#464646">
                            <tspan x="0" y="53">100% verificados automáticamente</tspan>
                        </text>
                        <text id="Verificado-cuando-de" fill="#464646">
                            <tspan x="0" y="72">Verificado cuando descarga</tspan>
                        </text>
                        <text id="Verificación-en-meno">
                            <tspan x="0" y="91" fill="#464646">Verificación en menos de </tspan>
                            <tspan x="163.529297" y="91" font-family="Futura-Bold, Futura" font-weight="bold" fill="#2963FF">30 secs</tspan>
                        </text>
                        <text id="Verificación-sin-hac" fill="#464646">
                            <tspan x="0" y="15">Verificación sin hacer fotos</tspan>
                        </text>
                    </g>
                    <text id="1-Inicio-de-sesión-p" font-size="14" fill="#464646">
                        <tspan x="9" y="148">1 Inicio de sesión para reutilizar </tspan>
                        <tspan x="9" y="167">fotos de documentos</tspan>
                    </text>
                    <text id="PASOS-SIN-FOTOS" font-size="14" fill="#BEBEBE">
                        <tspan x="0" y="120">PASOS SIN FOTOS</tspan>
                    </text>
                    <text id="BENEFICIOS" font-size="14" fill="#BEBEBE">
                        <tspan x="0" y="204">BENEFICIOS</tspan>
                    </text>
                    <text id="Usuario-previamente" font-size="20" fill="#2963FF">
                        <tspan x="50.8105469" y="60">Usuario previamente </tspan>
                        <tspan x="69.4238281" y="86">verificado en Silt</tspan>
                    </text>
                    <g id="es-Best-Experience" transform="translate(137.000000, 0.000000)" fill="#FFFFFF" font-size="14">
                        <text id="Mejor-experiencia">
                            <tspan x="2.94409004" y="15">Mejor experiencia</tspan>
                        </text>
                    </g>
                </g>
                <g id="Bolt" transform="translate(23.000000, 54.000000)" fill="#2963FF">
                    <g id="bolt-secondary" fill-opacity="0.5">
                        <path d="M12.6,1.3608 C12.6,1.4553 12.5793,1.6065 12.5559,1.6983 L10.1601,9 L8.028,16.2 L1.3509,16.2 C0.6057,16.2 0.0009,15.5952 0.0009,14.85 C0.0009,14.8005 0.0063,14.7195 0.0126,14.67 L1.8126,1.17 C1.8999,0.5238 2.4993,0 3.1509,0 L11.2509,0 C11.9961,0.0027 12.6009,0.6102 12.6009,1.3554 L12.6009,1.3608 L12.6,1.3608 Z" id="Path"></path>
                    </g>
                    <g id="bolt-primary" transform="translate(5.400000, 9.000000)">
                        <path d="M12.5964,1.3536 C12.5955,1.5525 12.5145,1.8531 12.4155,2.025 L2.5155,19.125 C2.2995,19.494 1.7775,19.7928 1.3509,19.7928 C0.6057,19.7928 0.0009,19.188 0.0009,18.4428 C0.0009,18.3582 0.0162,18.2232 0.0351,18.1413 L2.628,7.2009 L4.7601,0.0009 L11.2509,0.0009 C11.9943,0.0027 12.5973,0.6075 12.5973,1.3509 L12.5973,1.3545 L12.5964,1.3536 Z" id="Path"></path>
                    </g>
                </g>
            </g>
            <g id="New-user" transform="translate(0.000000, 239.000000)">
                <text id="es_kyc" font-family="Futura-Medium, Futura" font-size="14" font-weight="400" fill="#A6A6A6">
                    <tspan x="26" y="426">Otros proveedores de KYC</tspan>
                    <tspan x="26" y="445">sólo ofrecen esta opción</tspan>
                </text>
                <g id="Rectangle">
                    <use fill="black" fill-opacity="1" filter="url(#filter-7)" xlink:href="#path-6"></use>
                    <use fill="#FFFFFF" fill-rule="evenodd" xlink:href="#path-6"></use>
                </g>
                <g id="benefits" transform="translate(16.000000, 305.000000)">
                    <g id="Group-2">
                        <rect id="Rectangle" fill="#E5F0FF" x="0" y="0" width="278" height="88" rx="10"></rect>
                        <g id="check-solid" transform="translate(16.000000, 19.000000)" fill="#2963FF">
                            <path d="M0.205016802,5.98988225 C-0.0683389339,5.70186303 -0.0683389339,5.23487257 0.205016802,4.94682454 L1.19494355,3.90376682 C1.46829929,3.61571878 1.91154191,3.61571878 2.18489764,3.90376682 L5.24999829,7.13325836 L11.8151024,0.216014418 C12.0884581,-0.0720048061 12.5317007,-0.0720048061 12.8050565,0.216014418 L13.7949832,1.25907214 C14.0683389,1.54709136 14.0683389,2.01408182 13.7949832,2.30212985 L5.74497534,10.7839892 C5.47159226,11.0720084 5.02837698,11.0720084 4.75502125,10.7839604 L0.205016802,5.98988225 Z" id="Path"></path>
                        </g>
                        <g id="check-solid-copy" transform="translate(16.000000, 38.000000)" fill="#2963FF">
                            <path d="M0.205016802,5.98988225 C-0.0683389339,5.70186303 -0.0683389339,5.23487257 0.205016802,4.94682454 L1.19494355,3.90376682 C1.46829929,3.61571878 1.91154191,3.61571878 2.18489764,3.90376682 L5.24999829,7.13325836 L11.8151024,0.216014418 C12.0884581,-0.0720048061 12.5317007,-0.0720048061 12.8050565,0.216014418 L13.7949832,1.25907214 C14.0683389,1.54709136 14.0683389,2.01408182 13.7949832,2.30212985 L5.74497534,10.7839892 C5.47159226,11.0720084 5.02837698,11.0720084 4.75502125,10.7839604 L0.205016802,5.98988225 Z" id="Path"></path>
                        </g>
                        <g id="check-solid-copy-2" transform="translate(16.000000, 57.000000)" fill="#2963FF">
                            <path d="M0.205016802,5.98988225 C-0.0683389339,5.70186303 -0.0683389339,5.23487257 0.205016802,4.94682454 L1.19494355,3.90376682 C1.46829929,3.61571878 1.91154191,3.61571878 2.18489764,3.90376682 L5.24999829,7.13325836 L11.8151024,0.216014418 C12.0884581,-0.0720048061 12.5317007,-0.0720048061 12.8050565,0.216014418 L13.7949832,1.25907214 C14.0683389,1.54709136 14.0683389,2.01408182 13.7949832,2.30212985 L5.74497534,10.7839892 C5.47159226,11.0720084 5.02837698,11.0720084 4.75502125,10.7839604 L0.205016802,5.98988225 Z" id="Path"></path>
                        </g>
                    </g>
                </g>
                <g id="es_benefits" transform="translate(16.000000, 279.000000)" font-family="Futura-Medium, Futura" font-size="14" font-weight="400">
                    <text id="+90%-verificados-aut" fill="#464646">
                        <tspan x="42" y="55">+90% verificados automáticamente</tspan>
                    </text>
                    <text id="El-usuario-espera-6" fill="#464646">
                        <tspan x="42" y="73">El usuario espera 6 segundos</tspan>
                    </text>
                    <text id="Verificación-en-meno">
                        <tspan x="42" y="91" fill="#464646">Verificación en menos de </tspan>
                        <tspan x="205.529297" y="91" font-family="Futura-Bold, Futura" font-weight="bold" fill="#2963FF">3 min</tspan>
                    </text>
                </g>
                <g id="es_steps" transform="translate(13.000000, 24.000000)">
                    <g id="Group-5" transform="translate(0.000000, 86.000000)">
                        <text id="(6-Repetir-pasos-2-4" font-family="Futura-Medium, Futura" font-size="14" font-weight="400" fill="#AAAAAA">
                            <tspan x="18" y="112">(6 Repetir pasos 2-4 si se requieren</tspan>
                            <tspan x="18" y="131"> más documentos)</tspan>
                        </text>
                        <text id="1-Seleccionar-tipo-d" font-family="Futura-Medium, Futura" font-size="14" font-weight="400" fill="#464646">
                            <tspan x="18" y="15">1 Seleccionar tipo de documento</tspan>
                            <tspan x="18" y="34">2 Hacer foto cara frontal del documento</tspan>
                            <tspan x="18" y="53">3 Hacer foto del reverso del documento</tspan>
                            <tspan x="18" y="72">4 Hacer foto </tspan>
                            <tspan x="103.080078" y="72" font-family="Futura-MediumItalic, Futura" font-style="italic">selfie</tspan>
                            <tspan x="135.496094" y="72"></tspan>
                            <tspan x="18" y="91">5 Esperar 6 segundos a ser verificado</tspan>
                        </text>
                        <g id="Group-3" transform="translate(0.000000, 27.000000)" stroke="#CECECE">
                            <polyline id="Path" transform="translate(10.497174, 20.869322) scale(-1, -1) translate(-10.497174, -20.869322) " points="6 0 14.9943489 0 14.9943489 41.7386437 6 41.7386437"></polyline>
                            <polyline id="Path-2" points="6 21.9431756 -1.77635684e-15 21.9431756 -1.77635684e-15 80.4125064 14 80.4125064"></polyline>
                        </g>
                    </g>
                    <text id="PASOS-DE-FOTOS" font-family="Futura-Medium, Futura" font-size="14" font-weight="400" fill="#BEBEBE">
                        <tspan x="7" y="76">PASOS DE FOTOS</tspan>
                    </text>
                    <text id="es_title" font-family="Futura-Medium, Futura" font-size="20" font-weight="400" fill="#464646">
                        <tspan x="59.2597656" y="21">Usuario nuevo en Silt</tspan>
                    </text>
                </g>
                <g id="Camera" transform="translate(23.000000, 27.000000)" fill="#8D8D8D">
                    <g id="camera-primary">
                        <path d="M16.125,12 C16.125,14.277 14.277,16.125 12,16.125 C9.723,16.125 7.875,14.277 7.875,12 C7.875,9.723 9.723,7.875 12,7.875 C14.274,7.878 16.122,9.726 16.125,12 Z" id="Path" fill-opacity="0.5"></path>
                        <path d="M21.75,3 C22.992,3 24,4.008 24,5.25 L24,18.75 C24,19.992 22.992,21 21.75,21 L2.25,21 C1.008,21 0,19.992 0,18.75 L0,5.25 C0,4.008 1.008,3 2.25,3 L6.375,3 L6.95175,1.458 C7.25325,0.65325 8.196,0 9.0555,0 L14.94,0 C15.7995,0 16.74225,0.65325 17.04375,1.458 L17.625,3 L21.75,3 Z M12,17.625 C15.10275,17.62275 17.62275,15.10275 17.625,12 C17.625,8.895 15.105,6.375 12,6.375 C8.895,6.375 6.375,8.895 6.375,12 C6.375,15.105 8.895,17.625 12,17.625 Z" id="Shape" fill-rule="nonzero"></path>
                    </g>
                </g>
            </g>
            <g id="Verified-user" transform="translate(232.000000, 759.000000)">
                <g id="es">
                    <g id="Rectangle-Copy">
                        <use fill="black" fill-opacity="1" filter="url(#filter-9)" xlink:href="#path-8"></use>
                        <use fill="#2963FF" fill-rule="evenodd" xlink:href="#path-8"></use>
                    </g>
                    <text id="Usuario-verificado" font-family="Futura-Medium, Futura" font-size="20" font-weight="400" fill="#FFFFFF">
                        <tspan x="42.7871094" y="28">Usuario verificado</tspan>
                    </text>
                    <g id="check-solid" transform="translate(13.000000, 16.000000)" fill="#FFFFFF">
                        <path d="M0.248948974,7.07895175 C-0.0829829912,6.7385654 -0.0829829912,6.18666758 0.248948974,5.84624718 L1.45100288,4.6135426 C1.78293485,4.2731222 2.32115803,4.2731222 2.65308999,4.6135426 L6.37499792,8.43021443 L14.34691,0.255289767 C14.678842,-0.0850965891 15.2170652,-0.0850965891 15.5489971,0.255289767 L16.751051,1.48799434 C17.082983,1.8283807 17.082983,2.38027851 16.751051,2.72069892 L6.97604148,12.7447145 C6.64407631,13.0851008 6.10588633,13.0851008 5.77395437,12.7446804 L0.248948974,7.07895175 Z" id="Path"></path>
                    </g>
                </g>
            </g>
        </g>
    </g>
</svg>