<svg width="429" height="480" viewBox="0 0 429 480" fill="none" xmlns="http://www.w3.org/2000/svg">
<path d="M12.9492 75.7324V78.4277C11.6341 77.3275 10.2734 76.7773 8.86719 76.7773C7.31771 76.7773 6.01237 77.334 4.95117 78.4473C3.88346 79.554 3.34961 80.9082 3.34961 82.5098C3.34961 84.0918 3.88346 85.4264 4.95117 86.5137C6.01888 87.6009 7.32747 88.1445 8.87695 88.1445C9.67773 88.1445 10.3581 88.0143 10.918 87.7539C11.2305 87.6237 11.5527 87.4479 11.8848 87.2266C12.2233 87.0052 12.5781 86.7383 12.9492 86.4258V89.1699C11.6471 89.9056 10.2799 90.2734 8.84766 90.2734C6.69271 90.2734 4.85352 89.5215 3.33008 88.0176C1.81315 86.5007 1.05469 84.6712 1.05469 82.5293C1.05469 80.6087 1.68945 78.8965 2.95898 77.3926C4.52148 75.5501 6.54297 74.6289 9.02344 74.6289C10.3776 74.6289 11.6862 74.9967 12.9492 75.7324ZM14.9609 85.1758C14.9609 83.8021 15.4525 82.6335 16.4355 81.6699C17.4186 80.7064 18.6165 80.2246 20.0293 80.2246C21.4486 80.2246 22.653 80.7096 23.6426 81.6797C24.6191 82.6497 25.1074 83.8411 25.1074 85.2539C25.1074 86.6797 24.6159 87.8743 23.6328 88.8379C22.6432 89.7949 21.429 90.2734 19.9902 90.2734C18.5645 90.2734 17.3698 89.7852 16.4062 88.8086C15.4427 87.8451 14.9609 86.6341 14.9609 85.1758ZM17.207 85.2148C17.207 86.1654 17.4609 86.9173 17.9688 87.4707C18.4896 88.0306 19.1764 88.3105 20.0293 88.3105C20.8887 88.3105 21.5755 88.0339 22.0898 87.4805C22.6042 86.9271 22.8613 86.1882 22.8613 85.2637C22.8613 84.3392 22.6042 83.6003 22.0898 83.0469C21.569 82.487 20.8822 82.207 20.0293 82.207C19.1895 82.207 18.5091 82.487 17.9883 83.0469C17.4674 83.6068 17.207 84.3294 17.207 85.2148ZM27.4414 80.4883H29.6387V81.3672C30.0618 80.9245 30.4232 80.625 30.7227 80.4688C31.0417 80.306 31.4421 80.2246 31.9238 80.2246C32.998 80.2246 33.8477 80.6934 34.4727 81.6309C35.1628 80.6934 36.097 80.2246 37.2754 80.2246C39.4173 80.2246 40.4883 81.5234 40.4883 84.1211V90H38.2812V84.7168C38.2812 83.8053 38.1706 83.1608 37.9492 82.7832C37.7214 82.3991 37.347 82.207 36.8262 82.207C36.2207 82.207 35.778 82.4349 35.498 82.8906C35.2246 83.3464 35.0879 84.0788 35.0879 85.0879V90H32.8809V84.7461C32.8809 83.0534 32.3926 82.207 31.416 82.207C30.7975 82.207 30.3451 82.4382 30.0586 82.9004C29.7786 83.3626 29.6387 84.0918 29.6387 85.0879V90H27.4414V80.4883ZM45.7129 95.1758H43.5156V80.4883H45.7129V81.5234C46.5788 80.6576 47.5618 80.2246 48.6621 80.2246C49.9707 80.2246 51.0482 80.7064 51.8945 81.6699C52.7539 82.627 53.1836 83.8346 53.1836 85.293C53.1836 86.7188 52.7572 87.9069 51.9043 88.8574C51.0579 89.8014 49.9902 90.2734 48.7012 90.2734C47.5879 90.2734 46.5918 89.8275 45.7129 88.9355V95.1758ZM50.9375 85.3027C50.9375 84.3913 50.6901 83.6491 50.1953 83.0762C49.694 82.4967 49.0625 82.207 48.3008 82.207C47.4935 82.207 46.8392 82.487 46.3379 83.0469C45.8366 83.6068 45.5859 84.3424 45.5859 85.2539C45.5859 86.1458 45.8366 86.8815 46.3379 87.4609C46.8327 88.0273 47.4837 88.3105 48.291 88.3105C49.0527 88.3105 49.681 88.0241 50.1758 87.4512C50.6836 86.8783 50.9375 86.1621 50.9375 85.3027ZM62.5195 80.4883H64.7266V90H62.5195V89.0039C61.6146 89.8503 60.6413 90.2734 59.5996 90.2734C58.2845 90.2734 57.1973 89.7982 56.3379 88.8477C55.485 87.8776 55.0586 86.6667 55.0586 85.2148C55.0586 83.7891 55.485 82.6009 56.3379 81.6504C57.1908 80.6999 58.2585 80.2246 59.541 80.2246C60.6478 80.2246 61.6406 80.6803 62.5195 81.5918V80.4883ZM57.3047 85.2148C57.3047 86.1263 57.5488 86.8685 58.0371 87.4414C58.5384 88.0208 59.1699 88.3105 59.9316 88.3105C60.7454 88.3105 61.403 88.0306 61.9043 87.4707C62.4056 86.8913 62.6562 86.1556 62.6562 85.2637C62.6562 84.3717 62.4056 83.6361 61.9043 83.0566C61.403 82.4902 60.752 82.207 59.9512 82.207C59.196 82.207 58.5645 82.4935 58.0566 83.0664C57.5553 83.6458 57.3047 84.362 57.3047 85.2148ZM67.5 80.4883H69.707V81.3672C70.4753 80.6055 71.3411 80.2246 72.3047 80.2246C73.4115 80.2246 74.2741 80.5729 74.8926 81.2695C75.4264 81.862 75.6934 82.8288 75.6934 84.1699V90H73.4863V84.6875C73.4863 83.75 73.3561 83.1022 73.0957 82.7441C72.8418 82.3796 72.3796 82.1973 71.709 82.1973C70.9798 82.1973 70.4622 82.4382 70.1562 82.9199C69.8568 83.3952 69.707 84.2253 69.707 85.4102V90H67.5V80.4883ZM81.1426 88.2324L76.8652 80.4883H79.4141L82.3242 85.957L85.0391 80.4883H87.5195L79.9414 95.1758H77.4316L81.1426 88.2324ZM104.473 86.3379H98.0176L96.3379 90H93.8867L101.348 73.9746L108.545 90H106.055L104.473 86.3379ZM103.545 84.1992L101.309 79.0723L98.9648 84.1992H103.545Z" fill="#666666"/>
<path d="M130 150L132.887 145H127.113L130 150ZM53.7004 106.145L54.0255 114.71L55.0248 114.672L54.6996 106.107L53.7004 106.145ZM67.5158 127.698H117V126.698H67.5158V127.698ZM129.5 140.198V145.5H130.5V140.198H129.5ZM117 127.698C123.904 127.698 129.5 133.295 129.5 140.198H130.5C130.5 132.742 124.456 126.698 117 126.698V127.698ZM54.0255 114.71C54.3008 121.962 60.2593 127.698 67.5158 127.698V126.698C60.7968 126.698 55.2797 121.387 55.0248 114.672L54.0255 114.71Z" fill="#979797"/>
<path d="M246.2 150L243.313 145H249.087L246.2 150ZM322.5 106.145L322.174 114.71L321.175 114.672L321.5 106.107L322.5 106.145ZM308.684 127.698H259.2V126.698H308.684V127.698ZM246.7 140.198V145.5H245.7V140.198H246.7ZM259.2 127.698C252.296 127.698 246.7 133.295 246.7 140.198H245.7C245.7 132.742 251.744 126.698 259.2 126.698V127.698ZM322.174 114.71C321.899 121.962 315.941 127.698 308.684 127.698V126.698C315.403 126.698 320.92 121.387 321.175 114.672L322.174 114.71Z" fill="#979797"/>
<path d="M279.949 75.7324V78.4277C278.634 77.3275 277.273 76.7773 275.867 76.7773C274.318 76.7773 273.012 77.334 271.951 78.4473C270.883 79.554 270.35 80.9082 270.35 82.5098C270.35 84.0918 270.883 85.4264 271.951 86.5137C273.019 87.6009 274.327 88.1445 275.877 88.1445C276.678 88.1445 277.358 88.0143 277.918 87.7539C278.23 87.6237 278.553 87.4479 278.885 87.2266C279.223 87.0052 279.578 86.7383 279.949 86.4258V89.1699C278.647 89.9056 277.28 90.2734 275.848 90.2734C273.693 90.2734 271.854 89.5215 270.33 88.0176C268.813 86.5007 268.055 84.6712 268.055 82.5293C268.055 80.6087 268.689 78.8965 269.959 77.3926C271.521 75.5501 273.543 74.6289 276.023 74.6289C277.378 74.6289 278.686 74.9967 279.949 75.7324ZM281.961 85.1758C281.961 83.8021 282.452 82.6335 283.436 81.6699C284.419 80.7064 285.617 80.2246 287.029 80.2246C288.449 80.2246 289.653 80.7096 290.643 81.6797C291.619 82.6497 292.107 83.8411 292.107 85.2539C292.107 86.6797 291.616 87.8743 290.633 88.8379C289.643 89.7949 288.429 90.2734 286.99 90.2734C285.564 90.2734 284.37 89.7852 283.406 88.8086C282.443 87.8451 281.961 86.6341 281.961 85.1758ZM284.207 85.2148C284.207 86.1654 284.461 86.9173 284.969 87.4707C285.49 88.0306 286.176 88.3105 287.029 88.3105C287.889 88.3105 288.576 88.0339 289.09 87.4805C289.604 86.9271 289.861 86.1882 289.861 85.2637C289.861 84.3392 289.604 83.6003 289.09 83.0469C288.569 82.487 287.882 82.207 287.029 82.207C286.189 82.207 285.509 82.487 284.988 83.0469C284.467 83.6068 284.207 84.3294 284.207 85.2148ZM294.441 80.4883H296.639V81.3672C297.062 80.9245 297.423 80.625 297.723 80.4688C298.042 80.306 298.442 80.2246 298.924 80.2246C299.998 80.2246 300.848 80.6934 301.473 81.6309C302.163 80.6934 303.097 80.2246 304.275 80.2246C306.417 80.2246 307.488 81.5234 307.488 84.1211V90H305.281V84.7168C305.281 83.8053 305.171 83.1608 304.949 82.7832C304.721 82.3991 304.347 82.207 303.826 82.207C303.221 82.207 302.778 82.4349 302.498 82.8906C302.225 83.3464 302.088 84.0788 302.088 85.0879V90H299.881V84.7461C299.881 83.0534 299.393 82.207 298.416 82.207C297.798 82.207 297.345 82.4382 297.059 82.9004C296.779 83.3626 296.639 84.0918 296.639 85.0879V90H294.441V80.4883ZM312.713 95.1758H310.516V80.4883H312.713V81.5234C313.579 80.6576 314.562 80.2246 315.662 80.2246C316.971 80.2246 318.048 80.7064 318.895 81.6699C319.754 82.627 320.184 83.8346 320.184 85.293C320.184 86.7188 319.757 87.9069 318.904 88.8574C318.058 89.8014 316.99 90.2734 315.701 90.2734C314.588 90.2734 313.592 89.8275 312.713 88.9355V95.1758ZM317.938 85.3027C317.938 84.3913 317.69 83.6491 317.195 83.0762C316.694 82.4967 316.062 82.207 315.301 82.207C314.493 82.207 313.839 82.487 313.338 83.0469C312.837 83.6068 312.586 84.3424 312.586 85.2539C312.586 86.1458 312.837 86.8815 313.338 87.4609C313.833 88.0273 314.484 88.3105 315.291 88.3105C316.053 88.3105 316.681 88.0241 317.176 87.4512C317.684 86.8783 317.938 86.1621 317.938 85.3027ZM329.52 80.4883H331.727V90H329.52V89.0039C328.615 89.8503 327.641 90.2734 326.6 90.2734C325.285 90.2734 324.197 89.7982 323.338 88.8477C322.485 87.8776 322.059 86.6667 322.059 85.2148C322.059 83.7891 322.485 82.6009 323.338 81.6504C324.191 80.6999 325.258 80.2246 326.541 80.2246C327.648 80.2246 328.641 80.6803 329.52 81.5918V80.4883ZM324.305 85.2148C324.305 86.1263 324.549 86.8685 325.037 87.4414C325.538 88.0208 326.17 88.3105 326.932 88.3105C327.745 88.3105 328.403 88.0306 328.904 87.4707C329.406 86.8913 329.656 86.1556 329.656 85.2637C329.656 84.3717 329.406 83.6361 328.904 83.0566C328.403 82.4902 327.752 82.207 326.951 82.207C326.196 82.207 325.564 82.4935 325.057 83.0664C324.555 83.6458 324.305 84.362 324.305 85.2148ZM334.5 80.4883H336.707V81.3672C337.475 80.6055 338.341 80.2246 339.305 80.2246C340.411 80.2246 341.274 80.5729 341.893 81.2695C342.426 81.862 342.693 82.8288 342.693 84.1699V90H340.486V84.6875C340.486 83.75 340.356 83.1022 340.096 82.7441C339.842 82.3796 339.38 82.1973 338.709 82.1973C337.98 82.1973 337.462 82.4382 337.156 82.9199C336.857 83.3952 336.707 84.2253 336.707 85.4102V90H334.5V80.4883ZM348.143 88.2324L343.865 80.4883H346.414L349.324 85.957L352.039 80.4883H354.52L346.941 95.1758H344.432L348.143 88.2324ZM362.615 90V74.9219H364.881C365.89 74.9219 366.694 75 367.293 75.1562C367.898 75.3125 368.41 75.5762 368.826 75.9473C369.249 76.3314 369.585 76.8099 369.832 77.3828C370.086 77.9622 370.213 78.5482 370.213 79.1406C370.213 80.2214 369.799 81.1361 368.973 81.8848C369.773 82.1582 370.405 82.6367 370.867 83.3203C371.336 83.9974 371.57 84.7852 371.57 85.6836C371.57 86.862 371.154 87.8581 370.32 88.6719C369.819 89.1732 369.256 89.5215 368.631 89.7168C367.947 89.9056 367.091 90 366.062 90H362.615ZM364.891 81.3965H365.604C366.45 81.3965 367.068 81.2109 367.459 80.8398C367.856 80.4622 368.055 79.9089 368.055 79.1797C368.055 78.4701 367.853 77.9329 367.449 77.5684C367.046 77.1973 366.46 77.0117 365.691 77.0117H364.891V81.3965ZM364.891 87.8613H366.297C367.326 87.8613 368.081 87.6595 368.562 87.2559C369.07 86.8197 369.324 86.2663 369.324 85.5957C369.324 84.9447 369.08 84.3978 368.592 83.9551C368.117 83.5189 367.267 83.3008 366.043 83.3008H364.891V87.8613Z" fill="#666666"/>
<path d="M54.2 106.126L51.505 111.232L57.2744 111.013L54.2 106.126ZM53.8711 110.642L54.0255 114.71L55.0248 114.672L54.8704 110.604L53.8711 110.642ZM67.5158 127.698H117V126.698H67.5158V127.698ZM129.5 140.198V150H130.5V140.198H129.5ZM117 127.698C123.904 127.698 129.5 133.295 129.5 140.198H130.5C130.5 132.742 124.456 126.698 117 126.698V127.698ZM54.0255 114.71C54.3008 121.962 60.2593 127.698 67.5158 127.698V126.698C60.7968 126.698 55.2797 121.387 55.0248 114.672L54.0255 114.71Z" fill="#979797"/>
<path d="M322 106.126L324.695 111.232L318.926 111.013L322 106.126ZM322.329 110.642L322.174 114.71L321.175 114.672L321.33 110.604L322.329 110.642ZM308.684 127.698H259.2V126.698H308.684V127.698ZM246.7 140.198V150H245.7V140.198H246.7ZM259.2 127.698C252.296 127.698 246.7 133.295 246.7 140.198H245.7C245.7 132.742 251.744 126.698 259.2 126.698V127.698ZM322.174 114.71C321.899 121.962 315.941 127.698 308.684 127.698V126.698C315.403 126.698 320.92 121.387 321.175 114.672L322.174 114.71Z" fill="#979797"/>
<path d="M12.9492 391.732V394.428C11.6341 393.327 10.2734 392.777 8.86719 392.777C7.31771 392.777 6.01237 393.334 4.95117 394.447C3.88346 395.554 3.34961 396.908 3.34961 398.51C3.34961 400.092 3.88346 401.426 4.95117 402.514C6.01888 403.601 7.32747 404.145 8.87695 404.145C9.67773 404.145 10.3581 404.014 10.918 403.754C11.2305 403.624 11.5527 403.448 11.8848 403.227C12.2233 403.005 12.5781 402.738 12.9492 402.426V405.17C11.6471 405.906 10.2799 406.273 8.84766 406.273C6.69271 406.273 4.85352 405.521 3.33008 404.018C1.81315 402.501 1.05469 400.671 1.05469 398.529C1.05469 396.609 1.68945 394.896 2.95898 393.393C4.52148 391.55 6.54297 390.629 9.02344 390.629C10.3776 390.629 11.6862 390.997 12.9492 391.732ZM14.9609 401.176C14.9609 399.802 15.4525 398.633 16.4355 397.67C17.4186 396.706 18.6165 396.225 20.0293 396.225C21.4486 396.225 22.653 396.71 23.6426 397.68C24.6191 398.65 25.1074 399.841 25.1074 401.254C25.1074 402.68 24.6159 403.874 23.6328 404.838C22.6432 405.795 21.429 406.273 19.9902 406.273C18.5645 406.273 17.3698 405.785 16.4062 404.809C15.4427 403.845 14.9609 402.634 14.9609 401.176ZM17.207 401.215C17.207 402.165 17.4609 402.917 17.9688 403.471C18.4896 404.031 19.1764 404.311 20.0293 404.311C20.8887 404.311 21.5755 404.034 22.0898 403.48C22.6042 402.927 22.8613 402.188 22.8613 401.264C22.8613 400.339 22.6042 399.6 22.0898 399.047C21.569 398.487 20.8822 398.207 20.0293 398.207C19.1895 398.207 18.5091 398.487 17.9883 399.047C17.4674 399.607 17.207 400.329 17.207 401.215ZM27.4414 396.488H29.6387V397.367C30.0618 396.924 30.4232 396.625 30.7227 396.469C31.0417 396.306 31.4421 396.225 31.9238 396.225C32.998 396.225 33.8477 396.693 34.4727 397.631C35.1628 396.693 36.097 396.225 37.2754 396.225C39.4173 396.225 40.4883 397.523 40.4883 400.121V406H38.2812V400.717C38.2812 399.805 38.1706 399.161 37.9492 398.783C37.7214 398.399 37.347 398.207 36.8262 398.207C36.2207 398.207 35.778 398.435 35.498 398.891C35.2246 399.346 35.0879 400.079 35.0879 401.088V406H32.8809V400.746C32.8809 399.053 32.3926 398.207 31.416 398.207C30.7975 398.207 30.3451 398.438 30.0586 398.9C29.7786 399.363 29.6387 400.092 29.6387 401.088V406H27.4414V396.488ZM45.7129 411.176H43.5156V396.488H45.7129V397.523C46.5788 396.658 47.5618 396.225 48.6621 396.225C49.9707 396.225 51.0482 396.706 51.8945 397.67C52.7539 398.627 53.1836 399.835 53.1836 401.293C53.1836 402.719 52.7572 403.907 51.9043 404.857C51.0579 405.801 49.9902 406.273 48.7012 406.273C47.5879 406.273 46.5918 405.827 45.7129 404.936V411.176ZM50.9375 401.303C50.9375 400.391 50.6901 399.649 50.1953 399.076C49.694 398.497 49.0625 398.207 48.3008 398.207C47.4935 398.207 46.8392 398.487 46.3379 399.047C45.8366 399.607 45.5859 400.342 45.5859 401.254C45.5859 402.146 45.8366 402.882 46.3379 403.461C46.8327 404.027 47.4837 404.311 48.291 404.311C49.0527 404.311 49.681 404.024 50.1758 403.451C50.6836 402.878 50.9375 402.162 50.9375 401.303ZM62.5195 396.488H64.7266V406H62.5195V405.004C61.6146 405.85 60.6413 406.273 59.5996 406.273C58.2845 406.273 57.1973 405.798 56.3379 404.848C55.485 403.878 55.0586 402.667 55.0586 401.215C55.0586 399.789 55.485 398.601 56.3379 397.65C57.1908 396.7 58.2585 396.225 59.541 396.225C60.6478 396.225 61.6406 396.68 62.5195 397.592V396.488ZM57.3047 401.215C57.3047 402.126 57.5488 402.868 58.0371 403.441C58.5384 404.021 59.1699 404.311 59.9316 404.311C60.7454 404.311 61.403 404.031 61.9043 403.471C62.4056 402.891 62.6562 402.156 62.6562 401.264C62.6562 400.372 62.4056 399.636 61.9043 399.057C61.403 398.49 60.752 398.207 59.9512 398.207C59.196 398.207 58.5645 398.493 58.0566 399.066C57.5553 399.646 57.3047 400.362 57.3047 401.215ZM67.5 396.488H69.707V397.367C70.4753 396.605 71.3411 396.225 72.3047 396.225C73.4115 396.225 74.2741 396.573 74.8926 397.27C75.4264 397.862 75.6934 398.829 75.6934 400.17V406H73.4863V400.688C73.4863 399.75 73.3561 399.102 73.0957 398.744C72.8418 398.38 72.3796 398.197 71.709 398.197C70.9798 398.197 70.4622 398.438 70.1562 398.92C69.8568 399.395 69.707 400.225 69.707 401.41V406H67.5V396.488ZM81.1426 404.232L76.8652 396.488H79.4141L82.3242 401.957L85.0391 396.488H87.5195L79.9414 411.176H77.4316L81.1426 404.232ZM106.758 391.732V394.428C105.443 393.327 104.082 392.777 102.676 392.777C101.126 392.777 99.821 393.334 98.7598 394.447C97.6921 395.554 97.1582 396.908 97.1582 398.51C97.1582 400.092 97.6921 401.426 98.7598 402.514C99.8275 403.601 101.136 404.145 102.686 404.145C103.486 404.145 104.167 404.014 104.727 403.754C105.039 403.624 105.361 403.448 105.693 403.227C106.032 403.005 106.387 402.738 106.758 402.426V405.17C105.456 405.906 104.089 406.273 102.656 406.273C100.501 406.273 98.6621 405.521 97.1387 404.018C95.6217 402.501 94.8633 400.671 94.8633 398.529C94.8633 396.609 95.498 394.896 96.7676 393.393C98.3301 391.55 100.352 390.629 102.832 390.629C104.186 390.629 105.495 390.997 106.758 391.732Z" fill="#666666"/>
<path d="M279.949 391.732V394.428C278.634 393.327 277.273 392.777 275.867 392.777C274.318 392.777 273.012 393.334 271.951 394.447C270.883 395.554 270.35 396.908 270.35 398.51C270.35 400.092 270.883 401.426 271.951 402.514C273.019 403.601 274.327 404.145 275.877 404.145C276.678 404.145 277.358 404.014 277.918 403.754C278.23 403.624 278.553 403.448 278.885 403.227C279.223 403.005 279.578 402.738 279.949 402.426V405.17C278.647 405.906 277.28 406.273 275.848 406.273C273.693 406.273 271.854 405.521 270.33 404.018C268.813 402.501 268.055 400.671 268.055 398.529C268.055 396.609 268.689 394.896 269.959 393.393C271.521 391.55 273.543 390.629 276.023 390.629C277.378 390.629 278.686 390.997 279.949 391.732ZM281.961 401.176C281.961 399.802 282.452 398.633 283.436 397.67C284.419 396.706 285.617 396.225 287.029 396.225C288.449 396.225 289.653 396.71 290.643 397.68C291.619 398.65 292.107 399.841 292.107 401.254C292.107 402.68 291.616 403.874 290.633 404.838C289.643 405.795 288.429 406.273 286.99 406.273C285.564 406.273 284.37 405.785 283.406 404.809C282.443 403.845 281.961 402.634 281.961 401.176ZM284.207 401.215C284.207 402.165 284.461 402.917 284.969 403.471C285.49 404.031 286.176 404.311 287.029 404.311C287.889 404.311 288.576 404.034 289.09 403.48C289.604 402.927 289.861 402.188 289.861 401.264C289.861 400.339 289.604 399.6 289.09 399.047C288.569 398.487 287.882 398.207 287.029 398.207C286.189 398.207 285.509 398.487 284.988 399.047C284.467 399.607 284.207 400.329 284.207 401.215ZM294.441 396.488H296.639V397.367C297.062 396.924 297.423 396.625 297.723 396.469C298.042 396.306 298.442 396.225 298.924 396.225C299.998 396.225 300.848 396.693 301.473 397.631C302.163 396.693 303.097 396.225 304.275 396.225C306.417 396.225 307.488 397.523 307.488 400.121V406H305.281V400.717C305.281 399.805 305.171 399.161 304.949 398.783C304.721 398.399 304.347 398.207 303.826 398.207C303.221 398.207 302.778 398.435 302.498 398.891C302.225 399.346 302.088 400.079 302.088 401.088V406H299.881V400.746C299.881 399.053 299.393 398.207 298.416 398.207C297.798 398.207 297.345 398.438 297.059 398.9C296.779 399.363 296.639 400.092 296.639 401.088V406H294.441V396.488ZM312.713 411.176H310.516V396.488H312.713V397.523C313.579 396.658 314.562 396.225 315.662 396.225C316.971 396.225 318.048 396.706 318.895 397.67C319.754 398.627 320.184 399.835 320.184 401.293C320.184 402.719 319.757 403.907 318.904 404.857C318.058 405.801 316.99 406.273 315.701 406.273C314.588 406.273 313.592 405.827 312.713 404.936V411.176ZM317.938 401.303C317.938 400.391 317.69 399.649 317.195 399.076C316.694 398.497 316.062 398.207 315.301 398.207C314.493 398.207 313.839 398.487 313.338 399.047C312.837 399.607 312.586 400.342 312.586 401.254C312.586 402.146 312.837 402.882 313.338 403.461C313.833 404.027 314.484 404.311 315.291 404.311C316.053 404.311 316.681 404.024 317.176 403.451C317.684 402.878 317.938 402.162 317.938 401.303ZM329.52 396.488H331.727V406H329.52V405.004C328.615 405.85 327.641 406.273 326.6 406.273C325.285 406.273 324.197 405.798 323.338 404.848C322.485 403.878 322.059 402.667 322.059 401.215C322.059 399.789 322.485 398.601 323.338 397.65C324.191 396.7 325.258 396.225 326.541 396.225C327.648 396.225 328.641 396.68 329.52 397.592V396.488ZM324.305 401.215C324.305 402.126 324.549 402.868 325.037 403.441C325.538 404.021 326.17 404.311 326.932 404.311C327.745 404.311 328.403 404.031 328.904 403.471C329.406 402.891 329.656 402.156 329.656 401.264C329.656 400.372 329.406 399.636 328.904 399.057C328.403 398.49 327.752 398.207 326.951 398.207C326.196 398.207 325.564 398.493 325.057 399.066C324.555 399.646 324.305 400.362 324.305 401.215ZM334.5 396.488H336.707V397.367C337.475 396.605 338.341 396.225 339.305 396.225C340.411 396.225 341.274 396.573 341.893 397.27C342.426 397.862 342.693 398.829 342.693 400.17V406H340.486V400.688C340.486 399.75 340.356 399.102 340.096 398.744C339.842 398.38 339.38 398.197 338.709 398.197C337.98 398.197 337.462 398.438 337.156 398.92C336.857 399.395 336.707 400.225 336.707 401.41V406H334.5V396.488ZM348.143 404.232L343.865 396.488H346.414L349.324 401.957L352.039 396.488H354.52L346.941 411.176H344.432L348.143 404.232ZM362.615 406V390.922H365.779C367.296 390.922 368.494 391.072 369.373 391.371C370.317 391.664 371.173 392.162 371.941 392.865C373.497 394.285 374.275 396.15 374.275 398.461C374.275 400.779 373.465 402.654 371.844 404.086C371.03 404.802 370.177 405.3 369.285 405.58C368.452 405.86 367.27 406 365.74 406H362.615ZM364.891 403.861H365.916C366.938 403.861 367.788 403.754 368.465 403.539C369.142 403.311 369.754 402.95 370.301 402.455C371.421 401.433 371.98 400.102 371.98 398.461C371.98 396.807 371.427 395.466 370.32 394.438C369.324 393.52 367.856 393.061 365.916 393.061H364.891V403.861Z" fill="#666666"/>
<path d="M322 374L324.887 369H319.113L322 374ZM245.7 330.145L246.026 338.71L247.025 338.672L246.7 330.107L245.7 330.145ZM259.516 351.698H309V350.698H259.516V351.698ZM321.5 364.198V369.5H322.5V364.198H321.5ZM309 351.698C315.904 351.698 321.5 357.295 321.5 364.198H322.5C322.5 356.742 316.456 350.698 309 350.698V351.698ZM246.026 338.71C246.301 345.962 252.259 351.698 259.516 351.698V350.698C252.797 350.698 247.28 345.387 247.025 338.672L246.026 338.71Z" fill="#979797"/>
<path d="M55.2 374L52.3132 369H58.0867L55.2 374ZM131.5 330.145L131.174 338.71L130.175 338.672L130.5 330.107L131.5 330.145ZM117.684 351.698H68.2V350.698H117.684V351.698ZM55.7 364.198V369.5H54.7V364.198H55.7ZM68.2 351.698C61.2964 351.698 55.7 357.295 55.7 364.198H54.7C54.7 356.742 60.7442 350.698 68.2 350.698V351.698ZM131.174 338.71C130.899 345.962 124.941 351.698 117.684 351.698V350.698C124.403 350.698 129.92 345.387 130.175 338.672L131.174 338.71Z" fill="#979797"/>
<path d="M246.2 330.126L243.505 335.232L249.274 335.013L246.2 330.126ZM245.871 334.642L246.026 338.71L247.025 338.672L246.87 334.604L245.871 334.642ZM259.516 351.698H309V350.698H259.516V351.698ZM321.5 364.198V374H322.5V364.198H321.5ZM309 351.698C315.904 351.698 321.5 357.295 321.5 364.198H322.5C322.5 356.742 316.456 350.698 309 350.698V351.698ZM246.026 338.71C246.301 345.962 252.259 351.698 259.516 351.698V350.698C252.797 350.698 247.28 345.387 247.025 338.672L246.026 338.71Z" fill="#979797"/>
<path d="M131 330.126L133.695 335.232L127.926 335.013L131 330.126ZM131.329 334.642L131.174 338.71L130.175 338.672L130.33 334.604L131.329 334.642ZM117.684 351.698H68.2V350.698H117.684V351.698ZM55.7 364.198V374H54.7V364.198H55.7ZM68.2 351.698C61.2964 351.698 55.7 357.295 55.7 364.198H54.7C54.7 356.742 60.7442 350.698 68.2 350.698V351.698ZM131.174 338.71C130.899 345.962 124.941 351.698 117.684 351.698V350.698C124.403 350.698 129.92 345.387 130.175 338.672L131.174 338.71Z" fill="#979797"/>
<g filter="url(#filter0_d_0_1)">
<rect x="46" y="160" width="287" height="141" rx="14" fill="white"/>
<path d="M150.51 176.49L154.027 185.52L157.702 175.834L161.22 185.52L164.956 176.49H167.17L161.132 190.858L157.659 181.285L154.036 190.866L148.296 176.49H150.51ZM173.689 181.477H175.666V190H173.689V189.107C172.878 189.866 172.006 190.245 171.072 190.245C169.894 190.245 168.92 189.819 168.15 188.967C167.386 188.098 167.004 187.013 167.004 185.712C167.004 184.435 167.386 183.37 168.15 182.519C168.914 181.667 169.871 181.241 171.02 181.241C172.012 181.241 172.901 181.65 173.689 182.466V181.477ZM169.016 185.712C169.016 186.529 169.235 187.194 169.672 187.707C170.122 188.227 170.687 188.486 171.37 188.486C172.099 188.486 172.688 188.235 173.137 187.734C173.587 187.215 173.811 186.555 173.811 185.756C173.811 184.957 173.587 184.298 173.137 183.779C172.688 183.271 172.105 183.017 171.387 183.017C170.711 183.017 170.145 183.274 169.69 183.787C169.241 184.307 169.016 184.948 169.016 185.712ZM180.181 183.315V190H178.212V183.315H177.372V181.477H178.212V178.354H180.181V181.477H181.712V183.315H180.181ZM189.684 181.845V184.461C189.235 183.913 188.832 183.537 188.476 183.332C188.126 183.122 187.715 183.017 187.243 183.017C186.502 183.017 185.886 183.277 185.396 183.796C184.906 184.315 184.661 184.966 184.661 185.747C184.661 186.547 184.898 187.203 185.37 187.716C185.848 188.23 186.458 188.486 187.199 188.486C187.671 188.486 188.088 188.384 188.45 188.18C188.8 187.982 189.211 187.597 189.684 187.025V189.624C188.885 190.038 188.085 190.245 187.286 190.245C185.968 190.245 184.865 189.819 183.979 188.967C183.092 188.11 182.649 187.045 182.649 185.774C182.649 184.502 183.098 183.429 183.996 182.554C184.895 181.679 185.997 181.241 187.304 181.241C188.144 181.241 188.937 181.442 189.684 181.845ZM192.064 175.221H194.033V182.186C194.733 181.556 195.505 181.241 196.351 181.241C197.314 181.241 198.084 181.553 198.661 182.177C199.151 182.72 199.396 183.586 199.396 184.776V190H197.428V184.96C197.428 184.277 197.305 183.785 197.06 183.481C196.821 183.172 196.433 183.017 195.896 183.017C195.208 183.017 194.724 183.23 194.444 183.656C194.17 184.088 194.033 184.829 194.033 185.879V190H192.064V175.221ZM209.844 176.49V188.084H213.816V190H207.805V176.49H209.844ZM217.342 181.477V190H215.374V181.477H217.342ZM215.076 177.934C215.076 177.59 215.202 177.292 215.452 177.041C215.703 176.79 216.004 176.665 216.354 176.665C216.71 176.665 217.013 176.79 217.264 177.041C217.515 177.286 217.64 177.587 217.64 177.942C217.64 178.298 217.515 178.602 217.264 178.852C217.019 179.103 216.718 179.229 216.362 179.229C216.007 179.229 215.703 179.103 215.452 178.852C215.202 178.602 215.076 178.295 215.076 177.934ZM224.789 182.93L223.161 183.796C222.905 183.271 222.587 183.009 222.208 183.009C222.027 183.009 221.872 183.07 221.744 183.192C221.615 183.309 221.551 183.461 221.551 183.647C221.551 183.974 221.93 184.298 222.689 184.619C223.733 185.068 224.436 185.482 224.798 185.861C225.159 186.24 225.34 186.751 225.34 187.392C225.34 188.215 225.037 188.903 224.43 189.457C223.841 189.982 223.129 190.245 222.295 190.245C220.866 190.245 219.854 189.548 219.259 188.154L220.939 187.375C221.172 187.783 221.35 188.043 221.473 188.154C221.712 188.375 221.998 188.486 222.33 188.486C222.995 188.486 223.328 188.183 223.328 187.576C223.328 187.226 223.071 186.9 222.558 186.596C222.359 186.497 222.161 186.401 221.963 186.307C221.764 186.214 221.563 186.118 221.359 186.019C220.787 185.739 220.385 185.459 220.151 185.179C219.854 184.823 219.705 184.365 219.705 183.805C219.705 183.064 219.959 182.452 220.466 181.967C220.985 181.483 221.615 181.241 222.356 181.241C223.447 181.241 224.258 181.804 224.789 182.93ZM229.146 183.315V190H227.177V183.315H226.337V181.477H227.177V178.354H229.146V181.477H230.677V183.315H229.146Z" fill="#464646"/>
<path fill-rule="evenodd" clip-rule="evenodd" d="M183.768 266.641H179.417C179.261 266.641 179.135 266.769 179.135 266.926V269.202C179.135 269.322 179.203 269.431 179.31 269.483L183.609 271.554C183.814 271.653 184.051 271.502 184.051 271.273V266.926C184.051 266.769 183.924 266.641 183.768 266.641V266.641Z" fill="black"/>
<path fill-rule="evenodd" clip-rule="evenodd" d="M209.353 266.925C209.353 266.768 209.226 266.641 209.071 266.641H194.569C194.412 266.641 194.286 266.769 194.286 266.926V271.008C194.286 271.166 194.413 271.293 194.569 271.293H199.361V285.515C199.361 285.672 199.488 285.8 199.643 285.8H203.994C204.15 285.8 204.277 285.672 204.277 285.515V271.395L209.074 271.403C209.236 271.403 209.368 271.27 209.367 271.107L209.353 266.925L209.353 266.925Z" fill="black"/>
<path fill-rule="evenodd" clip-rule="evenodd" d="M197.104 281.58H191.775V266.926C191.775 266.769 191.649 266.641 191.493 266.641H187.114C186.958 266.641 186.831 266.769 186.831 266.926V285.515C186.831 285.672 186.958 285.8 187.114 285.8H197.372C197.376 285.796 197.382 285.791 197.387 285.786V281.865C197.387 281.707 197.26 281.58 197.104 281.58H197.104Z" fill="black"/>
<path fill-rule="evenodd" clip-rule="evenodd" d="M183.875 276.517L179.576 274.446C179.372 274.347 179.135 274.498 179.135 274.727V285.515C179.135 285.672 179.262 285.8 179.417 285.8H183.768C183.924 285.8 184.051 285.672 184.051 285.515V276.797C184.051 276.678 183.982 276.568 183.875 276.516V276.517Z" fill="black"/>
<path fill-rule="evenodd" clip-rule="evenodd" d="M171.981 274.37C170.566 273.815 169.544 273.415 169.544 272.534C169.544 271.654 170.301 271.06 171.428 271.06L171.466 271.062C172.37 271.14 173.389 271.528 174.949 272.256C175.093 272.323 175.264 272.257 175.327 272.111L176.836 268.606C176.895 268.468 176.838 268.307 176.706 268.238C174.545 267.124 172.857 266.641 171.146 266.641C167.084 266.641 164.459 268.954 164.459 272.534C164.459 276.299 167.666 277.481 170.008 278.344C171.439 278.872 172.474 279.253 172.474 280.141C172.474 280.659 172.301 281.094 171.973 281.4C171.599 281.749 171.057 281.907 170.407 281.857C169.105 281.756 168.036 281.468 166.615 280.822C166.47 280.756 166.299 280.825 166.238 280.972L164.902 284.217C164.845 284.355 164.903 284.516 165.036 284.581C166.766 285.439 168.444 285.794 170.715 285.794C174.978 285.794 177.523 283.761 177.523 280.357C177.523 276.542 174.32 275.286 171.981 274.37V274.37Z" fill="black"/>
<path fill-rule="evenodd" clip-rule="evenodd" d="M215.486 263.187C213.229 260.685 210.163 259.136 206.851 258.823L170.405 258.76C163.014 258.76 157 264.85 157 272.336C157 277.249 159.591 281.56 163.462 283.943C163.572 284.01 163.716 283.962 163.766 283.842L165.242 280.306C165.281 280.212 165.249 280.104 165.166 280.046C165.165 280.046 165.165 280.045 165.164 280.045C162.657 278.292 161.16 275.41 161.16 272.336C161.16 267.173 165.308 262.973 170.406 262.973H205.714C210.65 262.973 214.771 266.945 214.839 271.944C214.874 274.462 213.924 276.876 212.175 278.728C210.547 280.451 208.431 281.462 206.175 281.608C206.017 281.619 205.894 281.748 205.894 281.907V285.531C205.894 285.701 206.034 285.839 206.202 285.831C209.513 285.653 212.628 284.222 215.033 281.755C217.591 279.13 219 275.692 219 272.077C219 268.689 217.752 265.699 215.486 263.187Z" fill="#0088FF"/>
</g>
<mask id="mask0_0_1" style="mask-type:luminance" maskUnits="userSpaceOnUse" x="2" y="0" width="39" height="52">
<path fill-rule="evenodd" clip-rule="evenodd" d="M2 0H41V52H2V0Z" fill="white"/>
</mask>
<g mask="url(#mask0_0_1)">
<path fill-rule="evenodd" clip-rule="evenodd" d="M14.9665 25.9928H15.0001C15.0001 25.4967 15.0224 24.9994 14.9953 24.5046C14.9384 23.4606 14.4739 22.8621 13.4616 22.7838C12.319 22.6958 11.159 22.6991 10.0163 22.7882C9.0682 22.8618 8.62029 23.3108 8.54768 24.2593C8.45988 25.4016 8.46178 26.5605 8.54497 27.7034C8.61379 28.6453 9.06711 29.0954 10.0041 29.1902C11.1682 29.3077 12.3504 29.3131 13.5144 29.1861C14.4173 29.0881 14.8302 28.6491 14.9522 27.7472C15.0297 27.172 14.9665 26.5783 14.9665 25.9928M8.54497 12.9575C8.53088 12.9575 8.51651 12.9575 8.50215 12.9578C8.50215 13.4536 8.48319 13.9509 8.50595 14.4457C8.55499 15.5138 8.98935 16.0901 10.0084 16.1963C11.1717 16.3173 12.3547 16.3209 13.5188 16.1909C14.4211 16.0901 14.8576 15.653 14.9516 14.7487C15.0728 13.5847 15.0741 12.4031 14.9516 11.2394C14.8544 10.3178 14.4417 9.89987 13.5226 9.80129C12.3368 9.674 11.1367 9.69079 9.94639 9.80102C9.1148 9.8782 8.6398 10.3939 8.55662 11.2042C8.49728 11.7829 8.54497 12.3728 8.54497 12.9575M34.4868 26.0183H34.4992C34.4992 25.5221 34.5185 25.0249 34.4952 24.5298C34.4461 23.4779 33.9936 22.8848 32.9851 22.7854C31.8213 22.6706 30.638 22.6573 29.4748 22.7955C28.5416 22.9065 28.127 23.2997 28.0549 24.2333C27.9644 25.3973 27.9652 26.5789 28.0552 27.7432C28.1262 28.6656 28.5575 29.0775 29.478 29.1837C30.6418 29.3183 31.8243 29.3045 32.9892 29.1926C33.931 29.1024 34.3727 28.5952 34.4762 27.6403C34.5342 27.1054 34.4868 26.5594 34.4868 26.0183M21.5361 22.7846C21.5361 22.77 21.5361 22.7554 21.5358 22.741C21.0396 22.741 20.5422 22.7215 20.0471 22.7448C18.9486 22.7965 18.366 23.2532 18.2875 24.3105C18.2043 25.4311 18.2043 26.5681 18.2918 27.6885C18.3712 28.7035 18.9622 29.1886 20.0057 29.2281C20.9968 29.266 21.9918 29.2633 22.9833 29.2289C23.9959 29.194 24.5847 28.7303 24.6939 27.7605C24.8277 26.5759 24.8126 25.3745 24.6936 24.1859C24.6123 23.3726 24.1154 22.8686 23.2905 22.7947C22.7099 22.7427 22.1211 22.7846 21.5361 22.7846M31.2539 16.2117V16.2429C31.7278 16.2429 32.202 16.2578 32.6751 16.2396C33.7273 16.1993 34.3326 15.751 34.4478 14.7568C34.5822 13.5942 34.5694 12.4115 34.4529 11.2475C34.3605 10.3234 33.9484 9.90637 33.0293 9.80345C31.8441 9.67048 30.6391 9.66371 29.4544 9.80833C28.5239 9.92181 28.1194 10.3215 28.0473 11.2594C27.9601 12.402 27.9609 13.5609 28.0433 14.704C28.1107 15.6462 28.5649 16.0706 29.4986 16.1974C30.0739 16.2751 30.6681 16.2117 31.2539 16.2117M21.5111 9.78287C21.5111 9.77096 21.5111 9.75877 21.5111 9.74685C21.0147 9.74685 20.5172 9.72519 20.0222 9.75146C18.9708 9.80752 18.4295 10.2121 18.3102 11.2093C18.1685 12.3934 18.1718 13.5983 18.311 14.7831C18.4189 15.7012 18.8359 16.1242 19.7626 16.1955C20.9055 16.2832 22.0647 16.2813 23.2087 16.202C24.1343 16.1378 24.6085 15.6641 24.7025 14.743C24.821 13.579 24.8261 12.3971 24.6996 11.2334C24.5996 10.3115 24.1874 9.92506 23.2656 9.7975C22.6912 9.71787 22.0967 9.78287 21.5111 9.78287M2.00173 25.9934C2.00173 19.1147 2.00092 12.2363 2.002 5.35759C2.00254 2.05516 4.05862 0.000948892 7.36465 0.000678067C16.7955 -0.000405232 26.2262 -0.000405232 35.6568 0.000948892C38.9252 0.00121972 40.9986 2.06084 40.9988 5.30939C41.0005 19.0892 41.0002 32.8691 40.9991 46.6486C40.9988 49.9126 38.9382 51.9747 35.6779 51.9768C32.79 51.979 29.9021 51.9657 27.0144 51.9882C26.5175 51.992 26.3576 51.8696 26.3635 51.3526C26.3904 48.9171 26.3866 46.481 26.3725 44.0455C26.357 41.4301 24.7649 39.5568 22.1918 39.0918C19.6913 38.6395 17.1223 40.4801 16.7576 42.9939C16.4747 44.9454 16.6834 46.9097 16.63 48.8675C16.6059 49.7463 16.6148 50.6265 16.6311 51.5059C16.6373 51.8474 16.5351 51.9844 16.1718 51.9831C13.0359 51.9706 9.89762 52.0473 6.76446 51.95C3.9375 51.8623 2.00769 49.709 2.00444 46.832C1.99631 39.8859 2.00173 32.9395 2.00173 25.9934" fill="#3366FF"/>
</g>
<path fill-rule="evenodd" clip-rule="evenodd" d="M7.1627 11.4631C7.54556 7.64438 9.73176 5.21221 13.5592 4.84834C19.0377 4.32871 24.5612 4.24956 30.0186 4.84962C34.2488 5.31435 36.1482 7.28434 36.5959 11.6303C37.1596 17.1164 37.1521 22.6855 36.5959 28.1729C36.1632 32.4372 34.154 34.4966 30.0011 34.9715C24.6435 35.5843 19.1986 35.569 13.8435 34.997C9.15435 34.4966 7.15522 31.7797 6.92949 26.7455C6.82348 24.4117 6.91078 22.0689 6.91078 19.7299C6.97813 19.7286 7.04298 19.7286 7.10907 19.7286C7.10907 16.9722 6.88958 14.1915 7.1627 11.4631Z" fill="#3366FF" fill-opacity="0.5"/>
<mask id="mask1_0_1" style="mask-type:luminance" maskUnits="userSpaceOnUse" x="2" y="0" width="39" height="52">
<path fill-rule="evenodd" clip-rule="evenodd" d="M2 0H41V52H2V0Z" fill="white"/>
</mask>
<g mask="url(#mask1_0_1)">
<path fill-rule="evenodd" clip-rule="evenodd" d="M14.9665 25.9928H15.0001C15.0001 25.4967 15.0224 24.9994 14.9953 24.5046C14.9384 23.4606 14.4739 22.8621 13.4616 22.7838C12.319 22.6958 11.159 22.6991 10.0163 22.7882C9.0682 22.8618 8.62029 23.3108 8.54768 24.2593C8.45988 25.4016 8.46178 26.5605 8.54497 27.7034C8.61379 28.6453 9.06711 29.0954 10.0041 29.1902C11.1682 29.3077 12.3504 29.3131 13.5144 29.1861C14.4173 29.0881 14.8302 28.6491 14.9522 27.7472C15.0297 27.172 14.9665 26.5783 14.9665 25.9928M8.54497 12.9575C8.53088 12.9575 8.51651 12.9575 8.50215 12.9578C8.50215 13.4536 8.48319 13.9509 8.50595 14.4457C8.55499 15.5138 8.98935 16.0901 10.0084 16.1963C11.1717 16.3173 12.3547 16.3209 13.5188 16.1909C14.4211 16.0901 14.8576 15.653 14.9516 14.7487C15.0728 13.5847 15.0741 12.4031 14.9516 11.2394C14.8544 10.3178 14.4417 9.89987 13.5226 9.80129C12.3368 9.674 11.1367 9.69079 9.94639 9.80102C9.1148 9.8782 8.6398 10.3939 8.55662 11.2042C8.49728 11.7829 8.54497 12.3728 8.54497 12.9575M34.4868 26.0183H34.4992C34.4992 25.5221 34.5185 25.0249 34.4952 24.5298C34.4461 23.4779 33.9936 22.8848 32.9851 22.7854C31.8213 22.6706 30.638 22.6573 29.4748 22.7955C28.5416 22.9065 28.127 23.2997 28.0549 24.2333C27.9644 25.3973 27.9652 26.5789 28.0552 27.7432C28.1262 28.6656 28.5575 29.0775 29.478 29.1837C30.6418 29.3183 31.8243 29.3045 32.9892 29.1926C33.931 29.1024 34.3727 28.5952 34.4762 27.6403C34.5342 27.1054 34.4868 26.5594 34.4868 26.0183M21.5361 22.7846C21.5361 22.77 21.5361 22.7554 21.5358 22.741C21.0396 22.741 20.5422 22.7215 20.0471 22.7448C18.9486 22.7965 18.366 23.2532 18.2875 24.3105C18.2043 25.4311 18.2043 26.5681 18.2918 27.6885C18.3712 28.7035 18.9622 29.1886 20.0057 29.2281C20.9968 29.266 21.9918 29.2633 22.9833 29.2289C23.9959 29.194 24.5847 28.7303 24.6939 27.7605C24.8277 26.5759 24.8126 25.3745 24.6936 24.1859C24.6123 23.3726 24.1154 22.8686 23.2905 22.7947C22.7099 22.7427 22.1211 22.7846 21.5361 22.7846M31.2539 16.2117V16.2429C31.7278 16.2429 32.202 16.2578 32.6751 16.2396C33.7273 16.1993 34.3326 15.751 34.4478 14.7568C34.5822 13.5942 34.5694 12.4115 34.4529 11.2475C34.3605 10.3234 33.9484 9.90637 33.0293 9.80345C31.8441 9.67048 30.6391 9.66371 29.4544 9.80833C28.5239 9.92181 28.1194 10.3215 28.0473 11.2594C27.9601 12.402 27.9609 13.5609 28.0433 14.704C28.1107 15.6462 28.5649 16.0706 29.4986 16.1974C30.0739 16.2751 30.6681 16.2117 31.2539 16.2117M21.5111 9.78287C21.5111 9.77096 21.5111 9.75877 21.5111 9.74685C21.0147 9.74685 20.5172 9.72519 20.0222 9.75146C18.9708 9.80752 18.4295 10.2121 18.3102 11.2093C18.1685 12.3934 18.1718 13.5983 18.311 14.7831C18.4189 15.7012 18.8359 16.1242 19.7626 16.1955C20.9055 16.2832 22.0647 16.2813 23.2087 16.202C24.1343 16.1378 24.6085 15.6641 24.7025 14.743C24.821 13.579 24.8261 12.3971 24.6996 11.2334C24.5996 10.3115 24.1874 9.92506 23.2656 9.7975C22.6912 9.71787 22.0967 9.78287 21.5111 9.78287M2.00173 25.9934C2.00173 19.1147 2.00092 12.2363 2.002 5.35759C2.00254 2.05516 4.05862 0.000948892 7.36465 0.000678067C16.7955 -0.000405232 26.2262 -0.000405232 35.6568 0.000948892C38.9252 0.00121972 40.9986 2.06084 40.9988 5.30939C41.0005 19.0892 41.0002 32.8691 40.9991 46.6486C40.9988 49.9126 38.9382 51.9747 35.6779 51.9768C32.79 51.979 29.9021 51.9657 27.0144 51.9882C26.5175 51.992 26.3576 51.8696 26.3635 51.3526C26.3904 48.9171 26.3866 46.481 26.3725 44.0455C26.357 41.4301 24.7649 39.5568 22.1918 39.0918C19.6913 38.6395 17.1223 40.4801 16.7576 42.9939C16.4747 44.9454 16.6834 46.9097 16.63 48.8675C16.6059 49.7463 16.6148 50.6265 16.6311 51.5059C16.6373 51.8474 16.5351 51.9844 16.1718 51.9831C13.0359 51.9706 9.89762 52.0473 6.76446 51.95C3.9375 51.8623 2.00769 49.709 2.00444 46.832C1.99631 39.8859 2.00173 32.9395 2.00173 25.9934" fill="#3366FF"/>
</g>
<path fill-rule="evenodd" clip-rule="evenodd" d="M7.1627 11.4631C7.54556 7.64438 9.73176 5.21221 13.5592 4.84834C19.0377 4.32871 24.5612 4.24956 30.0186 4.84962C34.2488 5.31435 36.1482 7.28434 36.5959 11.6303C37.1596 17.1164 37.1521 22.6855 36.5959 28.1729C36.1632 32.4372 34.154 34.4966 30.0011 34.9715C24.6435 35.5843 19.1986 35.569 13.8435 34.997C9.15435 34.4966 7.15522 31.7797 6.92949 26.7455C6.82348 24.4117 6.91078 22.0689 6.91078 19.7299C6.97813 19.7286 7.04298 19.7286 7.10907 19.7286C7.10907 16.9722 6.88958 14.1915 7.1627 11.4631Z" fill="#3366FF" fill-opacity="0.5"/>
<path d="M107.6 11C110.58 11.0006 112.999 13.4197 113 16.4V18.0714C113 19.136 112.136 20 111.071 20H96.9286C95.864 20 95 19.136 95 18.0714V16.4C95.0006 13.4197 97.4197 11.0006 100.4 11H101.071C101.841 11.3549 103.153 11.6429 104 11.6429C104.847 11.6429 106.159 11.3549 106.929 11H107.6Z" fill="#3366FF"/>
<path d="M104 10C101.24 10 99 7.76 99 5C99 2.24 101.24 0 104 0C106.76 0 109 2.24 109 5C109 7.76 106.76 10 104 10Z" fill="#3366FF" fill-opacity="0.5"/>
<path d="M107.6 44C110.58 44.0006 112.999 46.4197 113 49.4V51.0714C113 52.136 112.136 53 111.071 53H96.9286C95.864 53 95 52.136 95 51.0714V49.4C95.0006 46.4197 97.4197 44.0006 100.4 44H101.071C101.841 44.3549 103.153 44.6429 104 44.6429C104.847 44.6429 106.159 44.3549 106.929 44H107.6Z" fill="#3366FF"/>
<path d="M104 43C101.24 43 99 40.76 99 38C99 35.24 101.24 33 104 33C106.76 33 109 35.24 109 38C109 40.76 106.76 43 104 43Z" fill="#3366FF" fill-opacity="0.5"/>
<path d="M74.6 11C77.5803 11.0006 79.9994 13.4197 80 16.4V18.0714C80 19.136 79.136 20 78.0714 20H63.9286C62.864 20 62 19.136 62 18.0714V16.4C62.0006 13.4197 64.4197 11.0006 67.4 11H68.0711C68.8406 11.3549 70.1527 11.6429 71 11.6429C71.8473 11.6429 73.1594 11.3549 73.9289 11H74.6Z" fill="#3366FF"/>
<path d="M71 10C68.24 10 66 7.76 66 5C66 2.24 68.24 0 71 0C73.76 0 76 2.24 76 5C76 7.76 73.76 10 71 10Z" fill="#3366FF" fill-opacity="0.5"/>
<path d="M74.6 44C77.5803 44.0006 79.9994 46.4197 80 49.4V51.0714C80 52.136 79.136 53 78.0714 53H63.9286C62.864 53 62 52.136 62 51.0714V49.4C62.0006 46.4197 64.4197 44.0006 67.4 44H68.0711C68.8406 44.3549 70.1527 44.6429 71 44.6429C71.8473 44.6429 73.1594 44.3549 73.9289 44H74.6Z" fill="#3366FF"/>
<path d="M71 43C68.24 43 66 40.76 66 38C66 35.24 68.24 33 71 33C73.76 33 76 35.24 76 38C76 40.76 73.76 43 71 43Z" fill="#3366FF" fill-opacity="0.5"/>
<mask id="mask2_0_1" style="mask-type:luminance" maskUnits="userSpaceOnUse" x="334" y="0" width="39" height="52">
<path fill-rule="evenodd" clip-rule="evenodd" d="M334 0H373V52H334V0Z" fill="white"/>
</mask>
<g mask="url(#mask2_0_1)">
<path fill-rule="evenodd" clip-rule="evenodd" d="M346.967 25.9928H347C347 25.4967 347.022 24.9994 346.995 24.5046C346.938 23.4606 346.474 22.8621 345.462 22.7838C344.319 22.6958 343.159 22.6991 342.016 22.7882C341.068 22.8618 340.62 23.3108 340.548 24.2593C340.46 25.4016 340.462 26.5605 340.545 27.7034C340.614 28.6453 341.067 29.0954 342.004 29.1902C343.168 29.3077 344.35 29.3131 345.514 29.1861C346.417 29.0881 346.83 28.6491 346.952 27.7472C347.03 27.172 346.967 26.5783 346.967 25.9928M340.545 12.9575C340.531 12.9575 340.517 12.9575 340.502 12.9578C340.502 13.4536 340.483 13.9509 340.506 14.4457C340.555 15.5138 340.989 16.0901 342.008 16.1963C343.172 16.3173 344.355 16.3209 345.519 16.1909C346.421 16.0901 346.858 15.653 346.952 14.7487C347.073 13.5847 347.074 12.4031 346.952 11.2394C346.854 10.3178 346.442 9.89987 345.523 9.80129C344.337 9.674 343.137 9.69079 341.946 9.80102C341.115 9.8782 340.64 10.3939 340.557 11.2042C340.497 11.7829 340.545 12.3728 340.545 12.9575M366.487 26.0183H366.499C366.499 25.5221 366.518 25.0249 366.495 24.5298C366.446 23.4779 365.994 22.8848 364.985 22.7854C363.821 22.6706 362.638 22.6573 361.475 22.7955C360.542 22.9065 360.127 23.2997 360.055 24.2333C359.964 25.3973 359.965 26.5789 360.055 27.7432C360.126 28.6656 360.558 29.0775 361.478 29.1837C362.642 29.3183 363.824 29.3045 364.989 29.1926C365.931 29.1024 366.373 28.5952 366.476 27.6403C366.534 27.1054 366.487 26.5594 366.487 26.0183M353.536 22.7846C353.536 22.77 353.536 22.7554 353.536 22.741C353.04 22.741 352.542 22.7215 352.047 22.7448C350.949 22.7965 350.366 23.2532 350.287 24.3105C350.204 25.4311 350.204 26.5681 350.292 27.6885C350.371 28.7035 350.962 29.1886 352.006 29.2281C352.997 29.266 353.992 29.2633 354.983 29.2289C355.996 29.194 356.585 28.7303 356.694 27.7605C356.828 26.5759 356.813 25.3745 356.694 24.1859C356.612 23.3726 356.115 22.8686 355.291 22.7947C354.71 22.7427 354.121 22.7846 353.536 22.7846M363.254 16.2117V16.2429C363.728 16.2429 364.202 16.2578 364.675 16.2396C365.727 16.1993 366.333 15.751 366.448 14.7568C366.582 13.5942 366.569 12.4115 366.453 11.2475C366.361 10.3234 365.948 9.90637 365.029 9.80345C363.844 9.67048 362.639 9.66371 361.454 9.80833C360.524 9.92181 360.119 10.3215 360.047 11.2594C359.96 12.402 359.961 13.5609 360.043 14.704C360.111 15.6462 360.565 16.0706 361.499 16.1974C362.074 16.2751 362.668 16.2117 363.254 16.2117M353.511 9.78287C353.511 9.77096 353.511 9.75877 353.511 9.74685C353.015 9.74685 352.517 9.72519 352.022 9.75146C350.971 9.80752 350.429 10.2121 350.31 11.2093C350.169 12.3934 350.172 13.5983 350.311 14.7831C350.419 15.7012 350.836 16.1242 351.763 16.1955C352.906 16.2832 354.065 16.2813 355.209 16.202C356.134 16.1378 356.609 15.6641 356.703 14.743C356.821 13.579 356.826 12.3971 356.7 11.2334C356.6 10.3115 356.187 9.92506 355.266 9.7975C354.691 9.71787 354.097 9.78287 353.511 9.78287M334.002 25.9934C334.002 19.1147 334.001 12.2363 334.002 5.35759C334.003 2.05516 336.059 0.000948892 339.365 0.000678067C348.796 -0.000405232 358.226 -0.000405232 367.657 0.000948892C370.925 0.00121972 372.999 2.06084 372.999 5.30939C373 19.0892 373 32.8691 372.999 46.6486C372.999 49.9126 370.938 51.9747 367.678 51.9768C364.79 51.979 361.902 51.9657 359.014 51.9882C358.517 51.992 358.358 51.8696 358.364 51.3526C358.39 48.9171 358.387 46.481 358.372 44.0455C358.357 41.4301 356.765 39.5568 354.192 39.0918C351.691 38.6395 349.122 40.4801 348.758 42.9939C348.475 44.9454 348.683 46.9097 348.63 48.8675C348.606 49.7463 348.615 50.6265 348.631 51.5059C348.637 51.8474 348.535 51.9844 348.172 51.9831C345.036 51.9706 341.898 52.0473 338.764 51.95C335.938 51.8623 334.008 49.709 334.004 46.832C333.996 39.8859 334.002 32.9395 334.002 25.9934" fill="#3366FF"/>
</g>
<path fill-rule="evenodd" clip-rule="evenodd" d="M339.163 11.4631C339.546 7.64438 341.732 5.21221 345.559 4.84834C351.038 4.32871 356.561 4.24956 362.019 4.84962C366.249 5.31435 368.148 7.28434 368.596 11.6303C369.16 17.1164 369.152 22.6855 368.596 28.1729C368.163 32.4372 366.154 34.4966 362.001 34.9715C356.644 35.5843 351.199 35.569 345.844 34.997C341.154 34.4966 339.155 31.7797 338.929 26.7455C338.823 24.4117 338.911 22.0689 338.911 19.7299C338.978 19.7286 339.043 19.7286 339.109 19.7286C339.109 16.9722 338.89 14.1915 339.163 11.4631Z" fill="#3366FF" fill-opacity="0.5"/>
<path d="M307.6 11C310.58 11.0006 312.999 13.4197 313 16.4V18.0714C313 19.136 312.136 20 311.071 20H296.929C295.864 20 295 19.136 295 18.0714V16.4C295.001 13.4197 297.42 11.0006 300.4 11H301.071C301.841 11.3549 303.153 11.6429 304 11.6429C304.847 11.6429 306.159 11.3549 306.929 11H307.6Z" fill="#3366FF"/>
<path d="M304 10C301.24 10 299 7.76 299 5C299 2.24 301.24 0 304 0C306.76 0 309 2.24 309 5C309 7.76 306.76 10 304 10Z" fill="#3366FF" fill-opacity="0.5"/>
<path d="M307.6 44C310.58 44.0006 312.999 46.4197 313 49.4V51.0714C313 52.136 312.136 53 311.071 53H296.929C295.864 53 295 52.136 295 51.0714V49.4C295.001 46.4197 297.42 44.0006 300.4 44H301.071C301.841 44.3549 303.153 44.6429 304 44.6429C304.847 44.6429 306.159 44.3549 306.929 44H307.6Z" fill="#3366FF"/>
<path d="M304 43C301.24 43 299 40.76 299 38C299 35.24 301.24 33 304 33C306.76 33 309 35.24 309 38C309 40.76 306.76 43 304 43Z" fill="#3366FF" fill-opacity="0.5"/>
<path d="M274.6 11C277.58 11.0006 279.999 13.4197 280 16.4V18.0714C280 19.136 279.136 20 278.071 20H263.929C262.864 20 262 19.136 262 18.0714V16.4C262.001 13.4197 264.42 11.0006 267.4 11H268.071C268.841 11.3549 270.153 11.6429 271 11.6429C271.847 11.6429 273.159 11.3549 273.929 11H274.6Z" fill="#3366FF"/>
<path d="M271 10C268.24 10 266 7.76 266 5C266 2.24 268.24 0 271 0C273.76 0 276 2.24 276 5C276 7.76 273.76 10 271 10Z" fill="#3366FF" fill-opacity="0.5"/>
<path d="M274.6 44C277.58 44.0006 279.999 46.4197 280 49.4V51.0714C280 52.136 279.136 53 278.071 53H263.929C262.864 53 262 52.136 262 51.0714V49.4C262.001 46.4197 264.42 44.0006 267.4 44H268.071C268.841 44.3549 270.153 44.6429 271 44.6429C271.847 44.6429 273.159 44.3549 273.929 44H274.6Z" fill="#3366FF"/>
<path d="M271 43C268.24 43 266 40.76 266 38C266 35.24 268.24 33 271 33C273.76 33 276 35.24 276 38C276 40.76 273.76 43 271 43Z" fill="#3366FF" fill-opacity="0.5"/>
<path d="M107.6 11C110.58 11.0006 112.999 13.4197 113 16.4V18.0714C113 19.136 112.136 20 111.071 20H96.9286C95.864 20 95 19.136 95 18.0714V16.4C95.0006 13.4197 97.4197 11.0006 100.4 11H101.071C101.841 11.3549 103.153 11.6429 104 11.6429C104.847 11.6429 106.159 11.3549 106.929 11H107.6Z" fill="#3366FF"/>
<path d="M107.6 44C110.58 44.0006 112.999 46.4197 113 49.4V51.0714C113 52.136 112.136 53 111.071 53H96.9286C95.864 53 95 52.136 95 51.0714V49.4C95.0006 46.4197 97.4197 44.0006 100.4 44H101.071C101.841 44.3549 103.153 44.6429 104 44.6429C104.847 44.6429 106.159 44.3549 106.929 44H107.6Z" fill="#FF3333"/>
<path d="M104 43C101.24 43 99 40.76 99 38C99 35.24 101.24 33 104 33C106.76 33 109 35.24 109 38C109 40.76 106.76 43 104 43Z" fill="#FF3333" fill-opacity="0.5"/>
<path d="M74.6 11C77.5803 11.0006 79.9994 13.4197 80 16.4V18.0714C80 19.136 79.136 20 78.0714 20H63.9286C62.864 20 62 19.136 62 18.0714V16.4C62.0006 13.4197 64.4197 11.0006 67.4 11H68.0711C68.8406 11.3549 70.1527 11.6429 71 11.6429C71.8473 11.6429 73.1594 11.3549 73.9289 11H74.6Z" fill="#3366FF"/>
<path d="M74.6 44C77.5803 44.0006 79.9994 46.4197 80 49.4V51.0714C80 52.136 79.136 53 78.0714 53H63.9286C62.864 53 62 52.136 62 51.0714V49.4C62.0006 46.4197 64.4197 44.0006 67.4 44H68.0711C68.8406 44.3549 70.1527 44.6429 71 44.6429C71.8473 44.6429 73.1594 44.3549 73.9289 44H74.6Z" fill="#3366FF"/>
<mask id="mask3_0_1" style="mask-type:luminance" maskUnits="userSpaceOnUse" x="334" y="0" width="39" height="52">
<path fill-rule="evenodd" clip-rule="evenodd" d="M334 0H373V52H334V0Z" fill="white"/>
</mask>
<g mask="url(#mask3_0_1)">
<path fill-rule="evenodd" clip-rule="evenodd" d="M346.967 25.9928H347C347 25.4967 347.022 24.9994 346.995 24.5046C346.938 23.4606 346.474 22.8621 345.462 22.7838C344.319 22.6958 343.159 22.6991 342.016 22.7882C341.068 22.8618 340.62 23.3108 340.548 24.2593C340.46 25.4016 340.462 26.5605 340.545 27.7034C340.614 28.6453 341.067 29.0954 342.004 29.1902C343.168 29.3077 344.35 29.3131 345.514 29.1861C346.417 29.0881 346.83 28.6491 346.952 27.7472C347.03 27.172 346.967 26.5783 346.967 25.9928M340.545 12.9575C340.531 12.9575 340.517 12.9575 340.502 12.9578C340.502 13.4536 340.483 13.9509 340.506 14.4457C340.555 15.5138 340.989 16.0901 342.008 16.1963C343.172 16.3173 344.355 16.3209 345.519 16.1909C346.421 16.0901 346.858 15.653 346.952 14.7487C347.073 13.5847 347.074 12.4031 346.952 11.2394C346.854 10.3178 346.442 9.89987 345.523 9.80129C344.337 9.674 343.137 9.69079 341.946 9.80102C341.115 9.8782 340.64 10.3939 340.557 11.2042C340.497 11.7829 340.545 12.3728 340.545 12.9575M366.487 26.0183H366.499C366.499 25.5221 366.518 25.0249 366.495 24.5298C366.446 23.4779 365.994 22.8848 364.985 22.7854C363.821 22.6706 362.638 22.6573 361.475 22.7955C360.542 22.9065 360.127 23.2997 360.055 24.2333C359.964 25.3973 359.965 26.5789 360.055 27.7432C360.126 28.6656 360.558 29.0775 361.478 29.1837C362.642 29.3183 363.824 29.3045 364.989 29.1926C365.931 29.1024 366.373 28.5952 366.476 27.6403C366.534 27.1054 366.487 26.5594 366.487 26.0183M353.536 22.7846C353.536 22.77 353.536 22.7554 353.536 22.741C353.04 22.741 352.542 22.7215 352.047 22.7448C350.949 22.7965 350.366 23.2532 350.287 24.3105C350.204 25.4311 350.204 26.5681 350.292 27.6885C350.371 28.7035 350.962 29.1886 352.006 29.2281C352.997 29.266 353.992 29.2633 354.983 29.2289C355.996 29.194 356.585 28.7303 356.694 27.7605C356.828 26.5759 356.813 25.3745 356.694 24.1859C356.612 23.3726 356.115 22.8686 355.291 22.7947C354.71 22.7427 354.121 22.7846 353.536 22.7846M363.254 16.2117V16.2429C363.728 16.2429 364.202 16.2578 364.675 16.2396C365.727 16.1993 366.333 15.751 366.448 14.7568C366.582 13.5942 366.569 12.4115 366.453 11.2475C366.361 10.3234 365.948 9.90637 365.029 9.80345C363.844 9.67048 362.639 9.66371 361.454 9.80833C360.524 9.92181 360.119 10.3215 360.047 11.2594C359.96 12.402 359.961 13.5609 360.043 14.704C360.111 15.6462 360.565 16.0706 361.499 16.1974C362.074 16.2751 362.668 16.2117 363.254 16.2117M353.511 9.78287C353.511 9.77096 353.511 9.75877 353.511 9.74685C353.015 9.74685 352.517 9.72519 352.022 9.75146C350.971 9.80752 350.429 10.2121 350.31 11.2093C350.169 12.3934 350.172 13.5983 350.311 14.7831C350.419 15.7012 350.836 16.1242 351.763 16.1955C352.906 16.2832 354.065 16.2813 355.209 16.202C356.134 16.1378 356.609 15.6641 356.703 14.743C356.821 13.579 356.826 12.3971 356.7 11.2334C356.6 10.3115 356.187 9.92506 355.266 9.7975C354.691 9.71787 354.097 9.78287 353.511 9.78287M334.002 25.9934C334.002 19.1147 334.001 12.2363 334.002 5.35759C334.003 2.05516 336.059 0.000948892 339.365 0.000678067C348.796 -0.000405232 358.226 -0.000405232 367.657 0.000948892C370.925 0.00121972 372.999 2.06084 372.999 5.30939C373 19.0892 373 32.8691 372.999 46.6486C372.999 49.9126 370.938 51.9747 367.678 51.9768C364.79 51.979 361.902 51.9657 359.014 51.9882C358.517 51.992 358.358 51.8696 358.364 51.3526C358.39 48.9171 358.387 46.481 358.372 44.0455C358.357 41.4301 356.765 39.5568 354.192 39.0918C351.691 38.6395 349.122 40.4801 348.758 42.9939C348.475 44.9454 348.683 46.9097 348.63 48.8675C348.606 49.7463 348.615 50.6265 348.631 51.5059C348.637 51.8474 348.535 51.9844 348.172 51.9831C345.036 51.9706 341.898 52.0473 338.764 51.95C335.938 51.8623 334.008 49.709 334.004 46.832C333.996 39.8859 334.002 32.9395 334.002 25.9934" fill="#3366FF"/>
</g>
<path fill-rule="evenodd" clip-rule="evenodd" d="M339.163 11.4631C339.546 7.64438 341.732 5.21221 345.559 4.84834C351.038 4.32871 356.561 4.24956 362.019 4.84962C366.249 5.31435 368.148 7.28434 368.596 11.6303C369.16 17.1164 369.152 22.6855 368.596 28.1729C368.163 32.4372 366.154 34.4966 362.001 34.9715C356.644 35.5843 351.199 35.569 345.844 34.997C341.154 34.4966 339.155 31.7797 338.929 26.7455C338.823 24.4117 338.911 22.0689 338.911 19.7299C338.978 19.7286 339.043 19.7286 339.109 19.7286C339.109 16.9722 338.89 14.1915 339.163 11.4631Z" fill="#3366FF" fill-opacity="0.5"/>
<path d="M307.6 11C310.58 11.0006 312.999 13.4197 313 16.4V18.0714C313 19.136 312.136 20 311.071 20H296.929C295.864 20 295 19.136 295 18.0714V16.4C295.001 13.4197 297.42 11.0006 300.4 11H301.071C301.841 11.3549 303.153 11.6429 304 11.6429C304.847 11.6429 306.159 11.3549 306.929 11H307.6Z" fill="#3366FF"/>
<path d="M307.6 44C310.58 44.0006 312.999 46.4197 313 49.4V51.0714C313 52.136 312.136 53 311.071 53H296.929C295.864 53 295 52.136 295 51.0714V49.4C295.001 46.4197 297.42 44.0006 300.4 44H301.071C301.841 44.3549 303.153 44.6429 304 44.6429C304.847 44.6429 306.159 44.3549 306.929 44H307.6Z" fill="#3366FF"/>
<path d="M274.6 11C277.58 11.0006 279.999 13.4197 280 16.4V18.0714C280 19.136 279.136 20 278.071 20H263.929C262.864 20 262 19.136 262 18.0714V16.4C262.001 13.4197 264.42 11.0006 267.4 11H268.071C268.841 11.3549 270.153 11.6429 271 11.6429C271.847 11.6429 273.159 11.3549 273.929 11H274.6Z" fill="#3366FF"/>
<path d="M274.6 44C277.58 44.0006 279.999 46.4197 280 49.4V51.0714C280 52.136 279.136 53 278.071 53H263.929C262.864 53 262 52.136 262 51.0714V49.4C262.001 46.4197 264.42 44.0006 267.4 44H268.071C268.841 44.3549 270.153 44.6429 271 44.6429C271.847 44.6429 273.159 44.3549 273.929 44H274.6Z" fill="#FF3333"/>
<path d="M271 43C268.24 43 266 40.76 266 38C266 35.24 268.24 33 271 33C273.76 33 276 35.24 276 38C276 40.76 273.76 43 271 43Z" fill="#FF3333" fill-opacity="0.5"/>
<mask id="mask4_0_1" style="mask-type:luminance" maskUnits="userSpaceOnUse" x="2" y="427" width="39" height="52">
<path fill-rule="evenodd" clip-rule="evenodd" d="M2 427H41V479H2V427Z" fill="white"/>
</mask>
<g mask="url(#mask4_0_1)">
<path fill-rule="evenodd" clip-rule="evenodd" d="M14.9665 452.993H15.0001C15.0001 452.497 15.0224 451.999 14.9953 451.505C14.9384 450.46 14.4739 449.862 13.4616 449.784C12.319 449.696 11.159 449.699 10.0163 449.788C9.0682 449.862 8.62029 450.311 8.54768 451.259C8.45988 452.401 8.46178 453.56 8.54497 454.703C8.61379 455.645 9.06711 456.095 10.0041 456.19C11.1682 456.308 12.3504 456.313 13.5144 456.186C14.4173 456.088 14.8302 455.649 14.9522 454.747C15.0297 454.172 14.9665 453.578 14.9665 452.993M8.54497 439.957C8.53088 439.957 8.51651 439.957 8.50215 439.958C8.50215 440.454 8.48319 440.951 8.50595 441.446C8.55499 442.514 8.98935 443.09 10.0084 443.196C11.1717 443.317 12.3547 443.321 13.5188 443.191C14.4211 443.09 14.8576 442.653 14.9516 441.749C15.0728 440.585 15.0741 439.403 14.9516 438.239C14.8544 437.318 14.4417 436.9 13.5226 436.801C12.3368 436.674 11.1367 436.691 9.94639 436.801C9.1148 436.878 8.6398 437.394 8.55662 438.204C8.49728 438.783 8.54497 439.373 8.54497 439.957M34.4868 453.018H34.4992C34.4992 452.522 34.5185 452.025 34.4952 451.53C34.4461 450.478 33.9936 449.885 32.9851 449.785C31.8213 449.67 30.638 449.657 29.4748 449.795C28.5416 449.906 28.127 450.3 28.0549 451.233C27.9644 452.397 27.9652 453.579 28.0552 454.743C28.1262 455.665 28.5575 456.077 29.478 456.184C30.6418 456.318 31.8243 456.304 32.9892 456.192C33.931 456.102 34.3727 455.595 34.4762 454.64C34.5342 454.105 34.4868 453.559 34.4868 453.018M21.5361 449.785C21.5361 449.77 21.5361 449.755 21.5358 449.741C21.0396 449.741 20.5422 449.721 20.0471 449.745C18.9486 449.796 18.366 450.253 18.2875 451.31C18.2043 452.431 18.2043 453.568 18.2918 454.688C18.3712 455.703 18.9622 456.188 20.0057 456.228C20.9968 456.266 21.9918 456.263 22.9833 456.229C23.9959 456.194 24.5847 455.73 24.6939 454.76C24.8277 453.576 24.8126 452.374 24.6936 451.186C24.6123 450.372 24.1154 449.868 23.2905 449.795C22.7099 449.743 22.1211 449.785 21.5361 449.785M31.2539 443.212V443.243C31.7278 443.243 32.202 443.258 32.6751 443.239C33.7273 443.199 34.3326 442.751 34.4478 441.757C34.5822 440.594 34.5694 439.411 34.4529 438.247C34.3605 437.323 33.9484 436.906 33.0293 436.803C31.8441 436.67 30.6391 436.664 29.4544 436.808C28.5239 436.922 28.1194 437.321 28.0473 438.259C27.9601 439.402 27.9609 440.561 28.0433 441.704C28.1107 442.646 28.5649 443.07 29.4986 443.197C30.0739 443.275 30.6681 443.212 31.2539 443.212M21.5111 436.783C21.5111 436.771 21.5111 436.759 21.5111 436.747C21.0147 436.747 20.5172 436.725 20.0222 436.751C18.9708 436.807 18.4295 437.212 18.3102 438.209C18.1685 439.393 18.1718 440.598 18.311 441.783C18.4189 442.701 18.8359 443.124 19.7626 443.195C20.9055 443.283 22.0647 443.281 23.2087 443.202C24.1343 443.138 24.6085 442.664 24.7025 441.743C24.821 440.579 24.8261 439.397 24.6996 438.233C24.5996 437.311 24.1874 436.925 23.2656 436.797C22.6912 436.718 22.0967 436.783 21.5111 436.783M2.00173 452.993C2.00173 446.115 2.00092 439.236 2.002 432.357C2.00254 429.055 4.05862 427.001 7.36465 427.001C16.7955 426.999 26.2262 426.999 35.6568 427.001C38.9252 427.001 40.9986 429.061 40.9988 432.309C41.0005 446.089 41.0002 459.869 40.9991 473.649C40.9988 476.912 38.9382 478.975 35.6779 478.977C32.79 478.979 29.9021 478.966 27.0144 478.988C26.5175 478.992 26.3576 478.869 26.3635 478.352C26.3904 475.917 26.3866 473.481 26.3725 471.045C26.357 468.43 24.7649 466.557 22.1918 466.092C19.6913 465.639 17.1223 467.48 16.7576 469.994C16.4747 471.945 16.6834 473.91 16.63 475.867C16.6059 476.746 16.6148 477.626 16.6311 478.506C16.6373 478.847 16.5351 478.984 16.1718 478.983C13.0359 478.97 9.89762 479.047 6.76446 478.95C3.9375 478.862 2.00769 476.709 2.00444 473.832C1.99631 466.886 2.00173 459.939 2.00173 452.993" fill="#3366FF"/>
</g>
<path fill-rule="evenodd" clip-rule="evenodd" d="M7.1627 438.463C7.54556 434.644 9.73176 432.212 13.5592 431.848C19.0377 431.329 24.5612 431.249 30.0186 431.849C34.2488 432.314 36.1482 434.284 36.5959 438.63C37.1596 444.116 37.1521 449.685 36.5959 455.173C36.1632 459.437 34.154 461.496 30.0011 461.971C24.6435 462.584 19.1986 462.569 13.8435 461.997C9.15435 461.496 7.15522 458.78 6.92949 453.745C6.82348 451.412 6.91078 449.069 6.91078 446.73C6.97813 446.729 7.04298 446.729 7.10907 446.729C7.10907 443.972 6.88958 441.191 7.1627 438.463Z" fill="#3366FF" fill-opacity="0.5"/>
<path d="M107.6 438C110.58 438.001 112.999 440.42 113 443.4V445.071C113 446.136 112.136 447 111.071 447H96.9286C95.864 447 95 446.136 95 445.071V443.4C95.0006 440.42 97.4197 438.001 100.4 438H101.071C101.841 438.355 103.153 438.643 104 438.643C104.847 438.643 106.159 438.355 106.929 438H107.6Z" fill="#FF3333"/>
<path d="M104 437C101.24 437 99 434.76 99 432C99 429.24 101.24 427 104 427C106.76 427 109 429.24 109 432C109 434.76 106.76 437 104 437Z" fill="#FF3333" fill-opacity="0.5"/>
<path d="M107.6 471C110.58 471.001 112.999 473.42 113 476.4V478.071C113 479.136 112.136 480 111.071 480H96.9286C95.864 480 95 479.136 95 478.071V476.4C95.0006 473.42 97.4197 471.001 100.4 471H101.071C101.841 471.355 103.153 471.643 104 471.643C104.847 471.643 106.159 471.355 106.929 471H107.6Z" fill="#3366FF"/>
<path d="M104 470C101.24 470 99 467.76 99 465C99 462.24 101.24 460 104 460C106.76 460 109 462.24 109 465C109 467.76 106.76 470 104 470Z" fill="#3366FF" fill-opacity="0.5"/>
<path d="M74.6 438C77.5803 438.001 79.9994 440.42 80 443.4V445.071C80 446.136 79.136 447 78.0714 447H63.9286C62.864 447 62 446.136 62 445.071V443.4C62.0006 440.42 64.4197 438.001 67.4 438H68.0711C68.8406 438.355 70.1527 438.643 71 438.643C71.8473 438.643 73.1594 438.355 73.9289 438H74.6Z" fill="#3366FF"/>
<path d="M71 437C68.24 437 66 434.76 66 432C66 429.24 68.24 427 71 427C73.76 427 76 429.24 76 432C76 434.76 73.76 437 71 437Z" fill="#3366FF" fill-opacity="0.5"/>
<path d="M74.6 471C77.5803 471.001 79.9994 473.42 80 476.4V478.071C80 479.136 79.136 480 78.0714 480H63.9286C62.864 480 62 479.136 62 478.071V476.4C62.0006 473.42 64.4197 471.001 67.4 471H68.0711C68.8406 471.355 70.1527 471.643 71 471.643C71.8473 471.643 73.1594 471.355 73.9289 471H74.6Z" fill="#3366FF"/>
<path d="M71 470C68.24 470 66 467.76 66 465C66 462.24 68.24 460 71 460C73.76 460 76 462.24 76 465C76 467.76 73.76 470 71 470Z" fill="#3366FF" fill-opacity="0.5"/>
<mask id="mask5_0_1" style="mask-type:luminance" maskUnits="userSpaceOnUse" x="334" y="427" width="39" height="52">
<path fill-rule="evenodd" clip-rule="evenodd" d="M334 427H373V479H334V427Z" fill="white"/>
</mask>
<g mask="url(#mask5_0_1)">
<path fill-rule="evenodd" clip-rule="evenodd" d="M346.967 452.993H347C347 452.497 347.022 451.999 346.995 451.505C346.938 450.46 346.474 449.862 345.462 449.784C344.319 449.696 343.159 449.699 342.016 449.788C341.068 449.862 340.62 450.311 340.548 451.259C340.46 452.401 340.462 453.56 340.545 454.703C340.614 455.645 341.067 456.095 342.004 456.19C343.168 456.308 344.35 456.313 345.514 456.186C346.417 456.088 346.83 455.649 346.952 454.747C347.03 454.172 346.967 453.578 346.967 452.993M340.545 439.957C340.531 439.957 340.517 439.957 340.502 439.958C340.502 440.454 340.483 440.951 340.506 441.446C340.555 442.514 340.989 443.09 342.008 443.196C343.172 443.317 344.355 443.321 345.519 443.191C346.421 443.09 346.858 442.653 346.952 441.749C347.073 440.585 347.074 439.403 346.952 438.239C346.854 437.318 346.442 436.9 345.523 436.801C344.337 436.674 343.137 436.691 341.946 436.801C341.115 436.878 340.64 437.394 340.557 438.204C340.497 438.783 340.545 439.373 340.545 439.957M366.487 453.018H366.499C366.499 452.522 366.518 452.025 366.495 451.53C366.446 450.478 365.994 449.885 364.985 449.785C363.821 449.67 362.638 449.657 361.475 449.795C360.542 449.906 360.127 450.3 360.055 451.233C359.964 452.397 359.965 453.579 360.055 454.743C360.126 455.665 360.558 456.077 361.478 456.184C362.642 456.318 363.824 456.304 364.989 456.192C365.931 456.102 366.373 455.595 366.476 454.64C366.534 454.105 366.487 453.559 366.487 453.018M353.536 449.785C353.536 449.77 353.536 449.755 353.536 449.741C353.04 449.741 352.542 449.721 352.047 449.745C350.949 449.796 350.366 450.253 350.287 451.31C350.204 452.431 350.204 453.568 350.292 454.688C350.371 455.703 350.962 456.188 352.006 456.228C352.997 456.266 353.992 456.263 354.983 456.229C355.996 456.194 356.585 455.73 356.694 454.76C356.828 453.576 356.813 452.374 356.694 451.186C356.612 450.372 356.115 449.868 355.291 449.795C354.71 449.743 354.121 449.785 353.536 449.785M363.254 443.212V443.243C363.728 443.243 364.202 443.258 364.675 443.239C365.727 443.199 366.333 442.751 366.448 441.757C366.582 440.594 366.569 439.411 366.453 438.247C366.361 437.323 365.948 436.906 365.029 436.803C363.844 436.67 362.639 436.664 361.454 436.808C360.524 436.922 360.119 437.321 360.047 438.259C359.96 439.402 359.961 440.561 360.043 441.704C360.111 442.646 360.565 443.07 361.499 443.197C362.074 443.275 362.668 443.212 363.254 443.212M353.511 436.783C353.511 436.771 353.511 436.759 353.511 436.747C353.015 436.747 352.517 436.725 352.022 436.751C350.971 436.807 350.429 437.212 350.31 438.209C350.169 439.393 350.172 440.598 350.311 441.783C350.419 442.701 350.836 443.124 351.763 443.195C352.906 443.283 354.065 443.281 355.209 443.202C356.134 443.138 356.609 442.664 356.703 441.743C356.821 440.579 356.826 439.397 356.7 438.233C356.6 437.311 356.187 436.925 355.266 436.797C354.691 436.718 354.097 436.783 353.511 436.783M334.002 452.993C334.002 446.115 334.001 439.236 334.002 432.357C334.003 429.055 336.059 427.001 339.365 427.001C348.796 426.999 358.226 426.999 367.657 427.001C370.925 427.001 372.999 429.061 372.999 432.309C373 446.089 373 459.869 372.999 473.649C372.999 476.912 370.938 478.975 367.678 478.977C364.79 478.979 361.902 478.966 359.014 478.988C358.517 478.992 358.358 478.869 358.364 478.352C358.39 475.917 358.387 473.481 358.372 471.045C358.357 468.43 356.765 466.557 354.192 466.092C351.691 465.639 349.122 467.48 348.758 469.994C348.475 471.945 348.683 473.91 348.63 475.867C348.606 476.746 348.615 477.626 348.631 478.506C348.637 478.847 348.535 478.984 348.172 478.983C345.036 478.97 341.898 479.047 338.764 478.95C335.938 478.862 334.008 476.709 334.004 473.832C333.996 466.886 334.002 459.939 334.002 452.993" fill="#3366FF"/>
</g>
<path fill-rule="evenodd" clip-rule="evenodd" d="M339.163 438.463C339.546 434.644 341.732 432.212 345.559 431.848C351.038 431.329 356.561 431.249 362.019 431.849C366.249 432.314 368.148 434.284 368.596 438.63C369.16 444.116 369.152 449.685 368.596 455.173C368.163 459.437 366.154 461.496 362.001 461.971C356.644 462.584 351.199 462.569 345.844 461.997C341.154 461.496 339.155 458.78 338.929 453.745C338.823 451.412 338.911 449.069 338.911 446.73C338.978 446.729 339.043 446.729 339.109 446.729C339.109 443.972 338.89 441.191 339.163 438.463Z" fill="#3366FF" fill-opacity="0.5"/>
<path d="M307.6 438C310.58 438.001 312.999 440.42 313 443.4V445.071C313 446.136 312.136 447 311.071 447H296.929C295.864 447 295 446.136 295 445.071V443.4C295.001 440.42 297.42 438.001 300.4 438H301.071C301.841 438.355 303.153 438.643 304 438.643C304.847 438.643 306.159 438.355 306.929 438H307.6Z" fill="#3366FF"/>
<path d="M304 437C301.24 437 299 434.76 299 432C299 429.24 301.24 427 304 427C306.76 427 309 429.24 309 432C309 434.76 306.76 437 304 437Z" fill="#3366FF" fill-opacity="0.5"/>
<path d="M307.6 471C310.58 471.001 312.999 473.42 313 476.4V478.071C313 479.136 312.136 480 311.071 480H296.929C295.864 480 295 479.136 295 478.071V476.4C295.001 473.42 297.42 471.001 300.4 471H301.071C301.841 471.355 303.153 471.643 304 471.643C304.847 471.643 306.159 471.355 306.929 471H307.6Z" fill="#3366FF"/>
<path d="M304 470C301.24 470 299 467.76 299 465C299 462.24 301.24 460 304 460C306.76 460 309 462.24 309 465C309 467.76 306.76 470 304 470Z" fill="#3366FF" fill-opacity="0.5"/>
<path d="M274.6 438C277.58 438.001 279.999 440.42 280 443.4V445.071C280 446.136 279.136 447 278.071 447H263.929C262.864 447 262 446.136 262 445.071V443.4C262.001 440.42 264.42 438.001 267.4 438H268.071C268.841 438.355 270.153 438.643 271 438.643C271.847 438.643 273.159 438.355 273.929 438H274.6Z" fill="#FF3333"/>
<path d="M271 437C268.24 437 266 434.76 266 432C266 429.24 268.24 427 271 427C273.76 427 276 429.24 276 432C276 434.76 273.76 437 271 437Z" fill="#FF3333" fill-opacity="0.5"/>
<path d="M274.6 471C277.58 471.001 279.999 473.42 280 476.4V478.071C280 479.136 279.136 480 278.071 480H263.929C262.864 480 262 479.136 262 478.071V476.4C262.001 473.42 264.42 471.001 267.4 471H268.071C268.841 471.355 270.153 471.643 271 471.643C271.847 471.643 273.159 471.355 273.929 471H274.6Z" fill="#3366FF"/>
<path d="M271 470C268.24 470 266 467.76 266 465C266 462.24 268.24 460 271 460C273.76 460 276 462.24 276 465C276 467.76 273.76 470 271 470Z" fill="#3366FF" fill-opacity="0.5"/>
<path d="M107.6 218C110.58 218.001 112.999 220.42 113 223.4V225.071C113 226.136 112.136 227 111.071 227H96.9286C95.864 227 95 226.136 95 225.071V223.4C95.0006 220.42 97.4197 218.001 100.4 218H101.071C101.841 218.355 103.153 218.643 104 218.643C104.847 218.643 106.159 218.355 106.929 218H107.6Z" fill="#3366FF"/>
<path d="M104 217C101.24 217 99 214.76 99 212C99 209.24 101.24 207 104 207C106.76 207 109 209.24 109 212C109 214.76 106.76 217 104 217Z" fill="#3366FF" fill-opacity="0.5"/>
<path d="M74.6 185C77.5803 185.001 79.9994 187.42 80 190.4V192.071C80 193.136 79.136 194 78.0714 194H63.9286C62.864 194 62 193.136 62 192.071V190.4C62.0006 187.42 64.4197 185.001 67.4 185H68.0711C68.8406 185.355 70.1527 185.643 71 185.643C71.8473 185.643 73.1594 185.355 73.9289 185H74.6Z" fill="#3366FF"/>
<path d="M71 184C68.24 184 66 181.76 66 179C66 176.24 68.24 174 71 174C73.76 174 76 176.24 76 179C76 181.76 73.76 184 71 184Z" fill="#3366FF" fill-opacity="0.5"/>
<path d="M74.6 218C77.5803 218.001 79.9994 220.42 80 223.4V225.071C80 226.136 79.136 227 78.0714 227H63.9286C62.864 227 62 226.136 62 225.071V223.4C62.0006 220.42 64.4197 218.001 67.4 218H68.0711C68.8406 218.355 70.1527 218.643 71 218.643C71.8473 218.643 73.1594 218.355 73.9289 218H74.6Z" fill="#3366FF"/>
<path d="M71 217C68.24 217 66 214.76 66 212C66 209.24 68.24 207 71 207C73.76 207 76 209.24 76 212C76 214.76 73.76 217 71 217Z" fill="#3366FF" fill-opacity="0.5"/>
<path d="M307.6 185C310.58 185.001 312.999 187.42 313 190.4V192.071C313 193.136 312.136 194 311.071 194H296.929C295.864 194 295 193.136 295 192.071V190.4C295.001 187.42 297.42 185.001 300.4 185H301.071C301.841 185.355 303.153 185.643 304 185.643C304.847 185.643 306.159 185.355 306.929 185H307.6Z" fill="#3366FF"/>
<path d="M304 184C301.24 184 299 181.76 299 179C299 176.24 301.24 174 304 174C306.76 174 309 176.24 309 179C309 181.76 306.76 184 304 184Z" fill="#3366FF" fill-opacity="0.5"/>
<path d="M307.6 218C310.58 218.001 312.999 220.42 313 223.4V225.071C313 226.136 312.136 227 311.071 227H296.929C295.864 227 295 226.136 295 225.071V223.4C295.001 220.42 297.42 218.001 300.4 218H301.071C301.841 218.355 303.153 218.643 304 218.643C304.847 218.643 306.159 218.355 306.929 218H307.6Z" fill="#3366FF"/>
<path d="M304 217C301.24 217 299 214.76 299 212C299 209.24 301.24 207 304 207C306.76 207 309 209.24 309 212C309 214.76 306.76 217 304 217Z" fill="#3366FF" fill-opacity="0.5"/>
<path d="M274.6 218C277.58 218.001 279.999 220.42 280 223.4V225.071C280 226.136 279.136 227 278.071 227H263.929C262.864 227 262 226.136 262 225.071V223.4C262.001 220.42 264.42 218.001 267.4 218H268.071C268.841 218.355 270.153 218.643 271 218.643C271.847 218.643 273.159 218.355 273.929 218H274.6Z" fill="#3366FF"/>
<path d="M271 217C268.24 217 266 214.76 266 212C266 209.24 268.24 207 271 207C273.76 207 276 209.24 276 212C276 214.76 273.76 217 271 217Z" fill="#3366FF" fill-opacity="0.5"/>
<path d="M74.6 185C77.5803 185.001 79.9994 187.42 80 190.4V192.071C80 193.136 79.136 194 78.0714 194H63.9286C62.864 194 62 193.136 62 192.071V190.4C62.0006 187.42 64.4197 185.001 67.4 185H68.0711C68.8406 185.355 70.1527 185.643 71 185.643C71.8473 185.643 73.1594 185.355 73.9289 185H74.6Z" fill="#3366FF"/>
<path d="M71 184C68.24 184 66 181.76 66 179C66 176.24 68.24 174 71 174C73.76 174 76 176.24 76 179C76 181.76 73.76 184 71 184Z" fill="#3366FF" fill-opacity="0.5"/>
<path d="M74.6 218C77.5803 218.001 79.9994 220.42 80 223.4V225.071C80 226.136 79.136 227 78.0714 227H63.9286C62.864 227 62 226.136 62 225.071V223.4C62.0006 220.42 64.4197 218.001 67.4 218H68.0711C68.8406 218.355 70.1527 218.643 71 218.643C71.8473 218.643 73.1594 218.355 73.9289 218H74.6Z" fill="#3366FF"/>
<path d="M307.6 185C310.58 185.001 312.999 187.42 313 190.4V192.071C313 193.136 312.136 194 311.071 194H296.929C295.864 194 295 193.136 295 192.071V190.4C295.001 187.42 297.42 185.001 300.4 185H301.071C301.841 185.355 303.153 185.643 304 185.643C304.847 185.643 306.159 185.355 306.929 185H307.6Z" fill="#3366FF"/>
<path d="M307.6 218C310.58 218.001 312.999 220.42 313 223.4V225.071C313 226.136 312.136 227 311.071 227H296.929C295.864 227 295 226.136 295 225.071V223.4C295.001 220.42 297.42 218.001 300.4 218H301.071C301.841 218.355 303.153 218.643 304 218.643C304.847 218.643 306.159 218.355 306.929 218H307.6Z" fill="#3366FF"/>
<path d="M107.6 251C110.58 251.001 112.999 253.42 113 256.4V258.071C113 259.136 112.136 260 111.071 260H96.9286C95.864 260 95 259.136 95 258.071V256.4C95.0006 253.42 97.4197 251.001 100.4 251H101.071C101.841 251.355 103.153 251.643 104 251.643C104.847 251.643 106.159 251.355 106.929 251H107.6Z" fill="#3366FF"/>
<path d="M104 250C101.24 250 99 247.76 99 245C99 242.24 101.24 240 104 240C106.76 240 109 242.24 109 245C109 247.76 106.76 250 104 250Z" fill="#3366FF" fill-opacity="0.5"/>
<path d="M107.6 218C110.58 218.001 112.999 220.42 113 223.4V225.071C113 226.136 112.136 227 111.071 227H96.9286C95.864 227 95 226.136 95 225.071V223.4C95.0006 220.42 97.4197 218.001 100.4 218H101.071C101.841 218.355 103.153 218.643 104 218.643C104.847 218.643 106.159 218.355 106.929 218H107.6Z" fill="#3366FF"/>
<path d="M74.6 251C77.5803 251.001 79.9994 253.42 80 256.4V258.071C80 259.136 79.136 260 78.0714 260H63.9286C62.864 260 62 259.136 62 258.071V256.4C62.0006 253.42 64.4197 251.001 67.4 251H68.0711C68.8406 251.355 70.1527 251.643 71 251.643C71.8473 251.643 73.1594 251.355 73.9289 251H74.6Z" fill="#3366FF"/>
<path d="M71 250C68.24 250 66 247.76 66 245C66 242.24 68.24 240 71 240C73.76 240 76 242.24 76 245C76 247.76 73.76 250 71 250Z" fill="#3366FF" fill-opacity="0.5"/>
<path d="M74.6 284C77.5803 284.001 79.9994 286.42 80 289.4V291.071C80 292.136 79.136 293 78.0714 293H63.9286C62.864 293 62 292.136 62 291.071V289.4C62.0006 286.42 64.4197 284.001 67.4 284H68.0711C68.8406 284.355 70.1527 284.643 71 284.643C71.8473 284.643 73.1594 284.355 73.9289 284H74.6Z" fill="#3366FF"/>
<path d="M71 283C68.24 283 66 280.76 66 278C66 275.24 68.24 273 71 273C73.76 273 76 275.24 76 278C76 280.76 73.76 283 71 283Z" fill="#3366FF" fill-opacity="0.5"/>
<path d="M307.6 251C310.58 251.001 312.999 253.42 313 256.4V258.071C313 259.136 312.136 260 311.071 260H296.929C295.864 260 295 259.136 295 258.071V256.4C295.001 253.42 297.42 251.001 300.4 251H301.071C301.841 251.355 303.153 251.643 304 251.643C304.847 251.643 306.159 251.355 306.929 251H307.6Z" fill="#3366FF"/>
<path d="M304 250C301.24 250 299 247.76 299 245C299 242.24 301.24 240 304 240C306.76 240 309 242.24 309 245C309 247.76 306.76 250 304 250Z" fill="#3366FF" fill-opacity="0.5"/>
<path d="M307.6 284C310.58 284.001 312.999 286.42 313 289.4V291.071C313 292.136 312.136 293 311.071 293H296.929C295.864 293 295 292.136 295 291.071V289.4C295.001 286.42 297.42 284.001 300.4 284H301.071C301.841 284.355 303.153 284.643 304 284.643C304.847 284.643 306.159 284.355 306.929 284H307.6Z" fill="#3366FF"/>
<path d="M304 283C301.24 283 299 280.76 299 278C299 275.24 301.24 273 304 273C306.76 273 309 275.24 309 278C309 280.76 306.76 283 304 283Z" fill="#3366FF" fill-opacity="0.5"/>
<path d="M274.6 251C277.58 251.001 279.999 253.42 280 256.4V258.071C280 259.136 279.136 260 278.071 260H263.929C262.864 260 262 259.136 262 258.071V256.4C262.001 253.42 264.42 251.001 267.4 251H268.071C268.841 251.355 270.153 251.643 271 251.643C271.847 251.643 273.159 251.355 273.929 251H274.6Z" fill="#3366FF"/>
<path d="M271 250C268.24 250 266 247.76 266 245C266 242.24 268.24 240 271 240C273.76 240 276 242.24 276 245C276 247.76 273.76 250 271 250Z" fill="#3366FF" fill-opacity="0.5"/>
<path d="M107.6 251C110.58 251.001 112.999 253.42 113 256.4V258.071C113 259.136 112.136 260 111.071 260H96.9286C95.864 260 95 259.136 95 258.071V256.4C95.0006 253.42 97.4197 251.001 100.4 251H101.071C101.841 251.355 103.153 251.643 104 251.643C104.847 251.643 106.159 251.355 106.929 251H107.6Z" fill="#3366FF"/>
<path d="M74.6 251C77.5803 251.001 79.9994 253.42 80 256.4V258.071C80 259.136 79.136 260 78.0714 260H63.9286C62.864 260 62 259.136 62 258.071V256.4C62.0006 253.42 64.4197 251.001 67.4 251H68.0711C68.8406 251.355 70.1527 251.643 71 251.643C71.8473 251.643 73.1594 251.355 73.9289 251H74.6Z" fill="#3366FF"/>
<path d="M74.6 284C77.5803 284.001 79.9994 286.42 80 289.4V291.071C80 292.136 79.136 293 78.0714 293H63.9286C62.864 293 62 292.136 62 291.071V289.4C62.0006 286.42 64.4197 284.001 67.4 284H68.0711C68.8406 284.355 70.1527 284.643 71 284.643C71.8473 284.643 73.1594 284.355 73.9289 284H74.6Z" fill="#3366FF"/>
<path d="M307.6 251C310.58 251.001 312.999 253.42 313 256.4V258.071C313 259.136 312.136 260 311.071 260H296.929C295.864 260 295 259.136 295 258.071V256.4C295.001 253.42 297.42 251.001 300.4 251H301.071C301.841 251.355 303.153 251.643 304 251.643C304.847 251.643 306.159 251.355 306.929 251H307.6Z" fill="#3366FF"/>
<path d="M307.6 284C310.58 284.001 312.999 286.42 313 289.4V291.071C313 292.136 312.136 293 311.071 293H296.929C295.864 293 295 292.136 295 291.071V289.4C295.001 286.42 297.42 284.001 300.4 284H301.071C301.841 284.355 303.153 284.643 304 284.643C304.847 284.643 306.159 284.355 306.929 284H307.6Z" fill="#3366FF"/>
<path d="M274.6 251C277.58 251.001 279.999 253.42 280 256.4V258.071C280 259.136 279.136 260 278.071 260H263.929C262.864 260 262 259.136 262 258.071V256.4C262.001 253.42 264.42 251.001 267.4 251H268.071C268.841 251.355 270.153 251.643 271 251.643C271.847 251.643 273.159 251.355 273.929 251H274.6Z" fill="#3366FF"/>
<path d="M143.6 231C146.58 231.001 148.999 233.42 149 236.4V238.071C149 239.136 148.136 240 147.071 240H132.929C131.864 240 131 239.136 131 238.071V236.4C131.001 233.42 133.42 231.001 136.4 231H137.071C137.841 231.355 139.153 231.643 140 231.643C140.847 231.643 142.159 231.355 142.929 231H143.6Z" fill="#FF3333"/>
<path d="M140 230C137.24 230 135 227.76 135 225C135 222.24 137.24 220 140 220C142.76 220 145 222.24 145 225C145 227.76 142.76 230 140 230Z" fill="#FF3333" fill-opacity="0.5"/>
<path d="M176.6 231C179.58 231.001 181.999 233.42 182 236.4V238.071C182 239.136 181.136 240 180.071 240H165.929C164.864 240 164 239.136 164 238.071V236.4C164.001 233.42 166.42 231.001 169.4 231H170.071C170.841 231.355 172.153 231.643 173 231.643C173.847 231.643 175.159 231.355 175.929 231H176.6Z" fill="#FF3333"/>
<path d="M173 230C170.24 230 168 227.76 168 225C168 222.24 170.24 220 173 220C175.76 220 178 222.24 178 225C178 227.76 175.76 230 173 230Z" fill="#FF3333" fill-opacity="0.5"/>
<path d="M209.6 231C212.58 231.001 214.999 233.42 215 236.4V238.071C215 239.136 214.136 240 213.071 240H198.929C197.864 240 197 239.136 197 238.071V236.4C197.001 233.42 199.42 231.001 202.4 231H203.071C203.841 231.355 205.153 231.643 206 231.643C206.847 231.643 208.159 231.355 208.929 231H209.6Z" fill="#FF3333"/>
<path d="M206 230C203.24 230 201 227.76 201 225C201 222.24 203.24 220 206 220C208.76 220 211 222.24 211 225C211 227.76 208.76 230 206 230Z" fill="#FF3333" fill-opacity="0.5"/>
<path d="M242.6 231C245.58 231.001 247.999 233.42 248 236.4V238.071C248 239.136 247.136 240 246.071 240H231.929C230.864 240 230 239.136 230 238.071V236.4C230.001 233.42 232.42 231.001 235.4 231H236.071C236.841 231.355 238.153 231.643 239 231.643C239.847 231.643 241.159 231.355 241.929 231H242.6Z" fill="#FF3333"/>
<path d="M239 230C236.24 230 234 227.76 234 225C234 222.24 236.24 220 239 220C241.76 220 244 222.24 244 225C244 227.76 241.76 230 239 230Z" fill="#FF3333" fill-opacity="0.5"/>
<defs>
<filter id="filter0_d_0_1" x="42" y="160" width="295" height="149" filterUnits="userSpaceOnUse" color-interpolation-filters="sRGB">
<feFlood flood-opacity="0" result="BackgroundImageFix"/>
<feColorMatrix in="SourceAlpha" type="matrix" values="0 0 0 0 0 0 0 0 0 0 0 0 0 0 0 0 0 0 127 0" result="hardAlpha"/>
<feOffset dy="4"/>
<feGaussianBlur stdDeviation="2"/>
<feComposite in2="hardAlpha" operator="out"/>
<feColorMatrix type="matrix" values="0 0 0 0 0 0 0 0 0 0 0 0 0 0 0 0 0 0 0.15 0"/>
<feBlend mode="normal" in2="BackgroundImageFix" result="effect1_dropShadow_0_1"/>
<feBlend mode="normal" in="SourceGraphic" in2="effect1_dropShadow_0_1" result="shape"/>
</filter>
</defs>
</svg>
