<?xml version="1.0" encoding="UTF-8"?>
<svg width="163px" height="162px" viewBox="0 0 163 162" version="1.1" xmlns="http://www.w3.org/2000/svg" xmlns:xlink="http://www.w3.org/1999/xlink">
    <!-- Generator: Sketch 52.6 (67491) - http://www.bohemiancoding.com/sketch -->
    <title>book-imac</title>
    <desc>Created with Sketch.</desc>
    <g id="Page-1" stroke="none" stroke-width="1" fill="none" fill-rule="evenodd">
        <g id="book-imac">
            <g id="Background" fill="#F0F2FF">
                <g id="New_Symbol_50">
                    <circle id="Oval" cx="81.34" cy="81" r="81"></circle>
                </g>
            </g>
            <g id="Scene" transform="translate(11.000000, 15.000000)">
                <path d="M95.08,91.26 C95.2997276,90.3355457 94.7327195,89.4069025 93.81,89.18 L63.62,81.93 C62.692225,81.7039728 61.7567711,82.2724065 61.53,83.2 L60.53,87.2 L48.77,87.2 C48.3120897,87.1999923 47.8730787,87.3825781 47.5502271,87.7073067 C47.2273755,88.0320353 47.0473377,88.4720975 47.05,88.93 L47.05,128.6 C47.0499841,129.551561 47.8184549,130.3245 48.77,130.33 L79.82,130.33 C79.9184091,130.319615 80.0155491,130.299517 80.11,130.27 L83.73,131.14 C84.6544543,131.359728 85.5830975,130.792719 85.81,129.87 L95.08,91.26 Z" id="Path" fill="#DCE5FF"></path>
                <rect id="Rectangle" fill="#DCE5FF" transform="translate(121.290000, 67.845362) rotate(-65.260000) translate(-121.290000, -67.845362) " x="107.3" y="59.6153616" width="27.98" height="16.46" rx="1.65"></rect>
                <path d="M116.7,96.51 L114.19,103.51 C113.405802,105.692893 113.845733,108.128333 115.344074,109.898915 C116.842416,111.669497 119.171535,112.506226 121.454074,112.093915 C123.736614,111.681604 125.625802,110.082893 126.41,107.9 L128.92,100.9 C129.704198,98.7171072 129.264268,96.2816664 127.765926,94.5110846 C126.267584,92.7405027 123.938465,91.9037734 121.655926,92.3160845 C119.373386,92.7283956 117.484198,94.3271071 116.7,96.51 Z" id="Path" fill="#DCE5FF"></path>
                <path d="M90.18,76 L50.5,76 C49.1280166,76.0026615 47.8114599,75.4588213 46.8413193,74.4886807 C45.8711787,73.5185401 45.3273385,72.2019834 45.33,70.83 L45.3299903,58.7 L95.3302425,58.7 L95.33,70.78 C95.3433216,72.156352 94.8072591,73.481199 93.8405775,74.4610199 C92.8738959,75.4408409 91.5564064,75.9947398 90.18,76 Z" id="Path" fill="#DCE5FF"></path>
                <path d="M116.05,34.55 C116.05,33.08 103.78,31.82 86.51,31.33 L86.51,31.1 L54.19,31.1 L54.19,31.33 C36.93,31.82 24.66,33.08 24.66,34.55 C24.66,36.02 36.58,37.25 53.44,37.76 L53.17,40.06 C52.9272334,42.1192521 53.5765614,44.1840395 54.9542468,45.7336967 C56.3319323,47.283354 58.3064873,48.1699802 60.38,48.17 L80.38,48.17 C82.4535127,48.1699802 84.4280677,47.283354 85.8057532,45.7336967 C87.1834386,44.1840395 87.8327666,42.1192521 87.59,40.06 L87.32,37.76 C104.13,37.25 116.05,36 116.05,34.55 Z" id="Path" fill="#DCE5FF"></path>
                <path d="M91,71.64 L49.64,71.64 C48.7241884,71.6426661 47.8451174,71.2800413 47.1975381,70.6324619 C46.5499587,69.9848826 46.1873339,69.1058116 46.19,68.19 L46.19,52.67 C46.1873377,52.2120975 46.3673755,51.7720353 46.6902271,51.4473067 C47.0130787,51.1225781 47.4520897,50.9399923 47.91,50.94 L92.76,50.94 C93.2196409,50.9373198 93.6612322,51.1187264 93.9862529,51.4437471 C94.3112736,51.7687678 94.4926802,52.2103591 94.49,52.67 L94.49,68.19 C94.490062,69.1119697 94.1210952,69.9956074 93.4654175,70.6437702 C92.8097398,71.2919329 91.9219077,71.6506895 91,71.64 Z" id="Path" fill="#FFFFFF"></path>
                <path d="M91,71.64 L49.64,71.64 C48.7241884,71.6426661 47.8451174,71.2800413 47.1975381,70.6324619 C46.5499587,69.9848826 46.1873339,69.1058116 46.19,68.19 L46.19,52.67 C46.1873377,52.2120975 46.3673755,51.7720353 46.6902271,51.4473067 C47.0130787,51.1225781 47.4520897,50.9399923 47.91,50.94 L92.76,50.94 C93.2196409,50.9373198 93.6612322,51.1187264 93.9862529,51.4437471 C94.3112736,51.7687678 94.4926802,52.2103591 94.49,52.67 L94.49,68.19 C94.490062,69.1119697 94.1210952,69.9956074 93.4654175,70.6437702 C92.8097398,71.2919329 91.9219077,71.6506895 91,71.64 Z" id="Path" stroke="#2963FF" stroke-linecap="round" stroke-linejoin="round"></path>
                <path d="M51.36,66.47 L54.81,66.47" id="Path" stroke="#2963FF" stroke-linecap="round" stroke-linejoin="round"></path>
                <path d="M51.36,61.29 L54.81,61.29" id="Path" stroke="#2963FF" stroke-linecap="round" stroke-linejoin="round"></path>
                <path d="M51.36,56.12 L54.81,56.12" id="Path" stroke="#2963FF" stroke-linecap="round" stroke-linejoin="round"></path>
                <path d="M58.26,61.29 L61.71,61.29" id="Path" stroke="#2963FF" stroke-linecap="round" stroke-linejoin="round"></path>
                <path d="M58.26,56.12 L61.71,56.12" id="Path" stroke="#2963FF" stroke-linecap="round" stroke-linejoin="round"></path>
                <path d="M65.16,61.29 L68.61,61.29" id="Path" stroke="#2963FF" stroke-linecap="round" stroke-linejoin="round"></path>
                <path d="M65.16,56.12 L68.61,56.12" id="Path" stroke="#2963FF" stroke-linecap="round" stroke-linejoin="round"></path>
                <path d="M72.06,61.29 L75.51,61.29" id="Path" stroke="#2963FF" stroke-linecap="round" stroke-linejoin="round"></path>
                <path d="M72.06,56.12 L75.51,56.12" id="Path" stroke="#2963FF" stroke-linecap="round" stroke-linejoin="round"></path>
                <path d="M78.96,61.29 L82.41,61.29" id="Path" stroke="#2963FF" stroke-linecap="round" stroke-linejoin="round"></path>
                <path d="M78.96,56.12 L82.41,56.12" id="Path" stroke="#2963FF" stroke-linecap="round" stroke-linejoin="round"></path>
                <path d="M85.86,66.47 L89.31,66.47" id="Path" stroke="#2963FF" stroke-linecap="round" stroke-linejoin="round"></path>
                <path d="M85.86,61.29 L89.31,61.29" id="Path" stroke="#2963FF" stroke-linecap="round" stroke-linejoin="round"></path>
                <path d="M85.86,56.12 L89.31,56.12" id="Path" stroke="#2963FF" stroke-linecap="round" stroke-linejoin="round"></path>
                <path d="M58.26,66.47 L82.41,66.47" id="Path" stroke="#2963FF" stroke-linecap="round" stroke-linejoin="round"></path>
                <path d="M134.1,0.92 L6.58,0.92 C4.49285039,0.914349977 2.54672384,1.97276199 1.41715706,3.72784157 C0.287590272,5.48292114 0.130343493,7.6926537 1,9.59 L139.65,9.59 C140.523148,7.69778031 140.371655,5.49102457 139.248118,3.73587627 C138.12458,1.98072797 136.183958,0.91926234 134.1,0.92 Z" id="Path" fill="#FFFFFF"></path>
                <path d="M134.1,0.92 L6.58,0.92 C4.49285039,0.914349977 2.54672384,1.97276199 1.41715706,3.72784157 C0.287590272,5.48292114 0.130343493,7.6926537 1,9.59 L139.65,9.59 C140.523148,7.69778031 140.371655,5.49102457 139.248118,3.73587627 C138.12458,1.98072797 136.183958,0.91926234 134.1,0.92 Z" id="Path" stroke="#2963FF" stroke-linecap="round" stroke-linejoin="round"></path>
                <path d="M78,14.72 L62.67,14.72 C59.1751479,14.7256517 56.2347252,17.3398378 55.82,20.81 L54,36.34 C53.7807381,38.2896746 54.4030612,40.2403583 55.7108986,41.7028452 C57.0187361,43.1653321 58.8880352,44.0009002 60.85,44 L79.85,44 C81.8187232,43.999011 83.6932694,43.1571039 85.0018108,41.6861888 C86.3103521,40.2152737 86.928258,38.2554463 86.7,36.3 L84.88,20.77 C84.445315,17.3043457 81.4927879,14.70801 78,14.72 Z" id="Path" fill="#FFFFFF"></path>
                <path d="M78,14.72 L62.67,14.72 C59.1751479,14.7256517 56.2347252,17.3398378 55.82,20.81 L54,36.34 C53.7807381,38.2896746 54.4030612,40.2403583 55.7108986,41.7028452 C57.0187361,43.1653321 58.8880352,44.0009002 60.85,44 L79.85,44 C81.8187232,43.999011 83.6932694,43.1571039 85.0018108,41.6861888 C86.3103521,40.2152737 86.928258,38.2554463 86.7,36.3 L84.88,20.77 C84.445315,17.3043457 81.4927879,14.70801 78,14.72 Z" id="Path" stroke="#2963FF" stroke-linecap="round" stroke-linejoin="round"></path>
                <path d="M136.7,4.37 L4,4.37 C2.75120226,4.35596218 1.59231775,5.01790921 0.970022655,6.10070268 C0.347727562,7.18349614 0.359193087,8.51805813 1,9.59 L11.91,27.73 C12.8423212,29.2876941 14.5246122,30.2408658 16.34,30.24 L124.34,30.24 C126.158952,30.2443895 127.845851,29.2907594 128.78,27.73 L139.66,9.59 C140.303911,8.525165 140.322548,7.19559515 139.708737,6.11313012 C139.094925,5.03066509 137.944371,4.36408471 136.7,4.37 Z" id="Path" fill="#DCE5FF"></path>
                <path d="M16.34,30.24 L44.46,30.24 L70.34,4.36978108 L4,4.37 C2.75120226,4.35596218 1.59231775,5.01790921 0.970022655,6.10070268 C0.347727562,7.18349614 0.359193087,8.51805813 1,9.59 L11.91,27.73 C12.8423212,29.2876941 14.5246122,30.2408658 16.34,30.24 Z" id="Path" fill="#FFFFFF"></path>
                <path d="M136.7,4.37 L4,4.37 C2.75120226,4.35596218 1.59231775,5.01790921 0.970022655,6.10070268 C0.347727562,7.18349614 0.359193087,8.51805813 1,9.59 L11.91,27.73 C12.8423212,29.2876941 14.5246122,30.2408658 16.34,30.24 L124.34,30.24 C126.158952,30.2443895 127.845851,29.2907594 128.78,27.73 L139.66,9.59 C140.303911,8.525165 140.322548,7.19559515 139.708737,6.11313012 C139.094925,5.03066509 137.944371,4.36408471 136.7,4.37 Z" id="Path" stroke="#2963FF" stroke-linecap="round" stroke-linejoin="round"></path>
                <path d="M10.31,25.07 L11.91,27.73 C12.8423212,29.2876941 14.5246122,30.2408658 16.34,30.24 L124.34,30.24 C126.158952,30.2443895 127.845851,29.2907594 128.78,27.73 L130.38,25.07 L10.31,25.07 Z" id="Path" fill="#FFFFFF"></path>
                <path d="M10.31,25.07 L11.91,27.73 C12.8423212,29.2876941 14.5246122,30.2408658 16.34,30.24 L124.34,30.24 C126.158952,30.2443895 127.845851,29.2907594 128.78,27.73 L130.38,25.07 L10.31,25.07 Z" id="Path" stroke="#2963FF" stroke-linecap="round" stroke-linejoin="round"></path>
                <path d="M36.8,35.42 L25.58,35.42 C24.9866265,35.4182512 24.43555,35.112517 24.12,34.61 L22,31.16 C21.6700816,30.6265745 21.6547171,29.9563631 21.9598444,29.4083793 C22.2649718,28.8603955 22.8427929,28.5204806 23.47,28.52 L35.51,28.52 C36.2277931,28.5208162 36.8696074,28.9672957 37.12,29.64 L38.41,33.09 C38.6105874,33.6188256 38.538371,34.2124676 38.2168471,34.6777785 C37.8953233,35.1430894 37.3655895,35.4205928 36.8,35.42 Z" id="Path" stroke="#2963FF" fill="#DCE5FF" stroke-linecap="round" stroke-linejoin="round"></path>
                <path d="M111.69,7.82 L29,7.82 C28.4186344,7.81848882 27.8758498,8.11076138 27.5570991,8.59695707 C27.2383484,9.08315275 27.186775,9.69746423 27.42,10.23 L31.95,20.58 C32.2336605,21.1955019 32.8523156,21.5870558 33.53,21.58 L107.17,21.58 C107.847684,21.5870558 108.46634,21.1955019 108.75,20.58 L113.28,10.23 C113.513961,9.69583358 113.46133,9.07950309 113.140188,8.59273932 C112.819045,8.10597554 112.273136,7.81508552 111.69,7.82 Z" id="Path" fill="#DCE5FF"></path>
                <path d="M111.69,7.82 L29,7.82 C28.4186344,7.81848882 27.8758498,8.11076138 27.5570991,8.59695707 C27.2383484,9.08315275 27.186775,9.69746423 27.42,10.23 L31.95,20.58 C32.2336605,21.1955019 32.8523156,21.5870558 33.53,21.58 L107.17,21.58 C107.847684,21.5870558 108.46634,21.1955019 108.75,20.58 L113.28,10.23 C113.513961,9.69583358 113.46133,9.07950309 113.140188,8.59273932 C112.819045,8.10597554 112.273136,7.81508552 111.69,7.82 Z" id="Path" stroke="#2963FF" stroke-linecap="round" stroke-linejoin="round"></path>
                <path d="M32.39,11.27 L39.29,11.27" id="Path" stroke="#2963FF" stroke-linecap="round" stroke-linejoin="round"></path>
                <path d="M37.56,14.72 L46.19,14.72" id="Path" stroke="#2963FF" stroke-linecap="round" stroke-linejoin="round"></path>
                <path d="M96.21,7.82 L93.63,21.62" id="Path" stroke="#2963FF" stroke-linecap="round" stroke-linejoin="round"></path>
                <path d="M44.46,18.17 L53.09,18.17" id="Path" stroke="#2963FF" stroke-linecap="round" stroke-linejoin="round"></path>
                <path d="M42.74,11.27 L44.46,11.27" id="Path" stroke="#2963FF" stroke-linecap="round" stroke-linejoin="round"></path>
                <circle id="Oval" fill="#DCE5FF" cx="20.08" cy="69.92" r="12.08"></circle>
                <path d="M10.93,77.55 C9.90867777,78.4942426 8.32389471,78.4631808 7.34035694,77.4796431 C6.35681916,76.4961053 6.32575744,74.9113222 7.27,73.89 L11.54,69.62 L15.2,73.28 L10.93,77.55 Z" id="Path" stroke="#2963FF" fill="#FFFFFF" stroke-linecap="round" stroke-linejoin="round"></path>
                <path d="M12.15,72.67 C16.5287498,77.0450682 23.624815,77.0430787 28.0011108,72.6655557 C32.3774066,68.2880327 32.3774066,61.1919673 28.0011108,56.8144443 C23.624815,52.4369213 16.5287498,52.4349318 12.15,56.81 C10.0456775,58.9125532 8.86333263,61.7652894 8.86333263,64.74 C8.86333263,67.7147106 10.0456775,70.5674468 12.15,72.67 Z" id="Path" stroke="#2963FF" fill="#FFFFFF" stroke-linecap="round" stroke-linejoin="round"></path>
                <circle id="Oval" fill="#DCE5FF" cx="20.08" cy="64.74" r="7.76"></circle>
                <circle id="Oval" stroke="#2963FF" stroke-linecap="round" stroke-linejoin="round" cx="20.08" cy="64.74" r="7.76"></circle>
                <path d="M116.15,95 L113.82,101.5 C112.693339,104.639739 114.325261,108.098339 117.465,109.225 C120.604739,110.351661 124.063339,108.719739 125.19,105.58 L127.52,99.09 C128.250608,97.0589451 127.842163,94.7923982 126.448522,93.1441456 C125.054881,91.4958929 122.887771,90.7163433 120.763522,91.0991456 C118.639273,91.4819478 116.880608,92.9689451 116.15,95 Z" id="Path" fill="#FFFFFF"></path>
                <path d="M116.15,95 L113.82,101.5 C112.693339,104.639739 114.325261,108.098339 117.465,109.225 C120.604739,110.351661 124.063339,108.719739 125.19,105.58 L127.52,99.09 C128.250608,97.0589451 127.842163,94.7923982 126.448522,93.1441456 C125.054881,91.4958929 122.887771,90.7163433 120.763522,91.0991456 C118.639273,91.4819478 116.880608,92.9689451 116.15,95 Z" id="Path" stroke="#2963FF" stroke-linecap="round" stroke-linejoin="round"></path>
                <path d="M122.13,95.39 C121.765758,95.3868159 121.439976,95.6160696 121.32,95.96 C121.159006,96.4100226 121.391192,96.9056508 121.84,97.07 C121.9334,97.101952 122.031292,97.1188299 122.13,97.12 C122.543227,97.1074258 122.890536,96.8057854 122.960859,96.3983924 C123.031183,95.9909994 122.805098,95.5903803 122.42,95.44 C122.323847,95.4259089 122.226153,95.4259089 122.13,95.44 L122.13,95.39 Z" id="Path" fill="#2963FF"></path>
                <path d="M53.0532621,86.5264814 L91.0532621,86.5264814 C92.0031919,86.5264814 92.7732621,87.2965516 92.7732621,88.2464814 L92.7732621,117.576481 C92.7732621,118.526411 92.0031919,119.296481 91.0532621,119.296481 L53.0532621,119.296481 C52.1033323,119.296481 51.3332621,118.526411 51.3332621,117.576481 L51.3332621,88.2564814 C51.3332462,87.3049204 52.101717,86.5319817 53.0532621,86.5264814 Z" id="Path" stroke="#2963FF" fill="#FFFFFF" stroke-linecap="round" stroke-linejoin="round" transform="translate(72.053262, 102.911481) rotate(-76.760000) translate(-72.053262, -102.911481) "></path>
                <path d="M65.8303993,101.746732 L72.7303993,101.746732 C73.6858519,101.746732 74.4603993,102.521279 74.4603993,103.476732 L74.4603993,125.896732 C74.4603993,126.852185 73.6858519,127.626732 72.7303993,127.626732 L65.8303993,127.626732 C64.8804695,127.626732 64.1103993,126.856662 64.1103993,125.906732 L64.1103993,103.466732 C64.1103993,102.516802 64.8804695,101.746732 65.8303993,101.746732 Z" id="Path" stroke="#2963FF" fill="#DCE5FF" stroke-linecap="round" stroke-linejoin="round" transform="translate(69.285399, 114.686732) rotate(-76.760000) translate(-69.285399, -114.686732) "></path>
                <rect id="Rectangle" stroke="#2963FF" fill="#DCE5FF" stroke-linecap="round" stroke-linejoin="round" transform="translate(76.382475, 84.460984) rotate(-76.760000) translate(-76.382475, -84.460984) " x="74.6574752" y="71.525984" width="3.45" height="25.87"></rect>
                <polygon id="Path" stroke="#2963FF" fill="#DCE5FF" stroke-linecap="round" stroke-linejoin="round" points="90.76 94.94 89.18 101.66 76.79 82.79 83.5 84.37"></polygon>
                <path d="M60.34,103.73 L68.74,105.71" id="Path" stroke="#2963FF" stroke-linecap="round" stroke-linejoin="round"></path>
                <path d="M79.31,98.45 C80.2586864,100.63176 79.260144,103.169568 77.0790924,104.119881 C74.8980407,105.070194 72.3594883,104.073544 71.4075496,101.893201 C70.4556108,99.7128589 71.4503678,97.1735641 73.63,96.22" id="Path" stroke="#2963FF" stroke-linecap="round" stroke-linejoin="round"></path>
                <path d="M68.89,101.31 C65.6784886,100.532446 63.7001096,97.3046387 64.4647555,94.0900296 C65.2294015,90.8754206 68.4492356,88.8840907 71.6668905,89.6358167 C74.8845454,90.3875427 76.888794,93.5993512 76.15,96.82" id="Path" stroke="#2963FF" stroke-linecap="round" stroke-linejoin="round"></path>
                <path d="M60.04,112.52 L78.52,116.87" id="Path" stroke="#2963FF" stroke-linecap="round" stroke-linejoin="round"></path>
                <rect id="Rectangle" stroke="#2963FF" fill="#FFFFFF" stroke-linecap="round" stroke-linejoin="round" x="47.91" y="81.99" width="32.77" height="41.4" rx="1.72"></rect>
                <path d="M53.08,109.6 L75.51,109.6 C75.9688245,109.6 76.4088568,109.782267 76.7332947,110.106705 C77.0577327,110.431143 77.24,110.871175 77.24,111.33 L77.24,118.23 C77.24,119.185453 76.4654526,119.96 75.51,119.96 L53.08,119.96 C52.1300702,119.96 51.36,119.18993 51.36,118.24 L51.36,111.34 C51.3546551,110.880372 51.5335066,110.437728 51.8566503,110.110827 C52.179794,109.783926 52.6203412,109.599969 53.08,109.6 Z" id="Path" stroke="#2963FF" fill="#DCE5FF" stroke-linecap="round" stroke-linejoin="round"></path>
                <rect id="Rectangle" stroke="#2963FF" fill="#DCE5FF" stroke-linecap="round" stroke-linejoin="round" x="51.36" y="82" width="25.88" height="3.45"></rect>
                <polygon id="Path" stroke="#2963FF" fill="#DCE5FF" stroke-linecap="round" stroke-linejoin="round" points="80.68 90.62 80.68 97.52 64.3 82 71.2 82"></polygon>
                <path d="M53.08,106.15 L61.71,106.15" id="Path" stroke="#2963FF" stroke-linecap="round" stroke-linejoin="round"></path>
                <path d="M70.33,96.66 C71.3856509,98.05272 71.4958146,99.9450407 70.608905,101.450849 C69.7219954,102.956658 68.0135902,103.777855 66.2836808,103.529902 C64.5537713,103.281948 63.1448205,102.013929 62.7165947,100.319618 C62.2883689,98.6253068 62.9256422,96.8401187 64.33,95.8" id="Path" stroke="#2963FF" stroke-linecap="round" stroke-linejoin="round"></path>
                <path d="M60.85,101.83 C57.5362915,101.83 54.85,99.1437085 54.85,95.83 C54.85,92.5162915 57.5362915,89.83 60.85,89.83 C64.1637085,89.83 66.85,92.5162915 66.85,95.83" id="Path" stroke="#2963FF" stroke-linecap="round" stroke-linejoin="round"></path>
                <path d="M54.81,114.77 L73.78,114.77" id="Path" stroke="#2963FF" stroke-linecap="round" stroke-linejoin="round"></path>
                <rect id="Rectangle" stroke="#2963FF" fill="#FFFFFF" stroke-linecap="round" stroke-linejoin="round" transform="translate(120.337524, 65.347243) rotate(24.740000) translate(-120.337524, -65.347243) " x="113.092524" y="52.9272428" width="14.49" height="24.84" rx="1"></rect>
                <rect id="Rectangle" fill="#DCE5FF" transform="translate(120.337524, 65.347243) rotate(24.740000) translate(-120.337524, -65.347243) " x="113.092524" y="57.0672428" width="14.49" height="16.56"></rect>
                <polygon id="Path" fill="#FFFFFF" points="111.6 67.02 129.45 60.43 117.23 54.8"></polygon>
                <rect id="Rectangle" stroke="#2963FF" stroke-linecap="round" stroke-linejoin="round" transform="translate(120.337524, 65.347243) rotate(24.740000) translate(-120.337524, -65.347243) " x="113.092524" y="57.0672428" width="14.49" height="16.56"></rect>
            </g>
        </g>
    </g>
</svg>