<svg id="Duotone" xmlns="http://www.w3.org/2000/svg" viewBox="0 0 100 112"><defs><style>.cls-1{fill:#f0f2ff;}.cls-2{fill:none;}.cls-2,.cls-4{stroke:#2963ff;stroke-linecap:round;stroke-linejoin:round;}.cls-3{fill:#fff;}.cls-4{fill:#dce5ff;}</style></defs><title>30 hand-tech-startup</title><g id="Icons"><path class="cls-1" d="M90,56A40,40,0,1,0,13.56,72.5H86.44A39.85,39.85,0,0,0,90,56Z"/><line class="cls-2" x1="11" y1="72.5" x2="89" y2="72.5"/><line class="cls-2" x1="6.5" y1="72.5" x2="9" y2="72.5"/><line class="cls-2" x1="91" y1="72.5" x2="93.5" y2="72.5"/><path class="cls-3" d="M70.6,60.5a6.9,6.9,0,0,0-5.77,3.12A3.28,3.28,0,0,0,59.5,66.2c0,.43.21.3-.6.3a4.19,4.19,0,0,0-4.06,3.18c-1-1.2-3.14-2.18-3.14-8H49.3c0,5.78-2.18,6.78-3.14,8A4.19,4.19,0,0,0,42.1,66.5c-.81,0-.6.13-.6-.3a3.28,3.28,0,0,0-5.33-2.58A6.9,6.9,0,1,0,25.76,72.5H75.24a6.9,6.9,0,0,0-4.64-12Z"/><path class="cls-2" d="M70.6,60.5a6.9,6.9,0,0,0-5.77,3.12A3.28,3.28,0,0,0,59.5,66.2c0,.43.21.3-.6.3a4.19,4.19,0,0,0-4.06,3.18c-1-1.2-3.14-2.18-3.14-8H49.3c0,5.78-2.18,6.78-3.14,8A4.19,4.19,0,0,0,42.1,66.5c-.81,0-.6.13-.6-.3a3.28,3.28,0,0,0-5.33-2.58A6.9,6.9,0,1,0,25.76,72.5H75.24a6.9,6.9,0,0,0-4.64-12Z"/><path class="cls-4" d="M55.3,44.3c1.74,11,5.16,9.71,5.39,14.49a.5.5,0,0,1-.5.51H55.3Z"/><path class="cls-4" d="M45.7,44.3C44,55.32,40.54,54,40.31,58.79a.5.5,0,0,0,.5.51H45.7Z"/><rect class="cls-4" x="45.7" y="56.9" width="9.6" height="2.4"/><path class="cls-4" d="M46.9,59.3h7.2a0,0,0,0,1,0,0v1.2a2.4,2.4,0,0,1-2.4,2.4H49.3a2.4,2.4,0,0,1-2.4-2.4V59.3A0,0,0,0,1,46.9,59.3Z"/><path class="cls-2" d="M38.3,68.9a4.21,4.21,0,0,1,3.8-2.4"/><path class="cls-2" d="M34.9,66.2a3.3,3.3,0,0,1,3.3-3.3"/><path class="cls-2" d="M62.7,68.9a4.21,4.21,0,0,0-3.8-2.4"/><path class="cls-2" d="M66.1,66.2a3.3,3.3,0,0,0-3.3-3.3"/><path class="cls-3" d="M60.1,40.1a9.6,9.6,0,1,0-19.2,0,9.43,9.43,0,0,0,1.54,5.2A22.33,22.33,0,0,1,45.7,56.9h9.6a22.21,22.21,0,0,1,3.26-11.6A9.43,9.43,0,0,0,60.1,40.1Z"/><path class="cls-2" d="M60.1,40.1a9.6,9.6,0,1,0-19.2,0,9.43,9.43,0,0,0,1.54,5.2A22.33,22.33,0,0,1,45.7,56.9h9.6a22.21,22.21,0,0,1,3.26-11.6A9.43,9.43,0,0,0,60.1,40.1Z"/><line class="cls-2" x1="54.7" y1="38.3" x2="52.3" y2="56.9"/><line class="cls-2" x1="48.7" y1="56.9" x2="46.3" y2="38.3"/><path class="cls-2" d="M46.92,43.08l1.43-1.92a.51.51,0,0,1,.76,0l1,1a.5.5,0,0,0,.7,0l1-1a.51.51,0,0,1,.76,0l1.43,1.92"/></g></svg>