<svg id="Duotone" xmlns="http://www.w3.org/2000/svg" viewBox="0 0 100 112"><defs><style>.cls-1{fill:#f0f2ff;}.cls-2{fill:none;}.cls-2,.cls-5,.cls-6{stroke:#2963ff;stroke-linecap:round;stroke-linejoin:round;}.cls-3,.cls-6{fill:#dce5ff;}.cls-4,.cls-5{fill:#fff;}</style></defs><title>95- drinks-pub-mojito-female-african-american</title><g id="Icons"><g id="Background"><g id="New_Symbol_78-32" data-name="New Symbol 78"><path class="cls-1" d="M90,56A40,40,0,1,0,13.56,72.52H86.43A39.93,39.93,0,0,0,90,56Z"/><line class="cls-2" x1="10.99" y1="72.52" x2="88.99" y2="72.52"/><line class="cls-2" x1="6.49" y1="72.52" x2="8.99" y2="72.52"/><line class="cls-2" x1="90.99" y1="72.52" x2="93.49" y2="72.52"/></g></g><g id="Scene"><path class="cls-3" d="M76.49,65A15.5,15.5,0,0,0,60.24,49.53c-8.34.39-14.75,7.57-14.75,15.92v1.06a1,1,0,0,0,1,1h5v5h19v-5h5a1,1,0,0,0,1-1Z"/><path class="cls-2" d="M76.49,65A15.5,15.5,0,0,0,60.24,49.53c-8.34.39-14.75,7.57-14.75,15.92v1.06a1,1,0,0,0,1,1h5v5h19v-5h5a1,1,0,0,0,1-1Z"/><line class="cls-2" x1="51.49" y1="63.51" x2="51.49" y2="67.51"/><line class="cls-2" x1="70.49" y1="63.51" x2="70.49" y2="67.68"/><path class="cls-4" d="M57.49,50a3.5,3.5,0,1,0,7,0v-3.5h-7Z"/><path class="cls-2" d="M61,53.51a3.5,3.5,0,0,1-3.5-3.5v-3.5h7V50A3.5,3.5,0,0,1,61,53.51Z"/><rect class="cls-5" x="70.49" y="67.51" width="5" height="5"/><path class="cls-5" d="M34.49,78a2.5,2.5,0,0,1,2.5-2.5h2a7.51,7.51,0,0,0,7.5-7.5v-.5h5V68A12.52,12.52,0,0,1,39,80.51H37A2.5,2.5,0,0,1,34.49,78Z"/><path class="cls-5" d="M71,36v-2.5a10,10,0,1,0-20,0V36a2,2,0,0,0,0,4h.12a10,10,0,0,0,19.76,0H71a2,2,0,0,0,0-4Z"/><circle class="cls-3" cx="55.24" cy="40.26" r="1.25"/><circle class="cls-3" cx="66.74" cy="40.26" r="1.25"/><path class="cls-2" d="M58,42.8a4.38,4.38,0,0,0,6,0"/><path class="cls-2" d="M66.49,37a1.63,1.63,0,0,0-3,0"/><path class="cls-2" d="M58.48,37a1.63,1.63,0,0,0-3,0"/><path class="cls-4" d="M74,32.51c0-6.86-6.15-12-13-12h0c-6.85.06-13,5.16-13,12,0,7.49-2,9.37-2,14.54a5.74,5.74,0,0,0,3.91,5.47,20.42,20.42,0,0,0,5.77,1,.49.49,0,0,0,.37-.84c-3.78-4-4.73-10-3.31-16.27a29.75,29.75,0,0,1,2.44-6.73c.18-.35,1.08-1.46,1.32-1.15.65.84.78,3.3,1.26,4.4a1,1,0,0,0,.92.6h1a1,1,0,0,0,1-.84L61,30.92a.1.1,0,0,1,.08-.1.1.1,0,0,1,.11.05l1,2.08a1,1,0,0,0,.9.56h.58a1,1,0,0,0,1-.78l.23-1a.1.1,0,0,1,.2,0l.23,1a1,1,0,0,0,1,.78H68c2.84,0,3.45,13.27-2,19.1a.51.51,0,0,0,.4.87,20.24,20.24,0,0,0,5.73-1A5.75,5.75,0,0,0,76,47.05C76,41.88,74,40,74,32.51Z"/><path class="cls-2" d="M74,32.51c0-6.86-6.15-12-13-12h0c-6.85.06-13,5.16-13,12,0,7.49-2,9.37-2,14.54a5.74,5.74,0,0,0,3.91,5.47,20.42,20.42,0,0,0,5.77,1,.49.49,0,0,0,.37-.84c-3.78-4-4.73-10-3.31-16.27a29.75,29.75,0,0,1,2.44-6.73c.18-.35,1.08-1.46,1.32-1.15.65.84.78,3.3,1.26,4.4a1,1,0,0,0,.92.6h1a1,1,0,0,0,1-.84L61,30.92a.1.1,0,0,1,.08-.1.1.1,0,0,1,.11.05l1,2.08a1,1,0,0,0,.9.56h.58a1,1,0,0,0,1-.78l.23-1a.1.1,0,0,1,.2,0l.23,1a1,1,0,0,0,1,.78H68c2.84,0,3.45,13.27-2,19.1a.51.51,0,0,0,.4.87,20.24,20.24,0,0,0,5.73-1A5.75,5.75,0,0,0,76,47.05C76,41.88,74,40,74,32.51Z"/><path class="cls-2" d="M56.38,28.44c1.06-3.19,1.3-6.91,5.3-7.91"/><ellipse class="cls-1" cx="34.49" cy="83.5" rx="7" ry="1.5"/><path class="cls-6" d="M36.82,75.21h0A1,1,0,0,1,36.09,74l3.72-14.78A1,1,0,0,1,41,58.49h0a1,1,0,0,1,.72,1.22L38,74.49A1,1,0,0,1,36.82,75.21Z"/><path class="cls-6" d="M33.12,68a1,1,0,0,0,.5-1.5A5.5,5.5,0,0,0,23.52,70a1,1,0,0,0,1.34.86Z"/><path class="cls-5" d="M32.29,68.25a3.5,3.5,0,1,0-6.6,2.33Z"/><path class="cls-3" d="M39.45,68.75H29.52a1,1,0,0,0-1,1l.43,12a1,1,0,0,0,1,1H39a1,1,0,0,0,1-1l.43-12A1,1,0,0,0,39.45,68.75Z"/><path class="cls-4" d="M28.67,73.75l.29,8a1,1,0,0,0,1,1H39a1,1,0,0,0,1-1l.29-8Z"/><path class="cls-2" d="M39.45,68.75H29.52a1,1,0,0,0-1,1l.43,12a1,1,0,0,0,1,1H39a1,1,0,0,0,1-1l.43-12A1,1,0,0,0,39.45,68.75Z"/><rect class="cls-6" x="30.81" y="74.43" width="4" height="4" rx="1" ry="1" transform="translate(-28.54 20.27) rotate(-24.3)"/><rect class="cls-6" x="33.89" y="76.34" width="4" height="4" rx="1" ry="1" transform="translate(74.82 1.46) rotate(51.47)"/></g></g></svg>