<?xml version="1.0" encoding="UTF-8"?>
<svg width="80px" height="80px" viewBox="0 0 80 80" version="1.1" xmlns="http://www.w3.org/2000/svg" xmlns:xlink="http://www.w3.org/1999/xlink">
    <!-- Generator: Sketch 52.6 (67491) - http://www.bohemiancoding.com/sketch -->
    <title>hand-globe</title>
    <desc>Created with Sketch.</desc>
    <g id="Page-1" stroke="none" stroke-width="1" fill="none" fill-rule="evenodd">
        <g id="hand-globe">
            <g id="Background" fill="#F0F2FF">
                <g id="New_Symbol_57-7">
                    <circle id="Oval" cx="40" cy="40" r="40"></circle>
                </g>
            </g>
            <g id="Scene" transform="translate(12.000000, 13.000000)">
                <circle id="Oval" fill="#DCE5FF" cx="34.47" cy="17.03" r="16.56"></circle>
                <path d="M49.49,10 C47.4911135,5.72546665 43.7674812,2.50365199 39.25,1.14 L36.78,1.14 C35.6666528,1.11682402 34.7008915,1.90468195 34.5,3 C34.3908952,3.63649828 34.5682738,4.28870245 34.9847196,4.78226786 C35.4011654,5.27583326 36.0142185,5.56043703 36.66,5.56 C37.2036236,5.56126993 37.716152,5.8136852 38.0485502,6.2438476 C38.3809484,6.67400999 38.4959078,7.23363764 38.36,7.76 C38.1333108,8.54474725 37.4066242,9.07847192 36.59,9.06 L30.33,9.06 C27.934774,9.00864909 25.9100673,10.823451 25.7,13.21 C25.6340012,14.4126438 26.0661605,15.5893935 26.8948316,16.4634713 C27.7235028,17.3375491 28.875548,17.8318096 30.08,17.83 L32.66,17.83 C32.968496,17.8299533 33.2640753,17.9538553 33.4803264,18.1738673 C33.6965774,18.3938792 33.8153652,18.6915506 33.81,19 L33.81,19.93 C33.81,20.4822847 34.2577153,20.93 34.81,20.93 C35.3622847,20.93 35.81,21.3777153 35.81,21.93 L35.81,23.14 C35.8272065,23.3276411 35.7776273,23.5153338 35.67,23.67 C34.8557672,24.6457869 34.8557672,26.0642131 35.67,27.04 C36.2124192,27.6488472 36.9947957,27.988852 37.81,27.97 L38.81,27.97 C39.8418581,27.9600787 40.8255616,27.5320351 41.5361375,26.7837628 C42.2467134,26.0354906 42.6233823,25.0309935 42.58,24 L42.58,19.58 C42.576466,18.6895214 43.0703283,17.871562 43.86,17.46 C44.9035349,16.8201359 45.5397218,15.6840878 45.54,14.46 C45.54,14.3771573 45.4728427,14.31 45.39,14.31 L43.68,14.31 C43.1939894,14.31 42.8,13.9160106 42.8,13.43 L42.8,12.33 C42.8,11.8439894 43.1939894,11.45 43.68,11.45 L47.43,11.45 C48.3537541,11.4494984 49.177864,10.8694211 49.49,10 Z" id="Path" fill="#FFFFFF"></path>
                <path d="M49.49,10 C47.4911135,5.72546665 43.7674812,2.50365199 39.25,1.14 L36.78,1.14 C35.6666528,1.11682402 34.7008915,1.90468195 34.5,3 C34.3908952,3.63649828 34.5682738,4.28870245 34.9847196,4.78226786 C35.4011654,5.27583326 36.0142185,5.56043703 36.66,5.56 C37.2058985,5.560465 37.7206788,5.81421604 38.0535191,6.24690842 C38.3863593,6.6796008 38.4995766,7.24224652 38.36,7.77 C38.1333108,8.55474725 37.4066242,9.08847192 36.59,9.07 L30.33,9.07 C27.934774,9.01864909 25.9100673,10.833451 25.7,13.22 C25.6340012,14.4226438 26.0661605,15.5993935 26.8948316,16.4734713 C27.7235028,17.3475491 28.875548,17.8418096 30.08,17.84 L32.66,17.84 C32.9667395,17.8399884 33.2607722,17.9625205 33.4767289,18.180355 C33.6926855,18.3981895 33.8126673,18.6932721 33.81,19 L33.81,19.93 C33.81,20.4822847 34.2577153,20.93 34.81,20.93 C35.3622847,20.93 35.81,21.3777153 35.81,21.93 L35.81,23.14 C35.8272065,23.3276411 35.7776273,23.5153338 35.67,23.67 C34.8557672,24.6457869 34.8557672,26.0642131 35.67,27.04 C36.2124192,27.6488472 36.9947957,27.988852 37.81,27.97 L38.81,27.97 C39.8418581,27.9600787 40.8255616,27.5320351 41.5361375,26.7837628 C42.2467134,26.0354906 42.6233823,25.0309935 42.58,24 L42.58,19.58 C42.576466,18.6895214 43.0703283,17.871562 43.86,17.46 C44.9035349,16.8201359 45.5397218,15.6840878 45.54,14.46 L45.39,14.31 L43.68,14.31 C43.1939894,14.31 42.8,13.9160106 42.8,13.43 L42.8,12.33 C42.8,11.8439894 43.1939894,11.45 43.68,11.45 L47.43,11.45 C48.3537541,11.4494984 49.177864,10.8694211 49.49,10 Z" id="Path" stroke="#2963FF"></path>
                <circle id="Oval" stroke="#2963FF" stroke-linecap="round" stroke-linejoin="round" cx="34.47" cy="17.03" r="16.56"></circle>
                <ellipse id="Oval" fill="#DCE5FF" cx="31.48" cy="59.23" rx="10.35" ry="1.72"></ellipse>
                <path d="M13.09,45.33 C16.2211648,46.3432607 19.4102081,47.1680709 22.64,47.8 C26.2696785,48.5409724 30.0373714,48.1930783 33.47,46.8 C36.84,45.43 41.47,43.4 46.47,40.85 C47.2925337,40.4488586 47.7495648,39.5511188 47.59,38.65 C47.4746928,38.1131285 47.1437205,37.6472813 46.6747043,37.3617109 C46.205688,37.0761405 45.6398886,36.9959695 45.11,37.14 L33.11,42.29 C32.6579579,42.4827252 32.1714093,42.5813959 31.68,42.58 L29,42.58 C31.54,42.58 33.15,41.8 33.73,40.28 C33.8792688,39.8578044 33.814398,39.3894288 33.5559997,39.0236959 C33.2976014,38.6579629 32.8778059,38.4403493 32.43,38.44 L26.12,38.44 C25.25,38.44 22.39,34.3 18.3,34.3 L13.09,34.3 L13.09,45.33 Z" id="Path" fill="#FFFFFF"></path>
                <path d="M9.95,32.9 L13.09,32.9 L13.09,46.7 L9.95,46.7 C9.39771525,46.7 8.95,46.2522847 8.95,45.7 L8.95,33.9 C8.95,33.3477153 9.39771525,32.9 9.95,32.9 Z" id="Path" fill="#FFFFFF" transform="translate(11.020000, 39.800000) rotate(180.000000) translate(-11.020000, -39.800000) "></path>
                <path d="M9.95,32.9 L13.09,32.9 L13.09,46.7 L9.95,46.7 C9.39771525,46.7 8.95,46.2522847 8.95,45.7 L8.95,33.9 C8.95,33.3477153 9.39771525,32.9 9.95,32.9 Z" id="Path" stroke="#2963FF" stroke-linecap="round" stroke-linejoin="round" transform="translate(11.020000, 39.800000) rotate(180.000000) translate(-11.020000, -39.800000) "></path>
                <rect id="Rectangle" fill="#DCE5FF" transform="translate(4.800000, 39.800000) rotate(180.000000) translate(-4.800000, -39.800000) " x="0.66" y="31.52" width="8.28" height="16.56" rx="1"></rect>
                <rect id="Rectangle" stroke="#2963FF" stroke-linecap="round" stroke-linejoin="round" transform="translate(4.800000, 39.800000) rotate(180.000000) translate(-4.800000, -39.800000) " x="0.66" y="31.52" width="8.28" height="16.56" rx="1"></rect>
                <path d="M13.09,45.33 C16.2211648,46.3432607 19.4102081,47.1680709 22.64,47.8 C26.2696785,48.5409724 30.0373714,48.1930783 33.47,46.8 C36.84,45.43 41.47,43.4 46.47,40.85 C47.2925337,40.4488586 47.7495648,39.5511188 47.59,38.65 C47.4746928,38.1131285 47.1437205,37.6472813 46.6747043,37.3617109 C46.205688,37.0761405 45.6398886,36.9959695 45.11,37.14 L33.11,42.29 C32.6579579,42.4827252 32.1714093,42.5813959 31.68,42.58 L29,42.58 C31.54,42.58 33.15,41.8 33.73,40.28 C33.8792688,39.8578044 33.814398,39.3894288 33.5559997,39.0236959 C33.2976014,38.6579629 32.8778059,38.4403493 32.43,38.44 L26.12,38.44 C25.25,38.44 22.39,34.3 18.3,34.3 L13.09,34.3 L13.09,45.33 Z" id="Path" stroke="#2963FF" stroke-linecap="round" stroke-linejoin="round"></path>
                <circle id="Oval" stroke="#2963FF" fill="#FFFFFF" stroke-linecap="round" stroke-linejoin="round" cx="4.81" cy="43.94" r="1.92"></circle>
                <path d="M22.65,42.56 L28.96,42.56" id="Path" stroke="#2963FF" stroke-linecap="round" stroke-linejoin="round"></path>
            </g>
        </g>
    </g>
</svg>