<svg id="Duotone" xmlns="http://www.w3.org/2000/svg" viewBox="0 0 100 112"><defs><style>.cls-1{fill:#f0f2ff;}.cls-2{fill:none;}.cls-2,.cls-3,.cls-4{stroke:#2963ff;stroke-linecap:round;stroke-linejoin:round;}.cls-3,.cls-5{fill:#dce5ff;}.cls-4,.cls-6{fill:#fff;}</style></defs><title>02- spa-meditation-female-caucasian-1</title><g id="Icons"><g id="Background"><g id="New_Symbol_90-58" data-name="New Symbol 90"><path class="cls-1" d="M90.5,56.05a40,40,0,1,0-76.44,16.5H86.94A39.85,39.85,0,0,0,90.5,56.05Z"/><line class="cls-2" x1="11" y1="72.55" x2="89" y2="72.55"/><line class="cls-2" x1="6.5" y1="72.55" x2="9" y2="72.55"/><line class="cls-2" x1="91" y1="72.55" x2="93.5" y2="72.55"/></g></g><g id="Scene"><path class="cls-3" d="M18.35,57.87a1.73,1.73,0,0,0,3.36.8c.3-1.26-1.62-1.47-1.57-3.33A3.62,3.62,0,0,0,18.35,57.87Z"/><path class="cls-4" d="M18.72,62.27h2.6a1,1,0,0,1,1,1v9.35a0,0,0,0,1,0,0h-4.6a0,0,0,0,1,0,0V63.27A1,1,0,0,1,18.72,62.27Z"/><path class="cls-4" d="M21,68h2.6a1,1,0,0,1,1,1v3.6a0,0,0,0,1,0,0H20a0,0,0,0,1,0,0V69A1,1,0,0,1,21,68Z"/><path class="cls-3" d="M24,63.59a1.73,1.73,0,0,1-3.36.8c-.3-1.26,1.62-1.47,1.57-3.33A3.64,3.64,0,0,1,24,63.59Z"/><line class="cls-2" x1="26.92" y1="64.57" x2="26.92" y2="63.42"/><path class="cls-3" d="M32.1,66.87a5.86,5.86,0,0,1-5.18,3.45,5.85,5.85,0,0,1-5.17-3.45s2.63-2.3,5.17-2.3S32.1,66.87,32.1,66.87Z"/><line class="cls-2" x1="32.1" y1="66.87" x2="21.75" y2="66.87"/><line class="cls-2" x1="23.47" y1="72.62" x2="24.67" y2="69.83"/><line class="cls-2" x1="30.37" y1="72.62" x2="29.18" y2="69.83"/><path class="cls-2" d="M25.77,60a1.72,1.72,0,0,0-1.72-1.73,1.73,1.73,0,1,1,0-3.45"/><path class="cls-2" d="M30.37,62.27a1.15,1.15,0,1,1,0-2.3,1.73,1.73,0,1,0,0-3.45"/><path class="cls-4" d="M75.07,56.52h2.6a1,1,0,0,1,1,1v3.6a0,0,0,0,1,0,0h-4.6a0,0,0,0,1,0,0v-3.6A1,1,0,0,1,75.07,56.52Z"/><path class="cls-3" d="M78,52.09a1.73,1.73,0,0,1-3.36.8c-.3-1.26,1.62-1.47,1.57-3.33A3.64,3.64,0,0,1,78,52.09Z"/><ellipse class="cls-5" cx="76.37" cy="70.32" rx="6.9" ry="2.3"/><ellipse class="cls-5" cx="76.37" cy="63.42" rx="5.18" ry="2.3"/><ellipse class="cls-3" cx="75.8" cy="66.87" rx="4.02" ry="1.15"/><ellipse class="cls-2" cx="76.37" cy="70.32" rx="6.9" ry="2.3"/><ellipse class="cls-2" cx="76.37" cy="63.42" rx="5.18" ry="2.3"/><path class="cls-4" d="M79.41,90.22a1.17,1.17,0,0,1,.22,1.25,1.16,1.16,0,0,1-1.06.7H22.42a1.15,1.15,0,0,1-1.05-.7,1.17,1.17,0,0,1,.22-1.25l9.88-10.35a1.14,1.14,0,0,1,.83-.35H68.7a1.14,1.14,0,0,1,.83.35Z"/><circle class="cls-4" cx="50.5" cy="39.5" r="2.76"/><path class="cls-6" d="M43.59,48.47l1.37.69,1-3.51a1.37,1.37,0,0,1,1.62-1,13.19,13.19,0,0,0,2.9.34,13.36,13.36,0,0,0,2.91-.34,1.36,1.36,0,0,1,1.61,1l1,3.51,1.39-.69a1.26,1.26,0,0,1,1.14.62,8.24,8.24,0,0,0,.25-2c0-4.58-3.71-7.59-8.28-7.59s-8.28,3-8.28,7.59a8.21,8.21,0,0,0,.24,2A1.26,1.26,0,0,1,43.59,48.47Z"/><path class="cls-2" d="M43.59,48.47l1.37.69,1-3.51a1.37,1.37,0,0,1,1.62-1,13.19,13.19,0,0,0,2.9.34,13.36,13.36,0,0,0,2.91-.34,1.36,1.36,0,0,1,1.61,1l1,3.51,1.39-.69a1.26,1.26,0,0,1,1.14.62,8.24,8.24,0,0,0,.25-2c0-4.58-3.71-7.59-8.28-7.59s-8.28,3-8.28,7.59a8.21,8.21,0,0,0,.24,2A1.26,1.26,0,0,1,43.59,48.47Z"/><path class="cls-4" d="M57.39,48.47,56,49.16l-1-3.51a1.36,1.36,0,0,0-1.61-1,13.36,13.36,0,0,1-2.91.34,13.19,13.19,0,0,1-2.9-.34,1.37,1.37,0,0,0-1.62,1l-1,3.51-1.37-.69c-2,0-1.84,3.45.35,3.45h0a6.85,6.85,0,0,0,13.1,0h0C59.23,51.92,59.36,48.47,57.39,48.47Z"/><circle class="cls-5" cx="46.36" cy="50.54" r="0.69"/><circle class="cls-5" cx="54.64" cy="50.54" r="0.69"/><path class="cls-2" d="M48.78,52.77a3.1,3.1,0,0,0,3.45,0"/><path class="cls-2" d="M48.41,49.07a.86.86,0,0,1-1.22,0"/><path class="cls-2" d="M53.76,49.07a.86.86,0,0,1-1.22,0"/><path class="cls-4" d="M34.63,81.82a2.07,2.07,0,0,1,0-4.14h2.76a1.38,1.38,0,0,0,1.38-1.38V70.78a11.69,11.69,0,0,1,4.14-8.94V76.3a5.52,5.52,0,0,1-5.52,5.52Z"/><path class="cls-4" d="M66.37,81.82a2.07,2.07,0,0,0,0-4.14H63.61a1.38,1.38,0,0,1-1.38-1.38V70.78a11.69,11.69,0,0,0-4.14-8.94V76.3a5.52,5.52,0,0,0,5.52,5.52Z"/><path class="cls-6" d="M58.09,85.8v-24a11.75,11.75,0,0,0-15.18,0v24Z"/><path class="cls-4" d="M49.12,66h2.76a2.77,2.77,0,0,0,2.76-2.76V59.81a11.66,11.66,0,0,0-8.28,0v3.38A2.76,2.76,0,0,0,49.12,66Z"/><path class="cls-2" d="M58.09,85.8v-24a11.75,11.75,0,0,0-15.18,0v24Z"/><ellipse class="cls-1" cx="50.5" cy="89.29" rx="14.95" ry="1.72"/><path class="cls-5" d="M38.37,81.83a3.45,3.45,0,1,0-.58,6.87l10.9.37,1.44-5.76Z"/><path class="cls-2" d="M38.37,81.83a3.45,3.45,0,1,0-.58,6.87l10.9.37,1.44-5.76Z"/><path class="cls-4" d="M50.19,83.57l2.07-.26,1.44,5.76-2.92.1a2.81,2.81,0,0,1-3-2.57h0A2.82,2.82,0,0,1,50.19,83.57Z"/><path class="cls-5" d="M64,81.83a3.45,3.45,0,1,1,.58,6.87l-10.89.37-1.44-5.76Z"/><path class="cls-2" d="M64,81.83a3.45,3.45,0,1,1,.58,6.87l-10.89.37-1.44-5.76Z"/></g></g></svg>