<svg width="2834" height="588" viewBox="0 0 2834 588" fill="none" xmlns="http://www.w3.org/2000/svg">
<path d="M0.512735 580V0.399961H135.477L455.085 386.248H391.329V0.399961H551.961V580H416.997L97.3887 194.152H161.145V580H0.512735ZM895.303 587.452C842.311 587.452 795.943 577.516 756.199 557.644C717.007 537.22 686.371 509.62 664.291 474.844C642.763 439.516 631.999 399.496 631.999 354.784C631.999 310.072 642.487 270.328 663.463 235.552C684.991 200.224 714.523 172.9 752.059 153.58C789.595 133.708 831.823 123.772 878.743 123.772C922.903 123.772 963.199 132.88 999.631 151.096C1036.06 168.76 1065.04 194.98 1086.57 229.756C1108.1 264.532 1118.86 306.76 1118.86 356.44C1118.86 361.96 1118.59 368.308 1118.03 375.484C1117.48 382.66 1116.93 389.284 1116.38 395.356H761.167V312.556H1032.75L973.135 335.74C973.687 315.316 969.823 297.652 961.543 282.748C953.815 267.844 942.775 256.252 928.423 247.972C914.623 239.692 898.339 235.552 879.571 235.552C860.803 235.552 844.243 239.692 829.891 247.972C816.091 256.252 805.327 268.12 797.599 283.576C789.871 298.48 786.007 316.144 786.007 336.568V360.58C786.007 382.66 790.423 401.704 799.255 417.712C808.639 433.72 821.887 446.14 838.999 454.972C856.111 463.252 876.535 467.392 900.271 467.392C922.351 467.392 941.119 464.356 956.575 458.284C972.583 451.66 988.315 441.724 1003.77 428.476L1086.57 514.588C1065.04 538.324 1038.55 556.54 1007.08 569.236C975.619 581.38 938.359 587.452 895.303 587.452ZM1354.51 587.452C1316.42 587.452 1279.16 583.036 1242.73 574.204C1206.85 565.372 1177.87 554.332 1155.79 541.084L1202.99 433.444C1223.96 446.14 1248.53 456.352 1276.68 464.08C1304.83 471.256 1332.43 474.844 1359.48 474.844C1385.98 474.844 1404.19 472.084 1414.13 466.564C1424.62 461.044 1429.86 453.592 1429.86 444.208C1429.86 435.376 1424.89 429.028 1414.96 425.164C1405.57 420.748 1392.88 417.436 1376.87 415.228C1361.41 413.02 1344.3 410.536 1325.53 407.776C1306.76 405.016 1287.72 401.428 1268.4 397.012C1249.63 392.044 1232.24 384.868 1216.24 375.484C1200.78 365.548 1188.36 352.3 1178.98 335.74C1169.59 319.18 1164.9 298.204 1164.9 272.812C1164.9 244.108 1173.18 218.716 1189.74 196.636C1206.85 174.004 1231.69 156.34 1264.26 143.644C1296.83 130.396 1336.57 123.772 1383.49 123.772C1414.96 123.772 1446.7 127.084 1478.71 133.708C1511.28 139.78 1538.6 149.164 1560.68 161.86L1513.49 268.672C1491.41 255.976 1469.33 247.42 1447.25 243.004C1425.17 238.036 1404.19 235.552 1384.32 235.552C1357.82 235.552 1339.06 238.588 1328.02 244.66C1317.53 250.732 1312.28 258.184 1312.28 267.016C1312.28 275.848 1316.98 282.748 1326.36 287.716C1335.74 292.132 1348.16 295.72 1363.62 298.48C1379.63 300.688 1397.02 303.172 1415.78 305.932C1434.55 308.14 1453.32 311.728 1472.09 316.696C1491.41 321.664 1508.8 329.116 1524.25 339.052C1540.26 348.436 1552.96 361.408 1562.34 377.968C1571.72 393.976 1576.42 414.676 1576.42 440.068C1576.42 467.668 1567.86 492.508 1550.75 514.588C1534.19 536.668 1509.35 554.332 1476.23 567.58C1443.66 580.828 1403.09 587.452 1354.51 587.452ZM1844.59 587.452C1787.18 587.452 1742.47 573.376 1710.45 545.224C1678.43 516.52 1662.43 473.464 1662.43 416.056V31.036H1819.75V414.4C1819.75 430.408 1824.16 443.104 1832.99 452.488C1841.83 461.32 1853.14 465.736 1866.94 465.736C1885.71 465.736 1901.72 461.044 1914.97 451.66L1953.88 561.784C1940.63 570.616 1924.35 576.964 1905.03 580.828C1885.71 585.244 1865.56 587.452 1844.59 587.452ZM1597.01 265.36V147.784H1922.42V265.36H1597.01ZM2236.76 587.452C2183.77 587.452 2137.4 577.516 2097.66 557.644C2058.46 537.22 2027.83 509.62 2005.75 474.844C1984.22 439.516 1973.46 399.496 1973.46 354.784C1973.46 310.072 1983.94 270.328 2004.92 235.552C2026.45 200.224 2055.98 172.9 2093.52 153.58C2131.05 133.708 2173.28 123.772 2220.2 123.772C2264.36 123.772 2304.66 132.88 2341.09 151.096C2377.52 168.76 2406.5 194.98 2428.03 229.756C2449.56 264.532 2460.32 306.76 2460.32 356.44C2460.32 361.96 2460.04 368.308 2459.49 375.484C2458.94 382.66 2458.39 389.284 2457.84 395.356H2102.62V312.556H2374.21L2314.59 335.74C2315.14 315.316 2311.28 297.652 2303 282.748C2295.27 267.844 2284.23 256.252 2269.88 247.972C2256.08 239.692 2239.8 235.552 2221.03 235.552C2202.26 235.552 2185.7 239.692 2171.35 247.972C2157.55 256.252 2146.78 268.12 2139.06 283.576C2131.33 298.48 2127.46 316.144 2127.46 336.568V360.58C2127.46 382.66 2131.88 401.704 2140.71 417.712C2150.1 433.72 2163.34 446.14 2180.46 454.972C2197.57 463.252 2217.99 467.392 2241.73 467.392C2263.81 467.392 2282.58 464.356 2298.03 458.284C2314.04 451.66 2329.77 441.724 2345.23 428.476L2428.03 514.588C2406.5 538.324 2380 556.54 2348.54 569.236C2317.08 581.38 2279.82 587.452 2236.76 587.452ZM2532.85 580V131.224H2682.72V262.048L2660.37 224.788C2673.61 191.116 2695.14 166 2724.95 149.44C2754.76 132.328 2790.91 123.772 2833.42 123.772V265.36C2826.24 264.256 2819.89 263.704 2814.37 263.704C2809.41 263.152 2803.89 262.876 2797.81 262.876C2765.8 262.876 2739.85 271.708 2719.98 289.372C2700.11 306.484 2690.17 334.636 2690.17 373.828V580H2532.85Z" fill="#EB9D70"/>
</svg>
