<svg viewBox="0 0 180 363" fill="none" xmlns="http://www.w3.org/2000/svg">
<path fill-rule="evenodd" clip-rule="evenodd" d="M147.893 362.326H30.5528C22.8018 362.315 15.3716 359.23 9.89272 353.748C4.41381 348.265 1.33375 340.833 1.32842 333.082V106.975C0.906279 106.552 0.57169 106.05 0.343757 105.497C0.115824 104.944 -0.000959022 104.352 6.62081e-05 103.755V82.7219C0.000994132 81.7889 0.281395 80.8776 0.805134 80.1054C0.279563 79.3417 -0.0012163 78.4361 6.62081e-05 77.509V56.4763C-0.00317468 55.8783 0.112596 55.2856 0.340655 54.7327C0.568714 54.1798 0.90448 53.6779 1.32842 53.256V29.2445C1.33375 21.4935 4.41381 14.0612 9.89272 8.5785C15.3716 3.09582 22.8018 0.0106598 30.5528 0H147.893C155.644 0.0106598 163.074 3.09582 168.553 8.5785C174.032 14.0612 177.112 21.4935 177.118 29.2445V52.6522C177.717 53.1373 178.2 53.7508 178.531 54.4475C178.862 55.1442 179.033 55.9063 179.03 56.6776V93.1075C179.036 93.8793 178.867 94.6423 178.535 95.3395C178.204 96.0366 177.719 96.6498 177.118 97.1329V333.082C177.112 340.833 174.032 348.265 168.553 353.748C163.074 359.23 155.644 362.315 147.893 362.326ZM29.1443 355.463H149.484C155.228 355.436 160.729 353.141 164.789 349.078C168.849 345.014 171.139 339.51 171.16 333.766V28.5603C171.139 22.8089 168.844 17.2995 164.775 13.2346C160.706 9.16965 155.195 6.87927 149.443 6.86337H125.774C124.619 6.86024 123.482 7.15493 122.474 7.719C121.465 8.28308 120.619 9.0975 120.018 10.0837L116.093 16.4438C115.491 17.43 114.645 18.2444 113.637 18.8085C112.629 19.3726 111.492 19.6673 110.337 19.6641H66.0572C64.87 19.6642 63.7038 19.3517 62.6756 18.7582C61.6475 18.1646 60.7938 17.3109 60.2002 16.2828L56.7384 10.2447C56.1448 9.2166 55.291 8.36286 54.2629 7.76931C53.2348 7.17576 52.0686 6.86331 50.8814 6.86337H29.1443C23.3929 6.87927 17.8814 9.16965 13.8127 13.2346C9.74398 17.2995 7.44849 22.8089 7.42725 28.5603V333.766C7.44849 339.517 9.74398 345.027 13.8127 349.092C17.8814 353.157 23.3929 355.447 29.1443 355.463Z" fill="black"/>
</svg>
