<svg width="2410" height="1032" viewBox="0 0 2410 1032" fill="none" xmlns="http://www.w3.org/2000/svg">
<g clip-path="url(#clip0_180_1330)">
<path d="M879.07 632.35V1016.79C879.07 1024.98 885.777 1031.69 893.967 1031.69H1082.37C1091.95 1031.69 1098.32 1024.24 1098.32 1016.79V721.062C1098.32 715.34 1095.01 710.132 1089.83 707.71L900.037 618.998C890.273 614.426 879.07 621.556 879.07 632.35Z" fill="black"/>
<path d="M1098.34 313.258C1098.34 304.75 1091.97 297.302 1082.38 297.302H893.983C886.535 297.302 879.087 304.75 879.087 313.258V381.594C879.087 387.286 882.372 392.464 887.504 394.901L1077.3 484.87C1087.08 489.502 1098.34 482.372 1098.34 471.563V313.258Z" fill="black"/>
<path d="M358.742 814.967C361.937 804.324 368.507 800.403 378.271 805.339C437.826 833.784 479.17 846.425 532.836 850.542C566.792 853.146 592.725 838.008 592.725 803.128C592.725 740.333 290.149 750.507 290.149 518.477C290.149 375.856 397.649 281.119 559.435 281.119C635.007 281.119 706.219 304.326 796.975 353.194C805.483 358.523 809.782 365.577 806.361 373.419L739.312 526.985C736.117 537.627 728.7 540.034 720.177 534.706C653.854 503.293 607.318 483.34 570.062 480.161C537.075 480.161 515.775 495.043 515.775 518.477C515.775 581.272 817.003 577.018 817.003 811.182C817.003 952.728 707.066 1031.49 543.161 1031.49C451.845 1031.49 383.025 1016.81 309.83 978.6C307.18 977.222 304.728 975.436 302.79 973.165C297.931 967.458 297.143 960.358 302.003 950.124L358.742 814.967Z" fill="black"/>
<path d="M2098.24 312.199C2099.32 304.75 2092.93 297.302 2083.36 297.302H1510.73C1503.28 297.302 1495.83 304.75 1495.83 313.258V473.97C1495.83 482.493 1503.28 488.866 1510.73 488.866H1687.41V1016.79C1687.41 1024.24 1694.86 1031.69 1703.38 1031.69H1891.77C1900.29 1031.69 1906.66 1026.36 1906.66 1017.34V492.363L2081.86 488.866C2089.31 488.866 2097.82 482.493 2098.89 473.97L2098.24 312.199Z" fill="black"/>
<path d="M1606.3 840.127H1408.35V313.258C1408.35 304.75 1400.9 297.302 1392.38 297.302H1203.99C1195.47 297.302 1188.02 304.75 1188.02 313.258V1016.81C1188.02 1024.26 1195.47 1031.71 1203.99 1031.71H1603.12C1611.63 1031.71 1619.08 1024.26 1620.15 1016.81V855.039C1620.15 846.516 1613.75 840.142 1606.3 840.142V840.127Z" fill="black"/>
<path d="M1945.36 1.94779L516.471 -0.322998C234.197 -0.322998 4.54395 229.33 4.54395 511.604C4.54395 684.911 91.1367 838.325 223.297 930.989C228.686 934.758 236.195 932.548 238.723 926.477L303.486 770.974C306.029 764.888 304.379 757.894 299.474 753.473C232.864 693.646 190.991 606.78 191.369 510.302C192.066 332.212 341.045 186.518 519.15 186.518H1898.14C2077.41 186.518 2223.24 332.348 2223.24 511.619C2223.24 659.251 2122.86 790.139 1986.82 830.665C1979.13 832.951 1973.86 840.021 1973.86 848.044V1008.77C1973.86 1017.07 1981.43 1023.3 1989.58 1021.73C2227.24 975.769 2410.07 761.194 2410.07 511.619C2410.07 247.057 2207.14 26.0182 1945.36 1.96292V1.94779Z" fill="#0088FF"/>
</g>
<defs>
<clipPath id="clip0_180_1330">
<rect width="2410" height="1032" fill="white"/>
</clipPath>
</defs>
</svg>
