<svg width="2410" height="1032" viewBox="0 0 2410 1032" fill="none" xmlns="http://www.w3.org/2000/svg">
<path d="M1046.83 297H879.428C873.418 297 868.559 301.859 868.559 307.869V394.659C868.559 399.23 871.193 403.394 875.31 405.377L1040.71 484.37C1048.59 488.14 1057.7 482.387 1057.7 473.652V307.869C1057.7 301.859 1052.83 297 1046.83 297Z" fill="white"/>
<path d="M2031.25 307.824C2031.22 301.829 2026.36 297 2020.38 297H1462.39C1456.38 297 1451.52 301.859 1451.52 307.869V463.554C1451.52 469.564 1456.39 474.424 1462.39 474.424H1646.77V1016.83C1646.77 1022.84 1651.65 1027.69 1657.64 1027.69H1825.05C1831.06 1027.69 1835.92 1022.82 1835.92 1016.83V478.315L2020.5 478.617C2026.74 478.617 2031.81 473.561 2031.78 467.309L2031.22 307.808L2031.25 307.824Z" fill="white"/>
<path d="M1559.92 866.756H1354.92V307.869C1354.92 301.859 1350.04 297 1344.05 297H1175.55C1169.54 297 1164.68 301.874 1164.68 307.869V1016.83C1164.68 1022.84 1169.56 1027.69 1175.55 1027.69H1559.92C1565.93 1027.69 1570.79 1022.82 1570.79 1016.83V967.836V877.626C1570.79 871.616 1565.92 866.756 1559.92 866.756Z" fill="white"/>
<path d="M1050.95 673.648L885.544 594.655C877.672 590.885 868.559 596.638 868.559 605.373V1016.83C868.559 1022.84 873.433 1027.69 879.428 1027.69H1046.83C1052.84 1027.69 1057.7 1022.82 1057.7 1016.83V684.351C1057.7 679.779 1055.07 675.616 1050.95 673.633V673.648Z" fill="white"/>
<path d="M593.308 591.763C538.87 570.615 499.539 555.34 499.539 521.762C499.539 488.185 528.666 465.553 572.038 465.553L573.492 465.613C608.265 468.58 647.474 483.401 707.498 511.135C713.039 513.693 719.625 511.196 722.047 505.609L780.088 371.92C782.374 366.667 780.179 360.521 775.092 357.917C691.966 315.408 627.007 296.999 561.184 296.999C404.878 296.999 303.873 385.227 303.873 521.762C303.873 665.337 427.268 710.42 517.373 743.331C572.462 763.465 612.262 777.998 612.262 811.894C612.262 831.619 605.601 848.211 592.99 859.883C578.593 873.22 557.763 879.245 532.754 877.338C482.645 873.493 441.528 862.502 386.833 837.841C381.262 835.328 374.691 837.947 372.345 843.579L320.919 967.322C318.724 972.59 320.965 978.721 326.081 981.234C392.631 1013.93 457.197 1027.48 544.592 1027.48C708.619 1027.48 806.55 949.958 806.55 820.099C806.55 674.602 683.292 626.718 593.308 591.763Z" fill="white"/>
<path d="M2260.63 167.519C2174.17 72.8876 2056.73 14.2861 1929.87 2.43256L533.783 0.0709229C250.661 0.0709229 20.2969 230.435 20.2969 513.587C20.2969 686.485 106.224 839.673 237.581 932.76C243.319 936.817 251.342 934.441 254.022 927.961L307.703 798.118C309.914 792.759 308.4 786.597 303.994 782.843C225.546 715.809 179.631 617.62 179.631 513.587C179.631 318.299 338.51 159.42 533.798 159.42H1886.28C2075.38 159.42 2233.23 309.671 2235.85 498.752C2237.16 594.004 2200.8 685.32 2133.8 755.381C2076.15 815.648 2002.49 852.859 1923.4 862.532C1917.83 863.214 1913.62 867.922 1913.62 873.538V1013.75C1913.62 1019.05 1918.18 1023.18 1923.45 1022.71C2043.36 1011.97 2155.61 958.678 2243.23 869.875C2341.24 770.565 2395.21 640.54 2395.21 503.763C2395.21 375.599 2347.4 262.499 2260.6 167.489L2260.63 167.519Z" fill="#0088FF"/>
</svg>
