<svg width="508" height="543" viewBox="0 0 508 543" fill="none" xmlns="http://www.w3.org/2000/svg">
<g clip-path="url(#clip0_0_1)">
<g filter="url(#filter0_d_0_1)">
<rect x="24" y="500" width="198" height="43" rx="10" fill="#2963FF"/>
</g>
<path d="M79.9062 512.732V515.428C78.5911 514.327 77.2305 513.777 75.8242 513.777C74.2747 513.777 72.9694 514.334 71.9082 515.447C70.8405 516.554 70.3066 517.908 70.3066 519.51C70.3066 521.092 70.8405 522.426 71.9082 523.514C72.9759 524.601 74.2845 525.145 75.834 525.145C76.6348 525.145 77.3151 525.014 77.875 524.754C78.1875 524.624 78.5098 524.448 78.8418 524.227C79.1803 524.005 79.5352 523.738 79.9062 523.426V526.17C78.6042 526.906 77.237 527.273 75.8047 527.273C73.6497 527.273 71.8105 526.521 70.2871 525.018C68.7702 523.501 68.0117 521.671 68.0117 519.529C68.0117 517.609 68.6465 515.896 69.916 514.393C71.4785 512.55 73.5 511.629 75.9805 511.629C77.3346 511.629 78.6432 511.997 79.9062 512.732ZM81.918 522.176C81.918 520.802 82.4095 519.633 83.3926 518.67C84.3757 517.706 85.5736 517.225 86.9863 517.225C88.4056 517.225 89.61 517.71 90.5996 518.68C91.5762 519.65 92.0645 520.841 92.0645 522.254C92.0645 523.68 91.5729 524.874 90.5898 525.838C89.6003 526.795 88.3861 527.273 86.9473 527.273C85.5215 527.273 84.3268 526.785 83.3633 525.809C82.3997 524.845 81.918 523.634 81.918 522.176ZM84.1641 522.215C84.1641 523.165 84.418 523.917 84.9258 524.471C85.4466 525.031 86.1335 525.311 86.9863 525.311C87.8457 525.311 88.5326 525.034 89.0469 524.48C89.5612 523.927 89.8184 523.188 89.8184 522.264C89.8184 521.339 89.5612 520.6 89.0469 520.047C88.526 519.487 87.8392 519.207 86.9863 519.207C86.1465 519.207 85.4661 519.487 84.9453 520.047C84.4245 520.607 84.1641 521.329 84.1641 522.215ZM94.3984 517.488H96.6055V518.367C97.3737 517.605 98.2396 517.225 99.2031 517.225C100.31 517.225 101.173 517.573 101.791 518.27C102.325 518.862 102.592 519.829 102.592 521.17V527H100.385V521.688C100.385 520.75 100.255 520.102 99.9941 519.744C99.7402 519.38 99.278 519.197 98.6074 519.197C97.8783 519.197 97.3607 519.438 97.0547 519.92C96.7552 520.395 96.6055 521.225 96.6055 522.41V527H94.3984V517.488ZM113.207 514.979H111.01V514.09C111.01 513.608 110.854 513.185 110.541 512.82C110.209 512.449 109.802 512.264 109.32 512.264C108.845 512.264 108.445 512.446 108.119 512.811C107.8 513.169 107.641 513.595 107.641 514.09V517.488H110.16V519.539H107.641V527H105.443V519.539H104.662V517.488H105.443V514.09C105.443 513.022 105.821 512.111 106.576 511.355C107.338 510.594 108.256 510.213 109.33 510.213C110.398 510.213 111.309 510.594 112.064 511.355C112.826 512.111 113.207 513.022 113.207 514.09V514.979ZM113.207 527H111.01V517.488H113.207V527ZM116 517.488H118.197V518.338C118.601 517.915 118.959 517.625 119.271 517.469C119.59 517.306 119.968 517.225 120.404 517.225C120.984 517.225 121.589 517.413 122.221 517.791L121.215 519.803C120.798 519.503 120.391 519.354 119.994 519.354C118.796 519.354 118.197 520.258 118.197 522.068V527H116V517.488ZM123.793 517.488H125.99V518.367C126.413 517.924 126.775 517.625 127.074 517.469C127.393 517.306 127.794 517.225 128.275 517.225C129.35 517.225 130.199 517.693 130.824 518.631C131.514 517.693 132.449 517.225 133.627 517.225C135.769 517.225 136.84 518.523 136.84 521.121V527H134.633V521.717C134.633 520.805 134.522 520.161 134.301 519.783C134.073 519.399 133.699 519.207 133.178 519.207C132.572 519.207 132.13 519.435 131.85 519.891C131.576 520.346 131.439 521.079 131.439 522.088V527H129.232V521.746C129.232 520.053 128.744 519.207 127.768 519.207C127.149 519.207 126.697 519.438 126.41 519.9C126.13 520.363 125.99 521.092 125.99 522.088V527H123.793V517.488ZM148.275 522.762H141.459C141.518 523.543 141.771 524.165 142.221 524.627C142.67 525.083 143.246 525.311 143.949 525.311C144.496 525.311 144.949 525.18 145.307 524.92C145.658 524.66 146.059 524.178 146.508 523.475L148.363 524.51C148.077 524.998 147.774 525.418 147.455 525.77C147.136 526.115 146.794 526.401 146.43 526.629C146.065 526.85 145.671 527.013 145.248 527.117C144.825 527.221 144.366 527.273 143.871 527.273C142.452 527.273 141.312 526.818 140.453 525.906C139.594 524.988 139.164 523.771 139.164 522.254C139.164 520.75 139.581 519.533 140.414 518.602C141.254 517.684 142.367 517.225 143.754 517.225C145.154 517.225 146.26 517.671 147.074 518.562C147.882 519.448 148.285 520.675 148.285 522.244L148.275 522.762ZM146.02 520.965C145.714 519.793 144.975 519.207 143.803 519.207C143.536 519.207 143.285 519.249 143.051 519.334C142.816 519.412 142.602 519.529 142.406 519.686C142.217 519.835 142.055 520.018 141.918 520.232C141.781 520.447 141.677 520.691 141.605 520.965H146.02ZM157.699 510.506H159.906V527H157.699V526.004C156.833 526.85 155.854 527.273 154.76 527.273C153.458 527.273 152.377 526.798 151.518 525.848C150.665 524.878 150.238 523.667 150.238 522.215C150.238 520.796 150.665 519.611 151.518 518.66C152.364 517.703 153.428 517.225 154.711 517.225C155.824 517.225 156.82 517.68 157.699 518.592V510.506ZM152.484 522.215C152.484 523.126 152.729 523.868 153.217 524.441C153.718 525.021 154.35 525.311 155.111 525.311C155.925 525.311 156.583 525.031 157.084 524.471C157.585 523.891 157.836 523.156 157.836 522.264C157.836 521.372 157.585 520.636 157.084 520.057C156.583 519.49 155.932 519.207 155.131 519.207C154.376 519.207 153.744 519.493 153.236 520.066C152.735 520.646 152.484 521.362 152.484 522.215ZM171.049 517.488V522.947C171.049 524.523 171.671 525.311 172.914 525.311C174.158 525.311 174.779 524.523 174.779 522.947V517.488H176.977V522.996C176.977 523.758 176.882 524.415 176.693 524.969C176.511 525.464 176.195 525.91 175.746 526.307C175.004 526.951 174.06 527.273 172.914 527.273C171.775 527.273 170.834 526.951 170.092 526.307C169.636 525.91 169.314 525.464 169.125 524.969C168.943 524.526 168.852 523.868 168.852 522.996V517.488H171.049ZM185.277 519.109L183.461 520.076C183.174 519.49 182.82 519.197 182.396 519.197C182.195 519.197 182.022 519.266 181.879 519.402C181.736 519.533 181.664 519.702 181.664 519.91C181.664 520.275 182.087 520.636 182.934 520.994C184.099 521.495 184.883 521.958 185.287 522.381C185.691 522.804 185.893 523.374 185.893 524.09C185.893 525.008 185.554 525.776 184.877 526.395C184.219 526.98 183.425 527.273 182.494 527.273C180.899 527.273 179.77 526.495 179.105 524.939L180.98 524.07C181.241 524.526 181.439 524.816 181.576 524.939C181.843 525.187 182.162 525.311 182.533 525.311C183.275 525.311 183.646 524.972 183.646 524.295C183.646 523.904 183.36 523.54 182.787 523.201C182.566 523.09 182.344 522.983 182.123 522.879C181.902 522.775 181.677 522.667 181.449 522.557C180.811 522.244 180.362 521.932 180.102 521.619C179.77 521.222 179.604 520.711 179.604 520.086C179.604 519.259 179.887 518.576 180.453 518.035C181.033 517.495 181.736 517.225 182.562 517.225C183.78 517.225 184.685 517.853 185.277 519.109ZM196.537 522.762H189.721C189.779 523.543 190.033 524.165 190.482 524.627C190.932 525.083 191.508 525.311 192.211 525.311C192.758 525.311 193.21 525.18 193.568 524.92C193.92 524.66 194.32 524.178 194.77 523.475L196.625 524.51C196.339 524.998 196.036 525.418 195.717 525.77C195.398 526.115 195.056 526.401 194.691 526.629C194.327 526.85 193.933 527.013 193.51 527.117C193.087 527.221 192.628 527.273 192.133 527.273C190.714 527.273 189.574 526.818 188.715 525.906C187.855 524.988 187.426 523.771 187.426 522.254C187.426 520.75 187.842 519.533 188.676 518.602C189.516 517.684 190.629 517.225 192.016 517.225C193.415 517.225 194.522 517.671 195.336 518.562C196.143 519.448 196.547 520.675 196.547 522.244L196.537 522.762ZM194.281 520.965C193.975 519.793 193.236 519.207 192.064 519.207C191.798 519.207 191.547 519.249 191.312 519.334C191.078 519.412 190.863 519.529 190.668 519.686C190.479 519.835 190.316 520.018 190.18 520.232C190.043 520.447 189.939 520.691 189.867 520.965H194.281ZM198.949 517.488H201.146V518.338C201.55 517.915 201.908 517.625 202.221 517.469C202.54 517.306 202.917 517.225 203.354 517.225C203.933 517.225 204.538 517.413 205.17 517.791L204.164 519.803C203.747 519.503 203.34 519.354 202.943 519.354C201.745 519.354 201.146 520.258 201.146 522.068V527H198.949V517.488Z" fill="white"/>
<path fill-rule="evenodd" clip-rule="evenodd" d="M37.2489 521.079C36.917 520.739 36.917 520.187 37.2489 519.846L38.451 518.614C38.7829 518.273 39.3212 518.273 39.6531 518.614L43.375 522.43L51.3469 514.255C51.6788 513.915 52.2171 513.915 52.549 514.255L53.7511 515.488C54.083 515.828 54.083 516.38 53.7511 516.721L43.976 526.745C43.6441 527.085 43.1059 527.085 42.774 526.745L37.2489 521.079Z" fill="white"/>
</g>
<g clip-path="url(#clip1_0_1)">
<g filter="url(#filter1_d_0_1)">
<rect x="286" y="500" width="208" height="43" rx="10" fill="#FF3295"/>
</g>
<path d="M333.766 527V511.922H336.93C338.447 511.922 339.645 512.072 340.523 512.371C341.467 512.664 342.324 513.162 343.092 513.865C344.648 515.285 345.426 517.15 345.426 519.461C345.426 521.779 344.615 523.654 342.994 525.086C342.18 525.802 341.327 526.3 340.436 526.58C339.602 526.86 338.421 527 336.891 527H333.766ZM336.041 524.861H337.066C338.089 524.861 338.938 524.754 339.615 524.539C340.292 524.311 340.904 523.95 341.451 523.455C342.571 522.433 343.131 521.102 343.131 519.461C343.131 517.807 342.577 516.466 341.471 515.438C340.475 514.52 339.007 514.061 337.066 514.061H336.041V524.861ZM356.539 522.762H349.723C349.781 523.543 350.035 524.165 350.484 524.627C350.934 525.083 351.51 525.311 352.213 525.311C352.76 525.311 353.212 525.18 353.57 524.92C353.922 524.66 354.322 524.178 354.771 523.475L356.627 524.51C356.34 524.998 356.038 525.418 355.719 525.77C355.4 526.115 355.058 526.401 354.693 526.629C354.329 526.85 353.935 527.013 353.512 527.117C353.089 527.221 352.63 527.273 352.135 527.273C350.715 527.273 349.576 526.818 348.717 525.906C347.857 524.988 347.428 523.771 347.428 522.254C347.428 520.75 347.844 519.533 348.678 518.602C349.518 517.684 350.631 517.225 352.018 517.225C353.417 517.225 354.524 517.671 355.338 518.562C356.145 519.448 356.549 520.675 356.549 522.244L356.539 522.762ZM354.283 520.965C353.977 519.793 353.238 519.207 352.066 519.207C351.799 519.207 351.549 519.249 351.314 519.334C351.08 519.412 350.865 519.529 350.67 519.686C350.481 519.835 350.318 520.018 350.182 520.232C350.045 520.447 349.941 520.691 349.869 520.965H354.283ZM358.951 517.488H361.158V518.367C361.926 517.605 362.792 517.225 363.756 517.225C364.863 517.225 365.725 517.573 366.344 518.27C366.878 518.862 367.145 519.829 367.145 521.17V527H364.938V521.688C364.938 520.75 364.807 520.102 364.547 519.744C364.293 519.38 363.831 519.197 363.16 519.197C362.431 519.197 361.913 519.438 361.607 519.92C361.308 520.395 361.158 521.225 361.158 522.41V527H358.951V517.488ZM378.59 522.762H371.773C371.832 523.543 372.086 524.165 372.535 524.627C372.984 525.083 373.561 525.311 374.264 525.311C374.811 525.311 375.263 525.18 375.621 524.92C375.973 524.66 376.373 524.178 376.822 523.475L378.678 524.51C378.391 524.998 378.089 525.418 377.77 525.77C377.451 526.115 377.109 526.401 376.744 526.629C376.38 526.85 375.986 527.013 375.562 527.117C375.139 527.221 374.68 527.273 374.186 527.273C372.766 527.273 371.627 526.818 370.768 525.906C369.908 524.988 369.479 523.771 369.479 522.254C369.479 520.75 369.895 519.533 370.729 518.602C371.568 517.684 372.682 517.225 374.068 517.225C375.468 517.225 376.575 517.671 377.389 518.562C378.196 519.448 378.6 520.675 378.6 522.244L378.59 522.762ZM376.334 520.965C376.028 519.793 375.289 519.207 374.117 519.207C373.85 519.207 373.6 519.249 373.365 519.334C373.131 519.412 372.916 519.529 372.721 519.686C372.532 519.835 372.369 520.018 372.232 520.232C372.096 520.447 371.992 520.691 371.92 520.965H376.334ZM390.201 526.775C390.201 527.225 390.185 527.618 390.152 527.957C390.126 528.302 390.087 528.605 390.035 528.865C389.879 529.581 389.573 530.197 389.117 530.711C388.258 531.701 387.076 532.195 385.572 532.195C384.303 532.195 383.258 531.854 382.438 531.17C381.591 530.467 381.103 529.493 380.973 528.25H383.18C383.264 528.719 383.404 529.08 383.6 529.334C384.055 529.926 384.719 530.223 385.592 530.223C387.2 530.223 388.004 529.236 388.004 527.264V525.936C387.132 526.827 386.126 527.273 384.986 527.273C383.691 527.273 382.63 526.805 381.803 525.867C380.969 524.917 380.553 523.729 380.553 522.303C380.553 520.916 380.94 519.738 381.715 518.768C382.548 517.739 383.648 517.225 385.016 517.225C386.214 517.225 387.21 517.671 388.004 518.562V517.488H390.201V526.775ZM388.092 522.264C388.092 521.339 387.844 520.6 387.35 520.047C386.848 519.48 386.207 519.197 385.426 519.197C384.592 519.197 383.935 519.507 383.453 520.125C383.017 520.678 382.799 521.395 382.799 522.273C382.799 523.139 383.017 523.849 383.453 524.402C383.928 525.008 384.586 525.311 385.426 525.311C386.266 525.311 386.93 525.005 387.418 524.393C387.867 523.839 388.092 523.13 388.092 522.264ZM399.986 517.488H402.193V527H399.986V526.004C399.081 526.85 398.108 527.273 397.066 527.273C395.751 527.273 394.664 526.798 393.805 525.848C392.952 524.878 392.525 523.667 392.525 522.215C392.525 520.789 392.952 519.601 393.805 518.65C394.658 517.7 395.725 517.225 397.008 517.225C398.115 517.225 399.107 517.68 399.986 518.592V517.488ZM394.771 522.215C394.771 523.126 395.016 523.868 395.504 524.441C396.005 525.021 396.637 525.311 397.398 525.311C398.212 525.311 398.87 525.031 399.371 524.471C399.872 523.891 400.123 523.156 400.123 522.264C400.123 521.372 399.872 520.636 399.371 520.057C398.87 519.49 398.219 519.207 397.418 519.207C396.663 519.207 396.031 519.493 395.523 520.066C395.022 520.646 394.771 521.362 394.771 522.215ZM407.232 519.539V527H405.035V519.539H404.098V517.488H405.035V514.002H407.232V517.488H408.941V519.539H407.232ZM419.273 522.762H412.457C412.516 523.543 412.77 524.165 413.219 524.627C413.668 525.083 414.244 525.311 414.947 525.311C415.494 525.311 415.947 525.18 416.305 524.92C416.656 524.66 417.057 524.178 417.506 523.475L419.361 524.51C419.075 524.998 418.772 525.418 418.453 525.77C418.134 526.115 417.792 526.401 417.428 526.629C417.063 526.85 416.669 527.013 416.246 527.117C415.823 527.221 415.364 527.273 414.869 527.273C413.45 527.273 412.311 526.818 411.451 525.906C410.592 524.988 410.162 523.771 410.162 522.254C410.162 520.75 410.579 519.533 411.412 518.602C412.252 517.684 413.365 517.225 414.752 517.225C416.152 517.225 417.258 517.671 418.072 518.562C418.88 519.448 419.283 520.675 419.283 522.244L419.273 522.762ZM417.018 520.965C416.712 519.793 415.973 519.207 414.801 519.207C414.534 519.207 414.283 519.249 414.049 519.334C413.814 519.412 413.6 519.529 413.404 519.686C413.215 519.835 413.053 520.018 412.916 520.232C412.779 520.447 412.675 520.691 412.604 520.965H417.018ZM428.697 510.506H430.904V527H428.697V526.004C427.831 526.85 426.852 527.273 425.758 527.273C424.456 527.273 423.375 526.798 422.516 525.848C421.663 524.878 421.236 523.667 421.236 522.215C421.236 520.796 421.663 519.611 422.516 518.66C423.362 517.703 424.426 517.225 425.709 517.225C426.822 517.225 427.818 517.68 428.697 518.592V510.506ZM423.482 522.215C423.482 523.126 423.727 523.868 424.215 524.441C424.716 525.021 425.348 525.311 426.109 525.311C426.923 525.311 427.581 525.031 428.082 524.471C428.583 523.891 428.834 523.156 428.834 522.264C428.834 521.372 428.583 520.636 428.082 520.057C427.581 519.49 426.93 519.207 426.129 519.207C425.374 519.207 424.742 519.493 424.234 520.066C423.733 520.646 423.482 521.362 423.482 522.215ZM442.047 517.488V522.947C442.047 524.523 442.669 525.311 443.912 525.311C445.156 525.311 445.777 524.523 445.777 522.947V517.488H447.975V522.996C447.975 523.758 447.88 524.415 447.691 524.969C447.509 525.464 447.193 525.91 446.744 526.307C446.002 526.951 445.058 527.273 443.912 527.273C442.773 527.273 441.832 526.951 441.09 526.307C440.634 525.91 440.312 525.464 440.123 524.969C439.941 524.526 439.85 523.868 439.85 522.996V517.488H442.047ZM456.275 519.109L454.459 520.076C454.173 519.49 453.818 519.197 453.395 519.197C453.193 519.197 453.02 519.266 452.877 519.402C452.734 519.533 452.662 519.702 452.662 519.91C452.662 520.275 453.085 520.636 453.932 520.994C455.097 521.495 455.882 521.958 456.285 522.381C456.689 522.804 456.891 523.374 456.891 524.09C456.891 525.008 456.552 525.776 455.875 526.395C455.217 526.98 454.423 527.273 453.492 527.273C451.897 527.273 450.768 526.495 450.104 524.939L451.979 524.07C452.239 524.526 452.438 524.816 452.574 524.939C452.841 525.187 453.16 525.311 453.531 525.311C454.273 525.311 454.645 524.972 454.645 524.295C454.645 523.904 454.358 523.54 453.785 523.201C453.564 523.09 453.342 522.983 453.121 522.879C452.9 522.775 452.675 522.667 452.447 522.557C451.809 522.244 451.36 521.932 451.1 521.619C450.768 521.222 450.602 520.711 450.602 520.086C450.602 519.259 450.885 518.576 451.451 518.035C452.031 517.495 452.734 517.225 453.561 517.225C454.778 517.225 455.683 517.853 456.275 519.109ZM467.535 522.762H460.719C460.777 523.543 461.031 524.165 461.48 524.627C461.93 525.083 462.506 525.311 463.209 525.311C463.756 525.311 464.208 525.18 464.566 524.92C464.918 524.66 465.318 524.178 465.768 523.475L467.623 524.51C467.337 524.998 467.034 525.418 466.715 525.77C466.396 526.115 466.054 526.401 465.689 526.629C465.325 526.85 464.931 527.013 464.508 527.117C464.085 527.221 463.626 527.273 463.131 527.273C461.712 527.273 460.572 526.818 459.713 525.906C458.854 524.988 458.424 523.771 458.424 522.254C458.424 520.75 458.84 519.533 459.674 518.602C460.514 517.684 461.627 517.225 463.014 517.225C464.413 517.225 465.52 517.671 466.334 518.562C467.141 519.448 467.545 520.675 467.545 522.244L467.535 522.762ZM465.279 520.965C464.973 519.793 464.234 519.207 463.062 519.207C462.796 519.207 462.545 519.249 462.311 519.334C462.076 519.412 461.861 519.529 461.666 519.686C461.477 519.835 461.314 520.018 461.178 520.232C461.041 520.447 460.937 520.691 460.865 520.965H465.279ZM469.947 517.488H472.145V518.338C472.548 517.915 472.906 517.625 473.219 517.469C473.538 517.306 473.915 517.225 474.352 517.225C474.931 517.225 475.536 517.413 476.168 517.791L475.162 519.803C474.745 519.503 474.339 519.354 473.941 519.354C472.743 519.354 472.145 520.258 472.145 522.068V527H469.947V517.488Z" fill="white"/>
<path fill-rule="evenodd" clip-rule="evenodd" d="M301.249 526.442C300.917 526.102 300.917 525.55 301.249 525.209L303.052 523.43L311.024 515.255C311.356 514.915 311.894 514.915 312.226 515.255L313.428 516.488C313.76 516.828 313.76 517.38 313.428 517.721L303.653 527.745C303.321 528.085 302.783 528.085 302.451 527.745L301.249 526.442Z" fill="white"/>
<path fill-rule="evenodd" clip-rule="evenodd" d="M313.428 526.442C313.76 526.102 313.76 525.55 313.428 525.209L311.625 523.43L303.653 515.255C303.321 514.915 302.783 514.915 302.451 515.255L301.249 516.488C300.917 516.828 300.917 517.38 301.249 517.721L311.024 527.745C311.356 528.085 311.894 528.085 312.226 527.745L313.428 526.442Z" fill="white"/>
</g>
<g filter="url(#filter2_d_0_1)">
<rect x="120" y="345" width="259" height="87" rx="10" fill="white"/>
</g>
<path d="M155.957 384V368.922H158.223C159.232 368.922 160.036 369 160.635 369.156C161.24 369.312 161.751 369.576 162.168 369.947C162.591 370.331 162.926 370.81 163.174 371.383C163.428 371.962 163.555 372.548 163.555 373.141C163.555 374.221 163.141 375.136 162.314 375.885C163.115 376.158 163.747 376.637 164.209 377.32C164.678 377.997 164.912 378.785 164.912 379.684C164.912 380.862 164.495 381.858 163.662 382.672C163.161 383.173 162.598 383.521 161.973 383.717C161.289 383.906 160.433 384 159.404 384H155.957ZM158.232 375.396H158.945C159.792 375.396 160.41 375.211 160.801 374.84C161.198 374.462 161.396 373.909 161.396 373.18C161.396 372.47 161.195 371.933 160.791 371.568C160.387 371.197 159.801 371.012 159.033 371.012H158.232V375.396ZM158.232 381.861H159.639C160.667 381.861 161.423 381.66 161.904 381.256C162.412 380.82 162.666 380.266 162.666 379.596C162.666 378.945 162.422 378.398 161.934 377.955C161.458 377.519 160.609 377.301 159.385 377.301H158.232V381.861ZM169.57 374.488V384H167.373V374.488H169.57ZM167.041 370.533C167.041 370.149 167.181 369.817 167.461 369.537C167.741 369.257 168.076 369.117 168.467 369.117C168.864 369.117 169.202 369.257 169.482 369.537C169.762 369.811 169.902 370.146 169.902 370.543C169.902 370.94 169.762 371.279 169.482 371.559C169.209 371.839 168.874 371.979 168.477 371.979C168.079 371.979 167.741 371.839 167.461 371.559C167.181 371.279 167.041 370.937 167.041 370.533ZM171.904 379.176C171.904 377.802 172.396 376.633 173.379 375.67C174.362 374.706 175.56 374.225 176.973 374.225C178.392 374.225 179.596 374.71 180.586 375.68C181.562 376.65 182.051 377.841 182.051 379.254C182.051 380.68 181.559 381.874 180.576 382.838C179.587 383.795 178.372 384.273 176.934 384.273C175.508 384.273 174.313 383.785 173.35 382.809C172.386 381.845 171.904 380.634 171.904 379.176ZM174.15 379.215C174.15 380.165 174.404 380.917 174.912 381.471C175.433 382.031 176.12 382.311 176.973 382.311C177.832 382.311 178.519 382.034 179.033 381.48C179.548 380.927 179.805 380.188 179.805 379.264C179.805 378.339 179.548 377.6 179.033 377.047C178.512 376.487 177.826 376.207 176.973 376.207C176.133 376.207 175.452 376.487 174.932 377.047C174.411 377.607 174.15 378.329 174.15 379.215ZM184.385 374.488H186.582V375.367C187.005 374.924 187.367 374.625 187.666 374.469C187.985 374.306 188.385 374.225 188.867 374.225C189.941 374.225 190.791 374.693 191.416 375.631C192.106 374.693 193.04 374.225 194.219 374.225C196.361 374.225 197.432 375.523 197.432 378.121V384H195.225V378.717C195.225 377.805 195.114 377.161 194.893 376.783C194.665 376.399 194.29 376.207 193.77 376.207C193.164 376.207 192.721 376.435 192.441 376.891C192.168 377.346 192.031 378.079 192.031 379.088V384H189.824V378.746C189.824 377.053 189.336 376.207 188.359 376.207C187.741 376.207 187.288 376.438 187.002 376.9C186.722 377.363 186.582 378.092 186.582 379.088V384H184.385V374.488ZM208.867 379.762H202.051C202.109 380.543 202.363 381.165 202.812 381.627C203.262 382.083 203.838 382.311 204.541 382.311C205.088 382.311 205.54 382.18 205.898 381.92C206.25 381.66 206.65 381.178 207.1 380.475L208.955 381.51C208.669 381.998 208.366 382.418 208.047 382.77C207.728 383.115 207.386 383.401 207.021 383.629C206.657 383.85 206.263 384.013 205.84 384.117C205.417 384.221 204.958 384.273 204.463 384.273C203.044 384.273 201.904 383.818 201.045 382.906C200.186 381.988 199.756 380.771 199.756 379.254C199.756 377.75 200.173 376.533 201.006 375.602C201.846 374.684 202.959 374.225 204.346 374.225C205.745 374.225 206.852 374.671 207.666 375.562C208.473 376.448 208.877 377.675 208.877 379.244L208.867 379.762ZM206.611 377.965C206.305 376.793 205.566 376.207 204.395 376.207C204.128 376.207 203.877 376.249 203.643 376.334C203.408 376.412 203.193 376.529 202.998 376.686C202.809 376.835 202.646 377.018 202.51 377.232C202.373 377.447 202.269 377.691 202.197 377.965H206.611ZM213.721 376.539V384H211.523V376.539H210.586V374.488H211.523V371.002H213.721V374.488H215.43V376.539H213.721ZM216.924 374.488H219.121V375.338C219.525 374.915 219.883 374.625 220.195 374.469C220.514 374.306 220.892 374.225 221.328 374.225C221.908 374.225 222.513 374.413 223.145 374.791L222.139 376.803C221.722 376.503 221.315 376.354 220.918 376.354C219.72 376.354 219.121 377.258 219.121 379.068V384H216.924V374.488ZM226.914 374.488V384H224.717V374.488H226.914ZM224.385 370.533C224.385 370.149 224.525 369.817 224.805 369.537C225.085 369.257 225.42 369.117 225.811 369.117C226.208 369.117 226.546 369.257 226.826 369.537C227.106 369.811 227.246 370.146 227.246 370.543C227.246 370.94 227.106 371.279 226.826 371.559C226.553 371.839 226.217 371.979 225.82 371.979C225.423 371.979 225.085 371.839 224.805 371.559C224.525 371.279 224.385 370.937 224.385 370.533ZM237.1 374.898V377.818C236.598 377.206 236.149 376.786 235.752 376.559C235.361 376.324 234.902 376.207 234.375 376.207C233.548 376.207 232.861 376.497 232.314 377.076C231.768 377.656 231.494 378.382 231.494 379.254C231.494 380.146 231.758 380.878 232.285 381.451C232.819 382.024 233.499 382.311 234.326 382.311C234.854 382.311 235.319 382.197 235.723 381.969C236.113 381.747 236.572 381.318 237.1 380.68V383.58C236.208 384.042 235.316 384.273 234.424 384.273C232.952 384.273 231.722 383.798 230.732 382.848C229.743 381.891 229.248 380.702 229.248 379.283C229.248 377.864 229.749 376.666 230.752 375.689C231.755 374.713 232.985 374.225 234.443 374.225C235.381 374.225 236.266 374.449 237.1 374.898ZM246.582 368.922L250.752 379.371L254.98 368.922H257.471L250.703 385.133L244.092 368.922H246.582ZM266.445 379.762H259.629C259.688 380.543 259.941 381.165 260.391 381.627C260.84 382.083 261.416 382.311 262.119 382.311C262.666 382.311 263.118 382.18 263.477 381.92C263.828 381.66 264.229 381.178 264.678 380.475L266.533 381.51C266.247 381.998 265.944 382.418 265.625 382.77C265.306 383.115 264.964 383.401 264.6 383.629C264.235 383.85 263.841 384.013 263.418 384.117C262.995 384.221 262.536 384.273 262.041 384.273C260.622 384.273 259.482 383.818 258.623 382.906C257.764 381.988 257.334 380.771 257.334 379.254C257.334 377.75 257.751 376.533 258.584 375.602C259.424 374.684 260.537 374.225 261.924 374.225C263.324 374.225 264.43 374.671 265.244 375.562C266.051 376.448 266.455 377.675 266.455 379.244L266.445 379.762ZM264.189 377.965C263.883 376.793 263.145 376.207 261.973 376.207C261.706 376.207 261.455 376.249 261.221 376.334C260.986 376.412 260.771 376.529 260.576 376.686C260.387 376.835 260.225 377.018 260.088 377.232C259.951 377.447 259.847 377.691 259.775 377.965H264.189ZM268.857 374.488H271.055V375.338C271.458 374.915 271.816 374.625 272.129 374.469C272.448 374.306 272.826 374.225 273.262 374.225C273.841 374.225 274.447 374.413 275.078 374.791L274.072 376.803C273.656 376.503 273.249 376.354 272.852 376.354C271.654 376.354 271.055 377.258 271.055 379.068V384H268.857V374.488ZM278.848 374.488V384H276.65V374.488H278.848ZM276.318 370.533C276.318 370.149 276.458 369.817 276.738 369.537C277.018 369.257 277.354 369.117 277.744 369.117C278.141 369.117 278.48 369.257 278.76 369.537C279.04 369.811 279.18 370.146 279.18 370.543C279.18 370.94 279.04 371.279 278.76 371.559C278.486 371.839 278.151 371.979 277.754 371.979C277.357 371.979 277.018 371.839 276.738 371.559C276.458 371.279 276.318 370.937 276.318 370.533ZM289.463 371.979H287.266V371.09C287.266 370.608 287.109 370.185 286.797 369.82C286.465 369.449 286.058 369.264 285.576 369.264C285.101 369.264 284.701 369.446 284.375 369.811C284.056 370.169 283.896 370.595 283.896 371.09V374.488H286.416V376.539H283.896V384H281.699V376.539H280.918V374.488H281.699V371.09C281.699 370.022 282.077 369.111 282.832 368.355C283.594 367.594 284.512 367.213 285.586 367.213C286.654 367.213 287.565 367.594 288.32 368.355C289.082 369.111 289.463 370.022 289.463 371.09V371.979ZM289.463 384H287.266V374.488H289.463V384ZM299.658 374.898V377.818C299.157 377.206 298.708 376.786 298.311 376.559C297.92 376.324 297.461 376.207 296.934 376.207C296.107 376.207 295.42 376.497 294.873 377.076C294.326 377.656 294.053 378.382 294.053 379.254C294.053 380.146 294.316 380.878 294.844 381.451C295.378 382.024 296.058 382.311 296.885 382.311C297.412 382.311 297.878 382.197 298.281 381.969C298.672 381.747 299.131 381.318 299.658 380.68V383.58C298.766 384.042 297.874 384.273 296.982 384.273C295.511 384.273 294.281 383.798 293.291 382.848C292.301 381.891 291.807 380.702 291.807 379.283C291.807 377.864 292.308 376.666 293.311 375.689C294.313 374.713 295.544 374.225 297.002 374.225C297.939 374.225 298.825 374.449 299.658 374.898ZM308.799 374.488H311.006V384H308.799V383.004C307.894 383.85 306.921 384.273 305.879 384.273C304.564 384.273 303.477 383.798 302.617 382.848C301.764 381.878 301.338 380.667 301.338 379.215C301.338 377.789 301.764 376.601 302.617 375.65C303.47 374.7 304.538 374.225 305.82 374.225C306.927 374.225 307.92 374.68 308.799 375.592V374.488ZM303.584 379.215C303.584 380.126 303.828 380.868 304.316 381.441C304.818 382.021 305.449 382.311 306.211 382.311C307.025 382.311 307.682 382.031 308.184 381.471C308.685 380.891 308.936 380.156 308.936 379.264C308.936 378.372 308.685 377.636 308.184 377.057C307.682 376.49 307.031 376.207 306.23 376.207C305.475 376.207 304.844 376.493 304.336 377.066C303.835 377.646 303.584 378.362 303.584 379.215ZM316.045 376.539V384H313.848V376.539H312.91V374.488H313.848V371.002H316.045V374.488H317.754V376.539H316.045ZM321.445 374.488V384H319.248V374.488H321.445ZM318.916 370.533C318.916 370.149 319.056 369.817 319.336 369.537C319.616 369.257 319.951 369.117 320.342 369.117C320.739 369.117 321.077 369.257 321.357 369.537C321.637 369.811 321.777 370.146 321.777 370.543C321.777 370.94 321.637 371.279 321.357 371.559C321.084 371.839 320.749 371.979 320.352 371.979C319.954 371.979 319.616 371.839 319.336 371.559C319.056 371.279 318.916 370.937 318.916 370.533ZM323.779 379.176C323.779 377.802 324.271 376.633 325.254 375.67C326.237 374.706 327.435 374.225 328.848 374.225C330.267 374.225 331.471 374.71 332.461 375.68C333.438 376.65 333.926 377.841 333.926 379.254C333.926 380.68 333.434 381.874 332.451 382.838C331.462 383.795 330.247 384.273 328.809 384.273C327.383 384.273 326.188 383.785 325.225 382.809C324.261 381.845 323.779 380.634 323.779 379.176ZM326.025 379.215C326.025 380.165 326.279 380.917 326.787 381.471C327.308 382.031 327.995 382.311 328.848 382.311C329.707 382.311 330.394 382.034 330.908 381.48C331.423 380.927 331.68 380.188 331.68 379.264C331.68 378.339 331.423 377.6 330.908 377.047C330.387 376.487 329.701 376.207 328.848 376.207C328.008 376.207 327.327 376.487 326.807 377.047C326.286 377.607 326.025 378.329 326.025 379.215ZM336.26 374.488H338.467V375.367C339.235 374.605 340.101 374.225 341.064 374.225C342.171 374.225 343.034 374.573 343.652 375.27C344.186 375.862 344.453 376.829 344.453 378.17V384H342.246V378.688C342.246 377.75 342.116 377.102 341.855 376.744C341.602 376.38 341.139 376.197 340.469 376.197C339.74 376.197 339.222 376.438 338.916 376.92C338.617 377.395 338.467 378.225 338.467 379.41V384H336.26V374.488ZM192.754 394.34L194.785 395.121C194.076 396.82 193.577 398.389 193.291 399.828C193.148 400.557 193.04 401.326 192.969 402.133C192.897 402.934 192.861 403.809 192.861 404.76C192.861 405.717 192.897 406.599 192.969 407.406C193.04 408.207 193.148 408.972 193.291 409.701C193.571 411.133 194.069 412.699 194.785 414.398L192.754 415.18C191.335 412.204 190.625 408.731 190.625 404.76C190.625 400.788 191.335 397.315 192.754 394.34ZM206.475 398.168L204.629 399.262C204.284 398.663 203.955 398.272 203.643 398.09C203.317 397.882 202.897 397.777 202.383 397.777C201.751 397.777 201.227 397.956 200.811 398.314C200.394 398.666 200.186 399.109 200.186 399.643C200.186 400.378 200.732 400.971 201.826 401.42L203.33 402.035C204.554 402.53 205.449 403.135 206.016 403.852C206.582 404.561 206.865 405.434 206.865 406.469C206.865 407.855 206.403 409.001 205.479 409.906C204.548 410.818 203.392 411.273 202.012 411.273C200.703 411.273 199.622 410.886 198.77 410.111C197.93 409.337 197.406 408.246 197.197 406.84L199.502 406.332C199.606 407.217 199.788 407.829 200.049 408.168C200.518 408.819 201.201 409.145 202.1 409.145C202.809 409.145 203.398 408.907 203.867 408.432C204.336 407.956 204.57 407.354 204.57 406.625C204.57 406.332 204.528 406.065 204.443 405.824C204.365 405.577 204.238 405.352 204.062 405.15C203.893 404.942 203.672 404.75 203.398 404.574C203.125 404.392 202.799 404.219 202.422 404.057L200.967 403.451C198.903 402.579 197.871 401.303 197.871 399.623C197.871 398.49 198.304 397.543 199.17 396.781C200.036 396.013 201.113 395.629 202.402 395.629C204.141 395.629 205.498 396.475 206.475 398.168ZM217.852 406.762H211.035C211.094 407.543 211.348 408.165 211.797 408.627C212.246 409.083 212.822 409.311 213.525 409.311C214.072 409.311 214.525 409.18 214.883 408.92C215.234 408.66 215.635 408.178 216.084 407.475L217.939 408.51C217.653 408.998 217.35 409.418 217.031 409.77C216.712 410.115 216.37 410.401 216.006 410.629C215.641 410.85 215.247 411.013 214.824 411.117C214.401 411.221 213.942 411.273 213.447 411.273C212.028 411.273 210.889 410.818 210.029 409.906C209.17 408.988 208.74 407.771 208.74 406.254C208.74 404.75 209.157 403.533 209.99 402.602C210.83 401.684 211.943 401.225 213.33 401.225C214.73 401.225 215.837 401.671 216.65 402.562C217.458 403.448 217.861 404.675 217.861 406.244L217.852 406.762ZM215.596 404.965C215.29 403.793 214.551 403.207 213.379 403.207C213.112 403.207 212.861 403.249 212.627 403.334C212.393 403.412 212.178 403.529 211.982 403.686C211.794 403.835 211.631 404.018 211.494 404.232C211.357 404.447 211.253 404.691 211.182 404.965H215.596ZM222.461 394.506V411H220.264V394.506H222.461ZM233.076 398.979H230.879V398.09C230.879 397.608 230.723 397.185 230.41 396.82C230.078 396.449 229.671 396.264 229.189 396.264C228.714 396.264 228.314 396.446 227.988 396.811C227.669 397.169 227.51 397.595 227.51 398.09V401.488H230.029V403.539H227.51V411H225.312V403.539H224.531V401.488H225.312V398.09C225.312 397.022 225.69 396.111 226.445 395.355C227.207 394.594 228.125 394.213 229.199 394.213C230.267 394.213 231.178 394.594 231.934 395.355C232.695 396.111 233.076 397.022 233.076 398.09V398.979ZM233.076 411H230.879V401.488H233.076V411ZM244.531 406.762H237.715C237.773 407.543 238.027 408.165 238.477 408.627C238.926 409.083 239.502 409.311 240.205 409.311C240.752 409.311 241.204 409.18 241.562 408.92C241.914 408.66 242.314 408.178 242.764 407.475L244.619 408.51C244.333 408.998 244.03 409.418 243.711 409.77C243.392 410.115 243.05 410.401 242.686 410.629C242.321 410.85 241.927 411.013 241.504 411.117C241.081 411.221 240.622 411.273 240.127 411.273C238.708 411.273 237.568 410.818 236.709 409.906C235.85 408.988 235.42 407.771 235.42 406.254C235.42 404.75 235.837 403.533 236.67 402.602C237.51 401.684 238.623 401.225 240.01 401.225C241.41 401.225 242.516 401.671 243.33 402.562C244.137 403.448 244.541 404.675 244.541 406.244L244.531 406.762ZM242.275 404.965C241.969 403.793 241.23 403.207 240.059 403.207C239.792 403.207 239.541 403.249 239.307 403.334C239.072 403.412 238.857 403.529 238.662 403.686C238.473 403.835 238.311 404.018 238.174 404.232C238.037 404.447 237.933 404.691 237.861 404.965H242.275ZM260.518 401.898V404.818C260.016 404.206 259.567 403.786 259.17 403.559C258.779 403.324 258.32 403.207 257.793 403.207C256.966 403.207 256.279 403.497 255.732 404.076C255.186 404.656 254.912 405.382 254.912 406.254C254.912 407.146 255.176 407.878 255.703 408.451C256.237 409.024 256.917 409.311 257.744 409.311C258.271 409.311 258.737 409.197 259.141 408.969C259.531 408.747 259.99 408.318 260.518 407.68V410.58C259.626 411.042 258.734 411.273 257.842 411.273C256.37 411.273 255.14 410.798 254.15 409.848C253.161 408.891 252.666 407.702 252.666 406.283C252.666 404.864 253.167 403.666 254.17 402.689C255.173 401.713 256.403 401.225 257.861 401.225C258.799 401.225 259.684 401.449 260.518 401.898ZM263.174 394.506H265.371V402.279C266.152 401.576 267.015 401.225 267.959 401.225C269.033 401.225 269.893 401.573 270.537 402.27C271.084 402.875 271.357 403.842 271.357 405.17V411H269.16V405.375C269.16 404.613 269.023 404.063 268.75 403.725C268.483 403.38 268.05 403.207 267.451 403.207C266.683 403.207 266.143 403.445 265.83 403.92C265.524 404.402 265.371 405.229 265.371 406.4V411H263.174V394.506ZM282.812 406.762H275.996C276.055 407.543 276.309 408.165 276.758 408.627C277.207 409.083 277.783 409.311 278.486 409.311C279.033 409.311 279.486 409.18 279.844 408.92C280.195 408.66 280.596 408.178 281.045 407.475L282.9 408.51C282.614 408.998 282.311 409.418 281.992 409.77C281.673 410.115 281.331 410.401 280.967 410.629C280.602 410.85 280.208 411.013 279.785 411.117C279.362 411.221 278.903 411.273 278.408 411.273C276.989 411.273 275.85 410.818 274.99 409.906C274.131 408.988 273.701 407.771 273.701 406.254C273.701 404.75 274.118 403.533 274.951 402.602C275.791 401.684 276.904 401.225 278.291 401.225C279.691 401.225 280.798 401.671 281.611 402.562C282.419 403.448 282.822 404.675 282.822 406.244L282.812 406.762ZM280.557 404.965C280.251 403.793 279.512 403.207 278.34 403.207C278.073 403.207 277.822 403.249 277.588 403.334C277.354 403.412 277.139 403.529 276.943 403.686C276.755 403.835 276.592 404.018 276.455 404.232C276.318 404.447 276.214 404.691 276.143 404.965H280.557ZM292.627 401.898V404.818C292.126 404.206 291.676 403.786 291.279 403.559C290.889 403.324 290.43 403.207 289.902 403.207C289.076 403.207 288.389 403.497 287.842 404.076C287.295 404.656 287.021 405.382 287.021 406.254C287.021 407.146 287.285 407.878 287.812 408.451C288.346 409.024 289.027 409.311 289.854 409.311C290.381 409.311 290.846 409.197 291.25 408.969C291.641 408.747 292.1 408.318 292.627 407.68V410.58C291.735 411.042 290.843 411.273 289.951 411.273C288.48 411.273 287.249 410.798 286.26 409.848C285.27 408.891 284.775 407.702 284.775 406.283C284.775 404.864 285.277 403.666 286.279 402.689C287.282 401.713 288.512 401.225 289.971 401.225C290.908 401.225 291.794 401.449 292.627 401.898ZM297.48 394.506V404.564L300.576 401.488H303.525L299.395 405.482L303.828 411H300.977L297.832 406.986L297.48 407.338V411H295.283V394.506H297.48ZM307.246 415.18L305.215 414.398C305.931 412.699 306.429 411.133 306.709 409.701C307.002 408.269 307.148 406.622 307.148 404.76C307.148 402.911 307.002 401.267 306.709 399.828C306.423 398.389 305.924 396.82 305.215 395.121L307.246 394.34C308.665 397.315 309.375 400.788 309.375 404.76C309.375 408.731 308.665 412.204 307.246 415.18Z" fill="#2963FF"/>
<path d="M185.6 89C191.892 89.0014 196.999 94.1083 197 100.4V103.929C197 106.176 195.176 108 192.929 108H163.071C160.824 108 159 106.176 159 103.929V100.4C159.001 94.1083 164.108 89.0014 170.4 89H171.817C173.441 89.7491 176.211 90.3571 178 90.3571C179.789 90.3571 182.559 89.7491 184.183 89H185.6Z" fill="#2963FF"/>
<path d="M178 87C171.928 87 167 82.072 167 76C167 69.928 171.928 65 178 65C184.072 65 189 69.928 189 76C189 82.072 184.072 87 178 87Z" fill="#2963FF" fill-opacity="0.5"/>
<path d="M339.6 89C345.892 89.0014 350.999 94.1083 351 100.4V103.929C351 106.176 349.176 108 346.929 108H317.071C314.824 108 313 106.176 313 103.929V100.4C313.001 94.1083 318.108 89.0014 324.4 89H325.817C327.441 89.7491 330.211 90.3571 332 90.3571C333.789 90.3571 336.559 89.7491 338.183 89H339.6Z" fill="#FF3295"/>
<path d="M332 87C325.928 87 321 82.072 321 76C321 69.928 325.928 65 332 65C338.072 65 343 69.928 343 76C343 82.072 338.072 87 332 87Z" fill="#FF3295" fill-opacity="0.5"/>
<path d="M36.5703 72.877V79H34.2949V63.9219H36.873C38.1361 63.9219 39.0898 64.0098 39.7344 64.1855C40.3854 64.3613 40.9583 64.6934 41.4531 65.1816C42.319 66.028 42.752 67.0957 42.752 68.3848C42.752 69.765 42.2897 70.8587 41.3652 71.666C40.4408 72.4733 39.194 72.877 37.625 72.877H36.5703ZM36.5703 70.7676H37.4199C39.5098 70.7676 40.5547 69.9635 40.5547 68.3555C40.5547 66.7995 39.4772 66.0215 37.3223 66.0215H36.5703V70.7676ZM52.8301 74.7617H46.0137C46.0723 75.543 46.3262 76.1647 46.7754 76.627C47.2246 77.0827 47.8008 77.3105 48.5039 77.3105C49.0508 77.3105 49.5033 77.1803 49.8613 76.9199C50.2129 76.6595 50.6133 76.1777 51.0625 75.4746L52.918 76.5098C52.6315 76.998 52.3288 77.418 52.0098 77.7695C51.6908 78.1146 51.349 78.401 50.9844 78.6289C50.6198 78.8503 50.2259 79.013 49.8027 79.1172C49.3796 79.2214 48.9206 79.2734 48.4258 79.2734C47.0065 79.2734 45.8672 78.8177 45.0078 77.9062C44.1484 76.9883 43.7188 75.7708 43.7188 74.2539C43.7188 72.75 44.1354 71.5326 44.9688 70.6016C45.8086 69.6836 46.9219 69.2246 48.3086 69.2246C49.7083 69.2246 50.8151 69.6706 51.6289 70.5625C52.4362 71.4479 52.8398 72.6751 52.8398 74.2441L52.8301 74.7617ZM50.5742 72.9648C50.2682 71.793 49.5293 71.207 48.3574 71.207C48.0905 71.207 47.8398 71.2493 47.6055 71.334C47.3711 71.4121 47.1562 71.5293 46.9609 71.6855C46.7721 71.8353 46.6094 72.0176 46.4727 72.2324C46.3359 72.4473 46.2318 72.6914 46.1602 72.9648H50.5742ZM55.2422 69.4883H57.4395V70.3379C57.8431 69.9147 58.2012 69.625 58.5137 69.4688C58.8327 69.306 59.2103 69.2246 59.6465 69.2246C60.2259 69.2246 60.8314 69.4134 61.4629 69.791L60.457 71.8027C60.0404 71.5033 59.6335 71.3535 59.2363 71.3535C58.0384 71.3535 57.4395 72.2585 57.4395 74.0684V79H55.2422V69.4883ZM68.25 71.1094L66.4336 72.0762C66.1471 71.4902 65.7923 71.1973 65.3691 71.1973C65.1673 71.1973 64.9948 71.2656 64.8516 71.4023C64.7083 71.5326 64.6367 71.7018 64.6367 71.9102C64.6367 72.2747 65.0599 72.6361 65.9062 72.9941C67.0716 73.4954 67.8561 73.9577 68.2598 74.3809C68.6634 74.804 68.8652 75.3737 68.8652 76.0898C68.8652 77.0078 68.5267 77.776 67.8496 78.3945C67.1921 78.9805 66.3978 79.2734 65.4668 79.2734C63.8717 79.2734 62.7422 78.4954 62.0781 76.9395L63.9531 76.0703C64.2135 76.526 64.4121 76.8158 64.5488 76.9395C64.8158 77.1868 65.1348 77.3105 65.5059 77.3105C66.248 77.3105 66.6191 76.972 66.6191 76.2949C66.6191 75.9043 66.3327 75.5397 65.7598 75.2012C65.5384 75.0905 65.3171 74.9831 65.0957 74.8789C64.8743 74.7747 64.6497 74.6673 64.4219 74.5566C63.7839 74.2441 63.3346 73.9316 63.0742 73.6191C62.7422 73.222 62.5762 72.7109 62.5762 72.0859C62.5762 71.2591 62.8594 70.5755 63.4258 70.0352C64.0052 69.4948 64.7083 69.2246 65.5352 69.2246C66.7526 69.2246 67.6576 69.8529 68.25 71.1094ZM70.3984 74.1758C70.3984 72.8021 70.89 71.6335 71.873 70.6699C72.8561 69.7064 74.054 69.2246 75.4668 69.2246C76.8861 69.2246 78.0905 69.7096 79.0801 70.6797C80.0566 71.6497 80.5449 72.8411 80.5449 74.2539C80.5449 75.6797 80.0534 76.8743 79.0703 77.8379C78.0807 78.7949 76.8665 79.2734 75.4277 79.2734C74.002 79.2734 72.8073 78.7852 71.8438 77.8086C70.8802 76.8451 70.3984 75.6341 70.3984 74.1758ZM72.6445 74.2148C72.6445 75.1654 72.8984 75.9173 73.4062 76.4707C73.9271 77.0306 74.6139 77.3105 75.4668 77.3105C76.3262 77.3105 77.013 77.0339 77.5273 76.4805C78.0417 75.9271 78.2988 75.1882 78.2988 74.2637C78.2988 73.3392 78.0417 72.6003 77.5273 72.0469C77.0065 71.487 76.3197 71.207 75.4668 71.207C74.627 71.207 73.9466 71.487 73.4258 72.0469C72.9049 72.6068 72.6445 73.3294 72.6445 74.2148ZM82.8789 69.4883H85.0859V70.3672C85.8542 69.6055 86.7201 69.2246 87.6836 69.2246C88.7904 69.2246 89.653 69.5729 90.2715 70.2695C90.8053 70.862 91.0723 71.8288 91.0723 73.1699V79H88.8652V73.6875C88.8652 72.75 88.735 72.1022 88.4746 71.7441C88.2207 71.3796 87.7585 71.1973 87.0879 71.1973C86.3587 71.1973 85.8411 71.4382 85.5352 71.9199C85.2357 72.3952 85.0859 73.2253 85.0859 74.4102V79H82.8789V69.4883ZM94.1973 77.9062C94.1973 77.5417 94.3307 77.2259 94.5977 76.959C94.8646 76.6921 95.1836 76.5586 95.5547 76.5586C95.9258 76.5586 96.2448 76.6921 96.5117 76.959C96.7786 77.2259 96.9121 77.5449 96.9121 77.916C96.9121 78.2936 96.7786 78.6159 96.5117 78.8828C96.2513 79.1432 95.9323 79.2734 95.5547 79.2734C95.1706 79.2734 94.8483 79.1432 94.5879 78.8828C94.3275 78.6224 94.1973 78.2969 94.1973 77.9062ZM94.1973 70.5625C94.1973 70.2044 94.3307 69.8919 94.5977 69.625C94.8646 69.3581 95.1836 69.2246 95.5547 69.2246C95.9258 69.2246 96.2448 69.3581 96.5117 69.625C96.7786 69.8919 96.9121 70.2109 96.9121 70.582C96.9121 70.9596 96.7786 71.2819 96.5117 71.5488C96.2513 71.8092 95.9323 71.9395 95.5547 71.9395C95.1771 71.9395 94.8548 71.806 94.5879 71.5391C94.3275 71.2786 94.1973 70.9531 94.1973 70.5625ZM111.209 63.9219V73.6777C111.209 74.8431 111.128 75.7122 110.965 76.2852C110.802 76.9362 110.525 77.4863 110.135 77.9355C109.373 78.8275 108.364 79.2734 107.107 79.2734C106.157 79.2734 105.268 79.026 104.441 78.5312L105.555 76.5879C106.108 76.959 106.626 77.1445 107.107 77.1445C107.785 77.1445 108.253 76.8874 108.514 76.373C108.787 75.8587 108.924 74.9603 108.924 73.6777V63.9219H111.209ZM113.953 74.1758C113.953 72.8021 114.445 71.6335 115.428 70.6699C116.411 69.7064 117.609 69.2246 119.021 69.2246C120.441 69.2246 121.645 69.7096 122.635 70.6797C123.611 71.6497 124.1 72.8411 124.1 74.2539C124.1 75.6797 123.608 76.8743 122.625 77.8379C121.635 78.7949 120.421 79.2734 118.982 79.2734C117.557 79.2734 116.362 78.7852 115.398 77.8086C114.435 76.8451 113.953 75.6341 113.953 74.1758ZM116.199 74.2148C116.199 75.1654 116.453 75.9173 116.961 76.4707C117.482 77.0306 118.169 77.3105 119.021 77.3105C119.881 77.3105 120.568 77.0339 121.082 76.4805C121.596 75.9271 121.854 75.1882 121.854 74.2637C121.854 73.3392 121.596 72.6003 121.082 72.0469C120.561 71.487 119.874 71.207 119.021 71.207C118.182 71.207 117.501 71.487 116.98 72.0469C116.46 72.6068 116.199 73.3294 116.199 74.2148ZM126.434 62.5059H128.631V70.2793C129.412 69.5762 130.275 69.2246 131.219 69.2246C132.293 69.2246 133.152 69.5729 133.797 70.2695C134.344 70.875 134.617 71.8418 134.617 73.1699V79H132.42V73.375C132.42 72.6133 132.283 72.0632 132.01 71.7246C131.743 71.3796 131.31 71.207 130.711 71.207C129.943 71.207 129.402 71.4447 129.09 71.9199C128.784 72.4017 128.631 73.2285 128.631 74.4004V79H126.434V62.5059ZM137.41 69.4883H139.617V70.3672C140.385 69.6055 141.251 69.2246 142.215 69.2246C143.322 69.2246 144.184 69.5729 144.803 70.2695C145.337 70.862 145.604 71.8288 145.604 73.1699V79H143.396V73.6875C143.396 72.75 143.266 72.1022 143.006 71.7441C142.752 71.3796 142.29 71.1973 141.619 71.1973C140.89 71.1973 140.372 71.4382 140.066 71.9199C139.767 72.3952 139.617 73.2253 139.617 74.4102V79H137.41V69.4883ZM29.2852 102.338H22.8301L21.1504 106H18.6992L26.1602 89.9746L33.3574 106H30.8672L29.2852 102.338ZM28.3574 100.199L26.1211 95.0723L23.7773 100.199H28.3574ZM42.1367 96.8984V99.8184C41.6354 99.2064 41.1862 98.7865 40.7891 98.5586C40.3984 98.3242 39.9395 98.207 39.4121 98.207C38.5853 98.207 37.8984 98.4967 37.3516 99.0762C36.8047 99.6556 36.5312 100.382 36.5312 101.254C36.5312 102.146 36.7949 102.878 37.3223 103.451C37.8561 104.024 38.5365 104.311 39.3633 104.311C39.8906 104.311 40.3561 104.197 40.7598 103.969C41.1504 103.747 41.6094 103.318 42.1367 102.68V105.58C41.2448 106.042 40.3529 106.273 39.4609 106.273C37.9896 106.273 36.7591 105.798 35.7695 104.848C34.7799 103.891 34.2852 102.702 34.2852 101.283C34.2852 99.8639 34.7865 98.666 35.7891 97.6895C36.7917 96.7129 38.0221 96.2246 39.4805 96.2246C40.418 96.2246 41.3034 96.4492 42.1367 96.8984ZM51.668 96.8984V99.8184C51.1667 99.2064 50.7174 98.7865 50.3203 98.5586C49.9297 98.3242 49.4707 98.207 48.9434 98.207C48.1165 98.207 47.4297 98.4967 46.8828 99.0762C46.3359 99.6556 46.0625 100.382 46.0625 101.254C46.0625 102.146 46.3262 102.878 46.8535 103.451C47.3874 104.024 48.0677 104.311 48.8945 104.311C49.4219 104.311 49.8874 104.197 50.291 103.969C50.6816 103.747 51.1406 103.318 51.668 102.68V105.58C50.776 106.042 49.8841 106.273 48.9922 106.273C47.5208 106.273 46.2904 105.798 45.3008 104.848C44.3112 103.891 43.8164 102.702 43.8164 101.283C43.8164 99.8639 44.3177 98.666 45.3203 97.6895C46.3229 96.7129 47.5534 96.2246 49.0117 96.2246C49.9492 96.2246 50.8346 96.4492 51.668 96.8984ZM53.3477 101.176C53.3477 99.8021 53.8392 98.6335 54.8223 97.6699C55.8053 96.7064 57.0033 96.2246 58.416 96.2246C59.8353 96.2246 61.0397 96.7096 62.0293 97.6797C63.0059 98.6497 63.4941 99.8411 63.4941 101.254C63.4941 102.68 63.0026 103.874 62.0195 104.838C61.0299 105.795 59.8158 106.273 58.377 106.273C56.9512 106.273 55.7565 105.785 54.793 104.809C53.8294 103.845 53.3477 102.634 53.3477 101.176ZM55.5938 101.215C55.5938 102.165 55.8477 102.917 56.3555 103.471C56.8763 104.031 57.5632 104.311 58.416 104.311C59.2754 104.311 59.9622 104.034 60.4766 103.48C60.9909 102.927 61.248 102.188 61.248 101.264C61.248 100.339 60.9909 99.6003 60.4766 99.0469C59.9557 98.487 59.2689 98.207 58.416 98.207C57.5762 98.207 56.8958 98.487 56.375 99.0469C55.8542 99.6068 55.5938 100.329 55.5938 101.215ZM68.0254 96.4883V101.947C68.0254 103.523 68.6471 104.311 69.8906 104.311C71.1341 104.311 71.7559 103.523 71.7559 101.947V96.4883H73.9531V101.996C73.9531 102.758 73.8587 103.415 73.6699 103.969C73.4876 104.464 73.1719 104.91 72.7227 105.307C71.9805 105.951 71.0365 106.273 69.8906 106.273C68.7513 106.273 67.8105 105.951 67.0684 105.307C66.6126 104.91 66.2904 104.464 66.1016 103.969C65.9193 103.526 65.8281 102.868 65.8281 101.996V96.4883H68.0254ZM76.7266 96.4883H78.9336V97.3672C79.7018 96.6055 80.5677 96.2246 81.5312 96.2246C82.638 96.2246 83.5007 96.5729 84.1191 97.2695C84.653 97.862 84.9199 98.8288 84.9199 100.17V106H82.7129V100.688C82.7129 99.75 82.5827 99.1022 82.3223 98.7441C82.0684 98.3796 81.6061 98.1973 80.9355 98.1973C80.2064 98.1973 79.6888 98.4382 79.3828 98.9199C79.0833 99.3952 78.9336 100.225 78.9336 101.41V106H76.7266V96.4883ZM89.9688 98.5391V106H87.7715V98.5391H86.834V96.4883H87.7715V93.002H89.9688V96.4883H91.6777V98.5391H89.9688ZM94.1973 104.906C94.1973 104.542 94.3307 104.226 94.5977 103.959C94.8646 103.692 95.1836 103.559 95.5547 103.559C95.9258 103.559 96.2448 103.692 96.5117 103.959C96.7786 104.226 96.9121 104.545 96.9121 104.916C96.9121 105.294 96.7786 105.616 96.5117 105.883C96.2513 106.143 95.9323 106.273 95.5547 106.273C95.1706 106.273 94.8483 106.143 94.5879 105.883C94.3275 105.622 94.1973 105.297 94.1973 104.906ZM94.1973 97.5625C94.1973 97.2044 94.3307 96.8919 94.5977 96.625C94.8646 96.3581 95.1836 96.2246 95.5547 96.2246C95.9258 96.2246 96.2448 96.3581 96.5117 96.625C96.7786 96.8919 96.9121 97.2109 96.9121 97.582C96.9121 97.9596 96.7786 98.2819 96.5117 98.5488C96.2513 98.8092 95.9323 98.9395 95.5547 98.9395C95.1771 98.9395 94.8548 98.806 94.5879 98.5391C94.3275 98.2786 94.1973 97.9531 94.1973 97.5625ZM111.209 90.9219V100.678C111.209 101.843 111.128 102.712 110.965 103.285C110.802 103.936 110.525 104.486 110.135 104.936C109.373 105.827 108.364 106.273 107.107 106.273C106.157 106.273 105.268 106.026 104.441 105.531L105.555 103.588C106.108 103.959 106.626 104.145 107.107 104.145C107.785 104.145 108.253 103.887 108.514 103.373C108.787 102.859 108.924 101.96 108.924 100.678V90.9219H111.209ZM113.953 101.176C113.953 99.8021 114.445 98.6335 115.428 97.6699C116.411 96.7064 117.609 96.2246 119.021 96.2246C120.441 96.2246 121.645 96.7096 122.635 97.6797C123.611 98.6497 124.1 99.8411 124.1 101.254C124.1 102.68 123.608 103.874 122.625 104.838C121.635 105.795 120.421 106.273 118.982 106.273C117.557 106.273 116.362 105.785 115.398 104.809C114.435 103.845 113.953 102.634 113.953 101.176ZM116.199 101.215C116.199 102.165 116.453 102.917 116.961 103.471C117.482 104.031 118.169 104.311 119.021 104.311C119.881 104.311 120.568 104.034 121.082 103.48C121.596 102.927 121.854 102.188 121.854 101.264C121.854 100.339 121.596 99.6003 121.082 99.0469C120.561 98.487 119.874 98.207 119.021 98.207C118.182 98.207 117.501 98.487 116.98 99.0469C116.46 99.6068 116.199 100.329 116.199 101.215ZM126.434 89.5059H128.631V97.2793C129.412 96.5762 130.275 96.2246 131.219 96.2246C132.293 96.2246 133.152 96.5729 133.797 97.2695C134.344 97.875 134.617 98.8418 134.617 100.17V106H132.42V100.375C132.42 99.6133 132.283 99.0632 132.01 98.7246C131.743 98.3796 131.31 98.207 130.711 98.207C129.943 98.207 129.402 98.4447 129.09 98.9199C128.784 99.4017 128.631 100.229 128.631 101.4V106H126.434V89.5059ZM137.41 96.4883H139.617V97.3672C140.385 96.6055 141.251 96.2246 142.215 96.2246C143.322 96.2246 144.184 96.5729 144.803 97.2695C145.337 97.862 145.604 98.8288 145.604 100.17V106H143.396V100.688C143.396 99.75 143.266 99.1022 143.006 98.7441C142.752 98.3796 142.29 98.1973 141.619 98.1973C140.89 98.1973 140.372 98.4382 140.066 98.9199C139.767 99.3952 139.617 100.225 139.617 101.41V106H137.41V96.4883Z" fill="#666666"/>
<path d="M367.082 70.877V77H364.807V61.9219H367.385C368.648 61.9219 369.602 62.0098 370.246 62.1855C370.897 62.3613 371.47 62.6934 371.965 63.1816C372.831 64.028 373.264 65.0957 373.264 66.3848C373.264 67.765 372.801 68.8587 371.877 69.666C370.952 70.4733 369.706 70.877 368.137 70.877H367.082ZM367.082 68.7676H367.932C370.021 68.7676 371.066 67.9635 371.066 66.3555C371.066 64.7995 369.989 64.0215 367.834 64.0215H367.082V68.7676ZM383.342 72.7617H376.525C376.584 73.543 376.838 74.1647 377.287 74.627C377.736 75.0827 378.312 75.3105 379.016 75.3105C379.562 75.3105 380.015 75.1803 380.373 74.9199C380.725 74.6595 381.125 74.1777 381.574 73.4746L383.43 74.5098C383.143 74.998 382.84 75.418 382.521 75.7695C382.202 76.1146 381.861 76.401 381.496 76.6289C381.132 76.8503 380.738 77.013 380.314 77.1172C379.891 77.2214 379.432 77.2734 378.938 77.2734C377.518 77.2734 376.379 76.8177 375.52 75.9062C374.66 74.9883 374.23 73.7708 374.23 72.2539C374.23 70.75 374.647 69.5326 375.48 68.6016C376.32 67.6836 377.434 67.2246 378.82 67.2246C380.22 67.2246 381.327 67.6706 382.141 68.5625C382.948 69.4479 383.352 70.6751 383.352 72.2441L383.342 72.7617ZM381.086 70.9648C380.78 69.793 380.041 69.207 378.869 69.207C378.602 69.207 378.352 69.2493 378.117 69.334C377.883 69.4121 377.668 69.5293 377.473 69.6855C377.284 69.8353 377.121 70.0176 376.984 70.2324C376.848 70.4473 376.743 70.6914 376.672 70.9648H381.086ZM385.754 67.4883H387.951V68.3379C388.355 67.9147 388.713 67.625 389.025 67.4688C389.344 67.306 389.722 67.2246 390.158 67.2246C390.738 67.2246 391.343 67.4134 391.975 67.791L390.969 69.8027C390.552 69.5033 390.145 69.3535 389.748 69.3535C388.55 69.3535 387.951 70.2585 387.951 72.0684V77H385.754V67.4883ZM398.762 69.1094L396.945 70.0762C396.659 69.4902 396.304 69.1973 395.881 69.1973C395.679 69.1973 395.507 69.2656 395.363 69.4023C395.22 69.5326 395.148 69.7018 395.148 69.9102C395.148 70.2747 395.572 70.6361 396.418 70.9941C397.583 71.4954 398.368 71.9577 398.771 72.3809C399.175 72.804 399.377 73.3737 399.377 74.0898C399.377 75.0078 399.038 75.776 398.361 76.3945C397.704 76.9805 396.91 77.2734 395.979 77.2734C394.383 77.2734 393.254 76.4954 392.59 74.9395L394.465 74.0703C394.725 74.526 394.924 74.8158 395.061 74.9395C395.327 75.1868 395.646 75.3105 396.018 75.3105C396.76 75.3105 397.131 74.972 397.131 74.2949C397.131 73.9043 396.844 73.5397 396.271 73.2012C396.05 73.0905 395.829 72.9831 395.607 72.8789C395.386 72.7747 395.161 72.6673 394.934 72.5566C394.296 72.2441 393.846 71.9316 393.586 71.6191C393.254 71.222 393.088 70.7109 393.088 70.0859C393.088 69.2591 393.371 68.5755 393.938 68.0352C394.517 67.4948 395.22 67.2246 396.047 67.2246C397.264 67.2246 398.169 67.8529 398.762 69.1094ZM400.91 72.1758C400.91 70.8021 401.402 69.6335 402.385 68.6699C403.368 67.7064 404.566 67.2246 405.979 67.2246C407.398 67.2246 408.602 67.7096 409.592 68.6797C410.568 69.6497 411.057 70.8411 411.057 72.2539C411.057 73.6797 410.565 74.8743 409.582 75.8379C408.592 76.7949 407.378 77.2734 405.939 77.2734C404.514 77.2734 403.319 76.7852 402.355 75.8086C401.392 74.8451 400.91 73.6341 400.91 72.1758ZM403.156 72.2148C403.156 73.1654 403.41 73.9173 403.918 74.4707C404.439 75.0306 405.126 75.3105 405.979 75.3105C406.838 75.3105 407.525 75.0339 408.039 74.4805C408.553 73.9271 408.811 73.1882 408.811 72.2637C408.811 71.3392 408.553 70.6003 408.039 70.0469C407.518 69.487 406.831 69.207 405.979 69.207C405.139 69.207 404.458 69.487 403.938 70.0469C403.417 70.6068 403.156 71.3294 403.156 72.2148ZM413.391 67.4883H415.598V68.3672C416.366 67.6055 417.232 67.2246 418.195 67.2246C419.302 67.2246 420.165 67.5729 420.783 68.2695C421.317 68.862 421.584 69.8288 421.584 71.1699V77H419.377V71.6875C419.377 70.75 419.247 70.1022 418.986 69.7441C418.732 69.3796 418.27 69.1973 417.6 69.1973C416.87 69.1973 416.353 69.4382 416.047 69.9199C415.747 70.3952 415.598 71.2253 415.598 72.4102V77H413.391V67.4883ZM424.709 75.9062C424.709 75.5417 424.842 75.2259 425.109 74.959C425.376 74.6921 425.695 74.5586 426.066 74.5586C426.438 74.5586 426.757 74.6921 427.023 74.959C427.29 75.2259 427.424 75.5449 427.424 75.916C427.424 76.2936 427.29 76.6159 427.023 76.8828C426.763 77.1432 426.444 77.2734 426.066 77.2734C425.682 77.2734 425.36 77.1432 425.1 76.8828C424.839 76.6224 424.709 76.2969 424.709 75.9062ZM424.709 68.5625C424.709 68.2044 424.842 67.8919 425.109 67.625C425.376 67.3581 425.695 67.2246 426.066 67.2246C426.438 67.2246 426.757 67.3581 427.023 67.625C427.29 67.8919 427.424 68.2109 427.424 68.582C427.424 68.9596 427.29 69.2819 427.023 69.5488C426.763 69.8092 426.444 69.9395 426.066 69.9395C425.689 69.9395 425.367 69.806 425.1 69.5391C424.839 69.2786 424.709 68.9531 424.709 68.5625ZM436.604 77L439.777 60.7891L444.953 72.5078L450.314 60.7891L453.166 77H450.832L449.377 67.8984L444.914 77.6934L440.578 67.8887L438.957 77H436.604ZM464.611 72.7617H457.795C457.854 73.543 458.107 74.1647 458.557 74.627C459.006 75.0827 459.582 75.3105 460.285 75.3105C460.832 75.3105 461.285 75.1803 461.643 74.9199C461.994 74.6595 462.395 74.1777 462.844 73.4746L464.699 74.5098C464.413 74.998 464.11 75.418 463.791 75.7695C463.472 76.1146 463.13 76.401 462.766 76.6289C462.401 76.8503 462.007 77.013 461.584 77.1172C461.161 77.2214 460.702 77.2734 460.207 77.2734C458.788 77.2734 457.648 76.8177 456.789 75.9062C455.93 74.9883 455.5 73.7708 455.5 72.2539C455.5 70.75 455.917 69.5326 456.75 68.6016C457.59 67.6836 458.703 67.2246 460.09 67.2246C461.49 67.2246 462.596 67.6706 463.41 68.5625C464.217 69.4479 464.621 70.6751 464.621 72.2441L464.611 72.7617ZM462.355 70.9648C462.049 69.793 461.311 69.207 460.139 69.207C459.872 69.207 459.621 69.2493 459.387 69.334C459.152 69.4121 458.938 69.5293 458.742 69.6855C458.553 69.8353 458.391 70.0176 458.254 70.2324C458.117 70.4473 458.013 70.6914 457.941 70.9648H462.355ZM467.023 67.4883H469.221V68.3379C469.624 67.9147 469.982 67.625 470.295 67.4688C470.614 67.306 470.992 67.2246 471.428 67.2246C472.007 67.2246 472.613 67.4134 473.244 67.791L472.238 69.8027C471.822 69.5033 471.415 69.3535 471.018 69.3535C469.82 69.3535 469.221 70.2585 469.221 72.0684V77H467.023V67.4883ZM478.381 75.2324L474.104 67.4883H476.652L479.562 72.957L482.277 67.4883H484.758L477.18 82.1758H474.67L478.381 75.2324ZM373.664 100.338H367.209L365.529 104H363.078L370.539 87.9746L377.736 104H375.246L373.664 100.338ZM372.736 98.1992L370.5 93.0723L368.156 98.1992H372.736ZM386.516 94.8984V97.8184C386.014 97.2064 385.565 96.7865 385.168 96.5586C384.777 96.3242 384.318 96.207 383.791 96.207C382.964 96.207 382.277 96.4967 381.73 97.0762C381.184 97.6556 380.91 98.3815 380.91 99.2539C380.91 100.146 381.174 100.878 381.701 101.451C382.235 102.024 382.915 102.311 383.742 102.311C384.27 102.311 384.735 102.197 385.139 101.969C385.529 101.747 385.988 101.318 386.516 100.68V103.58C385.624 104.042 384.732 104.273 383.84 104.273C382.368 104.273 381.138 103.798 380.148 102.848C379.159 101.891 378.664 100.702 378.664 99.2832C378.664 97.8639 379.165 96.666 380.168 95.6895C381.171 94.7129 382.401 94.2246 383.859 94.2246C384.797 94.2246 385.682 94.4492 386.516 94.8984ZM396.047 94.8984V97.8184C395.546 97.2064 395.096 96.7865 394.699 96.5586C394.309 96.3242 393.85 96.207 393.322 96.207C392.495 96.207 391.809 96.4967 391.262 97.0762C390.715 97.6556 390.441 98.3815 390.441 99.2539C390.441 100.146 390.705 100.878 391.232 101.451C391.766 102.024 392.447 102.311 393.273 102.311C393.801 102.311 394.266 102.197 394.67 101.969C395.061 101.747 395.52 101.318 396.047 100.68V103.58C395.155 104.042 394.263 104.273 393.371 104.273C391.9 104.273 390.669 103.798 389.68 102.848C388.69 101.891 388.195 100.702 388.195 99.2832C388.195 97.8639 388.697 96.666 389.699 95.6895C390.702 94.7129 391.932 94.2246 393.391 94.2246C394.328 94.2246 395.214 94.4492 396.047 94.8984ZM397.727 99.1758C397.727 97.8021 398.218 96.6335 399.201 95.6699C400.184 94.7064 401.382 94.2246 402.795 94.2246C404.214 94.2246 405.419 94.7096 406.408 95.6797C407.385 96.6497 407.873 97.8411 407.873 99.2539C407.873 100.68 407.382 101.874 406.398 102.838C405.409 103.795 404.195 104.273 402.756 104.273C401.33 104.273 400.135 103.785 399.172 102.809C398.208 101.845 397.727 100.634 397.727 99.1758ZM399.973 99.2148C399.973 100.165 400.227 100.917 400.734 101.471C401.255 102.031 401.942 102.311 402.795 102.311C403.654 102.311 404.341 102.034 404.855 101.48C405.37 100.927 405.627 100.188 405.627 99.2637C405.627 98.3392 405.37 97.6003 404.855 97.0469C404.335 96.487 403.648 96.207 402.795 96.207C401.955 96.207 401.275 96.487 400.754 97.0469C400.233 97.6068 399.973 98.3294 399.973 99.2148ZM412.404 94.4883V99.9473C412.404 101.523 413.026 102.311 414.27 102.311C415.513 102.311 416.135 101.523 416.135 99.9473V94.4883H418.332V99.9961C418.332 100.758 418.238 101.415 418.049 101.969C417.867 102.464 417.551 102.91 417.102 103.307C416.359 103.951 415.415 104.273 414.27 104.273C413.13 104.273 412.189 103.951 411.447 103.307C410.992 102.91 410.669 102.464 410.48 101.969C410.298 101.526 410.207 100.868 410.207 99.9961V94.4883H412.404ZM421.105 94.4883H423.312V95.3672C424.081 94.6055 424.947 94.2246 425.91 94.2246C427.017 94.2246 427.88 94.5729 428.498 95.2695C429.032 95.862 429.299 96.8288 429.299 98.1699V104H427.092V98.6875C427.092 97.75 426.962 97.1022 426.701 96.7441C426.447 96.3796 425.985 96.1973 425.314 96.1973C424.585 96.1973 424.068 96.4382 423.762 96.9199C423.462 97.3952 423.312 98.2253 423.312 99.4102V104H421.105V94.4883ZM434.348 96.5391V104H432.15V96.5391H431.213V94.4883H432.15V91.002H434.348V94.4883H436.057V96.5391H434.348ZM438.576 102.906C438.576 102.542 438.71 102.226 438.977 101.959C439.243 101.692 439.562 101.559 439.934 101.559C440.305 101.559 440.624 101.692 440.891 101.959C441.158 102.226 441.291 102.545 441.291 102.916C441.291 103.294 441.158 103.616 440.891 103.883C440.63 104.143 440.311 104.273 439.934 104.273C439.549 104.273 439.227 104.143 438.967 103.883C438.706 103.622 438.576 103.297 438.576 102.906ZM438.576 95.5625C438.576 95.2044 438.71 94.8919 438.977 94.625C439.243 94.3581 439.562 94.2246 439.934 94.2246C440.305 94.2246 440.624 94.3581 440.891 94.625C441.158 94.8919 441.291 95.2109 441.291 95.582C441.291 95.9596 441.158 96.2819 440.891 96.5488C440.63 96.8092 440.311 96.9395 439.934 96.9395C439.556 96.9395 439.234 96.806 438.967 96.5391C438.706 96.2786 438.576 95.9531 438.576 95.5625ZM455.588 88.9219V98.6777C455.588 99.8431 455.507 100.712 455.344 101.285C455.181 101.936 454.904 102.486 454.514 102.936C453.752 103.827 452.743 104.273 451.486 104.273C450.536 104.273 449.647 104.026 448.82 103.531L449.934 101.588C450.487 101.959 451.005 102.145 451.486 102.145C452.163 102.145 452.632 101.887 452.893 101.373C453.166 100.859 453.303 99.9603 453.303 98.6777V88.9219H455.588ZM458.332 99.1758C458.332 97.8021 458.824 96.6335 459.807 95.6699C460.79 94.7064 461.988 94.2246 463.4 94.2246C464.82 94.2246 466.024 94.7096 467.014 95.6797C467.99 96.6497 468.479 97.8411 468.479 99.2539C468.479 100.68 467.987 101.874 467.004 102.838C466.014 103.795 464.8 104.273 463.361 104.273C461.936 104.273 460.741 103.785 459.777 102.809C458.814 101.845 458.332 100.634 458.332 99.1758ZM460.578 99.2148C460.578 100.165 460.832 100.917 461.34 101.471C461.861 102.031 462.548 102.311 463.4 102.311C464.26 102.311 464.947 102.034 465.461 101.48C465.975 100.927 466.232 100.188 466.232 99.2637C466.232 98.3392 465.975 97.6003 465.461 97.0469C464.94 96.487 464.253 96.207 463.4 96.207C462.561 96.207 461.88 96.487 461.359 97.0469C460.839 97.6068 460.578 98.3294 460.578 99.2148ZM470.812 87.5059H473.01V95.2793C473.791 94.5762 474.654 94.2246 475.598 94.2246C476.672 94.2246 477.531 94.5729 478.176 95.2695C478.723 95.875 478.996 96.8418 478.996 98.1699V104H476.799V98.375C476.799 97.6133 476.662 97.0632 476.389 96.7246C476.122 96.3796 475.689 96.207 475.09 96.207C474.322 96.207 473.781 96.4447 473.469 96.9199C473.163 97.4017 473.01 98.2285 473.01 99.4004V104H470.812V87.5059ZM481.789 94.4883H483.996V95.3672C484.764 94.6055 485.63 94.2246 486.594 94.2246C487.701 94.2246 488.563 94.5729 489.182 95.2695C489.715 95.862 489.982 96.8288 489.982 98.1699V104H487.775V98.6875C487.775 97.75 487.645 97.1022 487.385 96.7441C487.131 96.3796 486.669 96.1973 485.998 96.1973C485.269 96.1973 484.751 96.4382 484.445 96.9199C484.146 97.3952 483.996 98.2253 483.996 99.4102V104H481.789V94.4883Z" fill="#666666"/>
<path d="M196 159L198.887 154H193.113L196 159ZM119.7 115.145L120.025 123.711L121.025 123.673L120.7 115.107L119.7 115.145ZM133.516 136.698H183V135.698H133.516V136.698ZM195.5 149.198V154.5H196.5V149.198H195.5ZM183 136.698C189.904 136.698 195.5 142.295 195.5 149.198H196.5C196.5 141.743 190.456 135.698 183 135.698V136.698ZM120.025 123.711C120.301 130.962 126.259 136.698 133.516 136.698V135.698C126.797 135.698 121.28 130.387 121.025 123.673L120.025 123.711Z" fill="#979797"/>
<path d="M312.2 159L309.313 154H315.087L312.2 159ZM388.5 115.145L388.174 123.711L387.175 123.673L387.5 115.107L388.5 115.145ZM374.684 136.698H325.2V135.698H374.684V136.698ZM312.7 149.198V154.5H311.7V149.198H312.7ZM325.2 136.698C318.296 136.698 312.7 142.295 312.7 149.198H311.7C311.7 141.743 317.744 135.698 325.2 135.698V136.698ZM388.174 123.711C387.899 130.962 381.941 136.698 374.684 136.698V135.698C381.403 135.698 386.92 130.387 387.175 123.673L388.174 123.711Z" fill="#979797"/>
<path d="M140 492L137.254 486.921L143.025 487.083L140 492ZM196.5 441.011L196.283 450.835L195.283 450.813L195.5 440.989L196.5 441.011ZM182.786 464.037H153.437V463.037H182.786V464.037ZM140.942 476.188L140.626 487.516L139.626 487.488L139.943 476.16L140.942 476.188ZM153.437 464.037C146.67 464.037 141.131 469.423 140.942 476.188L139.943 476.16C140.147 468.854 146.128 463.037 153.437 463.037V464.037ZM196.283 450.835C196.121 458.173 190.126 464.037 182.786 464.037V463.037C189.582 463.037 195.133 457.607 195.283 450.813L196.283 450.835Z" fill="#979797"/>
<path d="M369 492L371.744 486.92L365.973 487.084L369 492ZM312.6 440.996L312.516 450.417L313.516 450.426L313.6 441.004L312.6 440.996ZM326.016 464.037H355.558V463.037H326.016V464.037ZM368.053 476.184L368.373 487.516L369.373 487.488L369.052 476.156L368.053 476.184ZM355.558 464.037C362.324 464.037 367.862 469.421 368.053 476.184L369.052 476.156C368.846 468.851 362.865 463.037 355.558 463.037V464.037ZM312.516 450.417C312.449 457.919 318.513 464.037 326.016 464.037V463.037C319.069 463.037 313.454 457.372 313.516 450.426L312.516 450.417Z" fill="#979797"/>
<path d="M312.5 336L315.387 331H309.613L312.5 336ZM312 308V331.5H313V308H312Z" fill="#979797"/>
<path d="M196.5 336L199.387 331H193.613L196.5 336ZM196 308V331.5H197V308H196Z" fill="#979797"/>
<path d="M95.8149 2.47437L100.385 13.9267L105.02 2.47437H107.749L100.332 20.2416L93.0856 2.47437H95.8149ZM117.585 14.3548H110.114C110.179 15.2111 110.457 15.8925 110.949 16.3991C111.441 16.8986 112.073 17.1484 112.844 17.1484C113.443 17.1484 113.939 17.0057 114.331 16.7202C114.717 16.4348 115.155 15.9068 115.648 15.1362L117.681 16.2707C117.367 16.8059 117.036 17.2661 116.686 17.6514C116.336 18.0296 115.962 18.3435 115.562 18.5933C115.163 18.8359 114.731 19.0143 114.267 19.1284C113.803 19.2426 113.3 19.2997 112.758 19.2997C111.202 19.2997 109.954 18.8002 109.012 17.8012C108.07 16.7952 107.599 15.4608 107.599 13.7983C107.599 12.15 108.056 10.8157 108.969 9.79531C109.89 8.78922 111.11 8.28617 112.63 8.28617C114.164 8.28617 115.377 8.77495 116.269 9.7525C117.153 10.7229 117.596 12.0679 117.596 13.7876L117.585 14.3548ZM115.113 12.3855C114.777 11.1011 113.967 10.4589 112.683 10.4589C112.39 10.4589 112.116 10.5053 111.859 10.598C111.602 10.6837 111.367 10.8121 111.153 10.9834C110.946 11.1475 110.767 11.3473 110.617 11.5827C110.468 11.8182 110.353 12.0858 110.275 12.3855H115.113ZM120.229 8.57516H122.637V9.50633C123.079 9.04253 123.472 8.725 123.814 8.55375C124.164 8.37536 124.578 8.28617 125.056 8.28617C125.691 8.28617 126.355 8.4931 127.047 8.90695L125.944 11.1118C125.488 10.7836 125.042 10.6195 124.606 10.6195C123.293 10.6195 122.637 11.6113 122.637 13.5949V19H120.229V8.57516ZM131.178 8.57516V19H128.77V8.57516H131.178ZM128.406 4.24039C128.406 3.8194 128.559 3.45549 128.866 3.14867C129.173 2.84185 129.54 2.68844 129.969 2.68844C130.404 2.68844 130.775 2.84185 131.082 3.14867C131.389 3.44836 131.542 3.81583 131.542 4.25109C131.542 4.68635 131.389 5.0574 131.082 5.36422C130.782 5.67104 130.415 5.82445 129.979 5.82445C129.544 5.82445 129.173 5.67104 128.866 5.36422C128.559 5.0574 128.406 4.68279 128.406 4.24039ZM142.812 5.82445H140.404V4.85047C140.404 4.32245 140.233 3.85865 139.89 3.45906C139.526 3.05234 139.081 2.84898 138.553 2.84898C138.032 2.84898 137.593 3.04878 137.236 3.44836C136.886 3.84081 136.712 4.30818 136.712 4.85047V8.57516H139.473V10.8228H136.712V19H134.303V10.8228H133.447V8.57516H134.303V4.85047C134.303 3.68026 134.717 2.6813 135.545 1.85359C136.38 1.01875 137.386 0.601328 138.563 0.601328C139.733 0.601328 140.732 1.01875 141.56 1.85359C142.395 2.6813 142.812 3.68026 142.812 4.85047V5.82445ZM142.812 19H140.404V8.57516H142.812V19ZM153.986 9.02469V12.2249C153.437 11.5542 152.945 11.094 152.509 10.8442C152.081 10.5873 151.578 10.4589 151 10.4589C150.094 10.4589 149.341 10.7764 148.742 11.4115C148.142 12.0465 147.843 12.8421 147.843 13.7983C147.843 14.7758 148.132 15.5786 148.71 16.2065C149.295 16.8344 150.041 17.1484 150.947 17.1484C151.525 17.1484 152.035 17.0235 152.477 16.7737C152.905 16.5311 153.408 16.0602 153.986 15.3609V18.5398C153.009 19.0464 152.031 19.2997 151.054 19.2997C149.441 19.2997 148.093 18.7788 147.008 17.737C145.923 16.6881 145.381 15.3859 145.381 13.8304C145.381 12.2749 145.931 10.962 147.029 9.89164C148.128 8.82133 149.477 8.28617 151.075 8.28617C152.103 8.28617 153.073 8.53234 153.986 9.02469ZM164.005 8.57516H166.423V19H164.005V17.9083C163.013 18.8359 161.946 19.2997 160.804 19.2997C159.363 19.2997 158.171 18.7788 157.229 17.737C156.295 16.6739 155.827 15.3467 155.827 13.7555C155.827 12.1928 156.295 10.8906 157.229 9.84883C158.164 8.80706 159.334 8.28617 160.74 8.28617C161.953 8.28617 163.041 8.78565 164.005 9.78461V8.57516ZM158.289 13.7555C158.289 14.7544 158.557 15.5679 159.092 16.1958C159.641 16.8308 160.333 17.1484 161.168 17.1484C162.06 17.1484 162.781 16.8415 163.33 16.2279C163.88 15.5928 164.154 14.7865 164.154 13.809C164.154 12.8314 163.88 12.0251 163.33 11.3901C162.781 10.7693 162.067 10.4589 161.19 10.4589C160.362 10.4589 159.67 10.7729 159.113 11.4008C158.564 12.0358 158.289 12.8207 158.289 13.7555ZM171.946 10.8228V19H169.538V10.8228H168.511V8.57516H169.538V4.75414H171.946V8.57516H173.819V10.8228H171.946ZM177.865 8.57516V19H175.457V8.57516H177.865ZM175.093 4.24039C175.093 3.8194 175.246 3.45549 175.553 3.14867C175.86 2.84185 176.228 2.68844 176.656 2.68844C177.091 2.68844 177.462 2.84185 177.769 3.14867C178.076 3.44836 178.229 3.81583 178.229 4.25109C178.229 4.68635 178.076 5.0574 177.769 5.36422C177.469 5.67104 177.102 5.82445 176.666 5.82445C176.231 5.82445 175.86 5.67104 175.553 5.36422C175.246 5.0574 175.093 4.68279 175.093 4.24039ZM180.423 13.7127C180.423 12.2071 180.962 10.9263 182.039 9.87023C183.117 8.81419 184.43 8.28617 185.978 8.28617C187.534 8.28617 188.854 8.81776 189.938 9.88094C191.009 10.9441 191.544 12.2499 191.544 13.7983C191.544 15.3609 191.005 16.6703 189.927 17.7263C188.843 18.7752 187.512 19.2997 185.935 19.2997C184.373 19.2997 183.063 18.7645 182.007 17.6942C180.951 16.6382 180.423 15.311 180.423 13.7127ZM182.885 13.7555C182.885 14.7972 183.163 15.6214 183.72 16.2279C184.291 16.8415 185.043 17.1484 185.978 17.1484C186.92 17.1484 187.673 16.8451 188.236 16.2386C188.8 15.6321 189.082 14.8222 189.082 13.809C189.082 12.7958 188.8 11.9859 188.236 11.3794C187.666 10.7657 186.913 10.4589 185.978 10.4589C185.058 10.4589 184.312 10.7657 183.741 11.3794C183.17 11.993 182.885 12.7851 182.885 13.7555ZM194.102 8.57516H196.521V9.53844C197.363 8.70359 198.312 8.28617 199.368 8.28617C200.581 8.28617 201.526 8.66792 202.204 9.43141C202.789 10.0807 203.082 11.1403 203.082 12.6102V19H200.663V13.1775C200.663 12.15 200.52 11.44 200.235 11.0476C199.956 10.648 199.45 10.4482 198.715 10.4482C197.916 10.4482 197.348 10.7122 197.013 11.2402C196.685 11.7611 196.521 12.6709 196.521 13.9695V19H194.102V8.57516ZM220.581 8.57516H223V19H220.581V17.9083C219.589 18.8359 218.523 19.2997 217.381 19.2997C215.94 19.2997 214.748 18.7788 213.806 17.737C212.871 16.6739 212.404 15.3467 212.404 13.7555C212.404 12.1928 212.871 10.8906 213.806 9.84883C214.741 8.80706 215.911 8.28617 217.317 8.28617C218.53 8.28617 219.618 8.78565 220.581 9.78461V8.57516ZM214.866 13.7555C214.866 14.7544 215.133 15.5679 215.669 16.1958C216.218 16.8308 216.91 17.1484 217.745 17.1484C218.637 17.1484 219.358 16.8415 219.907 16.2279C220.456 15.5928 220.731 14.7865 220.731 13.809C220.731 12.8314 220.456 12.0251 219.907 11.3901C219.358 10.7693 218.644 10.4589 217.766 10.4589C216.939 10.4589 216.246 10.7729 215.69 11.4008C215.14 12.0358 214.866 12.8207 214.866 13.7555ZM228.523 10.8228V19H226.115V10.8228H225.087V8.57516H226.115V4.75414H228.523V8.57516H230.396V10.8228H228.523ZM241.281 10.8228V19H238.873V10.8228H237.845V8.57516H238.873V4.75414H241.281V8.57516H243.154V10.8228H241.281ZM245.241 0.922422H247.649V9.44211C248.506 8.67148 249.451 8.28617 250.486 8.28617C251.663 8.28617 252.605 8.66792 253.311 9.43141C253.911 10.095 254.21 11.1546 254.21 12.6102V19H251.802V12.835C251.802 12.0002 251.652 11.3972 251.353 11.0262C251.06 10.648 250.586 10.4589 249.929 10.4589C249.087 10.4589 248.495 10.7193 248.152 11.2402C247.817 11.7683 247.649 12.6745 247.649 13.9588V19H245.241V0.922422ZM266.765 14.3548H259.294C259.359 15.2111 259.637 15.8925 260.129 16.3991C260.622 16.8986 261.253 17.1484 262.024 17.1484C262.623 17.1484 263.119 17.0057 263.511 16.7202C263.897 16.4348 264.336 15.9068 264.828 15.1362L266.862 16.2707C266.548 16.8059 266.216 17.2661 265.866 17.6514C265.517 18.0296 265.142 18.3435 264.742 18.5933C264.343 18.8359 263.911 19.0143 263.447 19.1284C262.983 19.2426 262.48 19.2997 261.938 19.2997C260.383 19.2997 259.134 18.8002 258.192 17.8012C257.25 16.7952 256.779 15.4608 256.779 13.7983C256.779 12.15 257.236 10.8157 258.149 9.79531C259.07 8.78922 260.29 8.28617 261.81 8.28617C263.344 8.28617 264.557 8.77495 265.449 9.7525C266.334 10.7229 266.776 12.0679 266.776 13.7876L266.765 14.3548ZM264.293 12.3855C263.957 11.1011 263.148 10.4589 261.863 10.4589C261.571 10.4589 261.296 10.5053 261.039 10.598C260.782 10.6837 260.547 10.8121 260.333 10.9834C260.126 11.1475 259.947 11.3473 259.798 11.5827C259.648 11.8182 259.533 12.0858 259.455 12.3855H264.293ZM276.173 8.57516H278.581V9.53844C279.045 9.05323 279.441 8.725 279.77 8.55375C280.119 8.37536 280.558 8.28617 281.086 8.28617C282.263 8.28617 283.195 8.79992 283.88 9.82742C284.636 8.79992 285.66 8.28617 286.951 8.28617C289.299 8.28617 290.473 9.70969 290.473 12.5567V19H288.054V13.2096C288.054 12.2107 287.932 11.5042 287.69 11.0904C287.44 10.6694 287.03 10.4589 286.459 10.4589C285.795 10.4589 285.31 10.7086 285.003 11.2081C284.704 11.7076 284.554 12.5103 284.554 13.6163V19H282.135V13.2417C282.135 11.3865 281.6 10.4589 280.529 10.4589C279.852 10.4589 279.356 10.7122 279.042 11.2188C278.735 11.7254 278.581 12.5246 278.581 13.6163V19H276.173V8.57516ZM293.02 13.7127C293.02 12.2071 293.559 10.9263 294.636 9.87023C295.714 8.81419 297.027 8.28617 298.575 8.28617C300.13 8.28617 301.45 8.81776 302.535 9.88094C303.605 10.9441 304.141 12.2499 304.141 13.7983C304.141 15.3609 303.602 16.6703 302.524 17.7263C301.44 18.7752 300.109 19.2997 298.532 19.2997C296.969 19.2997 295.66 18.7645 294.604 17.6942C293.548 16.6382 293.02 15.311 293.02 13.7127ZM295.482 13.7555C295.482 14.7972 295.76 15.6214 296.317 16.2279C296.887 16.8415 297.64 17.1484 298.575 17.1484C299.517 17.1484 300.27 16.8451 300.833 16.2386C301.397 15.6321 301.679 14.8222 301.679 13.809C301.679 12.7958 301.397 11.9859 300.833 11.3794C300.262 10.7657 299.51 10.4589 298.575 10.4589C297.654 10.4589 296.909 10.7657 296.338 11.3794C295.767 11.993 295.482 12.7851 295.482 13.7555ZM306.699 8.57516H309.107V9.53844C309.571 9.05323 309.967 8.725 310.295 8.55375C310.644 8.37536 311.083 8.28617 311.611 8.28617C312.789 8.28617 313.72 8.79992 314.405 9.82742C315.161 8.79992 316.185 8.28617 317.477 8.28617C319.824 8.28617 320.998 9.70969 320.998 12.5567V19H318.579V13.2096C318.579 12.2107 318.458 11.5042 318.215 11.0904C317.965 10.6694 317.555 10.4589 316.984 10.4589C316.321 10.4589 315.835 10.7086 315.529 11.2081C315.229 11.7076 315.079 12.5103 315.079 13.6163V19H312.66V13.2417C312.66 11.3865 312.125 10.4589 311.055 10.4589C310.377 10.4589 309.881 10.7122 309.567 11.2188C309.26 11.7254 309.107 12.5246 309.107 13.6163V19H306.699V8.57516ZM333.531 14.3548H326.061C326.125 15.2111 326.403 15.8925 326.895 16.3991C327.388 16.8986 328.019 17.1484 328.79 17.1484C329.389 17.1484 329.885 17.0057 330.278 16.7202C330.663 16.4348 331.102 15.9068 331.594 15.1362L333.628 16.2707C333.314 16.8059 332.982 17.2661 332.632 17.6514C332.283 18.0296 331.908 18.3435 331.508 18.5933C331.109 18.8359 330.677 19.0143 330.213 19.1284C329.75 19.2426 329.247 19.2997 328.704 19.2997C327.149 19.2997 325.9 18.8002 324.958 17.8012C324.016 16.7952 323.545 15.4608 323.545 13.7983C323.545 12.15 324.002 10.8157 324.915 9.79531C325.836 8.78922 327.056 8.28617 328.576 8.28617C330.11 8.28617 331.323 8.77495 332.215 9.7525C333.1 10.7229 333.542 12.0679 333.542 13.7876L333.531 14.3548ZM331.059 12.3855C330.724 11.1011 329.914 10.4589 328.629 10.4589C328.337 10.4589 328.062 10.5053 327.805 10.598C327.548 10.6837 327.313 10.8121 327.099 10.9834C326.892 11.1475 326.713 11.3473 326.564 11.5827C326.414 11.8182 326.3 12.0858 326.221 12.3855H331.059ZM336.175 8.57516H338.594V9.53844C339.436 8.70359 340.385 8.28617 341.441 8.28617C342.654 8.28617 343.599 8.66792 344.277 9.43141C344.862 10.0807 345.155 11.1403 345.155 12.6102V19H342.736V13.1775C342.736 12.15 342.593 11.44 342.308 11.0476C342.03 10.648 341.523 10.4482 340.788 10.4482C339.989 10.4482 339.422 10.7122 339.086 11.2402C338.758 11.7611 338.594 12.6709 338.594 13.9695V19H336.175V8.57516ZM350.688 10.8228V19H348.28V10.8228H347.253V8.57516H348.28V4.75414H350.688V8.57516H352.561V10.8228H350.688ZM360.471 13.7127C360.471 12.2071 361.01 10.9263 362.087 9.87023C363.165 8.81419 364.478 8.28617 366.026 8.28617C367.582 8.28617 368.902 8.81776 369.986 9.88094C371.056 10.9441 371.592 12.2499 371.592 13.7983C371.592 15.3609 371.053 16.6703 369.975 17.7263C368.891 18.7752 367.56 19.2997 365.983 19.2997C364.421 19.2997 363.111 18.7645 362.055 17.6942C360.999 16.6382 360.471 15.311 360.471 13.7127ZM362.933 13.7555C362.933 14.7972 363.211 15.6214 363.768 16.2279C364.338 16.8415 365.091 17.1484 366.026 17.1484C366.968 17.1484 367.721 16.8451 368.284 16.2386C368.848 15.6321 369.13 14.8222 369.13 13.809C369.13 12.7958 368.848 11.9859 368.284 11.3794C367.714 10.7657 366.961 10.4589 366.026 10.4589C365.106 10.4589 364.36 10.7657 363.789 11.3794C363.218 11.993 362.933 12.7851 362.933 13.7555ZM376.644 10.8228V19H374.225V10.8228H373.368V8.57516H374.225V4.55078C374.225 3.23786 374.453 2.31026 374.91 1.76797C375.538 1.01161 376.451 0.633437 377.65 0.633437C378.078 0.633437 378.616 0.758307 379.266 1.00805V3.46977L379.02 3.34133C378.499 3.07732 378.071 2.94531 377.735 2.94531C377.307 2.94531 377.018 3.09872 376.868 3.40555C376.718 3.70523 376.644 4.2832 376.644 5.13945V8.57516H379.266V10.8228H376.644ZM389.83 8.57516V14.5582C389.83 16.285 390.511 17.1484 391.874 17.1484C393.237 17.1484 393.918 16.285 393.918 14.5582V8.57516H396.327V14.6117C396.327 15.4466 396.223 16.1672 396.016 16.7737C395.816 17.316 395.47 17.8048 394.978 18.2401C394.165 18.9465 393.13 19.2997 391.874 19.2997C390.625 19.2997 389.594 18.9465 388.781 18.2401C388.281 17.8048 387.928 17.316 387.721 16.7737C387.521 16.2885 387.422 15.5679 387.422 14.6117V8.57516H389.83ZM405.424 10.3519L403.433 11.4115C403.119 10.7693 402.731 10.4482 402.267 10.4482C402.046 10.4482 401.857 10.5231 401.7 10.673C401.543 10.8157 401.464 11.0012 401.464 11.2295C401.464 11.6291 401.928 12.0251 402.855 12.4176C404.133 12.967 404.993 13.4736 405.435 13.9374C405.877 14.4012 406.099 15.0256 406.099 15.8105C406.099 16.8166 405.727 17.6585 404.985 18.3364C404.265 18.9786 403.394 19.2997 402.374 19.2997C400.626 19.2997 399.388 18.447 398.66 16.7416L400.715 15.7891C401 16.2885 401.218 16.6061 401.368 16.7416C401.66 17.0128 402.01 17.1484 402.417 17.1484C403.23 17.1484 403.637 16.7773 403.637 16.0352C403.637 15.6071 403.323 15.2075 402.695 14.8365C402.452 14.7152 402.21 14.5974 401.967 14.4833C401.725 14.3691 401.478 14.2514 401.229 14.1301C400.529 13.7876 400.037 13.4451 399.752 13.1026C399.388 12.6673 399.206 12.1072 399.206 11.4222C399.206 10.516 399.516 9.76677 400.137 9.17453C400.772 8.58229 401.543 8.28617 402.449 8.28617C403.783 8.28617 404.775 8.97474 405.424 10.3519ZM417.765 14.3548H410.294C410.358 15.2111 410.637 15.8925 411.129 16.3991C411.621 16.8986 412.253 17.1484 413.023 17.1484C413.623 17.1484 414.119 17.0057 414.511 16.7202C414.896 16.4348 415.335 15.9068 415.828 15.1362L417.861 16.2707C417.547 16.8059 417.215 17.2661 416.866 17.6514C416.516 18.0296 416.142 18.3435 415.742 18.5933C415.342 18.8359 414.911 19.0143 414.447 19.1284C413.983 19.2426 413.48 19.2997 412.938 19.2997C411.382 19.2997 410.134 18.8002 409.192 17.8012C408.25 16.7952 407.779 15.4608 407.779 13.7983C407.779 12.15 408.236 10.8157 409.149 9.79531C410.069 8.78922 411.29 8.28617 412.809 8.28617C414.343 8.28617 415.557 8.77495 416.448 9.7525C417.333 10.7229 417.776 12.0679 417.776 13.7876L417.765 14.3548ZM415.292 12.3855C414.957 11.1011 414.147 10.4589 412.863 10.4589C412.57 10.4589 412.296 10.5053 412.039 10.598C411.782 10.6837 411.546 10.8121 411.332 10.9834C411.125 11.1475 410.947 11.3473 410.797 11.5827C410.647 11.8182 410.533 12.0858 410.455 12.3855H415.292Z" fill="#2862FE"/>
<g filter="url(#filter3_d_0_1)">
<rect x="161" y="169" width="189" height="128" rx="10" fill="white"/>
<g clip-path="url(#clip2_0_1)" filter="url(#filter4_d_0_1)">
<rect x="185.2" y="242.4" width="141" height="34" rx="6.44" fill="#F0F0F0"/>
<path d="M202.12 263.28L205.172 253.798H207.379L203.219 265.4H201.729L202.12 263.28ZM199.299 253.798L202.327 263.28L202.741 265.4H201.243L197.099 253.798H199.299ZM211.937 265.559C211.3 265.559 210.723 265.456 210.208 265.249C209.698 265.036 209.262 264.741 208.901 264.364C208.545 263.987 208.272 263.543 208.08 263.033C207.889 262.523 207.793 261.973 207.793 261.384V261.065C207.793 260.39 207.892 259.779 208.088 259.232C208.285 258.685 208.558 258.218 208.909 257.83C209.26 257.437 209.674 257.136 210.152 256.929C210.63 256.722 211.148 256.618 211.706 256.618C212.322 256.618 212.862 256.722 213.324 256.929C213.786 257.136 214.168 257.429 214.471 257.806C214.779 258.178 215.008 258.621 215.157 259.137C215.311 259.652 215.388 260.22 215.388 260.842V261.663H208.726V260.284H213.491V260.133C213.48 259.787 213.411 259.463 213.284 259.16C213.162 258.858 212.973 258.613 212.718 258.427C212.463 258.241 212.123 258.148 211.698 258.148C211.379 258.148 211.095 258.218 210.845 258.356C210.601 258.488 210.397 258.682 210.232 258.937C210.067 259.192 209.94 259.5 209.849 259.862C209.764 260.218 209.722 260.619 209.722 261.065V261.384C209.722 261.761 209.772 262.112 209.873 262.436C209.979 262.754 210.134 263.033 210.335 263.272C210.537 263.511 210.782 263.7 211.069 263.838C211.355 263.971 211.682 264.037 212.049 264.037C212.511 264.037 212.923 263.944 213.284 263.758C213.645 263.573 213.959 263.31 214.224 262.97L215.236 263.95C215.05 264.221 214.809 264.481 214.511 264.731C214.214 264.975 213.85 265.174 213.419 265.328C212.994 265.482 212.5 265.559 211.937 265.559ZM218.814 258.419V265.4H216.894V256.778H218.727L218.814 258.419ZM221.452 256.722L221.436 258.507C221.319 258.486 221.192 258.47 221.053 258.459C220.921 258.449 220.788 258.443 220.655 258.443C220.326 258.443 220.036 258.491 219.786 258.587C219.537 258.677 219.327 258.81 219.157 258.985C218.992 259.155 218.865 259.362 218.774 259.607C218.684 259.851 218.631 260.125 218.615 260.428L218.177 260.459C218.177 259.918 218.23 259.415 218.336 258.953C218.442 258.491 218.602 258.085 218.814 257.734C219.032 257.383 219.303 257.11 219.627 256.913C219.956 256.717 220.336 256.618 220.767 256.618C220.883 256.618 221.008 256.629 221.141 256.65C221.279 256.672 221.383 256.695 221.452 256.722ZM224.711 256.778V265.4H222.783V256.778H224.711ZM222.655 254.515C222.655 254.223 222.751 253.981 222.942 253.79C223.139 253.593 223.409 253.495 223.755 253.495C224.095 253.495 224.363 253.593 224.56 253.79C224.756 253.981 224.854 254.223 224.854 254.515C224.854 254.802 224.756 255.041 224.56 255.232C224.363 255.423 224.095 255.519 223.755 255.519C223.409 255.519 223.139 255.423 222.942 255.232C222.751 255.041 222.655 254.802 222.655 254.515ZM229.413 265.4H227.492V255.949C227.492 255.306 227.612 254.767 227.851 254.331C228.095 253.89 228.443 253.558 228.895 253.335C229.346 253.107 229.88 252.993 230.496 252.993C230.688 252.993 230.876 253.006 231.062 253.033C231.248 253.054 231.429 253.088 231.604 253.136L231.556 254.618C231.45 254.592 231.333 254.573 231.206 254.563C231.083 254.552 230.951 254.547 230.807 254.547C230.515 254.547 230.263 254.602 230.05 254.714C229.843 254.82 229.684 254.977 229.572 255.184C229.466 255.391 229.413 255.646 229.413 255.949V265.4ZM231.19 256.778V258.18H226.169V256.778H231.19ZM235.086 264.46L237.429 256.778H239.485L236.027 266.715C235.947 266.927 235.843 267.158 235.716 267.408C235.588 267.658 235.421 267.894 235.214 268.117C235.012 268.346 234.76 268.529 234.457 268.667C234.154 268.811 233.787 268.882 233.357 268.882C233.187 268.882 233.022 268.866 232.863 268.835C232.709 268.808 232.563 268.779 232.425 268.747L232.417 267.281C232.47 267.286 232.534 267.291 232.608 267.297C232.688 267.302 232.752 267.305 232.799 267.305C233.118 267.305 233.384 267.265 233.596 267.185C233.809 267.111 233.981 266.988 234.114 266.818C234.252 266.648 234.369 266.42 234.465 266.133L235.086 264.46ZM233.764 256.778L235.812 263.233L236.154 265.257L234.823 265.599L231.692 256.778H233.764ZM246.992 263.488L248.984 256.778H250.211L249.876 258.786L247.868 265.4H246.769L246.992 263.488ZM245.82 256.778L247.374 263.519L247.502 265.4H246.274L243.94 256.778H245.82ZM252.076 263.44L253.582 256.778H255.454L253.128 265.4H251.9L252.076 263.44ZM250.418 256.778L252.387 263.408L252.634 265.4H251.534L249.502 258.778L249.167 256.778H250.418ZM258.817 256.778V265.4H256.889V256.778H258.817ZM256.761 254.515C256.761 254.223 256.857 253.981 257.048 253.79C257.245 253.593 257.516 253.495 257.861 253.495C258.201 253.495 258.469 253.593 258.666 253.79C258.862 253.981 258.961 254.223 258.961 254.515C258.961 254.802 258.862 255.041 258.666 255.232C258.469 255.423 258.201 255.519 257.861 255.519C257.516 255.519 257.245 255.423 257.048 255.232C256.857 255.041 256.761 254.802 256.761 254.515ZM264.874 256.778V258.18H260.013V256.778H264.874ZM261.415 254.666H263.336V263.017C263.336 263.283 263.373 263.488 263.447 263.631C263.527 263.769 263.636 263.862 263.774 263.91C263.912 263.958 264.074 263.982 264.26 263.982C264.393 263.982 264.52 263.974 264.642 263.958C264.765 263.942 264.863 263.926 264.937 263.91L264.945 265.376C264.786 265.424 264.6 265.466 264.387 265.504C264.18 265.541 263.941 265.559 263.67 265.559C263.229 265.559 262.839 265.482 262.499 265.328C262.159 265.169 261.893 264.911 261.702 264.555C261.511 264.199 261.415 263.727 261.415 263.137V254.666ZM268.252 253.16V265.4H266.34V253.16H268.252ZM267.918 260.77L267.296 260.762C267.301 260.167 267.384 259.617 267.543 259.113C267.708 258.608 267.936 258.17 268.228 257.798C268.526 257.421 268.882 257.131 269.296 256.929C269.711 256.722 270.17 256.618 270.675 256.618C271.1 256.618 271.482 256.677 271.822 256.794C272.168 256.911 272.465 257.099 272.715 257.36C272.964 257.615 273.153 257.949 273.281 258.364C273.413 258.773 273.48 259.272 273.48 259.862V265.4H271.551V259.846C271.551 259.431 271.49 259.102 271.368 258.858C271.251 258.613 271.079 258.438 270.85 258.332C270.622 258.22 270.343 258.164 270.013 258.164C269.668 258.164 269.363 258.233 269.097 258.372C268.837 258.51 268.619 258.698 268.444 258.937C268.268 259.176 268.135 259.453 268.045 259.766C267.96 260.08 267.918 260.414 267.918 260.77Z" fill="#464646"/>
<path fill-rule="evenodd" clip-rule="evenodd" d="M296.406 255.83H293.74C293.644 255.83 293.567 255.908 293.567 256.005V257.399C293.567 257.473 293.609 257.54 293.674 257.572L296.309 258.841C296.434 258.902 296.58 258.809 296.58 258.669V256.005C296.58 255.908 296.502 255.83 296.406 255.83V255.83Z" fill="black"/>
<path fill-rule="evenodd" clip-rule="evenodd" d="M312.088 256.004C312.087 255.908 312.01 255.83 311.915 255.83H303.026C302.93 255.83 302.853 255.908 302.853 256.005V258.507C302.853 258.603 302.931 258.681 303.026 258.681H305.963V267.398C305.963 267.494 306.041 267.572 306.136 267.572H308.803C308.899 267.572 308.976 267.494 308.976 267.398V258.744L311.917 258.749C312.016 258.749 312.097 258.667 312.096 258.567L312.087 256.004L312.088 256.004Z" fill="black"/>
<path fill-rule="evenodd" clip-rule="evenodd" d="M304.58 264.986H301.314V256.005C301.314 255.908 301.236 255.83 301.141 255.83H298.457C298.361 255.83 298.284 255.908 298.284 256.005V267.398C298.284 267.494 298.361 267.572 298.457 267.572H304.744C304.747 267.57 304.75 267.567 304.753 267.564V265.161C304.753 265.064 304.675 264.986 304.58 264.986H304.58Z" fill="black"/>
<path fill-rule="evenodd" clip-rule="evenodd" d="M296.472 261.883L293.837 260.613C293.712 260.553 293.567 260.645 293.567 260.786V267.398C293.567 267.494 293.644 267.572 293.74 267.572H296.406C296.502 267.572 296.58 267.494 296.58 267.398V262.055C296.58 261.981 296.538 261.914 296.472 261.883V261.883Z" fill="black"/>
<path fill-rule="evenodd" clip-rule="evenodd" d="M289.182 260.567C288.315 260.227 287.688 259.982 287.688 259.442C287.688 258.902 288.152 258.539 288.843 258.539L288.866 258.54C289.42 258.587 290.045 258.825 291.001 259.271C291.089 259.312 291.194 259.272 291.233 259.182L292.157 257.034C292.194 256.95 292.159 256.851 292.078 256.809C290.754 256.126 289.719 255.83 288.67 255.83C286.18 255.83 284.572 257.248 284.572 259.442C284.572 261.749 286.537 262.474 287.972 263.003C288.85 263.326 289.484 263.56 289.484 264.104C289.484 264.421 289.378 264.688 289.177 264.876C288.948 265.09 288.616 265.187 288.217 265.156C287.419 265.094 286.764 264.918 285.893 264.521C285.804 264.481 285.7 264.523 285.662 264.614L284.843 266.602C284.808 266.687 284.844 266.785 284.925 266.826C285.985 267.351 287.014 267.569 288.406 267.569C291.019 267.569 292.579 266.323 292.579 264.236C292.579 261.898 290.615 261.129 289.182 260.567V260.567Z" fill="black"/>
<path fill-rule="evenodd" clip-rule="evenodd" d="M315.846 253.713C314.463 252.18 312.584 251.23 310.554 251.038L288.216 251C283.686 251 280 254.732 280 259.32C280 262.331 281.588 264.974 283.961 266.434C284.028 266.476 284.116 266.446 284.147 266.373L285.051 264.205C285.075 264.148 285.056 264.081 285.005 264.046C285.005 264.046 285.004 264.046 285.004 264.046C283.467 262.971 282.55 261.204 282.55 259.32C282.55 256.156 285.092 253.582 288.216 253.582H309.857C312.882 253.582 315.408 256.016 315.45 259.08C315.471 260.623 314.889 262.103 313.817 263.238C312.819 264.294 311.522 264.914 310.139 265.004C310.043 265.01 309.967 265.089 309.967 265.187V267.408C309.967 267.512 310.053 267.597 310.156 267.591C312.185 267.483 314.094 266.606 315.568 265.093C317.136 263.484 318 261.378 318 259.161C318 257.085 317.235 255.252 315.846 253.713Z" fill="#0088FF"/>
</g>
<path d="M196.847 200.164L192.437 192.49H194.782L197.871 197.889L200.969 192.49H203.314L198.886 200.164V206H196.847V200.164ZM202.876 201.677C202.876 200.447 203.317 199.4 204.197 198.536C205.078 197.673 206.152 197.241 207.417 197.241C208.689 197.241 209.768 197.676 210.655 198.545C211.53 199.414 211.967 200.482 211.967 201.747C211.967 203.025 211.527 204.095 210.646 204.959C209.76 205.816 208.672 206.245 207.382 206.245C206.105 206.245 205.035 205.807 204.171 204.932C203.308 204.069 202.876 202.984 202.876 201.677ZM204.889 201.712C204.889 202.564 205.116 203.238 205.571 203.734C206.038 204.235 206.653 204.486 207.417 204.486C208.187 204.486 208.803 204.238 209.264 203.742C209.725 203.247 209.955 202.585 209.955 201.756C209.955 200.928 209.725 200.266 209.264 199.77C208.797 199.268 208.182 199.017 207.417 199.017C206.665 199.017 206.055 199.268 205.589 199.77C205.122 200.272 204.889 200.919 204.889 201.712ZM216.027 197.477V202.369C216.027 203.78 216.585 204.486 217.699 204.486C218.813 204.486 219.37 203.78 219.37 202.369V197.477H221.339V202.412C221.339 203.095 221.254 203.684 221.085 204.18C220.922 204.623 220.639 205.023 220.236 205.379C219.571 205.956 218.725 206.245 217.699 206.245C216.678 206.245 215.835 205.956 215.17 205.379C214.762 205.023 214.473 204.623 214.304 204.18C214.14 203.783 214.059 203.194 214.059 202.412V197.477H216.027ZM223.824 197.477H225.792V198.239C226.154 197.86 226.475 197.6 226.755 197.46C227.041 197.314 227.379 197.241 227.77 197.241C228.289 197.241 228.832 197.41 229.397 197.749L228.496 199.551C228.123 199.283 227.758 199.149 227.402 199.149C226.329 199.149 225.792 199.96 225.792 201.581V206H223.824V197.477ZM244.369 202.719H238.585L237.08 206H234.884L241.569 191.641L248.018 206H245.786L244.369 202.719ZM243.538 200.802L241.534 196.209L239.434 200.802H243.538ZM251.307 210.638H249.339V197.477H251.307V198.405C252.083 197.629 252.964 197.241 253.95 197.241C255.122 197.241 256.088 197.673 256.846 198.536C257.616 199.394 258.001 200.476 258.001 201.782C258.001 203.06 257.619 204.125 256.855 204.976C256.097 205.822 255.14 206.245 253.985 206.245C252.987 206.245 252.095 205.845 251.307 205.046V210.638ZM255.989 201.791C255.989 200.975 255.767 200.31 255.324 199.796C254.875 199.277 254.309 199.017 253.626 199.017C252.903 199.017 252.317 199.268 251.867 199.77C251.418 200.272 251.194 200.931 251.194 201.747C251.194 202.547 251.418 203.206 251.867 203.725C252.311 204.232 252.894 204.486 253.617 204.486C254.3 204.486 254.863 204.23 255.306 203.716C255.761 203.203 255.989 202.561 255.989 201.791ZM262.052 210.638H260.084V197.477H262.052V198.405C262.828 197.629 263.709 197.241 264.695 197.241C265.867 197.241 266.833 197.673 267.591 198.536C268.361 199.394 268.746 200.476 268.746 201.782C268.746 203.06 268.364 204.125 267.6 204.976C266.842 205.822 265.885 206.245 264.73 206.245C263.732 206.245 262.84 205.845 262.052 205.046V210.638ZM266.734 201.791C266.734 200.975 266.512 200.31 266.069 199.796C265.62 199.277 265.054 199.017 264.371 199.017C263.648 199.017 263.062 199.268 262.612 199.77C262.163 200.272 261.939 200.931 261.939 201.747C261.939 202.547 262.163 203.206 262.612 203.725C263.056 204.232 263.639 204.486 264.362 204.486C265.045 204.486 265.608 204.23 266.051 203.716C266.506 203.203 266.734 202.561 266.734 201.791ZM277.181 191.072L278.809 191.79L271.074 209.693L269.464 208.966L277.181 191.072ZM281.163 192.49L284.68 201.52L288.355 191.834L291.873 201.52L295.609 192.49H297.823L291.785 206.858L288.311 197.285L284.689 206.866L278.949 192.49H281.163ZM305.837 202.202H299.73C299.782 202.902 300.01 203.46 300.412 203.874C300.815 204.282 301.331 204.486 301.961 204.486C302.451 204.486 302.857 204.37 303.177 204.136C303.492 203.903 303.851 203.471 304.254 202.841L305.916 203.769C305.66 204.206 305.388 204.582 305.102 204.897C304.817 205.207 304.51 205.463 304.184 205.667C303.857 205.866 303.504 206.012 303.125 206.105C302.746 206.198 302.335 206.245 301.891 206.245C300.62 206.245 299.599 205.837 298.829 205.02C298.059 204.197 297.674 203.107 297.674 201.747C297.674 200.4 298.047 199.309 298.794 198.475C299.546 197.652 300.544 197.241 301.786 197.241C303.04 197.241 304.032 197.641 304.761 198.44C305.485 199.233 305.846 200.333 305.846 201.739L305.837 202.202ZM303.816 200.592C303.542 199.542 302.88 199.017 301.83 199.017C301.591 199.017 301.366 199.055 301.156 199.131C300.946 199.201 300.754 199.306 300.579 199.446C300.41 199.58 300.264 199.744 300.141 199.936C300.019 200.129 299.925 200.347 299.861 200.592H303.816ZM309.967 191.221V198.466C310.755 197.65 311.647 197.241 312.645 197.241C313.794 197.241 314.751 197.67 315.515 198.527C316.279 199.379 316.661 200.441 316.661 201.712C316.661 203.025 316.276 204.11 315.506 204.967C314.742 205.819 313.777 206.245 312.61 206.245C311.624 206.245 310.743 205.866 309.967 205.107V206H307.999V191.221H309.967ZM314.649 201.8C314.649 200.983 314.427 200.318 313.984 199.805C313.535 199.28 312.972 199.017 312.295 199.017C311.572 199.017 310.982 199.271 310.527 199.779C310.078 200.28 309.854 200.934 309.854 201.739C309.854 202.567 310.075 203.229 310.519 203.725C310.962 204.232 311.545 204.486 312.269 204.486C312.951 204.486 313.517 204.232 313.966 203.725C314.421 203.212 314.649 202.57 314.649 201.8Z" fill="#464646"/>
</g>
<defs>
<filter id="filter0_d_0_1" x="14" y="495" width="218" height="63" filterUnits="userSpaceOnUse" color-interpolation-filters="sRGB">
<feFlood flood-opacity="0" result="BackgroundImageFix"/>
<feColorMatrix in="SourceAlpha" type="matrix" values="0 0 0 0 0 0 0 0 0 0 0 0 0 0 0 0 0 0 127 0" result="hardAlpha"/>
<feMorphology radius="5" operator="erode" in="SourceAlpha" result="effect1_dropShadow_0_1"/>
<feOffset dy="5"/>
<feGaussianBlur stdDeviation="7.5"/>
<feColorMatrix type="matrix" values="0 0 0 0 0 0 0 0 0 0 0 0 0 0 0 0 0 0 0.35 0"/>
<feBlend mode="normal" in2="BackgroundImageFix" result="effect1_dropShadow_0_1"/>
<feBlend mode="normal" in="SourceGraphic" in2="effect1_dropShadow_0_1" result="shape"/>
</filter>
<filter id="filter1_d_0_1" x="276" y="495" width="228" height="63" filterUnits="userSpaceOnUse" color-interpolation-filters="sRGB">
<feFlood flood-opacity="0" result="BackgroundImageFix"/>
<feColorMatrix in="SourceAlpha" type="matrix" values="0 0 0 0 0 0 0 0 0 0 0 0 0 0 0 0 0 0 127 0" result="hardAlpha"/>
<feMorphology radius="5" operator="erode" in="SourceAlpha" result="effect1_dropShadow_0_1"/>
<feOffset dy="5"/>
<feGaussianBlur stdDeviation="7.5"/>
<feColorMatrix type="matrix" values="0 0 0 0 0 0 0 0 0 0 0 0 0 0 0 0 0 0 0.35 0"/>
<feBlend mode="normal" in2="BackgroundImageFix" result="effect1_dropShadow_0_1"/>
<feBlend mode="normal" in="SourceGraphic" in2="effect1_dropShadow_0_1" result="shape"/>
</filter>
<filter id="filter2_d_0_1" x="96" y="326" width="307" height="135" filterUnits="userSpaceOnUse" color-interpolation-filters="sRGB">
<feFlood flood-opacity="0" result="BackgroundImageFix"/>
<feColorMatrix in="SourceAlpha" type="matrix" values="0 0 0 0 0 0 0 0 0 0 0 0 0 0 0 0 0 0 127 0" result="hardAlpha"/>
<feMorphology radius="11" operator="erode" in="SourceAlpha" result="effect1_dropShadow_0_1"/>
<feOffset dy="5"/>
<feGaussianBlur stdDeviation="17.5"/>
<feColorMatrix type="matrix" values="0 0 0 0 0 0 0 0 0 0 0 0 0 0 0 0 0 0 0.35 0"/>
<feBlend mode="normal" in2="BackgroundImageFix" result="effect1_dropShadow_0_1"/>
<feBlend mode="normal" in="SourceGraphic" in2="effect1_dropShadow_0_1" result="shape"/>
</filter>
<filter id="filter3_d_0_1" x="157" y="169" width="197" height="136" filterUnits="userSpaceOnUse" color-interpolation-filters="sRGB">
<feFlood flood-opacity="0" result="BackgroundImageFix"/>
<feColorMatrix in="SourceAlpha" type="matrix" values="0 0 0 0 0 0 0 0 0 0 0 0 0 0 0 0 0 0 127 0" result="hardAlpha"/>
<feOffset dy="4"/>
<feGaussianBlur stdDeviation="2"/>
<feComposite in2="hardAlpha" operator="out"/>
<feColorMatrix type="matrix" values="0 0 0 0 0 0 0 0 0 0 0 0 0 0 0 0 0 0 0.15 0"/>
<feBlend mode="normal" in2="BackgroundImageFix" result="effect1_dropShadow_0_1"/>
<feBlend mode="normal" in="SourceGraphic" in2="effect1_dropShadow_0_1" result="shape"/>
</filter>
<filter id="filter4_d_0_1" x="182.2" y="240.4" width="147" height="40" filterUnits="userSpaceOnUse" color-interpolation-filters="sRGB">
<feFlood flood-opacity="0" result="BackgroundImageFix"/>
<feColorMatrix in="SourceAlpha" type="matrix" values="0 0 0 0 0 0 0 0 0 0 0 0 0 0 0 0 0 0 127 0" result="hardAlpha"/>
<feOffset dy="1"/>
<feGaussianBlur stdDeviation="1.5"/>
<feColorMatrix type="matrix" values="0 0 0 0 0.613948 0 0 0 0 0.613948 0 0 0 0 0.613948 0 0 0 0.5 0"/>
<feBlend mode="normal" in2="BackgroundImageFix" result="effect1_dropShadow_0_1"/>
<feBlend mode="normal" in="SourceGraphic" in2="effect1_dropShadow_0_1" result="shape"/>
</filter>
<clipPath id="clip0_0_1">
<rect width="240" height="43" fill="white" transform="translate(0 500)"/>
</clipPath>
<clipPath id="clip1_0_1">
<rect width="240" height="43" fill="white" transform="translate(268 500)"/>
</clipPath>
<clipPath id="clip2_0_1">
<rect width="141" height="34" fill="white" transform="translate(185.2 242.4)"/>
</clipPath>
</defs>
</svg>
