<?xml version="1.0" encoding="UTF-8"?>
<svg width="438px" height="438px" viewBox="0 0 438 438" version="1.1" xmlns="http://www.w3.org/2000/svg" xmlns:xlink="http://www.w3.org/1999/xlink">
    <!-- Generator: Sketch 52.6 (67491) - http://www.bohemiancoding.com/sketch -->
    <title>Shape</title>
    <desc>Created with Sketch.</desc>
    <g id="Page-1" stroke="none" stroke-width="1" fill="none" fill-rule="evenodd" fill-opacity="0.9">
        <g id="social_facebook" fill="#FFFFFF">
            <path d="M0.949,400.711 C0.949,420.789 17.213,437.051 37.289,437.051 L400.71,437.051 C420.788,437.051 437.05,420.789 437.05,400.711 L437.05,37.29 C437.05,17.213 420.788,0.95 400.71,0.95 L37.29,0.95 C17.213,0.95 0.95,17.214 0.95,37.29 L0.95,400.711 L0.949,400.711 Z M228.086,382.538 L228.086,237.172 L191.744,237.172 L191.744,182.658 L228.086,182.658 C228.086,88.987 232.079,82.719 346.198,82.719 L346.198,137.232 C286.049,137.232 291.684,140.594 291.684,182.659 L346.198,182.659 L346.198,237.173 L291.684,237.173 L291.684,382.539 L228.086,382.539 L228.086,382.538 Z" id="Shape"></path>
        </g>
    </g>
</svg>