<?xml version="1.0" encoding="UTF-8"?><svg id="Layer_1" xmlns="http://www.w3.org/2000/svg" viewBox="0 0 1920 1080"><defs><style>.cls-1{fill:#08f;}</style></defs><g><path d="M743.18,617.06v253.95c0,5.41,4.43,9.84,9.84,9.84h124.45c6.33,0,10.54-4.92,10.54-9.84v-195.35c0-3.78-2.19-7.22-5.61-8.82l-125.37-58.6c-6.45-3.02-13.85,1.69-13.85,8.82Z"/><path d="M888.02,406.28c0-5.62-4.21-10.54-10.54-10.54h-124.45c-4.92,0-9.84,4.92-9.84,10.54v45.14c0,3.76,2.17,7.18,5.56,8.79l125.37,59.43c6.46,3.06,13.9-1.65,13.9-8.79v-104.57Z"/></g><path d="M399.47,737.69c2.11-7.03,6.45-9.62,12.9-6.36,39.34,18.79,66.65,27.14,102.1,29.86,22.43,1.72,39.56-8.28,39.56-31.32,0-41.48-199.87-34.76-199.87-188.03,0-94.21,71.01-156.79,177.88-156.79,49.92,0,96.96,15.33,156.91,47.61,5.62,3.52,8.46,8.18,6.2,13.36l-44.29,101.44c-2.11,7.03-7.01,8.62-12.64,5.1-43.81-20.75-74.55-33.93-99.16-36.03-21.79,0-35.86,9.83-35.86,25.31,0,41.48,198.98,38.67,198.98,193.35,0,93.5-72.62,145.53-180.89,145.53-60.32,0-105.78-9.7-154.13-34.94-1.75-.91-3.37-2.09-4.65-3.59-3.21-3.77-3.73-8.46-.52-15.22l37.48-89.28Z"/><g><path d="M1548.52,405.58c.71-4.92-3.51-9.84-9.83-9.84h-378.26c-4.92,0-9.84,4.92-9.84,10.54v106.16c0,5.63,4.92,9.84,9.84,9.84h116.71v348.73c0,4.92,4.92,9.84,10.55,9.84h124.44c5.63,0,9.84-3.52,9.84-9.48v-346.78l115.73-2.31c4.92,0,10.54-4.21,11.25-9.84l-.43-106.86Z"/><path d="M1223.56,754.31h-130.76V406.28c0-5.62-4.92-10.54-10.55-10.54h-124.44c-5.63,0-10.55,4.92-10.55,10.54v464.74c0,4.92,4.92,9.84,10.55,9.84h263.65c5.62,0,10.54-4.92,11.25-9.84v-106.86c0-5.63-4.23-9.84-9.15-9.84Z"/></g><path class="cls-1" d="M1447.53,200.64l-943.87-1.5c-186.46,0-338.16,151.7-338.16,338.16,0,114.48,57.2,215.82,144.5,277.03,3.56,2.49,8.52,1.03,10.19-2.98l42.78-102.72c1.68-4.02,.59-8.64-2.65-11.56-44-39.52-71.66-96.9-71.41-160.63,.46-117.64,98.87-213.88,216.52-213.88h910.91c118.42,0,214.75,96.33,214.75,214.75,0,97.52-66.31,183.98-156.17,210.75-5.08,1.51-8.56,6.18-8.56,11.48v106.17c0,5.48,5,9.6,10.38,8.56,156.99-30.36,277.76-172.1,277.76-336.96,0-174.76-134.05-320.77-306.97-336.66Z"/></svg>