<?xml version="1.0" encoding="UTF-8"?><svg id="Layer_1" xmlns="http://www.w3.org/2000/svg" viewBox="0 0 1920 1080"><defs><style>.cls-1{fill:#08f;}.cls-2{fill:#fff;}</style></defs><g><path class="cls-2" d="M853.69,395.54h-110.58c-3.97,0-7.18,3.21-7.18,7.18v57.33c0,3.02,1.74,5.77,4.46,7.08l109.26,52.18c5.2,2.49,11.22-1.31,11.22-7.08v-109.51c0-3.97-3.22-7.18-7.18-7.18Z"/><path class="cls-2" d="M1503.96,402.69c-.02-3.96-3.23-7.15-7.18-7.15h-368.59c-3.97,0-7.18,3.21-7.18,7.18v102.84c0,3.97,3.22,7.18,7.18,7.18h121.8v358.29c0,3.97,3.22,7.18,7.18,7.18h110.58c3.97,0,7.18-3.22,7.18-7.18v-355.72l121.93,.2c4.12,0,7.47-3.34,7.45-7.47l-.37-105.36Z"/><path class="cls-2" d="M1192.62,771.9h-135.42V402.72c0-3.97-3.22-7.18-7.18-7.18h-111.3c-3.97,0-7.18,3.22-7.18,7.18v468.31c0,3.97,3.22,7.18,7.18,7.18h260.71c.12-.08,.26-.21,.38-.34v-98.79c0-3.97-3.22-7.18-7.18-7.18Z"/><path class="cls-2" d="M856.41,644.34l-109.26-52.18c-5.2-2.49-11.22,1.31-11.22,7.08v271.79c0,3.97,3.22,7.18,7.18,7.18h110.58c3.97,0,7.18-3.22,7.18-7.18v-219.62c0-3.02-1.74-5.77-4.46-7.08Z"/><path class="cls-2" d="M554.11,590.25c-35.96-13.97-61.94-24.06-61.94-46.24s19.24-37.13,47.89-37.13l.96,.04c22.97,1.96,48.87,11.75,88.52,30.07,3.66,1.69,8.01,.04,9.61-3.65l38.34-88.31c1.51-3.47,.06-7.53-3.3-9.25-54.91-28.08-97.82-40.24-141.3-40.24-103.25,0-169.97,58.28-169.97,148.47,0,94.84,81.51,124.62,141.03,146.36,36.39,13.3,62.68,22.9,62.68,45.29,0,13.03-4.4,23.99-12.73,31.7-9.51,8.81-23.27,12.79-39.79,11.53-33.1-2.54-60.26-9.8-96.39-26.09-3.68-1.66-8.02,.07-9.57,3.79l-33.97,81.74c-1.45,3.48,.03,7.53,3.41,9.19,43.96,21.6,86.61,30.55,144.34,30.55,108.35,0,173.04-51.21,173.04-136.99,0-96.11-81.42-127.74-140.86-150.83Z"/></g><path class="cls-1" d="M1655.48,310.01c-57.11-62.51-134.69-101.22-218.49-109.05l-922.2-1.56c-187.02,0-339.19,152.17-339.19,339.21,0,122.77,65.57,230.49,163.52,290.04,2.77,1.69,6.42,.47,7.68-2.52l37.34-88.36c.99-2.35,.18-5.05-1.92-6.49-.01,0-.02-.02-.04-.02-63.45-43.81-101.32-115.83-101.32-192.64,0-129,104.95-233.95,233.95-233.95h893.4c124.91,0,229.18,99.25,230.91,224.15,.87,62.92-23.15,123.24-67.41,169.52-41.19,43.06-94.75,68.31-151.83,71.98-3.98,.26-7.11,3.48-7.11,7.47v90.55c0,4.25,3.54,7.7,7.79,7.48,83.78-4.43,162.6-40.19,223.45-101.84,64.74-65.6,100.39-151.49,100.39-241.84,0-84.66-31.58-159.37-88.92-222.13Z"/></svg>