<?xml version="1.0" encoding="UTF-8"?>
<svg width="101px" height="57px" viewBox="0 0 101 57" version="1.1" xmlns="http://www.w3.org/2000/svg" xmlns:xlink="http://www.w3.org/1999/xlink">
    <!-- Generator: Sketch 52.6 (67491) - http://www.bohemiancoding.com/sketch -->
    <title>Slice</title>
    <desc>Created with Sketch.</desc>
    <g id="Page-1" stroke="none" stroke-width="1" fill="none" fill-rule="evenodd">
        <g id="silt_blue" transform="translate(1.000000, 0.000000)">
            <path d="M52.3359375,20.953125 L52.3359375,55 C52.3359375,55.5522847 51.8882222,56 51.3359375,56 L44.546875,56 C43.9945903,56 43.546875,55.5522847 43.546875,55 L43.546875,20.953125 C43.546875,20.4008403 43.9945903,19.953125 44.546875,19.953125 L51.3359375,19.953125 C51.8882222,19.953125 52.3359375,20.4008403 52.3359375,20.953125 Z M43.21875,6.14305141 C43.21875,4.87507365 43.6808028,3.77904152 44.6049221,2.85492214 C45.5290415,1.93080276 46.6358191,1.46875 47.925288,1.46875 C49.236248,1.46875 50.353771,1.93080276 51.2778904,2.85492214 C52.2020097,3.75755037 52.6640625,4.86432792 52.6640625,6.17528797 C52.6640625,7.48624802 52.2020097,8.60377098 51.2778904,9.5278904 C50.3752621,10.4520097 49.2684846,10.9140625 47.9575245,10.9140625 C46.6465645,10.9140625 45.5290415,10.4520097 44.6049221,9.5278904 C43.6808028,8.60377098 43.21875,7.47550261 43.21875,6.14305141 Z" id="i" stroke="#2963FF" stroke-width="2" fill="#2963FF" fill-rule="nonzero"></path>
            <path d="M31.7194586,10.334444 L26.8964477,13.1973119 C26.447424,13.4638439 25.8689199,13.340033 25.5683182,12.9130668 C24.2703933,11.0695309 23.3005719,9.960283 22.6588542,9.585323 C21.5251153,8.85851957 20.0626142,8.49512328 18.2713068,8.49512328 C16.0718535,8.49512328 14.2465613,9.1197106 12.7953756,10.3689041 C11.3441899,11.595385 10.618608,13.1398192 10.618608,15.002253 C10.618608,17.5687778 12.5232606,19.6355941 16.3326231,21.2027641 L21.5704703,23.3490949 C25.8333283,25.0752531 28.9510634,27.1818159 30.9237689,29.6688466 C32.8964745,32.1558772 33.8828125,35.2049991 33.8828125,38.8163038 C33.8828125,43.6540894 32.2729275,47.6514485 29.0531092,50.8085011 C25.8106162,53.9882663 21.7859037,55.578125 16.978851,55.578125 C12.4212209,55.578125 8.81597222,54.2759623 5.68686869,51.5239447 C3.72626431,49.7996113 1.99599564,46.3354157 0.49606269,41.131358 L0.49604908,41.1313619 C0.34309182,40.6006726 0.64930416,40.0464675 1.17999348,39.8935103 C1.19864214,39.8881353 1.21744332,39.8833043 1.23637313,39.8790235 L7.13414472,38.5452581 C7.63067334,38.4329729 8.1323136,38.7116048 8.29937777,39.1924771 C9.2933735,42.0535638 10.0664503,43.8436084 10.618608,44.562611 C12.2511919,46.8338719 14.1558398,48.1511392 17.284959,48.1511392 C19.7565096,48.1511392 21.8085461,47.3221414 23.4411301,45.664121 C25.073714,44.0061006 25.8899937,41.9052159 25.8899937,39.3614037 C25.8899937,38.3393363 25.7482785,37.4024553 25.4648438,36.5507325 C25.181409,35.6990097 24.7392575,34.9154364 24.1383759,34.1999893 C23.5374944,33.4845421 22.7608949,32.8145302 21.8085543,32.1899335 C20.8562137,31.5653368 19.7224918,30.9691397 18.4073548,30.4013245 L13.3395676,28.2890625 C6.15166335,25.245573 2.55776515,20.7939685 2.55776515,14.9341156 C2.55776515,10.9821217 4.06561518,7.67748676 7.08136048,5.02011158 C10.0971058,2.34002379 13.8497745,1 18.3393308,1 C24.6540854,1 29.2379282,3.66765465 32.0908591,9.0029639 L32.0908769,9.0029545 C32.3431248,9.4746872 32.1794633,10.0613938 31.7194586,10.334444 Z" id="S" stroke="#2963FF" stroke-width="2" fill="#2963FF"></path>
            <g id="Group-4" transform="translate(61.000000, 19.000000)">
                <path d="M29.8885171,30.0919006 L29.8885171,35.9986168 C29.8885171,37.1031863 28.9930866,37.9986168 27.8885171,37.9986168 L2,37.9986168 C0.8954305,37.9986168 1.60007386e-13,37.1031863 1.59872116e-13,35.9986168 L0.000114943984,2 C0.000114943984,0.8954305 1.0110096,2.72923479e-14 2.1155791,2.70894418e-14 L8.71738297,0 C9.82195247,-2.02906125e-16 10.6019188,0.8954305 10.6019188,2 L10.6019188,26.0919006 C10.6019188,27.1964701 11.4973493,28.0919006 12.6019188,28.0919006 L27.8885171,28.0919006 C28.9930866,28.0919006 29.8885171,28.9873311 29.8885171,30.0919006 Z" id="Path-9" fill="#2963FF"></path>
                <path d="M0.68696788,37.4882878 C7.52989799,30.6858196 10.962364,27.2845855 10.984366,27.2845855 C11.017369,27.2845855 11.5069977,28.0784857 12.5416019,28.0784857 L27.8885171,28.0784857 C28.9930866,28.0784857 29.8885171,28.9739162 29.8885171,30.0784857 L29.8885171,36.0207877 C29.8885171,37.1253572 28.9930866,38.0207877 27.8885171,38.0207877 L2.75770373,38.0207877 C1.66245742,38.0577666 0.972212142,37.8802666 0.68696788,37.4882878 Z" id="Path-2" fill="#09B3FF"></path>
            </g>
            <g id="Group-3" transform="translate(60.000000, 0.000000)">
                <path d="M40.0000146,37.0164535 C40.0000146,38.121023 39.1045842,39.0164536 38.0000147,39.0164537 L2.0000001,39.0164562 C0.8954306,39.0164562 9.99999951e-08,38.1210257 9.99999941e-08,37.0164562 L1.39705323e-05,30.5073826 C1.54284101e-05,29.4028142 0.895445502,28.5073853 2.00001397,28.5073853 L8.10886126,28.5073826 C9.21343076,28.5073826 10.1088613,27.6119521 10.1088613,26.5073826 C10.1088613,26.5021319 10.1088406,26.4968811 10.1087992,26.4916306 L10.1088613,2.6023506 C10.1088613,1.4977811 10.8954445,0.6023506 12.000014,0.6023506 L18.5810018,0.6023506 C19.6855713,0.6023506 20.5810018,1.4977811 20.5810018,2.6023506 L20.5810018,26.3097101 C20.5810018,27.2502399 21.3434519,28.01269 22.2839817,28.01269 L38.000014,28.0126901 C39.1045834,28.0126901 40.0000139,28.9081206 40.000014,30.01269 L40.0000146,37.0164535 Z" id="Path-9" fill="#2963FF" transform="translate(20.000007, 19.809403) rotate(-180.000000) translate(-20.000007, -19.809403) "></path>
                <path d="M9e-07,12.160259 C5.82863264,5.91137305 9.46537364,2.05890855 10.9102239,0.602865415 C10.94159,0.571256384 11.2678574,1.16809841 12.2084946,1.16809841 C17.4351691,1.16809841 22.6618435,1.16809841 27.888518,1.16809841 C28.9930875,1.16809841 29.888518,2.06352891 29.888518,3.16809841 L29.888518,10.160259 C29.888518,11.2648285 28.9930875,12.160259 27.888518,12.160259 L9e-07,12.160259 Z" id="Path-2" fill="#09B3FF" transform="translate(14.944259, 6.380956) rotate(180.000000) translate(-14.944259, -6.380956) "></path>
            </g>
        </g>
    </g>
</svg>